<svg xmlns="http://www.w3.org/2000/svg" viewBox="0 0 399.28 353.23"><defs><style>.cls-1{isolation:isolate;}.cls-2{fill:#00499a;}.cls-3{fill:#0094f8;}.cls-4{fill:#b3b3b3;mix-blend-mode:multiply;}</style></defs><title>Logo UGI</title><g class="cls-1"><g id="Capa_2" data-name="Capa 2"><path class="cls-2" d="M122.92,53.27c-5.8,0-10.35,1.69-13.91,5.17s-5.25,7.93-5.25,13.7v79.43a32.48,32.48,0,0,1-9.39,23.48A31.43,31.43,0,0,1,71,184.72a31.93,31.93,0,0,1-23.47-9.66A32.26,32.26,0,0,1,38,151.5V72.56c0-5.81-1.73-10.38-5.3-14s-8.1-5.32-13.86-5.32S8.6,55,5.17,58.54,0,66.7,0,72.53v78.83c0,20.48,6.66,37.13,20.37,50.89S50.64,222.69,71,222.69c20.15,0,36.61-6.73,50.31-20.56s20.38-30.41,20.38-50.62V72.12c0-5.78-1.67-10.27-5.12-13.72S128.69,53.27,122.92,53.27Z"/><path class="cls-2" d="M380.12,53.27c-5.77,0-10.25,1.68-13.69,5.13s-5.12,7.94-5.12,13.72V203.84c0,5.79,1.67,10.28,5.12,13.73s7.92,5.12,13.69,5.12S390.46,221,394,217.52s5.25-7.92,5.25-13.68V72.12C399.28,59.09,393.37,53.27,380.12,53.27Z"/><path class="cls-3" d="M333.75,49.74h0A20.22,20.22,0,0,0,309,47.11c-8.14,4.93-20.78,9.23-38.68,6.42A89.46,89.46,0,0,0,233.66,50c-42,4.57-75.44,39-78.78,81.16a89,89,0,0,0,95.89,96c43.11-3.4,78-38.31,81.47-81.41a88.7,88.7,0,0,0-15.63-58,64,64,0,0,0,13.67-6.55A20.08,20.08,0,0,0,333.75,49.74Zm-83.64,138.6A50.37,50.37,0,1,1,293.5,145,50.39,50.39,0,0,1,250.11,188.34Z"/><path class="cls-3" d="M281.58,247.34h-75a52.9,52.9,0,0,0-52.75,52.74v.4a52.91,52.91,0,0,0,52.75,52.75h75a52.91,52.91,0,0,0,52.75-52.75v-.4A52.9,52.9,0,0,0,281.58,247.34Zm-1.18,67.79H207.72a14.85,14.85,0,1,1,0-29.69H280.4a14.85,14.85,0,1,1,0,29.69Z"/><path class="cls-2" d="M380.29,38a18.15,18.15,0,0,0,13.38-5.61A18.13,18.13,0,0,0,399.28,19a18.15,18.15,0,0,0-5.61-13.38,18.75,18.75,0,0,0-26.75,0A18.14,18.14,0,0,0,361.31,19a18.13,18.13,0,0,0,5.61,13.37A18.13,18.13,0,0,0,380.29,38Z"/><path class="cls-4" d="M380.29,222.69a19.16,19.16,0,1,0-13.37-5.61A18.11,18.11,0,0,0,380.29,222.69Z"/><path class="cls-4" d="M320.21,83.58a18.94,18.94,0,0,0,14-5.88,19.62,19.62,0,0,0,0-28,19.89,19.89,0,0,0-33.9,14,18.94,18.94,0,0,0,5.88,14A18.93,18.93,0,0,0,320.21,83.58Z"/><path class="cls-4" d="M122.74,91.24a19.16,19.16,0,0,0,19-19,18.91,18.91,0,0,0-32.36-13.37,18.74,18.74,0,0,0,0,26.74A18.09,18.09,0,0,0,122.74,91.24Z"/></g></g></svg>