<svg id="Capa_2" data-name="Capa 2" xmlns="http://www.w3.org/2000/svg" xmlns:xlink="http://www.w3.org/1999/xlink" viewBox="0 0 1152.44 609.84"><defs><style>.cls-1,.cls-12{fill:none;}.cls-2{fill:#e1e1e1;}.cls-3{fill:#fafafa;}.cls-4{fill:#ececec;}.cls-5{fill:#f5f5f5;}.cls-6{fill:#a8a8a8;}.cls-7{fill:#00cf88;}.cls-8{fill:#fff;}.cls-9{fill:#1a2e35;}.cls-10{fill:#375a64;}.cls-11{fill:#c8c8c8;}.cls-12{stroke:#c8c8c8;stroke-miterlimit:10;stroke-width:0.5px;}.cls-13{fill:#008db8;}.cls-14{fill:#e6e6e6;}.cls-14,.cls-19{opacity:0.2;}.cls-15{fill:#00499a;}.cls-16{fill:#ffbd00;}.cls-17{fill:#b3b3b3;}.cls-18{fill:#1a7fcd;}.cls-20{clip-path:url(#clip-path);}.cls-21{fill:#ce7f6d;}.cls-22{fill:#985047;}.cls-23{opacity:0.3;}.cls-24{fill:#ffbf9d;}.cls-25{fill:#ff9a6c;}</style><clipPath id="clip-path"><rect class="cls-1" x="148.28" y="188.6" width="253.82" height="392.55"/></clipPath></defs><title>ugiland - casos de exito</title><rect class="cls-2" x="68.37" y="89.02" width="161.33" height="168.17"/><rect class="cls-3" x="57.45" y="89.02" width="161.33" height="168.17"/><path class="cls-2" d="M218.83,257.24H57.4V89H218.83Zm-161.33-.1H218.73V89.07H57.5Z"/><rect class="cls-3" x="79.13" y="111.62" width="117.96" height="122.96"/><path class="cls-2" d="M79.13,235.4c.1.11-1,1.4-2.91,3.39s-4.53,4.67-7.5,7.6S63,251.91,61,253.76s-3.31,2.95-3.41,2.84,1-1.38,2.89-3.37S65,248.55,68,245.62s5.71-5.54,7.72-7.39S79,235.29,79.13,235.4Z"/><path class="cls-2" d="M197.09,235.1c.11-.09,1.4,1,3.39,2.91s4.67,4.53,7.6,7.5,5.52,5.69,7.37,7.7,2.94,3.31,2.84,3.41-1.38-1-3.37-2.89-4.68-4.54-7.61-7.52-5.55-5.71-7.39-7.72S197,235.19,197.09,235.1Z"/><path class="cls-2" d="M196.77,112c-.09-.11,1-1.39,2.91-3.38s4.53-4.68,7.5-7.6,5.69-5.53,7.7-7.38,3.31-2.94,3.41-2.84-1,1.38-2.89,3.37-4.54,4.69-7.52,7.62-5.71,5.54-7.72,7.39S196.86,112.06,196.77,112Z"/><path class="cls-2" d="M78.81,112.25c-.11.1-1.4-1-3.38-2.91s-4.68-4.53-7.6-7.49-5.53-5.7-7.38-7.71-2.94-3.31-2.84-3.41,1.38,1,3.37,2.9,4.68,4.53,7.62,7.51,5.54,5.71,7.39,7.72S78.92,112.16,78.81,112.25Z"/><path class="cls-2" d="M196.77,234.58a4.63,4.63,0,0,1,0-.59c0-.42,0-1,0-1.72,0-1.54,0-3.76-.06-6.64,0-5.82-.06-14.3-.12-25.06,0-21.53-.13-52.21-.23-88.95l.46.46-117.62.07h0l.53-.53c0,45.14-.06,87.36-.08,123l-.45-.44,85.18.22,23.92.12,6.33.05,1.64,0,.57,0a3.2,3.2,0,0,1-.52,0l-1.59,0-6.24.06-23.83.11L79.13,235h-.44v-.45c0-35.6,0-77.82-.08-123v-.52h.54l117.62.07h.45v.45c-.09,36.86-.17,67.64-.23,89.24-.05,10.72-.09,19.16-.12,25,0,2.84,0,5-.05,6.55,0,.71,0,1.26,0,1.67A2.93,2.93,0,0,1,196.77,234.58Z"/><rect class="cls-4" x="118.43" y="153.42" width="39.36" height="39.36"/><rect class="cls-2" x="1048.27" y="66.33" width="13.63" height="67.83" transform="translate(-0.52 5.65) rotate(-0.31)"/><rect class="cls-4" x="930.09" y="66.57" width="35.3" height="37.45" transform="translate(-0.44 5.07) rotate(-0.31)"/><rect class="cls-5" x="965.22" y="66.38" width="35.3" height="37.45" transform="translate(-0.44 5.27) rotate(-0.31)"/><path class="cls-2" d="M930,77c23.46.19,47,0,70.44-.33a.38.38,0,0,0,0-.75c-23.46-.13-47,0-70.44.43a.33.33,0,0,0,0,.65Z"/><rect class="cls-4" x="908.06" y="103.47" width="64.14" height="30.52" transform="translate(-0.62 5.04) rotate(-0.31)"/><rect class="cls-5" x="971.89" y="103.13" width="64.14" height="30.52" transform="translate(-0.62 5.38) rotate(-0.31)"/><path class="cls-2" d="M908,112.13c42.61.48,85.37.05,128-.63a.38.38,0,0,0,0-.75c-42.62-.23-85.38-.2-128,.74a.32.32,0,0,0,0,.64Z"/><rect class="cls-2" x="884.04" y="134.16" width="248.5" height="10.93"/><rect class="cls-2" x="924.72" y="139.42" width="10.09" height="37.31"/><rect class="cls-2" x="1075.31" y="139.42" width="10.09" height="37.31"/><rect class="cls-4" x="1061.64" y="41.04" width="13.63" height="93.3" transform="translate(-0.45 5.72) rotate(-0.31)"/><rect class="cls-5" x="1075.35" y="58.43" width="21.18" height="75.61" transform="translate(-0.5 5.83) rotate(-0.31)"/><path class="cls-2" d="M1096.18,72.94c0,.2-4.74.36-10.59.36s-10.59-.16-10.59-.36,4.74-.37,10.59-.37S1096.18,72.73,1096.18,72.94Z"/><path class="cls-2" d="M1096.18,69.76c0,.2-4.74.37-10.59.37S1075,70,1075,69.76s4.74-.37,10.59-.37S1096.18,69.56,1096.18,69.76Z"/><path class="cls-2" d="M1096.18,122.6c0,.2-4.74.37-10.59.37s-10.59-.17-10.59-.37,4.74-.37,10.59-.37S1096.18,122.4,1096.18,122.6Z"/><path class="cls-2" d="M1096.18,119.42c0,.21-4.74.37-10.59.37s-10.59-.16-10.59-.37,4.74-.36,10.59-.36S1096.18,119.22,1096.18,119.42Z"/><path class="cls-2" d="M1085.93,112.49c-.2,0-.36-7.62-.36-17s.16-17,.36-17,.37,7.63.37,17S1086.14,112.49,1085.93,112.49Z"/><rect class="cls-4" x="1096.41" y="76.94" width="23.06" height="57.07"/><path class="cls-3" d="M1108.59,119.2a4.94,4.94,0,0,1-5.15-5.13,4.45,4.45,0,0,1,1.87-3.85l.52.72a3.71,3.71,0,0,0-1.51,3.13,4.28,4.28,0,0,0,8.55,0,3.71,3.71,0,0,0-1.52-3.13l.53-.72a4.52,4.52,0,0,1,1.87,3.85A5,5,0,0,1,1108.59,119.2Z"/><path class="cls-3" d="M1112.44,108.8l-.77-.44a5.92,5.92,0,0,0,1.22-3.66c0-2.14-.76-3-1.91-3-3,0-.77,6.73-4.76,6.73-1.53,0-2.78-1.29-2.78-3.85a6.22,6.22,0,0,1,1-3.48l.78.44a5.26,5.26,0,0,0-.91,3c0,2,.81,2.86,1.9,2.86,3,0,.9-6.72,4.77-6.72,1.65,0,2.78,1.41,2.78,4A6.34,6.34,0,0,1,1112.44,108.8Z"/><path class="cls-3" d="M1112.44,99.51l-.77-.44a5.92,5.92,0,0,0,1.22-3.66c0-2.14-.76-3-1.91-3-3,0-.77,6.72-4.76,6.72-1.53,0-2.78-1.28-2.78-3.85a6.27,6.27,0,0,1,1-3.48l.78.45a5.24,5.24,0,0,0-.91,3c0,2,.81,2.86,1.9,2.86,3,0,.9-6.73,4.77-6.73,1.65,0,2.78,1.42,2.78,4A6.34,6.34,0,0,1,1112.44,99.51Z"/><path class="cls-2" d="M1071.93,56.93A3.92,3.92,0,1,1,1068,53,3.92,3.92,0,0,1,1071.93,56.93Z"/><rect class="cls-2" x="1066.8" y="67.71" width="2.42" height="55.5"/><path class="cls-4" d="M306,450.54H112.16V317.9H306ZM113.69,449H304.51V319.43H113.69Z"/><path class="cls-6" d="M127.32,326.45a3.86,3.86,0,1,1-3.86-3.86A3.86,3.86,0,0,1,127.32,326.45Z"/><path class="cls-4" d="M143.07,326.45a3.86,3.86,0,1,1-3.85-3.86A3.85,3.85,0,0,1,143.07,326.45Z"/><path class="cls-7" d="M158.83,326.45a3.86,3.86,0,1,1-3.86-3.86A3.86,3.86,0,0,1,158.83,326.45Z"/><rect class="cls-4" x="112.92" y="333.24" width="192.35" height="1.53"/><rect class="cls-8" x="170.48" y="26.69" width="811.48" height="465.54"/><path class="cls-9" d="M982,492.23l-811.48.38h-.38v-.38L170,26.69v-.5h.5L982,26.4h.29v.29Zm0,0-.29-465.54L982,27l-811.48.21.5-.5-.12,465.54-.38-.38Z"/><rect class="cls-10" x="170.48" y="26.69" width="811.48" height="20.53"/><path class="cls-11" d="M186.8,37a5.1,5.1,0,1,1-5.09-5.09A5.09,5.09,0,0,1,186.8,37Z"/><path class="cls-8" d="M207.59,37a5.1,5.1,0,1,1-5.09-5.09A5.09,5.09,0,0,1,207.59,37Z"/><path class="cls-7" d="M228.38,37a5.09,5.09,0,1,1-5.09-5.09A5.09,5.09,0,0,1,228.38,37Z"/><path class="cls-11" d="M951.94,102.93l-751.45.24h-.24V75.07h.25l751.45.24h0Zm0,0V75.32h0l-751.45.24.25-.25v27.61l-.24-.24Z"/><path class="cls-11" d="M202.79,146.56a1.5,1.5,0,0,0,.38.18,1.73,1.73,0,0,0,.58.08,1.13,1.13,0,0,0,.56-.12.83.83,0,0,0,.32-.37,2,2,0,0,0,.14-.62c0-.24,0-.53,0-.85v-2.74h.85v2.74a9.59,9.59,0,0,1-.06,1.12,2.41,2.41,0,0,1-.25.86,1.4,1.4,0,0,1-.58.55,2.1,2.1,0,0,1-1,.2,2.06,2.06,0,0,1-1.17-.33Z"/><path class="cls-11" d="M207.72,147.58a1.53,1.53,0,0,1-.54-.09,1.34,1.34,0,0,1-.43-.26,1.44,1.44,0,0,1-.28-.4,1.13,1.13,0,0,1-.1-.49,1.07,1.07,0,0,1,.12-.51,1.31,1.31,0,0,1,.35-.4,1.63,1.63,0,0,1,.53-.25,2.07,2.07,0,0,1,.68-.1,3.31,3.31,0,0,1,.55,0,3,3,0,0,1,.5.14V145a.93.93,0,0,0-.25-.68,1,1,0,0,0-.72-.25,1.68,1.68,0,0,0-.63.12,3.55,3.55,0,0,0-.64.33l-.25-.53a2.83,2.83,0,0,1,1.59-.51,1.87,1.87,0,0,1,1.28.41,1.56,1.56,0,0,1,.45,1.2v1.44c0,.18.08.27.22.27v.72l-.21,0h-.17a.49.49,0,0,1-.37-.13.5.5,0,0,1-.17-.31l0-.25a1.83,1.83,0,0,1-.66.54A2,2,0,0,1,207.72,147.58Zm.22-.61a1.58,1.58,0,0,0,.58-.11,1,1,0,0,0,.42-.31.41.41,0,0,0,.16-.29v-.52a2.13,2.13,0,0,0-.45-.13,2.59,2.59,0,0,0-.47-.05,1.26,1.26,0,0,0-.73.2.6.6,0,0,0-.29.51.65.65,0,0,0,.22.5A.83.83,0,0,0,207.94,147Z"/><path class="cls-11" d="M214.51,147.51h-.84v-2.23a1.43,1.43,0,0,0-.18-.81.6.6,0,0,0-.53-.26.92.92,0,0,0-.36.07,1.14,1.14,0,0,0-.34.19,2.06,2.06,0,0,0-.29.3,1.5,1.5,0,0,0-.19.38v2.36h-.84v-4h.76v.79a1.67,1.67,0,0,1,.66-.63,2,2,0,0,1,1-.23,1.17,1.17,0,0,1,.59.13.93.93,0,0,1,.36.35,1.39,1.39,0,0,1,.18.52,3,3,0,0,1,.06.61Z"/><path class="cls-11" d="M220.25,146.76v.75h-2.9v-.75h1.07v-2.65a.65.65,0,0,1-.21.18,1.93,1.93,0,0,1-.32.19,3,3,0,0,1-.36.14,1.12,1.12,0,0,1-.34,0v-.78a.9.9,0,0,0,.36-.09l.39-.21a3,3,0,0,0,.32-.24c.1-.09.15-.14.16-.18h.86v3.59Z"/><path class="cls-11" d="M222.6,145.1a1.82,1.82,0,0,1,.7.13,1.74,1.74,0,0,1,.56.36,1.58,1.58,0,0,1,.37.54,1.82,1.82,0,0,1,.13.7,1.78,1.78,0,0,1-.14.74,1.81,1.81,0,0,1-.41.57,1.93,1.93,0,0,1-.62.37,2.19,2.19,0,0,1-.77.13,2.15,2.15,0,0,1-1-.26,1.77,1.77,0,0,1-.7-.71l.5-.48a1.79,1.79,0,0,0,.54.52,1.41,1.41,0,0,0,.72.19,1,1,0,0,0,.77-.29,1,1,0,0,0,.31-.76,1.12,1.12,0,0,0-.08-.42,1.21,1.21,0,0,0-.22-.32,1.16,1.16,0,0,0-.32-.2.94.94,0,0,0-.41-.08,1.25,1.25,0,0,0-.54.12,1.21,1.21,0,0,0-.41.37h-.74a1.34,1.34,0,0,0,0-.18c0-.1,0-.23.07-.38s.06-.32.1-.51.07-.38.11-.57c.1-.45.19-1,.3-1.51h2.64v.77h-2l-.28,1.47a1.12,1.12,0,0,1,.35-.23A1.52,1.52,0,0,1,222.6,145.1Z"/><path class="cls-11" d="M304.63,147.51v-3.88l-1.6,2.94h-.47L301,143.63v3.88h-.85v-5.39H301l1.78,3.29,1.79-3.29h.91v5.39Z"/><path class="cls-11" d="M307.62,147.58a1.57,1.57,0,0,1-.54-.09,1.21,1.21,0,0,1-.81-1.15,1.07,1.07,0,0,1,.12-.51,1.31,1.31,0,0,1,.35-.4,1.73,1.73,0,0,1,.53-.25,2.11,2.11,0,0,1,.68-.1,3.53,3.53,0,0,1,.56,0,3.15,3.15,0,0,1,.49.14V145a.89.89,0,0,0-.25-.68,1,1,0,0,0-.72-.25,1.72,1.72,0,0,0-.63.12,3.18,3.18,0,0,0-.63.33l-.26-.53a2.83,2.83,0,0,1,1.59-.51,1.86,1.86,0,0,1,1.28.41,1.57,1.57,0,0,1,.46,1.2v1.44q0,.27.21.27v.72l-.2,0h-.17a.5.5,0,0,1-.38-.13.49.49,0,0,1-.16-.31l0-.25a1.8,1.8,0,0,1-.65.54A2,2,0,0,1,307.62,147.58Zm.23-.61a1.56,1.56,0,0,0,.57-.11,1,1,0,0,0,.42-.31.38.38,0,0,0,.16-.29v-.52a2.13,2.13,0,0,0-.45-.13,2.59,2.59,0,0,0-.47-.05,1.26,1.26,0,0,0-.73.2.6.6,0,0,0-.29.51.68.68,0,0,0,.22.5A.84.84,0,0,0,307.85,147Z"/><path class="cls-11" d="M313.08,144.26a1.83,1.83,0,0,0-.86.22,1.21,1.21,0,0,0-.54.6v2.43h-.84v-4h.78v.88a1.73,1.73,0,0,1,.54-.65,1.2,1.2,0,0,1,.71-.27h.21Z"/><path class="cls-11" d="M315.18,147.51a2.74,2.74,0,0,1,.06-.59,1.53,1.53,0,0,1,.18-.52,2,2,0,0,1,.38-.45,2.63,2.63,0,0,1,.6-.42l.51-.27.41-.24a1.16,1.16,0,0,0,.28-.25.44.44,0,0,0,.11-.31.56.56,0,0,0-.21-.43.85.85,0,0,0-.6-.2,1.16,1.16,0,0,0-.38.06,1.46,1.46,0,0,0-.31.14,2.43,2.43,0,0,0-.25.2l-.19.2-.53-.61a1.36,1.36,0,0,1,.24-.21,1.7,1.7,0,0,1,.4-.24,3.13,3.13,0,0,1,.52-.2,2.69,2.69,0,0,1,.65-.08,2.28,2.28,0,0,1,.66.1,1.43,1.43,0,0,1,.49.26,1.08,1.08,0,0,1,.31.4,1.18,1.18,0,0,1,.11.5,1,1,0,0,1-.12.5,1.39,1.39,0,0,1-.28.39,1.93,1.93,0,0,1-.36.28l-.37.2-.36.18-.39.24a2.42,2.42,0,0,0-.34.28,1,1,0,0,0-.22.34h2.52v.75Z"/><path class="cls-11" d="M321.21,145.1a1.87,1.87,0,0,1,.71.13,1.74,1.74,0,0,1,.56.36,1.58,1.58,0,0,1,.37.54,1.82,1.82,0,0,1,.13.7,1.78,1.78,0,0,1-.15.74,1.66,1.66,0,0,1-.41.57,1.83,1.83,0,0,1-.62.37,2.09,2.09,0,0,1-.76.13,2.15,2.15,0,0,1-1.05-.26,1.8,1.8,0,0,1-.71-.71l.5-.48a2,2,0,0,0,.55.52,1.39,1.39,0,0,0,.72.19,1,1,0,0,0,.77-.29,1,1,0,0,0,.3-.76,1,1,0,0,0-.08-.42,1,1,0,0,0-.21-.32,1.08,1.08,0,0,0-.33-.2.87.87,0,0,0-.4-.08,1.25,1.25,0,0,0-.54.12,1.12,1.12,0,0,0-.41.37h-.74a1.34,1.34,0,0,0,0-.18c0-.1,0-.23.07-.38s.06-.32.1-.51.07-.38.11-.57l.3-1.51h2.63v.77h-2l-.28,1.47a1,1,0,0,1,.35-.23A1.5,1.5,0,0,1,321.21,145.1Z"/><path class="cls-11" d="M416.85,147.51v-3.88l-1.6,2.94h-.47l-1.61-2.94v3.88h-.85v-5.39h.91l1.78,3.29,1.79-3.29h.91v5.39Z"/><path class="cls-11" d="M419.84,147.58a1.61,1.61,0,0,1-.54-.09,1.29,1.29,0,0,1-.42-.26,1.12,1.12,0,0,1-.28-.4,1.14,1.14,0,0,1-.11-.49,1.07,1.07,0,0,1,.12-.51,1.46,1.46,0,0,1,.35-.4,1.73,1.73,0,0,1,.53-.25,2.11,2.11,0,0,1,.68-.1,3.53,3.53,0,0,1,.56,0,3.15,3.15,0,0,1,.49.14V145a.89.89,0,0,0-.25-.68,1,1,0,0,0-.72-.25,1.76,1.76,0,0,0-.63.12,3.48,3.48,0,0,0-.63.33l-.26-.53a2.83,2.83,0,0,1,1.59-.51,1.86,1.86,0,0,1,1.28.41,1.57,1.57,0,0,1,.46,1.2v1.44c0,.18.07.27.22.27v.72l-.21,0h-.17a.5.5,0,0,1-.38-.13.49.49,0,0,1-.16-.31l0-.25a1.8,1.8,0,0,1-.65.54A2,2,0,0,1,419.84,147.58Zm.23-.61a1.56,1.56,0,0,0,.57-.11,1,1,0,0,0,.42-.31.38.38,0,0,0,.16-.29v-.52a2.13,2.13,0,0,0-.45-.13,2.59,2.59,0,0,0-.47-.05,1.26,1.26,0,0,0-.73.2.6.6,0,0,0-.29.51.68.68,0,0,0,.22.5A.84.84,0,0,0,420.07,147Z"/><path class="cls-11" d="M423.1,148.44l.23,0h.18a.33.33,0,0,0,.17,0,.41.41,0,0,0,.14-.15A1.11,1.11,0,0,0,424,148c0-.13.12-.3.19-.5l-1.64-4h.86l1.23,3.23,1.1-3.23h.79l-1.8,4.89a1.33,1.33,0,0,1-.43.57,1.24,1.24,0,0,1-.77.23h-.19a1.12,1.12,0,0,1-.22-.05Z"/><path class="cls-11" d="M432.5,146a1.38,1.38,0,0,1-.16.67,1.48,1.48,0,0,1-.42.51,1.87,1.87,0,0,1-.61.32,2.31,2.31,0,0,1-.75.12,2,2,0,0,1-.75-.13,1.89,1.89,0,0,1-.61-.34,1.52,1.52,0,0,1-.41-.53,1.45,1.45,0,0,1-.15-.66,1.32,1.32,0,0,1,.08-.44,1.72,1.72,0,0,1,.22-.37,2,2,0,0,1,.3-.28,1.68,1.68,0,0,1,.34-.2,1.37,1.37,0,0,1-.54-.42,1,1,0,0,1-.22-.63A1.24,1.24,0,0,1,429,143a1.65,1.65,0,0,1,.41-.46,2,2,0,0,1,.56-.28,2.18,2.18,0,0,1,1.24,0,1.89,1.89,0,0,1,.57.28,1.36,1.36,0,0,1,.41.45,1.15,1.15,0,0,1,.16.62,1,1,0,0,1-.22.64,1.37,1.37,0,0,1-.54.42,3.24,3.24,0,0,1,.35.21,1.42,1.42,0,0,1,.3.3,1.65,1.65,0,0,1,.2.37A1.33,1.33,0,0,1,432.5,146Zm-.84,0a.81.81,0,0,0-.1-.39.91.91,0,0,0-.25-.3A1.06,1.06,0,0,0,431,145a1.32,1.32,0,0,0-.39-.06,1.09,1.09,0,0,0-.4.07,1,1,0,0,0-.34.18,1,1,0,0,0-.24.29.86.86,0,0,0-.09.39.79.79,0,0,0,.09.38,1.16,1.16,0,0,0,.25.29,1.06,1.06,0,0,0,.35.18,1.07,1.07,0,0,0,.39.07,1.4,1.4,0,0,0,.4-.07,1.25,1.25,0,0,0,.34-.19,1.16,1.16,0,0,0,.25-.29A.78.78,0,0,0,431.66,145.9Zm-2-2.3a.59.59,0,0,0,.08.32.88.88,0,0,0,.21.22,1,1,0,0,0,.29.14,1,1,0,0,0,.64,0,1,1,0,0,0,.3-.14.83.83,0,0,0,.21-.24.66.66,0,0,0,.08-.32.6.6,0,0,0-.07-.3.76.76,0,0,0-.21-.23.92.92,0,0,0-.28-.14,1.25,1.25,0,0,0-.7,0,1.25,1.25,0,0,0-.28.15.63.63,0,0,0-.2.23A.62.62,0,0,0,429.67,143.6Z"/><path class="cls-11" d="M589.81,146.56a1.81,1.81,0,0,0,.39.18,1.73,1.73,0,0,0,.58.08,1.13,1.13,0,0,0,.56-.12.83.83,0,0,0,.32-.37,2,2,0,0,0,.14-.62c0-.24,0-.53,0-.85v-2.74h.86v2.74a9.59,9.59,0,0,1-.06,1.12,2.23,2.23,0,0,1-.26.86,1.32,1.32,0,0,1-.57.55,2.15,2.15,0,0,1-1,.2,2,2,0,0,1-1.17-.33Z"/><path class="cls-11" d="M595,147.58a1.12,1.12,0,0,1-.94-.4,2,2,0,0,1-.32-1.21v-2.43h.84v2.26c0,.71.25,1.07.76,1.07a1.12,1.12,0,0,0,.67-.22,1.41,1.41,0,0,0,.5-.64v-2.47h.83v3a.38.38,0,0,0,.05.21.23.23,0,0,0,.18.06v.72l-.21,0h-.16a.65.65,0,0,1-.39-.13.41.41,0,0,1-.17-.32v-.4a1.82,1.82,0,0,1-.69.66A2,2,0,0,1,595,147.58Z"/><path class="cls-11" d="M598.37,142h.84v4.4a.54.54,0,0,0,.11.35.44.44,0,0,0,.32.12l.2,0,.21-.07.12.66a2.1,2.1,0,0,1-.44.13,2.47,2.47,0,0,1-.44,0,.92.92,0,0,1-.68-.24.89.89,0,0,1-.24-.67Z"/><path class="cls-11" d="M602.1,147.51a2.76,2.76,0,0,1,0-.59,1.79,1.79,0,0,1,.19-.52,1.7,1.7,0,0,1,.37-.45,2.71,2.71,0,0,1,.61-.42l.5-.27a3,3,0,0,0,.41-.24,1.22,1.22,0,0,0,.29-.25.49.49,0,0,0,.11-.31.56.56,0,0,0-.21-.43.86.86,0,0,0-.61-.2,1.1,1.1,0,0,0-.37.06,1.26,1.26,0,0,0-.31.14,1.29,1.29,0,0,0-.25.2l-.19.2-.53-.61a1.36,1.36,0,0,1,.24-.21,1.84,1.84,0,0,1,.39-.24,3.26,3.26,0,0,1,.53-.2,2.61,2.61,0,0,1,.64-.08,2.18,2.18,0,0,1,.66.1,1.48,1.48,0,0,1,.5.26,1.19,1.19,0,0,1,.41.9,1.15,1.15,0,0,1-.11.5,1.42,1.42,0,0,1-.29.39,1.93,1.93,0,0,1-.36.28,3.42,3.42,0,0,1-.36.2l-.37.18-.39.24a3.17,3.17,0,0,0-.34.28.81.81,0,0,0-.21.34h2.51v.75Z"/><path class="cls-11" d="M610.24,145.28a2.69,2.69,0,0,1-.15.92,2.07,2.07,0,0,1-.41.73,1.76,1.76,0,0,1-.61.48,1.85,1.85,0,0,1-1.55,0,1.79,1.79,0,0,1-.62-.48,2.22,2.22,0,0,1-.4-.73,2.69,2.69,0,0,1-.15-.92,2.73,2.73,0,0,1,.15-.92,2.45,2.45,0,0,1,.4-.73,1.79,1.79,0,0,1,.62-.48,1.76,1.76,0,0,1,1.55,0,1.76,1.76,0,0,1,.61.48,2.26,2.26,0,0,1,.41.73A2.73,2.73,0,0,1,610.24,145.28Zm-.85,0a2.39,2.39,0,0,0-.08-.62,1.48,1.48,0,0,0-.23-.49,1,1,0,0,0-.35-.31.82.82,0,0,0-.44-.11.88.88,0,0,0-.45.11,1.14,1.14,0,0,0-.35.31,1.47,1.47,0,0,0-.22.49,2,2,0,0,0-.08.62,2.09,2.09,0,0,0,.08.63,1.51,1.51,0,0,0,.22.48,1.14,1.14,0,0,0,.35.31,1,1,0,0,0,.45.11.93.93,0,0,0,.44-.11,1,1,0,0,0,.35-.31,1.53,1.53,0,0,0,.23-.48A2.47,2.47,0,0,0,609.39,145.28Z"/><path class="cls-11" d="M690.4,143.38a1.64,1.64,0,0,0-.22-.18,1.79,1.79,0,0,0-.34-.17,1.88,1.88,0,0,0-.42-.14,2,2,0,0,0-.48,0,1.3,1.3,0,0,0-.79.19.68.68,0,0,0-.26.55.61.61,0,0,0,.08.32.67.67,0,0,0,.25.22,1.66,1.66,0,0,0,.42.17l.58.16a5.47,5.47,0,0,1,.74.22,2.09,2.09,0,0,1,.56.29,1.36,1.36,0,0,1,.36.43,1.46,1.46,0,0,1,.12.62,1.58,1.58,0,0,1-.15.71,1.33,1.33,0,0,1-.43.48,1.79,1.79,0,0,1-.63.27,3,3,0,0,1-.76.09,3.66,3.66,0,0,1-1.19-.19,3.32,3.32,0,0,1-1-.54l.39-.73a1.43,1.43,0,0,0,.28.22,3,3,0,0,0,.44.23,3.66,3.66,0,0,0,.53.17,2.35,2.35,0,0,0,.6.07,1.43,1.43,0,0,0,.78-.17.58.58,0,0,0,.27-.52.55.55,0,0,0-.1-.34.93.93,0,0,0-.3-.24,2,2,0,0,0-.46-.18l-.62-.18a5.86,5.86,0,0,1-.7-.22,1.83,1.83,0,0,1-.5-.29,1.14,1.14,0,0,1-.3-.39,1.27,1.27,0,0,1-.1-.54,1.54,1.54,0,0,1,.15-.7,1.5,1.5,0,0,1,.41-.52,1.82,1.82,0,0,1,.62-.32,2.78,2.78,0,0,1,.78-.1,3,3,0,0,1,1,.17,3.65,3.65,0,0,1,.81.43Z"/><path class="cls-11" d="M693.55,147.58a2,2,0,0,1-1.5-.6,2.06,2.06,0,0,1-.42-.66,2.26,2.26,0,0,1-.14-.79,2.3,2.3,0,0,1,.14-.79,2.06,2.06,0,0,1,.42-.66,2,2,0,0,1,.65-.45,2.15,2.15,0,0,1,.85-.16,2.06,2.06,0,0,1,.84.16,2,2,0,0,1,.64.45,1.8,1.8,0,0,1,.41.64,2.28,2.28,0,0,1,.14.77,1,1,0,0,1,0,.18c0,.05,0,.09,0,.13h-3.18a1.21,1.21,0,0,0,.12.48,1.41,1.41,0,0,0,.27.37,1.1,1.1,0,0,0,.37.23,1.07,1.07,0,0,0,.43.09,1.86,1.86,0,0,0,.34,0,1.34,1.34,0,0,0,.3-.12,1.16,1.16,0,0,0,.24-.2.85.85,0,0,0,.17-.25l.71.21a1.7,1.7,0,0,1-.68.73A2.09,2.09,0,0,1,693.55,147.58Zm1.2-2.36a1.16,1.16,0,0,0-.12-.46,1.38,1.38,0,0,0-.26-.36,1,1,0,0,0-.38-.23,1.12,1.12,0,0,0-.44-.09,1.13,1.13,0,0,0-.45.09,1.1,1.1,0,0,0-.37.23,1.38,1.38,0,0,0-.26.36,1.64,1.64,0,0,0-.12.46Z"/><path class="cls-11" d="M698.52,147.58a1.55,1.55,0,0,1-.84-.22,1.67,1.67,0,0,1-.58-.6v2.37h-.84v-5.59H697v.71a1.69,1.69,0,0,1,.59-.57,1.59,1.59,0,0,1,.82-.21,1.71,1.71,0,0,1,.75.16,2,2,0,0,1,.59.45,2.2,2.2,0,0,1,.53,1.44,2.37,2.37,0,0,1-.13.81,1.79,1.79,0,0,1-.36.65,1.85,1.85,0,0,1-.56.44A1.54,1.54,0,0,1,698.52,147.58Zm-.27-.71a1.13,1.13,0,0,0,.48-.11,1.23,1.23,0,0,0,.37-.31,1.29,1.29,0,0,0,.24-.43,1.42,1.42,0,0,0,.08-.5,1.34,1.34,0,0,0-.35-.94,1.11,1.11,0,0,0-.39-.29,1.17,1.17,0,0,0-.49-.11,1.06,1.06,0,0,0-.34.06,1.41,1.41,0,0,0-.32.17,1.07,1.07,0,0,0-.27.25.73.73,0,0,0-.16.3v1a1.75,1.75,0,0,0,.2.35,1.72,1.72,0,0,0,.27.27,1.26,1.26,0,0,0,.32.18A.92.92,0,0,0,698.25,146.87Z"/><path class="cls-11" d="M705.8,146.76v.75h-2.9v-.75H704v-2.65a1,1,0,0,1-.21.18,2.46,2.46,0,0,1-.32.19l-.37.14a1,1,0,0,1-.33,0v-.78a.86.86,0,0,0,.35-.09,2.42,2.42,0,0,0,.39-.21,3.14,3.14,0,0,0,.33-.24c.09-.09.15-.14.16-.18h.86v3.59Z"/><path class="cls-11" d="M764.39,143.38a1.64,1.64,0,0,0-.22-.18,1.79,1.79,0,0,0-.34-.17,1.88,1.88,0,0,0-.42-.14,2,2,0,0,0-.48,0,1.3,1.3,0,0,0-.79.19.68.68,0,0,0-.26.55.61.61,0,0,0,.08.32.67.67,0,0,0,.25.22,1.66,1.66,0,0,0,.42.17l.58.16a5.47,5.47,0,0,1,.74.22,2.26,2.26,0,0,1,.56.29,1.36,1.36,0,0,1,.36.43,1.46,1.46,0,0,1,.12.62,1.58,1.58,0,0,1-.15.71,1.33,1.33,0,0,1-.43.48,1.79,1.79,0,0,1-.63.27,3,3,0,0,1-.76.09,3.66,3.66,0,0,1-1.19-.19,3.32,3.32,0,0,1-1-.54l.39-.73a1.43,1.43,0,0,0,.28.22,3,3,0,0,0,.44.23,3.66,3.66,0,0,0,.53.17,2.35,2.35,0,0,0,.6.07,1.43,1.43,0,0,0,.78-.17.58.58,0,0,0,.27-.52.55.55,0,0,0-.1-.34.93.93,0,0,0-.3-.24,2,2,0,0,0-.46-.18l-.62-.18a5.86,5.86,0,0,1-.7-.22,1.83,1.83,0,0,1-.5-.29,1.14,1.14,0,0,1-.3-.39,1.27,1.27,0,0,1-.1-.54,1.54,1.54,0,0,1,.15-.7,1.5,1.5,0,0,1,.41-.52,1.82,1.82,0,0,1,.62-.32,2.78,2.78,0,0,1,.78-.1,3,3,0,0,1,1,.17,3.65,3.65,0,0,1,.81.43Z"/><path class="cls-11" d="M767.54,147.58a2,2,0,0,1-1.5-.6,2.06,2.06,0,0,1-.42-.66,2.26,2.26,0,0,1-.14-.79,2.3,2.3,0,0,1,.14-.79,2.06,2.06,0,0,1,.42-.66,2,2,0,0,1,.65-.45,2.15,2.15,0,0,1,.85-.16,2.06,2.06,0,0,1,.84.16,2,2,0,0,1,.64.45,1.8,1.8,0,0,1,.41.64,2.28,2.28,0,0,1,.14.77,1,1,0,0,1,0,.18c0,.05,0,.09,0,.13h-3.18a1.21,1.21,0,0,0,.12.48,1.41,1.41,0,0,0,.27.37,1.1,1.1,0,0,0,.37.23,1.07,1.07,0,0,0,.43.09,1.86,1.86,0,0,0,.34,0,1.34,1.34,0,0,0,.3-.12,1.16,1.16,0,0,0,.24-.2.85.85,0,0,0,.17-.25l.71.21a1.7,1.7,0,0,1-.68.73A2.09,2.09,0,0,1,767.54,147.58Zm1.2-2.36a1.16,1.16,0,0,0-.12-.46,1.38,1.38,0,0,0-.26-.36,1,1,0,0,0-.38-.23,1.12,1.12,0,0,0-.44-.09,1.13,1.13,0,0,0-.45.09,1.1,1.1,0,0,0-.37.23,1.38,1.38,0,0,0-.26.36,1.64,1.64,0,0,0-.12.46Z"/><path class="cls-11" d="M772.51,147.58a1.55,1.55,0,0,1-.84-.22,1.67,1.67,0,0,1-.58-.6v2.37h-.84v-5.59H771v.71a1.69,1.69,0,0,1,.59-.57,1.59,1.59,0,0,1,.82-.21,1.71,1.71,0,0,1,.75.16,2,2,0,0,1,.59.45,2.2,2.2,0,0,1,.53,1.44,2.37,2.37,0,0,1-.13.81,1.79,1.79,0,0,1-.36.65,1.85,1.85,0,0,1-.56.44A1.54,1.54,0,0,1,772.51,147.58Zm-.27-.71a1.13,1.13,0,0,0,.48-.11,1.23,1.23,0,0,0,.37-.31,1.29,1.29,0,0,0,.24-.43,1.42,1.42,0,0,0,.08-.5,1.34,1.34,0,0,0-.35-.94,1.11,1.11,0,0,0-.39-.29,1.17,1.17,0,0,0-.49-.11,1.06,1.06,0,0,0-.34.06,1.41,1.41,0,0,0-.32.17,1.07,1.07,0,0,0-.27.25.73.73,0,0,0-.16.3v1a1.75,1.75,0,0,0,.2.35,1.72,1.72,0,0,0,.27.27,1.26,1.26,0,0,0,.32.18A.92.92,0,0,0,772.24,146.87Z"/><path class="cls-11" d="M779.79,146.76v.75h-2.9v-.75H778v-2.65a1,1,0,0,1-.21.18,2.46,2.46,0,0,1-.32.19l-.37.14a1,1,0,0,1-.33,0v-.78a.86.86,0,0,0,.35-.09,2.42,2.42,0,0,0,.39-.21,3.14,3.14,0,0,0,.33-.24c.09-.09.15-.14.16-.18h.86v3.59Z"/><path class="cls-11" d="M782.67,143.85h-2.62v-.77H784l-2.7,5.39h-.95Z"/><path class="cls-11" d="M864.85,143.71v3.8H864v-5.39h.67l3.08,3.88v-3.88h.86v5.39h-.71Z"/><path class="cls-11" d="M871.45,147.58a2.11,2.11,0,0,1-.85-.16A2,2,0,0,1,870,147a2,2,0,0,1-.41-.66,2.11,2.11,0,0,1,.42-2.23,2,2,0,0,1,.64-.45,2.28,2.28,0,0,1,1.68,0,2.29,2.29,0,0,1,.65.45,2.23,2.23,0,0,1,.41.66,2.27,2.27,0,0,1,0,1.57,2.23,2.23,0,0,1-.41.66,2.1,2.1,0,0,1-.65.45A2.06,2.06,0,0,1,871.45,147.58Zm-1.19-2.05a1.47,1.47,0,0,0,.1.53,1.22,1.22,0,0,0,.25.43,1.13,1.13,0,0,0,.37.28,1.15,1.15,0,0,0,.94,0,1.16,1.16,0,0,0,.37-.29,1.27,1.27,0,0,0,.25-.42,1.61,1.61,0,0,0,0-1.06,1.22,1.22,0,0,0-.25-.43,1.16,1.16,0,0,0-.37-.29,1.08,1.08,0,0,0-.93,0,1,1,0,0,0-.37.29,1.24,1.24,0,0,0-.26.43A1.5,1.5,0,0,0,870.26,145.53Z"/><path class="cls-11" d="M875.21,147.51l-1.52-4h.86l1.14,3.26,1.15-3.26h.79l-1.52,4Z"/><path class="cls-11" d="M882.78,146.76v.75h-2.9v-.75H881v-2.65a1,1,0,0,1-.21.18,2.46,2.46,0,0,1-.32.19l-.37.14a1,1,0,0,1-.33,0v-.78a.86.86,0,0,0,.35-.09,2.42,2.42,0,0,0,.39-.21,3.14,3.14,0,0,0,.33-.24c.09-.09.15-.14.16-.18h.86v3.59Z"/><path class="cls-11" d="M885.13,145.1a1.78,1.78,0,0,1,.7.13,1.54,1.54,0,0,1,.56.36,1.6,1.6,0,0,1,.38.54,1.82,1.82,0,0,1,.13.7,1.78,1.78,0,0,1-.15.74,1.66,1.66,0,0,1-.41.57,1.83,1.83,0,0,1-.62.37,2.27,2.27,0,0,1-1.81-.13,1.8,1.8,0,0,1-.71-.71l.5-.48a1.82,1.82,0,0,0,.55.52,1.38,1.38,0,0,0,.71.19,1.06,1.06,0,0,0,.78-.29,1,1,0,0,0,.3-.76,1.12,1.12,0,0,0-.08-.42.87.87,0,0,0-.22-.32,1,1,0,0,0-.32-.2.9.9,0,0,0-.4-.08,1.19,1.19,0,0,0-.54.12,1,1,0,0,0-.41.37h-.74s0-.08,0-.18l.08-.38c0-.15.06-.32.1-.51s.07-.38.11-.57c.09-.45.19-1,.29-1.51h2.64v.77h-2l-.27,1.47a1,1,0,0,1,.35-.23A1.5,1.5,0,0,1,885.13,145.1Z"/><path class="cls-11" d="M930.8,147.51v-5.39h1.91a2.91,2.91,0,0,1,1.15.21,2.41,2.41,0,0,1,.82.57,2.44,2.44,0,0,1,.49.86,3,3,0,0,1,.17,1,3.33,3.33,0,0,1-.18,1.12,2.55,2.55,0,0,1-.53.85,2.48,2.48,0,0,1-.83.54,2.9,2.9,0,0,1-1.09.2Zm3.68-2.71a2.45,2.45,0,0,0-.12-.78,1.74,1.74,0,0,0-.35-.61,1.59,1.59,0,0,0-.55-.4,1.79,1.79,0,0,0-.75-.14h-1.06v3.89h1.06a1.81,1.81,0,0,0,.76-.15,1.62,1.62,0,0,0,.55-.41,1.7,1.7,0,0,0,.34-.62A2.45,2.45,0,0,0,934.48,144.8Z"/><path class="cls-11" d="M937.93,147.58a2.06,2.06,0,0,1-.84-.16,2,2,0,0,1-.65-.44,2.1,2.1,0,0,1-.57-1.45,2.09,2.09,0,0,1,.15-.79,2.06,2.06,0,0,1,.42-.66,1.89,1.89,0,0,1,.65-.45,2.31,2.31,0,0,1,1.69,0,2.11,2.11,0,0,1,.64.45,2,2,0,0,1,.41.64,2.28,2.28,0,0,1,.14.77c0,.07,0,.12,0,.18s0,.09,0,.13h-3.18a1.41,1.41,0,0,0,.13.48,1.18,1.18,0,0,0,.26.37,1.2,1.2,0,0,0,.37.23,1.12,1.12,0,0,0,.44.09,1.86,1.86,0,0,0,.33,0,1.34,1.34,0,0,0,.3-.12,1.16,1.16,0,0,0,.24-.2.7.7,0,0,0,.17-.25l.72.21a1.76,1.76,0,0,1-.68.73A2.13,2.13,0,0,1,937.93,147.58Zm1.21-2.36a1.36,1.36,0,0,0-.13-.46,1.19,1.19,0,0,0-.26-.36,1.1,1.1,0,0,0-.37-.23,1.13,1.13,0,0,0-.45-.09,1.08,1.08,0,0,0-.44.09,1,1,0,0,0-.37.23,1,1,0,0,0-.26.36,1.16,1.16,0,0,0-.12.46Z"/><path class="cls-11" d="M940.39,145.52a2.09,2.09,0,0,1,.15-.79,1.88,1.88,0,0,1,.41-.66,2,2,0,0,1,1.5-.6,2,2,0,0,1,1.06.27,1.76,1.76,0,0,1,.67.71l-.82.26a1,1,0,0,0-.38-.39,1.14,1.14,0,0,0-.54-.14,1,1,0,0,0-.47.1,1.29,1.29,0,0,0-.38.28,1.46,1.46,0,0,0-.25.42,1.53,1.53,0,0,0-.09.54,1.32,1.32,0,0,0,.1.53,1.39,1.39,0,0,0,.25.43,1.33,1.33,0,0,0,.38.29,1.06,1.06,0,0,0,.46.1,1.05,1.05,0,0,0,.58-.16,1.37,1.37,0,0,0,.23-.17,1,1,0,0,0,.14-.22l.82.25a1.73,1.73,0,0,1-.67.73,2,2,0,0,1-1.09.28,2.06,2.06,0,0,1-.84-.16,2.07,2.07,0,0,1-1.07-1.11A2.09,2.09,0,0,1,940.39,145.52Z"/><path class="cls-11" d="M949.67,146.76v.75h-2.91v-.75h1.08v-2.65a.65.65,0,0,1-.21.18,2.46,2.46,0,0,1-.32.19l-.36.14a1.12,1.12,0,0,1-.34,0v-.78a.9.9,0,0,0,.36-.09,2.82,2.82,0,0,0,.38-.21,2.36,2.36,0,0,0,.33-.24c.09-.09.15-.14.16-.18h.86v3.59Z"/><line class="cls-12" x1="203.36" y1="132.8" x2="932.47" y2="132.8"/><polygon class="cls-13" points="203.36 137.22 203.36 128.38 208.17 132.8 203.36 137.22"/><polygon class="cls-13" points="299.49 137.22 299.49 128.38 304.3 132.8 299.49 137.22"/><polygon class="cls-13" points="411.71 137.22 411.71 128.38 416.52 132.8 411.71 137.22"/><polygon class="cls-13" points="760.59 137.22 760.59 128.38 765.4 132.8 760.59 137.22"/><polygon class="cls-13" points="929.79 137.22 929.79 128.38 934.6 132.8 929.79 137.22"/><polygon class="cls-13" points="589.53 137.22 589.53 128.38 594.34 132.8 589.53 137.22"/><polygon class="cls-13" points="686.6 137.22 686.6 128.38 691.41 132.8 686.6 137.22"/><polygon class="cls-13" points="863.39 137.22 863.39 128.38 868.2 132.8 863.39 137.22"/><rect class="cls-14" x="257.49" y="174.49" width="50.38" height="278.38"/><rect class="cls-14" x="310.85" y="174.49" width="50.38" height="278.38"/><rect class="cls-14" x="364.21" y="174.49" width="50.38" height="278.38"/><rect class="cls-14" x="417.58" y="174.49" width="50.38" height="278.38"/><rect class="cls-14" x="470.94" y="174.49" width="50.38" height="278.38"/><rect class="cls-14" x="524.3" y="174.49" width="50.38" height="278.38"/><rect class="cls-14" x="577.67" y="174.49" width="50.38" height="278.38"/><rect class="cls-14" x="631.03" y="174.49" width="50.38" height="278.38"/><rect class="cls-14" x="684.39" y="174.49" width="50.38" height="278.38"/><rect class="cls-14" x="737.75" y="174.49" width="50.38" height="278.38"/><rect class="cls-14" x="791.12" y="174.49" width="50.38" height="278.38"/><rect class="cls-14" x="844.48" y="174.49" width="50.38" height="278.38"/><path class="cls-10" d="M204.15,192.67a7.41,7.41,0,0,1,.14-1.54,4.09,4.09,0,0,1,.49-1.33,5,5,0,0,1,1-1.19,7.93,7.93,0,0,1,1.57-1.09l1.3-.69c.41-.21.77-.42,1.08-.62a3.21,3.21,0,0,0,.74-.65,1.28,1.28,0,0,0,.28-.8,1.55,1.55,0,0,0-.55-1.14,2.23,2.23,0,0,0-1.56-.5,3,3,0,0,0-1,.15,3.76,3.76,0,0,0-.81.37,3.26,3.26,0,0,0-.64.51,5.8,5.8,0,0,0-.49.53l-1.38-1.6a4.92,4.92,0,0,1,.62-.54,5.4,5.4,0,0,1,1-.62,7.53,7.53,0,0,1,1.37-.51,6.85,6.85,0,0,1,1.68-.2,5.7,5.7,0,0,1,1.71.24,4.2,4.2,0,0,1,1.28.68,3,3,0,0,1,.8,1,3.11,3.11,0,0,1,.27,1.29,2.86,2.86,0,0,1-.29,1.3,4.14,4.14,0,0,1-.73,1,5.17,5.17,0,0,1-.95.74c-.34.2-.66.38-1,.52l-.93.46a9,9,0,0,0-1,.62,6.47,6.47,0,0,0-.89.74,2.29,2.29,0,0,0-.55.86h6.53v2Z"/><path class="cls-10" d="M225.29,186.89a7.35,7.35,0,0,1-.38,2.39,6.17,6.17,0,0,1-1.07,1.9,4.93,4.93,0,0,1-1.6,1.24,4.61,4.61,0,0,1-2,.44,4.69,4.69,0,0,1-2-.44,4.83,4.83,0,0,1-1.6-1.24,5.93,5.93,0,0,1-1-1.9,7.55,7.55,0,0,1,0-4.79,5.78,5.78,0,0,1,1-1.89,4.73,4.73,0,0,1,1.6-1.25,4.43,4.43,0,0,1,2-.46,4.36,4.36,0,0,1,2,.46,4.83,4.83,0,0,1,1.6,1.25,6,6,0,0,1,1.07,1.89A7.37,7.37,0,0,1,225.29,186.89Zm-2.21,0a5.83,5.83,0,0,0-.21-1.62,3.67,3.67,0,0,0-.59-1.26,2.69,2.69,0,0,0-.9-.82,2.36,2.36,0,0,0-1.14-.29,2.42,2.42,0,0,0-1.17.29,2.71,2.71,0,0,0-.91.82,3.86,3.86,0,0,0-.59,1.26,5.83,5.83,0,0,0-.21,1.62,5.76,5.76,0,0,0,.21,1.61,3.86,3.86,0,0,0,.59,1.26,2.88,2.88,0,0,0,.91.8,2.31,2.31,0,0,0,1.17.29,2.25,2.25,0,0,0,1.14-.29,2.84,2.84,0,0,0,.9-.8,3.67,3.67,0,0,0,.59-1.26A5.76,5.76,0,0,0,223.08,186.89Z"/><path class="cls-10" d="M227.08,192.67a8.16,8.16,0,0,1,.14-1.54,4.11,4.11,0,0,1,.5-1.33,4.74,4.74,0,0,1,1-1.19,8,8,0,0,1,1.58-1.09l1.3-.69c.41-.21.77-.42,1.08-.62a3.37,3.37,0,0,0,.73-.65,1.22,1.22,0,0,0,.28-.8,1.54,1.54,0,0,0-.54-1.14,2.26,2.26,0,0,0-1.57-.5,3.1,3.1,0,0,0-1,.15,3.91,3.91,0,0,0-.8.37,3,3,0,0,0-.64.51c-.19.18-.35.36-.5.53l-1.38-1.6a5.77,5.77,0,0,1,.62-.54,5.85,5.85,0,0,1,1-.62,7.53,7.53,0,0,1,1.37-.51,6.79,6.79,0,0,1,1.68-.2,5.63,5.63,0,0,1,1.7.24,4.09,4.09,0,0,1,1.28.68,2.88,2.88,0,0,1,.8,1,3,3,0,0,1,.28,1.29,2.74,2.74,0,0,1-.3,1.3,4.14,4.14,0,0,1-.73,1,5.1,5.1,0,0,1-.94.74c-.35.2-.66.38-.95.52l-.94.46a8.83,8.83,0,0,0-1,.62,5.93,5.93,0,0,0-.89.74,2.18,2.18,0,0,0-.55.86h6.53v2Z"/><path class="cls-10" d="M245.94,190.71v2H238.4v-2h2.8v-6.88a2.1,2.1,0,0,1-.55.49,6.47,6.47,0,0,1-.83.48,7,7,0,0,1-.94.36,3.05,3.05,0,0,1-.87.15v-2a2.28,2.28,0,0,0,.92-.24,8.13,8.13,0,0,0,1-.55,7.83,7.83,0,0,0,.85-.63,1.5,1.5,0,0,0,.42-.46h2.23v9.31Z"/><path class="cls-10" d="M218,229.9H215.5v6.53h-1.21V229.9h-2.53v-1.05H218Z"/><path class="cls-10" d="M219.19,236.54a2,2,0,0,1-.75-.14,2,2,0,0,1-.6-.36,1.85,1.85,0,0,1-.4-.56,1.74,1.74,0,0,1-.14-.69,1.53,1.53,0,0,1,.17-.72,1.71,1.71,0,0,1,.49-.55,2.39,2.39,0,0,1,.75-.37,3.46,3.46,0,0,1,.95-.13,5.14,5.14,0,0,1,.78.07,4.17,4.17,0,0,1,.7.19v-.38a1.28,1.28,0,0,0-.36-1,1.38,1.38,0,0,0-1-.35,2.46,2.46,0,0,0-.88.17,4.51,4.51,0,0,0-.89.47l-.37-.74a3.93,3.93,0,0,1,2.24-.73,2.54,2.54,0,0,1,1.8.59,2.15,2.15,0,0,1,.64,1.68v2c0,.25.1.38.31.39v1a1.81,1.81,0,0,1-.29,0h-.24a.72.72,0,0,1-.53-.17.7.7,0,0,1-.23-.43l0-.36a2.54,2.54,0,0,1-.93.76A2.79,2.79,0,0,1,219.19,236.54Zm.32-.87a2.16,2.16,0,0,0,.81-.15,1.41,1.41,0,0,0,.59-.44.53.53,0,0,0,.23-.4v-.74a3.36,3.36,0,0,0-.64-.18,3.68,3.68,0,0,0-.66-.06,1.81,1.81,0,0,0-1,.27.82.82,0,0,0-.4.72.9.9,0,0,0,.31.7A1.12,1.12,0,0,0,219.51,235.67Z"/><path class="cls-10" d="M225.76,236.54a4.42,4.42,0,0,1-1.34-.22,3.45,3.45,0,0,1-1.15-.63l.47-.74a5,5,0,0,0,1,.55,3,3,0,0,0,1,.18,1.46,1.46,0,0,0,.83-.2.67.67,0,0,0,.3-.58.53.53,0,0,0-.34-.51,6.65,6.65,0,0,0-1.07-.35q-.53-.14-.9-.27a2,2,0,0,1-.61-.3,1,1,0,0,1-.34-.39,1.29,1.29,0,0,1-.1-.55,1.7,1.7,0,0,1,.16-.76,1.77,1.77,0,0,1,.46-.56,2,2,0,0,1,.69-.34,2.91,2.91,0,0,1,.85-.12,3.48,3.48,0,0,1,1.18.19,2.93,2.93,0,0,1,1,.56l-.5.7a2.64,2.64,0,0,0-1.66-.62,1.35,1.35,0,0,0-.75.19.64.64,0,0,0-.3.59.62.62,0,0,0,.06.29.45.45,0,0,0,.21.2,1.86,1.86,0,0,0,.37.16l.57.15c.38.1.71.19,1,.28a2.39,2.39,0,0,1,.68.33,1.13,1.13,0,0,1,.39.43,1.28,1.28,0,0,1,.13.61,1.51,1.51,0,0,1-.6,1.26A2.62,2.62,0,0,1,225.76,236.54Z"/><path class="cls-10" d="M232.92,236.43l-1.79-2.57-.93.87v1.7H229v-7.8h1.17v5l2.57-2.72h1.28l-2.17,2.33,2.29,3.24Z"/><path class="cls-10" d="M241.59,235.37v1.06h-4.08v-1.06H239v-3.72a1.65,1.65,0,0,1-.3.26,3.3,3.3,0,0,1-.45.26,5.38,5.38,0,0,1-.51.2,1.84,1.84,0,0,1-.48.08v-1.1a1.32,1.32,0,0,0,.5-.13,5.86,5.86,0,0,0,.55-.3c.17-.11.32-.23.46-.34a1.37,1.37,0,0,0,.23-.25h1.2v5Z"/><path class="cls-10" d="M218,258.4H215.5v6.53h-1.21V258.4h-2.53v-1.06H218Z"/><path class="cls-10" d="M219.19,265a2,2,0,0,1-.75-.13,1.84,1.84,0,0,1-.6-.37,1.63,1.63,0,0,1-.54-1.25,1.52,1.52,0,0,1,.17-.71A1.74,1.74,0,0,1,218,262a2.18,2.18,0,0,1,.75-.36,3.12,3.12,0,0,1,.95-.13,4.11,4.11,0,0,1,.78.07,3.4,3.4,0,0,1,.7.19v-.39a1.31,1.31,0,0,0-.36-1,1.37,1.37,0,0,0-1-.34,2.44,2.44,0,0,0-.88.16,4.1,4.1,0,0,0-.89.48l-.37-.75a4,4,0,0,1,2.24-.73,2.58,2.58,0,0,1,1.8.59,2.17,2.17,0,0,1,.64,1.69v2c0,.25.1.37.31.38v1l-.29,0h-.24a.77.77,0,0,1-.53-.17.73.73,0,0,1-.23-.44l0-.35a2.42,2.42,0,0,1-.93.75A2.64,2.64,0,0,1,219.19,265Zm.32-.86a2,2,0,0,0,.81-.16,1.32,1.32,0,0,0,.59-.43.55.55,0,0,0,.23-.41v-.73a3.36,3.36,0,0,0-.64-.18,3,3,0,0,0-.66-.07,1.81,1.81,0,0,0-1,.27.85.85,0,0,0-.4.73.88.88,0,0,0,.31.69A1.13,1.13,0,0,0,219.51,264.17Z"/><path class="cls-10" d="M225.76,265a4.14,4.14,0,0,1-1.34-.22,3.26,3.26,0,0,1-1.15-.62l.47-.75a4.5,4.5,0,0,0,1,.55,2.74,2.74,0,0,0,1,.19,1.54,1.54,0,0,0,.83-.2.67.67,0,0,0,.3-.58.52.52,0,0,0-.34-.51,6.47,6.47,0,0,0-1.07-.36c-.35-.09-.65-.18-.9-.26a2.67,2.67,0,0,1-.61-.3,1.16,1.16,0,0,1-.34-.4,1.27,1.27,0,0,1-.1-.54,1.58,1.58,0,0,1,.62-1.32,2.24,2.24,0,0,1,.69-.35,2.91,2.91,0,0,1,.85-.12,3.48,3.48,0,0,1,1.18.2,2.91,2.91,0,0,1,1,.55l-.5.71a2.58,2.58,0,0,0-1.66-.62,1.44,1.44,0,0,0-.75.18.67.67,0,0,0-.3.6.65.65,0,0,0,.06.29.58.58,0,0,0,.21.2,1.42,1.42,0,0,0,.37.15l.57.16a8.65,8.65,0,0,1,1,.28,2.7,2.7,0,0,1,.68.32,1.15,1.15,0,0,1,.39.44,1.26,1.26,0,0,1,.13.6,1.52,1.52,0,0,1-.6,1.27A2.62,2.62,0,0,1,225.76,265Z"/><path class="cls-10" d="M232.92,264.93l-1.79-2.58-.93.88v1.7H229v-7.8h1.17v4.94l2.57-2.72h1.28l-2.17,2.34,2.29,3.24Z"/><path class="cls-10" d="M237.24,264.93a4.44,4.44,0,0,1,.08-.84,2.7,2.7,0,0,1,.26-.72,2.82,2.82,0,0,1,.53-.64,4.33,4.33,0,0,1,.85-.59l.71-.38a6,6,0,0,0,.58-.33,1.76,1.76,0,0,0,.4-.35.69.69,0,0,0,.15-.44.82.82,0,0,0-.29-.61,1.22,1.22,0,0,0-.85-.27,1.48,1.48,0,0,0-.53.08,2,2,0,0,0-.44.2,1.91,1.91,0,0,0-.35.27,3.22,3.22,0,0,0-.26.29l-.75-.86a2.69,2.69,0,0,1,.33-.3,3,3,0,0,1,.56-.33,4.23,4.23,0,0,1,.74-.28,3.72,3.72,0,0,1,.91-.11,3.24,3.24,0,0,1,.92.13,2.21,2.21,0,0,1,.7.37,1.62,1.62,0,0,1,.58,1.26,1.49,1.49,0,0,1-.16.71,2.17,2.17,0,0,1-.4.54,2.2,2.2,0,0,1-.51.4c-.18.11-.35.21-.51.29l-.51.25a3.48,3.48,0,0,0-.55.33,3.18,3.18,0,0,0-.48.4,1.25,1.25,0,0,0-.3.47h3.54v1.06Z"/><path class="cls-10" d="M218,286.9H215.5v6.52h-1.21V286.9h-2.53v-1.06H218Z"/><path class="cls-10" d="M219.19,293.53a2.27,2.27,0,0,1-.75-.13,2,2,0,0,1-.6-.37,1.85,1.85,0,0,1-.4-.56,1.74,1.74,0,0,1-.14-.69,1.56,1.56,0,0,1,.17-.72,1.71,1.71,0,0,1,.49-.55,2.39,2.39,0,0,1,.75-.37,3.46,3.46,0,0,1,.95-.13,5.14,5.14,0,0,1,.78.07,4.17,4.17,0,0,1,.7.19v-.38a1.28,1.28,0,0,0-.36-1,1.38,1.38,0,0,0-1-.35,2.46,2.46,0,0,0-.88.17,4.51,4.51,0,0,0-.89.47l-.37-.74a3.93,3.93,0,0,1,2.24-.73,2.58,2.58,0,0,1,1.8.59,2.15,2.15,0,0,1,.64,1.68v2c0,.25.1.38.31.39v1a1.81,1.81,0,0,1-.29,0l-.24,0a.72.72,0,0,1-.53-.18.7.7,0,0,1-.23-.43l0-.36a2.54,2.54,0,0,1-.93.76A2.79,2.79,0,0,1,219.19,293.53Zm.32-.87a2.16,2.16,0,0,0,.81-.15,1.39,1.39,0,0,0,.59-.43.56.56,0,0,0,.23-.41v-.74a3.36,3.36,0,0,0-.64-.18,3.68,3.68,0,0,0-.66-.06,1.81,1.81,0,0,0-1,.27.82.82,0,0,0-.4.72.9.9,0,0,0,.31.7A1.12,1.12,0,0,0,219.51,292.66Z"/><path class="cls-10" d="M225.76,293.53a4.14,4.14,0,0,1-1.34-.22,3.28,3.28,0,0,1-1.15-.63l.47-.74a5,5,0,0,0,1,.55,3,3,0,0,0,1,.18,1.46,1.46,0,0,0,.83-.2.65.65,0,0,0,.3-.58.53.53,0,0,0-.34-.51,7.85,7.85,0,0,0-1.07-.35q-.53-.13-.9-.27a2,2,0,0,1-.61-.3,1,1,0,0,1-.34-.39,1.29,1.29,0,0,1-.1-.55,1.73,1.73,0,0,1,.16-.76,1.77,1.77,0,0,1,.46-.56,2.22,2.22,0,0,1,.69-.34,2.91,2.91,0,0,1,.85-.12,3.48,3.48,0,0,1,1.18.19,2.93,2.93,0,0,1,1,.56l-.5.7a2.64,2.64,0,0,0-1.66-.62,1.35,1.35,0,0,0-.75.19.64.64,0,0,0-.3.59.62.62,0,0,0,.06.29.45.45,0,0,0,.21.2,1.86,1.86,0,0,0,.37.16l.57.15c.38.1.71.19,1,.28a2.39,2.39,0,0,1,.68.33,1.09,1.09,0,0,1,.39.44,1.21,1.21,0,0,1,.13.6,1.51,1.51,0,0,1-.6,1.26A2.62,2.62,0,0,1,225.76,293.53Z"/><path class="cls-10" d="M232.92,293.42l-1.79-2.57-.93.87v1.7H229v-7.8h1.17v4.95l2.57-2.72h1.28l-2.17,2.34,2.29,3.23Z"/><path class="cls-10" d="M240.76,290.9a1.88,1.88,0,0,1,1.08.64,2,2,0,0,1,.29.57,2.17,2.17,0,0,1,.11.69,2.06,2.06,0,0,1-.19.91,1.93,1.93,0,0,1-.53.68,2.41,2.41,0,0,1-.84.45,3.75,3.75,0,0,1-1.1.15,3.38,3.38,0,0,1-1.43-.28,2.41,2.41,0,0,1-1-.82l.71-.81a1.87,1.87,0,0,0,.66.62,2.12,2.12,0,0,0,1,.22,1.69,1.69,0,0,0,1.08-.3,1,1,0,0,0,.38-.89,1.18,1.18,0,0,0-.42-1,1.93,1.93,0,0,0-1.26-.36h-.29v-.92h.32a1.66,1.66,0,0,0,1.1-.33,1.11,1.11,0,0,0,.38-.85.85.85,0,0,0-.34-.75,1.51,1.51,0,0,0-.89-.24,1.9,1.9,0,0,0-1,.23,1.77,1.77,0,0,0-.66.67l-.74-.8a1.76,1.76,0,0,1,.41-.46,3,3,0,0,1,.58-.37,3.11,3.11,0,0,1,.71-.23,4,4,0,0,1,.78-.08,3.22,3.22,0,0,1,1,.14,2.35,2.35,0,0,1,.74.38,1.65,1.65,0,0,1,.49.6,1.85,1.85,0,0,1,.17.78,2,2,0,0,1-.09.61,1.86,1.86,0,0,1-.28.52,1.52,1.52,0,0,1-1,.6Z"/><path class="cls-10" d="M218,315.39H215.5v6.53h-1.21v-6.53h-2.53v-1.06H218Z"/><path class="cls-10" d="M219.19,322a2,2,0,0,1-.75-.13,1.84,1.84,0,0,1-.6-.37,1.63,1.63,0,0,1-.54-1.25,1.52,1.52,0,0,1,.17-.71A1.74,1.74,0,0,1,218,319a2.18,2.18,0,0,1,.75-.36,3.12,3.12,0,0,1,.95-.13,4.11,4.11,0,0,1,.78.07,4.17,4.17,0,0,1,.7.19v-.39a1.31,1.31,0,0,0-.36-1,1.37,1.37,0,0,0-1-.34,2.44,2.44,0,0,0-.88.16,4.1,4.1,0,0,0-.89.48l-.37-.75a4,4,0,0,1,2.24-.73,2.58,2.58,0,0,1,1.8.59,2.17,2.17,0,0,1,.64,1.69v2c0,.25.1.38.31.38v1l-.29,0h-.24a.77.77,0,0,1-.53-.17.7.7,0,0,1-.23-.44l0-.35a2.42,2.42,0,0,1-.93.75A2.64,2.64,0,0,1,219.19,322Zm.32-.86a2,2,0,0,0,.81-.16,1.32,1.32,0,0,0,.59-.43.55.55,0,0,0,.23-.41v-.73a3.36,3.36,0,0,0-.64-.18,3,3,0,0,0-.66-.07,1.81,1.81,0,0,0-1,.27.85.85,0,0,0-.4.73.91.91,0,0,0,.31.7A1.17,1.17,0,0,0,219.51,321.16Z"/><path class="cls-10" d="M225.76,322a4.14,4.14,0,0,1-1.34-.22,3.26,3.26,0,0,1-1.15-.62l.47-.75a4.5,4.5,0,0,0,1,.55,2.74,2.74,0,0,0,1,.19,1.54,1.54,0,0,0,.83-.2.67.67,0,0,0,.3-.58.52.52,0,0,0-.34-.51,6.47,6.47,0,0,0-1.07-.36c-.35-.09-.65-.18-.9-.26a2.67,2.67,0,0,1-.61-.3,1.16,1.16,0,0,1-.34-.4,1.27,1.27,0,0,1-.1-.54,1.58,1.58,0,0,1,.62-1.32,2.24,2.24,0,0,1,.69-.35,2.91,2.91,0,0,1,.85-.12,3.48,3.48,0,0,1,1.18.2,2.91,2.91,0,0,1,1,.55l-.5.71a2.58,2.58,0,0,0-1.66-.62,1.44,1.44,0,0,0-.75.18.67.67,0,0,0-.3.6.65.65,0,0,0,.06.29.58.58,0,0,0,.21.2,1.42,1.42,0,0,0,.37.15l.57.16a8.65,8.65,0,0,1,1,.28,2.7,2.7,0,0,1,.68.32,1.15,1.15,0,0,1,.39.44,1.26,1.26,0,0,1,.13.6,1.52,1.52,0,0,1-.6,1.27A2.62,2.62,0,0,1,225.76,322Z"/><path class="cls-10" d="M232.92,321.92l-1.79-2.58-.93.88v1.7H229v-7.8h1.17v4.94l2.57-2.72h1.28l-2.17,2.34,2.29,3.24Z"/><path class="cls-10" d="M240.33,323.27v-1.69h-3.28v-1.05l3.65-4.71h.8v4.69h.94v1.07h-.94v1.69Zm-2.08-2.76h2.21v-2.9Z"/><path class="cls-10" d="M218,343.89H215.5v6.52h-1.21v-6.52h-2.53v-1.06H218Z"/><path class="cls-10" d="M219.19,350.52a2.27,2.27,0,0,1-.75-.13,2,2,0,0,1-.6-.37,1.85,1.85,0,0,1-.4-.56,1.74,1.74,0,0,1-.14-.69,1.56,1.56,0,0,1,.17-.72,1.71,1.71,0,0,1,.49-.55,2.39,2.39,0,0,1,.75-.37,3.48,3.48,0,0,1,.95-.12,5.12,5.12,0,0,1,.78.06,4.17,4.17,0,0,1,.7.19v-.38a1.28,1.28,0,0,0-.36-1,1.38,1.38,0,0,0-1-.35,2.46,2.46,0,0,0-.88.17,4.51,4.51,0,0,0-.89.47l-.37-.74a3.93,3.93,0,0,1,2.24-.73,2.58,2.58,0,0,1,1.8.59,2.16,2.16,0,0,1,.64,1.69v2c0,.25.1.38.31.39v1a1.81,1.81,0,0,1-.29,0l-.24,0a.72.72,0,0,1-.53-.18.7.7,0,0,1-.23-.43l0-.36a2.54,2.54,0,0,1-.93.76A2.79,2.79,0,0,1,219.19,350.52Zm.32-.87a2.16,2.16,0,0,0,.81-.15,1.39,1.39,0,0,0,.59-.43.56.56,0,0,0,.23-.41v-.74a3.36,3.36,0,0,0-.64-.18,3.68,3.68,0,0,0-.66-.06,1.81,1.81,0,0,0-1,.27.82.82,0,0,0-.4.72.9.9,0,0,0,.31.7A1.12,1.12,0,0,0,219.51,349.65Z"/><path class="cls-10" d="M225.76,350.52a4.14,4.14,0,0,1-1.34-.22,3.28,3.28,0,0,1-1.15-.63l.47-.74a5,5,0,0,0,1,.55,3,3,0,0,0,1,.19,1.46,1.46,0,0,0,.83-.21.65.65,0,0,0,.3-.57.54.54,0,0,0-.34-.52,7.85,7.85,0,0,0-1.07-.35q-.53-.13-.9-.27a2,2,0,0,1-.61-.3,1,1,0,0,1-.34-.39,1.29,1.29,0,0,1-.1-.55,1.65,1.65,0,0,1,.16-.75,1.7,1.7,0,0,1,.46-.57,2.22,2.22,0,0,1,.69-.34,2.91,2.91,0,0,1,.85-.12,3.48,3.48,0,0,1,1.18.19,2.93,2.93,0,0,1,1,.56l-.5.7a2.64,2.64,0,0,0-1.66-.62,1.44,1.44,0,0,0-.75.19.64.64,0,0,0-.3.59.62.62,0,0,0,.06.29.45.45,0,0,0,.21.2,1.86,1.86,0,0,0,.37.16l.57.15c.38.1.71.19,1,.28a2.39,2.39,0,0,1,.68.33,1.09,1.09,0,0,1,.39.44,1.21,1.21,0,0,1,.13.6,1.51,1.51,0,0,1-.6,1.26A2.62,2.62,0,0,1,225.76,350.52Z"/><path class="cls-10" d="M232.92,350.41l-1.79-2.57-.93.87v1.7H229v-7.79h1.17v4.94l2.57-2.72h1.28l-2.17,2.34,2.29,3.23Z"/><path class="cls-10" d="M239.86,347a2.72,2.72,0,0,1,1,.18,2.59,2.59,0,0,1,.79.5,2.18,2.18,0,0,1,.52.77,2.63,2.63,0,0,1,.19,1,2.54,2.54,0,0,1-.21,1,2.32,2.32,0,0,1-.58.8,2.38,2.38,0,0,1-.87.52,3.14,3.14,0,0,1-1.08.18,2.87,2.87,0,0,1-1.47-.37,2.36,2.36,0,0,1-1-1l.7-.68a2.44,2.44,0,0,0,.77.73,1.89,1.89,0,0,0,1,.28,1.5,1.5,0,0,0,1.09-.41,1.4,1.4,0,0,0,.43-1.08,1.38,1.38,0,0,0-.42-1,1.39,1.39,0,0,0-.45-.29,1.52,1.52,0,0,0-.57-.11,1.67,1.67,0,0,0-.76.18,1.45,1.45,0,0,0-.58.52h-1a2.41,2.41,0,0,1,0-.26c0-.14.05-.32.1-.53s.09-.46.14-.72.1-.53.16-.8c.12-.64.26-1.34.41-2.13h3.71v1.08h-2.85l-.39,2.07a1.35,1.35,0,0,1,.49-.32A2.16,2.16,0,0,1,239.86,347Z"/><path class="cls-10" d="M218,372.38H215.5v6.53h-1.21v-6.53h-2.53v-1.06H218Z"/><path class="cls-10" d="M219.19,379a2,2,0,0,1-.75-.13,1.84,1.84,0,0,1-.6-.37,1.63,1.63,0,0,1-.54-1.25,1.52,1.52,0,0,1,.17-.71A1.74,1.74,0,0,1,218,376a2.38,2.38,0,0,1,.75-.36,3.12,3.12,0,0,1,.95-.13,4.11,4.11,0,0,1,.78.07,4.17,4.17,0,0,1,.7.19v-.39a1.27,1.27,0,0,0-.36-1,1.34,1.34,0,0,0-1-.35,2.44,2.44,0,0,0-.88.16,4.1,4.1,0,0,0-.89.48l-.37-.75a4,4,0,0,1,2.24-.72,2.58,2.58,0,0,1,1.8.58,2.17,2.17,0,0,1,.64,1.69v2c0,.25.1.38.31.38v1l-.29,0h-.24a.77.77,0,0,1-.53-.17.7.7,0,0,1-.23-.44l0-.35a2.42,2.42,0,0,1-.93.75A2.64,2.64,0,0,1,219.19,379Zm.32-.86a2,2,0,0,0,.81-.16,1.32,1.32,0,0,0,.59-.43.55.55,0,0,0,.23-.4v-.74a3.36,3.36,0,0,0-.64-.18,3.7,3.7,0,0,0-.66-.07,1.74,1.74,0,0,0-1,.28.82.82,0,0,0-.4.72.91.91,0,0,0,.31.7A1.17,1.17,0,0,0,219.51,378.15Z"/><path class="cls-10" d="M225.76,379a4.41,4.41,0,0,1-1.34-.21,3.45,3.45,0,0,1-1.15-.63l.47-.75a4.12,4.12,0,0,0,1,.55,2.74,2.74,0,0,0,1,.19,1.54,1.54,0,0,0,.83-.2.67.67,0,0,0,.3-.58.52.52,0,0,0-.34-.51,6.47,6.47,0,0,0-1.07-.36c-.35-.09-.65-.18-.9-.26a2.67,2.67,0,0,1-.61-.3,1.07,1.07,0,0,1-.34-.4,1.27,1.27,0,0,1-.1-.54,1.58,1.58,0,0,1,.62-1.32,2.24,2.24,0,0,1,.69-.35,2.91,2.91,0,0,1,.85-.11,3.48,3.48,0,0,1,1.18.19,2.91,2.91,0,0,1,1,.55l-.5.71a2.58,2.58,0,0,0-1.66-.62,1.35,1.35,0,0,0-.75.19.64.64,0,0,0-.3.59.65.65,0,0,0,.06.29.58.58,0,0,0,.21.2,1.42,1.42,0,0,0,.37.15l.57.16a8.65,8.65,0,0,1,1,.28,2.7,2.7,0,0,1,.68.32,1.15,1.15,0,0,1,.39.44,1.26,1.26,0,0,1,.13.6,1.52,1.52,0,0,1-.6,1.27A2.62,2.62,0,0,1,225.76,379Z"/><path class="cls-10" d="M232.92,378.91l-1.79-2.58-.93.88v1.7H229v-7.8h1.17v4.94l2.57-2.72h1.28l-2.17,2.34,2.29,3.24Z"/><path class="cls-10" d="M242.84,376.39a2.52,2.52,0,0,1-.21,1,2.58,2.58,0,0,1-.58.84,2.46,2.46,0,0,1-.87.56,2.73,2.73,0,0,1-1.08.2,2.64,2.64,0,0,1-1.14-.23,2.34,2.34,0,0,1-.87-.66,3.12,3.12,0,0,1-.57-1.05,4.79,4.79,0,0,1-.19-1.42,7.75,7.75,0,0,1,.21-1.91,4,4,0,0,1,.58-1.36,2.4,2.4,0,0,1,.91-.83,2.46,2.46,0,0,1,1.19-.28,2.7,2.7,0,0,1,1.33.33,2.67,2.67,0,0,1,1,.94l-.69.73a1.93,1.93,0,0,0-.68-.71,1.78,1.78,0,0,0-1-.26,1.5,1.5,0,0,0-1.28.67,3.45,3.45,0,0,0-.49,1.91,1.77,1.77,0,0,1,.7-.76,2.16,2.16,0,0,1,1.08-.27,2.75,2.75,0,0,1,1,.19,2.48,2.48,0,0,1,.83.54,2.48,2.48,0,0,1,.76,1.81ZM240.1,378a1.48,1.48,0,0,0,.63-.13,1.5,1.5,0,0,0,.51-.35,1.7,1.7,0,0,0,.35-.52,1.54,1.54,0,0,0,0-1.24,1.78,1.78,0,0,0-.35-.51,1.58,1.58,0,0,0-1.76-.35,1.54,1.54,0,0,0-.51.35,1.6,1.6,0,0,0-.35.51,1.54,1.54,0,0,0,0,1.24,1.54,1.54,0,0,0,.35.52,1.41,1.41,0,0,0,.51.35A1.47,1.47,0,0,0,240.1,378Z"/><path class="cls-10" d="M218,400.88H215.5v6.52h-1.21v-6.52h-2.53v-1.06H218Z"/><path class="cls-10" d="M219.19,407.51a2.27,2.27,0,0,1-.75-.13,2,2,0,0,1-.6-.37,1.85,1.85,0,0,1-.4-.56,1.74,1.74,0,0,1-.14-.69,1.56,1.56,0,0,1,.17-.72,1.71,1.71,0,0,1,.49-.55,2.39,2.39,0,0,1,.75-.37,3.48,3.48,0,0,1,.95-.12,5.12,5.12,0,0,1,.78.06,4.17,4.17,0,0,1,.7.19v-.38a1.28,1.28,0,0,0-.36-1,1.38,1.38,0,0,0-1-.35,2.46,2.46,0,0,0-.88.17,4.51,4.51,0,0,0-.89.47l-.37-.74a3.93,3.93,0,0,1,2.24-.73,2.58,2.58,0,0,1,1.8.59,2.16,2.16,0,0,1,.64,1.69v2c0,.25.1.38.31.39v1a1.81,1.81,0,0,1-.29,0l-.24,0a.72.72,0,0,1-.53-.18.7.7,0,0,1-.23-.43l0-.36a2.54,2.54,0,0,1-.93.76A2.79,2.79,0,0,1,219.19,407.51Zm.32-.87a2.16,2.16,0,0,0,.81-.15,1.39,1.39,0,0,0,.59-.43.56.56,0,0,0,.23-.41v-.74a3.36,3.36,0,0,0-.64-.18,3.68,3.68,0,0,0-.66-.06,1.81,1.81,0,0,0-1,.27.82.82,0,0,0-.4.72.9.9,0,0,0,.31.7A1.12,1.12,0,0,0,219.51,406.64Z"/><path class="cls-10" d="M225.76,407.51a4.14,4.14,0,0,1-1.34-.22,3.28,3.28,0,0,1-1.15-.63l.47-.74a5,5,0,0,0,1,.55,3,3,0,0,0,1,.19,1.46,1.46,0,0,0,.83-.21.65.65,0,0,0,.3-.58.53.53,0,0,0-.34-.51,7.85,7.85,0,0,0-1.07-.35q-.53-.13-.9-.27a2,2,0,0,1-.61-.3,1,1,0,0,1-.34-.39,1.29,1.29,0,0,1-.1-.55,1.65,1.65,0,0,1,.16-.75,1.7,1.7,0,0,1,.46-.57,2.22,2.22,0,0,1,.69-.34,2.91,2.91,0,0,1,.85-.12,3.48,3.48,0,0,1,1.18.19,3.12,3.12,0,0,1,1,.56l-.5.7a2.64,2.64,0,0,0-1.66-.62,1.44,1.44,0,0,0-.75.19.64.64,0,0,0-.3.59.62.62,0,0,0,.06.29.45.45,0,0,0,.21.2,1.86,1.86,0,0,0,.37.16l.57.15c.38.1.71.19,1,.28a2.39,2.39,0,0,1,.68.33,1.09,1.09,0,0,1,.39.44,1.21,1.21,0,0,1,.13.6,1.51,1.51,0,0,1-.6,1.26A2.62,2.62,0,0,1,225.76,407.51Z"/><path class="cls-10" d="M232.92,407.4l-1.79-2.57-.93.87v1.7H229v-7.79h1.17v4.94l2.57-2.72h1.28l-2.17,2.34,2.29,3.23Z"/><path class="cls-10" d="M240.79,402.25h-3.68v-1.07h5.54l-3.8,7.58h-1.33Z"/><path class="cls-10" d="M907.68,192.67a8.19,8.19,0,0,1,.13-1.54,4.35,4.35,0,0,1,.5-1.33,5,5,0,0,1,1-1.19,8.34,8.34,0,0,1,1.58-1.09l1.3-.69c.41-.21.77-.42,1.08-.62a3.44,3.44,0,0,0,.74-.65,1.27,1.27,0,0,0,.27-.8,1.54,1.54,0,0,0-.54-1.14,2.24,2.24,0,0,0-1.57-.5,3,3,0,0,0-1,.15,3.76,3.76,0,0,0-.81.37,3,3,0,0,0-.64.51c-.19.18-.35.36-.5.53l-1.38-1.6a5.77,5.77,0,0,1,.62-.54,5.85,5.85,0,0,1,1-.62,7.53,7.53,0,0,1,1.37-.51,6.79,6.79,0,0,1,1.68-.2,5.58,5.58,0,0,1,1.7.24,4.15,4.15,0,0,1,1.29.68,3,3,0,0,1,1.07,2.33,2.74,2.74,0,0,1-.3,1.3,3.89,3.89,0,0,1-.73,1,4.79,4.79,0,0,1-.94.74c-.34.2-.66.38-1,.52l-.94.46a9.79,9.79,0,0,0-1,.62,5.93,5.93,0,0,0-.89.74,2.18,2.18,0,0,0-.55.86h6.53v2Z"/><path class="cls-10" d="M928.82,186.89a7.09,7.09,0,0,1-.39,2.39,6,6,0,0,1-1.06,1.9,5,5,0,0,1-1.6,1.24,4.79,4.79,0,0,1-4,0,4.83,4.83,0,0,1-1.6-1.24,6.15,6.15,0,0,1-1.06-1.9,7.74,7.74,0,0,1,0-4.79,6,6,0,0,1,1.06-1.89,4.73,4.73,0,0,1,1.6-1.25,4.6,4.6,0,0,1,4,0,4.93,4.93,0,0,1,1.6,1.25,5.8,5.8,0,0,1,1.06,1.89A7.11,7.11,0,0,1,928.82,186.89Zm-2.21,0a5.83,5.83,0,0,0-.21-1.62,3.86,3.86,0,0,0-.59-1.26,2.71,2.71,0,0,0-.91-.82,2.32,2.32,0,0,0-1.13-.29,2.36,2.36,0,0,0-1.17.29,2.62,2.62,0,0,0-.91.82,3.67,3.67,0,0,0-.59,1.26,5.83,5.83,0,0,0-.21,1.62,5.76,5.76,0,0,0,.21,1.61,3.67,3.67,0,0,0,.59,1.26,2.77,2.77,0,0,0,.91.8,2.26,2.26,0,0,0,1.17.29,2.21,2.21,0,0,0,1.13-.29,2.88,2.88,0,0,0,.91-.8,3.86,3.86,0,0,0,.59-1.26A5.76,5.76,0,0,0,926.61,186.89Z"/><path class="cls-10" d="M930.61,192.67a8.16,8.16,0,0,1,.14-1.54,4.33,4.33,0,0,1,.49-1.33,5,5,0,0,1,1-1.19,8,8,0,0,1,1.58-1.09l1.3-.69a12.26,12.26,0,0,0,1.07-.62,3.21,3.21,0,0,0,.74-.65,1.22,1.22,0,0,0,.28-.8,1.54,1.54,0,0,0-.54-1.14,2.28,2.28,0,0,0-1.57-.5,3.05,3.05,0,0,0-1,.15,4.27,4.27,0,0,0-.81.37,3.59,3.59,0,0,0-.64.51c-.18.18-.35.36-.49.53l-1.38-1.6a5.77,5.77,0,0,1,.62-.54,5.5,5.5,0,0,1,1-.62,7.26,7.26,0,0,1,1.37-.51,6.77,6.77,0,0,1,1.67-.2,5.7,5.7,0,0,1,1.71.24,4.09,4.09,0,0,1,1.28.68,3,3,0,0,1,.8,1,3.11,3.11,0,0,1,.28,1.29,2.74,2.74,0,0,1-.3,1.3,4.14,4.14,0,0,1-.73,1,4.85,4.85,0,0,1-1,.74c-.34.2-.65.38-.94.52l-.94.46a9,9,0,0,0-1,.62,6.38,6.38,0,0,0-.88.74,2.2,2.2,0,0,0-.56.86h6.53v2Z"/><path class="cls-10" d="M941.44,192.67a7.41,7.41,0,0,1,.14-1.54,4.09,4.09,0,0,1,.49-1.33,5,5,0,0,1,1-1.19,7.93,7.93,0,0,1,1.57-1.09l1.31-.69c.4-.21.76-.42,1.07-.62a3.44,3.44,0,0,0,.74-.65,1.28,1.28,0,0,0,.28-.8,1.52,1.52,0,0,0-.55-1.14,2.23,2.23,0,0,0-1.56-.5,3.05,3.05,0,0,0-1,.15,3.76,3.76,0,0,0-.81.37,3.26,3.26,0,0,0-.64.51c-.18.18-.35.36-.49.53l-1.38-1.6a4.92,4.92,0,0,1,.62-.54,5.4,5.4,0,0,1,1-.62,7.53,7.53,0,0,1,1.37-.51,6.91,6.91,0,0,1,1.68-.2,5.7,5.7,0,0,1,1.71.24,4.2,4.2,0,0,1,1.28.68,3,3,0,0,1,.8,1,3.11,3.11,0,0,1,.27,1.29,2.86,2.86,0,0,1-.29,1.3,4.14,4.14,0,0,1-.73,1,5.17,5.17,0,0,1-1,.74c-.34.2-.66.38-1,.52l-.93.46a9,9,0,0,0-1,.62,6.47,6.47,0,0,0-.89.74,2.29,2.29,0,0,0-.55.86h6.53v2Z"/><rect class="cls-15" x="257.49" y="174.49" width="50.38" height="26.16"/><rect class="cls-15" x="310.85" y="174.49" width="50.38" height="26.16"/><rect class="cls-15" x="364.21" y="174.49" width="50.38" height="26.16"/><rect class="cls-15" x="417.58" y="174.49" width="50.38" height="26.16"/><rect class="cls-15" x="470.94" y="174.49" width="50.38" height="26.16"/><rect class="cls-15" x="524.3" y="174.49" width="50.38" height="26.16"/><rect class="cls-15" x="577.67" y="174.49" width="50.38" height="26.16"/><rect class="cls-15" x="631.03" y="174.49" width="50.38" height="26.16"/><rect class="cls-15" x="684.39" y="174.49" width="50.38" height="26.16"/><rect class="cls-15" x="737.75" y="174.49" width="50.38" height="26.16"/><rect class="cls-15" x="791.12" y="174.49" width="50.38" height="26.16"/><rect class="cls-15" x="844.48" y="174.49" width="50.38" height="26.16"/><path class="cls-8" d="M274.32,190.1a2,2,0,0,0,.54.25,2.3,2.3,0,0,0,.81.13,1.52,1.52,0,0,0,.79-.18,1.15,1.15,0,0,0,.45-.52,2.79,2.79,0,0,0,.2-.87c0-.34.05-.74.05-1.2v-3.86h1.21v3.86a12.71,12.71,0,0,1-.09,1.58,3.51,3.51,0,0,1-.36,1.21,2,2,0,0,1-.81.78,3.23,3.23,0,0,1-1.44.28,2.76,2.76,0,0,1-1.64-.48Z"/><path class="cls-8" d="M281.25,191.54a2,2,0,0,1-.75-.13,1.84,1.84,0,0,1-.6-.37,1.69,1.69,0,0,1-.4-.55,1.82,1.82,0,0,1-.14-.7,1.52,1.52,0,0,1,.17-.71,1.63,1.63,0,0,1,.49-.56,2.43,2.43,0,0,1,.74-.36,3.23,3.23,0,0,1,1-.13,4.11,4.11,0,0,1,.78.07,3.8,3.8,0,0,1,.69.19v-.39a1.26,1.26,0,0,0-.35-1,1.34,1.34,0,0,0-1-.35,2.41,2.41,0,0,0-.88.16,4.4,4.4,0,0,0-.9.48l-.36-.75a4,4,0,0,1,2.24-.72,2.58,2.58,0,0,1,1.8.58,2.17,2.17,0,0,1,.64,1.69v2c0,.25.1.38.31.38v1l-.29,0h-.25a.76.76,0,0,1-.52-.17.66.66,0,0,1-.23-.44l0-.35a2.32,2.32,0,0,1-.92.75A2.64,2.64,0,0,1,281.25,191.54Zm.32-.86a2.05,2.05,0,0,0,.81-.16,1.32,1.32,0,0,0,.59-.43.53.53,0,0,0,.22-.4V189a3.26,3.26,0,0,0-.63-.18,3.09,3.09,0,0,0-.66-.07,1.74,1.74,0,0,0-1,.28.82.82,0,0,0-.4.72.91.91,0,0,0,.31.7A1.17,1.17,0,0,0,281.57,190.68Z"/><path class="cls-8" d="M290.8,191.44h-1.18v-3.13a2,2,0,0,0-.25-1.15.83.83,0,0,0-.74-.36,1.32,1.32,0,0,0-.51.1,1.64,1.64,0,0,0-.48.27,2,2,0,0,0-.4.42,1.92,1.92,0,0,0-.28.53v3.32h-1.17v-5.59h1.07V187a2.28,2.28,0,0,1,.93-.89,2.74,2.74,0,0,1,1.34-.32,1.7,1.7,0,0,1,.83.18,1.31,1.31,0,0,1,.5.49,2.11,2.11,0,0,1,.26.73,4.77,4.77,0,0,1,.08.87Z"/><path class="cls-8" d="M327.46,191.44v-7.59h5.05v1.06h-3.86v2.27h3.23v1h-3.23v3.27Z"/><path class="cls-8" d="M335.66,191.54a2.87,2.87,0,0,1-1.19-.23,2.77,2.77,0,0,1-.91-.62,2.85,2.85,0,0,1-.59-.92,3,3,0,0,1-.21-1.11,3.05,3.05,0,0,1,.21-1.12,3,3,0,0,1,.59-.93,3,3,0,0,1,.91-.63,3.09,3.09,0,0,1,1.2-.22,2.83,2.83,0,0,1,1.18.23,2.89,2.89,0,0,1,.9.62,2.69,2.69,0,0,1,.57.91,3.1,3.1,0,0,1,.2,1.09,1.93,1.93,0,0,1,0,.24c0,.07,0,.13,0,.18H334a1.85,1.85,0,0,0,.18.68,2,2,0,0,0,.37.52,1.82,1.82,0,0,0,.53.33,1.58,1.58,0,0,0,.61.12,1.89,1.89,0,0,0,.47-.06,1.94,1.94,0,0,0,.42-.17,1.84,1.84,0,0,0,.34-.27,1.24,1.24,0,0,0,.23-.35l1,.28a2.26,2.26,0,0,1-1,1A2.91,2.91,0,0,1,335.66,191.54Zm1.7-3.32a1.8,1.8,0,0,0-.18-.65,1.76,1.76,0,0,0-.37-.51,1.62,1.62,0,0,0-.52-.32,1.69,1.69,0,0,0-1.77.32,1.59,1.59,0,0,0-.37.51,2,2,0,0,0-.17.65Z"/><path class="cls-8" d="M342.49,191.54a2.24,2.24,0,0,1-2-1.12v1h-1v-7.8h1.18v3.27a2.39,2.39,0,0,1,.83-.84,2.31,2.31,0,0,1,2.18-.07,2.31,2.31,0,0,1,.78.64,2.79,2.79,0,0,1,.51.93,3.67,3.67,0,0,1,.17,1.1,3.18,3.18,0,0,1-.2,1.12,3,3,0,0,1-.56.92,2.48,2.48,0,0,1-1.88.83Zm-.31-1a1.64,1.64,0,0,0,.71-.15,1.75,1.75,0,0,0,.55-.42,2,2,0,0,0,.36-.59,2.08,2.08,0,0,0,.13-.71,2.18,2.18,0,0,0-.13-.72,1.92,1.92,0,0,0-.34-.61,1.78,1.78,0,0,0-.52-.42,1.38,1.38,0,0,0-.67-.16,1.52,1.52,0,0,0-1,.35,2.37,2.37,0,0,0-.64.86v1.47a1.08,1.08,0,0,0,.22.44,1.58,1.58,0,0,0,.38.35,1.53,1.53,0,0,0,.46.23A1.59,1.59,0,0,0,342.18,190.54Z"/><path class="cls-8" d="M387.13,191.44V186l-2.26,4.13h-.66L382,186v5.46h-1.2v-7.59H382l2.51,4.64,2.51-4.64h1.28v7.59Z"/><path class="cls-8" d="M391.32,191.54a2,2,0,0,1-.75-.13,1.84,1.84,0,0,1-.6-.37,1.73,1.73,0,0,1-.54-1.25,1.41,1.41,0,0,1,.18-.71,1.6,1.6,0,0,1,.48-.56,2.38,2.38,0,0,1,.75-.36,3.21,3.21,0,0,1,1-.13,4,4,0,0,1,.78.07,4.17,4.17,0,0,1,.7.19v-.39a1.3,1.3,0,0,0-.35-1,1.38,1.38,0,0,0-1-.35,2.44,2.44,0,0,0-.88.16,4.1,4.1,0,0,0-.89.48l-.37-.75a4,4,0,0,1,2.25-.72,2.54,2.54,0,0,1,1.79.58,2.17,2.17,0,0,1,.64,1.69v2c0,.25.11.38.31.38v1l-.29,0h-.24a.78.78,0,0,1-.53-.17.75.75,0,0,1-.23-.44l0-.35a2.42,2.42,0,0,1-.93.75A2.61,2.61,0,0,1,391.32,191.54Zm.33-.86a2,2,0,0,0,.8-.16,1.32,1.32,0,0,0,.59-.43.55.55,0,0,0,.23-.4V189a3.17,3.17,0,0,0-.64-.18,2.94,2.94,0,0,0-.65-.07,1.72,1.72,0,0,0-1,.28.82.82,0,0,0-.4.72.94.94,0,0,0,.3.7A1.18,1.18,0,0,0,391.65,190.68Z"/><path class="cls-8" d="M399,186.87a2.65,2.65,0,0,0-1.21.31,1.7,1.7,0,0,0-.75.84v3.42h-1.18v-5.59H397v1.25a2.66,2.66,0,0,1,.76-.92,1.82,1.82,0,0,1,1-.38h.3Z"/><path class="cls-8" d="M437,183.85h1l3,7.59h-1.26l-.8-2.06h-2.92l-.79,2.06H434Zm1.74,4.64-1.22-3.26-1.26,3.26Z"/><path class="cls-8" d="M445,191.54a2.14,2.14,0,0,1-1.19-.32,2.38,2.38,0,0,1-.81-.83v3.32h-1.17v-7.86h1v1a2.38,2.38,0,0,1,.83-.81,2.47,2.47,0,0,1,2.2-.06,2.77,2.77,0,0,1,.84.63,2.92,2.92,0,0,1,.55.92,3.11,3.11,0,0,1,.2,1.1,3.33,3.33,0,0,1-.19,1.14,2.84,2.84,0,0,1-.51.92,2.43,2.43,0,0,1-.78.61A2.13,2.13,0,0,1,445,191.54Zm-.39-1a1.39,1.39,0,0,0,.68-.16,1.66,1.66,0,0,0,.52-.43,1.82,1.82,0,0,0,.34-.61,2.06,2.06,0,0,0,.12-.7,2.2,2.2,0,0,0-.13-.73,2,2,0,0,0-.37-.6,1.6,1.6,0,0,0-1.71-.47,1.83,1.83,0,0,0-.46.24,2.11,2.11,0,0,0-.38.35,1.17,1.17,0,0,0-.22.43v1.46a1.94,1.94,0,0,0,.28.48,2,2,0,0,0,.38.39,2,2,0,0,0,.45.25A1.24,1.24,0,0,0,444.62,190.54Z"/><path class="cls-8" d="M451.68,186.87a2.65,2.65,0,0,0-1.21.31,1.7,1.7,0,0,0-.75.84v3.42h-1.18v-5.59h1.09v1.25a2.56,2.56,0,0,1,.76-.92,1.82,1.82,0,0,1,1-.38h.3Z"/><path class="cls-8" d="M493,191.44V186l-2.25,4.13h-.66L487.81,186v5.46h-1.19v-7.59h1.28l2.51,4.64,2.51-4.64h1.28v7.59Z"/><path class="cls-8" d="M497.19,191.54a2,2,0,0,1-.75-.13,1.84,1.84,0,0,1-.6-.37,1.69,1.69,0,0,1-.4-.55,1.82,1.82,0,0,1-.14-.7,1.52,1.52,0,0,1,.17-.71,1.63,1.63,0,0,1,.49-.56,2.43,2.43,0,0,1,.74-.36,3.23,3.23,0,0,1,1-.13,4.11,4.11,0,0,1,.78.07,3.8,3.8,0,0,1,.69.19v-.39a1.26,1.26,0,0,0-.35-1,1.34,1.34,0,0,0-1-.35,2.5,2.5,0,0,0-.89.16,4.62,4.62,0,0,0-.89.48l-.36-.75a4,4,0,0,1,2.24-.72,2.58,2.58,0,0,1,1.8.58,2.21,2.21,0,0,1,.64,1.69v2c0,.25.1.38.31.38v1l-.3,0h-.24a.76.76,0,0,1-.52-.17.66.66,0,0,1-.23-.44l0-.35a2.39,2.39,0,0,1-.92.75A2.64,2.64,0,0,1,497.19,191.54Zm.32-.86a2.05,2.05,0,0,0,.81-.16,1.32,1.32,0,0,0,.59-.43.53.53,0,0,0,.22-.4V189a3.26,3.26,0,0,0-.63-.18,3.09,3.09,0,0,0-.66-.07,1.74,1.74,0,0,0-1,.28.82.82,0,0,0-.4.72.91.91,0,0,0,.31.7A1.17,1.17,0,0,0,497.51,190.68Z"/><path class="cls-8" d="M501.78,192.75l.32.05.25,0a.48.48,0,0,0,.24-.06.69.69,0,0,0,.21-.21,2.62,2.62,0,0,0,.22-.42c.07-.18.16-.42.26-.7l-2.3-5.59h1.21l1.73,4.55,1.54-4.55h1.11L504,192.73a1.84,1.84,0,0,1-.6.81,1.75,1.75,0,0,1-1.08.32h-.27a2.6,2.6,0,0,1-.31-.07Z"/><path class="cls-8" d="M540.8,190.1a2,2,0,0,0,.54.25,2.31,2.31,0,0,0,.82.13,1.48,1.48,0,0,0,.78-.18,1.1,1.1,0,0,0,.45-.52,2.79,2.79,0,0,0,.2-.87,10.64,10.64,0,0,0,0-1.2v-3.86h1.21v3.86a12.71,12.71,0,0,1-.09,1.58,3.13,3.13,0,0,1-.36,1.21,2,2,0,0,1-.81.78,3.19,3.19,0,0,1-1.43.28,2.82,2.82,0,0,1-1.65-.48Z"/><path class="cls-8" d="M548,191.54a1.58,1.58,0,0,1-1.32-.57,2.72,2.72,0,0,1-.45-1.7v-3.42h1.17V189c0,1,.36,1.51,1.07,1.51a1.61,1.61,0,0,0,1-.31,2,2,0,0,0,.7-.9v-3.48h1.17v4.2a.54.54,0,0,0,.07.29.34.34,0,0,0,.25.09v1l-.3,0h-.22a.87.87,0,0,1-.55-.18.56.56,0,0,1-.23-.45l0-.55a2.59,2.59,0,0,1-1,.92A2.79,2.79,0,0,1,548,191.54Z"/><path class="cls-8" d="M557.84,191.44h-1.18v-3.13a2,2,0,0,0-.25-1.15.84.84,0,0,0-.74-.36,1.32,1.32,0,0,0-.51.1,1.64,1.64,0,0,0-.48.27,2,2,0,0,0-.4.42,1.92,1.92,0,0,0-.28.53v3.32h-1.17v-5.59h1.07V187a2.28,2.28,0,0,1,.93-.89,2.74,2.74,0,0,1,1.34-.32,1.63,1.63,0,0,1,.82.18,1.27,1.27,0,0,1,.51.49,2.11,2.11,0,0,1,.26.73,4.77,4.77,0,0,1,.08.87Z"/><path class="cls-8" d="M595.9,190.1a2,2,0,0,0,.54.25,2.31,2.31,0,0,0,.82.13,1.48,1.48,0,0,0,.78-.18,1.1,1.1,0,0,0,.45-.52,2.79,2.79,0,0,0,.2-.87,10.64,10.64,0,0,0,0-1.2v-3.86H600v3.86a12.71,12.71,0,0,1-.09,1.58,3.31,3.31,0,0,1-.36,1.21,2,2,0,0,1-.81.78,3.22,3.22,0,0,1-1.43.28,2.82,2.82,0,0,1-1.65-.48Z"/><path class="cls-8" d="M603.14,191.54a1.58,1.58,0,0,1-1.32-.57,2.72,2.72,0,0,1-.45-1.7v-3.42h1.17V189c0,1,.36,1.51,1.07,1.51a1.61,1.61,0,0,0,.95-.31,2,2,0,0,0,.7-.9v-3.48h1.17v4.2a.46.46,0,0,0,.07.29.34.34,0,0,0,.25.09v1l-.3,0h-.22a.85.85,0,0,1-.55-.18.56.56,0,0,1-.23-.45l0-.55a2.59,2.59,0,0,1-1,.92A2.79,2.79,0,0,1,603.14,191.54Z"/><path class="cls-8" d="M607.94,183.64h1.17v6.19a.68.68,0,0,0,.16.48.58.58,0,0,0,.45.18,1,1,0,0,0,.27-.05,2.63,2.63,0,0,0,.3-.09l.17.92a3,3,0,0,1-.61.18,3.1,3.1,0,0,1-.63.07,1.31,1.31,0,0,1-1-.33,1.27,1.27,0,0,1-.33-.94Z"/><path class="cls-8" d="M649.09,183.85h1l3,7.59h-1.26l-.8-2.06h-2.93l-.79,2.06h-1.27Zm1.74,4.64-1.22-3.26-1.26,3.26Z"/><path class="cls-8" d="M655.51,191.54a1.58,1.58,0,0,1-1.32-.57,2.72,2.72,0,0,1-.45-1.7v-3.42h1.17V189c0,1,.36,1.51,1.07,1.51a1.61,1.61,0,0,0,.95-.31,2,2,0,0,0,.7-.9v-3.48h1.17v4.2a.46.46,0,0,0,.07.29.34.34,0,0,0,.25.09v1l-.3,0h-.22a.85.85,0,0,1-.55-.18.56.56,0,0,1-.23-.45l0-.55a2.59,2.59,0,0,1-1,.92A2.79,2.79,0,0,1,655.51,191.54Z"/><path class="cls-8" d="M662.51,191.49a2.37,2.37,0,0,1-1-.23,2.58,2.58,0,0,1-.81-.62,3.26,3.26,0,0,1-.52-.91,3.23,3.23,0,0,1-.19-1.08,3.28,3.28,0,0,1,.2-1.13,2.71,2.71,0,0,1,.53-.92,2.65,2.65,0,0,1,.82-.62,2.38,2.38,0,0,1,1-.22,2.11,2.11,0,0,1,1.18.32,2.66,2.66,0,0,1,.84.83v-1.06h1v5.43a2.51,2.51,0,0,1-.22,1.08,2.3,2.3,0,0,1-.63.79,2.82,2.82,0,0,1-.94.5,4,4,0,0,1-1.17.17,3.39,3.39,0,0,1-1.55-.32,2.9,2.9,0,0,1-1-.88l.66-.62a2.14,2.14,0,0,0,.83.69,2.66,2.66,0,0,0,1.09.23,2.48,2.48,0,0,0,.68-.09,1.88,1.88,0,0,0,.58-.3,1.58,1.58,0,0,0,.39-.52,1.79,1.79,0,0,0,.14-.73v-.86a2,2,0,0,1-.82.79A2.28,2.28,0,0,1,662.51,191.49Zm.38-1a1.44,1.44,0,0,0,.51-.09,1.58,1.58,0,0,0,.46-.25,1.71,1.71,0,0,0,.36-.35,1.19,1.19,0,0,0,.21-.42V188a1.83,1.83,0,0,0-.28-.49,1.76,1.76,0,0,0-.39-.38,1.72,1.72,0,0,0-.46-.25,1.46,1.46,0,0,0-.49-.09,1.41,1.41,0,0,0-.69.16,1.72,1.72,0,0,0-.52.44,2.16,2.16,0,0,0-.33.62,2.06,2.06,0,0,0-.12.7,1.88,1.88,0,0,0,.13.72,2,2,0,0,0,.37.59,1.81,1.81,0,0,0,.55.4A1.58,1.58,0,0,0,662.89,190.54Z"/><path class="cls-8" d="M705.05,185.64a1.45,1.45,0,0,0-.31-.25,2.3,2.3,0,0,0-.47-.25,3.25,3.25,0,0,0-.6-.2,3,3,0,0,0-.67-.07,1.78,1.78,0,0,0-1.11.28.91.91,0,0,0-.36.77.88.88,0,0,0,.11.45,1,1,0,0,0,.35.31,2.34,2.34,0,0,0,.59.23l.82.22c.38.1.73.2,1,.31a3.17,3.17,0,0,1,.78.42,1.61,1.61,0,0,1,.5.6,1.93,1.93,0,0,1,.18.87,2.08,2.08,0,0,1-.22,1,1.94,1.94,0,0,1-.6.67,2.52,2.52,0,0,1-.88.39,4.64,4.64,0,0,1-1.08.12,5.21,5.21,0,0,1-1.67-.26,4.84,4.84,0,0,1-1.46-.76l.55-1a2.15,2.15,0,0,0,.4.31,4.15,4.15,0,0,0,.6.32,7.54,7.54,0,0,0,.76.24,3.33,3.33,0,0,0,.84.1,2,2,0,0,0,1.09-.24.82.82,0,0,0,.39-.73.76.76,0,0,0-.15-.48,1.18,1.18,0,0,0-.41-.34,4.17,4.17,0,0,0-.65-.26l-.88-.24c-.37-.1-.7-.21-1-.32a2.28,2.28,0,0,1-.69-.4,1.53,1.53,0,0,1-.43-.55,1.91,1.91,0,0,1-.14-.76,2.25,2.25,0,0,1,.21-1,2.21,2.21,0,0,1,.59-.73A2.55,2.55,0,0,1,702,184a3.71,3.71,0,0,1,1.08-.15,3.91,3.91,0,0,1,1.43.25,4.42,4.42,0,0,1,1.14.61Z"/><path class="cls-8" d="M709.48,191.54a2.87,2.87,0,0,1-1.19-.23,2.74,2.74,0,0,1-1.5-1.54,3,3,0,0,1-.21-1.11,3.05,3.05,0,0,1,.21-1.12,2.78,2.78,0,0,1,1.5-1.56,3.09,3.09,0,0,1,1.2-.22,2.86,2.86,0,0,1,1.18.23,2.89,2.89,0,0,1,.9.62,2.69,2.69,0,0,1,.57.91,3.1,3.1,0,0,1,.2,1.09c0,.08,0,.16,0,.24a1.41,1.41,0,0,0,0,.18h-4.48a1.85,1.85,0,0,0,.18.68,1.76,1.76,0,0,0,.37.52,1.91,1.91,0,0,0,.52.33,1.67,1.67,0,0,0,.62.12,1.82,1.82,0,0,0,.46-.06,1.84,1.84,0,0,0,.43-.17,2.24,2.24,0,0,0,.34-.27,1.24,1.24,0,0,0,.23-.35l1,.28a2.37,2.37,0,0,1-1,1A2.93,2.93,0,0,1,709.48,191.54Zm1.69-3.32a2,2,0,0,0-.17-.65,1.76,1.76,0,0,0-.37-.51,1.62,1.62,0,0,0-.52-.32,1.71,1.71,0,0,0-1.26,0,1.62,1.62,0,0,0-.52.32,1.57,1.57,0,0,0-.36.51,2,2,0,0,0-.17.65Z"/><path class="cls-8" d="M716.47,191.54a2.11,2.11,0,0,1-1.18-.32,2.33,2.33,0,0,1-.82-.83v3.32H713.3v-7.86h1v1a2.35,2.35,0,0,1,.82-.81,2.49,2.49,0,0,1,2.21-.06,2.78,2.78,0,0,1,1.38,1.55,3.11,3.11,0,0,1,.2,1.1,3.58,3.58,0,0,1-.18,1.14,2.68,2.68,0,0,1-.52.92,2.33,2.33,0,0,1-.78.61A2.1,2.1,0,0,1,716.47,191.54Zm-.38-1a1.42,1.42,0,0,0,.68-.16,1.78,1.78,0,0,0,.52-.43,2,2,0,0,0,.34-.61,2.33,2.33,0,0,0,.11-.7,2,2,0,0,0-.13-.73,2.13,2.13,0,0,0-.36-.6,1.81,1.81,0,0,0-.55-.4,1.66,1.66,0,0,0-.7-.15,1.6,1.6,0,0,0-.47.08,2.25,2.25,0,0,0-.46.24,2,2,0,0,0-.37.35,1.19,1.19,0,0,0-.23.43v1.46a2.87,2.87,0,0,0,.28.48,2.35,2.35,0,0,0,.38.39,1.86,1.86,0,0,0,.46.25A1.24,1.24,0,0,0,716.09,190.54Z"/><path class="cls-8" d="M757.9,191.49a3.31,3.31,0,0,1-1.48-.33,3.58,3.58,0,0,1-1.14-.86,4.06,4.06,0,0,1-.75-1.23,4.14,4.14,0,0,1-.26-1.42,3.83,3.83,0,0,1,.28-1.46,4.12,4.12,0,0,1,.76-1.22,3.63,3.63,0,0,1,1.16-.85,3.36,3.36,0,0,1,1.46-.32,3.19,3.19,0,0,1,1.48.34,3.79,3.79,0,0,1,1.14.88,4,4,0,0,1,.73,1.23,3.84,3.84,0,0,1,.27,1.41,3.86,3.86,0,0,1-2.2,3.52A3.34,3.34,0,0,1,757.9,191.49Zm-2.41-3.84a3.27,3.27,0,0,0,.17,1,3,3,0,0,0,.49.89,2.25,2.25,0,0,0,.76.61,2.09,2.09,0,0,0,1,.23,2.07,2.07,0,0,0,1-.24,2.44,2.44,0,0,0,.76-.63,3.16,3.16,0,0,0,.47-.89,3.43,3.43,0,0,0,.16-1,3.35,3.35,0,0,0-.17-1.05,2.85,2.85,0,0,0-.49-.87,2.38,2.38,0,0,0-.76-.61,2.11,2.11,0,0,0-1-.23,2.15,2.15,0,0,0-1,.24,2.44,2.44,0,0,0-.76.63,2.56,2.56,0,0,0-.47.88A2.9,2.9,0,0,0,755.49,187.65Z"/><path class="cls-8" d="M762.27,188.64a3,3,0,0,1,.21-1.11,2.53,2.53,0,0,1,.58-.92A2.85,2.85,0,0,1,764,186a3.09,3.09,0,0,1,1.2-.22,2.87,2.87,0,0,1,1.49.37,2.44,2.44,0,0,1,.93,1l-1.14.37a1.45,1.45,0,0,0-.55-.55,1.48,1.48,0,0,0-.75-.2,1.59,1.59,0,0,0-.66.14,1.55,1.55,0,0,0-.53.39,1.74,1.74,0,0,0-.35.59,2.26,2.26,0,0,0,0,1.51,1.88,1.88,0,0,0,.37.61,1.73,1.73,0,0,0,.53.4,1.58,1.58,0,0,0,.65.14,1.52,1.52,0,0,0,.42-.06,1.38,1.38,0,0,0,.39-.16,2,2,0,0,0,.31-.25.83.83,0,0,0,.2-.3l1.16.34a2.3,2.3,0,0,1-.93,1,3.18,3.18,0,0,1-2.73.17,2.86,2.86,0,0,1-1.5-1.56A3,3,0,0,1,762.27,188.64Z"/><path class="cls-8" d="M771.71,191.15a5.56,5.56,0,0,1-.61.24,2.65,2.65,0,0,1-.85.13,1.77,1.77,0,0,1-.52-.07,1.32,1.32,0,0,1-.44-.23,1.05,1.05,0,0,1-.29-.39,1.43,1.43,0,0,1-.11-.58v-3.49h-.73v-.91h.73V184h1.18v1.84h1.22v.91h-1.22v3.12a.56.56,0,0,0,.19.43.61.61,0,0,0,.41.13,1.26,1.26,0,0,0,.47-.08,3.24,3.24,0,0,0,.33-.14Z"/><path class="cls-8" d="M808.33,186.1v5.34h-1.19v-7.59h.94l4.33,5.47v-5.46h1.21v7.58h-1Z"/><path class="cls-8" d="M817.62,191.54a2.77,2.77,0,0,1-2.1-.86,2.59,2.59,0,0,1-.57-.93,3,3,0,0,1-.21-1.1,3,3,0,0,1,.21-1.11,2.53,2.53,0,0,1,.58-.92,2.85,2.85,0,0,1,.91-.63,2.79,2.79,0,0,1,1.18-.23,2.86,2.86,0,0,1,1.18.23,2.91,2.91,0,0,1,.9.63,2.69,2.69,0,0,1,.59.92,3.25,3.25,0,0,1,.2,1.11,3.15,3.15,0,0,1-.2,1.1,2.64,2.64,0,0,1-.59.93,2.91,2.91,0,0,1-.9.63A2.86,2.86,0,0,1,817.62,191.54ZM816,188.66a2,2,0,0,0,.13.75,1.74,1.74,0,0,0,.35.59,1.61,1.61,0,0,0,.53.4,1.6,1.6,0,0,0,1.31,0,1.61,1.61,0,0,0,.53-.4,1.79,1.79,0,0,0,.35-.6,2.2,2.2,0,0,0,0-1.49,1.94,1.94,0,0,0-.35-.61,1.61,1.61,0,0,0-.53-.4,1.58,1.58,0,0,0-.65-.14,1.44,1.44,0,0,0-.65.15,1.73,1.73,0,0,0-.53.4,2.18,2.18,0,0,0-.36.61A2,2,0,0,0,816,188.66Z"/><path class="cls-8" d="M822.9,191.44l-2.13-5.59H822l1.61,4.59,1.61-4.59h1.11l-2.14,5.59Z"/><path class="cls-8" d="M860.44,191.44v-7.59h2.69a4,4,0,0,1,1.61.3,3.31,3.31,0,0,1,1.15.82,3.42,3.42,0,0,1,.7,1.2,4.7,4.7,0,0,1,.23,1.46,4.57,4.57,0,0,1-.26,1.57,3.42,3.42,0,0,1-.74,1.2,3.25,3.25,0,0,1-1.17.76,3.88,3.88,0,0,1-1.52.28Zm5.17-3.81a3.57,3.57,0,0,0-.17-1.1,2.35,2.35,0,0,0-1.27-1.42,2.61,2.61,0,0,0-1-.2h-1.5v5.47h1.5a2.54,2.54,0,0,0,1.06-.21,2.25,2.25,0,0,0,.78-.57,2.58,2.58,0,0,0,.48-.88A3.72,3.72,0,0,0,865.61,187.63Z"/><path class="cls-8" d="M870.46,191.54a2.86,2.86,0,0,1-1.18-.23,2.74,2.74,0,0,1-1.5-1.54,3,3,0,0,1-.21-1.11,3.05,3.05,0,0,1,.21-1.12,2.78,2.78,0,0,1,1.5-1.56,3,3,0,0,1,1.19-.22,2.82,2.82,0,0,1,2.09.85,2.69,2.69,0,0,1,.57.91,3.1,3.1,0,0,1,.2,1.09c0,.08,0,.16,0,.24a1.41,1.41,0,0,0,0,.18h-4.48a1.85,1.85,0,0,0,.18.68,1.63,1.63,0,0,0,.89.85,1.63,1.63,0,0,0,.62.12,1.82,1.82,0,0,0,.46-.06,1.76,1.76,0,0,0,.42-.17,1.91,1.91,0,0,0,.35-.27,1.51,1.51,0,0,0,.23-.35l1,.28a2.29,2.29,0,0,1-1,1A3,3,0,0,1,870.46,191.54Zm1.7-3.32a2,2,0,0,0-.17-.65,1.76,1.76,0,0,0-.37-.51,1.67,1.67,0,0,0-.53-.32,1.61,1.61,0,0,0-.63-.12,1.73,1.73,0,0,0-1.14.44,1.57,1.57,0,0,0-.36.51,2,2,0,0,0-.17.65Z"/><path class="cls-8" d="M873.92,188.64a3,3,0,0,1,.21-1.11,2.66,2.66,0,0,1,.58-.92,3,3,0,0,1,.91-.63,3.09,3.09,0,0,1,1.2-.22,2.84,2.84,0,0,1,1.49.37,2.38,2.38,0,0,1,.93,1l-1.14.37a1.43,1.43,0,0,0-.54-.55,1.51,1.51,0,0,0-.76-.2,1.59,1.59,0,0,0-.66.14,1.55,1.55,0,0,0-.53.39,1.92,1.92,0,0,0-.35.59,2.06,2.06,0,0,0-.13.76,2.27,2.27,0,0,0,.13.75,2.07,2.07,0,0,0,.37.61,1.73,1.73,0,0,0,.53.4,1.62,1.62,0,0,0,.65.14,1.65,1.65,0,0,0,.43-.06,1.68,1.68,0,0,0,.39-.16,2.6,2.6,0,0,0,.31-.25,1,1,0,0,0,.19-.3l1.16.34a2.3,2.3,0,0,1-.93,1,3.18,3.18,0,0,1-2.73.17,2.86,2.86,0,0,1-1.5-1.56A3,3,0,0,1,873.92,188.64Z"/><polygon class="cls-7" points="366.54 243.05 257.49 243.05 265.46 232.8 257.49 222.54 366.54 222.54 376.9 232.8 366.54 243.05"/><polygon class="cls-16" points="594.34 299.05 506.57 299.05 514.54 289.37 506.57 278.53 594.34 278.53 604.71 288.79 594.34 299.05"/><polygon class="cls-17" points="709.58 360.67 681.41 360.67 689.38 350.41 681.41 340.15 709.58 340.15 719.95 350.41 709.58 360.67"/><polygon class="cls-17" points="839.3 417.66 797.04 417.66 805.01 407.4 797.04 397.14 839.3 397.14 849.66 407.4 839.3 417.66"/><polygon class="cls-18" points="796.77 389.27 725.52 389.27 735.09 379.01 725.52 368.76 796.77 368.76 807.14 379.01 796.77 389.27"/><polygon class="cls-7" points="470.94 275.18 375.61 275.18 383.58 265.29 375.61 254.67 470.94 254.67 481.31 264.93 470.94 275.18"/><polygon class="cls-18" points="681.62 332.17 635.36 332.17 643.34 321.92 635.36 311.66 681.62 311.66 691.98 321.92 681.62 332.17"/><path class="cls-10" d="M437,310.18H400.33V265.06h45.12v36.61C445.45,305.33,437,310.18,437,310.18Z"/><path class="cls-19" d="M445.45,301.66c0,3.56-8,8.21-8.45,8.5,1.32-.9,1.09-8,1.09-8S445.32,301.26,445.45,301.66Z"/><path class="cls-8" d="M407,275.72c5.31-.43,10.61-.54,15.92-.56s10.61.12,15.92.56c-5.31.44-10.61.54-15.92.56S412.28,276.16,407,275.72Z"/><path class="cls-8" d="M407,281.67a140.35,140.35,0,0,1,25,0,124.86,124.86,0,0,1-12.52.56C415.32,282.21,411.15,282.1,407,281.67Z"/><path class="cls-8" d="M407,287.62a140.35,140.35,0,0,1,25,0,124.86,124.86,0,0,1-12.52.56C415.32,288.16,411.15,288.05,407,287.62Z"/><path class="cls-4" d="M835.1,463.87H798.44V418.74h45.13v36.62C843.57,459,835.1,463.87,835.1,463.87Z"/><path class="cls-11" d="M843.56,455.35c0,3.56-8,8.21-8.45,8.5,1.32-.9,1.1-8,1.1-8S843.43,455,843.56,455.35Z"/><path class="cls-8" d="M805.09,429.41c5.3-.44,10.61-.54,15.92-.56s10.61.12,15.92.56c-5.31.44-10.62.54-15.92.56S810.39,429.84,805.09,429.41Z"/><path class="cls-8" d="M805.09,435.36a140.24,140.24,0,0,1,25,0,124.72,124.72,0,0,1-12.52.56C813.44,435.89,809.26,435.79,805.09,435.36Z"/><path class="cls-8" d="M805.09,441.31a140.24,140.24,0,0,1,25,0c-4.17.43-8.34.54-12.52.56S809.26,441.74,805.09,441.31Z"/><rect class="cls-10" x="519.37" y="292.31" width="45.13" height="45.13"/><path class="cls-8" d="M526,303c5.3-.44,10.61-.54,15.92-.56s10.61.12,15.92.56c-5.31.44-10.62.54-15.92.56S531.32,303.41,526,303Z"/><path class="cls-8" d="M526,308.93a140.35,140.35,0,0,1,25.05,0c-4.18.43-8.35.54-12.53.56S530.19,309.36,526,308.93Z"/><path class="cls-8" d="M526,314.88a140.35,140.35,0,0,1,25.05,0c-4.18.43-8.35.53-12.53.55S530.19,315.31,526,314.88Z"/><polygon class="cls-9" points="0 581.15 288.11 580.82 576.22 580.65 864.33 580.82 1152.44 581.15 864.33 581.48 576.22 581.65 288.11 581.48 0 581.15"/><g class="cls-20"><path class="cls-21" d="M269.6,591.63,245.68,719.36s-13.68,7.91-20.62,4.78l4.87-130Z"/><path class="cls-21" d="M193.1,589.12c-.51,1.29-3.59,22.67-3,30.58s14.26,113.68,14.26,113.68l21.15.5,12.3-142.36Z"/><path class="cls-22" d="M237,600.06a7.67,7.67,0,0,0-.22,1.24c-.11.89-.26,2.07-.46,3.56-.36,3.19-.88,7.65-1.51,13.13-1.22,11.09-2.76,26.42-4.24,43.38s-2.59,32.34-3.31,43.47c-.32,5.51-.58,10-.77,13.19-.07,1.5-.12,2.7-.16,3.59a6.74,6.74,0,0,0,0,1.26,7.42,7.42,0,0,0,.16-1.25c.08-.89.18-2.08.31-3.58.25-3.19.6-7.67,1-13.17.86-11.12,2.07-26.48,3.54-43.44s2.93-32.29,4-43.39c.53-5.49.95-10,1.26-13.15.13-1.5.23-2.69.31-3.58A7,7,0,0,0,237,600.06Z"/><path class="cls-9" d="M204.64,240.9l73.61.76c-.89,22.84-3,42.42,4.7,61.9,1.95,5,4.51,9.68,5.94,14.81s1.56,10.92-1.16,15.5l-14.93-4.26c0-1.55.07-3.09.11-4.64a6.82,6.82,0,0,1-4.06,4.55c-2.51,1-5.34.87-8,.64a228.23,228.23,0,0,1-46.27-8.84c-2-.6-11.5.24-11.5.24C197.57,298.06,199.42,264.45,204.64,240.9Z"/><path class="cls-21" d="M346.92,361.9s1.16-3.42,3.46-4.5,12.22-.15,14.32,0,8.95-2.06,11.89.58a2.05,2.05,0,0,1-1.69,2.55c-3.67.53-10.48,1.59-10.2,2.09.38.69,11.84-.15,14.17.78l17.1.5s2.86,2.93,0,3.88l-.12,2.27a7.94,7.94,0,0,1-3,1.18c-2.28.54,0,2-2.95,2.52a26.59,26.59,0,0,1-6,.21l-.35,1.32a9.76,9.76,0,0,1-3,.77c-2.4.41-29-1.55-29-1.55L337.77,378l-1.24-13.48Z"/><path class="cls-22" d="M352.43,361.53c-.07.24,3.2.72,6.48,2.82a12.54,12.54,0,0,1,3.52,3.43,17.64,17.64,0,0,0,1.1,1.77,4.11,4.11,0,0,0-.69-2,10.8,10.8,0,0,0-3.55-3.75,15.17,15.17,0,0,0-4.75-2A5,5,0,0,0,352.43,361.53Z"/><path class="cls-22" d="M372.31,371.93c0,.19,2.65.51,5.94.72,1.65.13,3.16,0,4.05.49s1.16,1.11,1.25,1.06,0-.85-1-1.49-2.62-.61-4.24-.75C375,371.75,372.33,371.74,372.31,371.93Z"/><path class="cls-22" d="M373.36,368.19a11.12,11.12,0,0,0,2.73.73,32.63,32.63,0,0,0,6.8.67,17.52,17.52,0,0,1,6.59.65,4.15,4.15,0,0,1,1.68,1c.29.33.24.62.3.63s.2-.31-.08-.79a4,4,0,0,0-1.71-1.27,9.93,9.93,0,0,0-3-.79,32.94,32.94,0,0,0-3.77-.1,46.48,46.48,0,0,1-6.71-.46A13.31,13.31,0,0,0,373.36,368.19Z"/><path class="cls-22" d="M375.91,365.4a12.44,12.44,0,0,0,2.95.4c1.83.16,4.37.33,7.18.48,1.4.1,2.74,0,3.94.1a18.82,18.82,0,0,1,3.14.37,5.4,5.4,0,0,1,2,.71c.38.3.48.58.53.55s0-.34-.36-.75a4.53,4.53,0,0,0-2-1,15.43,15.43,0,0,0-3.23-.53c-1.22-.11-2.56-.06-4-.16-2.79-.15-5.32-.24-7.15-.28A13.52,13.52,0,0,0,375.91,365.4Z"/><polygon class="cls-21" points="253.59 301.24 265.75 317.89 262.45 324.31 247.05 324.63 231.45 321.2 222.86 317.59 218 302.83 220.36 291.51 226.48 292.09 253.59 301.24"/><path class="cls-8" d="M267.2,316.67s.77,5.23-8.64,5-33.3-7.28-33.3-7.28l-21.59,33.71L213.16,443l77.89,12.93L288,385s5.89-3.58,7.12-15.5a49.91,49.91,0,0,0-1.9-20.48Z"/><path class="cls-9" d="M189.69,423.33S173.23,459.57,177.31,486s14.31,109.6,14.31,109.6l76.32,4.09s21.56-104.57,22.33-124.21,2.86-33.86,2.86-33.86Z"/><path class="cls-10" d="M234.69,487.23c-.22,0,1.59,18.7,4.06,41.71s4.65,41.66,4.87,41.64-1.59-18.7-4.06-41.72S234.91,487.2,234.69,487.23Z"/><path class="cls-9" d="M239.69,407.85c.06,0,.09-.33.3-.87a3.71,3.71,0,0,1,1.48-1.82,3.46,3.46,0,1,1,3,6.17,3.53,3.53,0,0,1-3.26-.61,3.84,3.84,0,0,1-1.28-2c-.14-.55-.14-.89-.2-.89a1.71,1.71,0,0,0-.06.95,3.7,3.7,0,0,0,1.23,2.29,4,4,0,0,0,3.76.85,4,4,0,0,0,.41-7.63,4,4,0,0,0-3.84.44,3.82,3.82,0,0,0-1.46,2.15A1.76,1.76,0,0,0,239.69,407.85Z"/><path class="cls-13" d="M258.45,298.14s17.8,4.05,20,5.29,10.63,11.83,13.06,19,4,24.44,4,24.44S302,357.35,301.92,359l-.24,4.5s4.9,8.42,4.86,9.27l-.05.84,34.36-15.3,9.37,17.84s-27.71,24.09-42.72,32.17a8.46,8.46,0,0,1-11.1-2.87h0l3.67,72.33-17.56,4.75,2.65-86.31.61-11.36s12.17-11.27,3.31-27.95c-3.07-5.79-12.08-21.49-17-29.35s-17.43-24.91-17.43-24.91l.4-8.75Z"/><path class="cls-9" d="M299.74,397.62c.11,0-.06-1.47-.06-3.81a40.48,40.48,0,0,1,1-9.05c.82-3.47,2-6.54,3.37-8.38a13,13,0,0,1,2.71-2.57,2.3,2.3,0,0,0-1,.4,8,8,0,0,0-2.14,1.87c-1.57,1.86-2.82,5-3.65,8.52a33.41,33.41,0,0,0-.83,9.22A13.08,13.08,0,0,0,299.74,397.62Z"/><path class="cls-9" d="M291.82,377.7a4.62,4.62,0,0,0,.57-.73,14.49,14.49,0,0,0,1.22-2.34A19.8,19.8,0,0,0,294.8,365c-.39-4.13-2-8.79-4-13.79s-4-10.59-6.66-16.26a53.16,53.16,0,0,0-4.55-7.93,80,80,0,0,0-5.42-6.55c-3.72-3.93-5.9-8.28-8.09-11.74s-4.09-6.16-5.48-8c-.69-.91-1.25-1.6-1.63-2.06a4.29,4.29,0,0,0-.62-.68,5.78,5.78,0,0,0,.51.76l1.53,2.14c1.31,1.86,3.18,4.58,5.28,8.08s4.3,7.92,8,11.9c1.76,2.05,3.67,4.13,5.35,6.52a53,53,0,0,1,4.47,7.83c2.61,5.63,4.64,11.22,6.7,16.21s3.7,9.56,4.14,13.6a20.09,20.09,0,0,1-.95,9.44A23.64,23.64,0,0,1,291.82,377.7Z"/><path class="cls-9" d="M297.48,415.69a5.88,5.88,0,0,0-.08-1.5c-.1-1-.28-2.35-.52-4.06-.54-3.57-1.25-8.2-2-13.32a89.44,89.44,0,0,1-1.07-13.39c0-3.43.3-5.55.18-5.57a6.19,6.19,0,0,0-.3,1.48c-.08.47-.15,1.06-.21,1.75s-.13,1.46-.16,2.33a74.1,74.1,0,0,0,.87,13.49c.75,5.23,1.65,9.91,2.24,13.31.29,1.58.53,2.92.73,4A6.6,6.6,0,0,0,297.48,415.69Z"/><g class="cls-23"><path d="M306.49,373.64a10.74,10.74,0,0,0-7,5.38,26.93,26.93,0,0,0-2.91,8.93c-.33,1.86-.56,3.89.37,5.53.44.79,1.59,1.43,2.18.74a1.76,1.76,0,0,0,.29-.72c.86-3.66,1.24-7.44,2.25-11.06s1.92-6.52,4.93-8.78"/></g><path class="cls-13" d="M221.86,288.88l-9,1-4.41,4.81s-25.37,5-28.53,8.66,12.47,53.71,12.47,53.71l7.29,40.37s-18.39,39-20.58,58.45L247,479.16s5.69-67.32,4.27-79.56-8-43.73-13-57.05-17.61-42.17-17.56-43.06S221.86,288.88,221.86,288.88Z"/><g class="cls-23"><path d="M198.55,401.48a4.93,4.93,0,0,1,2.34-1.78c6.81-3.1,14.61-3.1,21.76-5.29,6.8-2.07,13.57-6.16,20.51-4.61,2.71.6,4.07.67,6.78,1.32l.38,2.26c-4.37,2-11.57-.49-15.73,1.95a40,40,0,0,0-3.88,3.16,22.81,22.81,0,0,1-5.45,2.79q-5.79,2.31-11.66,4.38c-3.71,1.32-7.73,2.57-11.51,1.46a5.91,5.91,0,0,1-3.19-2A3.39,3.39,0,0,1,198.55,401.48Z"/></g><path class="cls-13" d="M189.28,299.61c1,.46,10.9,21.92,12.9,32.57s-12,41.76-12,41.76l38-.49,2.67,18.87S195.3,403,183.61,405.21s-23.31,3.38-26.4-1.42a24.68,24.68,0,0,1-3.59-9.7l7.23-38.94,6.2-24.6s1.11-11,4-17.27S185.51,297.87,189.28,299.61Z"/><path class="cls-9" d="M209.32,295.3a5,5,0,0,0,0,1c0,.64,0,1.59.11,2.81a91.66,91.66,0,0,0,1.17,10.31,99.68,99.68,0,0,0,3.75,14.92c.92,2.75,2,5.6,3.28,8.48a15.3,15.3,0,0,0,1.07,2.2,3.72,3.72,0,0,0,2.18,1.39l4.72,1.46,1.53.48-.09-.62-5.83,3.81-.29.19.2.29,16,23.39,4.79,6.86,1.31,1.82c.3.42.47.63.49.61a4.12,4.12,0,0,0-.39-.68c-.31-.48-.71-1.11-1.22-1.89l-4.61-7-15.85-23.52-.1.47,5.84-3.8.62-.41-.71-.21-1.53-.48-4.71-1.46a3,3,0,0,1-1.83-1.12,16.07,16.07,0,0,1-1-2.08c-1.27-2.86-2.36-5.69-3.3-8.41a105.27,105.27,0,0,1-3.87-14.81c-.79-4.29-1.17-7.8-1.39-10.24-.09-1.16-.17-2.09-.23-2.8A6,6,0,0,0,209.32,295.3Z"/><path class="cls-9" d="M187.49,300a11.49,11.49,0,0,1,2.87.63,13.33,13.33,0,0,1,6,5.17,27.77,27.77,0,0,1,2.62,4.9,43.53,43.53,0,0,1,2.1,6,47.61,47.61,0,0,1,1.7,14.5c-.16,5.21-1.89,10-3,14.35s-2.33,8.3-3.32,11.58-1.87,5.92-2.53,7.72c-.35.89-.6,1.59-.81,2.05a3.15,3.15,0,0,0-.27.72,2.7,2.7,0,0,0,.4-.66c.25-.44.54-1.13.93-2,.74-1.78,1.68-4.4,2.74-7.67s2.24-7.19,3.47-11.56c.6-2.19,1.23-4.49,1.89-6.87a35.46,35.46,0,0,0,1.18-7.62,47.19,47.19,0,0,0-1.78-14.7,41.86,41.86,0,0,0-2.19-6.1,27.19,27.19,0,0,0-2.74-4.95,13.29,13.29,0,0,0-6.27-5.15,8,8,0,0,0-2.2-.42A2.85,2.85,0,0,0,187.49,300Z"/><path class="cls-9" d="M197.54,401.84a4.12,4.12,0,0,0,.65-.13l1.85-.48,6.9-1.87,24-6.73.27-.08,0-.28c-.87-5.76-1.83-12.07-2.82-18.66l0-.26,0-.29H228c-14.72-.5-28.05-.15-37.67.45-4.81.28-8.69.6-11.37.85l-3.08.32a6.22,6.22,0,0,0-1.07.16,6.29,6.29,0,0,0,1.08,0l3.09-.19c2.69-.17,6.57-.41,11.38-.64,9.61-.47,22.92-.74,37.61-.24l-.32-.29,0,.26c1,6.59,2,12.9,2.86,18.66l.23-.36-23.91,7L200,401l-1.82.57A3.15,3.15,0,0,0,197.54,401.84Z"/><path class="cls-9" d="M175.91,371.13c0,.2,3.38.6,7.49,1.42s7.42,1.72,7.48,1.53-3.17-1.39-7.34-2.21S175.92,371,175.91,371.13Z"/><path class="cls-9" d="M237.11,442.24c.06,0,.09-.32.3-.86a3.73,3.73,0,0,1,1.48-1.83,3.5,3.5,0,0,1,3.3-.26,3.44,3.44,0,0,1-.34,6.44,3.52,3.52,0,0,1-3.26-.62,3.7,3.7,0,0,1-1.28-2,5.49,5.49,0,0,0-.2-.9,1.71,1.71,0,0,0-.06.95,3.7,3.7,0,0,0,1.22,2.29,4,4,0,0,0,3.76.85,4,4,0,0,0,.41-7.62,4,4,0,0,0-3.83.44,3.66,3.66,0,0,0-1.46,2.15A1.61,1.61,0,0,0,237.11,442.24Z"/><g class="cls-23"><path d="M243.48,374.13c-9.44-4.55-16.17-13.81-21.37-22.9-1.13-2-2.23-4-3.34-5.94a7.75,7.75,0,0,1-1.25-3.51,2.64,2.64,0,0,1,2-2.76,3.75,3.75,0,0,1-4.05-1.84,11,11,0,0,1-1.25-4.59c-.47-3.86-1.1-9.53-1.56-13.39.91,2.81,3,7.51,3.87,10.32.65,2,1.24,4.29,2.75,5.73,2.4,2.31,5,1.69,7.88,2.76-1.94.43-4.31,2.53-5.83,3.81,6.79,10.81,22.11,32.31,22.11,32.31"/></g><path class="cls-10" d="M286.41,348.2s-54.6,58.26-55.53,58.16c-1.95-.21,40.6,43.37,40.6,43.37l55.39-63.17Z"/><path class="cls-21" d="M241.73,376l22-8.66,14.83,2.31,6.53,8.68s-.13,2.45-1.62,2a9.61,9.61,0,0,1-3.1-2.06l-.53,6.22s-2.4,2.52-3.77-.2l-1.76,4.64s-1.81,2-3-.17l-2.56,5.36a4.11,4.11,0,0,1-2.54-2,4.21,4.21,0,0,1-.23-2.85s-7.43.92-10.5,1.7-18-.39-18-.39L231.19,392l-2.56-16.36Z"/><path class="cls-22" d="M266.83,369.8a9,9,0,0,1,2.67.18c.8.2,1.74.56,2.8.94s2.21.8,3.38,1.31a19.77,19.77,0,0,1,3.15,1.71,1.73,1.73,0,0,1,.82,1.08c.11.44.17.92.24,1.33.28,1.67.32,2.71.41,2.72a6.86,6.86,0,0,0,.08-2.78c-.05-.43-.07-.88-.18-1.41a2.35,2.35,0,0,0-1-1.46A17.63,17.63,0,0,0,276,371.6c-1.2-.53-2.38-.93-3.45-1.29a23.93,23.93,0,0,0-2.91-.81C267.84,369.17,266.77,369.73,266.83,369.8Z"/><path class="cls-22" d="M265.36,374.06a6.46,6.46,0,0,0,2.36,1.16c1.53.57,3.72,1,6,1.85a3.94,3.94,0,0,1,1.44.71,5.29,5.29,0,0,1,.68,1.39,5.6,5.6,0,0,1,.55,2.61,16.67,16.67,0,0,1-.36,1.84c-.08.45-.07.71,0,.72s.12-.23.28-.65a9.64,9.64,0,0,0,.59-1.85,5.79,5.79,0,0,0-.44-2.9,5.54,5.54,0,0,0-.77-1.6,4.26,4.26,0,0,0-1.72-.92c-2.36-.83-4.55-1.22-6.08-1.66A20.34,20.34,0,0,0,265.36,374.06Z"/><path class="cls-22" d="M271.13,389.11c.06,0,.61-.45,1.2-1.55a3.57,3.57,0,0,0,.37-2.19,2.9,2.9,0,0,0-1.8-2.09,7.4,7.4,0,0,0-2.62-.46l-2.09,0a8.69,8.69,0,0,0-1.43.05c-.37.08-.49.3-.45.32s.18-.07.48,0,.79.11,1.38.16l2.07.2a7.27,7.27,0,0,1,2.38.45,2.37,2.37,0,0,1,1.46,1.58,3.34,3.34,0,0,1-.2,1.88C271.45,388.42,271,389.06,271.13,389.11Z"/><path class="cls-9" d="M206.88,229.24c3.28-11.2,6.64-22.86,16.41-29.24,8.7-5.69,18.14-6.67,28.45-5.35,5.08.66,10.63,3.51,14.85,6.4,5.79,4,7.77,11.18,10.16,17.78,4.78,13.22,2.55,30.37-1.85,34.82l-55.55,23.47c-9-5.71-15.08-8.53-16.68-19.05C201.59,250.9,204.85,236.19,206.88,229.24Z"/><path class="cls-21" d="M223.53,210.59l34.29-7c10.91-.64,17.5,13.06,17.68,24,.19,12.13,0,27-1.9,35.92-3.73,18-17.76,19.68-17.76,19.68s-.05.27-.41,5.66L254.88,301c-5.26,14.49-20.08,11.92-38.31,3.27l1-87.47A6.39,6.39,0,0,1,223.53,210.59Z"/><path class="cls-9" d="M269.83,241.58a2.32,2.32,0,0,1-2.35,2.25,2.22,2.22,0,0,1-2.3-2.21,2.33,2.33,0,0,1,2.35-2.25A2.22,2.22,0,0,1,269.83,241.58Z"/><path class="cls-9" d="M271.83,237c-.31.29-2-1.1-4.52-1.21s-4.4,1.05-4.65.73c-.13-.14.19-.67,1-1.22a6.39,6.39,0,0,1,3.74-1,6.12,6.12,0,0,1,3.58,1.34C271.74,236.33,272,236.9,271.83,237Z"/><path class="cls-9" d="M247.18,240.37a2.32,2.32,0,0,1-2.35,2.24,2.23,2.23,0,0,1-2.3-2.21,2.33,2.33,0,0,1,2.35-2.24A2.22,2.22,0,0,1,247.18,240.37Z"/><path class="cls-9" d="M247.4,235.21c-.3.29-2-1.1-4.51-1.21s-4.4,1.06-4.66.74c-.13-.14.19-.68,1-1.22a6.37,6.37,0,0,1,3.75-1,6.15,6.15,0,0,1,3.57,1.34C247.31,234.52,247.55,235.08,247.4,235.21Z"/><path class="cls-9" d="M255.5,253.47c0-.14,1.56-.34,4.1-.54.65,0,1.26-.14,1.39-.57a3.34,3.34,0,0,0-.34-1.92c-.53-1.57-1.08-3.22-1.67-5-2.3-7.06-3.93-12.85-3.65-12.94s2.38,5.56,4.69,12.62q.83,2.61,1.58,5a3.63,3.63,0,0,1,.21,2.52,1.6,1.6,0,0,1-1.09.89,5,5,0,0,1-1.09.1C257.08,253.68,255.5,253.61,255.5,253.47Z"/><path class="cls-22" d="M255.84,283.2a46.21,46.21,0,0,1-24-7.62s5.42,13,23.67,12.14Z"/><path class="cls-22" d="M248.92,259a3.32,3.32,0,0,1,2.84-1.38,4.32,4.32,0,0,1,3.86,2.15,2.66,2.66,0,0,1,.09,1.95c-.16.32,0,.17-.31.38-1,.78-1.61,2-2.82,2.22a4.2,4.2,0,0,1-3.76-1.86A3.33,3.33,0,0,1,248.92,259Z"/><path class="cls-9" d="M248.9,227.38c-.24.69-2.74.39-5.68.78s-5.31,1.21-5.71.6c-.18-.29.23-.93,1.18-1.6a10,10,0,0,1,8.68-1.06C248.46,226.53,249,227.06,248.9,227.38Z"/><path class="cls-9" d="M272.13,231.53c-.61.44-2.35-.58-4.61-1.13s-4.26-.6-4.56-1.29c-.13-.32.3-.81,1.26-1.14a7.11,7.11,0,0,1,4,0,7,7,0,0,1,3.42,2C272.28,230.67,272.41,231.31,272.13,231.53Z"/><path class="cls-9" d="M258.29,201.54a40.32,40.32,0,0,1-4.7,21.34,14.78,14.78,0,0,1-3.75,4.85,6.62,6.62,0,0,1-5.8,1.35,24.58,24.58,0,0,0,6.13-13.64c-2.58,5-5.22,10-9.22,13.94S231.32,236,225.8,235l.68-3.69a12.84,12.84,0,0,1-5,6.56c-2.4,1.44-5.78,1.5-7.79-.45,2.61-8.91-2.13-19.21,2.05-27.5,2.9-5.75,9.35-8.8,15.62-10.23a51.27,51.27,0,0,1,26.81,1.11"/><path class="cls-9" d="M257.52,201.62c0,.13,0,.27.05.4l-.06,0C257.51,201.9,257.52,201.76,257.52,201.62Z"/><path class="cls-9" d="M257.57,202l1.14-.36c3.56-1.49,6-3.31,10.89,1.82a33,33,0,0,1,6.46,10.85c1.36,3.61,2.84,7.53,3.12,11.37a48.43,48.43,0,0,1-.75,13.93c-2.9-2.29-4.18-6.06-4.88-9.69s-1-7.4-2.51-10.77a27.94,27.94,0,0,1-.19,9.22,3.81,3.81,0,0,1-1.18,2.19,1.6,1.6,0,0,1-2.25-.18,19.81,19.81,0,0,0,.86-10.9A56.33,56.33,0,0,0,265,208.94a54.34,54.34,0,0,1-2.19,18.37,4.71,4.71,0,0,1-1.23,2.32,4.3,4.3,0,0,1-3.81.47,9.17,9.17,0,0,0-3.93-.49A52.14,52.14,0,0,0,257.57,202Z"/><path class="cls-9" d="M237.23,306.27c-2.86-4.88-6.28-9.85-6.4-15.51-.11-4.79,2.21-9.39,2.07-14.18-.15-5.08-3-9.66-4-14.66-2.22-12.12,7.33-24.37,4.24-36.29l-15.89.83L205.76,288.1a74.63,74.63,0,0,0,7.91,38.64l1.5-1.29c-.95-2.91-1.76-5.87-2.44-8.86a37.72,37.72,0,0,0,11.73,13c5.29-2,10.81-3.73,16.17-7.28C242.56,317,240.1,311.16,237.23,306.27Z"/><path class="cls-9" d="M257.08,262.62c-.06-.46-2.79-.35-5.57-1.91s-4.22-3.83-4.64-3.63c-.19.09-.1.84.5,1.88a9,9,0,0,0,7.86,4.27C256.43,263.16,257.11,262.83,257.08,262.62Z"/></g><polygon class="cls-1" points="930.36 518.15 916.86 580.77 933.32 580.77 931.5 524.75 930.36 518.15"/><path class="cls-9" d="M930.36,518.15,910.13,400.67,893.07,402l-7,21.78s-18.6,120.57-20.65,141.16c-.31,3.14-.4,8.7-.32,15.86h51.72Z"/><path class="cls-9" d="M989.89,449.11s-2.66-22-7-31.19S969.67,399,969.67,399l-59.75.41.21,1.23,20.23,117.48,1.14,6.61,1.82,56h53.57c3-29.31,8.23-80.75,9.63-90.71C998.5,476,989.89,449.11,989.89,449.11Z"/><path class="cls-10" d="M953.18,436.57a4.61,4.61,0,0,0,.25-1.46c.11-.95.19-2.33.22-4A117.17,117.17,0,0,0,953,417.8c-.55-5-1.05-9.56-1.45-13.18a44.82,44.82,0,0,0-.66-5.46,27.58,27.58,0,0,0,0,5.51c.19,3.4.67,8.07,1.19,13.22s.86,9.81.94,13.19S953,436.56,953.18,436.57Z"/><path class="cls-10" d="M946.66,414.35c.22.06,1.27-3.24,1.86-7.45s.48-7.67.25-7.67-.53,3.39-1.12,7.55S946.42,414.29,946.66,414.35Z"/><path class="cls-10" d="M923.56,406.77c.16.05.11-1.18,1.41-2.07a2.67,2.67,0,0,1,2.47-.23,2.56,2.56,0,0,1-.12,4.78,2.64,2.64,0,0,1-2.46-.35c-1.24-.95-1.14-2.18-1.3-2.13s-.14.26-.09.76a3,3,0,0,0,1,1.85,3.23,3.23,0,0,0,3.1.63,3.33,3.33,0,0,0,.15-6.29,3.22,3.22,0,0,0-3.12.48,3,3,0,0,0-1.1,1.8C923.43,406.5,923.51,406.77,923.56,406.77Z"/><path class="cls-9" d="M993.94,312.12a5.33,5.33,0,0,0-.07,1c0,.7,0,1.62,0,2.77,0,.61,0,1.28,0,2s-.11,1.52-.17,2.37c-.14,1.7-.21,3.64-.55,5.77-.14,1.07-.28,2.18-.43,3.34s-.42,2.36-.63,3.6c-.4,2.49-1,5.12-1.61,7.9-1.29,5.54-2.89,11.58-4.62,17.91s-3.28,12.41-4.49,18c-.54,2.8-1.12,5.45-1.45,8-.19,1.25-.4,2.46-.54,3.63s-.22,2.29-.33,3.37c-.26,2.14-.26,4.1-.33,5.81,0,.85-.06,1.65-.06,2.38s.06,1.4.09,2c.06,1.15.11,2.07.15,2.77a6.07,6.07,0,0,0,.09,1,4.52,4.52,0,0,0,.05-1c0-.7,0-1.62,0-2.77,0-.6,0-1.27,0-2s.08-1.53.12-2.38c.1-1.7.13-3.65.42-5.78.12-1.06.25-2.18.38-3.34s.37-2.37.57-3.61c.36-2.5,1-5.14,1.51-7.92,1.24-5.55,2.81-11.6,4.53-17.94S989.76,346.54,991,341c.58-2.79,1.17-5.43,1.55-7.94.2-1.25.44-2.46.59-3.62s.27-2.29.4-3.37c.3-2.13.34-4.09.45-5.8,0-.85.1-1.65.11-2.38s0-1.4,0-2c0-1.15-.06-2.07-.08-2.77A5.2,5.2,0,0,0,993.94,312.12Z"/><path class="cls-24" d="M861.71,358.2l-13.6-48.39-16.74,3s4,4.57,4,8.77,2.78,43.81,2.78,43.81,16.65,4.88,23.38-6.39"/><path class="cls-24" d="M848.11,309.81s1.87-5.05.39-9.42-6.5-7.75-6.18-10.37-2.36-8.91-4.76-8.42-4.17,2.87-2.14,6.91a51.75,51.75,0,0,1,3.2,8.21s-25-13-27-13.31-4.08-.57-4.61,1.06,4.46,3.72,4.46,3.72l6.71,8.74a38.24,38.24,0,0,0,4.67,9.4c2.89,3.91,8.57,6.52,8.57,6.52l7.29,8.77S849.72,317.85,848.11,309.81Z"/><path class="cls-25" d="M811.84,288.53s.23-.14.62-.33a3,3,0,0,1,1.78-.22,10.08,10.08,0,0,1,5,3.42,26.75,26.75,0,0,1,3.38,5.32A11.25,11.25,0,0,0,824,299a9.67,9.67,0,0,0-.86-2.52,21,21,0,0,0-3.3-5.57c-1.68-1.92-3.73-3.25-5.49-3.45a3,3,0,0,0-2,.47C811.93,288.26,811.81,288.51,811.84,288.53Z"/><path class="cls-25" d="M821,291.81c-.09.16,1.52,1.26,3.6,2.46s3.85,2,3.94,1.86-1.52-1.27-3.6-2.46S821.1,291.64,821,291.81Z"/><path class="cls-25" d="M834.26,297.43c.08-.16-1.89-.83-4.2,0s-3.49,2.49-3.33,2.57,1.43-1.23,3.55-1.92S834.23,297.63,834.26,297.43Z"/><path class="cls-10" d="M886.51,361c.12.72-19,26.46-25.13,31.28-15.17,11.84-26.33-4.16-25.21-17.72s40.53-77.22,40.53-77.22l12.76,30.07Z"/><polygon class="cls-8" points="986.29 290.51 951.62 282.37 948.35 276.84 913.58 277.4 905.5 286.05 882.32 297.42 901.77 379.1 967.04 382.45 986.29 290.51"/><path class="cls-10" d="M946.62,275.77l13,8.06,27.26,5.92-8.63,109.44s25.13,43.84,22.36,96.08l-71.75-3.12s3.5-54.94,4.18-77,.26-60.56.26-60.56L951,288.3Z"/><path class="cls-10" d="M911.14,283.87l2.43-7.48-9.05,9.12s-5.38,1.87-6.53,2.29c-9,3.36-21.29,9.53-21.29,9.53l15.36,97.28s-17.62,61-18.94,97.54c0,0,47.09.79,65.73,0l-5-139.68s-16.35-19.3-19.07-38.71S911.14,283.87,911.14,283.87Z"/><path class="cls-9" d="M934.66,367.83a4.53,4.53,0,0,0,.6-.59l1.65-1.78,6.06-6.72,20.5-23.08.13-.15-.05-.18c-1-3.75-2.14-7.69-3.26-11.74l-1.45-5.19-.33.45,13.6-.52.46,0-.16-.43c-3.68-9.93-6.84-18.43-9.11-24.53-1.13-3-2-5.33-2.67-7-.31-.77-.55-1.39-.74-1.87a4.13,4.13,0,0,0-.29-.62,2.85,2.85,0,0,0,.18.66c.16.49.37,1.12.64,1.9l2.49,7.1c2.21,6.12,5.28,14.66,8.87,24.62l.31-.45-13.6.48-.45,0,.12.43q.71,2.57,1.44,5.19c1.13,4.05,2.23,8,3.27,11.74l.08-.33c-8.11,9.29-15.2,17.4-20.32,23.25l-5.9,6.86-1.56,1.86A4.46,4.46,0,0,0,934.66,367.83Z"/><path class="cls-9" d="M904.6,285.15a4.07,4.07,0,0,0-.15.78c-.09.58-.2,1.33-.33,2.26-.27,2.05-.65,4.91-1.11,8.45-.9,7.27-2.14,17.34-3.57,28.87l-.06.47.47-.08,7.53-1.3-.38-.5c-.46,1-1,2.11-1.44,3.22-1,2.16-1.92,4.29-2.82,6.32l-.1.21.15.17,20.9,24.22,6.25,7.14,1.71,1.91c.4.43,3,2.37,3,2.36s-2.54-2-2.91-2.45l-1.61-2-6.09-7.28-20.72-24.39,0,.38,2.83-6.32,1.44-3.22.27-.61-.66.12-7.53,1.31.4.38c1.33-11.54,2.49-21.62,3.32-28.9.38-3.55.69-6.41.91-8.47.09-.94.16-1.69.21-2.28A3.92,3.92,0,0,0,904.6,285.15Z"/><path class="cls-9" d="M940.94,410.66c1.39-1.83,4.19-3,5.62-1.17l0,0a4.41,4.41,0,0,1,1.49,4.77,4.26,4.26,0,0,1-5.65,2.3A4.09,4.09,0,0,1,940.94,410.66Z"/><g class="cls-23"><path d="M972.1,318c-.23.75-5.11,1.49-6,3.55s-.43,4.42.17,6.57,1.4,4.31,1.25,6.54c-.27,4-3.42,7.11-6.37,9.81-8.23,7.58-18.29,15.8-26.52,23.37,7.29-9.3,16.81-18.94,24.87-27.59a11.65,11.65,0,0,0,2.94-4.28c.63-2.1,0-4.35-.62-6.46-.82-2.78-1.65-5.57-2.48-8.35-.21-.72-.67-1.93-.78-2.32a17.56,17.56,0,0,1,3.06-.37s7.26-.78,10.45-.47"/></g><path class="cls-9" d="M878,313.8a4.67,4.67,0,0,0,.08.83c.1.61.22,1.4.37,2.36.36,2.14.85,5.08,1.45,8.67,1.24,7.4,2.93,17.47,4.8,28.6s3.64,21.28,5,28.57c.68,3.65,1.25,6.6,1.66,8.64.21,1,.37,1.73.5,2.34a3.1,3.1,0,0,0,.22.8,4.29,4.29,0,0,0-.09-.83c-.09-.61-.21-1.39-.36-2.36-.36-2.13-.85-5.07-1.45-8.67-1.24-7.4-2.93-17.47-4.8-28.6s-3.64-21.27-5-28.57c-.68-3.65-1.25-6.6-1.67-8.63-.2-1-.36-1.74-.49-2.34A4,4,0,0,0,878,313.8Z"/><path class="cls-10" d="M986.35,289.64a24.29,24.29,0,0,1,12.49,9.62c5.76,8.52,15.74,91.17,15.36,96.91s-5.35,20.25-18.73,18.34-48.92-26.75-48.92-26.75l12.23-23.7,26,12.23-3.54-40.94Z"/><g class="cls-23"><path d="M907.54,406.58c.84-3.72,5.45-4.91,9.24-5.4l61.63-7.86,5.35,17.34c-.55,4-1.11,8-2.8,11.65s-4.7,6.87-8.6,7.82c-3.44.84-7-.17-10.43-1.17L916.6,415.53a18.79,18.79,0,0,1-6.42-2.81C908.33,411.27,907,408.87,907.54,406.58Z"/></g><g class="cls-23"><path d="M983.43,335.06c.74-2.93,1.86-6.25,4.68-7.36,3-1.18,6.49,1,7.82,3.94s1.05,6.33.58,9.51c-1.64,11.07-5.54,23.37-9.16,34l-12.65-4.65C976.38,358.74,980.52,346.54,983.43,335.06Z"/></g><path class="cls-10" d="M852.82,325l12.44,37.47L849.1,374.17l-13,5.23c0-.06-2.43-18.73-1.83-12.21l-2.89-38.51Z"/><path class="cls-9" d="M852.82,325a9.68,9.68,0,0,0,.29,1.66c.22,1.07.59,2.59,1.07,4.48,1,3.76,2.62,8.88,4.62,14.45s3.69,10.66,4.75,14.39c.53,1.87,1,3.38,1.22,4.43a10,10,0,0,0,.49,1.62,12.6,12.6,0,0,0-.3-1.67c-.21-1.06-.59-2.59-1.07-4.47-1-3.77-2.62-8.89-4.62-14.46s-3.69-10.66-4.75-14.39c-.52-1.86-.95-3.37-1.22-4.43A12,12,0,0,0,852.82,325Z"/><path class="cls-9" d="M856.88,381.45a11.27,11.27,0,0,0,1.55-2,55.77,55.77,0,0,0,3.14-5.2,53.49,53.49,0,0,0,2.54-5.52,10.7,10.7,0,0,0,.78-2.39,14.13,14.13,0,0,0-1.1,2.26c-.65,1.4-1.56,3.33-2.67,5.42s-2.19,3.92-3,5.24A15.22,15.22,0,0,0,856.88,381.45Z"/><path class="cls-9" d="M986.35,373.86a24.18,24.18,0,0,0,3.93-1.29,25.81,25.81,0,0,0,3.87-1.48,21.78,21.78,0,0,0-7.8,2.77Z"/><path class="cls-9" d="M982.44,320.67a3.28,3.28,0,0,0,.39-.83c.22-.55.5-1.35.82-2.35a54.71,54.71,0,0,0,1.85-8,53.74,53.74,0,0,0,.63-8.2c0-1,0-1.91-.08-2.49a2.83,2.83,0,0,0-.12-.91,32.72,32.72,0,0,0-.15,3.39,74.21,74.21,0,0,1-.77,8.14,75,75,0,0,1-1.7,8C982.76,319.41,982.37,320.65,982.44,320.67Z"/><g class="cls-23"><path d="M903,328.3l-4.56.31A8.61,8.61,0,0,1,907,325.4c-.1,2.74-3,4.88-2.78,7.61a7.17,7.17,0,0,0,2,3.86l8.44,10.44-.59,5.23c-3.47-5-7-9.56-10.44-14.51a13.32,13.32,0,0,1-2.49-4.9A4.52,4.52,0,0,1,903,328.3Z"/></g><g class="cls-23"><path d="M857.88,342.2l-1.38-4.05c2.32,7,10.19,12.29,12.77,19.15a18,18,0,0,1-2.84,17.41c-.89,1.1-2.43,2.15-3.6,1.35a2.38,2.38,0,0,1-1.12-2.61c.37-.94,3.07-6.57,3.55-7.45.36-.68-.45-2.61-1.52-6.23C861.84,353.39,859.78,348.58,857.88,342.2Z"/></g><path class="cls-2" d="M994.71,332.46,978.5,417.7a6.3,6.3,0,0,1-7.36,5l-62.26-12a6.29,6.29,0,0,1-5-7.39l17.16-86.69a6.28,6.28,0,0,1,7.5-4.92l61.32,13.44A6.29,6.29,0,0,1,994.71,332.46Z"/><circle class="cls-8" cx="950.76" cy="360.99" r="10.26"/><path class="cls-24" d="M953.19,364,948,361.39s-1.69-8.88-4.42-12-6.76-6.74-6.73-7.58-1.27-6.71-1.27-6.71-2.41-2.1-2.89,2.11a31.48,31.48,0,0,0,0,7.36l-16.21-4c-1.68-.42-3.78-.25-3.57,1.43s1.11,2.55,2.4,3.6a5.44,5.44,0,0,0,1.54.91s-2.69,2.48-2.69,4.93-2.78,8.11-.25,10.85,14.1,10.94,20.2,12,7.59,2.86,10.42,6.48Z"/><path class="cls-25" d="M931.36,344.24c-.07.13,1.85,1.26,4,2.93s3.77,3.21,3.88,3.11a14.72,14.72,0,0,0-3.58-3.51A14.39,14.39,0,0,0,931.36,344.24Z"/><path class="cls-25" d="M915.92,346a13.55,13.55,0,0,0,3.89,1.59,23.34,23.34,0,0,0,4,1.11,14.24,14.24,0,0,0-3.89-1.59A25.73,25.73,0,0,0,915.92,346Z"/><polygon class="cls-10" points="989.32 376.12 953.62 360.99 940.23 387.7 989.32 412.73 989.32 376.12"/><path class="cls-9" d="M954.3,361.82c0,.13,9.6,4.1,21.55,8.88s21.68,8.54,21.73,8.41S988,375,976,370.23,954.35,361.69,954.3,361.82Z"/><g class="cls-23"><path d="M987,374.48a68.35,68.35,0,0,1,12.68,3.82,16.78,16.78,0,0,1,4.7,2.62,6.85,6.85,0,0,1,2.53,4.62,15.51,15.51,0,0,1-3.29-2c-4.05-4.06-11-6.43-17-8.68Z"/></g><path class="cls-9" d="M935.61,493.82c-.23,0-.41-17.22-.41-38.46s.18-38.45.41-38.45.4,17.21.4,38.45S935.83,493.82,935.61,493.82Z"/><path class="cls-9" d="M890.71,224c1-8.7,2.39-17.67,7.19-25s13.84-12.53,22.3-10.33l10.61,5.19a312.05,312.05,0,0,1-9.44,70.8c-.57,2.27-1.21,4.62-2.74,6.4-3.07,3.58-8.48,3.65-13.19,3.44-5.69-.25-12.37-1.08-15.15-6.05-1.34-2.4-1.43-5.27-1.45-8A312.65,312.65,0,0,1,890.71,224Z"/><path class="cls-24" d="M947,204.72l-32.14-8.2c-10.3-1.11-17.17,11.56-17.85,21.89-.74,11.48-1.21,25.53.14,34.1C899.82,269.74,913,272,913,272a42,42,0,0,0-.09,13.13c1.65,11.75,9.48,14.25,15.75,14.25h0c9.91.34,20-3.51,20.39-13.41l3.32-75.05A6.07,6.07,0,0,0,947,204.72Z"/><path class="cls-9" d="M904.48,232.58a2.2,2.2,0,0,0,2.13,2.23,2.11,2.11,0,0,0,2.28-2,2.22,2.22,0,0,0-2.12-2.24A2.12,2.12,0,0,0,904.48,232.58Z"/><path class="cls-9" d="M901,227.11c.28.28,2-1,4.33-.94s4.12,1.21,4.38.91c.12-.12-.15-.64-.91-1.2a6.11,6.11,0,0,0-3.5-1.09,5.83,5.83,0,0,0-3.45,1.11C901.13,226.46,900.88,227,901,227.11Z"/><path class="cls-9" d="M928.15,232.58a2.19,2.19,0,0,0,2.12,2.23,2.1,2.1,0,0,0,2.28-2,2.2,2.2,0,0,0-2.12-2.24A2.11,2.11,0,0,0,928.15,232.58Z"/><path class="cls-9" d="M924.82,227.82c.28.29,1.95-.94,4.33-.93s4.12,1.2,4.38.91c.12-.13-.15-.65-.91-1.2a6.11,6.11,0,0,0-3.51-1.09,5.82,5.82,0,0,0-3.44,1.1C924.94,227.17,924.69,227.69,924.82,227.82Z"/><path class="cls-9" d="M915.72,243.83a16.22,16.22,0,0,0-3.86-.7c-.61-.07-1.19-.19-1.29-.6a3.15,3.15,0,0,1,.41-1.8q.87-2.21,1.81-4.62c2.51-6.58,4.32-12,4.06-12.08s-2.52,5.15-5,11.72c-.6,1.63-1.18,3.17-1.73,4.65a3.56,3.56,0,0,0-.32,2.38,1.51,1.51,0,0,0,1,.89,4.19,4.19,0,0,0,1,.15C914.21,244,915.71,244,915.72,243.83Z"/><path class="cls-25" d="M913,272a46.43,46.43,0,0,0,24.08-6.1S930.26,278,913,276.32Z"/><path class="cls-9" d="M923.16,220.62c.24.65,2.61.35,5.4.69s5,1.11,5.41.53c.17-.28-.22-.89-1.13-1.52a9.14,9.14,0,0,0-4-1.41,9,9,0,0,0-4.23.49C923.58,219.81,923.06,220.31,923.16,220.62Z"/><path class="cls-9" d="M900.38,220.06c.52.54,2.55,0,5,0s4.51.37,5-.2c.21-.27-.12-.81-1-1.32a8.66,8.66,0,0,0-8,.18C900.44,219.24,900.15,219.8,900.38,220.06Z"/><path class="cls-9" d="M912,201a27.25,27.25,0,0,0,5.28,5.45l9.25,7.91a51.88,51.88,0,0,0,13.5,9.09c2.38,1.22,3.8,4.69,6.18,5.9.53.28,2.19,0,2.76.32.16,3.85,1,16.07,1.27,20.94.48,7.67-.82,28.3-.82,28.3l6.53-.46C961,277.27,966,271,966.67,265.86c.67-4.81,0-11.38,0-15.28.1-10-2.57-20-3.92-29.9-.55-4-1.12-8.08-2.8-11.76-2.39-5.2-6.83-9.19-11.53-12.45-5.41-3.75-11.45-6.79-17.95-7.79s-13.52.23-18.7,4.28a4.12,4.12,0,0,0-1.77,2.41C909.35,197.82,910.57,198.85,912,201Zm37.12,28.8c.28.45.17,1.66,0,0Z"/><path class="cls-24" d="M948.28,234.47c.18-3.66,4.17-6.11,7.35-4.27,1.74,1,3.08,3,2.92,6.93-.43,10.37-10.76,7.8-10.77,7.5S948.06,238.77,948.28,234.47Z"/><path class="cls-25" d="M951.11,240.83s.18.14.48.29a1.8,1.8,0,0,0,1.35.08c1.11-.35,2.11-2.06,2.23-3.92a5.93,5.93,0,0,0-.39-2.61,2.1,2.1,0,0,0-1.31-1.45.91.91,0,0,0-1.08.45c-.16.29-.1.5-.15.51s-.22-.18-.12-.6a1.17,1.17,0,0,1,.44-.64,1.35,1.35,0,0,1,1-.22,2.52,2.52,0,0,1,1.82,1.69,6.11,6.11,0,0,1,.51,2.91c-.16,2.09-1.31,4-2.82,4.38a2,2,0,0,1-1.65-.35C951.12,241.09,951.08,240.85,951.11,240.83Z"/><path class="cls-9" d="M954.63,245.33a2,2,0,1,1-2-2A2,2,0,0,1,954.63,245.33Z"/><path class="cls-25" d="M922.19,248.19a4.72,4.72,0,0,1-2.36,7.38,2.78,2.78,0,0,1-1.78,0,3.91,3.91,0,0,1-1.89-2.46l-1-2.47a1.12,1.12,0,0,1-.09-.87c.13-.29.49-.39.8-.47l6.13-1.47"/><path class="cls-9" d="M918.18,255.3A5.46,5.46,0,0,0,921,255a4.44,4.44,0,0,0,2.44-2,3.32,3.32,0,0,0,.37-1.9,5.39,5.39,0,0,0-.49-2,5.11,5.11,0,0,0-1.15-1.59l-.16-.15-.2.07c-4.06,1.43-7.23,2.16-7.2,2.33s3.3-.26,7.43-1.65l-.36-.07a4.74,4.74,0,0,1,1,1.37,3.43,3.43,0,0,1-1.86,5.05C919.25,255.09,918.16,255.17,918.18,255.3Z"/><path class="cls-9" d="M937,205.49a60.47,60.47,0,0,1,17.39,16.11l-4.89,9.83c-9.52-.22-10.71-1.11-17.85-7.4s-21.33-18.84-22.74-28.25C918,197.66,929,200.63,937,205.49Z"/><path class="cls-8" d="M957.13,278a6.29,6.29,0,0,1,.39-1c.29-.65.68-1.62,1.18-2.88A72.39,72.39,0,0,0,962,263.17a69.92,69.92,0,0,0,1.54-16.8,45.45,45.45,0,0,0-1.22-9.86,17.35,17.35,0,0,0-5.21-9c-2.75-2.37-6.1-3.76-9.3-5.08a67.06,67.06,0,0,1-9.09-4.35,64.38,64.38,0,0,1-13.42-10.5,71.48,71.48,0,0,1-7.39-8.79c-.79-1.1-1.37-2-1.74-2.59a6.37,6.37,0,0,1-.55-.94,5,5,0,0,1,.69.85c.41.58,1,1.42,1.86,2.49a80.11,80.11,0,0,0,7.54,8.57,65.57,65.57,0,0,0,13.38,10.26,68.4,68.4,0,0,0,9,4.26c3.21,1.32,6.65,2.72,9.53,5.21a18,18,0,0,1,5.45,9.37,45.64,45.64,0,0,1,1.2,10,68.22,68.22,0,0,1-1.73,17A64.15,64.15,0,0,1,959,274.2c-.54,1.25-1,2.2-1.32,2.83A5,5,0,0,1,957.13,278Z"/><path class="cls-8" d="M960.65,223.66a17.44,17.44,0,0,0-3.79-6.94,24.12,24.12,0,0,0-6.85-5.19,88.6,88.6,0,0,0-9.85-4.13A64.54,64.54,0,0,1,923.05,198a53.72,53.72,0,0,1-4.5-3.86,9,9,0,0,1-1.48-1.59,13.05,13.05,0,0,1,1.69,1.36c1.07.89,2.62,2.18,4.64,3.63a70.49,70.49,0,0,0,17.05,9.11,81.09,81.09,0,0,1,9.91,4.23,23.76,23.76,0,0,1,6.94,5.47,15.27,15.27,0,0,1,3,5.18,9.59,9.59,0,0,1,.36,1.58C960.67,223.47,960.68,223.66,960.65,223.66Z"/><path class="cls-8" d="M892.7,272a3.6,3.6,0,0,1-.1-.88c0-.66-.06-1.49-.11-2.5-.08-2.18-.18-5.33-.25-9.23-.13-7.79-.24-18.58.55-30.46a79.94,79.94,0,0,1,2.4-16.64,30.41,30.41,0,0,1,6.38-12.14,21,21,0,0,1,7.44-5.5,14.62,14.62,0,0,1,2.39-.8,3.47,3.47,0,0,1,.87-.16c0,.08-1.17.33-3.13,1.25a21.79,21.79,0,0,0-7.14,5.59,30.46,30.46,0,0,0-6.09,12A82,82,0,0,0,893.6,229c-.79,11.85-.77,22.62-.79,30.4,0,3.81,0,6.94,0,9.23,0,1,0,1.85,0,2.51A3.54,3.54,0,0,1,892.7,272Z"/></svg>