<svg id="Capa_2" data-name="Capa 2" xmlns="http://www.w3.org/2000/svg" viewBox="0 0 1152.44 609.84"><defs><style>.cls-1{fill:#ececec;}.cls-2{fill:#e1e1e1;}.cls-3{fill:#fafafa;}.cls-4{fill:#f5f5f5;}.cls-5,.cls-8{fill:#1a2e35;}.cls-6{fill:#e6e6e6;stroke-linecap:round;stroke-linejoin:round;}.cls-6,.cls-7,.cls-8{stroke:#1a2e35;}.cls-14,.cls-7{fill:#fff;}.cls-7,.cls-8{stroke-miterlimit:10;}.cls-9{fill:#375a64;}.cls-10{fill:#ffbf9d;}.cls-11{fill:#ff9a6c;}.cls-12{fill:#ff725e;}.cls-13{opacity:0.6;}.cls-15{opacity:0.3;}</style></defs><title>ugiland - casos de exito</title><path class="cls-1" d="M442.14,510l-68.06,21.21a8.9,8.9,0,0,1-11.16-5.86l-29.36-94.19A8.92,8.92,0,0,1,339.42,420l43.16-13.45,44.14,24L448,498.81A8.92,8.92,0,0,1,442.14,510Z"/><path class="cls-2" d="M382.58,406.52,390.84,433a8.3,8.3,0,0,0,10.39,5.45l25.49-7.94Z"/><path class="cls-3" d="M384.8,433.73c.1.34-6.86,2.81-15.55,5.52s-15.83,4.63-15.94,4.29,6.86-2.82,15.55-5.53S384.69,433.38,384.8,433.73Z"/><path class="cls-3" d="M409.8,442.38c.11.34-11.41,4.23-25.71,8.69s-26,7.8-26.11,7.46,11.41-4.24,25.72-8.7S409.7,442,409.8,442.38Z"/><path class="cls-3" d="M418.37,453.44c.11.34-12.45,4.56-28.05,9.42S362,471.38,361.88,471s12.46-4.55,28.06-9.42S418.26,453.1,418.37,453.44Z"/><path class="cls-3" d="M422.05,465.25c.11.34-12.45,4.55-28.05,9.42s-28.33,8.52-28.43,8.18,12.45-4.56,28.05-9.42S421.94,464.91,422.05,465.25Z"/><path class="cls-3" d="M425.73,477.06c.11.34-12.45,4.55-28.05,9.41s-28.33,8.53-28.43,8.19,12.45-4.56,28.05-9.42S425.62,476.71,425.73,477.06Z"/><path class="cls-3" d="M429.41,488.86c.11.34-12.45,4.56-28.05,9.42s-28.33,8.53-28.43,8.19,12.45-4.56,28.05-9.42S429.3,488.52,429.41,488.86Z"/><path class="cls-1" d="M825.69,176,759.26,150.2a8.93,8.93,0,0,1-5.08-11.55L790,46.7a8.93,8.93,0,0,1,11.55-5.08L843.63,58l19.54,46.3L837.24,171A8.92,8.92,0,0,1,825.69,176Z"/><path class="cls-2" d="M843.63,58,833.56,83.89a8.3,8.3,0,0,0,4.72,10.74l24.89,9.68Z"/><path class="cls-3" d="M828.4,80.67c-.13.33-7.11-2.08-15.6-5.38s-15.26-6.24-15.13-6.58,7.11,2.08,15.6,5.38S828.53,80.34,828.4,80.67Z"/><path class="cls-3" d="M842.56,103c-.13.33-11.56-3.8-25.53-9.23s-25.18-10.11-25-10.45,11.55,3.81,25.52,9.24S842.69,102.69,842.56,103Z"/><path class="cls-3" d="M842.36,117c-.13.34-12.58-4.2-27.8-10.12s-27.47-11-27.34-11.33,12.58,4.2,27.81,10.13S842.49,116.68,842.36,117Z"/><path class="cls-3" d="M837.88,128.54c-.13.33-12.58-4.2-27.8-10.12s-27.47-11-27.34-11.33,12.57,4.2,27.8,10.12S838,128.21,837.88,128.54Z"/><path class="cls-3" d="M833.39,140.07c-.13.33-12.58-4.2-27.8-10.12s-27.47-11-27.34-11.33,12.58,4.2,27.81,10.12S833.52,139.74,833.39,140.07Z"/><path class="cls-3" d="M828.91,151.59c-.13.34-12.58-4.2-27.8-10.12s-27.47-11-27.34-11.32,12.58,4.19,27.8,10.12S829,151.26,828.91,151.59Z"/><path class="cls-2" d="M315.12,410.41a5.32,5.32,0,0,1,4.47,6c-.27,1.85-.53,3.67-.65,4.47l-6.12,40.2a3.51,3.51,0,0,1-4,3l-92-14a3.52,3.52,0,0,1-2.95-3.8l4.7-52.1a3.51,3.51,0,0,1,4-3.18l20.81,3.17a8.43,8.43,0,0,1,5.08,2.79l3.74,4.3Z"/><rect class="cls-4" x="215.42" y="408.88" width="101.7" height="61.38" transform="translate(69.13 -35.04) rotate(8.65)"/><path class="cls-1" d="M211.79,405.81l-1.95,64.44a2.26,2.26,0,0,0,1.9,2.31l98,14.9a2.26,2.26,0,0,0,2.53-1.73l14.55-62.52a2.26,2.26,0,0,0-1.84-2.76L214.38,403.63A2.26,2.26,0,0,0,211.79,405.81Z"/><path class="cls-5" d="M1152.44,583.37c0,.2-258,.36-576.19.36S0,583.57,0,583.37,258,583,576.25,583,1152.44,583.17,1152.44,583.37Z"/><rect class="cls-6" x="164.91" y="112.35" width="822.47" height="346.39"/><rect class="cls-7" x="182.1" y="133.3" width="77.38" height="42.84"/><rect class="cls-7" x="846.47" y="342.12" width="121.89" height="42.84"/><rect class="cls-7" x="893.12" y="186.8" width="75.23" height="42.84"/><rect class="cls-7" x="182.1" y="289.3" width="77.38" height="42.84"/><rect class="cls-7" x="182.1" y="237.71" width="62.64" height="42.84"/><rect class="cls-7" x="182.1" y="185.51" width="42.84" height="42.84"/><rect class="cls-7" x="236.77" y="185.51" width="42.84" height="42.84"/><rect class="cls-7" x="291.44" y="185.51" width="42.84" height="42.84"/><rect class="cls-7" x="346.12" y="185.51" width="42.84" height="42.84"/><rect class="cls-7" x="400.79" y="185.51" width="42.84" height="42.84"/><rect class="cls-7" x="455.46" y="185.51" width="42.84" height="42.84"/><rect class="cls-7" x="510.14" y="185.51" width="42.84" height="42.84"/><rect class="cls-7" x="564.81" y="185.51" width="42.84" height="42.84"/><rect class="cls-7" x="619.48" y="185.51" width="42.84" height="42.84"/><rect class="cls-7" x="674.16" y="185.51" width="42.84" height="42.84"/><rect class="cls-7" x="728.83" y="185.51" width="42.84" height="42.84"/><rect class="cls-7" x="783.5" y="185.51" width="42.84" height="42.84"/><rect class="cls-7" x="838.18" y="185.51" width="42.84" height="42.84"/><rect class="cls-7" x="182.1" y="394.94" width="42.84" height="42.84"/><rect class="cls-7" x="236.77" y="394.94" width="42.84" height="42.84"/><rect class="cls-7" x="291.44" y="394.94" width="42.84" height="42.84"/><rect class="cls-7" x="346.12" y="394.94" width="52.27" height="42.84"/><rect class="cls-7" x="410.22" y="394.94" width="261.53" height="42.84"/><rect class="cls-7" x="759.68" y="394.94" width="42.84" height="42.84"/><rect class="cls-7" x="814.35" y="394.94" width="42.84" height="42.84"/><rect class="cls-7" x="869.12" y="394.94" width="42.84" height="42.84"/><rect class="cls-7" x="682.45" y="394.94" width="66.51" height="42.84"/><rect class="cls-7" x="925.52" y="394.94" width="42.84" height="42.84"/><rect class="cls-7" x="256.9" y="237.71" width="42.84" height="42.84"/><rect class="cls-7" x="311.57" y="237.71" width="42.84" height="42.84"/><rect class="cls-7" x="366.24" y="237.71" width="42.84" height="42.84"/><rect class="cls-7" x="420.92" y="237.71" width="42.84" height="42.84"/><rect class="cls-7" x="475.59" y="237.71" width="42.84" height="42.84"/><rect class="cls-7" x="530.26" y="237.71" width="42.84" height="42.84"/><rect class="cls-7" x="584.94" y="237.71" width="42.84" height="42.84"/><rect class="cls-7" x="639.61" y="237.71" width="42.84" height="42.84"/><rect class="cls-7" x="694.28" y="237.71" width="42.84" height="42.84"/><rect class="cls-7" x="748.96" y="237.71" width="42.84" height="42.84"/><rect class="cls-7" x="803.63" y="237.71" width="42.84" height="42.84"/><rect class="cls-7" x="858.3" y="237.71" width="42.84" height="42.84"/><polygon class="cls-8" points="968.35 237.72 968.35 332.76 925.53 332.76 925.53 280.55 912.97 280.55 912.97 237.72 968.35 237.72"/><rect class="cls-7" x="269.44" y="289.92" width="42.84" height="42.84"/><rect class="cls-7" x="324.11" y="289.92" width="42.84" height="42.84"/><rect class="cls-7" x="378.78" y="289.92" width="42.84" height="42.84"/><rect class="cls-7" x="433.46" y="289.92" width="42.84" height="42.84"/><rect class="cls-7" x="488.13" y="289.92" width="42.84" height="42.84"/><rect class="cls-7" x="542.8" y="289.92" width="42.84" height="42.84"/><rect class="cls-7" x="597.48" y="289.92" width="42.84" height="42.84"/><rect class="cls-7" x="652.15" y="289.92" width="42.84" height="42.84"/><rect class="cls-7" x="706.82" y="289.92" width="42.84" height="42.84"/><rect class="cls-7" x="761.5" y="289.92" width="42.84" height="42.84"/><rect class="cls-7" x="816.17" y="289.92" width="42.84" height="42.84"/><rect class="cls-7" x="870.84" y="289.92" width="42.84" height="42.84"/><rect class="cls-7" x="246.2" y="342.12" width="42.84" height="42.84"/><rect class="cls-7" x="300.87" y="342.12" width="42.84" height="42.84"/><rect class="cls-7" x="355.55" y="342.12" width="42.84" height="42.84"/><rect class="cls-7" x="410.22" y="342.12" width="42.84" height="42.84"/><rect class="cls-7" x="464.89" y="342.12" width="42.84" height="42.84"/><rect class="cls-7" x="519.57" y="342.12" width="42.84" height="42.84"/><rect class="cls-7" x="574.24" y="342.12" width="42.84" height="42.84"/><rect class="cls-7" x="628.91" y="342.12" width="42.84" height="42.84"/><rect class="cls-7" x="683.59" y="342.12" width="42.84" height="42.84"/><rect class="cls-7" x="738.26" y="342.12" width="42.84" height="42.84"/><rect class="cls-7" x="792.93" y="342.12" width="42.84" height="42.84"/><rect class="cls-7" x="269.44" y="135.89" width="42.84" height="42.84"/><rect class="cls-7" x="324.11" y="135.89" width="42.84" height="42.84"/><rect class="cls-7" x="378.78" y="135.89" width="42.84" height="42.84"/><rect class="cls-7" x="433.46" y="135.89" width="42.84" height="42.84"/><rect class="cls-7" x="488.13" y="135.89" width="42.84" height="42.84"/><rect class="cls-7" x="542.8" y="135.89" width="42.84" height="42.84"/><rect class="cls-7" x="597.48" y="135.89" width="42.84" height="42.84"/><rect class="cls-7" x="652.15" y="135.89" width="42.84" height="42.84"/><rect class="cls-7" x="706.82" y="135.89" width="42.84" height="42.84"/><rect class="cls-7" x="761.5" y="135.89" width="42.84" height="42.84"/><rect class="cls-7" x="816.17" y="135.89" width="42.84" height="42.84"/><rect class="cls-7" x="870.84" y="135.89" width="42.84" height="42.84"/><rect class="cls-7" x="925.52" y="135.89" width="42.84" height="42.84"/><rect class="cls-7" x="182.1" y="342.12" width="51.9" height="42.84"/><polygon class="cls-5" points="164.91 114.56 182.1 108.83 976.21 108.83 987.52 114.49 164.91 114.56"/><rect class="cls-2" x="1084.45" y="526.19" width="5.78" height="3.11"/><rect class="cls-1" x="1074.9" y="447.81" width="13.35" height="66.21"/><path class="cls-9" d="M1111.88,451.3h-62.67a12.07,12.07,0,0,1-12.07-12.07h0a12.07,12.07,0,0,1,12.07-12.07h62.67A12.06,12.06,0,0,1,1124,439.23h0A12.06,12.06,0,0,1,1111.88,451.3Z"/><rect class="cls-2" x="1077.4" y="514.02" width="8.46" height="47"/><path class="cls-2" d="M1047.7,583.93c-1.67.21,71.28,0,71.28,0s-31.12-3.48-33.12-22.91h-8.46S1075.27,580.42,1047.7,583.93Z"/><path class="cls-5" d="M1114.36,451.3c0,.15-14.49.26-32.36.26s-32.36-.11-32.36-.26,14.49-.26,32.36-.26S1114.36,451.16,1114.36,451.3Z"/><path class="cls-5" d="M1088.25,514a87.36,87.36,0,0,1-13.47,0,87.36,87.36,0,0,1,13.47,0Z"/><path class="cls-2" d="M1090.24,532.79h0a1.71,1.71,0,0,1-1.71-1.71v-6.67a1.71,1.71,0,0,1,1.71-1.71h0a1.71,1.71,0,0,1,1.7,1.71v6.67A1.71,1.71,0,0,1,1090.24,532.79Z"/><path class="cls-10" d="M956.91,258.76s2.93-3.21,3.82-3.27,10,2.66,10,2.66a6.25,6.25,0,0,1,2.87,1.36c.82,1,9.83,10.75,9.83,10.75l-10,8.82s-11.74-2.11-12.76-3.34-1.84-3.2-1.09-3.82a5.12,5.12,0,0,1-.69-2.86,20.71,20.71,0,0,1,.62-2.08s-1.78-1.26-1.84-2.15a3.49,3.49,0,0,0-.34-1.36l-.41-.69Z"/><path class="cls-11" d="M961,260.67c.06,0,0,.32-.16.76a3.53,3.53,0,0,1-1.1,1.54,2.3,2.3,0,0,1-1.87.43c-.5-.12-.7-.4-.67-.43s.29.11.72.14a2.32,2.32,0,0,0,1.56-.48,4.38,4.38,0,0,0,1.09-1.33C960.79,260.91,960.94,260.65,961,260.67Z"/><path class="cls-10" d="M977.56,265.68l-4.77-3-12.24-6.46s-2.43,2.36,1.67,5.76l5.07,4s4.49,8.25,5.46,8.86a57.47,57.47,0,0,0,5.38,2.2Z"/><path class="cls-11" d="M978.6,277.27a1.81,1.81,0,0,1-.5-.1c-.32-.09-.78-.23-1.38-.43s-1.32-.47-2.14-.83c-.41-.19-.84-.4-1.29-.66a4,4,0,0,1-1.23-1.08,55.31,55.31,0,0,1-4.13-6.74l-.56-1a2.75,2.75,0,0,0-.72-.81c-.58-.5-1.21-1-1.85-1.48a47.47,47.47,0,0,1-3.89-3.17,4,4,0,0,1-.69-5l.1-.16.17.1c4.89,2.76,9.11,5.29,12.3,6.76,1.54.85,2.73,1.61,3.54,2.12l.93.61q.32.22.3.24l-.34-.17-1-.55c-.84-.48-2-1.2-3.6-2-3.22-1.41-7.48-3.9-12.38-6.64l.27-.06a3.29,3.29,0,0,0-.45,2.27,4.08,4.08,0,0,0,1.11,2.18,48.67,48.67,0,0,0,3.85,3.15c.64.49,1.27,1,1.86,1.5a5.51,5.51,0,0,1,.43.41,2.67,2.67,0,0,1,.36.49l.56,1a58.77,58.77,0,0,0,4,6.74,6,6,0,0,0,2.39,1.71c.8.38,1.51.66,2.1.89l1.35.5Z"/><path class="cls-5" d="M1110.62,242.4c-.17-3-.54-17.42-.71-19.61a12.15,12.15,0,0,0-3.63-7.95,7.61,7.61,0,0,0-8.24-1.59h0a5.09,5.09,0,0,0-3.65,3.57c-6.08,21.62-5.12,44.65-7.81,67,7.94,1.29,18.62.76,26.65.34C1113.23,266.32,1111.72,261.68,1110.62,242.4Z"/><path class="cls-9" d="M1107.28,272.89a2.45,2.45,0,0,1-.07-.58c0-.44,0-1-.07-1.66-.05-1.51-.11-3.58-.19-6.1-.11-5.21-.26-12.3-.42-20.12-.06-3.93-.12-7.67-.17-11.09q0-2.55-.06-4.83a23.54,23.54,0,0,0-.29-4.17,6.82,6.82,0,0,0-3.09-4.89,5.43,5.43,0,0,0-2.1-.63l.15,0a3.52,3.52,0,0,1,.44,0,4.18,4.18,0,0,1,1.6.48,5.88,5.88,0,0,1,2,1.75,8,8,0,0,1,1.36,3.24,23.32,23.32,0,0,1,.36,4.23c0,1.52.07,3.14.11,4.84.06,3.41.13,7.15.21,11.08.1,7.83.2,14.91.27,20.13,0,2.52,0,4.59,0,6.1,0,.67,0,1.22,0,1.66A3.29,3.29,0,0,1,1107.28,272.89Z"/><path class="cls-9" d="M1100.06,264.69a5.87,5.87,0,0,1-.1-1.3c0-.84,0-2.06,0-3.56,0-3,.06-7.14.17-11.71s.24-8.61.32-11.71c0-1.42.09-2.61.12-3.55a6.18,6.18,0,0,1,.11-1.3,6.77,6.77,0,0,1,.1,1.3c0,.84,0,2,0,3.55,0,3-.06,7.15-.17,11.72s-.24,8.61-.33,11.71c0,1.42-.08,2.61-.11,3.55A6.18,6.18,0,0,1,1100.06,264.69Z"/><path class="cls-5" d="M1073.54,196.62c6-.62,11,2,15.74,5.64a29.6,29.6,0,0,1,10,14.61c1.89,6,1.91,14.55-.23,20.48A18.33,18.33,0,0,1,1086.67,249c-8.29,2.34-17.63,1.39-24.15-4.24s-9.88-14.46-9.64-23.07a28.43,28.43,0,0,1,5.6-16.59,21.66,21.66,0,0,1,15.06-8.5"/><path class="cls-5" d="M1089,217.75c-.71-2.31-.21-4.8-.4-7.22-.4-5.31-4.37-9.8-9.13-12.17-4.44-2.21-10-2.16-15.65-.74a21,21,0,0,0-10.23,5.75,16.56,16.56,0,0,0-4,14.64l27.17-2.15c2.38,2.25,4.82,4.53,7.8,5.9a5.58,5.58,0,0,0,2.78.63,2.52,2.52,0,0,0,2.21-1.59C1089.83,219.8,1089.29,218.75,1089,217.75Z"/><path class="cls-10" d="M1062.74,205l23.18,6.52a4.39,4.39,0,0,1,3.81,4.56l-3.61,50.84a15.85,15.85,0,0,1-3.94,9.37l-2.43,2.74c-5.54,6.26-15.85,4.92-19.27-2.71A5.22,5.22,0,0,1,1060,275a11.74,11.74,0,0,1-.15-1.17,36.75,36.75,0,0,1,.1-7.72c.06-4.55.11-6.41.11-6.37s-9.54-1.84-11.19-14.39c-.82-6.25-.24-16.43.51-24.74C1050.08,213.09,1055.29,204,1062.74,205Z"/><path class="cls-5" d="M1052.36,230.35a1.6,1.6,0,0,0,1.5,1.66,1.53,1.53,0,0,0,1.69-1.4,1.6,1.6,0,0,0-1.5-1.66A1.54,1.54,0,0,0,1052.36,230.35Z"/><path class="cls-5" d="M1051.48,225.94c.19.21,1.43-.66,3.15-.61s3,.95,3.16.74-.1-.47-.64-.89a4.45,4.45,0,0,0-2.52-.85,4.26,4.26,0,0,0-2.52.74C1051.57,225.47,1051.38,225.84,1051.48,225.94Z"/><path class="cls-5" d="M1067.8,231a1.61,1.61,0,0,0,1.51,1.65,1.52,1.52,0,0,0,1.69-1.4,1.62,1.62,0,0,0-1.5-1.66A1.55,1.55,0,0,0,1067.8,231Z"/><path class="cls-5" d="M1067.84,226.59c.2.21,1.44-.66,3.16-.61s3,1,3.16.74-.1-.47-.64-.88A4.4,4.4,0,0,0,1071,225a4.24,4.24,0,0,0-2.52.74C1067.94,226.12,1067.75,226.49,1067.84,226.59Z"/><path class="cls-5" d="M1061.82,239.33a11.72,11.72,0,0,0-2.78-.58c-.44-.05-.86-.15-.92-.45a2.17,2.17,0,0,1,.33-1.3c.44-1.06.9-2.16,1.39-3.32,1.93-4.73,3.35-8.62,3.16-8.7s-1.92,3.7-3.86,8.42c-.46,1.17-.91,2.28-1.33,3.34a2.62,2.62,0,0,0-.28,1.73,1.1,1.1,0,0,0,.71.66,2.77,2.77,0,0,0,.75.12A11.07,11.07,0,0,0,1061.82,239.33Z"/><path class="cls-11" d="M1060.09,259.71a31.78,31.78,0,0,0,16.86-4s-4.44,8.54-16.92,7Z"/><path class="cls-11" d="M1062.44,243.51a3.11,3.11,0,0,1,2.82-1.08,2.83,2.83,0,0,1,1.93,1.1,1.79,1.79,0,0,1,.08,2.06,2.07,2.07,0,0,1-2.27.51,6.38,6.38,0,0,1-2.17-1.37,2,2,0,0,1-.48-.52.59.59,0,0,1,0-.65"/><path class="cls-5" d="M1066.87,240.66c-.28,0-.33,1.85-2,3.14s-3.63,1-3.65,1.28.44.38,1.28.43a4.71,4.71,0,0,0,3-1,4,4,0,0,0,1.53-2.64C1067.19,241.12,1067,240.65,1066.87,240.66Z"/><path class="cls-5" d="M1068.27,221.49c.16.47,1.89.29,3.91.59s3.64.89,3.92.48c.12-.2-.15-.65-.8-1.12a6.57,6.57,0,0,0-2.88-1.1,6.65,6.65,0,0,0-3.08.28C1068.59,220.9,1068.21,221.26,1068.27,221.49Z"/><path class="cls-5" d="M1052.18,218.41c.29.4,1.49,0,2.92,0s2.63.33,2.92-.07c.13-.19,0-.59-.57-1a4,4,0,0,0-2.36-.7,4.07,4.07,0,0,0-2.35.72C1052.23,217.81,1052.05,218.21,1052.18,218.41Z"/><path class="cls-5" d="M1093.53,214.4c-2-7.31-12-17.76-19.54-17.57l-12.38,6.68a11.65,11.65,0,0,0,7.48,9.26c2.11.74,4.66,1,5.85,2.93s.33,4.62,1.44,6.6c1.55,2.76,6.12,2.84,7.24,5.79.49,1.29.14,2.78.65,4.06.68,1.71,4.82,4,6.59,3.55s1.92-3.46,2.56-5a8.3,8.3,0,0,0,.51-5.53C1093.32,221.61,1094.47,217.89,1093.53,214.4Z"/><path class="cls-10" d="M1085.63,236.94c0-.93,1.16-3.1,2.09-3.22,2.46-.32,6.88,0,6.76,6.23-.17,8.53-8.7,6.6-8.71,6.35S1085.54,240.15,1085.63,236.94Z"/><path class="cls-11" d="M1088.44,243.13s.15.1.4.22a1.45,1.45,0,0,0,1.11.05c.9-.32,1.69-1.73,1.76-3.26a4.92,4.92,0,0,0-.37-2.14,1.7,1.7,0,0,0-1.1-1.16.76.76,0,0,0-.88.39c-.12.23-.07.41-.11.42s-.18-.15-.11-.5a.93.93,0,0,1,.35-.53,1.13,1.13,0,0,1,.82-.2,2.1,2.1,0,0,1,1.53,1.36,5.1,5.1,0,0,1,.47,2.38c-.09,1.72-1,3.31-2.24,3.64a1.64,1.64,0,0,1-1.36-.25C1088.45,243.33,1088.41,243.14,1088.44,243.13Z"/><path class="cls-12" d="M1100.51,226.22a7.65,7.65,0,0,0,.48-2.53,18.77,18.77,0,0,0-3.15-11.86,7.59,7.59,0,0,0-1.68-2c-.16.1,2.51,3.11,3.71,7.77S1100.31,226.21,1100.51,226.22Z"/><path class="cls-5" d="M1064.24,201.1c-1,3.41-6.55,7.5-9,10-4.74,4.85-5.62,5.56-6.58,21.05a36.61,36.61,0,0,1-2.55-15.62,18.55,18.55,0,0,1,5.72-11.86,14.46,14.46,0,0,1,12.45-3.61"/><path class="cls-9" d="M1097.87,214.58a10,10,0,0,1-1.47.26,16.21,16.21,0,0,1-1.74.19c-.68,0-1.45.13-2.32.11a40.45,40.45,0,0,1-6-.33,45.22,45.22,0,0,1-7.22-1.59,46.14,46.14,0,0,1-6.84-2.82,40.84,40.84,0,0,1-5.14-3.17c-.71-.49-1.3-1-1.83-1.42a16,16,0,0,1-1.32-1.15,9.6,9.6,0,0,1-1.06-1,6.74,6.74,0,0,1,1.18.9c.37.31.82.68,1.37,1.08s1.15.88,1.87,1.34a44.22,44.22,0,0,0,5.14,3,48.55,48.55,0,0,0,6.78,2.76,50.66,50.66,0,0,0,7.14,1.61,43.75,43.75,0,0,0,6,.43c.86,0,1.63,0,2.3,0s1.26-.05,1.74-.1A8,8,0,0,1,1097.87,214.58Z"/><path class="cls-9" d="M1098.36,220.73a4.64,4.64,0,0,1-1,.17,22.23,22.23,0,0,1-2.76.17,34.41,34.41,0,0,1-9.06-1.13,33.9,33.9,0,0,1-8.43-3.5,23.2,23.2,0,0,1-2.32-1.51,3.86,3.86,0,0,1-.78-.65c0-.07,1.24.75,3.28,1.85a38.13,38.13,0,0,0,17.31,4.58C1096.91,220.77,1098.35,220.64,1098.36,220.73Z"/><path class="cls-9" d="M1100.49,221.08a4.84,4.84,0,0,1,.2,1.3,31.51,31.51,0,0,1,.12,3.57,49.59,49.59,0,0,1-.34,5.3,34.25,34.25,0,0,1-1.28,6.39,17.13,17.13,0,0,1-7.22,9.19,16.28,16.28,0,0,1-3.26,1.5,5.47,5.47,0,0,1-1.27.34,6.64,6.64,0,0,1,1.19-.53,20.73,20.73,0,0,0,3.15-1.62,15.81,15.81,0,0,0,3.85-3.48,17.32,17.32,0,0,0,3.06-5.56,37.38,37.38,0,0,0,1.31-6.29c.25-2,.38-3.75.45-5.25s.07-2.71,0-3.55A8.81,8.81,0,0,1,1100.49,221.08Z"/><path class="cls-10" d="M983.45,270.26l24.72,25c3.25-.75,43.14-24.59,43.14-24.59l6.3,30.68s-40.82,18.77-52.06,16.49c-1.83-.37-4.85-.6-6.74-3-9-11.55-26.06-35.87-26.06-35.87Z"/><polygon class="cls-10" points="1015.86 499.66 1028.07 526.1 1047.76 517 1035.13 484.28 1015.86 499.66"/><path class="cls-9" d="M1025.76,524.34l7.13,13.59s-18.25,18.87-16.54,23.09l42.9-20.57-11.78-27.27Z"/><path class="cls-2" d="M1045.26,529.71a2,2,0,0,1,2.17,1.42,1.86,1.86,0,0,1-1.38,2.16,2,2,0,0,1-2.29-1.51,1.93,1.93,0,0,1,1.69-2.09"/><g class="cls-13"><path class="cls-14" d="M1059.25,540.45l-1.78-3.42L1017,558s-1.51,1.75-.65,3Z"/></g><path class="cls-5" d="M1032.09,538.05c.11.2,1.2-.2,2.55,0s2.33.79,2.48.62-.74-1.24-2.38-1.43S1032,537.88,1032.09,538.05Z"/><path class="cls-5" d="M1028.48,542.07c0,.22,1.13.14,2.27.69s1.79,1.38,2,1.27-.23-1.36-1.66-2S1028.39,541.86,1028.48,542.07Z"/><path class="cls-5" d="M1028.51,548.68c.21,0,0-1.24-1.09-2.13s-2.28-.87-2.29-.66.9.54,1.78,1.29S1028.29,548.76,1028.51,548.68Z"/><path class="cls-5" d="M1030,532.81c.18.15,1-.6,2.23-1.09s2.32-.55,2.35-.79-1.23-.55-2.66,0S1029.86,532.69,1030,532.81Z"/><path class="cls-5" d="M1014.89,514,984.5,431.39s.73-13.73,3.26-18.07,79.15-29.63,79.15-29.63,19.52-4.7,32.53,0,26.23,10.49,24.93,19.62a23.9,23.9,0,0,1-1,4.1,33.15,33.15,0,0,1-30.64,22.49L1082.61,431,1031,440.89a4,4,0,0,0-3,5l16.68,55.59S1026.37,510.4,1014.89,514Z"/><polygon class="cls-10" points="988.06 456.88 987.34 486 1009.02 486.53 1012.14 451.59 988.06 456.88"/><path class="cls-9" d="M987.34,482.12l-.9,16.62s-24.7,8.88-25,13.42l47.58.48,1.46-29.67Z"/><path class="cls-5" d="M986.22,489.37s-.07-.3,0-.85a5.12,5.12,0,0,1,1-2.16,3.28,3.28,0,0,1,.57-.63,1.17,1.17,0,0,1,1.08-.21.73.73,0,0,1,.47.42.82.82,0,0,1,0,.58,5.21,5.21,0,0,1-.5.87c-.37.56-.68,1.12-1.15,1.75a1.44,1.44,0,0,1-1.28.52,3.06,3.06,0,0,1-1.23-.49,10.69,10.69,0,0,1-1.8-1.5,11,11,0,0,1-.72-.83,2.66,2.66,0,0,1-.53-.95.88.88,0,0,1,.54-1,1.31,1.31,0,0,1,1.15.23,6.52,6.52,0,0,1,1.2,1.22,8,8,0,0,1,1.19,2.06c.19.52.24.82.2.83a15.15,15.15,0,0,0-1.71-2.67,6.43,6.43,0,0,0-1.16-1.1.8.8,0,0,0-.68-.16.43.43,0,0,0-.22.53,2.35,2.35,0,0,0,.47.78q.31.39.69.78a10,10,0,0,0,1.71,1.41,2.33,2.33,0,0,0,1,.39.83.83,0,0,0,.77-.31c.4-.52.77-1.16,1.14-1.69a5.86,5.86,0,0,0,.48-.77c.09-.24,0-.4-.15-.47-.43-.16-.85.28-1.15.65A7.56,7.56,0,0,0,986.22,489.37Z"/><path class="cls-2" d="M1001.17,496.83a1.93,1.93,0,0,1,1.32,2.23,1.86,1.86,0,0,1-2.2,1.33,2,2,0,0,1-1.38-2.37,1.93,1.93,0,0,1,2.44-1.13"/><g class="cls-13"><path class="cls-14" d="M1009,512.64l-.1-3.85-45.57,1s-2.13.9-1.91,2.39Z"/></g><path class="cls-5" d="M985.67,498.49c0,.24,1.17.35,2.3,1.11s1.74,1.74,1.95,1.65-.12-1.43-1.51-2.33S985.62,498.28,985.67,498.49Z"/><path class="cls-5" d="M980.66,500.51c0,.22,1,.63,1.73,1.62s1,2,1.22,2,.4-1.32-.59-2.53S980.67,500.29,980.66,500.51Z"/><path class="cls-5" d="M977.77,506.45c.21.05.54-1.11,0-2.38s-1.67-1.8-1.77-1.61.57.88,1,1.94S977.54,506.42,977.77,506.45Z"/><path class="cls-5" d="M986.15,492.89c.09.21,1.16-.1,2.47,0s2.34.52,2.46.33-.85-1-2.4-1.14S986,492.71,986.15,492.89Z"/><path class="cls-5" d="M1000.72,376.05s-13-1-14.43,13.06-8.23,79.42-8.23,79.42l35.72,3,4.7-67.22,48.43-20.6S1009.4,374.24,1000.72,376.05Z"/><path class="cls-5" d="M1054.27,357s-7.88,22.1-6.38,24.57,21.78,12.6,21.78,12.6l50.73,19.48s5.21-8.29,5.21-21S1108,357,1108,357Z"/><path class="cls-9" d="M1069.31,382.56l-.24.13-.72.33-2.81,1.25L1055,388.86l-36.41,15.68.16-.23c-.46,6.64-1,13.81-1.47,21.23-1.24,17.34-2.37,33.33-3.27,46l0,.23-.23,0-22.12-1.95-6.09-.56-1.59-.17a3.25,3.25,0,0,1-.54-.08,3.27,3.27,0,0,1,.55,0l1.6.1,6.1.45,22.13,1.75-.25.21c.87-12.66,2-28.65,3.16-46,.52-7.42,1-14.59,1.5-21.23v-.17l.15-.06,36.49-15.49,10.61-4.45,2.84-1.17.74-.29Z"/><path class="cls-9" d="M1109.66,384.77a7.61,7.61,0,0,1-1.43-.39l-3.82-1.23a83.13,83.13,0,0,0-12.78-3.23,37.4,37.4,0,0,0-13.09.17,49.2,49.2,0,0,0-5.24,1.52,5.88,5.88,0,0,1,1.32-.67,22.86,22.86,0,0,1,3.84-1.24,34.89,34.89,0,0,1,13.25-.34,71.07,71.07,0,0,1,12.83,3.41c1.6.57,2.88,1.05,3.77,1.4A7.21,7.21,0,0,1,1109.66,384.77Z"/><path class="cls-9" d="M1102.49,373.12a37.51,37.51,0,0,0-4.44,0c-1.37.1-3,.31-4.8.52s-3.79.45-5.85.84a27.22,27.22,0,0,0-9.94,3.69,31.55,31.55,0,0,0-3.45,2.78,4,4,0,0,1,.74-1,15.34,15.34,0,0,1,2.49-2.15,25.34,25.34,0,0,1,10.06-3.91c2.08-.4,4.08-.63,5.89-.81s3.45-.35,4.84-.4a17.77,17.77,0,0,1,3.28.15A3.5,3.5,0,0,1,1102.49,373.12Z"/><path class="cls-5" d="M1028.78,530.09s-.21-.27-.39-.86a6.19,6.19,0,0,1-.2-2.59,3.38,3.38,0,0,1,.2-.87,1.08,1.08,0,0,1,.86-.69.75.75,0,0,1,.63.21,1.09,1.09,0,0,1,.27.59,6.51,6.51,0,0,1,0,1.09c-.06.73-.06,1.42-.18,2.26a1.36,1.36,0,0,1-.89,1.08,2.66,2.66,0,0,1-1.34.05,10.73,10.73,0,0,1-2.36-.69,11.2,11.2,0,0,1-1-.52,3.06,3.06,0,0,1-1-.72,1,1,0,0,1,0-1.28,1.19,1.19,0,0,1,1.14-.27,6.77,6.77,0,0,1,1.69.69,9.26,9.26,0,0,1,2.07,1.54,2.66,2.66,0,0,1,.6.73,18.64,18.64,0,0,0-2.86-1.91,7.07,7.07,0,0,0-1.58-.59.77.77,0,0,0-.69.14.51.51,0,0,0,.07.63,2.7,2.7,0,0,0,.8.57c.32.17.65.33,1,.48a10.65,10.65,0,0,0,2.23.64,2.21,2.21,0,0,0,1.06,0,.81.81,0,0,0,.54-.66c.1-.69.13-1.5.2-2.19a6.85,6.85,0,0,0,0-1c0-.29-.16-.42-.36-.41-.47,0-.63.66-.71,1.16A9.26,9.26,0,0,0,1028.78,530.09Z"/><path class="cls-10" d="M1053,269.93a16.45,16.45,0,0,0-8.43,7.32c-3.16,5.61-2.32,8.37-1.49,11.68s2.29,9.89,2.37,9.46S1053,269.93,1053,269.93Z"/><path class="cls-12" d="M1106.5,279.92s-4.14-10-5-10.92l-15.28-3.86-9.56,4.68a16.7,16.7,0,0,1-8.91,1.77c-3.42-.32-6.42-1.7-7.93-4.22h0l-6,1.61s-9.48,28.62-9.29,36.54,3.48,30.41,3.11,34.85,1.17,16.66,6.57,16.66H1108s12.13-3.36,12.66-10.64S1106.5,279.92,1106.5,279.92Z"/><path class="cls-5" d="M1089.38,323.34s-.28.31-.9.76a16.8,16.8,0,0,1-2.77,1.62,17.07,17.07,0,0,1-4.59,1.38,15.87,15.87,0,0,1-5.86-.26,19.22,19.22,0,0,1-9.11-5.29,22.6,22.6,0,0,1-2.1-2.43,4,4,0,0,1-.62-1c.08-.06,1,1.31,3,3.15a20.12,20.12,0,0,0,9,5,16.4,16.4,0,0,0,10.15-.94C1088,324.31,1089.32,323.25,1089.38,323.34Z"/><g class="cls-15"><path d="M1064.32,319.36a15.66,15.66,0,0,0,5.52,10.55,13,13,0,0,0,11.49,2.5,11.12,11.12,0,0,0,7.85-8.52,32.8,32.8,0,0,1-8.57,3,16.82,16.82,0,0,1-16.55-7.81l.44.46"/></g><g class="cls-15"><path d="M1109.51,328.07c-5.67-11-11.67-22.4-21.59-29.8h0c2.2,7.53,4.17,14.59,6.6,22.05.69,2.11,1.77,4.56,4,4.91.8.13,1.64-.07,2.44.09,1.37.27,2.32,1.51,3.06,2.69a7.52,7.52,0,0,0,2.73,3.11c1.26.62,3.18,0,3.29-1.36A3.23,3.23,0,0,0,1109.51,328.07Z"/></g><path class="cls-12" d="M1125.61,307.1l-27.06,12.69s-12-24-12.92-27.33-3-9,.07-16a13.6,13.6,0,0,1,16.24-7.34C1113.87,273.32,1125.61,307.1,1125.61,307.1Z"/><path class="cls-12" d="M1047.17,307c-1.27,0-15.77,7.58-15.77,7.58l-9.65-27.82c12.47-6.76,26.32-16.3,33.54-18.24L1049,290.31Z"/><path class="cls-10" d="M1101.21,318.06c5.12,8.42,8.7,13.27,8.7,13.27l-46,28,5.36,12.44,55.86-23a12.78,12.78,0,0,0,7.67-8.74,10.66,10.66,0,0,0-.13-5.59l-9.5-26.22Z"/><path class="cls-11" d="M1121.08,335.6a38.52,38.52,0,0,0-5.5-2.85c-3.2-1.22-6-1.25-6-1.43a14.84,14.84,0,0,1,11.53,4.28Z"/><path class="cls-5" d="M1048.83,282.27a6.9,6.9,0,0,0-.77,1.28,24.72,24.72,0,0,0-1.5,3.71,56.58,56.58,0,0,0-2.27,12.73,72.89,72.89,0,0,0,.16,12.87,38.64,38.64,0,0,0,.59,3.87,6.54,6.54,0,0,0,.39,1.39,6.52,6.52,0,0,0-.14-1.42c-.12-.91-.28-2.24-.39-3.87a89.46,89.46,0,0,1,0-12.81,64.71,64.71,0,0,1,2.07-12.67,32.93,32.93,0,0,1,1.29-3.72A6.37,6.37,0,0,0,1048.83,282.27Z"/><path class="cls-10" d="M1028.3,367.83l11.46-5.48,22.37-1.77,1.82-1.27,5.36,12.44s-5.86,2.8-8.93,3.05l-18.81-.57-9.83,1Z"/><path class="cls-5" d="M1125.61,307.1a2.19,2.19,0,0,0-.54.19l-1.49.64-5.47,2.42-18,8.19-2.19,1,.34.12c-3.12-6.43-5.86-12.19-7.8-16.35l-2.26-4.91c-.24-.54-.44-1-.61-1.33a1.67,1.67,0,0,0-.24-.45,2.8,2.8,0,0,0,.15.49c.12.31.29.78.53,1.37.47,1.18,1.19,2.88,2.11,5,1.86,4.2,4.54,10,7.65,16.43l.11.23.24-.11,2.19-1,17.89-8.32,5.4-2.58,1.46-.72A2.32,2.32,0,0,0,1125.61,307.1Z"/><path class="cls-5" d="M1100.71,269.14c0,.09-1.27.06-3.22.53a15.28,15.28,0,0,0-11,10.11c-.64,1.9-.72,3.17-.81,3.16a2.56,2.56,0,0,1,0-.89,13.17,13.17,0,0,1,.46-2.38,14.67,14.67,0,0,1,11.32-10.36,12.52,12.52,0,0,1,2.41-.25A2.25,2.25,0,0,1,1100.71,269.14Z"/><path class="cls-14" d="M1116.27,286.56a6.49,6.49,0,0,1-.36,1.2,12.53,12.53,0,0,1-1.54,3.05l-.72.9-.38.47c-.14.15-.31.28-.46.43l-1,.89-1.16.79a21.62,21.62,0,0,1-5.71,2.45c-4.24,1.19-8.17,1.75-10.9,2.6a45.8,45.8,0,0,0-4.32,1.63,6.1,6.1,0,0,1,1.06-.67,10.55,10.55,0,0,1,1.33-.63l.85-.36,1-.32c2.74-.95,6.68-1.58,10.86-2.75a22.15,22.15,0,0,0,5.6-2.36l1.14-.75c.33-.28.66-.56,1-.84a6,6,0,0,0,.46-.4l.38-.45.72-.84a14.19,14.19,0,0,0,1.65-2.91A5.71,5.71,0,0,1,1116.27,286.56Z"/><path class="cls-14" d="M1112.7,280.19a4.7,4.7,0,0,0-1.12.27,5.12,5.12,0,0,0-2.25,2.13c-.37.56-.73,1.22-1.21,1.88a9.75,9.75,0,0,1-1.82,1.88,15.88,15.88,0,0,1-5.32,2.58c-2,.61-4,1-5.71,1.39a25.42,25.42,0,0,0-4.51,1.47,16.34,16.34,0,0,0-3.65,2.37s.05-.1.18-.25a4.71,4.71,0,0,1,.61-.64,11.4,11.4,0,0,1,2.7-1.82,23.52,23.52,0,0,1,4.55-1.59c1.76-.46,3.7-.83,5.68-1.43A16.06,16.06,0,0,0,1106,286a9.83,9.83,0,0,0,1.77-1.76c.47-.62.85-1.27,1.25-1.83a5,5,0,0,1,2.48-2.11,2.35,2.35,0,0,1,.89-.14A.62.62,0,0,1,1112.7,280.19Z"/><path class="cls-14" d="M1090.89,304.24s-.14.1-.43.24l-1.26.59c-1.1.5-2.71,1.21-4.73,2a49.21,49.21,0,0,1-7.29,2.26,27.23,27.23,0,0,1-9.34.55,40.56,40.56,0,0,1-9-2.57,34.57,34.57,0,0,0-7.27-2,15.31,15.31,0,0,0-5.06.11c-1.17.25-1.79.53-1.81.48a2,2,0,0,1,.44-.22,8.32,8.32,0,0,1,1.33-.45,13.79,13.79,0,0,1,5.14-.28,32.48,32.48,0,0,1,7.39,1.92,41.92,41.92,0,0,0,8.9,2.51,27.62,27.62,0,0,0,9.17-.51,55.5,55.5,0,0,0,7.26-2.13c2-.74,3.65-1.39,4.78-1.84.52-.19,1-.36,1.3-.5A1.49,1.49,0,0,1,1090.89,304.24Z"/><path class="cls-14" d="M1046.49,295s.12-.11.36-.28a5.84,5.84,0,0,1,1.14-.58,9.45,9.45,0,0,1,4.67-.48,18.09,18.09,0,0,1,6.55,2.37,61.9,61.9,0,0,0,7.46,3.93,21.68,21.68,0,0,0,8.24,1.24,41.9,41.9,0,0,0,6.84-.82c1.93-.37,3.48-.74,4.56-1a11.78,11.78,0,0,1,1.68-.34,9,9,0,0,1-1.63.53c-1.06.31-2.6.73-4.54,1.15a39,39,0,0,1-6.89.94,21.8,21.8,0,0,1-8.44-1.23,57.16,57.16,0,0,1-7.52-4,18.17,18.17,0,0,0-6.36-2.42,9.59,9.59,0,0,0-4.55.3C1047,294.72,1046.52,295.09,1046.49,295Z"/><path class="cls-14" d="M1041.34,309.29a1,1,0,0,1-.3,0,4.46,4.46,0,0,1-.86-.26,7,7,0,0,1-2.62-1.94,11.24,11.24,0,0,1-2.24-4.31,24.64,24.64,0,0,1-.72-5.87,39.62,39.62,0,0,0-.47-5.81,13,13,0,0,0-1.63-4.4,8.93,8.93,0,0,0-3.1-3s.11,0,.3.09a4.14,4.14,0,0,1,.79.4,7.52,7.52,0,0,1,2.32,2.3,12.78,12.78,0,0,1,1.8,4.51,37.1,37.1,0,0,1,.51,5.88,26.28,26.28,0,0,0,.66,5.77,11.32,11.32,0,0,0,2.06,4.19,7.34,7.34,0,0,0,2.43,2A9.87,9.87,0,0,1,1041.34,309.29Z"/><path class="cls-14" d="M1044.09,302.18a28.27,28.27,0,0,1-1.44-3.25l-3.35-7.9c-1.34-3.07-2.58-5.84-3.53-7.81s-1.62-3.16-1.55-3.2a3.27,3.27,0,0,1,.57.77c.34.52.79,1.29,1.31,2.26,1,1.94,2.33,4.69,3.67,7.77s2.46,5.91,3.22,8c.38,1,.67,1.87.86,2.46A4.07,4.07,0,0,1,1044.09,302.18Z"/><path class="cls-2" d="M963.83,323.69l64.47.52c2.1,0,4.1,1,4.41,3.07l7,47H1073a1.94,1.94,0,0,1,0,3.87H966.89l-7.25-49.6A4.24,4.24,0,0,1,963.83,323.69Z"/><path class="cls-5" d="M963.83,323.69a3.29,3.29,0,0,0-1,.09,4.25,4.25,0,0,0-2.46,1.63,4.19,4.19,0,0,0-.8,2.06,11.31,11.31,0,0,0,.24,2.65l.93,6.55c1.42,9.85,3.46,24.05,6,41.51l0,.17h.17l102.91.06h2.77a2.7,2.7,0,0,0,1.47-.28,2.2,2.2,0,0,0,0-3.84,2.66,2.66,0,0,0-1.46-.27h-32.81l.24.21c-2.53-16.83-4.9-32.53-7-46.62a3.7,3.7,0,0,0-1.19-2.45,4.84,4.84,0,0,0-2.47-1.09,20.87,20.87,0,0,0-2.6-.09l-2.53,0-9.71-.06-17.25-.11-24.56-.13H964.4c-.38,0-.57,0-.57,0l.57,0,1.7,0,6.57.09,24.56.28,17.25.17,9.71.09,2.53,0a21.07,21.07,0,0,1,2.53.1,4.22,4.22,0,0,1,2.25,1,3.18,3.18,0,0,1,1,2.2c2.1,14.09,4.45,29.79,7,46.62l0,.22h33a2.17,2.17,0,0,1,1.21.2,1.71,1.71,0,0,1,.76,2.05,1.74,1.74,0,0,1-.76.89,2.23,2.23,0,0,1-1.21.21h-2.77L966.89,378l.2.17c-2.59-17.45-4.69-31.64-6.15-41.48q-.56-3.69-1-6.54a11.93,11.93,0,0,1-.27-2.61,4.19,4.19,0,0,1,3.13-3.65A6.33,6.33,0,0,1,963.83,323.69Z"/><circle class="cls-14" cx="995.95" cy="350.32" r="4.04"/><path class="cls-5" d="M1037.14,377.72c-.09,0-2.14-12-4.58-26.73s-4.35-26.77-4.26-26.78,2.15,12,4.59,26.73S1037.23,377.7,1037.14,377.72Z"/><polygon class="cls-8" points="968.35 237.72 968.35 314.6 925.53 314.6 925.53 280.55 912.97 280.55 912.97 237.72 968.35 237.72"/><path class="cls-10" d="M977.56,265.68l-4.77-3-12.24-6.46s-2.43,2.36,1.67,5.76l5.07,4s4.49,8.25,5.46,8.86a57.47,57.47,0,0,0,5.38,2.2Z"/><path class="cls-14" d="M956.18,262.55h0l-5.11-11.16,1.24-.62-.46-.93-1.21.61-.17-.36a.52.52,0,0,0-.68-.26.55.55,0,0,0-.26.26l-.14.32a6.65,6.65,0,0,0-2.81-.62h-4.36v-1h1v-1h-.89l.38-1.49a2.14,2.14,0,1,0-4.16-1,2.28,2.28,0,0,0,0,1l.38,1.49h-.9v1h1v1h-4.36a6.65,6.65,0,0,0-2.81.62l-.14-.32a.52.52,0,0,0-.69-.25.57.57,0,0,0-.26.25l-.16.36-1.21-.61-.46.93,1.24.62-5.12,11.16a.52.52,0,0,0,0,.21,3.63,3.63,0,0,0,3.63,3.64h5.19a3.63,3.63,0,0,0,3.63-3.64.41.41,0,0,0,0-.21l-5.12-11.2a5.53,5.53,0,0,1,2.37-.52h4.36v19l-1.77,1.77h-1.86a2.6,2.6,0,0,0-2.6,2.59.52.52,0,0,0,.52.52h14.54a.52.52,0,0,0,.52-.52,2.61,2.61,0,0,0-2.6-2.59H944l-1.77-1.77v-19h4.36a5.61,5.61,0,0,1,2.38.52l-5.14,11.2a.54.54,0,0,0-.05.21,3.65,3.65,0,0,0,3.64,3.64h5.19a3.64,3.64,0,0,0,3.63-3.64A.54.54,0,0,0,956.18,262.55Zm-22.27,2.81h-5.19a2.6,2.6,0,0,1-2.54-2.08h10.27A2.59,2.59,0,0,1,933.91,265.36Zm2.31-3.11h-9.81l4.77-10.41a.42.42,0,0,0,.27,0ZM939.79,245a1.14,1.14,0,0,1,1.6-.14,1.85,1.85,0,0,1,.14.14,1.12,1.12,0,0,1,.2.95l-.44,1.74H940l-.44-1.74A1.12,1.12,0,0,1,939.79,245Zm.35,4.77v-1h1v1Zm1,1v18.68h-1V250.83Zm4.67,21.8a1.56,1.56,0,0,1,1.47,1H934a1.56,1.56,0,0,1,1.47-1Zm-3.33-1H938.8l1-1h1.64Zm7.35-19.75a.34.34,0,0,0,.26,0l4.77,10.42h-9.8Zm2.73,13.52h-5.19a2.6,2.6,0,0,1-2.55-2.08h10.28A2.6,2.6,0,0,1,952.6,265.36Z"/></svg>