<svg xmlns="http://www.w3.org/2000/svg" viewBox="0 0 220.56 195.12"><defs><style>.cls-1{isolation:isolate;}.cls-2,.cls-4{fill:#e6e6e6;}.cls-3{fill:#fff;}.cls-4{mix-blend-mode:multiply;}</style></defs><title>ugiland - casos de exito</title><g class="cls-1"><g id="Capa_2" data-name="Capa 2"><path class="cls-2" d="M67.9,29.43a10.42,10.42,0,0,0-7.68,2.85,10,10,0,0,0-2.9,7.57V83.73a18,18,0,0,1-5.19,13A17.39,17.39,0,0,1,39.24,102,18.17,18.17,0,0,1,21,83.69V40.08a10.36,10.36,0,0,0-2.92-7.71,10.25,10.25,0,0,0-7.66-2.94,9.94,9.94,0,0,0-7.54,2.91A10.52,10.52,0,0,0,0,40.06V83.61c0,11.32,3.68,20.51,11.25,28.11S28,123,39.24,123,59.46,119.3,67,111.65s11.26-16.79,11.26-28V39.84A9.74,9.74,0,0,0,67.9,29.43Z"/><path class="cls-2" d="M210,29.43a9.74,9.74,0,0,0-10.39,10.41V112.6A9.73,9.73,0,0,0,210,123a10.44,10.44,0,0,0,7.68-2.85,10,10,0,0,0,2.9-7.56V39.84C220.56,32.64,217.3,29.43,210,29.43Z"/><path class="cls-3" d="M184.36,27.48h0A11.17,11.17,0,0,0,170.69,26c-4.49,2.73-11.48,5.1-21.37,3.55A49.19,49.19,0,1,0,174.9,48.41a34.85,34.85,0,0,0,7.54-3.61A11.08,11.08,0,0,0,184.36,27.48ZM138.16,104a27.83,27.83,0,1,1,24-24A27.84,27.84,0,0,1,138.16,104Z"/><path class="cls-3" d="M155.55,136.63H114.09A29.22,29.22,0,0,0,85,165.76V166a29.22,29.22,0,0,0,29.13,29.13h41.46A29.22,29.22,0,0,0,184.68,166v-.23A29.22,29.22,0,0,0,155.55,136.63Zm-.66,37.45H114.74a8.2,8.2,0,1,1,0-16.4h40.15a8.2,8.2,0,1,1,0,16.4Z"/><path class="cls-2" d="M210.07,21a10,10,0,0,0,7.39-3.1,10,10,0,0,0,3.1-7.38,10,10,0,0,0-3.1-7.39,10.35,10.35,0,0,0-14.77,0,10,10,0,0,0-3.1,7.39,10,10,0,0,0,3.1,7.38A10,10,0,0,0,210.07,21Z"/><path class="cls-4" d="M210.07,123a10.59,10.59,0,1,0-7.38-3.1A10,10,0,0,0,210.07,123Z"/><path class="cls-4" d="M176.88,46.17a10.44,10.44,0,0,0,7.74-3.25,10.84,10.84,0,0,0,0-15.48,10.84,10.84,0,0,0-15.48,0,10.84,10.84,0,0,0,0,15.48A10.47,10.47,0,0,0,176.88,46.17Z"/><path class="cls-4" d="M67.8,50.4A10.59,10.59,0,0,0,78.29,39.92a10.44,10.44,0,0,0-17.87-7.39,10.35,10.35,0,0,0,0,14.77A10,10,0,0,0,67.8,50.4Z"/></g></g></svg>