<svg id="Capa_2" data-name="Capa 2" xmlns="http://www.w3.org/2000/svg" xmlns:xlink="http://www.w3.org/1999/xlink" viewBox="0 0 157.63 157.62"><defs><style>.cls-1{fill:none;}.cls-2{fill:#fff;}.cls-3{clip-path:url(#clip-path);}</style><clipPath id="clip-path"><path class="cls-1" d="M78.81,28.26a50.55,50.55,0,1,0,50.55,50.55A50.61,50.61,0,0,0,78.81,28.26Z"/></clipPath></defs><title>ugiland - casos de exito</title><path class="cls-2" d="M154.18,63.6,139,60l-.11-.35a62.86,62.86,0,0,0-4-9.72l-.16-.33,8.17-13.29a3.83,3.83,0,0,0-.56-4.76L126.11,15.33a3.83,3.83,0,0,0-4.76-.56l-13.3,8.17-.32-.16a62.39,62.39,0,0,0-9.73-4l-.35-.11L94,3.45a3.83,3.83,0,0,0-3.75-3H67.35a3.84,3.84,0,0,0-3.75,3L60,18.67l-.35.11a62.28,62.28,0,0,0-9.72,4l-.32.16-13.3-8.17a3.83,3.83,0,0,0-4.76.56L15.33,31.52a3.83,3.83,0,0,0-.56,4.76l8.17,13.29-.16.33a63.27,63.27,0,0,0-4,9.72l-.11.35L3.45,63.6a3.84,3.84,0,0,0-3,3.76v22.9a3.84,3.84,0,0,0,3,3.76l15.22,3.63.11.35a62.39,62.39,0,0,0,4,9.73l.16.32-8.17,13.3a3.82,3.82,0,0,0,.56,4.75l16.19,16.2a3.86,3.86,0,0,0,4.76.56l13.3-8.18.32.17a63.22,63.22,0,0,0,9.72,4L60,139l3.63,15.22a3.82,3.82,0,0,0,3.75,3H90.27a3.82,3.82,0,0,0,3.75-3L97.65,139l.35-.11a63.38,63.38,0,0,0,9.73-4l.32-.17,13.29,8.18a3.87,3.87,0,0,0,4.77-.56l16.19-16.19a3.84,3.84,0,0,0,.56-4.76l-8.18-13.3.17-.32a63.33,63.33,0,0,0,4-9.73l.12-.35L154.17,94a3.82,3.82,0,0,0,3-3.76V67.36A3.82,3.82,0,0,0,154.18,63.6Zm-.26,27.17-16.33,3.89a1.61,1.61,0,0,0-1.45,1.15,59.39,59.39,0,0,1-4.74,11.53,1.62,1.62,0,0,0,0,1.61l8.93,14.52-16.92,16.91-14.51-8.93a1.62,1.62,0,0,0-1.61,0,60,60,0,0,1-11.53,4.74,1.58,1.58,0,0,0-1.12,1.37l-3.91,16.4H66.85L63,137.6a1.61,1.61,0,0,0-1.15-1.45,60.2,60.2,0,0,1-11.52-4.74,1.62,1.62,0,0,0-1.61,0l-14.53,8.92L17.24,123.46l8.93-14.52a1.6,1.6,0,0,0,0-1.61A60,60,0,0,1,21.47,95.8a1.56,1.56,0,0,0-1.36-1.12L3.7,90.77V66.85L20,63a1.64,1.64,0,0,0,1.45-1.16A59.52,59.52,0,0,1,26.21,50.3a1.6,1.6,0,0,0,0-1.61L17.25,34.16,34.17,17.24l14.52,8.93a1.6,1.6,0,0,0,1.61,0,60.67,60.67,0,0,1,11.53-4.74A1.58,1.58,0,0,0,63,20.11L66.85,3.7H90.77L94.66,20a1.62,1.62,0,0,0,1.15,1.45,60.51,60.51,0,0,1,11.53,4.73,1.6,1.6,0,0,0,1.61,0l14.52-8.92,16.91,16.91-8.93,14.52a1.62,1.62,0,0,0,0,1.61,59.39,59.39,0,0,1,4.74,11.53A1.59,1.59,0,0,0,137.51,63l16.41,3.9Z"/><path class="cls-2" d="M78.81,28.26a50.55,50.55,0,1,0,50.55,50.55A50.61,50.61,0,0,0,78.81,28.26Zm0,97.62a47.07,47.07,0,0,1,0-94.13h0a47.07,47.07,0,1,1,0,94.13Z"/><g class="cls-3"><path class="cls-2" d="M84,82.63H73.58a1.83,1.83,0,1,0,0,3.66H84a1.83,1.83,0,0,0,0-3.66Z"/><path class="cls-2" d="M78.81,40.8A1.77,1.77,0,0,0,77,42.63v4.18a1.83,1.83,0,0,0,3.66,0V42.63A1.77,1.77,0,0,0,78.81,40.8Z"/><path class="cls-2" d="M92.83,54.5a2.41,2.41,0,0,0,1-.29l3.14-3.08a1.82,1.82,0,1,0-2.58-2.57l-2.92,2.93a1.8,1.8,0,0,0,0,2.57A1.9,1.9,0,0,0,92.83,54.5Z"/><path class="cls-2" d="M102.87,64.85H98.68a1.83,1.83,0,0,0,0,3.66h4.19a1.83,1.83,0,0,0,0-3.66Z"/><path class="cls-2" d="M94,79.52a1.84,1.84,0,0,0-2.57,0,1.78,1.78,0,0,0,0,2.57L94.36,85a1.93,1.93,0,0,0,1.4.44c.33,0,1.14,0,1.36-.65a1.8,1.8,0,0,0-.18-2.36Z"/><path class="cls-2" d="M63.41,79.52l-2.93,2.93a1.8,1.8,0,0,0-.55,1.28A1.83,1.83,0,0,0,60.48,85a1.9,1.9,0,0,0,1.39.44A1.53,1.53,0,0,0,63.05,85L66,82.09a1.8,1.8,0,0,0,0-2.57A1.84,1.84,0,0,0,63.41,79.52Z"/><path class="cls-2" d="M60.77,66.68a1.77,1.77,0,0,0-1.83-1.83H54.76a1.83,1.83,0,1,0,0,3.66h4.18A1.77,1.77,0,0,0,60.77,66.68Z"/><path class="cls-2" d="M63.41,54.06a1.9,1.9,0,0,0,1.39.44A1.73,1.73,0,0,0,66,53.85a1.8,1.8,0,0,0,0-2.57l-2.93-2.93a1.82,1.82,0,0,0-2.59,2.55Z"/><path class="cls-2" d="M78.72,57.08a1.34,1.34,0,1,0,0,2.67,7.13,7.13,0,0,1,7,7,1.34,1.34,0,0,0,2.67,0A9.71,9.71,0,0,0,78.72,57.08Z"/><path class="cls-2" d="M102.82,113.66a1.87,1.87,0,0,0-1.87,1.87v10.08h-4.9v-20.7a1.88,1.88,0,1,0-3.75,0v20.7H83l2.24-2.45a2.79,2.79,0,0,0,.66-2.27l-3.21-19,.26-.4a2.7,2.7,0,0,0,3.76-1.13l3.13-6.25L97,96.91a6.8,6.8,0,0,1,3.93,6.15v7.38a1.88,1.88,0,1,0,3.75,0v-7.38a10.55,10.55,0,0,0-6.28-9.63L85.87,88.58V83.84a6.92,6.92,0,0,1,2.62-5.24,14.82,14.82,0,0,0,5.75-11.92,15.74,15.74,0,0,0-4.62-11A15.43,15.43,0,0,0,63.39,66.48a15.25,15.25,0,0,0,5.91,12.3,6.53,6.53,0,0,1,2.45,4.84v5L59.17,93.45a10.53,10.53,0,0,0-6.24,9.61v22.73a3.57,3.57,0,0,0,3.57,3.57H66.89a1.88,1.88,0,1,0,0-3.75H65.33v-20.7a1.88,1.88,0,1,0-3.75,0v20.7h-4.9V103.06a6.79,6.79,0,0,1,3.9-6.14l7.16-2.77,3.12,6.25a2.69,2.69,0,0,0,2.41,1.49,2.6,2.6,0,0,0,1.35-.36l.27.4-3.22,19a2.77,2.77,0,0,0,.67,2.21l2.23,2.45H72a1.88,1.88,0,0,0,0,3.75h29.15a3.57,3.57,0,0,0,3.57-3.57V115.54A1.88,1.88,0,0,0,102.82,113.66ZM73,92.1l3.07,3.8-2.42,1.73-2.42-4.84Zm9.19-8.28-.09,3.53V89.2l-3.31,4.09-3.32-4.1-.08-5.56a9.91,9.91,0,0,0-3.84-7.72l0,0a11.4,11.4,0,0,1-4.49-9.38A12.09,12.09,0,0,1,78.81,54.92,11.5,11.5,0,0,1,87,58.25a11.68,11.68,0,0,1,3.54,8.43,11.36,11.36,0,0,1-4.32,9A10.87,10.87,0,0,0,82.21,83.82Zm4.15,9L84,97.63,81.52,95.9l3.08-3.8Zm-8.67,6.58,1.12-.8,1.12.8-.18.27H77.87Zm.76,4h.72l3,17.63-3.34,3.68L75.46,121Z"/></g></svg>