<svg id="Capa_2" data-name="Capa 2" xmlns="http://www.w3.org/2000/svg" xmlns:xlink="http://www.w3.org/1999/xlink" viewBox="0 0 1152.44 609.84"><defs><style>.cls-1{fill:#fff;}.cls-2{fill:none;stroke-width:0.75px;}.cls-13,.cls-2{stroke:#1a2e35;stroke-miterlimit:10;}.cls-13,.cls-3{fill:#1a2e35;}.cls-4{fill:#375a64;}.cls-5{fill:#f5f5f5;}.cls-6{fill:#ff4f5b;}.cls-7{fill:#ececec;}.cls-8{fill:#e1e1e1;}.cls-9{fill:#1a7fcd;}.cls-10{opacity:0.3;}.cls-11{fill:#a26760;}.cls-12{fill:#7b4b45;}.cls-14{clip-path:url(#clip-path);}.cls-15{fill:#e7e7e7;}.cls-16{fill:#f0f0f0;}.cls-17{clip-path:url(#clip-path-2);}.cls-18{fill:#0f4c81;}.cls-19{fill:#fafafa;}.cls-20{opacity:0.4;}.cls-21{clip-path:url(#clip-path-3);}</style><clipPath id="clip-path"><circle class="cls-1" cx="701.01" cy="419.43" r="77.85"/></clipPath><clipPath id="clip-path-2"><circle class="cls-1" cx="960.34" cy="412.09" r="85.77"/></clipPath><clipPath id="clip-path-3"><circle class="cls-1" cx="827.01" cy="497.91" r="85.77"/></clipPath></defs><title>ugiland - casos de exito</title><polyline class="cls-2" points="355.89 105.67 701.01 105.67 701.01 384.71"/><polyline class="cls-2" points="355.89 88.16 827.01 88.16 827.01 469.25"/><polyline class="cls-2" points="355.89 75.64 960.34 75.64 960.34 423.65"/><rect class="cls-3" x="363.77" y="351.21" width="211.53" height="232.09" transform="translate(939.08 934.5) rotate(180)"/><rect class="cls-4" x="374.94" y="397.63" width="231.25" height="57.37" transform="translate(981.14 852.63) rotate(180)"/><rect class="cls-3" x="550.39" y="409.44" width="45.53" height="7.01" transform="translate(1146.32 825.89) rotate(180)"/><rect class="cls-3" x="550.39" y="421.5" width="45.53" height="7" transform="translate(1146.32 850) rotate(180)"/><rect class="cls-3" x="550.39" y="433.96" width="45.53" height="7" transform="translate(1146.32 874.93) rotate(180)"/><path class="cls-3" d="M532.39,413.68a2.61,2.61,0,1,0,2.61-2.62A2.61,2.61,0,0,0,532.39,413.68Z"/><path class="cls-3" d="M520.86,413.68a2.61,2.61,0,1,0,2.61-2.62A2.61,2.61,0,0,0,520.86,413.68Z"/><path class="cls-3" d="M509.33,413.68a2.62,2.62,0,1,0,2.62-2.62A2.61,2.61,0,0,0,509.33,413.68Z"/><path class="cls-3" d="M497.81,413.68a2.61,2.61,0,1,0,2.61-2.62A2.61,2.61,0,0,0,497.81,413.68Z"/><path class="cls-3" d="M408.49,413.68a2.61,2.61,0,1,0,2.61-2.62A2.61,2.61,0,0,0,408.49,413.68Z"/><path class="cls-3" d="M396.74,413.68a2.61,2.61,0,1,0,2.61-2.62A2.61,2.61,0,0,0,396.74,413.68Z"/><path class="cls-3" d="M486.28,413.68a2.62,2.62,0,1,0,2.61-2.62A2.61,2.61,0,0,0,486.28,413.68Z"/><path class="cls-3" d="M429.68,413.68a2.61,2.61,0,1,0,2.61-2.62A2.61,2.61,0,0,0,429.68,413.68Z"/><path class="cls-5" d="M474.76,413.68a2.61,2.61,0,1,0,2.61-2.62A2.61,2.61,0,0,0,474.76,413.68Z"/><path class="cls-5" d="M463.23,413.68a2.61,2.61,0,1,0,2.61-2.62A2.61,2.61,0,0,0,463.23,413.68Z"/><path class="cls-5" d="M439.84,413.68a2.62,2.62,0,1,0,2.62-2.62A2.61,2.61,0,0,0,439.84,413.68Z"/><path class="cls-5" d="M387.17,413.68a2.62,2.62,0,1,0,2.61-2.62A2.61,2.61,0,0,0,387.17,413.68Z"/><path class="cls-6" d="M451.7,413.68a2.62,2.62,0,1,0,2.62-2.62A2.61,2.61,0,0,0,451.7,413.68Z"/><path class="cls-6" d="M418.7,413.68a2.62,2.62,0,1,0,2.61-2.62A2.61,2.61,0,0,0,418.7,413.68Z"/><path class="cls-3" d="M392.4,426.27a2.62,2.62,0,1,0-2.62,2.61A2.62,2.62,0,0,0,392.4,426.27Z"/><path class="cls-3" d="M403.92,426.27a2.61,2.61,0,1,0-2.61,2.61A2.61,2.61,0,0,0,403.92,426.27Z"/><path class="cls-3" d="M415.45,426.27a2.61,2.61,0,1,0-2.61,2.61A2.61,2.61,0,0,0,415.45,426.27Z"/><path class="cls-3" d="M427,426.27a2.62,2.62,0,1,0-2.62,2.61A2.62,2.62,0,0,0,427,426.27Z"/><path class="cls-3" d="M516.29,426.27a2.61,2.61,0,1,0-2.61,2.61A2.61,2.61,0,0,0,516.29,426.27Z"/><path class="cls-3" d="M528.05,426.27a2.62,2.62,0,1,0-2.61,2.61A2.61,2.61,0,0,0,528.05,426.27Z"/><path class="cls-3" d="M438.5,426.27a2.61,2.61,0,1,0-2.61,2.61A2.61,2.61,0,0,0,438.5,426.27Z"/><path class="cls-3" d="M495.11,426.27a2.62,2.62,0,1,0-2.61,2.61A2.61,2.61,0,0,0,495.11,426.27Z"/><path class="cls-5" d="M450,426.27a2.62,2.62,0,1,0-2.61,2.61A2.61,2.61,0,0,0,450,426.27Z"/><path class="cls-5" d="M461.55,426.27a2.61,2.61,0,1,0-2.61,2.61A2.61,2.61,0,0,0,461.55,426.27Z"/><path class="cls-5" d="M484.94,426.27a2.61,2.61,0,1,0-2.61,2.61A2.61,2.61,0,0,0,484.94,426.27Z"/><path class="cls-5" d="M537.61,426.27a2.61,2.61,0,1,0-2.61,2.61A2.61,2.61,0,0,0,537.61,426.27Z"/><path class="cls-6" d="M473.08,426.27a2.61,2.61,0,1,0-2.61,2.61A2.61,2.61,0,0,0,473.08,426.27Z"/><path class="cls-6" d="M506.08,426.27a2.61,2.61,0,1,0-2.61,2.61A2.61,2.61,0,0,0,506.08,426.27Z"/><circle class="cls-3" cx="535" cy="437.46" r="2.61"/><circle class="cls-3" cx="523.47" cy="437.46" r="2.61"/><circle class="cls-3" cx="511.95" cy="437.46" r="2.61"/><circle class="cls-3" cx="500.42" cy="437.46" r="2.61"/><circle class="cls-3" cx="411.1" cy="437.46" r="2.61"/><circle class="cls-3" cx="399.35" cy="437.46" r="2.61"/><circle class="cls-3" cx="488.89" cy="437.46" r="2.61"/><path class="cls-3" d="M429.68,437.46a2.61,2.61,0,1,0,2.61-2.61A2.61,2.61,0,0,0,429.68,437.46Z"/><circle class="cls-5" cx="477.37" cy="437.46" r="2.61"/><path class="cls-5" d="M463.23,437.46a2.61,2.61,0,1,0,2.61-2.61A2.61,2.61,0,0,0,463.23,437.46Z"/><circle class="cls-5" cx="442.46" cy="437.46" r="2.61"/><path class="cls-5" d="M387.17,437.46a2.62,2.62,0,1,0,2.61-2.61A2.61,2.61,0,0,0,387.17,437.46Z"/><circle class="cls-6" cx="454.32" cy="437.46" r="2.61"/><circle class="cls-6" cx="421.31" cy="437.46" r="2.61"/><rect class="cls-4" x="374.94" y="468.43" width="231.25" height="57.37" transform="translate(981.14 994.23) rotate(180)"/><path class="cls-3" d="M533,483.91a2.61,2.61,0,1,0,2.61-2.62A2.61,2.61,0,0,0,533,483.91Z"/><path class="cls-3" d="M521.43,483.91a2.62,2.62,0,1,0,2.62-2.62A2.61,2.61,0,0,0,521.43,483.91Z"/><path class="cls-3" d="M509.91,483.91a2.61,2.61,0,1,0,2.61-2.62A2.61,2.61,0,0,0,509.91,483.91Z"/><path class="cls-3" d="M498.38,483.91a2.61,2.61,0,1,0,2.61-2.62A2.61,2.61,0,0,0,498.38,483.91Z"/><path class="cls-3" d="M409.06,483.91a2.62,2.62,0,1,0,2.61-2.62A2.61,2.61,0,0,0,409.06,483.91Z"/><path class="cls-3" d="M397.31,483.91a2.61,2.61,0,1,0,2.61-2.62A2.61,2.61,0,0,0,397.31,483.91Z"/><path class="cls-3" d="M486.85,483.91a2.62,2.62,0,1,0,2.62-2.62A2.61,2.61,0,0,0,486.85,483.91Z"/><path class="cls-3" d="M430.25,483.91a2.61,2.61,0,1,0,2.61-2.62A2.61,2.61,0,0,0,430.25,483.91Z"/><path class="cls-5" d="M475.33,483.91a2.61,2.61,0,1,0,2.61-2.62A2.61,2.61,0,0,0,475.33,483.91Z"/><path class="cls-5" d="M463.8,483.91a2.62,2.62,0,1,0,2.61-2.62A2.61,2.61,0,0,0,463.8,483.91Z"/><path class="cls-5" d="M440.42,483.91a2.61,2.61,0,1,0,2.61-2.62A2.61,2.61,0,0,0,440.42,483.91Z"/><path class="cls-5" d="M387.75,483.91a2.61,2.61,0,1,0,2.61-2.62A2.61,2.61,0,0,0,387.75,483.91Z"/><path class="cls-6" d="M452.28,483.91a2.61,2.61,0,1,0,2.61-2.62A2.61,2.61,0,0,0,452.28,483.91Z"/><path class="cls-6" d="M419.27,483.91a2.62,2.62,0,1,0,2.62-2.62A2.61,2.61,0,0,0,419.27,483.91Z"/><path class="cls-3" d="M393,496.5a2.61,2.61,0,1,0-2.61,2.61A2.61,2.61,0,0,0,393,496.5Z"/><path class="cls-3" d="M404.5,496.5a2.62,2.62,0,1,0-2.62,2.61A2.62,2.62,0,0,0,404.5,496.5Z"/><path class="cls-3" d="M416,496.5a2.61,2.61,0,1,0-2.61,2.61A2.61,2.61,0,0,0,416,496.5Z"/><path class="cls-3" d="M427.55,496.5a2.62,2.62,0,1,0-2.61,2.61A2.61,2.61,0,0,0,427.55,496.5Z"/><path class="cls-3" d="M516.87,496.5a2.62,2.62,0,1,0-2.62,2.61A2.62,2.62,0,0,0,516.87,496.5Z"/><path class="cls-3" d="M528.62,496.5a2.61,2.61,0,1,0-2.61,2.61A2.61,2.61,0,0,0,528.62,496.5Z"/><path class="cls-3" d="M439.07,496.5a2.61,2.61,0,1,0-2.61,2.61A2.61,2.61,0,0,0,439.07,496.5Z"/><path class="cls-3" d="M495.68,496.5a2.61,2.61,0,1,0-2.61,2.61A2.61,2.61,0,0,0,495.68,496.5Z"/><path class="cls-5" d="M450.6,496.5a2.61,2.61,0,1,0-2.61,2.61A2.61,2.61,0,0,0,450.6,496.5Z"/><path class="cls-5" d="M462.13,496.5a2.62,2.62,0,1,0-2.61,2.61A2.61,2.61,0,0,0,462.13,496.5Z"/><path class="cls-5" d="M485.51,496.5a2.61,2.61,0,1,0-2.61,2.61A2.61,2.61,0,0,0,485.51,496.5Z"/><path class="cls-5" d="M538.18,496.5a2.61,2.61,0,1,0-2.61,2.61A2.61,2.61,0,0,0,538.18,496.5Z"/><path class="cls-6" d="M473.65,496.5a2.61,2.61,0,1,0-2.61,2.61A2.61,2.61,0,0,0,473.65,496.5Z"/><path class="cls-6" d="M506.65,496.5a2.61,2.61,0,1,0-2.61,2.61A2.61,2.61,0,0,0,506.65,496.5Z"/><circle class="cls-3" cx="535.57" cy="507.69" r="2.61"/><circle class="cls-3" cx="524.05" cy="507.69" r="2.61"/><circle class="cls-3" cx="512.52" cy="507.69" r="2.61"/><circle class="cls-3" cx="500.99" cy="507.69" r="2.61"/><circle class="cls-3" cx="411.67" cy="507.69" r="2.61"/><circle class="cls-3" cx="399.92" cy="507.69" r="2.61"/><circle class="cls-3" cx="489.47" cy="507.69" r="2.61"/><circle class="cls-3" cx="432.86" cy="507.69" r="2.61"/><circle class="cls-5" cx="477.94" cy="507.69" r="2.61"/><circle class="cls-5" cx="466.41" cy="507.69" r="2.61"/><circle class="cls-5" cx="443.03" cy="507.69" r="2.61"/><path class="cls-5" d="M387.75,507.69a2.61,2.61,0,1,0,2.61-2.61A2.61,2.61,0,0,0,387.75,507.69Z"/><circle class="cls-6" cx="454.89" cy="507.69" r="2.61"/><circle class="cls-6" cx="421.89" cy="507.69" r="2.61"/><rect class="cls-3" x="550.39" y="480.24" width="45.53" height="7" transform="translate(1146.32 967.49) rotate(180)"/><rect class="cls-3" x="550.39" y="492.3" width="45.53" height="7.01" transform="translate(1146.32 991.6) rotate(180)"/><rect class="cls-3" x="550.39" y="504.76" width="45.53" height="7" transform="translate(1146.32 1016.53) rotate(180)"/><rect class="cls-4" x="374.94" y="539.23" width="231.25" height="57.37" transform="translate(981.14 1135.83) rotate(180)"/><rect class="cls-3" x="550.39" y="551.04" width="45.53" height="7" transform="translate(1146.32 1109.09) rotate(180)"/><rect class="cls-3" x="550.39" y="563.1" width="45.53" height="7" transform="translate(1146.32 1133.2) rotate(180)"/><rect class="cls-3" x="550.39" y="575.56" width="45.53" height="7" transform="translate(1146.32 1158.13) rotate(180)"/><path class="cls-3" d="M533.8,554.71a2.61,2.61,0,1,0,2.61-2.62A2.61,2.61,0,0,0,533.8,554.71Z"/><path class="cls-3" d="M522.27,554.71a2.62,2.62,0,1,0,2.61-2.62A2.61,2.61,0,0,0,522.27,554.71Z"/><path class="cls-3" d="M510.75,554.71a2.61,2.61,0,1,0,2.61-2.62A2.61,2.61,0,0,0,510.75,554.71Z"/><path class="cls-3" d="M499.22,554.71a2.61,2.61,0,1,0,2.61-2.62A2.61,2.61,0,0,0,499.22,554.71Z"/><path class="cls-3" d="M409.9,554.71a2.61,2.61,0,1,0,2.61-2.62A2.61,2.61,0,0,0,409.9,554.71Z"/><path class="cls-3" d="M398.15,554.71a2.61,2.61,0,1,0,2.61-2.62A2.61,2.61,0,0,0,398.15,554.71Z"/><path class="cls-3" d="M487.69,554.71a2.62,2.62,0,1,0,2.61-2.62A2.61,2.61,0,0,0,487.69,554.71Z"/><path class="cls-3" d="M431.09,554.71a2.61,2.61,0,1,0,2.61-2.62A2.61,2.61,0,0,0,431.09,554.71Z"/><path class="cls-5" d="M476.17,554.71a2.61,2.61,0,1,0,2.61-2.62A2.61,2.61,0,0,0,476.17,554.71Z"/><path class="cls-5" d="M464.64,554.71a2.61,2.61,0,1,0,2.61-2.62A2.61,2.61,0,0,0,464.64,554.71Z"/><path class="cls-5" d="M441.25,554.71a2.62,2.62,0,1,0,2.62-2.62A2.61,2.61,0,0,0,441.25,554.71Z"/><path class="cls-5" d="M388.58,554.71a2.62,2.62,0,1,0,2.62-2.62A2.61,2.61,0,0,0,388.58,554.71Z"/><path class="cls-6" d="M453.11,554.71a2.62,2.62,0,1,0,2.62-2.62A2.61,2.61,0,0,0,453.11,554.71Z"/><path class="cls-6" d="M420.11,554.71a2.62,2.62,0,1,0,2.61-2.62A2.61,2.61,0,0,0,420.11,554.71Z"/><path class="cls-3" d="M393.81,567.3a2.62,2.62,0,1,0-2.61,2.61A2.61,2.61,0,0,0,393.81,567.3Z"/><path class="cls-3" d="M405.33,567.3a2.61,2.61,0,1,0-2.61,2.61A2.61,2.61,0,0,0,405.33,567.3Z"/><path class="cls-3" d="M416.86,567.3a2.61,2.61,0,1,0-2.61,2.61A2.61,2.61,0,0,0,416.86,567.3Z"/><path class="cls-3" d="M428.39,567.3a2.62,2.62,0,1,0-2.62,2.61A2.61,2.61,0,0,0,428.39,567.3Z"/><path class="cls-3" d="M517.7,567.3a2.61,2.61,0,1,0-2.61,2.61A2.61,2.61,0,0,0,517.7,567.3Z"/><path class="cls-3" d="M529.46,567.3a2.62,2.62,0,1,0-2.61,2.61A2.61,2.61,0,0,0,529.46,567.3Z"/><path class="cls-3" d="M439.91,567.3a2.61,2.61,0,1,0-2.61,2.61A2.61,2.61,0,0,0,439.91,567.3Z"/><path class="cls-3" d="M496.52,567.3a2.62,2.62,0,1,0-2.61,2.61A2.61,2.61,0,0,0,496.52,567.3Z"/><path class="cls-5" d="M451.44,567.3a2.62,2.62,0,1,0-2.61,2.61A2.61,2.61,0,0,0,451.44,567.3Z"/><path class="cls-5" d="M463,567.3a2.61,2.61,0,1,0-2.61,2.61A2.6,2.6,0,0,0,463,567.3Z"/><path class="cls-5" d="M486.35,567.3a2.61,2.61,0,1,0-2.61,2.61A2.61,2.61,0,0,0,486.35,567.3Z"/><path class="cls-5" d="M539,567.3a2.61,2.61,0,1,0-2.61,2.61A2.61,2.61,0,0,0,539,567.3Z"/><path class="cls-6" d="M474.49,567.3a2.61,2.61,0,1,0-2.61,2.61A2.61,2.61,0,0,0,474.49,567.3Z"/><path class="cls-6" d="M507.49,567.3a2.61,2.61,0,1,0-2.61,2.61A2.61,2.61,0,0,0,507.49,567.3Z"/><path class="cls-3" d="M533.8,578.49a2.61,2.61,0,1,0,2.61-2.61A2.61,2.61,0,0,0,533.8,578.49Z"/><path class="cls-3" d="M522.27,578.49a2.62,2.62,0,1,0,2.61-2.61A2.61,2.61,0,0,0,522.27,578.49Z"/><path class="cls-3" d="M510.75,578.49a2.61,2.61,0,1,0,2.61-2.61A2.61,2.61,0,0,0,510.75,578.49Z"/><path class="cls-3" d="M499.22,578.49a2.61,2.61,0,1,0,2.61-2.61A2.61,2.61,0,0,0,499.22,578.49Z"/><path class="cls-3" d="M409.9,578.49a2.61,2.61,0,1,0,2.61-2.61A2.61,2.61,0,0,0,409.9,578.49Z"/><path class="cls-3" d="M398.15,578.49a2.61,2.61,0,1,0,2.61-2.61A2.61,2.61,0,0,0,398.15,578.49Z"/><path class="cls-3" d="M487.69,578.49a2.62,2.62,0,1,0,2.61-2.61A2.61,2.61,0,0,0,487.69,578.49Z"/><path class="cls-3" d="M431.09,578.49a2.61,2.61,0,1,0,2.61-2.61A2.61,2.61,0,0,0,431.09,578.49Z"/><path class="cls-5" d="M476.17,578.49a2.61,2.61,0,1,0,2.61-2.61A2.61,2.61,0,0,0,476.17,578.49Z"/><path class="cls-5" d="M464.64,578.49a2.61,2.61,0,1,0,2.61-2.61A2.61,2.61,0,0,0,464.64,578.49Z"/><path class="cls-5" d="M441.25,578.49a2.62,2.62,0,1,0,2.62-2.61A2.62,2.62,0,0,0,441.25,578.49Z"/><path class="cls-5" d="M388.58,578.49a2.62,2.62,0,1,0,2.62-2.61A2.62,2.62,0,0,0,388.58,578.49Z"/><path class="cls-6" d="M453.11,578.49a2.62,2.62,0,1,0,2.62-2.61A2.62,2.62,0,0,0,453.11,578.49Z"/><path class="cls-6" d="M420.11,578.49a2.62,2.62,0,1,0,2.61-2.61A2.61,2.61,0,0,0,420.11,578.49Z"/><polygon class="cls-3" points="340.18 454.91 374.94 455 374.94 397.63 340.18 397.53 340.18 454.91"/><polygon class="cls-3" points="340.18 385.15 374.94 385.24 374.94 327.87 340.18 327.77 340.18 385.15"/><polygon class="cls-3" points="340.18 525.26 374.94 525.35 374.94 467.98 340.18 467.89 340.18 525.26"/><polygon class="cls-3" points="340.18 596.51 374.94 596.6 374.94 539.23 340.18 539.13 340.18 596.51"/><rect class="cls-4" x="373.27" y="327.34" width="231.25" height="57.37" transform="translate(977.79 712.05) rotate(180)"/><rect class="cls-3" x="548.72" y="339.15" width="45.53" height="7.01" transform="translate(1142.97 685.31) rotate(180)"/><rect class="cls-3" x="548.72" y="351.21" width="45.53" height="7" transform="translate(1142.97 709.42) rotate(180)"/><rect class="cls-3" x="548.72" y="363.67" width="45.53" height="7" transform="translate(1142.97 734.35) rotate(180)"/><path class="cls-3" d="M530.71,343.39a2.62,2.62,0,1,0,2.61-2.62A2.61,2.61,0,0,0,530.71,343.39Z"/><path class="cls-3" d="M519.19,343.39a2.61,2.61,0,1,0,2.61-2.62A2.61,2.61,0,0,0,519.19,343.39Z"/><path class="cls-3" d="M507.66,343.39a2.61,2.61,0,1,0,2.61-2.62A2.61,2.61,0,0,0,507.66,343.39Z"/><path class="cls-3" d="M496.13,343.39a2.62,2.62,0,1,0,2.62-2.62A2.61,2.61,0,0,0,496.13,343.39Z"/><path class="cls-3" d="M406.82,343.39a2.61,2.61,0,1,0,2.61-2.62A2.61,2.61,0,0,0,406.82,343.39Z"/><path class="cls-3" d="M395.06,343.39a2.62,2.62,0,1,0,2.61-2.62A2.61,2.61,0,0,0,395.06,343.39Z"/><path class="cls-3" d="M484.61,343.39a2.61,2.61,0,1,0,2.61-2.62A2.61,2.61,0,0,0,484.61,343.39Z"/><path class="cls-3" d="M428,343.39a2.62,2.62,0,1,0,2.61-2.62A2.61,2.61,0,0,0,428,343.39Z"/><path class="cls-5" d="M473.08,343.39a2.62,2.62,0,1,0,2.61-2.62A2.61,2.61,0,0,0,473.08,343.39Z"/><path class="cls-5" d="M461.56,343.39a2.61,2.61,0,1,0,2.61-2.62A2.61,2.61,0,0,0,461.56,343.39Z"/><path class="cls-5" d="M438.17,343.39a2.61,2.61,0,1,0,2.61-2.62A2.61,2.61,0,0,0,438.17,343.39Z"/><path class="cls-5" d="M385.5,343.39a2.61,2.61,0,1,0,2.61-2.62A2.61,2.61,0,0,0,385.5,343.39Z"/><path class="cls-6" d="M450,343.39a2.61,2.61,0,1,0,2.61-2.62A2.61,2.61,0,0,0,450,343.39Z"/><path class="cls-6" d="M417,343.39a2.61,2.61,0,1,0,2.61-2.62A2.61,2.61,0,0,0,417,343.39Z"/><path class="cls-3" d="M390.72,356a2.61,2.61,0,1,0-2.61,2.61A2.61,2.61,0,0,0,390.72,356Z"/><path class="cls-3" d="M402.25,356a2.62,2.62,0,1,0-2.61,2.61A2.61,2.61,0,0,0,402.25,356Z"/><path class="cls-3" d="M413.77,356a2.61,2.61,0,1,0-2.61,2.61A2.61,2.61,0,0,0,413.77,356Z"/><path class="cls-3" d="M425.3,356a2.61,2.61,0,1,0-2.61,2.61A2.61,2.61,0,0,0,425.3,356Z"/><path class="cls-3" d="M514.62,356a2.61,2.61,0,1,0-2.61,2.61A2.61,2.61,0,0,0,514.62,356Z"/><path class="cls-3" d="M526.37,356a2.61,2.61,0,1,0-2.61,2.61A2.61,2.61,0,0,0,526.37,356Z"/><path class="cls-3" d="M436.83,356a2.62,2.62,0,1,0-2.61,2.61A2.61,2.61,0,0,0,436.83,356Z"/><path class="cls-3" d="M493.43,356a2.61,2.61,0,1,0-2.61,2.61A2.61,2.61,0,0,0,493.43,356Z"/><path class="cls-5" d="M448.35,356a2.61,2.61,0,1,0-2.61,2.61A2.61,2.61,0,0,0,448.35,356Z"/><path class="cls-5" d="M459.88,356a2.61,2.61,0,1,0-2.61,2.61A2.61,2.61,0,0,0,459.88,356Z"/><path class="cls-5" d="M483.27,356a2.62,2.62,0,1,0-2.62,2.61A2.62,2.62,0,0,0,483.27,356Z"/><path class="cls-5" d="M535.94,356a2.62,2.62,0,1,0-2.62,2.61A2.62,2.62,0,0,0,535.94,356Z"/><path class="cls-6" d="M471.41,356a2.62,2.62,0,1,0-2.62,2.61A2.62,2.62,0,0,0,471.41,356Z"/><path class="cls-6" d="M504.41,356a2.62,2.62,0,1,0-2.61,2.61A2.61,2.61,0,0,0,504.41,356Z"/><path class="cls-3" d="M530.71,367.17a2.62,2.62,0,1,0,2.61-2.61A2.61,2.61,0,0,0,530.71,367.17Z"/><path class="cls-3" d="M519.19,367.17a2.61,2.61,0,1,0,2.61-2.61A2.61,2.61,0,0,0,519.19,367.17Z"/><path class="cls-3" d="M507.66,367.17a2.61,2.61,0,1,0,2.61-2.61A2.61,2.61,0,0,0,507.66,367.17Z"/><path class="cls-3" d="M496.13,367.17a2.62,2.62,0,1,0,2.62-2.61A2.62,2.62,0,0,0,496.13,367.17Z"/><path class="cls-3" d="M406.82,367.17a2.61,2.61,0,1,0,2.61-2.61A2.61,2.61,0,0,0,406.82,367.17Z"/><path class="cls-3" d="M395.06,367.17a2.62,2.62,0,1,0,2.61-2.61A2.61,2.61,0,0,0,395.06,367.17Z"/><path class="cls-3" d="M484.61,367.17a2.61,2.61,0,1,0,2.61-2.61A2.61,2.61,0,0,0,484.61,367.17Z"/><path class="cls-3" d="M428,367.17a2.62,2.62,0,1,0,2.61-2.61A2.61,2.61,0,0,0,428,367.17Z"/><path class="cls-5" d="M473.08,367.17a2.62,2.62,0,1,0,2.61-2.61A2.61,2.61,0,0,0,473.08,367.17Z"/><path class="cls-5" d="M461.56,367.17a2.61,2.61,0,1,0,2.61-2.61A2.61,2.61,0,0,0,461.56,367.17Z"/><path class="cls-5" d="M438.17,367.17a2.61,2.61,0,1,0,2.61-2.61A2.61,2.61,0,0,0,438.17,367.17Z"/><path class="cls-5" d="M385.5,367.17a2.61,2.61,0,1,0,2.61-2.61A2.61,2.61,0,0,0,385.5,367.17Z"/><path class="cls-6" d="M450,367.17a2.61,2.61,0,1,0,2.61-2.61A2.61,2.61,0,0,0,450,367.17Z"/><path class="cls-6" d="M417,367.17a2.61,2.61,0,1,0,2.61-2.61A2.61,2.61,0,0,0,417,367.17Z"/><rect class="cls-7" x="174.56" y="40.11" width="181.33" height="555.46" transform="translate(530.45 635.68) rotate(180)"/><polygon class="cls-8" points="31.51 595.57 174.56 595.57 174.82 40.11 31.51 40.11 31.51 595.57"/><rect class="cls-3" x="192.03" y="129.01" width="153.82" height="43.3" transform="translate(537.89 301.32) rotate(180)"/><rect class="cls-4" x="332.95" y="134.45" width="8.61" height="33.14" transform="translate(674.5 302.04) rotate(180)"/><path class="cls-1" d="M322.8,141.42a2.74,2.74,0,1,0,2.74-2.74A2.74,2.74,0,0,0,322.8,141.42Z"/><path class="cls-1" d="M322.8,153.13a2.74,2.74,0,1,0,2.74-2.73A2.74,2.74,0,0,0,322.8,153.13Z"/><rect class="cls-4" x="303.39" y="138.68" width="8.46" height="25.46" transform="translate(615.25 302.83) rotate(180)"/><rect class="cls-4" x="291.17" y="138.68" width="8.46" height="25.46" transform="translate(590.8 302.83) rotate(180)"/><rect class="cls-4" x="278.94" y="138.68" width="8.46" height="25.46" transform="translate(566.35 302.83) rotate(180)"/><rect class="cls-4" x="266.72" y="138.68" width="8.46" height="25.46" transform="translate(541.89 302.83) rotate(180)"/><rect class="cls-4" x="254.49" y="138.68" width="8.46" height="25.46" transform="translate(517.44 302.83) rotate(180)"/><rect class="cls-4" x="242.26" y="138.68" width="8.46" height="25.46" transform="translate(492.99 302.83) rotate(180)"/><rect class="cls-4" x="230.04" y="138.68" width="8.46" height="25.46" transform="translate(468.54 302.83) rotate(180)"/><rect class="cls-4" x="217.81" y="138.68" width="8.46" height="25.46" transform="translate(444.09 302.83) rotate(180)"/><rect class="cls-4" x="205.59" y="138.68" width="8.46" height="25.46" transform="translate(419.64 302.83) rotate(180)"/><rect class="cls-4" x="193.36" y="138.68" width="8.46" height="25.46" transform="translate(395.19 302.83) rotate(180)"/><rect class="cls-3" x="192.03" y="191.22" width="153.82" height="43.3" transform="translate(537.89 425.74) rotate(180)"/><rect class="cls-4" x="332.95" y="196.66" width="8.61" height="33.14" transform="translate(674.5 426.46) rotate(180)"/><path class="cls-1" d="M322.8,203.63a2.74,2.74,0,1,0,2.74-2.73A2.74,2.74,0,0,0,322.8,203.63Z"/><path class="cls-1" d="M322.8,215.34a2.74,2.74,0,1,0,2.74-2.73A2.73,2.73,0,0,0,322.8,215.34Z"/><rect class="cls-4" x="303.39" y="200.9" width="8.46" height="25.46" transform="translate(615.25 427.25) rotate(180)"/><rect class="cls-4" x="291.17" y="200.9" width="8.46" height="25.46" transform="translate(590.8 427.25) rotate(180)"/><rect class="cls-4" x="278.94" y="200.9" width="8.46" height="25.46" transform="translate(566.35 427.25) rotate(180)"/><rect class="cls-4" x="266.72" y="200.9" width="8.46" height="25.46" transform="translate(541.89 427.25) rotate(180)"/><rect class="cls-4" x="254.49" y="200.9" width="8.46" height="25.46" transform="translate(517.44 427.25) rotate(180)"/><rect class="cls-4" x="242.26" y="200.9" width="8.46" height="25.46" transform="translate(492.99 427.25) rotate(180)"/><rect class="cls-4" x="230.04" y="200.9" width="8.46" height="25.46" transform="translate(468.54 427.25) rotate(180)"/><rect class="cls-4" x="217.81" y="200.9" width="8.46" height="25.46" transform="translate(444.09 427.25) rotate(180)"/><rect class="cls-4" x="205.59" y="200.9" width="8.46" height="25.46" transform="translate(419.64 427.25) rotate(180)"/><rect class="cls-4" x="193.36" y="200.9" width="8.46" height="25.46" transform="translate(395.19 427.25) rotate(180)"/><rect class="cls-3" x="192.03" y="253.93" width="153.82" height="43.3" transform="translate(537.89 551.16) rotate(180)"/><rect class="cls-4" x="332.95" y="259.37" width="8.61" height="33.14" transform="translate(674.5 551.88) rotate(180)"/><path class="cls-1" d="M322.8,266.34a2.74,2.74,0,1,0,2.74-2.74A2.74,2.74,0,0,0,322.8,266.34Z"/><path class="cls-1" d="M322.8,278.05a2.74,2.74,0,1,0,2.74-2.74A2.74,2.74,0,0,0,322.8,278.05Z"/><rect class="cls-4" x="303.39" y="263.6" width="8.46" height="25.46" transform="translate(615.25 552.67) rotate(180)"/><rect class="cls-4" x="291.17" y="263.6" width="8.46" height="25.46" transform="translate(590.8 552.67) rotate(180)"/><rect class="cls-4" x="278.94" y="263.6" width="8.46" height="25.46" transform="translate(566.35 552.67) rotate(180)"/><rect class="cls-4" x="266.72" y="263.6" width="8.46" height="25.46" transform="translate(541.89 552.67) rotate(180)"/><rect class="cls-4" x="254.49" y="263.6" width="8.46" height="25.46" transform="translate(517.44 552.67) rotate(180)"/><rect class="cls-4" x="242.26" y="263.6" width="8.46" height="25.46" transform="translate(492.99 552.67) rotate(180)"/><rect class="cls-4" x="230.04" y="263.6" width="8.46" height="25.46" transform="translate(468.54 552.67) rotate(180)"/><rect class="cls-4" x="217.81" y="263.6" width="8.46" height="25.46" transform="translate(444.09 552.67) rotate(180)"/><rect class="cls-4" x="205.59" y="263.6" width="8.46" height="25.46" transform="translate(419.64 552.67) rotate(180)"/><rect class="cls-4" x="193.36" y="263.6" width="8.46" height="25.46" transform="translate(395.19 552.67) rotate(180)"/><rect class="cls-3" x="192.03" y="321.67" width="153.82" height="43.3" transform="translate(537.89 686.64) rotate(180)"/><rect class="cls-4" x="332.95" y="327.11" width="8.61" height="33.14" transform="translate(674.5 687.36) rotate(180)"/><path class="cls-1" d="M322.8,334.08a2.74,2.74,0,1,0,2.74-2.74A2.74,2.74,0,0,0,322.8,334.08Z"/><path class="cls-1" d="M322.8,345.79a2.74,2.74,0,1,0,2.74-2.73A2.74,2.74,0,0,0,322.8,345.79Z"/><rect class="cls-4" x="303.39" y="331.34" width="8.46" height="25.46" transform="translate(615.25 688.15) rotate(180)"/><rect class="cls-4" x="291.17" y="331.34" width="8.46" height="25.46" transform="translate(590.8 688.15) rotate(180)"/><rect class="cls-4" x="278.94" y="331.34" width="8.46" height="25.46" transform="translate(566.35 688.15) rotate(180)"/><rect class="cls-4" x="266.72" y="331.34" width="8.46" height="25.46" transform="translate(541.89 688.15) rotate(180)"/><rect class="cls-4" x="254.49" y="331.34" width="8.46" height="25.46" transform="translate(517.44 688.15) rotate(180)"/><rect class="cls-4" x="242.26" y="331.34" width="8.46" height="25.46" transform="translate(492.99 688.15) rotate(180)"/><rect class="cls-4" x="230.04" y="331.34" width="8.46" height="25.46" transform="translate(468.54 688.15) rotate(180)"/><rect class="cls-4" x="217.81" y="331.34" width="8.46" height="25.46" transform="translate(444.09 688.15) rotate(180)"/><rect class="cls-4" x="205.59" y="331.34" width="8.46" height="25.46" transform="translate(419.64 688.15) rotate(180)"/><rect class="cls-4" x="193.36" y="331.34" width="8.46" height="25.46" transform="translate(395.19 688.15) rotate(180)"/><rect class="cls-3" x="192.03" y="390.08" width="153.82" height="43.3" transform="translate(537.89 823.46) rotate(180)"/><rect class="cls-4" x="332.95" y="395.52" width="8.61" height="33.14" transform="translate(674.5 824.18) rotate(180)"/><path class="cls-1" d="M322.8,402.49a2.74,2.74,0,1,0,2.74-2.73A2.74,2.74,0,0,0,322.8,402.49Z"/><path class="cls-1" d="M322.8,414.2a2.74,2.74,0,1,0,2.74-2.73A2.73,2.73,0,0,0,322.8,414.2Z"/><rect class="cls-4" x="303.39" y="399.76" width="8.46" height="25.46" transform="translate(615.25 824.97) rotate(180)"/><rect class="cls-4" x="291.17" y="399.76" width="8.46" height="25.46" transform="translate(590.8 824.97) rotate(180)"/><rect class="cls-4" x="278.94" y="399.76" width="8.46" height="25.46" transform="translate(566.35 824.97) rotate(180)"/><rect class="cls-4" x="266.72" y="399.76" width="8.46" height="25.46" transform="translate(541.89 824.97) rotate(180)"/><rect class="cls-4" x="254.49" y="399.76" width="8.46" height="25.46" transform="translate(517.44 824.97) rotate(180)"/><rect class="cls-4" x="242.26" y="399.76" width="8.46" height="25.46" transform="translate(492.99 824.97) rotate(180)"/><rect class="cls-4" x="230.04" y="399.76" width="8.46" height="25.46" transform="translate(468.54 824.97) rotate(180)"/><rect class="cls-4" x="217.81" y="399.76" width="8.46" height="25.46" transform="translate(444.09 824.97) rotate(180)"/><rect class="cls-4" x="205.59" y="399.76" width="8.46" height="25.46" transform="translate(419.64 824.97) rotate(180)"/><rect class="cls-4" x="193.36" y="399.76" width="8.46" height="25.46" transform="translate(395.19 824.97) rotate(180)"/><rect class="cls-3" x="192.03" y="526.23" width="153.82" height="43.3" transform="translate(537.89 1095.76) rotate(180)"/><rect class="cls-4" x="332.95" y="531.67" width="8.61" height="33.14" transform="translate(674.5 1096.49) rotate(180)"/><path class="cls-1" d="M322.8,538.64a2.74,2.74,0,1,0,2.74-2.73A2.73,2.73,0,0,0,322.8,538.64Z"/><path class="cls-1" d="M322.8,550.35a2.74,2.74,0,1,0,2.74-2.73A2.73,2.73,0,0,0,322.8,550.35Z"/><rect class="cls-4" x="303.39" y="535.91" width="8.46" height="25.46" transform="translate(615.25 1097.27) rotate(180)"/><rect class="cls-4" x="291.17" y="535.91" width="8.46" height="25.46" transform="translate(590.8 1097.27) rotate(180)"/><rect class="cls-4" x="278.94" y="535.91" width="8.46" height="25.46" transform="translate(566.35 1097.27) rotate(180)"/><rect class="cls-4" x="266.72" y="535.91" width="8.46" height="25.46" transform="translate(541.89 1097.27) rotate(180)"/><rect class="cls-4" x="254.49" y="535.91" width="8.46" height="25.46" transform="translate(517.44 1097.27) rotate(180)"/><rect class="cls-4" x="242.26" y="535.91" width="8.46" height="25.46" transform="translate(492.99 1097.27) rotate(180)"/><rect class="cls-4" x="230.04" y="535.91" width="8.46" height="25.46" transform="translate(468.54 1097.27) rotate(180)"/><rect class="cls-4" x="217.81" y="535.91" width="8.46" height="25.46" transform="translate(444.09 1097.27) rotate(180)"/><rect class="cls-4" x="205.59" y="535.91" width="8.46" height="25.46" transform="translate(419.64 1097.27) rotate(180)"/><rect class="cls-4" x="193.36" y="535.91" width="8.46" height="25.46" transform="translate(395.19 1097.27) rotate(180)"/><rect class="cls-3" x="192.03" y="458.21" width="153.82" height="43.3" transform="translate(537.89 959.73) rotate(180)"/><rect class="cls-4" x="332.95" y="463.66" width="8.61" height="33.14" transform="translate(674.5 960.45) rotate(180)"/><path class="cls-1" d="M322.8,470.63a2.74,2.74,0,1,0,2.74-2.74A2.73,2.73,0,0,0,322.8,470.63Z"/><path class="cls-1" d="M322.8,482.34a2.74,2.74,0,1,0,2.74-2.74A2.74,2.74,0,0,0,322.8,482.34Z"/><rect class="cls-4" x="303.39" y="467.89" width="8.46" height="25.46" transform="translate(615.25 961.24) rotate(180)"/><rect class="cls-4" x="291.17" y="467.89" width="8.46" height="25.46" transform="translate(590.8 961.24) rotate(180)"/><rect class="cls-4" x="278.94" y="467.89" width="8.46" height="25.46" transform="translate(566.35 961.24) rotate(180)"/><rect class="cls-4" x="266.72" y="467.89" width="8.46" height="25.46" transform="translate(541.89 961.24) rotate(180)"/><rect class="cls-4" x="254.49" y="467.89" width="8.46" height="25.46" transform="translate(517.44 961.24) rotate(180)"/><rect class="cls-4" x="242.26" y="467.89" width="8.46" height="25.46" transform="translate(492.99 961.24) rotate(180)"/><rect class="cls-4" x="230.04" y="467.89" width="8.46" height="25.46" transform="translate(468.54 961.24) rotate(180)"/><rect class="cls-4" x="217.81" y="467.89" width="8.46" height="25.46" transform="translate(444.09 961.24) rotate(180)"/><rect class="cls-4" x="205.59" y="467.89" width="8.46" height="25.46" transform="translate(419.64 961.24) rotate(180)"/><rect class="cls-4" x="193.36" y="467.89" width="8.46" height="25.46" transform="translate(395.19 961.24) rotate(180)"/><path class="cls-3" d="M250.73,129a6.8,6.8,0,0,0,.15-1.34c.06-.88.11-2.18.15-3.85s.08-3.71.19-6.07a38.49,38.49,0,0,1,1.05-7.91,28.3,28.3,0,0,1,4.11-8.66,19.23,19.23,0,0,1,8.43-6.78,40.86,40.86,0,0,1,12-2.43L290,90.82c18.16-1.57,34.62-2.58,46.56-2.79,6-.13,10.79-.09,14.13-.07l3.85,0a6.27,6.27,0,0,0,1.34,0,7.91,7.91,0,0,0-1.33-.15l-3.85-.22c-3.34-.14-8.17-.28-14.15-.25-12,0-28.46.94-46.63,2.52L276.68,91a40.89,40.89,0,0,0-12.22,2.55,19.88,19.88,0,0,0-8.74,7.14,28.87,28.87,0,0,0-4.12,9,37.94,37.94,0,0,0-.93,8.07c-.06,2.37,0,4.42,0,6.09s0,2.87,0,3.84A7.12,7.12,0,0,0,250.73,129Z"/><path class="cls-3" d="M308.18,129a5,5,0,0,0,.07-1c0-.76,0-1.74,0-3s0-2.85.15-4.66a14.35,14.35,0,0,1,1.55-5.84,11.12,11.12,0,0,1,5.68-4.37,15.61,15.61,0,0,1,8.29-.85,14,14,0,0,1,4.28,1.46,8.13,8.13,0,0,1,3.33,3.14,4.52,4.52,0,0,1,0,4.45,6,6,0,0,1-3.78,2.84,4.78,4.78,0,0,1-4.41-1.28,6.55,6.55,0,0,1-2-4.21,6.43,6.43,0,0,1,1.32-4.3,9.45,9.45,0,0,1,3.33-2.94,12.58,12.58,0,0,1,4.16-1.07c1.42-.21,2.8-.4,4.14-.55,2.68-.3,5.18-.47,7.47-.56,4.58-.18,8.3-.11,10.87-.11h3a6.46,6.46,0,0,0,1,0,4.5,4.5,0,0,0-1-.11l-3-.15c-2.57-.09-6.29-.25-10.9-.15-2.3.06-4.82.2-7.52.48-1.35.13-2.74.31-4.17.5-.72.12-1.43.21-2.18.35a8.07,8.07,0,0,0-2.21.77,10.12,10.12,0,0,0-3.62,3.15,7.18,7.18,0,0,0-1.48,4.8,7.32,7.32,0,0,0,2.22,4.73A5.64,5.64,0,0,0,328,122a6.74,6.74,0,0,0,4.29-3.24,5.27,5.27,0,0,0,0-5.19,8.77,8.77,0,0,0-3.65-3.45,14.43,14.43,0,0,0-4.52-1.51,16.21,16.21,0,0,0-8.66,1,11.65,11.65,0,0,0-5.93,4.71,14.5,14.5,0,0,0-1.5,6.09c-.1,1.83-.05,3.41,0,4.7s.09,2.2.12,3A4.7,4.7,0,0,0,308.18,129Z"/><path class="cls-3" d="M238.17,129a10.07,10.07,0,0,0,.31-1.67c.17-1.1.43-2.72.81-4.8a106.37,106.37,0,0,1,4.53-17.1c2.51-6.91,6.51-14.94,13.39-20.94a23.31,23.31,0,0,1,12.27-5.45c4.59-.77,9.45-.74,14.42-.9,19.88-.44,37.9-.35,50.93-.94,6.52-.26,11.79-.62,15.42-.91l4.19-.41a7.5,7.5,0,0,0,1.45-.22,7.18,7.18,0,0,0-1.47,0l-4.19.19c-3.64.17-8.91.4-15.42.56-13,.38-31,.16-50.93.6-5,.16-9.84.13-14.54.94a24.08,24.08,0,0,0-12.68,5.71,43.47,43.47,0,0,0-8.46,10.43,65.38,65.38,0,0,0-5,11,98,98,0,0,0-4.26,17.33c-.33,2.09-.53,3.73-.63,4.84A12,12,0,0,0,238.17,129Z"/><rect class="cls-3" x="194.15" y="47.02" width="149.59" height="21.71" transform="translate(537.89 115.75) rotate(180)"/><rect class="cls-4" x="229.4" y="57.87" width="81.44" height="10.86" transform="translate(540.23 126.6) rotate(180)"/><path class="cls-3" d="M133.12,497.37c0,.11,1.65.28,4.53,1.11A39.35,39.35,0,0,1,149,504a31.5,31.5,0,0,1,6.34,5.89,22.13,22.13,0,0,1,2.61,4,27,27,0,0,1,1.63,4.82c1.71,6.86,1.19,14.71.85,22.9s.2,16.32,3.43,22.86a25.36,25.36,0,0,0,6.1,8.16,29.53,29.53,0,0,0,14.5,6.86,25.65,25.65,0,0,0,5.51.23,18.37,18.37,0,0,0,3.44-.54,4.8,4.8,0,0,0,1.16-.36c0-.11-1.63.39-4.62.52a26.58,26.58,0,0,1-5.4-.39,29.84,29.84,0,0,1-6.81-2.19,29.06,29.06,0,0,1-7.24-4.73,24.92,24.92,0,0,1-5.83-8c-3.08-6.35-3.6-14.31-3.26-22.44s.84-16.12-1-23.15a27.38,27.38,0,0,0-1.73-5,22.4,22.4,0,0,0-2.75-4.16,31.66,31.66,0,0,0-6.58-5.95,37.54,37.54,0,0,0-11.59-5.34,26.33,26.33,0,0,0-3.42-.65A6.08,6.08,0,0,0,133.12,497.37Z"/><rect class="cls-3" x="189.79" y="572.16" width="12.28" height="14.94" transform="translate(391.87 1159.26) rotate(180)"/><rect class="cls-4" x="64.26" y="459.65" width="68.86" height="75.45" transform="translate(197.39 994.75) rotate(180)"/><circle class="cls-3" cx="98.69" cy="497.67" r="22.67" transform="translate(-105.09 33.03) rotate(-12.46)"/><path class="cls-4" d="M87.36,497.67a11.34,11.34,0,1,0,11.33-11.33A11.33,11.33,0,0,0,87.36,497.67Z"/><circle class="cls-3" cx="123.81" cy="471.36" r="2.11"/><circle class="cls-3" cx="74.8" cy="471.36" r="2.11"/><path class="cls-3" d="M72.24,527.08A2.11,2.11,0,1,0,74.35,525,2.1,2.1,0,0,0,72.24,527.08Z"/><circle class="cls-3" cx="123.81" cy="527.94" r="2.11"/><rect class="cls-3" x="58.71" y="459.65" width="5.56" height="75.45" transform="translate(122.97 994.75) rotate(180)"/><polygon class="cls-9" points="499.03 220.25 490.81 217.21 459.34 216.28 452.03 218.27 452.99 236.06 469.51 246.59 485.52 246.28 495.6 237.1 497.83 228 499.03 220.25"/><path class="cls-9" d="M405.69,247.51a107.56,107.56,0,0,1,6.59-11.77,27.17,27.17,0,0,1,17-11.93l26.41-7.16s1.79,17.81,19.95,17.81S494.12,218,494.12,218l33.24,12.15c1,.41,8.14,2.86,16.38,20.54C551.6,267.5,555,276.12,555,276.12l-31.36,8.43-2.08,29,.67,16.16-95.54-.21.54-18.48-.44-30.56-2,3.77-29.83-12S398,263.43,405.69,247.51Z"/><path class="cls-3" d="M426.37,264.62c-.14,0-.06,10.24.19,22.86s.56,22.85.7,22.85.05-10.24-.19-22.86S426.51,264.61,426.37,264.62Z"/><g class="cls-10"><path d="M519.44,267.6c-1.48-1.63-3.79-2.17-6-2.62-24.58-5-49.93-2.91-74.84.2-3.09.39-6.49,1-8.36,3.54-1.35,1.8-.48,4.19-.61,6.44-.65,11.54.85,23.84,3.14,35.17L517.65,309c2.9-8.79,3.61-23.7,3.66-33.84C521.32,272.48,521.23,269.56,519.44,267.6Z"/></g><path class="cls-3" d="M525,254.28a2.43,2.43,0,0,1,0,.43V256c0,1.08,0,2.64-.08,4.57-.1,3.86-.3,9.19-.63,15.07s-.7,11.21-1,15c-.16,1.89-.3,3.44-.39,4.56,0,.5-.1.91-.13,1.24a1.61,1.61,0,0,1-.07.42,2.35,2.35,0,0,1,0-.43c0-.32,0-.73.06-1.24.07-1.13.16-2.67.27-4.56.24-3.9.56-9.2.91-15.06s.57-11.2.73-15.06c.08-1.89.15-3.44.2-4.57l.06-1.24A2.14,2.14,0,0,1,525,254.28Z"/><path class="cls-3" d="M441.83,179.37a14.36,14.36,0,0,0-2.07,8.12c0,2.79,1.92,8.47,6.89,8.76-1.32,8,3.8,13.92,12.33,13.93s18.3-14.62,26.2-17.84l22.94-6.05c2-.47,2.84-2.93,2.81-5s-.57-4.22.16-6.15c1-2.66,4.07-4.07,5.12-6.71,1.2-3-.65-6.32-2.78-8.74S508.7,155,508,151.81c-.62-2.9.5-6.17-.95-8.76-1.78-3.18-6.45-3.58-8.62-6.51-1.05-1.42-1.37-3.28-2.41-4.71-1.77-2.43-5.17-3.07-8.16-2.74S482,130.5,479,130.71c-4.12.3-8.37-1-12.33.17-4.36,1.31-7,5.18-9.85,8.93l-3.69,4.35a15.7,15.7,0,0,1-2.46,2c-1.55,1-3.33,1.72-4.67,3a7.3,7.3,0,0,0,.51,10.51,7.78,7.78,0,0,0-5.23,7.66s-.41,3.8,2,5.49A5.24,5.24,0,0,0,441.83,179.37Z"/><path class="cls-3" d="M457.2,187.14a106.4,106.4,0,0,1-4.62-17.74c-.86-6.06-.68-12.38,1.45-18.11.33-.87,3.08-6.7,4-6.61.66.06-1,5.5-.71,6.08,3.19,5.46,4.05,12,3.54,18.35a83.05,83.05,0,0,1-3.67,18"/><path class="cls-11" d="M473.79,232.82c-9.49-.2-16.37-15.76-16.37-15.76l-.62-53.27c-.5-15.34,8-28.41,23.36-28.48l1.42.07a27.44,27.44,0,0,1,26,26.65c.35,13.3.58,28,.11,35.09-1,14.7-15.8,16.2-15.8,16.2s-.08,3.41-.13,7.73c-.1,9.71-14.14,12.1-17.93,11.77Z"/><path class="cls-12" d="M491.65,213.32a35.62,35.62,0,0,1-18.84-6.69s4.09,10.94,18.84,10.41Z"/><path class="cls-3" d="M499.86,174.63a2.1,2.1,0,0,1-2.13,2,2,2,0,0,1-2.07-2,2.11,2.11,0,0,1,2.14-2A2,2,0,0,1,499.86,174.63Z"/><path class="cls-3" d="M503.87,168c-.28.26-1.81-1-4.07-1.12s-4,.93-4.2.64c-.12-.13.18-.61.92-1.1a5.83,5.83,0,0,1,3.39-.85,5.66,5.66,0,0,1,3.22,1.23C503.79,167.34,504,167.85,503.87,168Z"/><path class="cls-3" d="M479.66,174.09a2.11,2.11,0,0,1-2.14,2,2,2,0,0,1-2.06-2,2.1,2.1,0,0,1,2.13-2A2,2,0,0,1,479.66,174.09Z"/><path class="cls-3" d="M481.68,167.7c-.27.26-1.8-1-4.06-1.12s-4,.92-4.21.63c-.11-.12.18-.6.93-1.09a5.76,5.76,0,0,1,3.39-.85,5.56,5.56,0,0,1,3.21,1.23C481.61,167.07,481.82,167.58,481.68,167.7Z"/><path class="cls-3" d="M488.86,185.49a15,15,0,0,1,3.7-.46c.58,0,1.14-.12,1.25-.5a3,3,0,0,0-.29-1.74c-.47-1.42-1-2.92-1.47-4.48-2-6.38-3.47-11.62-3.22-11.7s2.12,5,4.15,11.41c.49,1.58,1,3.08,1.4,4.51a3.37,3.37,0,0,1,.18,2.28,1.46,1.46,0,0,1-1,.79,3.63,3.63,0,0,1-1,.09A14.46,14.46,0,0,1,488.86,185.49Z"/><path class="cls-3" d="M482.12,186.7c.37,0,.25,2.45,2.25,4.3s4.63,1.73,4.63,2.07c0,.16-.6.45-1.71.42a6.12,6.12,0,0,1-3.87-1.59,5.31,5.31,0,0,1-1.73-3.6C481.65,187.27,482,186.68,482.12,186.7Z"/><path class="cls-3" d="M482.05,158.52c-.25.6-2.5.19-5.16.37s-4.85.78-5.18.21c-.14-.27.26-.83,1.16-1.38a8.84,8.84,0,0,1,3.89-1.13,8.67,8.67,0,0,1,4,.69C481.7,157.72,482.16,158.23,482.05,158.52Z"/><path class="cls-3" d="M503.34,160.41c-.43.49-2-.13-3.83-.25s-3.47.16-3.81-.4c-.15-.27.13-.77.85-1.22a5.57,5.57,0,0,1,6.15.52C503.34,159.63,503.52,160.17,503.34,160.41Z"/><path class="cls-11" d="M457.22,174.74c-.25-.12-10-3.53-10.17,6.54s9.94,8.21,10,7.93S457.22,174.74,457.22,174.74Z"/><path class="cls-12" d="M454,185.32s-.18.12-.48.25a1.72,1.72,0,0,1-1.31,0c-1.05-.41-1.91-2.12-1.92-3.94a5.77,5.77,0,0,1,.54-2.5,2,2,0,0,1,1.35-1.31.88.88,0,0,1,1,.5c.13.28.06.48.11.5s.22-.16.15-.58a1.15,1.15,0,0,0-.38-.64,1.35,1.35,0,0,0-1-.28,2.46,2.46,0,0,0-1.86,1.52,5.91,5.91,0,0,0-.67,2.8c0,2,1,4,2.46,4.4a1.88,1.88,0,0,0,1.61-.23C454,185.57,454.06,185.34,454,185.32Z"/><path class="cls-3" d="M501,145.27c1.65-.88-3.18-6.22-7.16-8.09-6-2.83-15.24-4.64-20.84-3.12-6.75,1.81-12.37,5.09-15.83,11.16a39.58,39.58,0,0,0-4.7,20.17,12,12,0,0,0,1.34,6.17c1.38,2.24,4.06,3.68,3.9,6.75a4.21,4.21,0,0,0,1,3.09c1.81,2,4.09.17,5.15-1.66,2.27-3.92,2.57-8.63,2.83-13.14.17-3.21.35-6.49-.52-9.59-.47-1.68-1.24-3.28-1.62-5a6,6,0,0,1,.78-5,6.47,6.47,0,0,1,.83-.81,10.48,10.48,0,0,1,10.44-1.85c5.65,2.08,15.3,5.2,17.85,3.3,3.68-2.72,4.57-4.51,4.57-4.51Z"/><path class="cls-3" d="M473.57,132.7a22.09,22.09,0,0,1,17,1.15c2.73,1.46,5.19,3.77,6,6.76s-.52,6.65-3.4,7.78l-.2.12c-4.32,1.39-7.1.78-11.37-.76-3.59-1.29-6.77-3.56-10.36-4.83a20.48,20.48,0,0,0-12-.51A33.43,33.43,0,0,1,473.57,132.7Z"/><path class="cls-4" d="M454.42,142.65c.08.08.9-.88,2.53-2A14.49,14.49,0,0,1,460,139a9.28,9.28,0,0,1,4.09-.69,13.79,13.79,0,0,1,7,2.89c1.56,1.24,2.28,2.28,2.38,2.2s-.11-.3-.44-.77a11.31,11.31,0,0,0-1.63-1.79,13,13,0,0,0-7.27-3.2,9.48,9.48,0,0,0-4.38.78,13.22,13.22,0,0,0-3.11,1.83A7.45,7.45,0,0,0,454.42,142.65Z"/><path class="cls-4" d="M485.1,131.78a27.33,27.33,0,0,0,2.67,1,21.91,21.91,0,0,1,10.33,8.52c.95,1.46,1.4,2.46,1.5,2.42a7.72,7.72,0,0,0-1.09-2.67,19.12,19.12,0,0,0-10.58-8.72A7.93,7.93,0,0,0,485.1,131.78Z"/><path class="cls-4" d="M443.32,168.18s.34.15,1,.33a6.9,6.9,0,0,0,2.76.19,11.36,11.36,0,0,0,3.91-1.3c1.39-.72,2.83-1.71,4.42-2.64a13.5,13.5,0,0,1,4.84-1.84,6.34,6.34,0,0,1,4.14.77,4.89,4.89,0,0,1,2,2.08,3.49,3.49,0,0,1,.27.75,1.31,1.31,0,0,1,0,.27s-.11-.37-.43-1a5.1,5.1,0,0,0-2-1.92,6.11,6.11,0,0,0-4-.65,13.41,13.41,0,0,0-4.71,1.82c-1.57.91-3,1.9-4.45,2.62a11,11,0,0,1-4,1.25,6.72,6.72,0,0,1-2.83-.3,4.58,4.58,0,0,1-.71-.32C443.39,168.24,443.31,168.19,443.32,168.18Z"/><path class="cls-4" d="M444,172.67a10.82,10.82,0,0,0,3.34.2,16,16,0,0,0,3.55-.84c1.3-.45,2.7-1.06,4.22-1.61a14.87,14.87,0,0,1,4.44-1,8.3,8.3,0,0,1,3.66.7,5.71,5.71,0,0,1,2,1.51,4.53,4.53,0,0,1,.39.57c.08.14.11.22.1.22s-.2-.26-.6-.69a5.89,5.89,0,0,0-2-1.38,8.47,8.47,0,0,0-3.55-.6,15.12,15.12,0,0,0-4.33,1c-1.5.54-2.91,1.14-4.24,1.58a15.55,15.55,0,0,1-3.63.78,8.25,8.25,0,0,1-2.5-.16c-.28-.08-.5-.14-.65-.2S443.94,172.68,444,172.67Z"/><path class="cls-4" d="M512.36,163.59s0,.37-.34.88a5.12,5.12,0,0,1-1.58,1.64,5,5,0,0,1-2.13.79,1.77,1.77,0,0,1-.94,0,6.82,6.82,0,0,0,5-3.27Z"/><path class="cls-4" d="M514.77,168.88a3.27,3.27,0,0,1-.49,1.3,7.17,7.17,0,0,1-5.52,3.53,3.35,3.35,0,0,1-1.39-.1,13.26,13.26,0,0,1,1.36-.16,7.92,7.92,0,0,0,3-1.14,8.16,8.16,0,0,0,2.31-2.26A13.47,13.47,0,0,1,514.77,168.88Z"/><path class="cls-11" d="M552.31,276.9l12.8,25.7a18.8,18.8,0,0,1,1.95,9.26h0a18.73,18.73,0,0,1-18.71,17.82l-36.71-2.13L510,310.81,538,304.07l-10.82-20.46Z"/><path class="cls-12" d="M538,304.07c0,.12,1.27-.09,3.3-.08a25.69,25.69,0,0,1,7.74,1.36,23.59,23.59,0,0,1,6.93,3.69c1.59,1.25,2.34,2.28,2.43,2.21a2.67,2.67,0,0,0-.46-.77,12.69,12.69,0,0,0-1.68-1.79,21,21,0,0,0-7-3.94,22.47,22.47,0,0,0-8-1.21,15.82,15.82,0,0,0-2.43.29A2.42,2.42,0,0,0,538,304.07Z"/><path class="cls-11" d="M395.49,272.48s-6.9,19.27-15.55,40.72a8.69,8.69,0,0,0-.42,1.34c-1.3,5.79,3.11,15.54,9.05,15.54L436.4,327l1.88-13.65L409.62,307l11.06-24.45Z"/><path class="cls-12" d="M387.33,311.49c.07.09,1.05-.69,2.78-1.68a26.08,26.08,0,0,1,14.94-3.38c2,.15,3.21.43,3.23.32s-.28-.15-.83-.3a15.63,15.63,0,0,0-2.36-.47,23.09,23.09,0,0,0-15.22,3.45,14.82,14.82,0,0,0-1.92,1.43C387.52,311.24,387.3,311.46,387.33,311.49Z"/><path class="cls-11" d="M517.22,309.83H510s-16.22-5.86-19.56-5.3c-3,.51-14,7.81-16.15,9.26a1.36,1.36,0,0,0-.52.66h0a2.36,2.36,0,0,0,1.31,3l.23.09-.1.33a3.77,3.77,0,0,0-.16,1.31,1.58,1.58,0,0,0,2.94.69l-.41.73a1.79,1.79,0,0,0-.23,1l0,.67a1.82,1.82,0,0,0,1.25,1.61h0a1.79,1.79,0,0,0,1.88-.49c1.4-1.54,4.41-4.61,6.45-4.95a47.71,47.71,0,0,1,6.65-.33,2.25,2.25,0,0,1,2.1,1.44h0c-1.21.08-9.64,4.48-12.62,6a3.21,3.21,0,0,0-1.73,2.4c-.11.93.36,1.91,2.2,1.48,4-.92,11.1-4.2,11.1-4.2s3.67-1,6.06.63c3.35,2.36,4.88,3.23,7.76,2.28a24.45,24.45,0,0,0,5-2.33l5.67-.56S524.55,311.89,517.22,309.83Z"/><path class="cls-12" d="M495.81,312.57c0,.06-1.15-.3-3.05-.42a15.78,15.78,0,0,0-13.11,5.59c-1.22,1.45-1.74,2.53-1.8,2.49a4.41,4.41,0,0,1,.36-.75,14.36,14.36,0,0,1,1.28-1.88,15.24,15.24,0,0,1,13.29-5.67,13.75,13.75,0,0,1,2.24.38A3.67,3.67,0,0,1,495.81,312.57Z"/><path class="cls-12" d="M494.09,308.63a13.62,13.62,0,0,0-3.17-.55,13.79,13.79,0,0,0-7.38,2.09,29.76,29.76,0,0,0-5.94,5L476,316.93a3.6,3.6,0,0,1-.62.61,4.24,4.24,0,0,1,.53-.69c.36-.43.89-1.05,1.56-1.8a27,27,0,0,1,5.95-5.14,13.51,13.51,0,0,1,7.54-2.05,9.62,9.62,0,0,1,2.35.43,4.84,4.84,0,0,1,.61.24Z"/><path class="cls-11" d="M427.93,311.15l7-.81s16.21-5.86,19.55-5.3c3,.5,14,7.81,16.15,9.25a1.43,1.43,0,0,1,.52.67h0a2.36,2.36,0,0,1-1.31,3l-.23.09.1.33a4,4,0,0,1,.17,1.31,1.59,1.59,0,0,1-2.95.68l.42.74a1.86,1.86,0,0,1,.22,1l0,.67a1.81,1.81,0,0,1-1.24,1.62h0a1.78,1.78,0,0,1-1.89-.5c-1.4-1.53-4.41-4.6-6.45-4.94a49.3,49.3,0,0,0-6.65-.34,2.26,2.26,0,0,0-2.09,1.44h0c1.2.09,9.63,4.49,12.61,6.06a3.18,3.18,0,0,1,1.74,2.4c.11.93-.37,1.91-2.21,1.48-4-.93-11.09-4.21-11.09-4.21s-3.68-1-6.06.64c-3.36,2.36-4.89,3.23-7.77,2.27a24.14,24.14,0,0,1-5-2.32"/><path class="cls-12" d="M449.16,313.08c0,.06,1.15-.3,3-.42a15.71,15.71,0,0,1,13.11,5.59,30.59,30.59,0,0,1,1.8,2.49,3.33,3.33,0,0,0-.36-.75,13.72,13.72,0,0,0-1.28-1.88,15.24,15.24,0,0,0-13.29-5.67,13.59,13.59,0,0,0-2.23.38A3.94,3.94,0,0,0,449.16,313.08Z"/><path class="cls-12" d="M450.88,309.14a13,13,0,0,1,3.17-.55,13.79,13.79,0,0,1,7.38,2.09,29.79,29.79,0,0,1,5.94,5l1.63,1.73a7,7,0,0,0,.62.62,4.24,4.24,0,0,0-.53-.69c-.36-.44-.89-1.06-1.56-1.8a27.48,27.48,0,0,0-5.94-5.15,13.6,13.6,0,0,0-7.55-2,9.16,9.16,0,0,0-2.35.43c-.27.08-.47.18-.61.23A.74.74,0,0,0,450.88,309.14Z"/><path class="cls-8" d="M439.13,330.12h82.49a4.37,4.37,0,0,0,4.37-4.18l2.48-56.78a4.38,4.38,0,0,0-4.37-4.57H436.82a4.38,4.38,0,0,0-4.38,4.56l2.32,56.77A4.37,4.37,0,0,0,439.13,330.12Z"/><path class="cls-3" d="M439.13,330.12h-.2a4.25,4.25,0,0,1-.6-.06,4.33,4.33,0,0,1-2.12-1,4.51,4.51,0,0,1-1.53-3.42c-.06-1.52-.14-3.26-.23-5.23-.33-7.87-.82-19.24-1.42-33.29-.14-3.51-.3-7.19-.46-11-.08-1.91-.16-3.87-.24-5.86,0-.51-.06-1,0-1.52a4.68,4.68,0,0,1,.35-1.52,4.52,4.52,0,0,1,2.14-2.28,4.65,4.65,0,0,1,1.54-.46c.55,0,1.06,0,1.59,0h23.28l60.51,0h2a5.15,5.15,0,0,1,2,.31,4.6,4.6,0,0,1,2.73,3,5.62,5.62,0,0,1,.17,2l-.09,2c-.06,1.32-.11,2.63-.17,3.93q-.35,7.85-.68,15.43c-.44,10.11-.87,19.86-1.28,29.16l-.15,3.46c0,.57,0,1.14-.08,1.71a6.06,6.06,0,0,1-.23,1.73,4.58,4.58,0,0,1-2.16,2.66,4.37,4.37,0,0,1-1.64.52c-.59.06-1.13,0-1.68,0H507.67l-23,0-33.31-.07-9.06,0h-2.36l-.8,0,.8,0,2.36,0,9.06,0,33.31-.07,23,0h12.82c.55,0,1.12,0,1.64,0a4.11,4.11,0,0,0,1.51-.48,4.22,4.22,0,0,0,2-2.45,5.85,5.85,0,0,0,.21-1.64c0-.57,0-1.14.07-1.72.05-1.14.1-2.3.15-3.46.4-9.29.83-19.05,1.26-29.16.22-5.05.45-10.2.67-15.42.06-1.31.12-2.62.17-3.93l.09-2a5,5,0,0,0-.15-1.9,4.2,4.2,0,0,0-2.5-2.7,4.77,4.77,0,0,0-1.89-.28h-2l-60.51,0H437.91c-.52,0-1.06,0-1.55,0a4.28,4.28,0,0,0-3.42,2.53,4.33,4.33,0,0,0-.33,1.42c0,.47,0,1,0,1.48.07,2,.15,4,.23,5.87.15,3.84.3,7.52.43,11,.55,14.05,1,25.43,1.3,33.3.07,2,.14,3.71.19,5.22a4.4,4.4,0,0,0,1.47,3.37,4.34,4.34,0,0,0,2.07,1A7.71,7.71,0,0,0,439.13,330.12Z"/><path class="cls-1" d="M476,298.36a4.52,4.52,0,1,0,4.51-4.52A4.52,4.52,0,0,0,476,298.36Z"/><circle class="cls-13" cx="701.01" cy="419.43" r="83.87"/><circle class="cls-1" cx="701.01" cy="419.43" r="77.85"/><g class="cls-14"><rect class="cls-15" x="639.67" y="382.49" width="127.09" height="251.79"/><rect class="cls-16" x="639.67" y="382.49" width="103.98" height="251.79"/><rect class="cls-8" x="636.94" y="382.49" width="131.31" height="4.11"/><rect class="cls-8" x="636.94" y="374.27" width="131.31" height="4.11"/><rect class="cls-16" x="639.67" y="378.38" width="125.82" height="4.11"/><rect class="cls-15" x="649.55" y="397.31" width="19.53" height="19.83"/><rect class="cls-5" x="651.27" y="397.31" width="17.81" height="19.83"/><rect class="cls-15" x="679.12" y="397.31" width="19.53" height="19.83"/><rect class="cls-5" x="680.84" y="397.31" width="17.81" height="19.83"/><rect class="cls-15" x="708.69" y="397.31" width="19.53" height="19.83"/><rect class="cls-5" x="710.42" y="397.31" width="17.81" height="19.83"/><rect class="cls-15" x="649.55" y="426.51" width="19.53" height="19.83"/><rect class="cls-5" x="651.27" y="426.51" width="17.81" height="19.83"/><rect class="cls-15" x="679.12" y="426.51" width="19.53" height="19.83"/><rect class="cls-5" x="680.84" y="426.51" width="17.81" height="19.83"/><rect class="cls-15" x="708.69" y="426.51" width="19.53" height="19.83"/><rect class="cls-5" x="710.42" y="426.51" width="17.81" height="19.83"/><rect class="cls-15" x="649.55" y="479.98" width="19.53" height="19.83"/><rect class="cls-5" x="651.27" y="479.98" width="17.81" height="19.83"/><rect class="cls-15" x="679.12" y="479.98" width="19.53" height="19.83"/><rect class="cls-5" x="680.84" y="479.98" width="17.81" height="19.83"/><rect class="cls-15" x="708.69" y="479.98" width="19.53" height="19.83"/><rect class="cls-5" x="710.42" y="479.98" width="17.81" height="19.83"/><rect class="cls-15" x="649.55" y="509.17" width="19.53" height="19.83"/><rect class="cls-5" x="651.27" y="509.17" width="17.81" height="19.83"/><rect class="cls-15" x="679.12" y="509.17" width="19.53" height="19.83"/><rect class="cls-5" x="680.84" y="509.17" width="17.81" height="19.83"/><rect class="cls-15" x="708.69" y="509.17" width="19.53" height="19.83"/><rect class="cls-5" x="710.42" y="509.17" width="17.81" height="19.83"/><rect class="cls-15" x="649.55" y="568.59" width="19.53" height="19.83"/><rect class="cls-5" x="651.27" y="568.59" width="17.81" height="19.83"/><rect class="cls-15" x="679.12" y="568.59" width="19.53" height="19.83"/><rect class="cls-5" x="680.84" y="568.59" width="17.81" height="19.83"/><rect class="cls-15" x="708.69" y="568.59" width="19.53" height="19.83"/><rect class="cls-5" x="710.42" y="568.59" width="17.81" height="19.83"/><rect class="cls-15" x="649.55" y="597.79" width="19.53" height="19.83"/><rect class="cls-5" x="651.27" y="597.79" width="17.81" height="19.83"/><rect class="cls-15" x="679.12" y="597.79" width="19.53" height="19.83"/><rect class="cls-5" x="680.84" y="597.79" width="17.81" height="19.83"/><rect class="cls-15" x="708.69" y="597.79" width="19.53" height="19.83"/><rect class="cls-5" x="710.42" y="597.79" width="17.81" height="19.83"/><rect class="cls-8" x="639.67" y="460.28" width="127.09" height="1.83"/><rect class="cls-8" x="639.67" y="551.67" width="127.09" height="1.83"/><rect class="cls-3" x="648.92" y="396.64" width="85.49" height="20.5"/><path class="cls-1" d="M666.18,402.57v8.31h-1.67v-5.41l-2.23,5.41H661l-2.24-5.41v5.41h-1.67v-8.31H659l2.64,6.18,2.64-6.18Z"/><path class="cls-1" d="M667.93,403.22a1,1,0,0,1,0-1.4,1.1,1.1,0,0,1,1.47,0,1,1,0,0,1,0,1.4,1.1,1.1,0,0,1-1.47,0Zm1.56,1.06v6.6h-1.67v-6.6Z"/><path class="cls-1" d="M676.69,404.93a2.84,2.84,0,0,1,.73,2.08v3.87h-1.67v-3.64a1.71,1.71,0,0,0-.39-1.21,1.39,1.39,0,0,0-1.07-.42,1.42,1.42,0,0,0-1.09.42,1.67,1.67,0,0,0-.4,1.21v3.64h-1.67v-6.6h1.67v.83a2.29,2.29,0,0,1,.85-.68,2.68,2.68,0,0,1,1.14-.24A2.55,2.55,0,0,1,676.69,404.93Z"/><path class="cls-1" d="M679.12,403.22a1,1,0,0,1,0-1.4,1.09,1.09,0,0,1,1.46,0,1,1,0,0,1,0,1.4,1.09,1.09,0,0,1-1.46,0Zm1.55,1.06v6.6H679v-6.6Z"/><path class="cls-1" d="M683.39,410.7a2.64,2.64,0,0,1-1-.79,2,2,0,0,1-.41-1.11h1.68a.91.91,0,0,0,.37.63,1.29,1.29,0,0,0,.82.25,1.25,1.25,0,0,0,.74-.19.58.58,0,0,0,.27-.49.52.52,0,0,0-.33-.48,5.32,5.32,0,0,0-1-.35,10,10,0,0,1-1.21-.37,2.12,2.12,0,0,1-.81-.59,1.59,1.59,0,0,1-.34-1.06,1.75,1.75,0,0,1,.32-1,2.09,2.09,0,0,1,.9-.71,3.35,3.35,0,0,1,1.39-.26,2.79,2.79,0,0,1,1.88.59,2.18,2.18,0,0,1,.78,1.59h-1.6a.84.84,0,0,0-.33-.63,1.23,1.23,0,0,0-.78-.23,1.14,1.14,0,0,0-.69.17.51.51,0,0,0-.25.46.55.55,0,0,0,.34.51,5.42,5.42,0,0,0,1,.35,8.37,8.37,0,0,1,1.18.37,1.92,1.92,0,0,1,.8.59,1.58,1.58,0,0,1,.36,1.05,1.74,1.74,0,0,1-.32,1,2,2,0,0,1-.91.71,3.42,3.42,0,0,1-1.37.26A3.51,3.51,0,0,1,683.39,410.7Z"/><path class="cls-1" d="M690.75,405.65v3.2a.62.62,0,0,0,.16.48.76.76,0,0,0,.54.15h.77v1.4h-1a1.84,1.84,0,0,1-2.11-2.05v-3.18h-.79v-1.37h.79v-1.63h1.68v1.63h1.47v1.37Z"/><path class="cls-1" d="M699.51,408.08h-4.82a1.61,1.61,0,0,0,.5,1.12,1.53,1.53,0,0,0,1.08.41,1.36,1.36,0,0,0,1.32-.8h1.8a3,3,0,0,1-1.09,1.57,3.21,3.21,0,0,1-2,.61,3.44,3.44,0,0,1-1.71-.42,3,3,0,0,1-1.18-1.2,3.7,3.7,0,0,1-.42-1.79,3.85,3.85,0,0,1,.41-1.8,3,3,0,0,1,1.17-1.19,3.6,3.6,0,0,1,1.73-.41,3.42,3.42,0,0,1,1.68.4,2.85,2.85,0,0,1,1.16,1.15,3.54,3.54,0,0,1,.41,1.71A4.06,4.06,0,0,1,699.51,408.08ZM697.83,407a1.31,1.31,0,0,0-.46-1,1.68,1.68,0,0,0-1.11-.38,1.51,1.51,0,0,0-1,.37,1.65,1.65,0,0,0-.52,1Z"/><path class="cls-1" d="M703.28,404.49a2.34,2.34,0,0,1,1.19-.3v1.75H704a1.68,1.68,0,0,0-1.19.37,1.66,1.66,0,0,0-.4,1.28v3.29h-1.67v-6.6h1.67v1A2.35,2.35,0,0,1,703.28,404.49Z"/><path class="cls-1" d="M705.7,403.22a1,1,0,0,1,0-1.4,1,1,0,0,1,.73-.28,1,1,0,0,1,.73.28,1,1,0,0,1,0,1.4,1,1,0,0,1-.73.28A1,1,0,0,1,705.7,403.22Zm1.55,1.06v6.6h-1.66v-6.6Z"/><path class="cls-1" d="M710.11,410.57a3.08,3.08,0,0,1-1.2-1.2,3.59,3.59,0,0,1-.43-1.79,3.46,3.46,0,0,1,.45-1.78,3,3,0,0,1,1.22-1.2,3.53,3.53,0,0,1,1.72-.42,3.57,3.57,0,0,1,1.73.42,3.06,3.06,0,0,1,1.22,1.2,3.46,3.46,0,0,1,.45,1.78,3.41,3.41,0,0,1-.46,1.79,3.25,3.25,0,0,1-1.24,1.2,3.61,3.61,0,0,1-1.74.42A3.51,3.51,0,0,1,710.11,410.57Zm2.57-1.25a1.66,1.66,0,0,0,.64-.67,2.32,2.32,0,0,0,.23-1.07,2,2,0,0,0-.49-1.44,1.62,1.62,0,0,0-1.21-.51,1.59,1.59,0,0,0-1.2.51,2,2,0,0,0-.48,1.44,2.07,2.07,0,0,0,.47,1.45,1.56,1.56,0,0,0,1.19.51A1.82,1.82,0,0,0,712.68,409.32Z"/><path class="cls-1" d="M724.43,409.3h-3.31l-.55,1.58h-1.75l3-8.32h1.94l3,8.32H725ZM724,408l-1.21-3.47-1.2,3.47Z"/></g><circle class="cls-13" cx="960.34" cy="412.09" r="91.21"/><circle class="cls-1" cx="960.34" cy="412.09" r="85.77"/><g class="cls-17"><rect class="cls-8" x="1051.48" y="403.89" width="17.31" height="27.08"/><rect class="cls-8" x="1051.48" y="448.21" width="17.31" height="27.08"/><rect class="cls-8" x="1051.48" y="491.28" width="17.31" height="27.08"/><rect class="cls-8" x="1051.48" y="536.83" width="17.31" height="27.08"/><rect class="cls-8" x="1051.48" y="581.14" width="17.31" height="27.08"/><rect class="cls-15" x="886.67" y="376.68" width="182.13" height="277"/><rect class="cls-16" x="886.68" y="376.67" width="151.36" height="277"/><rect class="cls-7" x="900.29" y="403.9" width="123.09" height="27.08"/><rect class="cls-7" x="900.29" y="448.21" width="123.09" height="27.08"/><rect class="cls-7" x="900.29" y="492.52" width="123.09" height="27.08"/><rect class="cls-7" x="900.29" y="536.83" width="123.09" height="27.08"/><rect class="cls-7" x="900.29" y="581.14" width="123.09" height="27.08"/><rect class="cls-5" x="904.83" y="403.9" width="118.55" height="27.08"/><rect class="cls-5" x="904.83" y="448.21" width="118.55" height="27.08"/><rect class="cls-5" x="904.83" y="492.52" width="118.55" height="27.08"/><rect class="cls-5" x="904.83" y="536.83" width="118.55" height="27.08"/><rect class="cls-5" x="904.83" y="581.14" width="118.55" height="27.08"/><rect class="cls-3" x="914.97" y="403.89" width="94.77" height="22.73"/><path class="cls-1" d="M933.76,410.46v9.21h-1.85v-6l-2.47,6H928l-2.48-6v6h-1.85v-9.21h2.1l2.93,6.85,2.93-6.85Z"/><path class="cls-1" d="M935.71,411.18a1.08,1.08,0,0,1,0-1.55,1.13,1.13,0,0,1,.81-.31,1.17,1.17,0,0,1,.81.31,1.1,1.1,0,0,1,0,1.55,1.17,1.17,0,0,1-.81.31A1.13,1.13,0,0,1,935.71,411.18Zm1.72,1.18v7.31h-1.85v-7.31Z"/><path class="cls-1" d="M945.42,413.08a3.19,3.19,0,0,1,.8,2.3v4.29h-1.85v-4a1.89,1.89,0,0,0-.43-1.34,1.56,1.56,0,0,0-1.19-.47,1.6,1.6,0,0,0-1.21.47,1.9,1.9,0,0,0-.44,1.34v4h-1.85v-7.31h1.85v.91a2.57,2.57,0,0,1,.94-.75,3,3,0,0,1,1.26-.27A2.83,2.83,0,0,1,945.42,413.08Z"/><path class="cls-1" d="M948.1,411.18a1.1,1.1,0,0,1,0-1.55,1.23,1.23,0,0,1,1.63,0,1.1,1.1,0,0,1,0,1.55,1.23,1.23,0,0,1-1.63,0Zm1.73,1.18v7.31H948v-7.31Z"/><path class="cls-1" d="M952.84,419.47a2.81,2.81,0,0,1-1.13-.88,2.24,2.24,0,0,1-.46-1.23h1.86a1,1,0,0,0,.42.7,1.66,1.66,0,0,0,1.73.07.63.63,0,0,0,.3-.54.59.59,0,0,0-.37-.54,6.44,6.44,0,0,0-1.15-.39,9.13,9.13,0,0,1-1.34-.41,2.29,2.29,0,0,1-.9-.64,1.76,1.76,0,0,1-.38-1.18,2,2,0,0,1,.35-1.11,2.39,2.39,0,0,1,1-.79,3.76,3.76,0,0,1,1.53-.29,3.17,3.17,0,0,1,2.09.65,2.43,2.43,0,0,1,.86,1.77h-1.77a1,1,0,0,0-.36-.7,1.62,1.62,0,0,0-1.64-.07.58.58,0,0,0-.27.51.61.61,0,0,0,.37.57,6.08,6.08,0,0,0,1.15.38,10.74,10.74,0,0,1,1.3.41,2.42,2.42,0,0,1,.9.66,1.73,1.73,0,0,1,.38,1.17,1.87,1.87,0,0,1-.35,1.13,2.23,2.23,0,0,1-1,.79,3.75,3.75,0,0,1-1.52.28A3.92,3.92,0,0,1,952.84,419.47Z"/><path class="cls-1" d="M961,413.88v3.53a.7.7,0,0,0,.18.54.88.88,0,0,0,.6.16h.86v1.56h-1.16a2,2,0,0,1-2.34-2.27v-3.52h-.87v-1.52h.87v-1.81H961v1.81h1.64v1.52Z"/><path class="cls-1" d="M970.71,416.57h-5.35a1.82,1.82,0,0,0,.56,1.24,1.69,1.69,0,0,0,1.2.45,1.51,1.51,0,0,0,1.47-.88h2a3.31,3.31,0,0,1-1.22,1.73,3.54,3.54,0,0,1-2.2.68,3.81,3.81,0,0,1-1.89-.47A3.26,3.26,0,0,1,964,418a4.49,4.49,0,0,1,0-4,3.24,3.24,0,0,1,1.3-1.32,4.15,4.15,0,0,1,3.78,0,3.13,3.13,0,0,1,1.28,1.27,4.43,4.43,0,0,1,.4,2.61Zm-1.86-1.24a1.44,1.44,0,0,0-.52-1.14,1.78,1.78,0,0,0-1.22-.43,1.71,1.71,0,0,0-1.16.41,1.86,1.86,0,0,0-.57,1.16Z"/><path class="cls-1" d="M974.89,412.58a2.58,2.58,0,0,1,1.31-.33v1.94h-.49a1.89,1.89,0,0,0-1.31.41A1.93,1.93,0,0,0,974,416v3.64h-1.85v-7.31H974v1.13A2.7,2.7,0,0,1,974.89,412.58Z"/><path class="cls-1" d="M977.57,411.18a1.1,1.1,0,0,1,0-1.55,1.17,1.17,0,0,1,.81-.31,1.13,1.13,0,0,1,.81.31,1.08,1.08,0,0,1,0,1.55,1.13,1.13,0,0,1-.81.31A1.17,1.17,0,0,1,977.57,411.18Zm1.72,1.18v7.31h-1.85v-7.31Z"/><path class="cls-1" d="M982.46,419.32a3.44,3.44,0,0,1-1.33-1.32,4,4,0,0,1-.48-2,3.94,3.94,0,0,1,.5-2,3.43,3.43,0,0,1,1.35-1.32,4.14,4.14,0,0,1,3.83,0,3.43,3.43,0,0,1,1.35,1.32,3.94,3.94,0,0,1,.5,2,3.85,3.85,0,0,1-.51,2,3.54,3.54,0,0,1-1.37,1.32,4,4,0,0,1-1.94.47A3.88,3.88,0,0,1,982.46,419.32Zm2.85-1.38a1.79,1.79,0,0,0,.7-.74,2.41,2.41,0,0,0,.27-1.19,2.23,2.23,0,0,0-.55-1.6,1.82,1.82,0,0,0-1.34-.56,1.78,1.78,0,0,0-1.33.56,2.72,2.72,0,0,0,0,3.21,1.72,1.72,0,0,0,1.31.56A2,2,0,0,0,985.31,417.94Z"/><path class="cls-1" d="M992.84,412.62a4.37,4.37,0,0,1,1.68-1.68,4.75,4.75,0,0,1,2.38-.6,4.67,4.67,0,0,1,2.71.79,4.13,4.13,0,0,1,1.62,2.19h-2.12a2.21,2.21,0,0,0-.89-1,2.65,2.65,0,0,0-1.33-.33,2.73,2.73,0,0,0-1.43.38,2.52,2.52,0,0,0-1,1.06,3.88,3.88,0,0,0,0,3.22,2.52,2.52,0,0,0,1,1.06,2.64,2.64,0,0,0,1.43.38,2.56,2.56,0,0,0,1.33-.34,2.21,2.21,0,0,0,.89-1h2.12a4.1,4.1,0,0,1-1.61,2.2,5.08,5.08,0,0,1-5.1.18,4.42,4.42,0,0,1-1.68-1.67,5.15,5.15,0,0,1,0-4.86Z"/></g><rect class="cls-3" x="915.41" y="77.69" width="6.88" height="10.73" transform="translate(168.04 619.21) rotate(-40.7)"/><path class="cls-4" d="M922.85,76.78,912.11,86l-7.54-8.77A26.93,26.93,0,0,1,915.31,68Z"/><path class="cls-3" d="M913.91,84.47c-.06,0-1.88-2-4.07-4.46s-3.9-4.59-3.84-4.64,1.88,1.94,4.06,4.46S914,84.41,913.91,84.47Z"/><path class="cls-3" d="M916,82.71a10.49,10.49,0,0,1-1.22-1.34c-.73-.85-1.72-2-2.8-3.35l-2.75-3.38-.83-1a3.47,3.47,0,0,1-.3-.39,37,37,0,0,1,4.1,4.62c1.08,1.31,2.05,2.52,2.73,3.4A10.65,10.65,0,0,1,916,82.71Z"/><path class="cls-3" d="M918.68,80.36A10.67,10.67,0,0,1,917.45,79c-.73-.87-1.72-2.07-2.8-3.4l-2.76-3.44-.82-1a4.93,4.93,0,0,1-.29-.4A7.58,7.58,0,0,1,912,72c.74.85,1.74,2,2.83,3.39s2,2.55,2.74,3.45A11.87,11.87,0,0,1,918.68,80.36Z"/><path class="cls-3" d="M921.16,78.17c-.06,0-1.86-2-4-4.51S913.25,69,913.31,69s1.87,2,4,4.5A59.38,59.38,0,0,1,921.16,78.17Z"/><rect class="cls-3" x="1000.67" y="78.83" width="6.88" height="10.73" transform="translate(371.27 -699.92) rotate(46.3)"/><path class="cls-4" d="M1010.59,87.85l-9.78-10.24,8.36-8A27.06,27.06,0,0,1,1019,79.86Z"/><path class="cls-3" d="M1002.45,79.33c-.06-.06,1.84-2,4.23-4.29s4.38-4.15,4.43-4.09-1.84,2-4.23,4.29S1002.5,79.38,1002.45,79.33Z"/><path class="cls-3" d="M1004.31,81.28a10.83,10.83,0,0,1,1.27-1.29c.81-.77,1.94-1.81,3.2-3L1012,74.1l1-.88a4.19,4.19,0,0,1,.37-.32,39,39,0,0,1-4.39,4.34c-1.26,1.15-2.42,2.17-3.26,2.9A11.45,11.45,0,0,1,1004.31,81.28Z"/><path class="cls-3" d="M1006.79,83.88a13,13,0,0,1,1.29-1.3c.83-.77,2-1.83,3.25-3l3.29-2.93,1-.88a4,4,0,0,1,.38-.31,6.94,6.94,0,0,1-1.25,1.33c-.82.79-2,1.85-3.24,3s-2.44,2.19-3.3,2.92A11.08,11.08,0,0,1,1006.79,83.88Z"/><path class="cls-3" d="M1009.12,86.24c-.06,0,1.86-2,4.29-4.26s4.43-4.11,4.48-4.06a59.91,59.91,0,0,1-4.29,4.27C1011.18,84.48,1009.17,86.3,1009.12,86.24Z"/><rect class="cls-3" x="958.38" y="59.23" width="8.14" height="12.7"/><path class="cls-18" d="M970.88,63H954.11V49.33a32.1,32.1,0,0,1,16.77,0Z"/><path class="cls-3" d="M971.08,49.39a2.76,2.76,0,0,1-.62.31,17.72,17.72,0,0,1-1.76.65A21.57,21.57,0,0,1,966,51a21.34,21.34,0,0,1-6.83,0,21.72,21.72,0,0,1-2.73-.61,14.25,14.25,0,0,1-1.77-.64,2.55,2.55,0,0,1-.62-.3s.93.33,2.45.74a22.57,22.57,0,0,0,2.71.55,22.46,22.46,0,0,0,6.75,0,22.37,22.37,0,0,0,2.7-.58C970.16,49.73,971.06,49.34,971.08,49.39Z"/><path class="cls-3" d="M959.65,63c-.07,0-.14-2.63-.14-5.87s.07-5.87.14-5.87a58.43,58.43,0,0,1,.15,5.87A58.59,58.59,0,0,1,959.65,63Z"/><path class="cls-3" d="M962.84,63.07c-.07,0-.14-2.64-.14-5.9s.07-5.9.14-5.9.15,2.64.15,5.9S962.92,63.07,962.84,63.07Z"/><path class="cls-3" d="M966,63c-.08,0-.15-2.65-.15-5.9s.07-5.9.15-5.9.14,2.64.14,5.9S966.11,63,966,63Z"/><path class="cls-3" d="M968.69,63c-.08,0-.14-2.86-.14-6.38s.06-6.37.14-6.37.14,2.85.14,6.37S968.77,63,968.69,63Z"/><path class="cls-3" d="M956.64,62.93c-.08,0-.15-2.85-.15-6.37s.07-6.38.15-6.38.14,2.86.14,6.38S956.72,62.93,956.64,62.93Z"/><circle class="cls-18" cx="961.46" cy="127.23" r="59.23" transform="translate(626.22 1037.29) rotate(-77.32)"/><circle class="cls-19" cx="961.46" cy="126.76" r="49.74"/><path class="cls-3" d="M1011.2,126.76l0-.81c0-.53,0-1.32-.11-2.36a50.09,50.09,0,0,0-1.41-9,51.21,51.21,0,0,0-2-6.25,48.58,48.58,0,0,0-3.46-7,50.2,50.2,0,0,0-12.63-14.11A49.38,49.38,0,0,0,970.62,78a50.32,50.32,0,0,0-19.44.22,54.09,54.09,0,0,0-6.64,1.89,49.75,49.75,0,0,0-23.06,17.3,48.16,48.16,0,0,0-4,6.51c-.62,1.14-1.14,2.33-1.67,3.51s-1,2.42-1.37,3.67a49.1,49.1,0,0,0-1.89,7.67,49.37,49.37,0,0,0,0,16,48.4,48.4,0,0,0,1.89,7.68c.39,1.25.89,2.45,1.37,3.66s1.05,2.37,1.66,3.51a48.6,48.6,0,0,0,4.05,6.51,49.7,49.7,0,0,0,23.06,17.31,52.38,52.38,0,0,0,6.64,1.89,50.56,50.56,0,0,0,19.45.23,49.7,49.7,0,0,0,20.9-9.28,50.29,50.29,0,0,0,12.62-14.11,48.58,48.58,0,0,0,3.46-7,51.21,51.21,0,0,0,2-6.25,50,50,0,0,0,1.41-9c.1-1,.08-1.83.11-2.36l0-.81s0,.27,0,.81,0,1.33-.08,2.36a48.15,48.15,0,0,1-3.39,15.27,47.28,47.28,0,0,1-3.45,7,50.53,50.53,0,0,1-12.63,14.19,48.69,48.69,0,0,1-9.52,5.7,48,48,0,0,1-11.46,3.64,50.61,50.61,0,0,1-19.54-.21,52.48,52.48,0,0,1-6.68-1.89,50,50,0,0,1-23.2-17.39,48.54,48.54,0,0,1-4.07-6.55c-.61-1.14-1.14-2.33-1.67-3.53s-1-2.43-1.38-3.68a48.09,48.09,0,0,1-1.9-7.72,49.93,49.93,0,0,1,0-16.06,48.63,48.63,0,0,1,1.9-7.72c.4-1.26.9-2.47,1.38-3.69s1.06-2.38,1.67-3.53a50,50,0,0,1,27.27-23.92,52.86,52.86,0,0,1,6.67-1.9,50.69,50.69,0,0,1,19.55-.21,50,50,0,0,1,21,9.34,50.53,50.53,0,0,1,12.63,14.19,47.28,47.28,0,0,1,3.45,7,51.83,51.83,0,0,1,2,6.27,48.58,48.58,0,0,1,1.36,9c.09,1,.06,1.83.08,2.36S1011.2,126.76,1011.2,126.76Z"/><path class="cls-3" d="M1003.91,125a8.35,8.35,0,0,1-2.87-.14,8.33,8.33,0,0,1,2.84-.41,7.24,7.24,0,0,1,2.87.13A7.26,7.26,0,0,1,1003.91,125Z"/><path class="cls-3" d="M1002.85,136.41a8.21,8.21,0,0,1-2.73-.9,8.38,8.38,0,0,1,2.85.36,7.27,7.27,0,0,1,2.73.9A7.08,7.08,0,0,1,1002.85,136.41Z"/><path class="cls-3" d="M998.74,147.15a8.63,8.63,0,0,1-2.39-1.6,8.46,8.46,0,0,1,2.65,1.12c1.4.74,2.47,1.45,2.39,1.6A7.24,7.24,0,0,1,998.74,147.15Z"/><path class="cls-3" d="M991.9,156.4a8.37,8.37,0,0,1-1.87-2.18,8.19,8.19,0,0,1,2.25,1.78c1.15,1.09,2,2.06,1.87,2.18S993,157.5,991.9,156.4Z"/><path class="cls-3" d="M982.84,163.48a8.4,8.4,0,0,1-1.22-2.6,8.45,8.45,0,0,1,1.7,2.32,7.33,7.33,0,0,1,1.22,2.6C984.4,165.89,983.64,164.85,982.84,163.48Z"/><path class="cls-3" d="M972.21,167.87a8.31,8.31,0,0,1-.47-2.83,8.49,8.49,0,0,1,1,2.69,7.15,7.15,0,0,1,.48,2.83A7.11,7.11,0,0,1,972.21,167.87Z"/><path class="cls-3" d="M960.79,169.24a8.46,8.46,0,0,1,.3-2.86,8.42,8.42,0,0,1,.25,2.87,7,7,0,0,1-.3,2.85A7.32,7.32,0,0,1,960.79,169.24Z"/><path class="cls-3" d="M949.42,167.51a8.17,8.17,0,0,1,1.06-2.67,8.38,8.38,0,0,1-.53,2.83,7,7,0,0,1-1.06,2.67A7.32,7.32,0,0,1,949.42,167.51Z"/><path class="cls-3" d="M938.94,162.79a8.42,8.42,0,0,1,1.73-2.29,8.28,8.28,0,0,1-1.26,2.58c-.82,1.34-1.6,2.37-1.74,2.28A7.12,7.12,0,0,1,938.94,162.79Z"/><path class="cls-3" d="M930.1,155.42a8.41,8.41,0,0,1,2.29-1.74,8.6,8.6,0,0,1-1.91,2.15c-1.15,1.08-2.18,1.86-2.29,1.74S928.94,156.49,930.1,155.42Z"/><path class="cls-3" d="M923.56,146a8.64,8.64,0,0,1,2.66-1.07,8.05,8.05,0,0,1-2.41,1.56,7,7,0,0,1-2.67,1.06A7.31,7.31,0,0,1,923.56,146Z"/><path class="cls-3" d="M919.8,135.1a8.32,8.32,0,0,1,2.86-.3,8.56,8.56,0,0,1-2.75.84,7.19,7.19,0,0,1-2.86.31A7.23,7.23,0,0,1,919.8,135.1Z"/><path class="cls-3" d="M919.09,123.62a8.46,8.46,0,0,1,2.84.46,8.35,8.35,0,0,1-2.88.09,6.88,6.88,0,0,1-2.83-.47A7.19,7.19,0,0,1,919.09,123.62Z"/><path class="cls-3" d="M921.48,112.37a8.7,8.7,0,0,1,2.61,1.21,8.43,8.43,0,0,1-2.79-.69,7.36,7.36,0,0,1-2.61-1.21A6.93,6.93,0,0,1,921.48,112.37Z"/><path class="cls-3" d="M926.81,102.18a8.28,8.28,0,0,1,2.19,1.87,8.39,8.39,0,0,1-2.51-1.42c-1.3-.9-2.27-1.73-2.18-1.87A7.26,7.26,0,0,1,926.81,102.18Z"/><path class="cls-3" d="M934.67,93.79a8.1,8.1,0,0,1,1.61,2.38c-.11.09-1-.82-2-2s-1.74-2.28-1.61-2.39S933.68,92.56,934.67,93.79Z"/><path class="cls-3" d="M944.49,87.8a8.26,8.26,0,0,1,.91,2.73A8.43,8.43,0,0,1,944,88a7.1,7.1,0,0,1-.91-2.72A7.05,7.05,0,0,1,944.49,87.8Z"/><path class="cls-3" d="M955.56,84.69a8.15,8.15,0,0,1,.14,2.87,8.65,8.65,0,0,1-.68-2.79,7.16,7.16,0,0,1-.14-2.87A7,7,0,0,1,955.56,84.69Z"/><path class="cls-3" d="M967.07,84.64a8.4,8.4,0,0,1-.63,2.81,8.42,8.42,0,0,1,.08-2.88,7.25,7.25,0,0,1,.63-2.8A7.11,7.11,0,0,1,967.07,84.64Z"/><path class="cls-3" d="M978.16,87.69a8.85,8.85,0,0,1-1.36,2.53,8.21,8.21,0,0,1,.85-2.75A7.19,7.19,0,0,1,979,84.94,7.18,7.18,0,0,1,978.16,87.69Z"/><path class="cls-3" d="M988,93.6a8.63,8.63,0,0,1-2,2.08,8.33,8.33,0,0,1,1.56-2.42c1-1.24,1.86-2.17,2-2.07A7.11,7.11,0,0,1,988,93.6Z"/><path class="cls-3" d="M995.94,101.94a8,8,0,0,1-2.47,1.46,8.62,8.62,0,0,1,2.15-1.91,7.22,7.22,0,0,1,2.47-1.46C998.19,100.16,997.23,101,995.94,101.94Z"/><path class="cls-3" d="M1001.34,112.09a8.47,8.47,0,0,1-2.77.75,8.25,8.25,0,0,1,2.58-1.26,7.18,7.18,0,0,1,2.78-.75A7.24,7.24,0,0,1,1001.34,112.09Z"/><path class="cls-3" d="M1003.81,123.32a8.28,8.28,0,0,1-2.88,0,8.44,8.44,0,0,1,2.83-.52,7.22,7.22,0,0,1,2.87,0C1006.65,123,1005.38,123.2,1003.81,123.32Z"/><path class="cls-1" d="M942.15,73,942,73l-.51.2c-.44.19-1.11.41-1.94.78a57.37,57.37,0,0,0-6.88,3.43c-1.41.81-2.9,1.79-4.46,2.88a60.36,60.36,0,0,0-4.76,3.8,57.39,57.39,0,0,0-9.22,10.43,56.74,56.74,0,0,0-6.37,12.38,59.71,59.71,0,0,0-1.81,5.82c-.46,1.85-.82,3.6-1.07,5.2a60.2,60.2,0,0,0-.7,7.66c0,.9,0,1.61,0,2.09v.54c0,.13,0,.19,0,.19a1.31,1.31,0,0,1,0-.19l0-.54c0-.48-.06-1.19,0-2.1a54.31,54.31,0,0,1,.61-7.68c.24-1.61.59-3.36,1-5.23a59.84,59.84,0,0,1,1.79-5.85,55.63,55.63,0,0,1,15.67-22.92,60.39,60.39,0,0,1,4.79-3.79c1.58-1.09,3.08-2.06,4.5-2.86a52.36,52.36,0,0,1,6.94-3.36c.84-.36,1.52-.57,2-.73L942,73C942.09,73,942.15,72.94,942.15,73Z"/><path class="cls-1" d="M958.68,69.74A13,13,0,0,1,957,70c-1.06.11-2.52.27-4.13.47s-3.07.43-4.13.6a12.09,12.09,0,0,1-1.71.22,8.55,8.55,0,0,1,1.68-.42c1-.22,2.5-.47,4.12-.68s3.09-.34,4.16-.4A9,9,0,0,1,958.68,69.74Z"/><g class="cls-20"><path d="M921.71,156.66s25.77,40.68,65.76,19.84c41.74-21.74,18.68-71.6,18.68-71.6s19.64,39.73-21,65.64C975,177,963.94,177,955.52,176.15,934,174,921.71,156.66,921.71,156.66Z"/></g><path class="cls-8" d="M975.33,100.32a169.8,169.8,0,0,1-.66,21.87,27,27,0,0,1-1.57,7.73,10.2,10.2,0,0,1-5.18,5.72,6.41,6.41,0,0,1-7.26-1.42Z"/><polygon class="cls-18" points="960.38 122.84 978.46 92.39 967.55 126.76 961.97 128.43 960.38 122.84"/><g class="cls-20"><polygon points="978.46 92.39 965.05 123.5 967.55 126.76 978.46 92.39"/></g><circle class="cls-19" cx="961.97" cy="128.43" r="5.82"/><path class="cls-3" d="M967.79,128.43a11.89,11.89,0,0,0-.23-1.41,5.8,5.8,0,0,0-2.13-3.13,5.55,5.55,0,0,0-2.4-1.06,5.73,5.73,0,0,0-3,.26,5.31,5.31,0,0,0-1.44.78,5.26,5.26,0,0,0-1.2,1.2,5.68,5.68,0,0,0,0,6.72,5.26,5.26,0,0,0,1.2,1.2,5.31,5.31,0,0,0,1.44.78,5.73,5.73,0,0,0,3,.26,5.55,5.55,0,0,0,2.4-1.06,5.8,5.8,0,0,0,2.13-3.13,11.89,11.89,0,0,0,.23-1.41,4.55,4.55,0,0,1-.13,1.43,5.7,5.7,0,0,1-2.1,3.27A5.89,5.89,0,0,1,960,134a5.53,5.53,0,0,1-1.51-.81,5.2,5.2,0,0,1-1.26-1.26,5.88,5.88,0,0,1,0-7,5.2,5.2,0,0,1,1.26-1.26,5.53,5.53,0,0,1,1.51-.81,5.91,5.91,0,0,1,3.12-.24,6,6,0,0,1,2.49,1.12,5.75,5.75,0,0,1,2.1,3.28A4.55,4.55,0,0,1,967.79,128.43Z"/><circle class="cls-4" cx="961.97" cy="128.43" r="4.33" transform="translate(645.53 1045.9) rotate(-78.57)"/><circle class="cls-13" cx="827.01" cy="497.91" r="91.21"/><circle class="cls-1" cx="827.01" cy="497.91" r="85.77"/><g class="cls-21"><rect class="cls-15" x="808.58" y="455.39" width="144.44" height="375.4"/><rect class="cls-16" x="755.11" y="455.39" width="144.45" height="375.4"/><rect class="cls-15" x="767.72" y="480.88" width="119.24" height="19.12"/><rect class="cls-5" x="772.34" y="480.88" width="114.61" height="19.12"/><rect class="cls-15" x="767.72" y="513.06" width="119.24" height="19.12"/><rect class="cls-5" x="772.34" y="513.06" width="114.61" height="19.12"/><rect class="cls-15" x="767.72" y="546.51" width="119.24" height="19.12"/><rect class="cls-5" x="772.34" y="546.51" width="114.61" height="19.12"/><rect class="cls-15" x="767.72" y="579.96" width="119.24" height="19.12"/><rect class="cls-5" x="772.34" y="579.96" width="114.61" height="19.12"/><rect class="cls-5" x="751.03" y="451.61" width="205.75" height="9.16"/><rect class="cls-5" x="751.03" y="435.08" width="205.75" height="9.16"/><rect class="cls-16" x="755.11" y="442.45" width="194.83" height="9.16"/><rect class="cls-8" x="912.78" y="480.87" width="40.25" height="19.13"/><rect class="cls-8" x="912.78" y="512.34" width="40.25" height="19.13"/><rect class="cls-8" x="912.78" y="543.82" width="40.25" height="19.13"/><rect class="cls-8" x="912.78" y="579.96" width="40.25" height="19.13"/><rect class="cls-3" x="783.84" y="480" width="87" height="20.86"/><path class="cls-1" d="M801.4,486v8.45h-1.69V489l-2.27,5.5h-1.28l-2.28-5.5v5.5h-1.7V486h1.93l2.69,6.29,2.69-6.29Z"/><path class="cls-1" d="M803.19,486.7a.94.94,0,0,1-.3-.71.93.93,0,0,1,.3-.71,1.1,1.1,0,0,1,1.49,0,.93.93,0,0,1,.3.71.94.94,0,0,1-.3.71,1.13,1.13,0,0,1-1.49,0Zm1.58,1.08v6.71h-1.69v-6.71Z"/><path class="cls-1" d="M812.1,488.44a2.88,2.88,0,0,1,.74,2.12v3.93h-1.69v-3.7a1.75,1.75,0,0,0-.4-1.23,1.41,1.41,0,0,0-1.09-.43,1.44,1.44,0,0,0-1.11.43,1.71,1.71,0,0,0-.41,1.23v3.7h-1.7v-6.71h1.7v.84a2.47,2.47,0,0,1,.87-.69,2.73,2.73,0,0,1,1.15-.25A2.61,2.61,0,0,1,812.1,488.44Z"/><path class="cls-1" d="M814.57,486.7a.94.94,0,0,1-.3-.71.93.93,0,0,1,.3-.71,1.1,1.1,0,0,1,1.49,0,.93.93,0,0,1,.3.71.94.94,0,0,1-.3.71,1.13,1.13,0,0,1-1.49,0Zm1.58,1.08v6.71h-1.69v-6.71Z"/><path class="cls-1" d="M818.91,494.31a2.63,2.63,0,0,1-1-.81,2,2,0,0,1-.42-1.13h1.71a.94.94,0,0,0,.38.65,1.32,1.32,0,0,0,.83.25,1.3,1.3,0,0,0,.76-.19.6.6,0,0,0,.27-.5.52.52,0,0,0-.33-.49,6.29,6.29,0,0,0-1.06-.36,10.51,10.51,0,0,1-1.23-.37,2.13,2.13,0,0,1-.83-.6,1.57,1.57,0,0,1-.34-1.08,1.73,1.73,0,0,1,.32-1,2.13,2.13,0,0,1,.92-.73,3.41,3.41,0,0,1,1.41-.27,2.9,2.9,0,0,1,1.92.6,2.21,2.21,0,0,1,.78,1.62h-1.62a.86.86,0,0,0-.33-.64,1.25,1.25,0,0,0-.8-.23,1.22,1.22,0,0,0-.71.17.56.56,0,0,0,.1,1,4.75,4.75,0,0,0,1,.36,9.07,9.07,0,0,1,1.2.38,2.18,2.18,0,0,1,.82.6,1.64,1.64,0,0,1,.36,1.07,1.74,1.74,0,0,1-.33,1,2,2,0,0,1-.92.72,3.37,3.37,0,0,1-1.4.26A3.69,3.69,0,0,1,818.91,494.31Z"/><path class="cls-1" d="M826.4,489.17v3.25a.63.63,0,0,0,.17.49.8.8,0,0,0,.55.15h.79v1.43h-1.07a1.86,1.86,0,0,1-2.14-2.08v-3.24h-.8v-1.39h.8v-1.66h1.7v1.66h1.51v1.39Z"/><path class="cls-1" d="M835.32,491.65h-4.9a1.72,1.72,0,0,0,.5,1.14,1.6,1.6,0,0,0,1.11.41,1.37,1.37,0,0,0,1.34-.81h1.83a3.06,3.06,0,0,1-1.11,1.59,3.25,3.25,0,0,1-2,.62,3.51,3.51,0,0,1-1.74-.43,3,3,0,0,1-1.2-1.21,3.85,3.85,0,0,1-.43-1.82,3.81,3.81,0,0,1,.43-1.83,3,3,0,0,1,1.19-1.22,3.57,3.57,0,0,1,1.75-.42,3.61,3.61,0,0,1,1.72.41,2.93,2.93,0,0,1,1.17,1.17,3.56,3.56,0,0,1,.42,1.74A3.41,3.41,0,0,1,835.32,491.65Zm-1.7-1.14a1.34,1.34,0,0,0-.48-1.05,1.67,1.67,0,0,0-1.12-.4,1.51,1.51,0,0,0-1.06.39,1.61,1.61,0,0,0-.53,1.06Z"/><path class="cls-1" d="M839.16,488a2.29,2.29,0,0,1,1.21-.31v1.79h-.45a1.72,1.72,0,0,0-1.21.37,1.74,1.74,0,0,0-.41,1.31v3.34h-1.69v-6.71h1.69v1A2.44,2.44,0,0,1,839.16,488Z"/><path class="cls-1" d="M841.62,486.7a.94.94,0,0,1-.3-.71.93.93,0,0,1,.3-.71,1.1,1.1,0,0,1,1.49,0,.93.93,0,0,1,.3.71.94.94,0,0,1-.3.71,1.13,1.13,0,0,1-1.49,0Zm1.58,1.08v6.71h-1.7v-6.71Z"/><path class="cls-1" d="M846.11,494.17a3.09,3.09,0,0,1-1.22-1.21,3.74,3.74,0,0,1-.44-1.82,3.59,3.59,0,0,1,.45-1.82,3.19,3.19,0,0,1,1.25-1.22,3.8,3.8,0,0,1,3.51,0,3.1,3.1,0,0,1,1.24,1.22,3.49,3.49,0,0,1,.46,1.82,3.55,3.55,0,0,1-.47,1.82,3.19,3.19,0,0,1-1.26,1.21,3.63,3.63,0,0,1-1.78.43A3.51,3.51,0,0,1,846.11,494.17Zm2.61-1.27a1.62,1.62,0,0,0,.65-.67,2.28,2.28,0,0,0,.24-1.09,2,2,0,0,0-.5-1.47,1.65,1.65,0,0,0-1.23-.52,1.6,1.6,0,0,0-1.22.52,2,2,0,0,0-.49,1.47,2.07,2.07,0,0,0,.48,1.47,1.59,1.59,0,0,0,1.2.52A1.77,1.77,0,0,0,848.72,492.9Z"/><path class="cls-1" d="M861.46,490.87a2.07,2.07,0,0,1,.46,1.33,2.08,2.08,0,0,1-1.29,2,3.45,3.45,0,0,1-1.49.29h-3.65V486H859a3.69,3.69,0,0,1,1.48.27,2.13,2.13,0,0,1,.95.78,2.07,2.07,0,0,1,.32,1.13,1.93,1.93,0,0,1-.39,1.23,2.17,2.17,0,0,1-1.05.71A1.81,1.81,0,0,1,861.46,490.87Zm-4.27-1.34h1.55a1.43,1.43,0,0,0,.93-.28,1,1,0,0,0,.33-.78,1,1,0,0,0-.33-.79,1.43,1.43,0,0,0-.93-.28h-1.55Zm2.67,3.29a1,1,0,0,0,.34-.82,1.07,1.07,0,0,0-.36-.86,1.49,1.49,0,0,0-1-.31h-1.67v2.28h1.7A1.42,1.42,0,0,0,859.86,492.82Z"/></g><path class="cls-3" d="M1152.44,597.07c0,.26-258,.47-576.19.47S0,597.33,0,597.07s258-.47,576.25-.47S1152.44,596.81,1152.44,597.07Z"/></svg>