<svg id="Capa_2" data-name="Capa 2" xmlns="http://www.w3.org/2000/svg" viewBox="0 0 1152.44 609.84"><defs><style>.cls-1{fill:#e1e1e1;}.cls-2{fill:#ececec;}.cls-3{fill:#f5f5f5;}.cls-4{fill:#1a2e35;}.cls-5{fill:#375a64;}.cls-6{fill:#fff;}.cls-7{fill:#00499a;}.cls-11,.cls-8{opacity:0.3;}.cls-9{fill:#ffbf9d;}.cls-10{fill:#ff9a6c;}.cls-12{fill:#fafafa;}.cls-13{fill:#3abeb0;}.cls-14{fill:#f59d1f;}.cls-15{fill:#f4bb47;}.cls-16{fill:#b8695e;}.cls-17{fill:#925249;}.cls-18{fill:#008db8;}.cls-19{fill:#999;}</style></defs><title>ugiland - casos de exito</title><rect class="cls-1" x="558.39" y="75.38" width="9.24" height="30.94"/><rect class="cls-1" x="481.25" y="70.89" width="9.24" height="35.42"/><rect class="cls-1" x="500.53" y="63.51" width="9.24" height="42.8"/><rect class="cls-1" x="519.82" y="65.86" width="9.24" height="40.46"/><rect class="cls-1" x="539.11" y="52.17" width="9.24" height="54.14"/><rect class="cls-1" x="577.68" y="52.44" width="9.24" height="53.88"/><rect class="cls-1" x="596.97" y="70.13" width="9.24" height="36.18"/><rect class="cls-1" x="616.26" y="54.81" width="9.24" height="51.51"/><rect class="cls-1" x="635.54" y="43.21" width="9.24" height="63.11"/><rect class="cls-1" x="654.83" y="54.55" width="9.24" height="51.77"/><path class="cls-2" d="M907.43,103.45l76.38-11.67c6.41,41.9-22.81,81.65-64.71,88.05S837.45,157,831.05,115.12s22.81-81.65,64.71-88.06a77.25,77.25,0,0,1,20.15-.42Z"/><path class="cls-1" d="M932.21,26.89,922.94,86.1l58.12-10.92S972.51,42,932.21,26.89Z"/><path class="cls-3" d="M425.38,149.12a37.87,37.87,0,1,1,38.47,37.44A38,38,0,0,1,425.38,149.12Zm56-.9a18.11,18.11,0,1,0-17.81,18.48A18.17,18.17,0,0,0,481.35,148.22Z"/><path class="cls-1" d="M425.38,149.13a38,38,0,0,1,37.26-38.66l.31,19.85a18.19,18.19,0,0,0,.59,36.38l.31,19.86A38,38,0,0,1,425.38,149.13Z"/><path class="cls-2" d="M459.24,107.42c24.43-.4,43.91,18.56,44.31,43.1l-23.12.38c-.19-11.74-9.12-19.13-20.8-18.94Z"/><path class="cls-4" d="M1152.44,581.39c0,.2-258,.36-576.19.36S0,581.59,0,581.39,258,581,576.25,581,1152.44,581.19,1152.44,581.39Z"/><rect class="cls-5" x="246.6" y="145.65" width="644.16" height="425.97" rx="14.57"/><path class="cls-5" d="M225.51,544.12h697.9a0,0,0,0,1,0,0v19.47a17.8,17.8,0,0,1-17.8,17.8H243.31a17.8,17.8,0,0,1-17.8-17.8V544.12A0,0,0,0,1,225.51,544.12Z"/><polygon class="cls-4" points="505.18 540.12 513.84 553.9 635.7 553.9 643.74 540.12 505.18 540.12"/><path class="cls-4" d="M885.22,540.12c0,.23-143,.42-319.3.42s-319.32-.19-319.32-.42,142.94-.41,319.32-.41S885.22,539.89,885.22,540.12Z"/><rect class="cls-2" x="265.04" y="170.15" width="604.74" height="358.71" rx="3.27"/><polygon class="cls-6" points="869.14 529.39 264.4 529.39 265.04 196.96 869.14 196.96 869.14 529.39"/><path class="cls-4" d="M314.64,184a4.83,4.83,0,1,1-4.83-4.83A4.83,4.83,0,0,1,314.64,184Z"/><path class="cls-4" d="M285.37,184a4.83,4.83,0,1,1-4.83-4.83A4.83,4.83,0,0,1,285.37,184Z"/><path class="cls-4" d="M299.42,184a4.83,4.83,0,1,1-4.83-4.83A4.83,4.83,0,0,1,299.42,184Z"/><path class="cls-7" d="M664,335.14s19,9.27,25.7,33.2,27.14,86.27,27.14,86.27,11.69,13.75,12.95,23.94-1.26,34.82-5,39.41a10.57,10.57,0,0,1-9.11,3.83l-49.21-4.66L647.05,387.37Z"/><path class="cls-7" d="M501.24,332.87s-35.18,11-43.95,20.64l28.81,134-.46,42.29H652.46c0-2.09,1.49-140.42,1.49-140.42l10-54.28-59.3-10.44L593,315.52l-66,3.34-10,10Z"/><g class="cls-8"><path d="M514.61,449.16c-.52-1.14-1.25-2.37-2.47-2.62-2-.42-3.36,2-4,3.89a175.9,175.9,0,0,1-21.92,42.79l-.42,20.58c9.72-8.18,19.31-16.95,25.51-28S519.84,460.74,514.61,449.16Z"/></g><path class="cls-7" d="M457.29,353.51s-11.6,15.81-16.41,26.13-44.71,97-47.12,105.92-8.59,37.14,9.63,43.67h37.49l37.62-76.08,1.93-88.3Z"/><path class="cls-4" d="M443.28,474.27c0,.06-.84-.73-2.56-1.72a29.14,29.14,0,0,0-7.87-2.85,37.83,37.83,0,0,0-5.74-.8,22.82,22.82,0,0,0-6.57.43,24.43,24.43,0,0,0-12.62,7.92,34,34,0,0,0-7.14,13.28,66.42,66.42,0,0,0-2.26,12.26c-.35,3.55-.48,6.44-.6,8.43-.06.93-.11,1.69-.15,2.3a2.83,2.83,0,0,1-.1.79,3.49,3.49,0,0,1,0-.8c0-.6,0-1.37,0-2.3,0-2,.09-4.89.37-8.46a63.85,63.85,0,0,1,2.13-12.4,34.28,34.28,0,0,1,7.24-13.58,24.91,24.91,0,0,1,13-8.09,23.1,23.1,0,0,1,6.76-.38,36.7,36.7,0,0,1,5.81.91,27.17,27.17,0,0,1,7.9,3.1,13.5,13.5,0,0,1,1.86,1.38A4.32,4.32,0,0,1,443.28,474.27Z"/><path class="cls-4" d="M425.5,459.13a4.53,4.53,0,0,1,1.26-.21,21.15,21.15,0,0,1,3.48,0,28.28,28.28,0,0,1,5.11.75,33.3,33.3,0,0,1,6,2.12,33,33,0,0,1,5.41,3.31,28.32,28.32,0,0,1,3.8,3.49,21.37,21.37,0,0,1,2.15,2.74,4.35,4.35,0,0,1,.64,1.1c-.11.08-1.13-1.42-3.16-3.49a33.15,33.15,0,0,0-3.83-3.31,32.53,32.53,0,0,0-11.14-5.31,32.63,32.63,0,0,0-5-.9C427.32,459.11,425.51,459.26,425.5,459.13Z"/><path class="cls-4" d="M459.39,455a8.58,8.58,0,0,1-1.73-.14c-1.11-.14-2.71-.3-4.7-.45A80,80,0,0,0,422.3,458c-1.89.61-3.41,1.15-4.45,1.55a7.42,7.42,0,0,1-1.65.53,8.78,8.78,0,0,1,1.54-.79c1-.48,2.52-1.1,4.4-1.77a71,71,0,0,1,30.87-3.7c2,.22,3.6.46,4.69.69A7.32,7.32,0,0,1,459.39,455Z"/><path class="cls-4" d="M566.16,380.91s-.14-.14-.38-.45-.61-.81-1-1.37L561,373.87l-13.06-18.42.58-.08c-2,5.93-4.24,12.47-6.59,19.36l-.15.44-.38-.25c-.24-.15-.51-.32-.77-.5a39.77,39.77,0,0,1-8.17-6.89,48.32,48.32,0,0,1-5.82-8.06,67.32,67.32,0,0,1-6.42-15.5,105.34,105.34,0,0,1-2.42-11l-.53-3a7.32,7.32,0,0,0-.18-.78.86.86,0,0,1-.08-.25c.15-.07.56,1.38,1.06,4s1.29,6.39,2.64,10.95a69,69,0,0,0,6.5,15.31,48.24,48.24,0,0,0,5.78,7.92,39.73,39.73,0,0,0,8,6.76l.76.49-.52.19c2.36-6.88,4.61-13.42,6.65-19.34l.21-.62.37.53,12.84,18.58,3.62,5.32c.38.59.69,1.06.94,1.43A2.07,2.07,0,0,1,566.16,380.91Z"/><g class="cls-8"><path d="M609.59,444.9a75.84,75.84,0,0,0,9.64,45c7.76,13.5,19.14,25.53,33.31,32,.46-13.76-.21-30,.25-43.72Z"/></g><path class="cls-9" d="M608,426.79s-6.06,1.68-1.51,14.1,6.06,11.66,9.09,23.27,6.56,22.22,11.86,28.78,25,19.95,25,19.95l17.67-16.67s-2.91-12.42-2.21-20.85,2.46-29.14,2.21-32.67-4-12.12-4-12.12V424.7L657,396.75s-5-2.28-6.81,5.8l-3-8.57s-4.8-.77-6.06,9.08,1,23.48,1,23.48l-2.53,17.17-3.79,11.61-3.28.51s-4.94-1.35-7.64-10.65S614.84,424.77,608,426.79Z"/><path class="cls-10" d="M664.21,470.71a4.73,4.73,0,0,1-.08-.64c0-.48-.07-1.09-.13-1.85-.09-1.69-.21-4-.37-7-.27-6-.65-14.42-1.09-24.22l.08.21a3.55,3.55,0,0,0-3.58-.93,5.17,5.17,0,0,0-3.27,2.4c-1.55,2.48-1.63,5.72-2.12,8.84-.95,7.08-1.87,13.82-2.7,20-.42,3.07-.86,6-1.46,8.69a57.13,57.13,0,0,1-2.19,7.36,62.72,62.72,0,0,0-1.9,6,17.68,17.68,0,0,0-.57,4.67,15.14,15.14,0,0,0,.69,4,6.69,6.69,0,0,1-.42-1,10.68,10.68,0,0,1-.55-3,17.74,17.74,0,0,1,.45-4.77,59.19,59.19,0,0,1,1.82-6.08,57.9,57.9,0,0,0,2.08-7.32c.57-2.68,1-5.58,1.39-8.65.82-6.14,1.71-12.88,2.65-20,.22-1.58.39-3.14.67-4.69a12.27,12.27,0,0,1,1.56-4.44,5.93,5.93,0,0,1,3.71-2.7,4.24,4.24,0,0,1,4.26,1.17l.07.09V437c.34,9.79.63,18.19.84,24.22.07,2.92.13,5.27.18,7,0,.76,0,1.37,0,1.85A3,3,0,0,1,664.21,470.71Z"/><path class="cls-10" d="M654.55,438.89a7.42,7.42,0,0,1-.74-1.58,38.32,38.32,0,0,1-1.48-4.53,44.4,44.4,0,0,1-1.27-6.95,20.32,20.32,0,0,1-.08-4.22,9,9,0,0,1,1.53-4.33,6.11,6.11,0,0,1,3.23-2.42l.27-.08.14.24c2.56,4.52,4.78,8.5,6.34,11.37l1.82,3.39a6.59,6.59,0,0,1,.58,1.27,5.61,5.61,0,0,1-.8-1.15l-2-3.28c-1.67-2.8-4-6.75-6.56-11.25l.41.17a5.44,5.44,0,0,0-2.84,2.16,8.47,8.47,0,0,0-1.42,4,20.43,20.43,0,0,0,0,4.07,50,50,0,0,0,1.1,6.9c.45,1.94.92,3.49,1.25,4.55A9.08,9.08,0,0,1,654.55,438.89Z"/><path class="cls-10" d="M650.33,441.16a6.81,6.81,0,0,1-.17-1.61c0-1.19-.1-2.66-.17-4.39-.12-3.71-.24-8.84-.32-14.51s-.26-10.8.22-14.53a22.52,22.52,0,0,1,1-4.32,5.48,5.48,0,0,1,.65-1.49,40.47,40.47,0,0,0-1.09,5.87c-.35,3.66,0,8.8,0,14.46s.12,10.8.11,14.51c0,1.74,0,3.21-.06,4.4A6.65,6.65,0,0,1,650.33,441.16Z"/><path class="cls-10" d="M635.38,487.72c-.1-.09,1-1.39,2.37-3.75a30.13,30.13,0,0,0,2.06-4.31,33.62,33.62,0,0,0,1.58-5.62,34.71,34.71,0,0,0,.49-5.82,31.78,31.78,0,0,0-.42-4.76c-.46-2.69-1-4.29-.91-4.34a4.54,4.54,0,0,1,.5,1.1,20.58,20.58,0,0,1,.91,3.15,26.63,26.63,0,0,1,.58,4.84,31.38,31.38,0,0,1-.44,6,30.67,30.67,0,0,1-1.67,5.73,27,27,0,0,1-2.24,4.33,20.55,20.55,0,0,1-2,2.64C635.72,487.45,635.42,487.75,635.38,487.72Z"/><path class="cls-9" d="M666.41,479l15.34,5.33s14.64-7.58,24.74,0,18.87,27.53,16.09,35.61c0,0-7,8.61-12.27,9.87s-25.91-3.73-34.49-5.54-23.36-11.41-23.36-11.41Z"/><path class="cls-10" d="M668.29,501.63a5.31,5.31,0,0,1-.16-1.36c-.06-1-.13-2.27-.22-3.7-.16-3.13-.37-7.46-.44-12.25a121.57,121.57,0,0,1,.36-12.26c.13-1.57.3-2.83.46-3.7a5,5,0,0,1,.32-1.33c.11,0-.13,1.94-.27,5.06s-.22,7.44-.15,12.22.17,8.92.23,12.24c0,1.57,0,2.84,0,3.71A5.06,5.06,0,0,1,668.29,501.63Z"/><path class="cls-4" d="M718.87,483.75a51.06,51.06,0,0,0-5.1-4.6,28.08,28.08,0,0,0-31.09-1.71,47.39,47.39,0,0,0-5.58,4,7.73,7.73,0,0,1,1.27-1.37,24.91,24.91,0,0,1,4-3.08,27.56,27.56,0,0,1,31.65,1.75,24.74,24.74,0,0,1,3.69,3.5A8.3,8.3,0,0,1,718.87,483.75Z"/><path class="cls-4" d="M716.9,471a29.77,29.77,0,0,0-6.38-3.52,28.17,28.17,0,0,0-17.27-.52,40.32,40.32,0,0,0-8.93,3.71,43.69,43.69,0,0,0-6.47,4.57c-1.72,1.47-3,2.76-3.94,3.65a11.1,11.1,0,0,1-1.44,1.35,8.85,8.85,0,0,1,1.24-1.55,48.84,48.84,0,0,1,3.8-3.83,40.07,40.07,0,0,1,6.48-4.76,39.15,39.15,0,0,1,9.06-3.84,27.77,27.77,0,0,1,17.65.74,20.4,20.4,0,0,1,4.72,2.67,11.66,11.66,0,0,1,1.12.95C716.79,470.82,716.91,471,716.9,471Z"/><path class="cls-4" d="M717,459.88c0,.14-2.72-.68-7.17-1.28a59.48,59.48,0,0,0-7.86-.5,57.55,57.55,0,0,0-18.92,3.33,59.32,59.32,0,0,0-7.22,3.15c-4,2.09-6.22,3.78-6.3,3.66a9.46,9.46,0,0,1,1.53-1.23,20,20,0,0,1,1.91-1.3,30.18,30.18,0,0,1,2.62-1.57,50.89,50.89,0,0,1,7.24-3.33,57.63,57.63,0,0,1,9.41-2.55,58.59,58.59,0,0,1,9.73-.82,51,51,0,0,1,7.93.66c1.13.14,2.12.39,3,.58a20,20,0,0,1,2.24.57A9.79,9.79,0,0,1,717,459.88Z"/><path class="cls-4" d="M599.52,324.25a12.75,12.75,0,0,1,1.06,4.07,39.92,39.92,0,0,1-.58,11.9,70.22,70.22,0,0,1-2,8.29,63,63,0,0,1-4,9.22c-3.31,6.37-7.46,13.31-12.28,20.72l-.56.87v-1c0-4.89,0-10,0-15.37l.54.26-12.93,10.44.11-.16a135.86,135.86,0,0,0-5.75,31.09c-1.27,16.86-.25,33,.55,47.61s1.12,27.83,1.58,38.91.84,20,1.17,26.22c.19,3.07.33,5.46.43,7.13,0,.78.09,1.4.12,1.85s0,.63,0,.63a6.21,6.21,0,0,1-.1-.63c0-.44-.11-1.06-.19-1.84-.15-1.63-.35-4-.56-7.12-.42-6.19-.89-15.15-1.4-26.22s-1.08-24.26-1.74-38.9c-.83-14.62-1.87-30.77-.6-47.69a135.39,135.39,0,0,1,5.81-31.26l0-.1.08-.06,13-10.42.54-.43v.69c0,5.34,0,10.48,0,15.37l-.56-.17c9.51-14.76,17.25-27.58,18.44-37.95a40.58,40.58,0,0,0,.75-11.81,19.18,19.18,0,0,0-.57-3.07C599.61,324.6,599.52,324.25,599.52,324.25Z"/><path class="cls-6" d="M574.67,502.92l-.49,0a3.93,3.93,0,1,0,.49,0Z"/><path class="cls-6" d="M574.67,449.53h-.49a3.86,3.86,0,1,0,.49,0Z"/><path class="cls-6" d="M574.15,401.77a3.91,3.91,0,0,0,.52-7.79l-.49,0a3.91,3.91,0,0,0,0,7.81Z"/><path class="cls-4" d="M514.35,261.69c-4.85-5.37-9.75-10.81-13.29-17.13s-5.65-13.7-4.48-20.85c.68-4.18,2.46-8.16,2.74-12.39.39-5.81-2.05-11.89,0-17.35,3.22-8.52,14.69-9.83,21.65-15.72,5.41-4.59,8-12,14-15.88,5.2-3.37,11.89-3.3,18-2.43s12.32,2.42,18.46,1.59c4.38-.59,8.5-2.36,12.79-3.42s9.08-1.34,12.9.88,6,7.64,3.46,11.28c7.12-3.28,16.17,2.27,18.12,9.86s-2,15.8-8,20.81-13.84,7.34-21.54,8.79c-21.81,4.11-45.48,1.79-64.27-10"/><path class="cls-9" d="M591,335c-1.07-8.26-1.94-15.15-2-16,0,0,27.59-6.2,26.07-34.11-.73-13.48-4.51-41.13-8.21-66.1a52.06,52.06,0,0,0-55-44.27l-2.69.18c-28.9,3.64-41.95,30.21-37.52,59l15.59,96.5s6.65,21.35,20.88,25l18,25.65,3-11,13.38-11.65a52.64,52.64,0,0,0,6.6-9.82C592,343.08,591.39,337.62,591,335Z"/><path class="cls-10" d="M589.07,318.62s-17.53,2.61-37-7.9c0,0,9.93,19.49,37.58,15.12Z"/><path class="cls-4" d="M597.94,242.79a4,4,0,0,1-3.57,4.28,3.82,3.82,0,0,1-4.34-3.32,4,4,0,0,1,3.56-4.28A3.82,3.82,0,0,1,597.94,242.79Z"/><path class="cls-4" d="M601.83,232.9c-.46.55-3.62-1.48-7.91-1.18s-7.27,2.65-7.77,2.16c-.25-.22.19-1.19,1.49-2.28a11,11,0,0,1,6.19-2.37,10.55,10.55,0,0,1,6.34,1.59C601.55,231.74,602.06,232.65,601.83,232.9Z"/><path class="cls-4" d="M557.47,245.69A4,4,0,0,1,553.9,250a3.83,3.83,0,0,1-4.35-3.32,4,4,0,0,1,3.57-4.27A3.82,3.82,0,0,1,557.47,245.69Z"/><path class="cls-4" d="M559.77,236.52c-.45.55-3.62-1.48-7.9-1.18s-7.28,2.65-7.78,2.15c-.25-.21.19-1.18,1.5-2.27a10.89,10.89,0,0,1,6.18-2.37,10.48,10.48,0,0,1,6.34,1.59C559.49,235.36,560,236.27,559.77,236.52Z"/><path class="cls-4" d="M577.45,267.25c0-.24,2.59-.88,6.87-1.72,1.09-.19,2.11-.48,2.24-1.23s-.33-2-.94-3.2l-3.8-8.11c-5.28-11.56-9.19-21.1-8.72-21.31s5.13,9,10.42,20.56q1.92,4.27,3.66,8.17c.49,1.21,1.3,2.58.85,4.25a2.73,2.73,0,0,1-1.69,1.72,7.16,7.16,0,0,1-1.84.39C580.17,267.29,577.48,267.49,577.45,267.25Z"/><path class="cls-4" d="M559.76,219.65c-.35,1.2-4.66.93-9.65,1.87s-9,2.59-9.69,1.59c-.33-.48.3-1.63,1.86-2.86A17.1,17.1,0,0,1,557,217.61C558.91,218.23,559.9,219.09,559.76,219.65Z"/><path class="cls-4" d="M599.43,220.61c-.69,1-3.71.21-7.26.4s-6.51,1.09-7.27.12c-.34-.48.07-1.48,1.32-2.49a10.53,10.53,0,0,1,11.71-.42C599.25,219.13,599.73,220.11,599.43,220.61Z"/><path class="cls-9" d="M515.39,254.21c-.49-.18-19.53-4.39-17.65,14.63s22.5,12.82,22.47,12.27S515.39,254.21,515.39,254.21Z"/><path class="cls-10" d="M511.79,274.87c-.09-.05-.31.26-.85.58a3.36,3.36,0,0,1-2.47.29c-2.08-.54-4.09-3.56-4.52-7a10.94,10.94,0,0,1,.46-4.83,3.82,3.82,0,0,1,2.24-2.79,1.68,1.68,0,0,1,2,.71c.31.51.23.9.33.92s.38-.36.15-1.13a2.21,2.21,0,0,0-.87-1.12,2.56,2.56,0,0,0-1.88-.3c-1.46.25-2.64,1.73-3.17,3.29a11.23,11.23,0,0,0-.62,5.42c.5,3.82,2.82,7.21,5.64,7.73a3.53,3.53,0,0,0,3-.8C511.8,275.33,511.85,274.9,511.79,274.87Z"/><path class="cls-4" d="M605.51,192.83c-1.31,7.57-16.67,14.51-29.4,14.14-11.73-.34-17.53-6.17-26.06-10.31-5.39-2.61-5.39-2.61-12.72-1.42-5.92,1-9,7.95-12.32,12.94C531.34,222,528.78,238,526.1,253c-.3,1.65-.67,3.43-1.93,4.54-2.13,1.89-5.6.76-7.7-1.17-3.37-3.08-4.9-7.65-6-12.08a78.76,78.76,0,0,1-1.88-30.93c1.6-10.27,5.85-20.25,12.87-27.92,8.77-9.58,21.59-15.11,34.57-15.78s26,3.35,36.88,10.47c5,3.3,9.76,7.39,12.61,12.7"/><path class="cls-10" d="M580.25,276.88l-9.69-4.52a3.31,3.31,0,0,0-1.77-.44,2.78,2.78,0,0,0-1.67,1.14A9,9,0,0,0,566,283a7.57,7.57,0,0,0,9.1,3.35c3.43-1.42,5.1-5.42,5.37-9.13Z"/><path class="cls-4" d="M575.44,287c0,.09-.45.37-1.42.57a8.39,8.39,0,0,1-4.17-.31,8.67,8.67,0,0,1-4.81-4,8.9,8.9,0,0,1-.59-7.64,9.28,9.28,0,0,1,2.25-3.4,8.27,8.27,0,0,1,1.57-1.18,2.51,2.51,0,0,1,1.12-.36,2.57,2.57,0,0,1,1.12.22,12.48,12.48,0,0,1,1.51.86c.46.27.9.54,1.33.81l2.36,1.47c2.87,1.83,4.6,3,4.5,3.22s-2-.74-5-2.34l-2.45-1.32-1.35-.75c-.47-.25-1-.56-1.37-.72a1.06,1.06,0,0,0-1.07.1,7.81,7.81,0,0,0-1.27,1,8.13,8.13,0,0,0-1.88,2.89,7.84,7.84,0,0,0,.4,6.49,8,8,0,0,0,4,3.69,9.57,9.57,0,0,0,3.75.7C574.89,287,575.41,286.89,575.44,287Z"/><path class="cls-4" d="M572.38,243.27a33.63,33.63,0,0,0-.75-4.82,19.87,19.87,0,0,0-7.25-10.77,19.51,19.51,0,0,0-18.51-2.75,19.49,19.49,0,0,0-9.06,6.81,19.43,19.43,0,0,0,0,23.06,19.49,19.49,0,0,0,9.06,6.81,19.71,19.71,0,0,0,25.76-13.53,33.42,33.42,0,0,0,.75-4.81s0,.11,0,.32,0,.57,0,.95a9.29,9.29,0,0,1-.12,1.54,14.72,14.72,0,0,1-.37,2.07,19.16,19.16,0,0,1-2.15,5.37,20.08,20.08,0,0,1-13.51,9.55,20.14,20.14,0,0,1-10.6-.83,20.24,20.24,0,0,1-9.4-7,20.09,20.09,0,0,1,0-23.9,18.89,18.89,0,0,1,4.28-4.28,19.09,19.09,0,0,1,5.12-2.74,20.14,20.14,0,0,1,10.6-.83A20.08,20.08,0,0,1,569.75,233a19.16,19.16,0,0,1,2.15,5.37,14.72,14.72,0,0,1,.37,2.07,9.29,9.29,0,0,1,.12,1.54c0,.38,0,.69,0,.95S572.4,243.27,572.38,243.27Z"/><path class="cls-4" d="M619.82,241.41a34.48,34.48,0,0,0-.74-4.7A19.37,19.37,0,0,0,612,226.22a19.07,19.07,0,0,0-18-2.68,18,18,0,0,0-4.8,2.6,17.52,17.52,0,0,0-4,4,18.93,18.93,0,0,0,0,22.46,19.1,19.1,0,0,0,8.82,6.63,19.07,19.07,0,0,0,18-2.68,19.37,19.37,0,0,0,7.06-10.49,34.5,34.5,0,0,0,.74-4.69,8.2,8.2,0,0,1,0,1.23,8.79,8.79,0,0,1-.12,1.5,14.12,14.12,0,0,1-.36,2,19.49,19.49,0,0,1-15.26,14.54,19.73,19.73,0,0,1-10.33-.81,19.74,19.74,0,0,1-9.17-6.85,19.58,19.58,0,0,1,0-23.29,19.63,19.63,0,0,1,9.17-6.84,19.64,19.64,0,0,1,10.33-.82,19.49,19.49,0,0,1,15.26,14.55,13.77,13.77,0,0,1,.36,2,8.79,8.79,0,0,1,.12,1.5A8.39,8.39,0,0,1,619.82,241.41Z"/><path class="cls-4" d="M581.11,237c-.08.09-.54-.3-1.38-.7a7.85,7.85,0,0,0-3.49-.76,7.76,7.76,0,0,0-3.46.88c-.82.43-1.26.84-1.34.76s.25-.61,1.08-1.19a6.71,6.71,0,0,1,3.71-1.18,6.85,6.85,0,0,1,3.75,1C580.83,236.43,581.17,237,581.11,237Z"/><path class="cls-4" d="M533.86,240.45c.12.16-3.77,3.26-8.68,6.93s-9,6.51-9.11,6.35,3.76-3.26,8.68-6.93S533.74,240.29,533.86,240.45Z"/><g class="cls-8"><path d="M517.47,330.6c-1.93,18.8,5.22,38.64,20.29,50,1.19.89,2.67,1.78,4.07,1.28a4.42,4.42,0,0,0,2.1-2.18,36.72,36.72,0,0,0,4.5-24.15c-2.39,6.29-4.44,12.46-6.85,19C528.44,366.64,520.25,349.68,517.47,330.6Z"/></g><path class="cls-11" d="M568.51,373.34l11.06-4L581.4,388s11.94-21.76,16.88-31.69,2.4-27.44,2.4-27.44,1.77,15.26-10.19,34.72l-9,14.68V362.91Z"/><g class="cls-8"><path d="M439.81,468.44c-4.94-2.33-10.61-2.64-16-2-5.73.66-11.47,2.42-16,6s-7.52,9.32-7,15l.55.08c3.86-10.45,11.54-18.05,21.44-19s19.56,3.49,26.36,10.75C448.55,474,444.74,470.77,439.81,468.44Z"/></g><g class="cls-8"><path d="M719.58,479.12a25.4,25.4,0,0,0-14.29-7.36,32.11,32.11,0,0,0-26.66,7.72l2.11-1.72a33.79,33.79,0,0,1,17.76-4.82,25.75,25.75,0,0,1,16.92,6.76c4.13,3.94,6.62,9.26,9,14.46A18.09,18.09,0,0,0,719.58,479.12Z"/></g><path class="cls-4" d="M648.26,392.22a7.49,7.49,0,0,1,.5-1.51l1.57-4c1.34-3.39,3.18-8.08,5.12-13.3s3.62-10,4.82-13.41l1.44-4.08a7.65,7.65,0,0,1,.61-1.47A6.22,6.22,0,0,1,662,356c-.27,1-.68,2.4-1.23,4.15-1.08,3.49-2.68,8.27-4.62,13.5s-3.86,9.9-5.33,13.25c-.73,1.67-1.34,3-1.78,3.94A6.76,6.76,0,0,1,648.26,392.22Z"/><path class="cls-4" d="M473.64,393.58c-.19,0-1.7-6.55-3.36-14.72S467.43,364,467.62,364s1.7,6.55,3.37,14.72S473.84,393.54,473.64,393.58Z"/><path class="cls-9" d="M471,476c.43.22-5.08-43.16-5.08-43.16s3.48-32.92,5.44-34.45l.05-11.61s5.38-3.26,6.83,2c0,0,4.77-4.14,5.61,5.73s1,19.95,1,19.95L495.51,441l1.75.89s2.29-20.82,3.61-23.88,2.24-10.52,7.28-9.4,5.46,5.29,4.55,12.08-2,13.8-1.61,18.19,2.41,14,1.8,21.71-4.81,15.76-9.22,21.44-12.84,17.44-17.41,21C484.66,504.24,471,476,471,476Z"/><path class="cls-10" d="M476.39,440.67a9.83,9.83,0,0,1,0-1.86c.09-1.33.21-3,.35-5,.32-4.25.82-10.12,1.41-16.6.31-3.23.6-6.31.87-9.13a16.7,16.7,0,0,0,.05-3.92,5.54,5.54,0,0,0-1.33-3,6,6,0,0,0-4.34-1.91,11.68,11.68,0,0,0-1.81.23s.14-.1.44-.22a4.67,4.67,0,0,1,1.36-.29,5.9,5.9,0,0,1,6.27,5.09,16.75,16.75,0,0,1,0,4.07c-.25,2.82-.52,5.9-.81,9.14-.59,6.47-1.17,12.34-1.62,16.58-.23,2-.43,3.69-.58,5A9,9,0,0,1,476.39,440.67Z"/><path class="cls-10" d="M482.1,422.93a14.83,14.83,0,0,0-1.88,3.42c-.85,2.26-1.16,5.66-1.76,9.37s-1.13,7.06-1.57,9.48a21.42,21.42,0,0,1-.86,3.89,21.4,21.4,0,0,1,.35-4c.31-2.44.79-5.81,1.36-9.51s1-7.12,2-9.44a8.77,8.77,0,0,1,1.53-2.53C481.75,423.11,482.08,422.9,482.1,422.93Z"/><path class="cls-10" d="M478.2,388.18a5.23,5.23,0,0,1,.37,1.37c.19.88.43,2.17.7,3.77.53,3.21,1.11,7.66,1.47,12.59s.45,9.43.39,12.68c0,1.62-.07,2.93-.13,3.84a5.23,5.23,0,0,1-.17,1.4,48.36,48.36,0,0,1-.21-5.24c-.07-3.24-.23-7.7-.6-12.62s-.86-9.36-1.26-12.57A43.42,43.42,0,0,1,478.2,388.18Z"/><path class="cls-10" d="M508.85,428.86c.11.16-1.55.93-3.58.3s-3-2.17-2.8-2.25,1.23,1,3,1.56S508.8,428.65,508.85,428.86Z"/><path class="cls-9" d="M471.62,470.58l-28.07,11.8H426.82s-16.54,5.16-19.09,20.67-2.91,23.49,4.37,25.41,27.81,2.13,38-1.25S487,502.31,487,502.31l2.57-15.57Z"/><path class="cls-10" d="M478.2,487.72s-.32-.23-.8-.73a17.59,17.59,0,0,1-1.82-2.32,31.73,31.73,0,0,1-3.92-8.88,52.42,52.42,0,0,1-1.73-9.54,17.57,17.57,0,0,1-.11-4,31.52,31.52,0,0,1,.61,4,72,72,0,0,0,1.92,9.4,37.11,37.11,0,0,0,3.66,8.8C477.27,486.49,478.3,487.63,478.2,487.72Z"/><path class="cls-10" d="M490.42,492.64a28.53,28.53,0,0,0,1.6-6,19.41,19.41,0,0,0-3.77-14.09c-1.71-2.39-3.62-4.47-5.24-6.48a29.74,29.74,0,0,1-3.79-5.74,14.81,14.81,0,0,1-1.41-4.43,5,5,0,0,1-.05-1.7,19,19,0,0,0,1.91,5.9,32.42,32.42,0,0,0,3.85,5.55c1.63,2,3.57,4,5.32,6.49a20.15,20.15,0,0,1,3.5,7.68,19.55,19.55,0,0,1,.19,6.89,17.75,17.75,0,0,1-1.29,4.46,8.22,8.22,0,0,1-.57,1.13C490.53,492.53,490.44,492.65,490.42,492.64Z"/><path class="cls-6" d="M447.14,425c-.17.09-3.24-5.48-6.84-12.45s-6.38-12.68-6.2-12.78,3.24,5.49,6.84,12.45S447.32,425,447.14,425Z"/><path class="cls-6" d="M492.55,374.5c-.19-.08,1.71-4.73,4.22-10.38S501.48,354,501.66,354s-1.71,4.72-4.23,10.37S492.73,374.58,492.55,374.5Z"/><path class="cls-6" d="M537,407.3c-.16.13-3-3.06-6.37-7.12s-6-7.45-5.8-7.58,3,3.06,6.36,7.12S537.16,407.17,537,407.3Z"/><path class="cls-6" d="M526.78,452.42c-.16-.12,2-3.36,4.79-7.23s5.22-6.92,5.38-6.8-2,3.35-4.79,7.22S526.94,452.53,526.78,452.42Z"/><path class="cls-6" d="M513,516.14a13.17,13.17,0,0,1-1.63-2.78c-.91-1.77-2.09-4.25-3.27-7s-2.16-5.36-2.8-7.24a13.46,13.46,0,0,1-.87-3.11,15.84,15.84,0,0,1,1.35,2.92l3,7.15c1.14,2.64,2.18,5,3.07,7.1A15.78,15.78,0,0,1,513,516.14Z"/><path class="cls-6" d="M552.13,489.05c0,.2-3.81-.37-8.41-1.26s-8.31-1.77-8.28-2,3.81.37,8.41,1.26S552.16,488.86,552.13,489.05Z"/><path class="cls-6" d="M582.46,429.51c-.14-.14,3.45-4.25,8-9.18s8.4-8.82,8.55-8.69-3.44,4.25-8,9.18S582.61,429.64,582.46,429.51Z"/><path class="cls-6" d="M613,508.92c-.16.13-4.64-5.06-10-11.58s-9.6-11.91-9.45-12,4.64,5.05,10,11.57S613.14,508.79,613,508.92Z"/><path class="cls-6" d="M423.52,475.07c.1.2-4,2.28-8.45,5.7s-7.56,6.79-7.72,6.64a10.21,10.21,0,0,1,1.88-2.35,44.93,44.93,0,0,1,11.52-8.79A10.39,10.39,0,0,1,423.52,475.07Z"/><path class="cls-6" d="M434.93,444.47c.17.11-1.29,2.59-3.25,5.54s-3.69,5.25-3.85,5.14,1.29-2.59,3.25-5.54S434.77,444.36,434.93,444.47Z"/><path class="cls-6" d="M460.65,474.52c-.16.1-1.61-2.33-2.36-5.69s-.52-6.16-.33-6.15.28,2.74,1,6S460.84,474.43,460.65,474.52Z"/><path class="cls-6" d="M464.46,379.06c0,.19-2.36.7-5.34,1.12s-5.41.61-5.44.41,2.36-.7,5.34-1.12S464.43,378.86,464.46,379.06Z"/><path class="cls-6" d="M483.77,344.81c.1.17-2,1.52-4.67,3s-4.92,2.54-5,2.37,2-1.52,4.67-3S483.67,344.64,483.77,344.81Z"/><path class="cls-6" d="M538.08,359.28c-.16.12-2.55-2.76-5.34-6.42s-4.93-6.74-4.77-6.86,2.55,2.75,5.34,6.42S538.24,359.16,538.08,359.28Z"/><path class="cls-6" d="M607,393.72c-.13.12-2.65-2.47-5-6.24s-3.56-7.17-3.39-7.23,1.69,3.14,4,6.85S607.18,393.58,607,393.72Z"/><path class="cls-6" d="M633.33,402.39c.18.08-1.09,3.29-2.85,7.17s-3.33,6.95-3.52,6.86,1.1-3.29,2.86-7.16S633.15,402.31,633.33,402.39Z"/><path class="cls-6" d="M637,366.47c-.15.13-3.29-3.38-7-7.84s-6.59-8.18-6.44-8.31,3.29,3.39,7,7.85S637.16,366.35,637,366.47Z"/><path class="cls-6" d="M596.82,337.3c-.2,0-.48-3-.62-6.71s-.11-6.74.09-6.74.48,3,.63,6.71S597,337.29,596.82,337.3Z"/><path class="cls-6" d="M629.59,335.48c0,.2-3.8.87-8.55,1.51s-8.63,1-8.65.79,3.8-.87,8.55-1.51S629.56,335.28,629.59,335.48Z"/><path class="cls-6" d="M681.2,373.39c-.18.09-2.48-4.3-5.15-9.81s-4.67-10-4.49-10.12,2.48,4.31,5.14,9.81S681.38,373.31,681.2,373.39Z"/><path class="cls-6" d="M672.51,406.15c-.2,0,.34-3.57,1.21-7.88s1.71-7.79,1.91-7.75-.35,3.57-1.21,7.89S672.7,406.19,672.51,406.15Z"/><path class="cls-6" d="M696.45,432c-.19.07-2-4.7-4.11-10.64s-3.61-10.81-3.43-10.88,2,4.7,4.11,10.64S696.64,431.91,696.45,432Z"/><path class="cls-6" d="M693.11,447.08c0,.18-3.35-.52-7-2.5s-6-4.37-5.92-4.5,2.69,1.95,6.26,3.86S693.18,446.87,693.11,447.08Z"/><path class="cls-6" d="M723.78,481.52c-.18.08-1.3-2-2.48-4.69s-2-4.91-1.83-5,1.29,2,2.48,4.69S724,481.44,723.78,481.52Z"/><path class="cls-6" d="M542.66,529.55c-.2,0-.68-2.72-1.07-6.13s-.56-6.19-.36-6.22.68,2.73,1.07,6.14S542.86,529.53,542.66,529.55Z"/><path class="cls-6" d="M636.75,527.18c-.19,0,.21-2.73.91-6s1.42-5.89,1.61-5.85-.21,2.73-.91,6S637,527.22,636.75,527.18Z"/><path class="cls-12" d="M654.79,220,667,198.56a57.47,57.47,0,1,1,13.76,15.3l0,0Z"/><path class="cls-4" d="M654.79,220l26-5.94L681,214l-.16-.22,0,0-.25.24a57.07,57.07,0,0,0,27.53,11.61,52.08,52.08,0,0,0,9.08.46c1.57-.09,3.16-.13,4.76-.26l4.85-.74a57.89,57.89,0,0,0,35.85-23,57.18,57.18,0,0,0,9.7-22.16,58.51,58.51,0,0,0-.68-25.53,56.62,56.62,0,0,0-12.3-23.59l-2.34-2.58c-.77-.87-1.69-1.58-2.52-2.38s-1.67-1.6-2.6-2.27l-2.76-2a23.46,23.46,0,0,0-2.85-1.89l-2.91-1.77-3-1.48A25.38,25.38,0,0,0,737.3,115a58.64,58.64,0,0,0-25.72-4A56.71,56.71,0,0,0,688,118a58.26,58.26,0,0,0-27.23,33.51,62,62,0,0,0-2.49,18.66,56.86,56.86,0,0,0,2.81,16.11,58.63,58.63,0,0,0,5.75,12.35v-.18l-12,21.53,12.32-21.36,0-.08-.06-.09a58.12,58.12,0,0,1-5.64-12.3,56.9,56.9,0,0,1-2.72-16,61.64,61.64,0,0,1,2.53-18.49,57.71,57.71,0,0,1,27-33.1,56.07,56.07,0,0,1,23.34-6.87A58,58,0,0,1,737,115.65a25.47,25.47,0,0,1,3,1.35l3,1.46,2.88,1.75a24.84,24.84,0,0,1,2.81,1.86l2.72,2a31.94,31.94,0,0,1,2.57,2.24c.82.78,1.73,1.49,2.49,2.35l2.32,2.54A56.1,56.1,0,0,1,771,154.55a58,58,0,0,1,.69,25.21,56.48,56.48,0,0,1-9.56,21.92,57.43,57.43,0,0,1-35.43,22.85l-4.8.74c-1.59.13-3.16.18-4.71.27a51.15,51.15,0,0,1-9-.43,57,57,0,0,1-15.63-4.39,58.57,58.57,0,0,1-11.75-7l-1.07-.81.82,1.06,0,0,.1-.28Z"/><path class="cls-4" d="M731.3,166.13a5.61,5.61,0,1,0,5.61-5.61A5.61,5.61,0,0,0,731.3,166.13Z"/><path class="cls-4" d="M708.87,166.13a5.61,5.61,0,1,0,5.61-5.61A5.61,5.61,0,0,0,708.87,166.13Z"/><path class="cls-4" d="M686.5,163.33a5.6,5.6,0,1,0,7.66-2.05A5.59,5.59,0,0,0,686.5,163.33Z"/><path class="cls-1" d="M185.54,230.78a34,34,0,0,1-.26-6,34.12,34.12,0,0,1,.26-6,35.32,35.32,0,0,1,.26,6A35.22,35.22,0,0,1,185.54,230.78Z"/><path class="cls-1" d="M185.54,254.78a34,34,0,0,1-.26-6,34.12,34.12,0,0,1,.26-6,35.32,35.32,0,0,1,.26,6A35.22,35.22,0,0,1,185.54,254.78Z"/><path class="cls-1" d="M185.54,278.78a34,34,0,0,1-.26-6,34.12,34.12,0,0,1,.26-6,35.32,35.32,0,0,1,.26,6A35.22,35.22,0,0,1,185.54,278.78Z"/><path class="cls-1" d="M185.54,302.78a34,34,0,0,1-.26-6,34.12,34.12,0,0,1,.26-6,69.36,69.36,0,0,1,0,12Z"/><path class="cls-1" d="M185.54,326.78a69.36,69.36,0,0,1,0-12,69.36,69.36,0,0,1,0,12Z"/><path class="cls-1" d="M195.19,341.13a35.22,35.22,0,0,1-6,.26c-1.38,0-2.65,0-3.65-.06h0a.19.19,0,0,1-.19-.2,8.81,8.81,0,0,1,.21-2.35,9.12,9.12,0,0,1,.2,2.35l-.2-.21c1,0,2.27-.05,3.65-.05A34,34,0,0,1,195.19,341.13Z"/><path class="cls-1" d="M219.19,341.13a35.22,35.22,0,0,1-6,.26,35.32,35.32,0,0,1-6-.26,34.12,34.12,0,0,1,6-.26A34,34,0,0,1,219.19,341.13Z"/><path class="cls-1" d="M243.19,341.13a35.22,35.22,0,0,1-6,.26,35.32,35.32,0,0,1-6-.26,34.12,34.12,0,0,1,6-.26A34,34,0,0,1,243.19,341.13Z"/><path class="cls-1" d="M262.61,341.13a26.6,26.6,0,0,1-7.42,0,26.6,26.6,0,0,1,7.42,0Z"/><path class="cls-3" d="M139.61,311.32l2.25,36.44a2.46,2.46,0,0,0,2.46,2.31h65.6a2.46,2.46,0,0,0,2.46-2.46V319.23a2.46,2.46,0,0,0-2.48-2.46l-40.34.26a2.42,2.42,0,0,1-1.74-.71l-7-6.9a2.43,2.43,0,0,0-1.72-.71h-17A2.47,2.47,0,0,0,139.61,311.32Z"/><rect class="cls-12" x="140.7" y="312.46" width="71.68" height="42.83"/><path class="cls-3" d="M135,316.31,140.47,361a1.59,1.59,0,0,0,1.58,1.39H211.9a1.59,1.59,0,0,0,1.58-1.46L217,316.24a1.58,1.58,0,0,0-1.58-1.71H136.57A1.59,1.59,0,0,0,135,316.31Z"/><rect class="cls-6" x="904.83" y="390.73" width="227.56" height="169"/><path class="cls-4" d="M1132.39,559.73c0-1.76-.09-66.69-.22-169l.22.21L904.85,391h0l.26-.26c0,60.71,0,118.23,0,169l-.24-.23,227.56.23L904.83,560h-.23v-.24c0-50.77,0-108.29,0-169v-.26h.28l227.54,0h.21v.21C1132.47,493,1132.39,558,1132.39,559.73Z"/><path class="cls-1" d="M1132.39,415.77c0,.15-50.84.26-113.53.26s-113.53-.11-113.53-.26,50.82-.26,113.53-.26S1132.39,415.63,1132.39,415.77Z"/><path class="cls-1" d="M918.65,403.15a3.43,3.43,0,1,1-3.42-3.42A3.43,3.43,0,0,1,918.65,403.15Z"/><path class="cls-1" d="M929,403.15a3.43,3.43,0,1,1-3.43-3.42A3.44,3.44,0,0,1,929,403.15Z"/><path class="cls-1" d="M939.3,403.15a3.43,3.43,0,1,1-3.42-3.42A3.43,3.43,0,0,1,939.3,403.15Z"/><path class="cls-1" d="M1027.59,378.13a6,6,0,0,0-6-3.33,8.13,8.13,0,0,0-10-.31,7.24,7.24,0,0,0-11.2,5.37,6,6,0,0,0-5.78,9.91,5.81,5.81,0,0,0,1.89,11.41l29.71-16.32A6,6,0,0,0,1027.59,378.13Z"/><path class="cls-9" d="M995.57,402a24.65,24.65,0,0,1,25.68-21.42l1.27.06c13.71,1.49,20.11,14,18.24,27.63l-4.26,45.68-.23,2.22-32,4.79.63-11.67s-13.12-2.71-12.63-15.94C992.46,426.91,994,413.8,995.57,402Z"/><path class="cls-10" d="M1004.74,449.21a32.11,32.11,0,0,0,17.57-4.2s-4.55,9.3-17.68,7.46Z"/><path class="cls-4" d="M998.44,414.8a1.89,1.89,0,0,0,1.72,2,1.8,1.8,0,0,0,2-1.61,1.88,1.88,0,0,0-1.72-2A1.8,1.8,0,0,0,998.44,414.8Z"/><path class="cls-4" d="M998.09,408.56c.22.26,1.71-.73,3.74-.62s3.47,1.19,3.7,1-.1-.57-.73-1.07a5.23,5.23,0,0,0-2.95-1.07,5,5,0,0,0-3,.8C998.22,408,998,408.44,998.09,408.56Z"/><path class="cls-4" d="M1016.36,416a1.9,1.9,0,0,0,1.73,2,1.82,1.82,0,0,0,2-1.61,1.9,1.9,0,0,0-1.73-2A1.83,1.83,0,0,0,1016.36,416Z"/><path class="cls-4" d="M1018,409.93c.22.26,1.7-.73,3.73-.62s3.47,1.19,3.7,1-.1-.56-.72-1.07a5.26,5.26,0,0,0-3-1.07,5,5,0,0,0-3,.8C1018.16,409.38,1017.93,409.81,1018,409.93Z"/><path class="cls-4" d="M1009.92,424.63a13.11,13.11,0,0,0-3.27-.76c-.52-.08-1-.21-1.07-.57a2.6,2.6,0,0,1,.42-1.52l1.73-3.87c2.41-5.52,4.18-10.06,4-10.16s-2.36,4.3-4.77,9.82c-.58,1.36-1.14,2.66-1.66,3.9a3,3,0,0,0-.38,2,1.35,1.35,0,0,0,.82.8,3.58,3.58,0,0,0,.87.17A13.75,13.75,0,0,0,1009.92,424.63Z"/><path class="cls-4" d="M1015.83,426.33c-.33,0-.45,2.17-2.41,3.64s-4.3,1.11-4.33,1.42c0,.13.5.45,1.49.53a5.5,5.5,0,0,0,3.61-1.06,4.78,4.78,0,0,0,1.88-3.06C1016.2,426.88,1016,426.32,1015.83,426.33Z"/><path class="cls-1" d="M1017.91,402c.17.56,2.21.4,4.58.8s4.26,1.15,4.6.67c.16-.23-.15-.76-.9-1.34a8.07,8.07,0,0,0-7-1.12C1018.3,401.27,1017.83,401.68,1017.91,402Z"/><path class="cls-1" d="M999.13,402.72c.34.48,1.76.07,3.44.13s3.09.46,3.45,0c.15-.23,0-.7-.65-1.17a4.71,4.71,0,0,0-2.76-.89,4.65,4.65,0,0,0-2.79.79C999.2,402,999,402.49,999.13,402.72Z"/><path class="cls-1" d="M997.14,396s3.9-8.1,8-9.83c5-2.1,6.76,3.31,11.43,2.25s9.39-3.07,13.92.72c5,4.15,2.41,6.76,2.44,12.64.11,23.84,4.11,30.78,5.9,19.64.2-1.22,3.65-2,4.42-7.18,1-6.69,1.65-14.84.39-19.68-1.07-4.09-3.22-7-7.18-10.24-6.25-5.16-15.16-5.71-21.24-5.4S997.11,385.56,997.14,396Z"/><path class="cls-9" d="M1038,421a3.59,3.59,0,0,1,4-3.26c2.45.36,5.12,1.89,4.71,7-.74,9-9.65,6.42-9.64,6.16S1037.66,424.75,1038,421Z"/><path class="cls-10" d="M1039.36,427.61s.15.13.4.27a1.58,1.58,0,0,0,1.18.12c1-.27,1.9-1.72,2.08-3.34a5.19,5.19,0,0,0-.26-2.29,1.81,1.81,0,0,0-1.08-1.3.8.8,0,0,0-1,.35c-.14.25-.1.43-.15.44s-.18-.16-.08-.53a1,1,0,0,1,.4-.54,1.2,1.2,0,0,1,.89-.16,2.23,2.23,0,0,1,1.53,1.54,5.36,5.36,0,0,1,.34,2.56c-.21,1.81-1.28,3.43-2.61,3.7a1.69,1.69,0,0,1-1.42-.35C1039.36,427.83,1039.33,427.63,1039.36,427.61Z"/><path class="cls-1" d="M1038.69,403.46a8.48,8.48,0,0,1-3.91,1.57c-1.42.07-3-.82-3.17-2.23-.07-.63.12-1.36-.27-1.86s-1.39-.47-2.15-.43a5.77,5.77,0,0,1-5.78-4.43c-.72,1-2.28.85-3.26.14a12.91,12.91,0,0,1-2.33-2.75,3.72,3.72,0,0,0-3-1.71,8.56,8.56,0,0,1-2,.34c-1.18-.17-1.69-1.58-1.81-2.77s-.2-2.57-1.17-3.26-2.13-.35-3.23-.25-2.49-.22-2.72-1.3a2.17,2.17,0,0,1,.48-1.62,5.86,5.86,0,0,1,7-1.87,7.94,7.94,0,0,1,14.65-.81,8.06,8.06,0,0,1,12.72,3.57,5.84,5.84,0,0,1,6.16,8.81,5.56,5.56,0,0,1,2.83,4.57c-.06,1.87-2,3.64-3.75,3.06a3.24,3.24,0,0,1-5.75,2.95"/><path class="cls-6" d="M1044.65,400.24A2.17,2.17,0,0,1,1044,402a2.88,2.88,0,0,1-1.86,1,3.12,3.12,0,0,1-2.54-.87l.38,0a8.91,8.91,0,0,1-1.91,2.16,5.18,5.18,0,0,1-1.7.94,3.48,3.48,0,0,1-1.83.08,3.55,3.55,0,0,1-2.53-1.62,5.08,5.08,0,0,1-.64-1.92,1.71,1.71,0,0,1,0-.73s.1.24.23.69a6.07,6.07,0,0,0,.75,1.76,3.68,3.68,0,0,0,5.42.39,9.11,9.11,0,0,0,1.83-2l.17-.26.21.22a2.74,2.74,0,0,0,2.15.8,2.63,2.63,0,0,0,1.67-.78A4.38,4.38,0,0,0,1044.65,400.24Z"/><path class="cls-6" d="M1028.6,378.76s-.24.05-.65.2a3.14,3.14,0,0,0-1.46,1.12l-.12.17-.12-.17a11.22,11.22,0,0,0-4.19-3.76,8.82,8.82,0,0,0-3.52-.95,7.45,7.45,0,0,0-6.26,2.95,6,6,0,0,0-1.13,2.67l0,.28-.27-.08a5,5,0,0,0-3.77.27,4.91,4.91,0,0,0-2.17,2.1,6.78,6.78,0,0,0-.69,2.64,1.69,1.69,0,0,1-.08-.74,5.31,5.31,0,0,1,.51-2,5.16,5.16,0,0,1,2.24-2.32,5.41,5.41,0,0,1,4.11-.37l-.31.2a6.52,6.52,0,0,1,1.2-2.92,7.88,7.88,0,0,1,6.7-3.15,9.08,9.08,0,0,1,3.7,1.06,10.93,10.93,0,0,1,4.22,4h-.23a3,3,0,0,1,1.65-1.1A1.36,1.36,0,0,1,1028.6,378.76Z"/><path class="cls-10" d="M1018.87,427.8c-.15,0-.16-1-.89-1.79s-1.64-1-1.62-1.15.26-.13.66,0a2.67,2.67,0,0,1,1.36.85,2.64,2.64,0,0,1,.63,1.48C1019,427.56,1018.93,427.81,1018.87,427.8Z"/><path class="cls-10" d="M1019.79,425.34c-.13.07-.44-.26-.91-.5s-.91-.32-.93-.46.55-.32,1.17,0S1019.92,425.29,1019.79,425.34Z"/><path class="cls-10" d="M1029.53,447s.14-.06.26-.23a.81.81,0,0,0,.06-.79c-.13-.35-.53-.67-.78-1.27a1.19,1.19,0,0,1,.06-1.05,7.74,7.74,0,0,1,.62-.75c.74-.87-1.28-1.58-1-2.72a1.43,1.43,0,0,1,.53-.94c.22-.15.36-.16.37-.13s-.5.33-.53,1.1a1.39,1.39,0,0,0,.62,1.1,2.16,2.16,0,0,1,.57.78,1.11,1.11,0,0,1-.17,1.13,9,9,0,0,0-.6.69.72.72,0,0,0,0,.63c.15.44.54.84.67,1.3a1,1,0,0,1-.26,1.07C1029.7,447.11,1029.52,447,1029.53,447Z"/><path class="cls-10" d="M1032.35,446.72s0-.13-.1-.33a3.44,3.44,0,0,0-.47-.78,3.28,3.28,0,0,1-.36-.6,1.23,1.23,0,0,1-.09-.88c.18-.65.73-1,1-1.49s.07-.85-.3-1.26a2.91,2.91,0,0,1-.46-.68,1.69,1.69,0,0,1-.11-.75c.12-.94.77-1.18.77-1.12a2.39,2.39,0,0,0-.4,1.14,1.53,1.53,0,0,0,.56,1.09,2.43,2.43,0,0,1,.53.77,1.21,1.21,0,0,1-.15,1.08c-.37.59-.86.93-1,1.35a1.51,1.51,0,0,0,.3,1.16,2.29,2.29,0,0,1,.36.93C1032.46,446.61,1032.38,446.73,1032.35,446.72Z"/><path class="cls-1" d="M1054.58,519.71l12,11.56-3.88-22.12,24.35-7.7s6.46,30.35,7.59,37.52c2,12.88-.46,31.19-12.46,32.47-13,1.4-22.79-11.41-29-19.81-4.79-6.46-12.53-17.75-12.53-17.75l14-14.17"/><path class="cls-1" d="M961.83,500c-3.91,12.3-9.37,14.16-11.53,49.4-.42,6.87,1.07,16,7.58,18.26,7.25,2.46,18.33-2,21.8-8V535.47Z"/><path class="cls-4" d="M978,551.51a30.94,30.94,0,0,0-5.71-9.83,5.34,5.34,0,0,1,1.26,1.14,18,18,0,0,1,2.42,3.3,18.41,18.41,0,0,1,1.67,3.74A5.35,5.35,0,0,1,978,551.51Z"/><path class="cls-1" d="M955.94,514.22c.21-.72,12.23-33.43,16.06-40.59,4.59-8.57,14.23-12.35,20.21-12.72s70,4.73,70,4.73,17.94,4.51,21.57,20.74c4.55,20.35,8.21,40.43,8.21,40.43l-32.1,6.93-3.77-9.51-60.32,13.45L981.11,515.9Z"/><polygon class="cls-1" points="1066.47 467.51 1041.45 456.48 1038.65 445.69 1009.45 459.5 1003.34 452.74 1000.77 460.35 994.38 462.44 981.79 487.27 979.47 544.79 979.68 559.73 1065.98 560.31 1065.28 535.85 1066.47 467.51"/><path class="cls-1" d="M1038.65,445.69s-3.26.94-11.65,5.42c-8.21,4.38-17.55,8.38-17.55,8.38l.71,13.19,31.08-15.6"/><polyline class="cls-1" points="1003.34 452.74 1009.45 459.5 1006.18 473.63 1000.74 460.85"/><g class="cls-8"><path d="M1009.34,461c-.27.21-2,16.31-2,16.31l31.15-18.82-28.36,14.24Z"/></g><path class="cls-13" d="M1009.62,559.93s-.64-23.88-.07-38.86c.47-12.32-1.48-43.75-1.48-43.75l-4.06-.65a458.82,458.82,0,0,0-10.41,68l-1.15,15.15"/><path class="cls-4" d="M1059.07,496.56a7.17,7.17,0,0,1,.29,1.27c.17.9.38,2.08.64,3.5.52,3,1.21,7.07,2,11.55s1.46,8.6,1.9,11.57c.22,1.48.39,2.68.5,3.52a8.14,8.14,0,0,1,.12,1.3,7.83,7.83,0,0,1-.29-1.28c-.16-.9-.38-2.08-.63-3.49-.53-3-1.24-7.08-2-11.55s-1.42-8.61-1.87-11.58c-.2-1.42-.36-2.61-.49-3.51A7.8,7.8,0,0,1,1059.07,496.56Z"/><path class="cls-4" d="M1068.33,469.41c.05.06-.84.76-2.1,2.06a25.4,25.4,0,0,0-6.6,12.28c-.39,1.77-.48,2.89-.56,2.89a2.76,2.76,0,0,1,0-.8,15,15,0,0,1,.26-2.15,22.88,22.88,0,0,1,2.36-6.75,23.15,23.15,0,0,1,4.32-5.69,16.8,16.8,0,0,1,1.65-1.4A2.94,2.94,0,0,1,1068.33,469.41Z"/><polygon class="cls-13" points="1009.55 465.8 1006.77 464.71 1004.13 469.24 1003.65 476.67 1007.37 477.26 1010.16 472.68 1009.55 465.8"/><path class="cls-4" d="M979.47,487.9c.12,0,.21,16.08.21,35.92s-.09,35.91-.21,35.91-.22-16.07-.22-35.91S979.35,487.9,979.47,487.9Z"/><path class="cls-4" d="M1009.75,459.38s-.6,1-1.59,2.69-2.29,4-3.54,6.62c-.1.22-.2.43-.29.64l-.2.41-.19-.41a50.76,50.76,0,0,1-2.6-6.58c-.27-.86-.47-1.56-.59-2a3.77,3.77,0,0,1-.14-.77,28,28,0,0,1,1,2.71,68.64,68.64,0,0,0,2.71,6.49h-.4l.3-.64a53.22,53.22,0,0,1,3.67-6.6c.53-.81,1-1.45,1.3-1.89S1009.72,459.36,1009.75,459.38Z"/><path class="cls-4" d="M1041.46,456.48a3.26,3.26,0,0,1-.43.25l-1.26.66-4.64,2.41c-3.92,2-9.28,4.94-15.23,8.11-3.62,1.93-7,3.72-10,5.21l-.27.14V473c0-3.86-.07-7.12-.09-9.48,0-1.11,0-2,0-2.67a5,5,0,0,1,0-.95,5.45,5.45,0,0,1,.08.94c0,.67.06,1.57.1,2.67.06,2.36.15,5.62.25,9.49l-.28-.17c3-1.52,6.38-3.32,10-5.25,5.94-3.17,11.33-6,15.29-8,2-1,3.58-1.77,4.7-2.29l1.3-.58A2.42,2.42,0,0,1,1041.46,456.48Z"/><path class="cls-4" d="M983.22,466.64c.07,0-.42.87-1.05,2.27A25.36,25.36,0,0,0,980,480.64c.09,1.54.25,2.49.18,2.5a2,2,0,0,1-.19-.65,13.31,13.31,0,0,1-.29-1.83,21.8,21.8,0,0,1,2.18-11.88,16.12,16.12,0,0,1,.92-1.6C983.05,466.82,983.2,466.62,983.22,466.64Z"/><path class="cls-4" d="M1006.69,477.74c-.06.11-.77-.23-1.58-.74s-1.41-1-1.34-1.1.77.23,1.57.74S1006.75,477.64,1006.69,477.74Z"/><path class="cls-4" d="M1008,475.93a20.34,20.34,0,0,1-1.89-3.76,20,20,0,0,1-1.49-3.94,21.84,21.84,0,0,1,1.88,3.77A20.24,20.24,0,0,1,1008,475.93Z"/><g class="cls-8"><path d="M1025.62,541.71a2.83,2.83,0,0,0-1-1.81c-1-.67-2.33.21-3.39.84-2.78,1.66-6.22,1.6-9.46,1.46a239.37,239.37,0,0,1-29.15-2.77c-4.71-.79-9.47-1.82-13.69-4.08s-7.89-5.89-9.25-10.47l-2.25-1.23c1.75,3.73,1.57,14.28,2.19,18.35s2.43,7,6.35,8.23a13.54,13.54,0,0,0,4.92.35c16.06-.79,32.27-.07,48.33-.87,2.29-.11,5-.42,6.18-2.36C1026.48,545.72,1026.07,543.6,1025.62,541.71Z"/></g><path class="cls-4" d="M1086,550.89a.93.93,0,0,1-.11-.19c-.08-.14-.17-.33-.29-.57l-.47-.92-.79-1.19a43.65,43.65,0,0,0-6.23-6.77c-2.91-2.67-6.59-5.67-10.73-9.11-2.07-1.73-4.26-3.55-6.46-5.57a61.21,61.21,0,0,1-6.47-6.74l.31,0-12.51,13.08-1.67,1.75,0-.28c4.73,6.92,9,13.61,13.55,19.22a92.63,92.63,0,0,0,6.8,7.6,57.63,57.63,0,0,0,6.62,5.89c4.32,3.26,8.66,4.66,11.68,4.59.38,0,.73,0,1.07,0l.93-.1.79-.08.65-.15.88-.19.31,0-.29.09-.88.24-.65.16-.8.11-.94.12c-.33,0-.69,0-1.07,0-3,.12-7.48-1.26-11.86-4.52a56.23,56.23,0,0,1-6.69-5.88,93.3,93.3,0,0,1-6.86-7.61c-4.55-5.61-8.87-12.31-13.59-19.21l-.1-.15.12-.12,1.67-1.75,12.52-13.07.16-.17.15.19a61.27,61.27,0,0,0,6.42,6.7c2.18,2,4.36,3.85,6.41,5.59,4.13,3.45,7.8,6.49,10.68,9.19a40.91,40.91,0,0,1,6.18,6.89l.76,1.2.44,1c.11.25.2.44.26.59S1086,550.89,1086,550.89Z"/><g class="cls-8"><path d="M1043.49,538.44l-1.36-.41c1.17,6.75,4.87,16.3,8.22,22.28h9.76C1056.41,555.69,1043.49,538.44,1043.49,538.44Z"/></g><path class="cls-9" d="M1052.66,521.61,1032.91,500l-11.84-2.25-13.44,1.71a2.88,2.88,0,0,0,1.7,3.26l-5,.28a2.82,2.82,0,0,0,1.84,3.69l-3.55.62a5.1,5.1,0,0,0,5.54,2.93,76.94,76.94,0,0,1,10.49-.71l7,3.83-10.36-.43-7.52,1.42s-1,1.92.71,2.38,8.23,0,8.23,0l9.38,3s3.67,5.21,5,6.62,7.37,4,7.37,4l3,2.69Z"/><path class="cls-10" d="M1004.36,503a18.37,18.37,0,0,0,3.86-.14c2.38-.19,5.65-.5,9.26-.89l3.46-.38-.14,0c2.69.76,5,1.39,6.69,1.81a12.51,12.51,0,0,0,2.69.54,11,11,0,0,0-2.56-1c-1.63-.54-3.94-1.27-6.61-2.07l-.07,0h-.08l-3.46.36c-3.61.39-6.88.79-9.24,1.11A19.75,19.75,0,0,0,1004.36,503Z"/><path class="cls-10" d="M1003.51,507.21a16.8,16.8,0,0,0,3.5-.24c2.14-.25,5.1-.64,8.36-1.11l3.24-.49-.19,0c4.66,1.82,8.1,3,8.17,2.88s-3.27-1.66-7.89-3.56l-.09,0-.11,0-3.24.46c-3.26.48-6.21.95-8.33,1.33A15.1,15.1,0,0,0,1003.51,507.21Z"/><path class="cls-4" d="M953.25,503.85l10,37.82a4.7,4.7,0,0,0,4.64,3.5l51.84-1a4.7,4.7,0,0,0,4.51-5.67l-7.64-36.22a4.69,4.69,0,0,0-4.6-3.74H957.35A4.24,4.24,0,0,0,953.25,503.85Z"/><path class="cls-6" d="M987.13,513.77a2.54,2.54,0,1,1-3.66,1A2.69,2.69,0,0,1,987.13,513.77Z"/><path class="cls-9" d="M949.48,512.13a3.38,3.38,0,0,1,0-4.16,5.17,5.17,0,0,1,3.95-1.87,11.1,11.1,0,0,1,4.39.91,28.59,28.59,0,0,1,5,2.49,4.71,4.71,0,0,1,2.49,2.9c.21,1.29-1.19,2.77-2.33,2.12a5.51,5.51,0,0,1,3.21,3.83c.24,1.64-.64,2.52-2.22,3a2.48,2.48,0,0,1,1.42,3.16,2.83,2.83,0,0,1-3.55,1.08,8.22,8.22,0,0,1-3.09-2.6,7.64,7.64,0,0,1,.88,5.21,10.18,10.18,0,0,1-6.65-8.17,4.71,4.71,0,0,1-1.28-5.79,4.87,4.87,0,0,1-2.9-4.07"/><path class="cls-10" d="M963.89,521.36a15.76,15.76,0,0,1-1.51-1.16,10.21,10.21,0,0,0-4-2,5.38,5.38,0,0,0-2.43,0,4.45,4.45,0,0,0-1.77.88A5.73,5.73,0,0,0,953,520.5s0-.19.14-.51a3.56,3.56,0,0,1,.84-1.15,4.47,4.47,0,0,1,1.86-1,5.54,5.54,0,0,1,2.6,0,9.43,9.43,0,0,1,4.08,2.21A6.58,6.58,0,0,1,963.89,521.36Z"/><path class="cls-10" d="M963.51,514.68a8.24,8.24,0,0,1-1.84-.77c-.56-.26-1.21-.58-2-.85a16.79,16.79,0,0,0-2.52-.66,7.35,7.35,0,0,0-2.56,0,4.7,4.7,0,0,0-1.89.82,4.77,4.77,0,0,0-1.24,1.48s0-.2.15-.52a3.34,3.34,0,0,1,.92-1.17,4.63,4.63,0,0,1,2-1,7.14,7.14,0,0,1,2.69,0,14.63,14.63,0,0,1,2.58.7,17.24,17.24,0,0,1,2,.95A13.51,13.51,0,0,1,963.51,514.68Z"/><path class="cls-12" d="M956,443.83l-12.66-.29a29.44,29.44,0,1,0,3.13,10.1v0Z"/><path class="cls-4" d="M956,443.83l-9.46,9.89-.1.1,0-.13v0l.18,0a30.25,30.25,0,0,1,0,7.07,29.65,29.65,0,0,1-2.16,8.12,26,26,0,0,1-2.19,4.12c-.45.67-.89,1.36-1.37,2l-1.6,1.95a29.68,29.68,0,0,1-19.59,9.73,29.17,29.17,0,0,1-12.32-1.56,30.12,30.12,0,0,1-11.07-7,29,29,0,0,1-7.16-11.64l-.52-1.71c-.18-.57-.25-1.16-.38-1.74s-.27-1.15-.32-1.74l-.18-1.76a12.82,12.82,0,0,1-.08-1.75c0-.58,0-1.17,0-1.75l.15-1.73a12.25,12.25,0,0,1,.21-1.72,30.07,30.07,0,0,1,5-12.37,29.1,29.1,0,0,1,9.29-8.57,29.94,29.94,0,0,1,22-3.17,31.75,31.75,0,0,1,8.88,3.81,29.36,29.36,0,0,1,6.36,5.49,30,30,0,0,1,3.92,5.78l-.07,0,12.65.37-12.66-.2h0l0-.05a29.7,29.7,0,0,0-3.94-5.72,28.66,28.66,0,0,0-6.33-5.41,31.52,31.52,0,0,0-8.81-3.76,29.72,29.72,0,0,0-21.71,3.19,28.66,28.66,0,0,0-9.17,8.48,29.72,29.72,0,0,0-5,12.23,13.67,13.67,0,0,0-.2,1.69L888,456c0,.57,0,1.15,0,1.72a12.45,12.45,0,0,0,.08,1.73l.18,1.74c0,.58.22,1.15.32,1.72s.2,1.16.37,1.72l.52,1.69a28.65,28.65,0,0,0,7.07,11.49,29.59,29.59,0,0,0,10.93,6.95,29.15,29.15,0,0,0,12.18,1.56,29.41,29.41,0,0,0,19.4-9.6l1.59-1.92c.48-.66.91-1.34,1.36-2a25.58,25.58,0,0,0,2.18-4.08,29.13,29.13,0,0,0,2.18-8,30.05,30.05,0,0,0,0-7l-.08-.68.25.64h0l-.15,0Z"/><path class="cls-4" d="M908.47,456.42a3,3,0,1,1-3-3A3,3,0,0,1,908.47,456.42Z"/><path class="cls-4" d="M920.44,456.42a3,3,0,1,1-3-3A3,3,0,0,1,920.44,456.42Z"/><path class="cls-4" d="M932.38,454.92a3,3,0,1,1-4.09-1.09A3,3,0,0,1,932.38,454.92Z"/><rect class="cls-6" x="853.01" y="131.3" width="227.56" height="166.36"/><path class="cls-4" d="M1080.57,297.66c0-1.75-.09-65.55-.22-166.36l.22.21L853,131.56h0l.26-.26c0,59.69,0,116.27,0,166.36l-.24-.23,227.56.23L853,297.9h-.23v-.24c0-50.09,0-106.67,0-166.36V131H853l227.54.05h.21v.21C1080.65,232.11,1080.57,295.91,1080.57,297.66Z"/><path class="cls-1" d="M1081.34,155.51c0,.15-50.83.26-113.52.26s-113.54-.11-113.54-.26,50.82-.26,113.54-.26S1081.34,155.37,1081.34,155.51Z"/><path class="cls-1" d="M867.6,142.89a3.43,3.43,0,1,1-3.42-3.43A3.43,3.43,0,0,1,867.6,142.89Z"/><path class="cls-1" d="M877.93,142.89a3.43,3.43,0,1,1-3.43-3.43A3.44,3.44,0,0,1,877.93,142.89Z"/><path class="cls-1" d="M888.25,142.89a3.43,3.43,0,1,1-3.42-3.43A3.43,3.43,0,0,1,888.25,142.89Z"/><path class="cls-9" d="M867.8,197.16l1.44-.92a5.4,5.4,0,0,1,7.63,2c2.31,4.21,5.18,10.08,5.18,10.08l-6.06,9.6-2,.06c-2.2,1.41-7.36-1.43-10.85-3.55s-1.77-4.25-1.77-4.25c-2.18-3,.83-4.25.83-4.25a3.25,3.25,0,0,1,.89-4.6"/><rect class="cls-6" x="826.42" y="170.45" width="44.64" height="62.51" transform="translate(-22.79 163.34) rotate(-10.85)"/><path class="cls-4" d="M832.7,236.6s0-.09-.06-.27-.1-.49-.18-.85c-.15-.77-.38-1.88-.66-3.31-.58-2.93-1.42-7.18-2.47-12.56-2.11-10.84-5.1-26.2-8.62-44.35l-.05-.24.23,0,43.84-8.43h0l.26-.05,0,.26c4.38,23,8.44,44.25,11.71,61.4l0,.21-.2,0-32,6-8.81,1.64-2.3.42-.78.12.81-.18,2.33-.47,8.84-1.75L876.51,228l-.17.25-11.81-61.38.3.21h0L821,175.44l.19-.27c3.42,18.11,6.32,33.43,8.36,44.25l2.36,12.63c.27,1.46.47,2.59.62,3.37q.09.56.15.87A1.77,1.77,0,0,1,832.7,236.6Z"/><path class="cls-4" d="M828.26,189.27c0-.14,7.21-1.64,16.16-3.36s16.24-3,16.26-2.85-7.21,1.65-16.16,3.36S828.28,189.42,828.26,189.27Z"/><path class="cls-4" d="M829.09,193.61c0-.14,7.21-1.65,16.16-3.36s16.24-3,16.26-2.85-7.21,1.64-16.16,3.36S829.11,193.75,829.09,193.61Z"/><path class="cls-4" d="M829.92,197.94c0-.14,7.21-1.64,16.16-3.36s16.24-3,16.26-2.85-7.2,1.65-16.16,3.36S830,198.09,829.92,197.94Z"/><path class="cls-4" d="M830.75,202.28c0-.14,7.21-1.65,16.16-3.36s16.24-3,16.26-2.85-7.2,1.64-16.16,3.36S830.78,202.42,830.75,202.28Z"/><path class="cls-4" d="M831.58,206.61c0-.14,7.21-1.64,16.16-3.36s16.24-3,16.27-2.85-7.21,1.65-16.17,3.36S831.61,206.76,831.58,206.61Z"/><path class="cls-4" d="M832.41,211c0-.14,7.21-1.65,16.16-3.36s16.24-3,16.27-2.85-7.21,1.64-16.17,3.36S832.44,211.09,832.41,211Z"/><path class="cls-4" d="M833.24,215.28c0-.14,7.21-1.64,16.16-3.36s16.24-3,16.27-2.85-7.21,1.65-16.17,3.36S833.27,215.43,833.24,215.28Z"/><path class="cls-4" d="M834.07,219.62c0-.14,7.21-1.65,16.17-3.36s16.23-3,16.26-2.85-7.21,1.64-16.17,3.36S834.1,219.76,834.07,219.62Z"/><path class="cls-4" d="M834.9,224c0-.14,7.21-1.64,16.17-3.36s16.23-3,16.26-2.85-7.21,1.65-16.17,3.36S834.93,224.1,834.9,224Z"/><path class="cls-4" d="M858.74,170.23a4.26,4.26,0,0,1,.32,1.09l.66,3c.07.32.13.66.21,1a2.46,2.46,0,0,1-4.83.94l-.14-.71c-.09-.47-.18-1-.28-1.44q-.27-1.47-.54-2.85c-.08-.46-.17-.92-.25-1.36a5.22,5.22,0,0,1-.14-1.38,3.23,3.23,0,0,1,1.19-2.26,3.29,3.29,0,0,1,2.11-.72,3.12,3.12,0,0,1,2.65,1.59,2.58,2.58,0,0,1,.29.81c0,.19,0,.3,0,.3a7.87,7.87,0,0,0-.49-1,3,3,0,0,0-2.48-1.33,2.9,2.9,0,0,0-1.82.68,2.81,2.81,0,0,0-1,2,4.66,4.66,0,0,0,.15,1.24c.08.45.17.9.26,1.36.18.92.37,1.87.55,2.85.1.49.19,1,.28,1.44l.14.71a1.92,1.92,0,0,0,.21.58,2,2,0,0,0,2,1,2,2,0,0,0,1.6-1.34,2.14,2.14,0,0,0,.08-1c-.06-.34-.12-.68-.17-1-.2-1.2-.37-2.22-.5-3A5.2,5.2,0,0,1,858.74,170.23Z"/><path class="cls-9" d="M871.79,195.41c-.33,0-13.32,2.05-13.32,2.05-.23,1.2.47,2.89,3.53,2.94,2.9,0,5.52-.2,5.52-.2s3.21,6.71,6.37,7.45,1.61-6.43,1.61-6.43h0Z"/><path class="cls-4" d="M1020.65,153.12c1.13-2.63,2.27-5.33,2.38-8.2s-1.07-6-3.54-7.27c-2.29-1.2-5.1-.64-7.53-1.5-3-1.07-4.88-4.08-6.21-7.05s.52-4-1.73-6.35c-3-3-4.91-3.49-8.69-1.63-2.71-1.92-12.14-5.4-14.85-5.49-4-.12-8.63.2-11.44,3.09-2.19,2.25-3.58,5.1-6.26,6.71-3.69,2.23-8.39.34-12.69.49-.88,0-1.9.26-2.26,1.06a2.62,2.62,0,0,0,.34,2.17l3.33,6.95a6.65,6.65,0,0,1-5.76-.14,19.59,19.59,0,0,0,5.11,12.31,1.65,1.65,0,0,0-2.29.87,4.12,4.12,0,0,0,0,2.75A20.14,20.14,0,0,0,976,165.15l23.72,1.79a6.07,6.07,0,0,0,4.09,3.8c2.66-2,3.08-3.07,3.08-3.07,1.64,1.21.35.6,1.64,1.21,2.94,1.41,7.29-.26,7.95-3.53a7,7,0,0,1,1.58-3.62,12.43,12.43,0,0,1,3.46-1.92,9.76,9.76,0,0,0,4.35-4.45A7,7,0,0,1,1020.65,153.12Z"/><path class="cls-9" d="M1003.87,143l.61,49c.1,8.32-1.45,20.58-14.62,20.14h0c-11.4-1.24-14.42-12-14.51-19.8,0-3.69-.09-6.76-.12-7.14,0,0-12.48-1-13.53-13.34-.51-6-.56-18.31-.47-29.49a23,23,0,0,1,21.37-22.79l1.19-.09C996.68,119.21,1004,130.05,1003.87,143Z"/><path class="cls-10" d="M975.23,185.11A29.89,29.89,0,0,0,991,179.19s-3.26,9.29-15.65,9.08Z"/><path class="cls-4" d="M982.3,147.33c.25.25,1.67-.9,3.73-1s3.61,1,3.83.69c.1-.12-.15-.57-.82-1a5.23,5.23,0,0,0-3.07-.87,5.07,5.07,0,0,0-3,1.08C982.38,146.75,982.18,147.22,982.3,147.33Z"/><path class="cls-4" d="M981.93,151.92a1.68,1.68,0,0,0,1.73,1.57,1.59,1.59,0,0,0,1.6-1.63,1.67,1.67,0,0,0-1.72-1.57A1.59,1.59,0,0,0,981.93,151.92Z"/><path class="cls-4" d="M977.13,161.7a12.46,12.46,0,0,0-3.12-.34c-.49,0-1-.07-1.06-.4a2.43,2.43,0,0,1,.22-1.46l1.16-3.79c1.6-5.39,2.73-9.81,2.51-9.87s-1.69,4.25-3.3,9.65c-.38,1.33-.75,2.59-1.1,3.81a2.83,2.83,0,0,0-.11,1.92,1.19,1.19,0,0,0,.85.64,3.09,3.09,0,0,0,.83.06A13.19,13.19,0,0,0,977.13,161.7Z"/><path class="cls-4" d="M983.18,139.57c.2.45,1.85.11,3.83.21s3.61.54,3.84.1c.1-.21-.21-.63-.88-1a6.45,6.45,0,0,0-5.84-.24C983.43,139,983.09,139.35,983.18,139.57Z"/><path class="cls-4" d="M963.57,143.39c.21.38,1.82,0,3.78-.1s3.57.19,3.78-.2c.09-.18-.23-.52-.92-.82a6.81,6.81,0,0,0-2.88-.47,7,7,0,0,0-2.88.7C963.78,142.85,963.47,143.21,963.57,143.39Z"/><path class="cls-9" d="M1003.53,152.15c.2-.1,8.29-3.12,8.64,5.33s-8.21,7.06-8.24,6.82S1003.53,152.15,1003.53,152.15Z"/><path class="cls-10" d="M1006.38,161s.15.1.41.2a1.49,1.49,0,0,0,1.1,0c.88-.37,1.57-1.82,1.55-3.34a4.81,4.81,0,0,0-.5-2.09,1.7,1.7,0,0,0-1.15-1.09.75.75,0,0,0-.85.44c-.11.24-.05.41-.09.42s-.19-.13-.13-.48a.85.85,0,0,1,.31-.54,1.07,1.07,0,0,1,.8-.25,2,2,0,0,1,1.59,1.24,4.93,4.93,0,0,1,.61,2.34c0,1.71-.79,3.34-2,3.74a1.56,1.56,0,0,1-1.35-.17C1006.41,161.19,1006.35,161,1006.38,161Z"/><path class="cls-4" d="M979.12,167.55c-.09-.22,1.57-.71,2.73-2.26a9.58,9.58,0,0,0,1.17-2.21c.25-.62.43-1,.52-1s.07.44-.07,1.11a6.32,6.32,0,0,1-1.08,2.47,5,5,0,0,1-2.16,1.65C979.58,167.6,979.14,167.62,979.12,167.55Z"/><path class="cls-4" d="M1014.77,138.47c-1.76-3-2.17-6.54-3.14-9.87s-2.81-6.77-6.07-7.94l-.08,0c-2.93-1.18-6.54-1.2-8.94.84-.6-4.4-4.45-7.88-8.74-9s-11.17-.46-15.28,1.2c-3.18,1.28-6.25,3.9-10,7.75a42.32,42.32,0,0,0-4.31,5.23l-3.73,11.52a4.75,4.75,0,0,0-1,1,2.17,2.17,0,0,0,3.17,2.9l0,0a21.22,21.22,0,0,1,1,2v0l.06.12a11.88,11.88,0,0,0,.63,1.23v0l2.88,12.72c.19-3.47-.07-15.54.12-19a19.34,19.34,0,0,0,13.79-6.37c1.89-2.1,3.38-4.73,5.92-6,3.27-1.61,7.16-.44,10.61.76l-.15-.13a15.39,15.39,0,0,1,4.78,3.44,48,48,0,0,0,2.08,20.37c.32,1,1.21,3,2.17,3.38,1.9.74,2.41-1.2,3.55-2.22a5,5,0,0,1,3.46-.85,77.66,77.66,0,0,0,2.32-8.78,7.62,7.62,0,0,0,3.55.24l-1.1-2.61a4.07,4.07,0,0,0,1.52.68,1.37,1.37,0,0,0,1.44-.62C1015.58,139.84,1015.14,139.09,1014.77,138.47Z"/><path class="cls-5" d="M992.66,123a12,12,0,0,1,1.23,1.13,8.8,8.8,0,0,1,1.9,4.1,15.8,15.8,0,0,1,.31,3.13c0,1.13-.08,2.35-.17,3.63a31.66,31.66,0,0,0-.09,4.05,14.43,14.43,0,0,0,.27,2.13,4.54,4.54,0,0,0,.87,2.07,1.86,1.86,0,0,0,1.74.58,2.8,2.8,0,0,0,1.57-.88,6.47,6.47,0,0,0,1.19-3.14l-.26,0a10.51,10.51,0,0,0,1.5,2.59,3.66,3.66,0,0,0,2.4,1.3,2.38,2.38,0,0,0,1.27-.22,2,2,0,0,0,.86-.85,2.17,2.17,0,0,0,.27-1.09,1.58,1.58,0,0,0-.4-1l-.13.11a7.78,7.78,0,0,0,2.65,2,7.2,7.2,0,0,0,.82.32,1,1,0,0,0,.29.07l-.28-.12c-.18-.07-.45-.18-.79-.35a8.14,8.14,0,0,1-2.56-2l-.13.12a1.56,1.56,0,0,1,.08,1.83,1.82,1.82,0,0,1-.78.75,2.13,2.13,0,0,1-1.15.19,3.46,3.46,0,0,1-2.23-1.24,10.5,10.5,0,0,1-1.44-2.53l-.18-.39-.08.42a6.25,6.25,0,0,1-1.13,3,2.47,2.47,0,0,1-1.4.79,1.57,1.57,0,0,1-1.48-.5,4.22,4.22,0,0,1-.81-1.93,15.14,15.14,0,0,1-.27-2.09,33.14,33.14,0,0,1,.07-4c.08-1.28.17-2.5.15-3.65a15.55,15.55,0,0,0-.35-3.18,8.73,8.73,0,0,0-2-4.12A5,5,0,0,0,992.66,123Z"/><path class="cls-5" d="M954.52,135l.09.08.31.23a4.33,4.33,0,0,0,.52.33c.22.12.46.27.75.4a11.09,11.09,0,0,0,5.28.95,14,14,0,0,0,7.44-2.75,24.13,24.13,0,0,0,6.4-7.37c.89-1.49,1.62-3,2.43-4.44a16.37,16.37,0,0,1,2.75-3.75,8.39,8.39,0,0,1,3.56-2.16,6,6,0,0,1,1.87-.21,6.32,6.32,0,0,1,1.72.33,7.1,7.1,0,0,1,2.57,1.54,7.2,7.2,0,0,1,1.39,1.81,7.91,7.91,0,0,1,.63,1.85s0-.05,0-.13,0-.23-.05-.38a6.43,6.43,0,0,0-.47-1.39,6.87,6.87,0,0,0-1.38-1.87,7.28,7.28,0,0,0-2.62-1.63,7,7,0,0,0-1.77-.36,6.3,6.3,0,0,0-1.95.21,8.68,8.68,0,0,0-3.67,2.2,16.54,16.54,0,0,0-2.82,3.8c-.81,1.43-1.54,3-2.43,4.43a24.25,24.25,0,0,1-6.3,7.3,13.87,13.87,0,0,1-7.3,2.76,11,11,0,0,1-5.22-.85A18.26,18.26,0,0,1,954.52,135Z"/><path class="cls-5" d="M953.39,129.53a1.76,1.76,0,0,0,.45.31,8.47,8.47,0,0,0,1.3.66,12.39,12.39,0,0,0,2.08.68,13.49,13.49,0,0,0,5.32.17,12.63,12.63,0,0,0,2.11-.54,9.58,9.58,0,0,0,1.35-.58,1.93,1.93,0,0,0,.46-.28s-.7.3-1.87.66a14.81,14.81,0,0,1-2.09.48,16.69,16.69,0,0,1-2.62.16,15.63,15.63,0,0,1-2.6-.33,12.79,12.79,0,0,1-2.06-.61C954.08,129.88,953.42,129.48,953.39,129.53Z"/><path class="cls-4" d="M963.47,148.11c.25.25,1.67-.9,3.74-1s3.6,1,3.82.69-.15-.58-.82-1a5.19,5.19,0,0,0-3.07-.87,5,5,0,0,0-3,1.08C963.56,147.53,963.35,148,963.47,148.11Z"/><path class="cls-4" d="M964.64,152.2a1.68,1.68,0,0,0,1.73,1.57,1.61,1.61,0,0,0,1.61-1.63,1.69,1.69,0,0,0-1.73-1.57A1.61,1.61,0,0,0,964.64,152.2Z"/><path class="cls-5" d="M955.28,198l-44.6,29.19L883.5,206,875,219.39s15.82,18.31,21.68,24.53,9.78,9.54,14.4,8.94,43.23-15.59,43.23-15.59l5.86-40.94-2.46.59A8,8,0,0,0,955.28,198Z"/><path class="cls-5" d="M1005.05,188c-10,6.27-20,8.63-30.22,4.57l-15.31,3.91-7.44,12.94a11.77,11.77,0,0,0-1.53,6.72l2.93,49.52-9,31.46,88.32.77-4.35-23.38-11-84Z"/><path class="cls-5" d="M1018.55,228.24l-2.76-37.92s20.79,1.93,27.67,16.59c5.79,12.36,23.19,48.29,24.91,53.37,5,14.93-4.23,36.71-36.59,35.52l-3.69-20.29Z"/><path class="cls-4" d="M1035.16,259.81a9.1,9.1,0,0,0,.52,1.49c.35.91.88,2.15,1.49,3.5l1.56,3.47a10.91,10.91,0,0,0,.68,1.42,9.1,9.1,0,0,0-.52-1.49c-.35-.9-.88-2.14-1.49-3.5s-1.13-2.51-1.56-3.47A12.89,12.89,0,0,0,1035.16,259.81Z"/><path class="cls-4" d="M1023.66,230c.06,0,.12-2.41.12-5.37s-.06-5.37-.12-5.37-.13,2.4-.13,5.37S1023.59,230,1023.66,230Z"/><path class="cls-4" d="M1026.71,213.82a2.49,2.49,0,0,0,.19-.6c.11-.39.27-.95.5-1.63a26.83,26.83,0,0,1,2.31-5.1,26.23,26.23,0,0,1,3.34-4.5c.48-.53.89-1,1.18-1.22a3.61,3.61,0,0,0,.43-.46,2.6,2.6,0,0,0-.49.38,16.49,16.49,0,0,0-1.25,1.18,23.51,23.51,0,0,0-5.69,9.67,14.85,14.85,0,0,0-.42,1.66A3.64,3.64,0,0,0,1026.71,213.82Z"/><path class="cls-4" d="M953.37,211.47a5.19,5.19,0,0,1,.12,1.24c0,.8.06,2,0,3.39,0,2.86-.33,6.8-.68,11.14a110.19,110.19,0,0,0-.44,11.11c0,1.43.08,2.58.15,3.37a5.58,5.58,0,0,1,0,1.24,5,5,0,0,1-.23-1.22c-.13-.79-.24-1.94-.32-3.37a85.67,85.67,0,0,1,.29-11.17c.35-4.35.7-8.27.83-11.11.07-1.43.12-2.58.13-3.38A6.56,6.56,0,0,1,953.37,211.47Z"/><path class="cls-4" d="M1048.4,266.78a9.17,9.17,0,0,1-1.42.8c-.92.49-2.25,1.23-3.86,2.19s-3.51,2.15-5.72,3.29c-1.11.57-2.28,1.14-3.53,1.68l-3.86,1.6-1.19.49.16-.28c.85,5.36,1.58,10.17,2.09,13.64.23,1.67.42,3.05.57,4.1a9.74,9.74,0,0,1,.14,1.51,7.58,7.58,0,0,1-.34-1.48c-.19-1.05-.43-2.42-.73-4.07-.59-3.46-1.39-8.26-2.25-13.62l0-.21.19-.07,1.19-.49,3.86-1.59c1.24-.53,2.41-1.08,3.51-1.64,2.21-1.11,4.12-2.26,5.76-3.18s3-1.61,4-2.05c.48-.23.85-.38,1.11-.48A1.64,1.64,0,0,1,1048.4,266.78Z"/><path class="cls-4" d="M1053.11,260.28c0,.1-1,.3-2.66.9a20.21,20.21,0,0,0-10.2,8.41c-.9,1.48-1.3,2.48-1.39,2.45a2.16,2.16,0,0,1,.21-.74,11.62,11.62,0,0,1,.86-1.89,18.32,18.32,0,0,1,10.4-8.58,13.85,13.85,0,0,1,2-.49A2.43,2.43,0,0,1,1053.11,260.28Z"/><path class="cls-14" d="M1019.47,297.5l21.7-52.36c1-2.39-.25-4.32-2.78-4.32H1034c-1.78,0-3-1-3.11-2.52l-.15-1.92c-.11-1.54-1.33-2.52-3.11-2.52h-20.75a7.24,7.24,0,0,0-4.8,2.13l-1.69,1.63a7.24,7.24,0,0,1-4.8,2.13H969.2a7.37,7.37,0,0,0-6.31,4.32L941.38,297.5Z"/><g class="cls-8"><path d="M1019.47,297.5l21.7-52.36c1-2.39-.25-4.32-2.78-4.32H1034c-1.78,0-3-1-3.11-2.52l-.15-1.92c-.11-1.54-1.33-2.52-3.11-2.52h-20.75a7.24,7.24,0,0,0-4.8,2.13l-1.69,1.63a7.24,7.24,0,0,1-4.8,2.13H969.2a7.37,7.37,0,0,0-6.31,4.32L941.38,297.5Z"/></g><path class="cls-1" d="M1023.05,279.72l8.19-31.65c.54-2.08-.83-4.17-2.73-4.17H964.36a2.92,2.92,0,0,0-2.73,2.36l-11.91,47.62c-.53,2.1.31,3.35,2.21,3.33l64.55,0a2.93,2.93,0,0,0,2.69-2.34Z"/><path class="cls-2" d="M1018.62,296.07l3.49-49.84a3.07,3.07,0,0,0-3.05-3.27H952.59v53.11Z"/><path class="cls-12" d="M1019.37,297.21l-7.91-51.38a3.69,3.69,0,0,0-3.62-2.87H940.6a3.64,3.64,0,0,0-3.39,5.07l14.52,47Z"/><path class="cls-15" d="M1019.47,297.47l-16.31-48.11a4.83,4.83,0,0,0-4.53-3.34H929.31a3.38,3.38,0,0,0-3.1,4.49l15.17,47Z"/><g class="cls-8"><path d="M986,289.42s2.62.12,3.83.2a35.57,35.57,0,0,0,16.84-3c1.63-.72,3.36-1.75,3.85-3.47.55-1.92-.69-3.92-2.21-5.22s-3.36-2.23-4.68-3.73-1.94-3.94-.64-5.47l.35.27c.94,2.37,3.55,3.52,5.72,4.88a20.19,20.19,0,0,1,8.46,11.06c.76,2.49,1,5.4-.55,7.52a9.29,9.29,0,0,1-4.55,3c-5.25,1.95-10.85,2-16.45,2-1.76,0-7.19-.07-7.19-.07-1.7-.47-2.26-1.36-3.29-2.79S984.7,290.45,986,289.42Z"/></g><path class="cls-9" d="M986,289.42,1004,286.7l7-4a3.13,3.13,0,0,0,1.61-2.55v-.06a3.22,3.22,0,0,0-2-3.06c-2.23-.94-5.75-2.18-7.26-4.82-2.16-3.79,0-4.57,0-4.57l15.1,6,10.69,7.28,2.15,12.13-14.91,4.87s-16.62.93-21.21.42-4.58-2.65-4.58-2.65c-.85-.27-2.57-1.78-2.57-3.19-2.23-2.09-2.14-3.07-2.14-3.07"/><path class="cls-10" d="M1009.08,294.64a3.62,3.62,0,0,0-.75.14c-.47.12-1.16.27-2,.44a42.41,42.41,0,0,1-13.49.52c-.86-.1-1.56-.2-2-.27a3.47,3.47,0,0,0-.76-.09,4,4,0,0,0,.74.2c.47.12,1.17.25,2,.38a36.52,36.52,0,0,0,6.81.37,37.13,37.13,0,0,0,6.76-.9c.85-.2,1.53-.38,2-.53A4.05,4.05,0,0,0,1009.08,294.64Z"/><path class="cls-10" d="M1007.43,291.84a4.27,4.27,0,0,0-.76.15c-.48.12-1.18.27-2,.43a44.15,44.15,0,0,1-6.84.76,45.51,45.51,0,0,1-6.87-.32c-.87-.1-1.58-.2-2.07-.28a3.58,3.58,0,0,0-.76-.09,4,4,0,0,0,.74.21c.48.11,1.19.25,2.06.38a39,39,0,0,0,6.91.41,37.89,37.89,0,0,0,6.87-.85c.87-.2,1.56-.38,2-.54A2.92,2.92,0,0,0,1007.43,291.84Z"/><rect class="cls-6" x="23.19" y="382.19" width="227.56" height="169"/><path class="cls-4" d="M250.75,551.19c0-1.76-.08-66.7-.21-169l.21.21-227.54.05h0l.26-.26c0,60.71,0,118.22,0,169l-.24-.23,227.56.23-227.56.24H23v-.24c0-50.78,0-108.29,0-169v-.26h.28l227.54,0H251v.22C250.83,484.49,250.75,549.43,250.75,551.19Z"/><path class="cls-1" d="M250.75,404.64c0,.15-50.95.26-113.79.26s-113.8-.11-113.8-.26,50.94-.26,113.8-.26S250.75,404.5,250.75,404.64Z"/><circle class="cls-1" cx="32.83" cy="392.31" r="3.35"/><circle class="cls-1" cx="42.91" cy="392.31" r="3.35"/><circle class="cls-1" cx="53" cy="392.31" r="3.35"/><path class="cls-16" d="M225.69,517.18s5.56-7.27,8.17-7.55,18.95.28,21.25,0,15.22-5.75,15.22-5.75,2.29.78,2,2.83-14.65,9.81-16.37,10.1-15.51,1.3-15.51,1.3L237,524.35Z"/><path class="cls-4" d="M178.12,425.66a8.7,8.7,0,0,0,1.38-15.1l-10.08-3.39q-2.17,19.53-4.63,39a14.73,14.73,0,0,0,7.74-2.14c2.22-1.55,3.7-4.45,2.86-7a6.89,6.89,0,0,0,2.73-11.35Z"/><path class="cls-16" d="M128.69,418l.38-4.63L157.38,411c8.65,0,17,9.49,16.7,18.14-.38,9.61-1.21,21.33-3.07,28.33-3.74,14.1-14.9,14.8-14.9,14.8l-1,14.2c-.75,8.27-7.9,9.39-16.17,8.65h0a15.08,15.08,0,0,1-13.7-15.85Z"/><path class="cls-4" d="M169.59,439.28a1.85,1.85,0,0,1-2,1.68,1.77,1.77,0,0,1-1.73-1.85,1.85,1.85,0,0,1,2-1.68A1.77,1.77,0,0,1,169.59,439.28Z"/><path class="cls-4" d="M170.43,434.87c-.25.21-1.54-1-3.52-1.15s-3.53.64-3.72.38.19-.53.86-.93a5.13,5.13,0,0,1,3-.6,4.9,4.9,0,0,1,2.77,1.22C170.39,434.32,170.55,434.77,170.43,434.87Z"/><path class="cls-4" d="M151.12,438.12a1.84,1.84,0,0,1-2,1.67,1.76,1.76,0,0,1-1.72-1.85,1.84,1.84,0,0,1,2-1.67A1.77,1.77,0,0,1,151.12,438.12Z"/><path class="cls-4" d="M151,433.25c-.25.22-1.54-.95-3.52-1.15s-3.52.64-3.71.38.18-.53.86-.92a5,5,0,0,1,3-.6,4.89,4.89,0,0,1,2.77,1.21C150.92,432.7,151.08,433.16,151,433.25Z"/><path class="cls-4" d="M156.64,448.64a13.29,13.29,0,0,1,3.27-.25c.51,0,1-.05,1.11-.38a2.61,2.61,0,0,0-.18-1.54c-.35-1.27-.72-2.6-1.1-4-1.51-5.69-2.56-10.34-2.33-10.4s1.65,4.5,3.16,10.19c.36,1.4.71,2.73,1,4a3,3,0,0,1,.06,2,1.29,1.29,0,0,1-.91.65,3.27,3.27,0,0,1-.87,0A12,12,0,0,1,156.64,448.64Z"/><path class="cls-17" d="M156.1,472.25A38.13,38.13,0,0,1,137,465.1s3.82,10.52,18.78,10.73Z"/><path class="cls-4" d="M152,427.72c-.25.51-2.2.06-4.54.1s-4.29.48-4.55,0c-.11-.25.26-.72,1.07-1.16a7.9,7.9,0,0,1,6.93-.06C151.7,427,152.08,427.47,152,427.72Z"/><path class="cls-4" d="M171.06,428.08c-.39.41-1.71-.19-3.34-.38s-3.06,0-3.33-.51c-.12-.24.15-.67.8-1a4.85,4.85,0,0,1,5.37.72C171.09,427.4,171.24,427.88,171.06,428.08Z"/><path class="cls-4" d="M180.41,416.78a9,9,0,0,0,4.41-8.83,10.22,10.22,0,0,0-6.17-7.89,9.74,9.74,0,0,0-2-.6,9.19,9.19,0,0,0-4.32-1.73,4.83,4.83,0,0,0-3.28-4.14,11.73,11.73,0,0,0-5.53-.35,9.4,9.4,0,0,0-15.12-.87,7.68,7.68,0,0,0-11.79,3.55,7.65,7.65,0,0,0-5.73,2,7.52,7.52,0,0,0-1.43,1.84,7.24,7.24,0,0,0-1.65,2.7,8.65,8.65,0,0,0-5.49,15.28,7.89,7.89,0,0,0,.44,12.66,10.14,10.14,0,0,0,0,8A4.91,4.91,0,0,0,125,441a1.88,1.88,0,0,0,.16.56c.72,1.43,2.89,1.06,4.24.2,3.27-2.1,5.28-5.71,6.52-9.39s1.86-7.56,3.06-11.25l.09-.26a10.51,10.51,0,0,1,2.49-4.08,28.06,28.06,0,0,0,3.21,2.55A11.45,11.45,0,0,0,158.26,418a16.87,16.87,0,0,0,10.25,5c3.85.4,7.74.07,11-2.1a5.32,5.32,0,0,0,1.92-2.24A1.63,1.63,0,0,0,180.41,416.78Z"/><path class="cls-16" d="M129.06,437.2c-.18-.12-7.39-3.73-8.56,4.09s6.93,7.37,7,7.15S129.06,437.2,129.06,437.2Z"/><path class="cls-17" d="M125.53,445.12s-.15.08-.4.15a1.39,1.39,0,0,1-1-.13c-.78-.43-1.28-1.84-1.11-3.26a4.67,4.67,0,0,1,.67-1.89,1.59,1.59,0,0,1,1.18-.89.7.7,0,0,1,.75.49c.07.24,0,.38,0,.4s.19-.1.17-.43a.9.9,0,0,0-.23-.54,1,1,0,0,0-.72-.31,1.93,1.93,0,0,0-1.61,1,4.58,4.58,0,0,0-.79,2.11c-.19,1.58.4,3.17,1.48,3.67a1.48,1.48,0,0,0,1.27,0C125.49,445.31,125.55,445.14,125.53,445.12Z"/><path class="cls-5" d="M184.55,406.61s0,.06,0,.19a4.58,4.58,0,0,1,.07.58,6.08,6.08,0,0,1-.3,2.22,6,6,0,0,1-2,2.85A6.22,6.22,0,0,1,178,413.7l.16-.11a13.61,13.61,0,0,1-4.05,6.44,10.59,10.59,0,0,1-3.76,2.19,8.7,8.7,0,0,1-4.59.14,15.2,15.2,0,0,1-4.22-1.61,12,12,0,0,1-3.37-2.61l.24,0a14.34,14.34,0,0,1-7,2.88,11.35,11.35,0,0,1-5.84-1.19,11.85,11.85,0,0,1-3.16-2.31,10,10,0,0,1-.69-.79c-.15-.18-.22-.28-.21-.29s.33.37,1,1a12.41,12.41,0,0,0,3.18,2.2,11.23,11.23,0,0,0,5.72,1.09,14.14,14.14,0,0,0,6.82-2.86l.13-.1.11.13a11.52,11.52,0,0,0,3.27,2.51A15.09,15.09,0,0,0,165.8,422a8.39,8.39,0,0,0,4.4-.12,10.33,10.33,0,0,0,3.64-2.12,13.3,13.3,0,0,0,4-6.25l0-.12H178a6,6,0,0,0,4.21-1.15,5.82,5.82,0,0,0,2-2.72,6.27,6.27,0,0,0,.37-2.15C184.58,406.88,184.53,406.61,184.55,406.61Z"/><path class="cls-5" d="M128.92,402.17a15.63,15.63,0,0,0-1,2.6,11.3,11.3,0,0,0,.37,7.13l.05.12-.11.08a7.26,7.26,0,0,0-2.48,2.91,6.94,6.94,0,0,0-.58,4.17,7.27,7.27,0,0,0,2.81,4.58l.13.1L128,424a9,9,0,0,0-1.53,4.77,9.71,9.71,0,0,0,.65,4,10.48,10.48,0,0,0,1.87,3s-.07,0-.19-.16a4.39,4.39,0,0,1-.49-.52,8.33,8.33,0,0,1-1.39-2.3,9.74,9.74,0,0,1-.74-4,9.3,9.3,0,0,1,1.54-5l0,.24a7.59,7.59,0,0,1-3-4.8,7.3,7.3,0,0,1,.62-4.38,7.52,7.52,0,0,1,2.63-3L128,412a11.2,11.2,0,0,1-.26-7.3,9.85,9.85,0,0,1,.8-1.93c.12-.21.23-.37.29-.47S128.91,402.16,128.92,402.17Z"/><path class="cls-4" d="M123.35,447.62A5.77,5.77,0,0,0,123,449a2.08,2.08,0,0,0,.39,1.39,1.74,1.74,0,0,0,1.55.67,1.45,1.45,0,0,0,1.14-1.16,2.73,2.73,0,0,0-.08-1.49c-.27-.84-.56-1.34-.5-1.36a3.53,3.53,0,0,1,.74,1.28,2.8,2.8,0,0,1,.17,1.64,2.1,2.1,0,0,1-.45.91,1.55,1.55,0,0,1-1,.54,2,2,0,0,1-1.87-.83,2.29,2.29,0,0,1-.38-1.61A2.16,2.16,0,0,1,123.35,447.62Z"/><path class="cls-17" d="M151.5,451a3.63,3.63,0,0,0,.59,5.92,2.09,2.09,0,0,0,1.33.31c.81-.12,1.36-.87,1.81-1.55l1.14-1.69a.89.89,0,0,0,.21-.64c-.06-.24-.3-.37-.53-.48l-4.36-2.09"/><path class="cls-4" d="M153.37,457a4.08,4.08,0,0,1-2-.71,3.27,3.27,0,0,1-1.51-1.88,2.49,2.49,0,0,1,0-1.48,4.38,4.38,0,0,1,.68-1.39,4,4,0,0,1,1.12-1l.15-.08.14.08c2.81,1.73,5.08,2.78,5,2.91a19.2,19.2,0,0,1-5.32-2.43h.29a3.44,3.44,0,0,0-1,.87,3,3,0,0,0-.65,2.41,3.1,3.1,0,0,0,1.23,1.68C152.6,456.64,153.41,456.88,153.37,457Z"/><path class="cls-18" d="M48.79,551.25S77.24,500.24,82,492c5.57-9.7,10.42-13.22,14.79-15.34a34.4,34.4,0,0,1,14.71-3.29l14.11-.11s5.36,8,12.63,9.6c10,2.16,17.52-5.27,17.52-5.27l20.27,8.3-4.07,37.46a55.21,55.21,0,0,1-10,26.16l-1.34,1.74-74.7-.07,8.66-26.95-16,27Z"/><path class="cls-18" d="M176,485.89s5.88,3.45,10.32,17.8,14,39.85,14,39.85l24-27.23,14.24,9s-23,39.88-26.62,44.6c-5.44,7-19.19,11.06-27.26,1.71-5.87-6.8-19.89-39.7-19.89-39.7Z"/><path class="cls-4" d="M167.36,506.68a2,2,0,0,1,.22.43c.13.29.33.71.54,1.27a39.79,39.79,0,0,1,1.52,4.86,42.9,42.9,0,0,1-4.92,32.42,40.85,40.85,0,0,1-2.9,4.19c-.37.47-.68.81-.89,1a2,2,0,0,1-.34.35,15.09,15.09,0,0,1,1.07-1.53,48.36,48.36,0,0,0,2.74-4.24,44.42,44.42,0,0,0,4.88-32.16,50,50,0,0,0-1.35-4.87A15,15,0,0,1,167.36,506.68Z"/><path class="cls-4" d="M99.19,502.1a1.71,1.71,0,0,1,0,.52c-.06.4-.12.89-.2,1.48-.19,1.29-.49,3.14-.91,5.42-.84,4.56-2.19,10.83-4.07,17.66s-3.93,12.91-5.55,17.26c-.8,2.17-1.49,3.92-2,5.12-.23.55-.43,1-.58,1.37a2.13,2.13,0,0,1-.24.47,1.76,1.76,0,0,1,.14-.51l.49-1.41,1.84-5.17c1.52-4.37,3.51-10.45,5.39-17.27s3.28-13,4.21-17.59c.44-2.22.8-4,1.07-5.38.12-.59.21-1.07.29-1.46A3.15,3.15,0,0,1,99.19,502.1Z"/><path class="cls-16" d="M63.47,551.2s2.71-3.69,4-4.39,3.18-.68,4,.05l.81.72s4.22-1.89,6.25-.44c0,0,4-1.89,5.92.28,0,0,3.1-2,4.41-.26s1.17,4.72.54,6.25-1.82,6.73-2.74,6.82c0,0-2.47.26-2.8-1.07s-.47-2-.47-2-.94,4.71-2.07,4.94-3.3.11-3.38-2c0,0-1,1.57-2.08,1.11s-2.3-1.21-2.19-2.49.13-2.55.13-2.55-.56,1.86-1.49,1.45-1.87-.31-2.39-1.89-1.82-4.6-1.82-4.6Z"/><path class="cls-17" d="M73.77,556.13a12.61,12.61,0,0,1,.4-1.33A7.3,7.3,0,0,0,73,548.53c-.5-.69-.9-1-.86-1.1a3,3,0,0,1,1.09.92,6.84,6.84,0,0,1,1.47,3.11,6.7,6.7,0,0,1-.26,3.42A2.87,2.87,0,0,1,73.77,556.13Z"/><path class="cls-17" d="M78.83,547.17a7.06,7.06,0,0,1,.54,1.86,18.56,18.56,0,0,1,.28,4.66,19,19,0,0,1-.9,4.58A6.65,6.65,0,0,1,78,560a33,33,0,0,0,1.28-6.38A34,34,0,0,0,78.83,547.17Z"/><path class="cls-17" d="M84.59,547.48a19.76,19.76,0,0,1-1.13,9.83c-.11,0,.48-2.18.79-4.89S84.47,547.49,84.59,547.48Z"/><path class="cls-16" d="M100.37,548.55a1.57,1.57,0,0,0-1.06-.86,3.42,3.42,0,0,0-3.06.82A11.65,11.65,0,0,0,94,551.26h6C99.94,550.33,100.71,549.4,100.37,548.55Z"/><path class="cls-19" d="M254.73,465.6H286.8a32.08,32.08,0,1,1-32.14-32.08Z"/><path class="cls-19" d="M260.43,460.45l-.1-32.08h.1a32.23,32.23,0,0,1,32.08,31.9Z"/><rect class="cls-6" x="88.41" y="39.5" width="232.89" height="172.96"/><path class="cls-4" d="M321.3,212.46c0-1.76-.08-68.26-.21-173l.21.21-232.87,0h0l.26-.26c0,62.13,0,121,0,173l-.24-.24,232.89.24-232.89.23h-.23v-.23c0-52,0-110.83,0-173v-.26h.28l232.87,0h.21v.22C321.38,144.2,321.3,210.7,321.3,212.46Z"/><path class="cls-1" d="M320.91,63.67c0,.15-51.63.26-115.29.26s-115.3-.11-115.3-.26,51.61-.26,115.3-.26S320.91,63.53,320.91,63.67Z"/><path class="cls-1" d="M103.64,51.05a3.43,3.43,0,1,1-3.42-3.42A3.42,3.42,0,0,1,103.64,51.05Z"/><path class="cls-1" d="M114,51.05a3.43,3.43,0,1,1-3.43-3.42A3.43,3.43,0,0,1,114,51.05Z"/><path class="cls-1" d="M124.29,51.05a3.43,3.43,0,1,1-3.42-3.42A3.42,3.42,0,0,1,124.29,51.05Z"/><path class="cls-4" d="M217.29,35.63c-.78-2.81-2.31-5.57-4.83-7.05-1.2-.69-2.56-1.07-3.78-1.73a48.06,48.06,0,0,1-4.05-3,14.46,14.46,0,0,0-21.13,5.35c-2.84-2.17-7.76-1.25-11.12,0s-6.17,5.21-7,8.69l15.76,4.77a42.23,42.23,0,0,0,10.77,8.86,21.88,21.88,0,0,0,13.49,2.73,14.88,14.88,0,0,0,11.11-7.64A15.53,15.53,0,0,0,217.29,35.63Z"/><path class="cls-4" d="M228.47,87.79a9.43,9.43,0,0,0,2-13c-.89-1.16-2.11-2.2-2.31-3.64a7.09,7.09,0,0,1,.39-2.64,15.57,15.57,0,0,0-5.72-15.83c-.08-3.23-1.89-10.06-6-12.67l-18.62,2.61q1.26,29.42-.18,58.87c-.14,3-.25,6.24,1.39,8.76,2.33,3.58,7.19,4.32,11.46,4.43A34,34,0,0,0,223,113.3c3.85-1.35,7.39-4,9-7.77C234.46,99.76,231.9,93.06,228.47,87.79Z"/><path class="cls-9" d="M171.68,48.12l-.57-4.18,24.58-7.66c7.65-1.71,16.92,5.09,18.3,12.8,1.54,8.58,3.08,19.11,2.8,25.67-.57,13.2-10.31,16-10.31,16l1,7.82A14.46,14.46,0,0,1,195,114.73h0a14.46,14.46,0,0,1-16.17-12.45Z"/><path class="cls-4" d="M212.31,58.79a1.68,1.68,0,0,1-1.41,1.86,1.61,1.61,0,0,1-1.89-1.3,1.68,1.68,0,0,1,1.41-1.87A1.61,1.61,0,0,1,212.31,58.79Z"/><path class="cls-4" d="M211.89,54.9c-.19.24-1.55-.54-3.34-.33s-3,1.25-3.22,1.06.06-.5.59-1a4.55,4.55,0,0,1,2.54-1.11,4.43,4.43,0,0,1,2.69.54C211.74,54.42,212,54.8,211.89,54.9Z"/><path class="cls-4" d="M195.61,61.06a1.67,1.67,0,0,1-1.41,1.86,1.6,1.6,0,0,1-1.88-1.3,1.67,1.67,0,0,1,1.41-1.86A1.58,1.58,0,0,1,195.61,61.06Z"/><path class="cls-4" d="M194.34,57.26c-.18.24-1.55-.55-3.33-.34s-3,1.26-3.22,1.06.06-.5.59-1a4.59,4.59,0,0,1,2.54-1.12,4.38,4.38,0,0,1,2.68.54C194.2,56.78,194.43,57.15,194.34,57.26Z"/><path class="cls-4" d="M202.36,69.78a12.05,12.05,0,0,1,2.84-.86c.46-.1.88-.24.92-.56a2.35,2.35,0,0,0-.46-1.32l-1.75-3.32c-2.45-4.74-4.27-8.65-4.08-8.75s2.33,3.66,4.77,8.4l1.7,3.35a2.63,2.63,0,0,1,.44,1.76,1.16,1.16,0,0,1-.67.76,3.31,3.31,0,0,1-.77.19A11.77,11.77,0,0,1,202.36,69.78Z"/><path class="cls-10" d="M206.48,90.77a34.55,34.55,0,0,1-18.34-2.61s5.42,8.57,18.7,5.85Z"/><path class="cls-10" d="M202.1,74.17a3.26,3.26,0,0,0-3-.86,3,3,0,0,0-1.9,1.32,1.87,1.87,0,0,0,.1,2.15,2.18,2.18,0,0,0,2.41.32,6.7,6.7,0,0,0,2.13-1.62,1.93,1.93,0,0,0,.45-.59.6.6,0,0,0-.08-.67"/><path class="cls-4" d="M197.24,71.62c.29-.05.51,1.89,2.34,3.08s3.86.73,3.9,1c0,.12-.41.43-1.28.56a4.94,4.94,0,0,1-3.25-.73,4.23,4.23,0,0,1-1.84-2.6C196.94,72.13,197.1,71.62,197.24,71.62Z"/><path class="cls-4" d="M194,50.2c-.12.5-1.93.48-4,1s-3.7,1.27-4,.86c-.15-.19.09-.68.72-1.23a7.13,7.13,0,0,1,6.12-1.4C193.62,49.62,194.05,50,194,50.2Z"/><path class="cls-4" d="M210.63,49.8c-.27.45-1.55.17-3,.32s-2.7.58-3,.19c-.15-.19,0-.62.5-1.07a4.47,4.47,0,0,1,4.9-.41C210.53,49.19,210.75,49.59,210.63,49.8Z"/><path class="cls-4" d="M174.46,35.1c-2.54.84-5.42,7.79-4.68,10.37a7.91,7.91,0,0,0,5.75,5.1,14.9,14.9,0,0,0,7.93-.52c3.62-1.1,7.45-3.6,7.71-7.38A14.74,14.74,0,0,0,205,46.48c4.86-1.26,8.46-8.69,9.83-13.52Z"/><path class="cls-5" d="M199.61,61.13a17.24,17.24,0,0,0-.32-1.77,7.33,7.33,0,0,0-2.69-3.93,7.15,7.15,0,0,0-6.75-1,7.06,7.06,0,0,0-3.3,2.48,7.11,7.11,0,0,0,0,8.39,7,7,0,0,0,3.3,2.48,7.15,7.15,0,0,0,6.75-1,7.35,7.35,0,0,0,2.69-3.92c.3-1.12.27-1.78.32-1.77a1.43,1.43,0,0,1,0,.47,5.62,5.62,0,0,1-.16,1.35,7.26,7.26,0,0,1-2.66,4.16,7.38,7.38,0,0,1-3.16,1.45,7.62,7.62,0,0,1-4-.31,7.57,7.57,0,0,1-5-7.12,7.58,7.58,0,0,1,1.48-4.5,7.55,7.55,0,0,1,7.52-2.93,7.37,7.37,0,0,1,3.16,1.44,7.24,7.24,0,0,1,2.66,4.17,5.62,5.62,0,0,1,.16,1.35A1.43,1.43,0,0,1,199.61,61.13Z"/><path class="cls-5" d="M218,57.81c-.06,0,0-.65-.33-1.77A7.35,7.35,0,0,0,215,52.12a7.13,7.13,0,0,0-3-1.32,7.23,7.23,0,0,0-3.74.33A7.06,7.06,0,0,0,205,53.62,7.05,7.05,0,0,0,205,62a7.06,7.06,0,0,0,3.29,2.49,7.23,7.23,0,0,0,3.74.33,7,7,0,0,0,3-1.32,7.35,7.35,0,0,0,2.69-3.92c.3-1.11.27-1.77.33-1.77a1.43,1.43,0,0,1,0,.47,6.19,6.19,0,0,1-.16,1.35,7.38,7.38,0,0,1-2.66,4.17,7.52,7.52,0,0,1-10.68-1.5,7.51,7.51,0,0,1,0-9,7.44,7.44,0,0,1,3.53-2.64,7.65,7.65,0,0,1,4-.3,7.48,7.48,0,0,1,3.16,1.44A7.38,7.38,0,0,1,217.89,56a6.19,6.19,0,0,1,.16,1.35A1.43,1.43,0,0,1,218,57.81Z"/><path class="cls-5" d="M198.52,57.08c-.07,0-.08-.35.17-.83a2.71,2.71,0,0,1,3.64-1.14c.48.26.66.55.62.59s-.31-.11-.76-.25a3,3,0,0,0-1.76,0,2.91,2.91,0,0,0-1.43,1C198.71,56.82,198.59,57.1,198.52,57.08Z"/><path class="cls-5" d="M184.66,62.86a8.78,8.78,0,0,1-2.82,1.23,9.26,9.26,0,0,1-3,.73,9.33,9.33,0,0,1,2.83-1.23A9.72,9.72,0,0,1,184.66,62.86Z"/><path class="cls-9" d="M312.05,85.26a2.29,2.29,0,0,0,1.26-3.06l-8,2.4a31.72,31.72,0,0,0,6.41-3.49c2.18-1.78,1.09-3.33,1.09-3.33L304.59,81l-4.65,2.74-11.65,17.79s9.1,4.45,10.71,3.17c2.84-2.26,4.39-7.3,5-9.86a34.28,34.28,0,0,0,5.71-2,5.46,5.46,0,0,0,1.71-1.93L305.09,92c.92-.27,6.8-2.28,7.27-3,.82-1.27.3-1.83.3-1.83l-8,1.24.82-.6S310,86.06,312.05,85.26Z"/><path class="cls-9" d="M282.71,103.78l-26.82,24.55c-3.32-.77-44.15-25.17-44.15-25.17l-6.45,31.4s41.78,19.21,53.28,16.87c1.87-.38,5-.62,6.9-3.1,9.2-11.82,28.71-41.07,28.71-41.07Z"/><path class="cls-9" d="M300.92,102.55l-4.83-2.33,3.49-6.34,2.74-5.79,4.25-7.89-6.48,2.43a5.09,5.09,0,0,0-1.95,1.49L287.48,98.83l-4.72,4.82,4.56,12.26,5.36-8.36,3.13-.73C298.94,106.09,300.92,102.55,300.92,102.55Z"/><path class="cls-9" d="M293.14,92.59a40.24,40.24,0,0,1,6.95-2.72,5.79,5.79,0,0,1,2.4-.31A2.17,2.17,0,0,1,304.31,91a2.26,2.26,0,0,1-1.12,2.34,8.64,8.64,0,0,1-2.6.91,4.57,4.57,0,0,0-2.41,1.28,7.35,7.35,0,0,0-1,2.38,8.38,8.38,0,0,1-6.17,5.29"/><path class="cls-10" d="M291,103.18s.43-.13,1.17-.43a8.54,8.54,0,0,0,2.78-1.81,7.72,7.72,0,0,0,1.41-1.81,11.07,11.07,0,0,0,1-2.46,4,4,0,0,1,.73-1.35,3.54,3.54,0,0,1,1.31-.92c1-.44,2.09-.54,3.06-.94a3.11,3.11,0,0,0,1.23-.86,1.67,1.67,0,0,0-1.39-2.84,7.38,7.38,0,0,0-2.57.43c-.8.24-1.55.48-2.23.71-1.35.48-2.42.92-3.16,1.23a7.44,7.44,0,0,1-1.16.46,5.77,5.77,0,0,1,1.09-.63c.71-.36,1.77-.85,3.12-1.37.67-.26,1.42-.52,2.23-.77a7.61,7.61,0,0,1,2.71-.5,2.8,2.8,0,0,1,1.47.53,2,2,0,0,1,.83,1.44,2.84,2.84,0,0,1-2,2.6c-1.06.43-2.14.53-3.05.93a3,3,0,0,0-1.16.8,3.42,3.42,0,0,0-.66,1.2,11.25,11.25,0,0,1-1.05,2.51,8.42,8.42,0,0,1-4.47,3.6,6,6,0,0,1-.9.22C291.1,103.19,291,103.2,291,103.18Z"/><path class="cls-4" d="M208.71,191.51h-55a139.7,139.7,0,0,0-13.46,20.85l78.32.32C220.16,210.16,208.71,191.51,208.71,191.51Z"/><path class="cls-19" d="M225,141.54c-1.86-24.59-8-40-8-40l-9.52-2.93h0c-1.44,6.29-11.68,8.36-17.51,5.61L183.78,101C164,98,165,99.62,160.42,102.37c-4,2.39-3.61,20.24-3.61,20.24s-9.88,46.5-9.34,54,6.29,14.95,6.29,14.95h55c5.53,0,7.11-12.51,6.73-17S225.57,149.63,225,141.54Z"/><path class="cls-4" d="M172.77,157a4.39,4.39,0,0,0,.92.78,17.31,17.31,0,0,0,7.54,3.06,16.12,16.12,0,0,0,6-.25,19.73,19.73,0,0,0,9.33-5.42,23.51,23.51,0,0,0,2.15-2.49,4.29,4.29,0,0,0,.64-1c-.08-.06-1.08,1.34-3.07,3.22a20.63,20.63,0,0,1-9.18,5.14,16.78,16.78,0,0,1-10.39-1C174.18,158,172.84,156.93,172.77,157Z"/><g class="cls-8"><path d="M198.42,153a16,16,0,0,1-5.64,10.8A13.28,13.28,0,0,1,181,166.32a11.38,11.38,0,0,1-8-8.73,33.67,33.67,0,0,0,8.76,3.06,17.23,17.23,0,0,0,16.94-8l-.45.48"/></g><path class="cls-19" d="M135.7,140.41l27.69,13s11.29-25,12.26-28.38,4-8.82.89-15.94-11.49-9.73-16.12-6.7C150.06,109.16,135.7,140.41,135.7,140.41Z"/><path class="cls-19" d="M222.77,141.73c1.29,0,16.14,7.76,16.14,7.76l8.45-28c-12.62-8.41-23-18-30.37-20l3.89,23.14Z"/><path class="cls-4" d="M135.7,140.41a2.16,2.16,0,0,1,.55.2l1.53.65,5.6,2.48,18.38,8.38,2.24,1-.35.13c3.19-6.59,6-12.48,8-16.73,1-2.08,1.74-3.78,2.31-5,.25-.55.46-1,.63-1.36a2.07,2.07,0,0,1,.24-.46,1.72,1.72,0,0,1-.15.5c-.12.32-.29.79-.54,1.4-.48,1.21-1.22,3-2.16,5.1-1.9,4.29-4.65,10.21-7.84,16.81l-.11.23-.24-.1-2.24-1-18.31-8.52-5.53-2.63-1.49-.75A1.86,1.86,0,0,1,135.7,140.41Z"/><path class="cls-4" d="M220.22,118.74a11,11,0,0,1,.58,1.72c.37,1.2.86,2.79,1.45,4.73,1.2,4,2.95,9.59,3,16.05a34.37,34.37,0,0,1-1.47,8.91c-.77,2.67-1.67,5-2.43,6.95s-1.42,3.5-1.87,4.58a14.07,14.07,0,0,1-.74,1.66,1.3,1.3,0,0,1,.12-.46l.43-1.27L221,157c.71-2,1.57-4.3,2.3-6.95a34.68,34.68,0,0,0,1.42-8.78c-.08-6.35-1.75-11.94-2.86-16-.57-2-1-3.64-1.3-4.77-.14-.57-.24-1-.31-1.32A1.61,1.61,0,0,1,220.22,118.74Z"/><path class="cls-4" d="M196.81,113.16a18.26,18.26,0,0,0-5.47-10.75c-1.43-1.43-3.15-2.87-3.43-4.89-.36-2.6,1.89-5,1.53-7.65-.46-3.26-4.53-4.67-6-7.62-1.95-4,1.46-9.11-.64-13-1.27-2.34-4.28-3.6-4.89-6.19-.39-1.68,2.81-4.13,3.55-7.77C183.14,47.11,184,40.78,176,36l-4.64-6.36c-5.21,2.53-9.58,8.25-9.67,14.22,0,2.82,1.41,5.65.18,8.2-1.72,3.54-5.71,5.72-6.92,9.47-1.73,5.37,3,11.37.95,16.61-1.22,3.09-4.45,4.86-6.47,7.49A11.43,11.43,0,0,0,150.2,100a14.42,14.42,0,0,0-5.43,16.14c.82,2.43,2.7,4.83,5.26,5,3.67.21,5.76-3.94,8.44-6.45a11.44,11.44,0,0,1,15.45.4c2.83,2.93,4,7.34,7.26,9.73s8.23,2,11.41-.6A12.6,12.6,0,0,0,196.81,113.16Z"/><path class="cls-9" d="M160.67,151.63c-5.24,8.62-8.9,13.57-8.9,13.57l47,28.65-5.48,12.72-61-25.1s-6-6.19-3.89-13.08l9.73-26.85Z"/><path class="cls-10" d="M140.33,169.58c.11.15,2.33-1.72,5.63-2.92s6.18-1.28,6.17-1.46a15.2,15.2,0,0,0-11.8,4.38Z"/><path class="cls-9" d="M235.29,202.57,223.56,197l-22.89-1.82-1.87-1.29-5.48,12.72s6,2.87,9.14,3.13l19.25-.58,10.06,1Z"/><path class="cls-1" d="M301.27,157.38l-66,.54c-2.14,0-4.18,1-4.5,3.15l-7.22,48.09h-34a2,2,0,0,0,0,4H298.13l7.42-50.77A4.33,4.33,0,0,0,301.27,157.38Z"/><path class="cls-4" d="M301.27,157.38a3.72,3.72,0,0,1,1,.1,4.35,4.35,0,0,1,2.52,1.67,4.4,4.4,0,0,1,.82,2.11,12.39,12.39,0,0,1-.24,2.71l-1,6.7-6.11,42.48,0,.18h-.18l-105.32.06H190a2.79,2.79,0,0,1-1.5-.28,2.25,2.25,0,0,1,0-3.93,2.68,2.68,0,0,1,1.49-.28h33.58l-.25.21c2.6-17.22,5-33.29,7.19-47.7a3.78,3.78,0,0,1,1.22-2.52,5,5,0,0,1,2.52-1.11,22,22,0,0,1,2.67-.09l2.59,0,9.93-.07,17.66-.11,25.13-.13h9l-.59,0-1.73,0-6.73.1-25.13.28-17.66.17-9.93.1-2.59,0a22.36,22.36,0,0,0-2.6.09,4.5,4.5,0,0,0-2.3,1,3.25,3.25,0,0,0-1.07,2.25c-2.15,14.42-4.55,30.49-7.12,47.72l0,.22H190a2.13,2.13,0,0,0-1.23.21,1.7,1.7,0,0,0-.78,2.09,1.64,1.64,0,0,0,.77.91,2.25,2.25,0,0,0,1.24.22h2.83l105.32.06-.2.18c2.65-17.86,4.8-32.38,6.3-42.46.38-2.51.71-4.75,1-6.69a11.85,11.85,0,0,0,.27-2.67,4.24,4.24,0,0,0-.76-2.06,4.33,4.33,0,0,0-2.44-1.68C301.63,157.38,301.27,157.41,301.27,157.38Z"/><circle class="cls-6" cx="265.48" cy="184.64" r="4.13"/><path class="cls-4" d="M226.24,212.68c.09,0,2.19-12.23,4.69-27.35s4.45-27.39,4.35-27.41-2.19,12.23-4.69,27.35S226.15,212.67,226.24,212.68Z"/></svg>