<svg id="Capa_2" data-name="Capa 2" xmlns="http://www.w3.org/2000/svg" xmlns:xlink="http://www.w3.org/1999/xlink" viewBox="0 0 1152.44 609.84"><defs><style>.cls-1,.cls-14{fill:#fff;}.cls-2{fill:#f5f5f5;}.cls-3{fill:#ececec;}.cls-4{fill:#e1e1e1;}.cls-5{fill:#fafafa;}.cls-6{fill:#1a2e35;}.cls-7{fill:#00cf88;}.cls-8{fill:#375a64;}.cls-9{fill:#1a7fcd;}.cls-10{opacity:0.3;}.cls-11{fill:#ff725e;}.cls-12{fill:#f59d1f;}.cls-13{fill:#ffbd00;}.cls-14{opacity:0.85;}.cls-15{fill:#00499a;}.cls-16{opacity:0.8;}.cls-17{opacity:0.4;}.cls-18,.cls-23{opacity:0.5;}.cls-19{clip-path:url(#clip-path);}.cls-20{fill:#e7e7e7;}.cls-21{fill:#f0f0f0;}.cls-22,.cls-23{fill:#008db8;}.cls-24{fill:#ffbf9d;}.cls-25{fill:#ff9a6c;}.cls-26{opacity:0.2;}</style><clipPath id="clip-path"><circle class="cls-1" cx="827.01" cy="-166.94" r="85.77"/></clipPath></defs><title>ugiland - casos de exito</title><path class="cls-2" d="M378.75,87.28,337.24,72.37,296.13,87.08c-5.25,2.48-9.85,4-9.85,8.85v24.34a92,92,0,0,0,13.54,48.44,84.31,84.31,0,0,0,37.82,33.41c16.81-5.46,29.35-20,37-32.46a92,92,0,0,0,13.54-48.44V99.33C388.2,92.36,384.5,89,378.75,87.28Z"/><path class="cls-3" d="M337.64,188a67.06,67.06,0,0,1-29.92-26.64A72.79,72.79,0,0,1,297,123V105.94c0-3.86,2.33-7.49,7-9.65l33.28-12.44V72.37L296.13,87.08c-4.31,1.88-9.85,4-9.85,8.85v24.34a92,92,0,0,0,13.54,48.44,84.31,84.31,0,0,0,37.82,33.41Z"/><path class="cls-4" d="M337.64,202.12a50.62,50.62,0,0,0,8.16-3.5A73.37,73.37,0,0,0,363.06,185a93.57,93.57,0,0,0,12-16.13A88.59,88.59,0,0,0,388.2,120l0-20.09c0-10-5.15-10.75-9.47-12.63L337.24,72.37V83.85l33.66,12.64c4.63,2.16,7,5.79,7,9.66v17.07a72.8,72.8,0,0,1-10.72,38.33c-6.06,9.84-15.05,20-29.52,26.44Z"/><path class="cls-4" d="M348.25,121.92l.05-3.28a10.78,10.78,0,0,0-21.56,0l0,3.35a6,6,0,0,0-5.15,6V147.3a6,6,0,0,0,6,6H347.7a6,6,0,0,0,6-6V127.93A6,6,0,0,0,348.25,121.92Zm-7.86,20.56h-5.26l.82-3.8a3.21,3.21,0,1,1,3.48-.06C339.8,140.09,340.39,142.48,340.39,142.48Zm5.54-20.58H329l.05-3.26a8.46,8.46,0,0,1,16.91,0Z"/><path class="cls-1" d="M303.73,121.69a13.24,13.24,0,0,1-.62-3.37,58.61,58.61,0,0,1-.34-8.27c.05-1.61.16-3.15.3-4.55a9.84,9.84,0,0,1,.93-3.67,4.27,4.27,0,0,1,1.82-1.83c.56-.26.91-.25.92-.21a4.7,4.7,0,0,0-2.28,2.27,10.25,10.25,0,0,0-.72,3.51c-.11,1.38-.2,2.9-.24,4.5-.1,3.2,0,6.1.12,8.2A20.22,20.22,0,0,1,303.73,121.69Z"/><path class="cls-1" d="M304.34,132.28c-.2,0-.38-1-.4-2.23s.11-2.24.32-2.25.38,1,.4,2.24S304.54,132.28,304.34,132.28Z"/><rect class="cls-2" x="219.27" y="216.71" width="124.32" height="380.83"/><rect class="cls-5" x="343.2" y="216.71" width="98.25" height="380.83"/><rect class="cls-4" x="225.94" y="277.66" width="105.46" height="29.69"/><rect class="cls-2" x="228.88" y="281.39" width="5.91" height="22.72"/><path class="cls-5" d="M241.75,286.17a1.88,1.88,0,1,1-1.88-1.88A1.88,1.88,0,0,1,241.75,286.17Z"/><circle class="cls-5" cx="239.87" cy="294.2" r="1.88"/><rect class="cls-2" x="249.25" y="284.29" width="5.8" height="17.45"/><rect class="cls-2" x="257.63" y="284.29" width="5.8" height="17.45"/><rect class="cls-2" x="266.01" y="284.29" width="5.8" height="17.45"/><rect class="cls-2" x="274.4" y="284.29" width="5.8" height="17.45"/><rect class="cls-2" x="282.78" y="284.29" width="5.8" height="17.45"/><rect class="cls-2" x="291.16" y="284.29" width="5.8" height="17.45"/><rect class="cls-2" x="299.54" y="284.29" width="5.8" height="17.45"/><rect class="cls-2" x="307.92" y="284.29" width="5.8" height="17.45"/><rect class="cls-2" x="316.31" y="284.29" width="5.8" height="17.45"/><rect class="cls-2" x="324.69" y="284.29" width="5.8" height="17.45"/><rect class="cls-4" x="225.94" y="325.21" width="105.46" height="29.69"/><rect class="cls-2" x="228.88" y="328.95" width="5.91" height="22.72"/><path class="cls-5" d="M241.75,333.73a1.88,1.88,0,1,1-1.88-1.88A1.88,1.88,0,0,1,241.75,333.73Z"/><path class="cls-5" d="M241.75,341.75a1.88,1.88,0,1,1-1.88-1.87A1.88,1.88,0,0,1,241.75,341.75Z"/><rect class="cls-2" x="249.25" y="331.85" width="5.8" height="17.45"/><rect class="cls-2" x="257.63" y="331.85" width="5.8" height="17.45"/><rect class="cls-2" x="266.01" y="331.85" width="5.8" height="17.45"/><rect class="cls-2" x="274.4" y="331.85" width="5.8" height="17.45"/><rect class="cls-2" x="282.78" y="331.85" width="5.8" height="17.45"/><rect class="cls-2" x="291.16" y="331.85" width="5.8" height="17.45"/><rect class="cls-2" x="299.54" y="331.85" width="5.8" height="17.45"/><rect class="cls-2" x="307.92" y="331.85" width="5.8" height="17.45"/><rect class="cls-2" x="316.31" y="331.85" width="5.8" height="17.45"/><rect class="cls-2" x="324.69" y="331.85" width="5.8" height="17.45"/><rect class="cls-4" x="225.94" y="372.77" width="105.46" height="29.69"/><rect class="cls-2" x="228.88" y="376.5" width="5.91" height="22.72"/><path class="cls-5" d="M241.75,381.28a1.88,1.88,0,1,1-1.88-1.88A1.88,1.88,0,0,1,241.75,381.28Z"/><circle class="cls-5" cx="239.87" cy="389.31" r="1.88"/><rect class="cls-2" x="249.25" y="379.4" width="5.8" height="17.45"/><rect class="cls-2" x="257.63" y="379.4" width="5.8" height="17.45"/><rect class="cls-2" x="266.01" y="379.4" width="5.8" height="17.45"/><rect class="cls-2" x="274.4" y="379.4" width="5.8" height="17.45"/><rect class="cls-2" x="282.78" y="379.4" width="5.8" height="17.45"/><rect class="cls-2" x="291.16" y="379.4" width="5.8" height="17.45"/><rect class="cls-2" x="299.54" y="379.4" width="5.8" height="17.45"/><rect class="cls-2" x="307.92" y="379.4" width="5.8" height="17.45"/><rect class="cls-2" x="316.31" y="379.4" width="5.8" height="17.45"/><rect class="cls-2" x="324.69" y="379.4" width="5.8" height="17.45"/><rect class="cls-4" x="225.94" y="420.32" width="105.46" height="29.69"/><rect class="cls-2" x="228.88" y="424.06" width="5.91" height="22.72"/><path class="cls-5" d="M241.75,428.84a1.88,1.88,0,1,1-1.88-1.88A1.88,1.88,0,0,1,241.75,428.84Z"/><circle class="cls-5" cx="239.87" cy="436.87" r="1.88"/><rect class="cls-2" x="249.25" y="426.96" width="5.8" height="17.45"/><rect class="cls-2" x="257.63" y="426.96" width="5.8" height="17.45"/><rect class="cls-2" x="266.01" y="426.96" width="5.8" height="17.45"/><rect class="cls-2" x="274.4" y="426.96" width="5.8" height="17.45"/><rect class="cls-2" x="282.78" y="426.96" width="5.8" height="17.45"/><rect class="cls-2" x="291.16" y="426.96" width="5.8" height="17.45"/><rect class="cls-2" x="299.54" y="426.96" width="5.8" height="17.45"/><rect class="cls-2" x="307.92" y="426.96" width="5.8" height="17.45"/><rect class="cls-2" x="316.31" y="426.96" width="5.8" height="17.45"/><rect class="cls-2" x="324.69" y="426.96" width="5.8" height="17.45"/><rect class="cls-4" x="225.94" y="467.88" width="105.46" height="29.69"/><rect class="cls-2" x="228.88" y="471.61" width="5.91" height="22.72"/><path class="cls-5" d="M241.75,476.39a1.88,1.88,0,1,1-1.88-1.88A1.88,1.88,0,0,1,241.75,476.39Z"/><circle class="cls-5" cx="239.87" cy="484.42" r="1.88"/><rect class="cls-2" x="249.25" y="474.51" width="5.8" height="17.45"/><rect class="cls-2" x="257.63" y="474.51" width="5.8" height="17.45"/><rect class="cls-2" x="266.01" y="474.51" width="5.8" height="17.45"/><rect class="cls-2" x="274.4" y="474.51" width="5.8" height="17.45"/><rect class="cls-2" x="282.78" y="474.51" width="5.8" height="17.45"/><rect class="cls-2" x="291.16" y="474.51" width="5.8" height="17.45"/><rect class="cls-2" x="299.54" y="474.51" width="5.8" height="17.45"/><rect class="cls-2" x="307.92" y="474.51" width="5.8" height="17.45"/><rect class="cls-2" x="316.31" y="474.51" width="5.8" height="17.45"/><rect class="cls-2" x="324.69" y="474.51" width="5.8" height="17.45"/><rect class="cls-4" x="225.94" y="515.43" width="105.46" height="29.69"/><rect class="cls-2" x="228.88" y="519.17" width="5.91" height="22.72"/><path class="cls-5" d="M241.75,524a1.88,1.88,0,1,1-1.88-1.88A1.88,1.88,0,0,1,241.75,524Z"/><circle class="cls-5" cx="239.87" cy="531.98" r="1.88"/><rect class="cls-2" x="249.25" y="522.07" width="5.8" height="17.45"/><rect class="cls-2" x="257.63" y="522.07" width="5.8" height="17.45"/><rect class="cls-2" x="266.01" y="522.07" width="5.8" height="17.45"/><rect class="cls-2" x="274.4" y="522.07" width="5.8" height="17.45"/><rect class="cls-2" x="282.78" y="522.07" width="5.8" height="17.45"/><rect class="cls-2" x="291.16" y="522.07" width="5.8" height="17.45"/><rect class="cls-2" x="299.54" y="522.07" width="5.8" height="17.45"/><rect class="cls-2" x="307.92" y="522.07" width="5.8" height="17.45"/><rect class="cls-2" x="316.31" y="522.07" width="5.8" height="17.45"/><rect class="cls-2" x="324.69" y="522.07" width="5.8" height="17.45"/><rect class="cls-4" x="225.94" y="562.99" width="105.46" height="29.69"/><rect class="cls-2" x="228.88" y="566.72" width="5.91" height="22.72"/><path class="cls-5" d="M241.75,571.5a1.88,1.88,0,1,1-1.88-1.87A1.88,1.88,0,0,1,241.75,571.5Z"/><path class="cls-5" d="M241.75,579.53a1.88,1.88,0,1,1-1.88-1.88A1.88,1.88,0,0,1,241.75,579.53Z"/><rect class="cls-2" x="249.25" y="569.63" width="5.8" height="17.45"/><rect class="cls-2" x="257.63" y="569.63" width="5.8" height="17.45"/><rect class="cls-2" x="266.01" y="569.63" width="5.8" height="17.45"/><rect class="cls-2" x="274.4" y="569.63" width="5.8" height="17.45"/><rect class="cls-2" x="282.78" y="569.63" width="5.8" height="17.45"/><rect class="cls-2" x="291.16" y="569.63" width="5.8" height="17.45"/><rect class="cls-2" x="299.54" y="569.63" width="5.8" height="17.45"/><rect class="cls-2" x="307.92" y="569.63" width="5.8" height="17.45"/><rect class="cls-2" x="316.31" y="569.63" width="5.8" height="17.45"/><rect class="cls-2" x="324.69" y="569.63" width="5.8" height="17.45"/><path class="cls-4" d="M291.16,277.66a3.83,3.83,0,0,1-.12-.92c0-.6-.08-1.49-.11-2.64s-.05-2.54-.13-4.16a26.69,26.69,0,0,0-.73-5.41,19.41,19.41,0,0,0-2.82-5.93,13.13,13.13,0,0,0-5.76-4.63,27.91,27.91,0,0,0-8.19-1.66l-9.08-.78c-12.45-1.08-23.73-1.78-31.91-1.94-4.09-.09-7.41-.07-9.69-.06l-2.64,0a3.86,3.86,0,0,1-.92,0,4.1,4.1,0,0,1,.91-.11l2.64-.17c2.29-.09,5.6-.2,9.7-.18,8.2,0,19.52.63,32,1.71l9.08.81a28.35,28.35,0,0,1,8.39,1.75,13.7,13.7,0,0,1,6,4.92,19.51,19.51,0,0,1,2.82,6.15,25.68,25.68,0,0,1,.63,5.53c0,1.63,0,3,0,4.18s0,1.95,0,2.64A4.69,4.69,0,0,1,291.16,277.66Z"/><path class="cls-4" d="M259.17,277.66a3.49,3.49,0,0,1-.07-.87c0-.65,0-1.47,0-2.48s0-2.39-.13-3.91a11.87,11.87,0,0,0-1.3-4.87,9.27,9.27,0,0,0-4.75-3.65,13.12,13.12,0,0,0-6.93-.7,11.78,11.78,0,0,0-3.57,1.21,6.85,6.85,0,0,0-2.77,2.62,3.74,3.74,0,0,0,0,3.68,5,5,0,0,0,3.13,2.36,4,4,0,0,0,3.67-1.06,5.42,5.42,0,0,0,1.64-3.49,5.31,5.31,0,0,0-1.09-3.58,7.85,7.85,0,0,0-2.78-2.45,10.22,10.22,0,0,0-3.47-.9c-1.19-.17-2.35-.33-3.47-.46-2.24-.25-4.34-.4-6.26-.48-3.84-.15-7-.1-9.11-.1H219.4a3.28,3.28,0,0,1-.87-.06,4,4,0,0,1,.87-.09l2.47-.14c2.16-.08,5.28-.22,9.14-.14,1.93.05,4.05.16,6.31.39,1.13.12,2.3.26,3.5.43.6.09,1.19.17,1.83.28a7.34,7.34,0,0,1,1.86.65,8.54,8.54,0,0,1,3.05,2.66,6,6,0,0,1,1.25,4.05,6.18,6.18,0,0,1-1.87,4,4.74,4.74,0,0,1-4.35,1.25,5.64,5.64,0,0,1-3.63-2.73,4.48,4.48,0,0,1,0-4.4,7.54,7.54,0,0,1,3.08-2.91,12.58,12.58,0,0,1,3.81-1.27,13.64,13.64,0,0,1,7.27.81,9.79,9.79,0,0,1,5,4,12.16,12.16,0,0,1,1.26,5.11c.08,1.55,0,2.87,0,3.94s-.08,1.83-.11,2.48A4.6,4.6,0,0,1,259.17,277.66Z"/><path class="cls-4" d="M299.77,277.66a5,5,0,0,1-.22-1c-.12-.65-.3-1.6-.57-2.82a54.7,54.7,0,0,0-3.12-10.05,29.3,29.3,0,0,0-9.17-12.3,17.26,17.26,0,0,0-8.39-3.19,85.33,85.33,0,0,0-9.89-.53c-13.62-.26-26-.21-34.91-.57-4.47-.15-8.08-.37-10.58-.55l-2.87-.25a4.17,4.17,0,0,1-1-.14,5.48,5.48,0,0,1,1,0l2.88.1c2.5.09,6.11.23,10.57.31,8.93.22,21.27.09,34.92.35a83.57,83.57,0,0,1,10,.55,17.85,17.85,0,0,1,8.71,3.37,26.59,26.59,0,0,1,5.8,6.15,35.42,35.42,0,0,1,3.44,6.5,49.65,49.65,0,0,1,2.91,10.2c.22,1.24.36,2.2.43,2.85A5.84,5.84,0,0,1,299.77,277.66Z"/><rect class="cls-4" x="227.39" y="221.44" width="102.56" height="14.89"/><rect class="cls-2" x="249.95" y="228.89" width="55.84" height="7.44"/><path class="cls-2" d="M877,164.63,948,153.78c6,39-21.22,75.95-60.2,81.91s-76-21.22-81.91-60.2,21.22-76,60.2-81.91a71.7,71.7,0,0,1,18.74-.39Z"/><path class="cls-4" d="M900,93.42l-8.63,55.08,54.07-10.16S937.53,107.47,900,93.42Z"/><rect class="cls-1" x="933.96" y="308.75" width="120.37" height="137.37"/><path class="cls-6" d="M1054.33,446.12s0-.22,0-.65,0-1.07,0-1.91c0-1.69,0-4.17,0-7.41,0-6.49,0-16-.06-28,0-24.09-.06-58.41-.1-99.37l.2.2L934,309h0l.23-.22c0,50.65,0,97.88,0,137.37l-.19-.19,87.31.1,24.41.05,6.43,0,2.22,0s-.73,0-2.18,0l-6.4,0-24.36,0-87.43.1h-.19v-.19c0-39.49,0-86.72,0-137.37v-.22H934l120.36,0h.2v.2c0,41-.08,75.38-.1,99.49,0,12,0,21.51,0,28,0,3.22,0,5.7,0,7.37,0,.83,0,1.46,0,1.89S1054.33,446.12,1054.33,446.12Z"/><path class="cls-7" d="M1044,378.89c0,.09-1.33-.66-3.87-1.47a24.9,24.9,0,0,0-11.1-.82,24.31,24.31,0,0,0-7.32,2.35,34.71,34.71,0,0,0-7.2,5.18c-2.36,2.08-4.7,4.45-7.4,6.63a25.65,25.65,0,0,1-9.46,5.12,14.11,14.11,0,0,1-5.52.33,17.89,17.89,0,0,1-5.11-1.58,88.54,88.54,0,0,1-8.57-5.09,26.43,26.43,0,0,0-8-3.61,23.87,23.87,0,0,0-7.67-.59,24.68,24.68,0,0,0-10.58,3.44c-2.27,1.39-3.34,2.43-3.4,2.36a4.76,4.76,0,0,1,.77-.75,17.57,17.57,0,0,1,2.46-1.88,24.2,24.2,0,0,1,10.7-3.75,24.46,24.46,0,0,1,7.88.5,27.52,27.52,0,0,1,8.29,3.63,89.45,89.45,0,0,0,8.51,5,14.54,14.54,0,0,0,10.09,1.18,24.86,24.86,0,0,0,9.15-4.95c2.66-2.13,5-4.48,7.41-6.57a35,35,0,0,1,7.39-5.22,24.9,24.9,0,0,1,7.55-2.32,24.24,24.24,0,0,1,11.28,1.1,20.25,20.25,0,0,1,2.85,1.22A5.37,5.37,0,0,1,1044,378.89Z"/><rect class="cls-7" x="967.09" y="397.34" width="10.23" height="27.68"/><rect class="cls-7" x="1010.52" y="397.34" width="10.23" height="27.68"/><rect class="cls-7" x="1024.99" y="381.09" width="10.23" height="43.93"/><rect class="cls-7" x="953.85" y="416.31" width="10.23" height="9.31"/><rect class="cls-7" x="981.57" y="409.84" width="10.23" height="15.18"/><rect class="cls-7" x="996.04" y="406.36" width="10.23" height="18.66"/><path class="cls-6" d="M977.74,428.28c0,.23-2.48.41-5.53.41s-5.53-.18-5.53-.41,2.48-.41,5.53-.41S977.74,428.05,977.74,428.28Z"/><path class="cls-6" d="M965,428.28c0,.23-2.48.41-5.53.41s-5.53-.18-5.53-.41,2.47-.41,5.53-.41S965,428.05,965,428.28Z"/><path class="cls-6" d="M1037.24,428.28c0,.23-2.8.41-6.25.41s-6.25-.18-6.25-.41,2.8-.41,6.25-.41S1037.24,428.05,1037.24,428.28Z"/><path class="cls-6" d="M1022,428.28c0,.23-2.8.41-6.25.41s-6.25-.18-6.25-.41,2.8-.41,6.25-.41S1022,428.05,1022,428.28Z"/><path class="cls-6" d="M1006.28,428.28c0,.23-2.48.41-5.53.41s-5.53-.18-5.53-.41,2.47-.41,5.53-.41S1006.28,428.06,1006.28,428.28Z"/><path class="cls-6" d="M991.32,428.28c0,.23-2.48.41-5.53.41s-5.53-.18-5.53-.41,2.48-.41,5.53-.41S991.32,428.06,991.32,428.28Z"/><rect class="cls-4" x="953.61" y="328.78" width="83.63" height="34.73"/><path class="cls-6" d="M971,339.75a3.9,3.9,0,1,1-3.89-3.9A3.89,3.89,0,0,1,971,339.75Z"/><rect class="cls-6" x="974.88" y="337.06" width="27.17" height="1.51"/><rect class="cls-1" x="974.88" y="340.49" width="52.85" height="1.51"/><path class="cls-7" d="M971,351.74a3.9,3.9,0,1,1-3.89-3.9A3.9,3.9,0,0,1,971,351.74Z"/><rect class="cls-7" x="974.88" y="349.05" width="13.87" height="1.51"/><rect class="cls-1" x="974.88" y="352.47" width="52.85" height="1.51"/><path class="cls-6" d="M835.46,281.47a1.65,1.65,0,0,1,.49,0l1.44,0,5.55-.07,20.41-.11,67.35-.11,60.18.08h.36v.29c-.06,8.58-.11,15.59-.15,20.51,0,2.4-.07,4.28-.1,5.62,0,.61,0,1.09-.05,1.47a.25.25,0,1,1-.1,0c0-.38,0-.86-.05-1.47,0-1.34-.06-3.22-.1-5.62,0-4.92-.09-11.93-.15-20.51l.35.28-60.18.08-67.35-.11-20.41-.11-5.55-.07-1.44,0A3,3,0,0,1,835.46,281.47Z"/><path class="cls-6" d="M994.57,309.57A3.62,3.62,0,1,1,991,306,3.62,3.62,0,0,1,994.57,309.57Z"/><path class="cls-8" d="M829.12,164.63h-489a15.26,15.26,0,0,0-15.26,15.26v345.4a15.27,15.27,0,0,0,15.26,15.27H527.79s11.94,36.91-25.07,56H678.21s-41.78-14.33-31-56h182a15.27,15.27,0,0,0,15.27-15.27V179.89A15.27,15.27,0,0,0,829.12,164.63Z"/><path class="cls-6" d="M591.15,504.23c6.65,9.51-3.76,19.92-13.27,13.27a3.55,3.55,0,0,1-.82-.82c-6.63-9.51,3.77-19.9,13.27-13.27A3.55,3.55,0,0,1,591.15,504.23Z"/><path class="cls-1" d="M343,171h483.3a9.7,9.7,0,0,1,9.7,9.7V477.37a0,0,0,0,1,0,0H333.27a0,0,0,0,1,0,0V180.66A9.7,9.7,0,0,1,343,171Z"/><path class="cls-3" d="M342.42,171h486a7.52,7.52,0,0,1,7.52,7.52v17.94a0,0,0,0,1,0,0H333.27a0,0,0,0,1,0,0V180.11A9.15,9.15,0,0,1,342.42,171Z"/><path class="cls-4" d="M352.81,184.22a3.53,3.53,0,1,1-3.53-3.53A3.53,3.53,0,0,1,352.81,184.22Z"/><path class="cls-4" d="M363.34,184.22a3.54,3.54,0,1,1-3.54-3.53A3.54,3.54,0,0,1,363.34,184.22Z"/><path class="cls-4" d="M373.35,184.22a3.54,3.54,0,1,1-3.53-3.53A3.53,3.53,0,0,1,373.35,184.22Z"/><path class="cls-6" d="M741.69,540.61c0,.16-69.58.29-155.4.29s-155.42-.13-155.42-.29,69.57-.3,155.42-.3S741.69,540.44,741.69,540.61Z"/><polygon class="cls-2" points="495.22 369.98 355.04 370.38 355.31 466.63 471.53 466.3 487.29 466.25 495.5 466.23 495.22 369.98"/><path class="cls-6" d="M365.83,456.31c-.17,0-.36-16.32-.42-36.46s0-36.47.21-36.47.35,16.32.41,36.47S366,456.31,365.83,456.31Z"/><path class="cls-3" d="M487.45,445.92c0,.17-27.34.38-61.06.48s-61.06,0-61.06-.13,27.33-.39,61.06-.48S487.45,445.75,487.45,445.92Z"/><path class="cls-3" d="M487.42,435.22c0,.17-27.34.38-61.06.48s-61.06,0-61.06-.13,27.33-.39,61.06-.48S487.42,435.05,487.42,435.22Z"/><path class="cls-3" d="M487.39,424.52c0,.17-27.34.38-61.06.48s-61.06,0-61.06-.13,27.33-.39,61.06-.48S487.39,424.35,487.39,424.52Z"/><path class="cls-3" d="M487.36,413.82c0,.17-27.34.38-61.06.48s-61.06,0-61.06-.13,27.33-.39,61.06-.48S487.36,413.65,487.36,413.82Z"/><path class="cls-3" d="M487.33,403.12c0,.17-27.34.38-61.06.48s-61.06,0-61.07-.13,27.34-.39,61.07-.48S487.33,403,487.33,403.12Z"/><path class="cls-3" d="M487.3,392.42c0,.17-27.34.38-61.06.48s-61.07,0-61.07-.13,27.34-.39,61.07-.48S487.3,392.25,487.3,392.42Z"/><path class="cls-3" d="M487.27,381.72c0,.17-27.34.38-61.06.48s-61.07,0-61.07-.13,27.34-.39,61.07-.48S487.27,381.55,487.27,381.72Z"/><rect class="cls-9" x="373.6" y="439.6" width="8.76" height="16.67" transform="translate(-1.29 1.09) rotate(-0.16)"/><rect class="cls-9" x="437.2" y="439.42" width="8.76" height="16.67" transform="translate(-1.28 1.27) rotate(-0.16)"/><rect class="cls-9" x="390.75" y="427.29" width="8.76" height="28.94" transform="translate(-1.28 1.15) rotate(-0.17)"/><rect class="cls-9" x="422.83" y="419.67" width="8.76" height="36.47" transform="matrix(1, 0, 0, 1, -1.26, 1.23)"/><rect class="cls-9" x="406.96" y="397.56" width="8.76" height="58.62" transform="translate(-1.23 1.19) rotate(-0.17)"/><rect class="cls-9" x="454.12" y="408.27" width="8.76" height="47.78" transform="translate(-1.24 1.32) rotate(-0.16)"/><path class="cls-6" d="M473.38,456c0,.17-24,.38-53.67.46s-53.67,0-53.67-.15,24-.37,53.67-.46S473.38,455.83,473.38,456Z"/><polygon class="cls-2" points="353.76 219.23 353.76 360.58 580.67 360.58 600.58 360.58 659.52 360.58 659.52 219.23 353.76 219.23"/><path class="cls-6" d="M375.27,316.87v4.46h-.46v-4.05h-1.05v-.41Z"/><path class="cls-6" d="M376.34,319.1c0-1.42.75-2.27,1.78-2.27s1.79.85,1.79,2.27-.76,2.27-1.79,2.27S376.34,320.52,376.34,319.1Zm3.09,0c0-1.19-.53-1.85-1.31-1.85s-1.31.66-1.31,1.85.53,1.85,1.31,1.85S379.43,320.29,379.43,319.1Z"/><path class="cls-6" d="M377.08,293.18v.41H374v-.33l1.86-1.82c.5-.49.6-.79.6-1.1,0-.52-.37-.83-1.05-.83a1.52,1.52,0,0,0-1.22.49l-.32-.28a2,2,0,0,1,1.58-.64c.9,0,1.48.46,1.48,1.21a1.83,1.83,0,0,1-.73,1.4l-1.52,1.49Z"/><path class="cls-6" d="M377.64,291.35c0-1.42.74-2.27,1.78-2.27s1.78.85,1.78,2.27-.75,2.27-1.78,2.27S377.64,292.78,377.64,291.35Zm3.09,0c0-1.19-.54-1.84-1.31-1.84s-1.32.65-1.32,1.84.54,1.85,1.32,1.85S380.73,292.55,380.73,291.35Z"/><path class="cls-6" d="M377,264.55c0,.75-.55,1.32-1.62,1.32a2.33,2.33,0,0,1-1.61-.57l.22-.36a2,2,0,0,0,1.39.51c.74,0,1.15-.34,1.15-.9s-.38-.88-1.21-.88H375v-.34l1.24-1.55H374v-.41h2.87v.33l-1.27,1.59C376.51,263.34,377,263.84,377,264.55Z"/><path class="cls-6" d="M377.64,263.61c0-1.43.74-2.27,1.78-2.27s1.78.84,1.78,2.27-.75,2.26-1.78,2.26S377.64,265,377.64,263.61Zm3.09,0c0-1.2-.54-1.85-1.31-1.85s-1.32.65-1.32,1.85.54,1.84,1.32,1.84S380.73,264.8,380.73,263.61Z"/><path class="cls-6" d="M395,333.74c0-1.42.75-2.27,1.78-2.27s1.79.85,1.79,2.27-.76,2.27-1.79,2.27S395,335.16,395,333.74Zm3.09,0c0-1.19-.53-1.85-1.31-1.85s-1.31.66-1.31,1.85.53,1.85,1.31,1.85S398.06,334.93,398.06,333.74Z"/><path class="cls-6" d="M428,331.51V336h-.47v-4.05h-1.05v-.41Z"/><path class="cls-6" d="M462.82,335.57v.4h-3.13v-.32l1.86-1.82c.5-.49.6-.79.6-1.1,0-.52-.37-.84-1-.84a1.53,1.53,0,0,0-1.22.5l-.32-.28a2,2,0,0,1,1.58-.64c.9,0,1.48.46,1.48,1.21a1.82,1.82,0,0,1-.74,1.39l-1.51,1.5Z"/><path class="cls-6" d="M495.73,334.69c0,.75-.54,1.32-1.62,1.32a2.3,2.3,0,0,1-1.6-.57l.22-.36a2,2,0,0,0,1.38.51c.74,0,1.15-.34,1.15-.9s-.38-.88-1.21-.88h-.31v-.34l1.23-1.55h-2.28v-.41h2.87v.33l-1.26,1.58C495.25,333.47,495.73,334,495.73,334.69Z"/><path class="cls-6" d="M529.58,334.8h-.89V336h-.46V334.8h-2.52v-.33l2.36-3h.52l-2.29,2.88h1.94v-1h.45v1h.89Z"/><path class="cls-6" d="M561.82,334.66c0,.76-.53,1.35-1.62,1.35a2.32,2.32,0,0,1-1.6-.57l.22-.36a2,2,0,0,0,1.38.51c.75,0,1.16-.37,1.16-.91s-.36-.93-1.5-.93h-1l.23-2.24h2.45v.41h-2l-.16,1.42H560C561.31,333.34,561.82,333.87,561.82,334.66Z"/><path class="cls-6" d="M595.15,334.64a1.38,1.38,0,0,1-1.52,1.37c-1.19,0-1.83-.82-1.83-2.23s.83-2.31,2-2.31a2,2,0,0,1,1.06.25l-.19.37a1.49,1.49,0,0,0-.86-.22c-1,0-1.59.62-1.59,1.83,0,.11,0,.23,0,.37a1.45,1.45,0,0,1,1.37-.77A1.35,1.35,0,0,1,595.15,334.64Zm-.45,0c0-.58-.43-1-1.12-1a1,1,0,0,0-1.15,1c0,.49.41.95,1.18.95A1,1,0,0,0,594.7,334.65Z"/><path class="cls-6" d="M628,331.51v.33L626.09,336h-.5l1.83-4.05h-2.29v.83h-.45v-1.24Z"/><path class="cls-6" d="M628.19,319.32c0,.24-51.65.43-115.36.43s-115.37-.19-115.37-.43,51.65-.44,115.37-.44S628.19,319.08,628.19,319.32Z"/><path class="cls-6" d="M628.19,291.43c0,.24-51.65.43-115.36.43s-115.37-.19-115.37-.43,51.65-.44,115.37-.44S628.19,291.19,628.19,291.43Z"/><path class="cls-6" d="M628.19,263.53c0,.24-51.65.44-115.36.44s-115.37-.2-115.37-.44,51.65-.43,115.37-.43S628.19,263.3,628.19,263.53Z"/><path class="cls-9" d="M397.46,318.91a1.48,1.48,0,1,1-1.48-1.48A1.48,1.48,0,0,1,397.46,318.91Z"/><path class="cls-9" d="M430.64,318.91a1.49,1.49,0,1,1-1.49-1.48A1.49,1.49,0,0,1,430.64,318.91Z"/><path class="cls-9" d="M463.81,318.91a1.48,1.48,0,1,1-1.48-1.48A1.48,1.48,0,0,1,463.81,318.91Z"/><path class="cls-9" d="M497,318.91a1.48,1.48,0,1,1-1.48-1.48A1.48,1.48,0,0,1,497,318.91Z"/><path class="cls-9" d="M530.16,318.91a1.49,1.49,0,1,1-1.49-1.48A1.49,1.49,0,0,1,530.16,318.91Z"/><path class="cls-9" d="M596.5,318.91a1.48,1.48,0,1,1-1.48-1.48A1.48,1.48,0,0,1,596.5,318.91Z"/><path class="cls-9" d="M563.33,318.91a1.49,1.49,0,1,1-1.48-1.48A1.48,1.48,0,0,1,563.33,318.91Z"/><path class="cls-9" d="M629.67,318.91a1.48,1.48,0,1,1-1.48-1.48A1.48,1.48,0,0,1,629.67,318.91Z"/><path class="cls-4" d="M412.58,319.32a1,1,0,1,1-1-1A1,1,0,0,1,412.58,319.32Z"/><path class="cls-4" d="M445.88,319.32a1,1,0,1,1-1-1A1,1,0,0,1,445.88,319.32Z"/><path class="cls-4" d="M479.18,319.32a1,1,0,1,1-1-1A1,1,0,0,1,479.18,319.32Z"/><path class="cls-4" d="M512.47,319.32a1,1,0,1,1-1-1A1,1,0,0,1,512.47,319.32Z"/><path class="cls-4" d="M545.77,319.32a1,1,0,1,1-1-1A1,1,0,0,1,545.77,319.32Z"/><path class="cls-4" d="M579.07,319.32a1,1,0,1,1-1-1A1,1,0,0,1,579.07,319.32Z"/><path class="cls-4" d="M612.37,319.32a1,1,0,1,1-1-1A1,1,0,0,1,612.37,319.32Z"/><path class="cls-9" d="M432.79,307a3.64,3.64,0,1,1-3.64-3.64A3.64,3.64,0,0,1,432.79,307Z"/><path class="cls-9" d="M461.73,289.91a3.64,3.64,0,1,1-3.63-3.64A3.63,3.63,0,0,1,461.73,289.91Z"/><path class="cls-9" d="M497.65,291.43a3.64,3.64,0,1,1-3.63-3.64A3.63,3.63,0,0,1,497.65,291.43Z"/><path class="cls-9" d="M532.72,260.38a3.63,3.63,0,1,1-3.63-3.63A3.62,3.62,0,0,1,532.72,260.38Z"/><path class="cls-9" d="M565.48,280.12a3.64,3.64,0,1,1-3.63-3.63A3.64,3.64,0,0,1,565.48,280.12Z"/><path class="cls-9" d="M598.65,285.38a3.63,3.63,0,1,1-3.63-3.63A3.63,3.63,0,0,1,598.65,285.38Z"/><path class="cls-9" d="M629.67,307a6.08,6.08,0,0,1-.85,0,17.32,17.32,0,0,1-2.48-.34,18.71,18.71,0,0,1-8.63-4.09,18,18,0,0,1-4.23-5.52,41.27,41.27,0,0,0-4.44-6.87c-1.88-2.21-4.29-4.47-7.5-5.23a9.52,9.52,0,0,0-5,.17,13.45,13.45,0,0,0-4.61,2.61c-2.82,2.36-4.9,5.72-7.65,8.76a15.09,15.09,0,0,1-5,3.88,10.11,10.11,0,0,1-6.55.54,8.2,8.2,0,0,1-5-4.58,31.72,31.72,0,0,1-2.15-6.63,38.73,38.73,0,0,0-2-6.72,5.27,5.27,0,0,0-2.12-2.54,6.88,6.88,0,0,0-3.36-.65,56.11,56.11,0,0,0-7.29,1.28,20.36,20.36,0,0,1-3.85.44,8.62,8.62,0,0,1-3.91-.76,7.88,7.88,0,0,1-3.1-2.6,19.07,19.07,0,0,1-1.9-3.53c-1.06-2.45-1.76-5-2.71-7.5a18.94,18.94,0,0,0-1.75-3.52,6.43,6.43,0,0,0-2.88-2.39c-.31-.09-.6-.2-.91-.28l-1-.08a3.38,3.38,0,0,0-1.77.36,7.39,7.39,0,0,0-2.66,2.77,34.34,34.34,0,0,0-3.08,7.63c-.79,2.67-1.46,5.41-2.1,8.18-1.06,4.57-2,9.13-3.18,13.6a67.89,67.89,0,0,1-2,6.59,17.16,17.16,0,0,1-3.45,6,4.78,4.78,0,0,1-3.27,1.45,6.66,6.66,0,0,1-3.36-1,16,16,0,0,1-4.71-4.77,58.38,58.38,0,0,1-5.69-11.55c-1.59-3.83-3.38-7.62-6.35-10.22a11.9,11.9,0,0,0-10.67-2.6,18,18,0,0,0-5.07,2.23,34.7,34.7,0,0,0-4.43,3.2,60.4,60.4,0,0,0-7.4,7.44v0h0a80,80,0,0,1-11,9.1,53.05,53.05,0,0,1-11.22,6.08,24.56,24.56,0,0,1-11,1.83,38.68,38.68,0,0,1-9.16-2.21,86,86,0,0,1-11.88-5.44c-1.31-.72-2.3-1.3-3-1.7s-1-.63-1-.63.35.17,1,.54l3,1.61a91.73,91.73,0,0,0,11.91,5.25,38.64,38.64,0,0,0,9.06,2.11,24.27,24.27,0,0,0,10.75-1.88,53,53,0,0,0,11.07-6.07,79.64,79.64,0,0,0,10.81-9.07l0,0a59.81,59.81,0,0,1,7.47-7.56,35.72,35.72,0,0,1,4.51-3.29,18.46,18.46,0,0,1,5.28-2.33,12.65,12.65,0,0,1,11.37,2.74c3.15,2.75,5,6.65,6.59,10.51A57.33,57.33,0,0,0,500,301.14a15.23,15.23,0,0,0,4.45,4.52,5.89,5.89,0,0,0,2.94.9,4,4,0,0,0,2.67-1.22,16.37,16.37,0,0,0,3.23-5.68,63.63,63.63,0,0,0,2-6.5c1.17-4.44,2.12-9,3.18-13.58.64-2.77,1.31-5.52,2.11-8.23a34.78,34.78,0,0,1,3.18-7.83,8.15,8.15,0,0,1,3-3.09A4.34,4.34,0,0,1,529,260l1.08.1c.36.09.7.21,1.05.32a7.22,7.22,0,0,1,3.28,2.71,19,19,0,0,1,1.84,3.69c1,2.53,1.67,5.1,2.69,7.48s2.3,4.74,4.58,5.71,4.84.69,7.26.27a57.22,57.22,0,0,1,7.42-1.28,7.61,7.61,0,0,1,3.76.76,6,6,0,0,1,2.45,2.9,39.11,39.11,0,0,1,2,6.88,31.36,31.36,0,0,0,2.07,6.47,7.54,7.54,0,0,0,4.52,4.22,9.35,9.35,0,0,0,6.07-.49,14.48,14.48,0,0,0,4.77-3.69c2.7-3,4.81-6.35,7.75-8.78a14,14,0,0,1,4.83-2.7,10.12,10.12,0,0,1,5.26-.15c3.39.84,5.85,3.2,7.74,5.46a40.64,40.64,0,0,1,4.43,7,17.53,17.53,0,0,0,4.1,5.45,18.83,18.83,0,0,0,8.44,4.18,21.63,21.63,0,0,0,2.45.42C629.39,307,629.67,307,629.67,307Z"/><path class="cls-6" d="M433.14,244.42c0,.24-12.88.44-28.76.44s-28.77-.2-28.77-.44,12.88-.43,28.77-.43S433.14,244.18,433.14,244.42Z"/><polygon class="cls-2" points="671.72 220.14 671.72 358.34 688.45 358.34 711.47 358.34 818.78 358.34 818.78 220.14 671.72 220.14"/><path class="cls-6" d="M744.6,235.8A45.38,45.38,0,1,0,790,281.18,45.38,45.38,0,0,0,744.6,235.8Zm.68,72.57a27.88,27.88,0,1,1,27.88-27.88A27.87,27.87,0,0,1,745.28,308.37Z"/><path class="cls-7" d="M745.29,235.82c0,4.83,0,11.34,0,16.8a27.88,27.88,0,0,1,26.56,36.32l16.44,4.46a45.36,45.36,0,0,0-43-57.58Z"/><path class="cls-8" d="M717.41,280.49A27.86,27.86,0,0,1,733.93,255l-7-15.68a45.41,45.41,0,0,0-27.73,41.82c0,.64,0,1.27,0,1.9h18.26C717.46,282.23,717.41,281.37,717.41,280.49Z"/><path class="cls-7" d="M745.28,308.37a28.57,28.57,0,0,1-5.89-.63c-.7,4-2,11.87-3.07,18a45.32,45.32,0,0,0,52-32.38l-16.44-4.46A27.88,27.88,0,0,1,745.28,308.37Z"/><g class="cls-10"><path d="M745.28,308.37a28.57,28.57,0,0,1-5.89-.63c-.7,4-2,11.87-3.07,18a45.32,45.32,0,0,0,52-32.38l-16.44-4.46A27.88,27.88,0,0,1,745.28,308.37Z"/></g><path class="cls-6" d="M782.14,338c0,.24-16.81.43-37.54.43s-37.55-.19-37.55-.43,16.81-.43,37.55-.43S782.14,337.76,782.14,338Z"/><path class="cls-6" d="M765.42,344.89c0,.24-9.32.43-20.82.43s-20.83-.19-20.83-.43,9.33-.43,20.83-.43S765.42,344.66,765.42,344.89Z"/><rect class="cls-5" x="506.64" y="367.54" width="295.16" height="96.97"/><path class="cls-3" d="M776.9,390.47c0,.17-50.16.31-112,.31s-112-.14-112-.31,50.15-.31,112-.31S776.9,390.3,776.9,390.47Z"/><path class="cls-3" d="M776.9,402c0,.17-50.16.31-112,.31s-112-.14-112-.31,50.15-.32,112-.32S776.9,401.77,776.9,402Z"/><path class="cls-3" d="M776.9,413.42c0,.17-50.16.31-112,.31s-112-.14-112-.31,50.15-.31,112-.31S776.9,413.25,776.9,413.42Z"/><path class="cls-3" d="M776.9,424.89c0,.18-50.16.32-112,.32s-112-.14-112-.32,50.15-.31,112-.31S776.9,424.72,776.9,424.89Z"/><path class="cls-3" d="M776.9,436.37c0,.17-50.16.31-112,.31s-112-.14-112-.31,50.15-.31,112-.31S776.9,436.2,776.9,436.37Z"/><path class="cls-8" d="M757.39,423s-.15.18-.49.51a6.14,6.14,0,0,1-1.88,1,10.07,10.07,0,0,1-8.18-1.31A13.61,13.61,0,0,1,743,419c-1.07-1.74-1.92-3.75-2.93-5.85a18.27,18.27,0,0,0-4.38-6.11,10.08,10.08,0,0,0-3.81-2,11.46,11.46,0,0,0-4.68-.22,18.85,18.85,0,0,0-8.94,4.1c-2.67,2.09-5,4.66-7.89,7a19.24,19.24,0,0,1-10.82,4.62,11.23,11.23,0,0,1-6.2-1.43,13.57,13.57,0,0,1-4.31-4.32c-2.23-3.33-3.36-7.21-6.25-10.25a10.33,10.33,0,0,0-5.43-3.25,8.38,8.38,0,0,0-6.37,1.32,13,13,0,0,0-4.19,4.83,27.66,27.66,0,0,0-2,6.05,33.61,33.61,0,0,1-2,6.27,15,15,0,0,1-1.81,2.93,14.69,14.69,0,0,1-2.65,2.44,17.82,17.82,0,0,1-6.83,3,18.6,18.6,0,0,1-7.54.1,18.2,18.2,0,0,1-6.66-2.85c-2-1.27-3.75-2.68-5.62-3.95a17.69,17.69,0,0,0-6-2.85,9.92,9.92,0,0,0-6.48.72,14.67,14.67,0,0,0-4.84,3.91,36.92,36.92,0,0,0-3.27,5,38,38,0,0,1-3.23,4.93,14.56,14.56,0,0,1-4.65,3.82,10.61,10.61,0,0,1-6.07,1.23,9.09,9.09,0,0,1-5.27-2.55,12.51,12.51,0,0,1-2.9-4.37,29.4,29.4,0,0,1-1.33-4.7c-.65-3.08-1.28-6.07-3.11-8.45a10.93,10.93,0,0,0-7.2-4.65,9.13,9.13,0,0,0-4.15.45,11.39,11.39,0,0,0-3.33,1.9c-3.78,3.14-5.6,6.94-8.41,9.13s-5.52,3.33-7.52,3.28a7,7,0,0,1-2.19-.34c-.47-.17-.69-.27-.69-.27a8.75,8.75,0,0,0,2.88.48c2,0,4.73-1.05,7.32-3.32s4.49-6,8.33-9.21a11.83,11.83,0,0,1,3.44-2,9.69,9.69,0,0,1,4.38-.49,11.43,11.43,0,0,1,7.57,4.8,14.2,14.2,0,0,1,2.09,4.08c.48,1.46.8,3,1.14,4.52a29.08,29.08,0,0,0,1.32,4.62,12.08,12.08,0,0,0,2.81,4.19,8.44,8.44,0,0,0,4.9,2.37,9.91,9.91,0,0,0,5.66-1.17,13.83,13.83,0,0,0,4.45-3.68,38.17,38.17,0,0,0,3.17-4.85,36.56,36.56,0,0,1,3.31-5.06,15.31,15.31,0,0,1,5.06-4.08,10.75,10.75,0,0,1,7-.79,18.45,18.45,0,0,1,6.32,3c1.89,1.28,3.68,2.69,5.6,3.93a17.55,17.55,0,0,0,6.39,2.74,17.93,17.93,0,0,0,7.22-.1,17,17,0,0,0,6.54-2.83,12.27,12.27,0,0,0,4.25-5.13,32.83,32.83,0,0,0,1.93-6.16,28.05,28.05,0,0,1,2-6.17,13.43,13.43,0,0,1,4.41-5.06,9.18,9.18,0,0,1,7-1.43,10.93,10.93,0,0,1,5.8,3.46c3,3.18,4.13,7.11,6.3,10.35a13,13,0,0,0,4.1,4.13A10.47,10.47,0,0,0,699.5,420,18.62,18.62,0,0,0,710,415.56c2.83-2.28,5.19-4.85,7.92-7a19.36,19.36,0,0,1,9.22-4.19,12.1,12.1,0,0,1,4.92.26,10.58,10.58,0,0,1,4,2.13,18.42,18.42,0,0,1,4.43,6.25c1,2.12,1.83,4.12,2.87,5.85a13.29,13.29,0,0,0,3.71,4.15,9.9,9.9,0,0,0,8,1.38A6,6,0,0,0,757.39,423Z"/><path class="cls-7" d="M771.57,420.33l-.78,0a8.43,8.43,0,0,1-.95-.11,8,8,0,0,1-1.25-.39,20.58,20.58,0,0,1-6.67-4.87c-.63-.63-1.26-1.3-1.91-2a25,25,0,0,0-2.07-2.22,11.85,11.85,0,0,0-6.6-2.6,10.64,10.64,0,0,0-4,.44,10.44,10.44,0,0,0-3.59,2.1c-2.15,1.84-3.78,4.29-5.9,6.61a16.38,16.38,0,0,1-3.77,3.18,12.87,12.87,0,0,1-5.17,1.68,26.28,26.28,0,0,1-11.37-1.85c-3.72-1.34-7.27-3.18-11.27-4.36a23.51,23.51,0,0,0-6.22-1.08,15.2,15.2,0,0,0-6.28,1.19c-4,1.66-7.13,4.69-10.9,7.16a23.39,23.39,0,0,1-6.31,3,27.2,27.2,0,0,1-7.23,1.09A29.94,29.94,0,0,1,655,423.87a33.13,33.13,0,0,1-10.89-9.4c-2.92-3.79-4.52-8.1-6.62-12a24.21,24.21,0,0,0-3.86-5.46,16.56,16.56,0,0,0-5.68-3.81,11.18,11.18,0,0,0-12.52,2.62A16.23,16.23,0,0,0,612,400.9a37.73,37.73,0,0,0-1.76,5.66c-.46,1.9-.88,3.79-1.48,5.63a23,23,0,0,1-2.44,5.25,25.29,25.29,0,0,1-8.22,8.05,26.39,26.39,0,0,1-10.73,3.76,25.81,25.81,0,0,1-10.61-1.06c-6.49-2-11.08-6.41-12.79-10.88-.88-2.23-1.33-4.38-2-6.3a13.53,13.53,0,0,0-2.55-4.91,9.63,9.63,0,0,0-7.4-3.29,6.23,6.23,0,0,0-2.8.88,5,5,0,0,1,2.79-1,9.79,9.79,0,0,1,7.63,3.26,13.86,13.86,0,0,1,2.66,5c.67,1.93,1.13,4.07,2,6.26,1.71,4.37,6.22,8.63,12.59,10.58a25.12,25.12,0,0,0,10.35,1,25.72,25.72,0,0,0,10.46-3.7,24.75,24.75,0,0,0,8-7.89c2.08-3.2,2.95-6.93,3.83-10.74a37.89,37.89,0,0,1,1.78-5.74,16.81,16.81,0,0,1,3.51-5.31,12,12,0,0,1,13.34-2.78,17.39,17.39,0,0,1,5.93,4,24.87,24.87,0,0,1,4,5.61c2.14,4,3.71,8.23,6.58,11.95a32.29,32.29,0,0,0,10.66,9.21,29,29,0,0,0,14,3.36,26,26,0,0,0,7-1,22.84,22.84,0,0,0,6.12-2.9c3.71-2.42,6.86-5.48,11-7.21a16,16,0,0,1,6.58-1.24,24.46,24.46,0,0,1,6.41,1.13c4.07,1.21,7.65,3.08,11.3,4.4a25.49,25.49,0,0,0,11.07,1.85,12.44,12.44,0,0,0,4.94-1.58,16.23,16.23,0,0,0,3.67-3.07c2.11-2.28,3.75-4.74,6-6.63a10.34,10.34,0,0,1,8-2.6,12.16,12.16,0,0,1,6.8,2.74,24.9,24.9,0,0,1,2.08,2.26c.63.73,1.26,1.4,1.87,2a21.11,21.11,0,0,0,6.52,4.92A6.78,6.78,0,0,0,771.57,420.33Z"/><path class="cls-4" d="M537.47,391c0,.18-1.33.32-3,.32s-3-.14-3-.32a14.33,14.33,0,0,1,5.93,0Z"/><path class="cls-4" d="M537.47,402a14.33,14.33,0,0,1-5.93,0c0-.18,1.33-.32,3-.32S537.47,401.77,537.47,402Z"/><path class="cls-4" d="M537.47,412.85a14.33,14.33,0,0,1-5.93,0,14.33,14.33,0,0,1,5.93,0Z"/><path class="cls-4" d="M537.47,423.75c0,.18-1.33.32-3,.32s-3-.14-3-.32a14.33,14.33,0,0,1,5.93,0Z"/><path class="cls-4" d="M537.47,434.66a14.33,14.33,0,0,1-5.93,0c0-.18,1.33-.32,3-.32S537.47,434.48,537.47,434.66Z"/><path class="cls-4" d="M564.7,448.67c0,.18-2.65.32-5.92.32s-5.93-.14-5.93-.32,2.65-.31,5.93-.31S564.7,448.5,564.7,448.67Z"/><path class="cls-4" d="M616.94,448.67c0,.18-2.65.32-5.92.32s-5.93-.14-5.93-.32,2.65-.31,5.93-.31S616.94,448.5,616.94,448.67Z"/><path class="cls-4" d="M669.18,448.67c0,.18-2.65.32-5.92.32s-5.93-.14-5.93-.32,2.66-.31,5.93-.31S669.18,448.5,669.18,448.67Z"/><path class="cls-4" d="M721.42,448.67c0,.18-2.65.32-5.92.32s-5.93-.14-5.93-.32,2.66-.31,5.93-.31S721.42,448.5,721.42,448.67Z"/><path class="cls-4" d="M773.67,448.67c0,.18-2.66.32-5.93.32s-5.92-.14-5.92-.32,2.65-.31,5.92-.31S773.67,448.5,773.67,448.67Z"/><rect class="cls-6" x="130.37" y="477.1" width="154.01" height="107.21"/><rect class="cls-8" x="109.21" y="508.9" width="158.42" height="39.31"/><rect class="cls-6" x="116.25" y="517" width="31.19" height="4.8"/><rect class="cls-6" x="116.25" y="525.25" width="31.19" height="4.8"/><rect class="cls-6" x="116.25" y="533.79" width="31.19" height="4.8"/><path class="cls-6" d="M159.78,519.89a1.79,1.79,0,1,1-1.79-1.78A1.79,1.79,0,0,1,159.78,519.89Z"/><path class="cls-6" d="M167.67,519.89a1.79,1.79,0,1,1-1.79-1.78A1.79,1.79,0,0,1,167.67,519.89Z"/><path class="cls-6" d="M175.57,519.89a1.79,1.79,0,1,1-1.79-1.78A1.79,1.79,0,0,1,175.57,519.89Z"/><path class="cls-6" d="M183.46,519.89a1.79,1.79,0,1,1-1.78-1.78A1.79,1.79,0,0,1,183.46,519.89Z"/><path class="cls-6" d="M244.66,519.89a1.79,1.79,0,1,1-1.79-1.78A1.79,1.79,0,0,1,244.66,519.89Z"/><path class="cls-6" d="M252.71,519.89a1.79,1.79,0,1,1-1.79-1.78A1.79,1.79,0,0,1,252.71,519.89Z"/><path class="cls-6" d="M191.36,519.89a1.79,1.79,0,1,1-1.79-1.78A1.79,1.79,0,0,1,191.36,519.89Z"/><path class="cls-6" d="M230.14,519.89a1.79,1.79,0,1,1-1.79-1.78A1.79,1.79,0,0,1,230.14,519.89Z"/><path class="cls-2" d="M199.26,519.89a1.79,1.79,0,1,1-1.79-1.78A1.79,1.79,0,0,1,199.26,519.89Z"/><path class="cls-2" d="M207.15,519.89a1.79,1.79,0,1,1-1.79-1.78A1.79,1.79,0,0,1,207.15,519.89Z"/><path class="cls-2" d="M223.17,519.89a1.79,1.79,0,1,1-1.78-1.78A1.79,1.79,0,0,1,223.17,519.89Z"/><path class="cls-2" d="M259.26,519.89a1.79,1.79,0,1,1-1.79-1.78A1.79,1.79,0,0,1,259.26,519.89Z"/><path class="cls-11" d="M215.05,519.89a1.79,1.79,0,1,1-1.79-1.78A1.79,1.79,0,0,1,215.05,519.89Z"/><path class="cls-11" d="M237.66,519.89a1.79,1.79,0,1,1-1.79-1.78A1.79,1.79,0,0,1,237.66,519.89Z"/><path class="cls-6" d="M255.68,528.52a1.79,1.79,0,1,1,1.79,1.79A1.79,1.79,0,0,1,255.68,528.52Z"/><path class="cls-6" d="M247.78,528.52a1.79,1.79,0,1,1,1.79,1.79A1.79,1.79,0,0,1,247.78,528.52Z"/><path class="cls-6" d="M239.89,528.52a1.79,1.79,0,1,1,1.79,1.79A1.79,1.79,0,0,1,239.89,528.52Z"/><path class="cls-6" d="M232,528.52a1.79,1.79,0,1,1,1.79,1.79A1.79,1.79,0,0,1,232,528.52Z"/><path class="cls-6" d="M170.8,528.52a1.79,1.79,0,1,1,1.79,1.79A1.79,1.79,0,0,1,170.8,528.52Z"/><path class="cls-6" d="M162.75,528.52a1.79,1.79,0,1,1,1.79,1.79A1.79,1.79,0,0,1,162.75,528.52Z"/><path class="cls-6" d="M224.09,528.52a1.79,1.79,0,1,1,1.79,1.79A1.79,1.79,0,0,1,224.09,528.52Z"/><path class="cls-6" d="M185.32,528.52a1.79,1.79,0,1,1,1.78,1.79A1.79,1.79,0,0,1,185.32,528.52Z"/><path class="cls-2" d="M216.2,528.52a1.79,1.79,0,1,1,1.79,1.79A1.79,1.79,0,0,1,216.2,528.52Z"/><path class="cls-2" d="M208.3,528.52a1.79,1.79,0,1,1,1.79,1.79A1.79,1.79,0,0,1,208.3,528.52Z"/><path class="cls-2" d="M192.28,528.52a1.79,1.79,0,1,1,1.79,1.79A1.79,1.79,0,0,1,192.28,528.52Z"/><path class="cls-2" d="M156.2,528.52a1.79,1.79,0,1,1,1.79,1.79A1.79,1.79,0,0,1,156.2,528.52Z"/><path class="cls-11" d="M200.41,528.52a1.79,1.79,0,1,1,1.78,1.79A1.79,1.79,0,0,1,200.41,528.52Z"/><path class="cls-11" d="M177.8,528.52a1.79,1.79,0,1,1,1.79,1.79A1.79,1.79,0,0,1,177.8,528.52Z"/><path class="cls-6" d="M159.78,536.19A1.79,1.79,0,1,1,158,534.4,1.79,1.79,0,0,1,159.78,536.19Z"/><circle class="cls-6" cx="165.88" cy="536.19" r="1.79"/><circle class="cls-6" cx="173.78" cy="536.19" r="1.79"/><circle class="cls-6" cx="181.68" cy="536.19" r="1.79"/><circle class="cls-6" cx="242.87" cy="536.19" r="1.79"/><circle class="cls-6" cx="250.92" cy="536.19" r="1.79"/><path class="cls-6" d="M191.36,536.19a1.79,1.79,0,1,1-1.79-1.79A1.79,1.79,0,0,1,191.36,536.19Z"/><path class="cls-6" d="M230.14,536.19a1.79,1.79,0,1,1-1.79-1.79A1.79,1.79,0,0,1,230.14,536.19Z"/><circle class="cls-2" cx="197.47" cy="536.19" r="1.79"/><path class="cls-2" d="M207.15,536.19a1.79,1.79,0,1,1-1.79-1.79A1.79,1.79,0,0,1,207.15,536.19Z"/><path class="cls-2" d="M223.17,536.19a1.79,1.79,0,1,1-1.78-1.79A1.79,1.79,0,0,1,223.17,536.19Z"/><path class="cls-2" d="M259.26,536.19a1.79,1.79,0,1,1-1.79-1.79A1.79,1.79,0,0,1,259.26,536.19Z"/><path class="cls-11" d="M215.05,536.19a1.79,1.79,0,1,1-1.79-1.79A1.79,1.79,0,0,1,215.05,536.19Z"/><circle class="cls-11" cx="235.87" cy="536.19" r="1.79"/><rect class="cls-8" x="109.21" y="557.4" width="158.42" height="39.3"/><path class="cls-6" d="M159.38,568a1.79,1.79,0,1,1-1.79-1.79A1.79,1.79,0,0,1,159.38,568Z"/><path class="cls-6" d="M167.28,568a1.79,1.79,0,1,1-1.79-1.79A1.79,1.79,0,0,1,167.28,568Z"/><path class="cls-6" d="M175.18,568a1.79,1.79,0,1,1-1.79-1.79A1.79,1.79,0,0,1,175.18,568Z"/><path class="cls-6" d="M183.07,568a1.79,1.79,0,1,1-1.79-1.79A1.79,1.79,0,0,1,183.07,568Z"/><path class="cls-6" d="M244.26,568a1.79,1.79,0,1,1-1.79-1.79A1.79,1.79,0,0,1,244.26,568Z"/><path class="cls-6" d="M252.32,568a1.79,1.79,0,1,1-1.79-1.79A1.79,1.79,0,0,1,252.32,568Z"/><path class="cls-6" d="M191,568a1.79,1.79,0,1,1-1.79-1.79A1.79,1.79,0,0,1,191,568Z"/><path class="cls-6" d="M229.75,568a1.79,1.79,0,1,1-1.79-1.79A1.79,1.79,0,0,1,229.75,568Z"/><path class="cls-2" d="M198.87,568a1.79,1.79,0,1,1-1.79-1.79A1.79,1.79,0,0,1,198.87,568Z"/><path class="cls-2" d="M206.76,568a1.79,1.79,0,1,1-1.79-1.79A1.79,1.79,0,0,1,206.76,568Z"/><path class="cls-2" d="M222.78,568a1.79,1.79,0,1,1-1.79-1.79A1.79,1.79,0,0,1,222.78,568Z"/><path class="cls-2" d="M258.87,568a1.79,1.79,0,1,1-1.79-1.79A1.79,1.79,0,0,1,258.87,568Z"/><path class="cls-11" d="M214.66,568a1.79,1.79,0,1,1-1.79-1.79A1.79,1.79,0,0,1,214.66,568Z"/><path class="cls-11" d="M237.27,568a1.79,1.79,0,1,1-1.79-1.79A1.79,1.79,0,0,1,237.27,568Z"/><path class="cls-6" d="M255.29,576.63a1.79,1.79,0,1,1,1.79,1.79A1.79,1.79,0,0,1,255.29,576.63Z"/><circle class="cls-6" cx="249.18" cy="576.63" r="1.79"/><path class="cls-6" d="M239.5,576.63a1.79,1.79,0,1,1,1.78,1.79A1.79,1.79,0,0,1,239.5,576.63Z"/><path class="cls-6" d="M231.6,576.63a1.79,1.79,0,1,1,1.79,1.79A1.79,1.79,0,0,1,231.6,576.63Z"/><path class="cls-6" d="M170.41,576.63a1.79,1.79,0,1,1,1.79,1.79A1.79,1.79,0,0,1,170.41,576.63Z"/><path class="cls-6" d="M162.36,576.63a1.79,1.79,0,1,1,1.79,1.79A1.79,1.79,0,0,1,162.36,576.63Z"/><circle class="cls-6" cx="225.49" cy="576.63" r="1.79"/><circle class="cls-6" cx="186.71" cy="576.63" r="1.79"/><path class="cls-2" d="M215.81,576.63a1.79,1.79,0,1,1,1.79,1.79A1.79,1.79,0,0,1,215.81,576.63Z"/><path class="cls-2" d="M207.91,576.63a1.79,1.79,0,1,1,1.79,1.79A1.79,1.79,0,0,1,207.91,576.63Z"/><circle class="cls-2" cx="193.68" cy="576.63" r="1.79"/><path class="cls-2" d="M155.8,576.63a1.79,1.79,0,1,1,1.79,1.79A1.8,1.8,0,0,1,155.8,576.63Z"/><path class="cls-11" d="M200,576.63a1.79,1.79,0,1,1,1.79,1.79A1.79,1.79,0,0,1,200,576.63Z"/><path class="cls-11" d="M177.4,576.63a1.79,1.79,0,1,1,1.79,1.79A1.8,1.8,0,0,1,177.4,576.63Z"/><path class="cls-6" d="M159.38,584.3a1.79,1.79,0,1,1-1.79-1.79A1.79,1.79,0,0,1,159.38,584.3Z"/><path class="cls-6" d="M167.28,584.3a1.79,1.79,0,1,1-1.79-1.79A1.79,1.79,0,0,1,167.28,584.3Z"/><path class="cls-6" d="M175.18,584.3a1.79,1.79,0,1,1-1.79-1.79A1.79,1.79,0,0,1,175.18,584.3Z"/><path class="cls-6" d="M183.07,584.3a1.79,1.79,0,1,1-1.79-1.79A1.79,1.79,0,0,1,183.07,584.3Z"/><path class="cls-6" d="M244.26,584.3a1.79,1.79,0,1,1-1.79-1.79A1.79,1.79,0,0,1,244.26,584.3Z"/><path class="cls-6" d="M252.32,584.3a1.79,1.79,0,1,1-1.79-1.79A1.79,1.79,0,0,1,252.32,584.3Z"/><path class="cls-6" d="M191,584.3a1.79,1.79,0,1,1-1.79-1.79A1.79,1.79,0,0,1,191,584.3Z"/><path class="cls-6" d="M229.75,584.3a1.79,1.79,0,1,1-1.79-1.79A1.79,1.79,0,0,1,229.75,584.3Z"/><path class="cls-2" d="M198.87,584.3a1.79,1.79,0,1,1-1.79-1.79A1.79,1.79,0,0,1,198.87,584.3Z"/><path class="cls-2" d="M206.76,584.3a1.79,1.79,0,1,1-1.79-1.79A1.79,1.79,0,0,1,206.76,584.3Z"/><path class="cls-2" d="M222.78,584.3a1.79,1.79,0,1,1-1.79-1.79A1.79,1.79,0,0,1,222.78,584.3Z"/><path class="cls-2" d="M258.87,584.3a1.79,1.79,0,1,1-1.79-1.79A1.79,1.79,0,0,1,258.87,584.3Z"/><path class="cls-11" d="M214.66,584.3a1.79,1.79,0,1,1-1.79-1.79A1.79,1.79,0,0,1,214.66,584.3Z"/><path class="cls-11" d="M237.27,584.3a1.79,1.79,0,1,1-1.79-1.79A1.79,1.79,0,0,1,237.27,584.3Z"/><rect class="cls-6" x="116.25" y="565.5" width="31.19" height="4.8"/><rect class="cls-6" x="116.25" y="573.76" width="31.19" height="4.8"/><rect class="cls-6" x="116.25" y="582.3" width="31.19" height="4.8"/><polygon class="cls-6" points="301.13 548.14 267.64 548.2 267.64 508.9 301.13 508.84 301.13 548.14"/><polygon class="cls-6" points="301.13 596.34 267.64 596.4 267.64 557.1 301.13 557.03 301.13 596.34"/><rect class="cls-6" x="117.39" y="485.64" width="31.19" height="4.8"/><polygon class="cls-6" points="301.13 500.35 267.64 500.41 267.64 460.81 301.13 460.75 301.13 500.35"/><rect class="cls-8" x="110.36" y="460.74" width="158.42" height="39.3"/><rect class="cls-6" x="117.39" y="468.84" width="31.19" height="4.8"/><rect class="cls-6" x="117.39" y="477.1" width="31.19" height="4.8"/><path class="cls-6" d="M160.92,471.74a1.79,1.79,0,1,1-1.79-1.79A1.79,1.79,0,0,1,160.92,471.74Z"/><path class="cls-6" d="M168.82,471.74A1.79,1.79,0,1,1,167,470,1.79,1.79,0,0,1,168.82,471.74Z"/><path class="cls-6" d="M176.72,471.74a1.79,1.79,0,1,1-1.79-1.79A1.79,1.79,0,0,1,176.72,471.74Z"/><path class="cls-6" d="M184.61,471.74a1.79,1.79,0,1,1-1.79-1.79A1.79,1.79,0,0,1,184.61,471.74Z"/><path class="cls-6" d="M245.8,471.74A1.79,1.79,0,1,1,244,470,1.79,1.79,0,0,1,245.8,471.74Z"/><path class="cls-6" d="M253.85,471.74a1.79,1.79,0,1,1-1.78-1.79A1.79,1.79,0,0,1,253.85,471.74Z"/><path class="cls-6" d="M192.51,471.74a1.79,1.79,0,1,1-1.79-1.79A1.79,1.79,0,0,1,192.51,471.74Z"/><path class="cls-6" d="M231.29,471.74A1.79,1.79,0,1,1,229.5,470,1.79,1.79,0,0,1,231.29,471.74Z"/><path class="cls-2" d="M200.4,471.74a1.79,1.79,0,1,1-1.78-1.79A1.79,1.79,0,0,1,200.4,471.74Z"/><path class="cls-2" d="M208.3,471.74a1.79,1.79,0,1,1-1.79-1.79A1.79,1.79,0,0,1,208.3,471.74Z"/><path class="cls-2" d="M224.32,471.74a1.79,1.79,0,1,1-1.79-1.79A1.79,1.79,0,0,1,224.32,471.74Z"/><path class="cls-2" d="M260.41,471.74a1.79,1.79,0,1,1-1.79-1.79A1.79,1.79,0,0,1,260.41,471.74Z"/><path class="cls-11" d="M216.2,471.74a1.79,1.79,0,1,1-1.79-1.79A1.79,1.79,0,0,1,216.2,471.74Z"/><path class="cls-11" d="M238.81,471.74A1.79,1.79,0,1,1,237,470,1.79,1.79,0,0,1,238.81,471.74Z"/><path class="cls-6" d="M256.83,480.37a1.79,1.79,0,1,1,1.79,1.79A1.79,1.79,0,0,1,256.83,480.37Z"/><circle class="cls-6" cx="250.72" cy="480.37" r="1.79"/><path class="cls-6" d="M241,480.37a1.79,1.79,0,1,1,1.79,1.79A1.79,1.79,0,0,1,241,480.37Z"/><path class="cls-6" d="M233.14,480.37a1.79,1.79,0,1,1,1.79,1.79A1.79,1.79,0,0,1,233.14,480.37Z"/><path class="cls-6" d="M172,480.37a1.79,1.79,0,1,1,1.79,1.79A1.79,1.79,0,0,1,172,480.37Z"/><path class="cls-6" d="M163.9,480.37a1.79,1.79,0,1,1,1.78,1.79A1.79,1.79,0,0,1,163.9,480.37Z"/><path class="cls-6" d="M225.24,480.37a1.79,1.79,0,1,1,1.79,1.79A1.79,1.79,0,0,1,225.24,480.37Z"/><circle class="cls-6" cx="188.25" cy="480.37" r="1.79"/><path class="cls-2" d="M217.35,480.37a1.79,1.79,0,1,1,1.78,1.79A1.79,1.79,0,0,1,217.35,480.37Z"/><circle class="cls-2" cx="211.24" cy="480.37" r="1.79"/><path class="cls-2" d="M193.43,480.37a1.79,1.79,0,1,1,1.79,1.79A1.79,1.79,0,0,1,193.43,480.37Z"/><circle class="cls-2" cx="159.13" cy="480.37" r="1.79"/><path class="cls-11" d="M201.55,480.37a1.79,1.79,0,1,1,1.79,1.79A1.79,1.79,0,0,1,201.55,480.37Z"/><path class="cls-11" d="M178.94,480.37a1.79,1.79,0,1,1,1.79,1.79A1.79,1.79,0,0,1,178.94,480.37Z"/><path class="cls-6" d="M160.92,488a1.79,1.79,0,1,1-1.79-1.79A1.79,1.79,0,0,1,160.92,488Z"/><path class="cls-6" d="M168.82,488a1.79,1.79,0,1,1-1.79-1.79A1.79,1.79,0,0,1,168.82,488Z"/><path class="cls-6" d="M176.72,488a1.79,1.79,0,1,1-1.79-1.79A1.8,1.8,0,0,1,176.72,488Z"/><path class="cls-6" d="M184.61,488a1.79,1.79,0,1,1-1.79-1.79A1.79,1.79,0,0,1,184.61,488Z"/><path class="cls-6" d="M245.8,488a1.79,1.79,0,1,1-1.79-1.79A1.79,1.79,0,0,1,245.8,488Z"/><path class="cls-6" d="M253.85,488a1.79,1.79,0,1,1-1.78-1.79A1.79,1.79,0,0,1,253.85,488Z"/><path class="cls-6" d="M192.51,488a1.79,1.79,0,1,1-1.79-1.79A1.79,1.79,0,0,1,192.51,488Z"/><path class="cls-6" d="M231.29,488a1.79,1.79,0,1,1-1.79-1.79A1.79,1.79,0,0,1,231.29,488Z"/><path class="cls-2" d="M200.4,488a1.79,1.79,0,1,1-1.78-1.79A1.79,1.79,0,0,1,200.4,488Z"/><path class="cls-2" d="M208.3,488a1.79,1.79,0,1,1-1.79-1.79A1.79,1.79,0,0,1,208.3,488Z"/><path class="cls-2" d="M224.32,488a1.79,1.79,0,1,1-1.79-1.79A1.79,1.79,0,0,1,224.32,488Z"/><path class="cls-2" d="M260.41,488a1.79,1.79,0,1,1-1.79-1.79A1.79,1.79,0,0,1,260.41,488Z"/><path class="cls-11" d="M216.2,488a1.79,1.79,0,1,1-1.79-1.79A1.79,1.79,0,0,1,216.2,488Z"/><path class="cls-11" d="M238.81,488a1.79,1.79,0,1,1-1.79-1.79A1.79,1.79,0,0,1,238.81,488Z"/><path class="cls-6" d="M326.69,331.38l-.52,0-1.52,0-5.83.06-21.5.12-71.25.17.24-.29v3.22c0,34.49-.05,65.71-.07,88.33,0,11.28-.06,20.42-.08,26.76,0,3.15,0,5.59,0,7.28,0,.82,0,1.44,0,1.89s0,.65,0,.65,0-.22,0-.65,0-1.07,0-1.89c0-1.69,0-4.13,0-7.28,0-6.34,0-15.48-.08-26.76,0-22.62,0-53.84-.06-88.33v-3.5h71.48l21.5.06,5.83.05,1.52,0Z"/><path class="cls-6" d="M330.05,332.49a4,4,0,1,1-4-4A4,4,0,0,1,330.05,332.49Z"/><path class="cls-12" d="M260.65,367l20.83-50.28c.95-2.29-.24-4.15-2.66-4.15h-4.19a2.68,2.68,0,0,1-3-2.41l-.14-1.85a2.68,2.68,0,0,0-3-2.41H248.59a6.94,6.94,0,0,0-4.61,2l-1.62,1.56a6.94,6.94,0,0,1-4.61,2H212.38a7.08,7.08,0,0,0-6.06,4.16L185.66,367Z"/><g class="cls-10"><path d="M260.65,367l20.83-50.28c.95-2.29-.24-4.15-2.66-4.15h-4.19a2.68,2.68,0,0,1-3-2.41l-.14-1.85a2.68,2.68,0,0,0-3-2.41H248.59a6.94,6.94,0,0,0-4.61,2l-1.62,1.56a6.94,6.94,0,0,1-4.61,2H212.38a7.08,7.08,0,0,0-6.06,4.16L185.66,367Z"/></g><path class="cls-4" d="M264.09,349.92,272,319.54c.52-2-.79-4-2.62-4h-61.6a2.81,2.81,0,0,0-2.62,2.26l-11.44,45.74c-.5,2,.3,3.21,2.13,3.19l62,0a2.8,2.8,0,0,0,2.58-2.25Z"/><path class="cls-3" d="M259.83,365.62l3.35-47.85a2.94,2.94,0,0,0-2.93-3.14H196.43v51Z"/><path class="cls-5" d="M260.55,366.72,253,317.39a3.53,3.53,0,0,0-3.47-2.76H184.92a3.5,3.5,0,0,0-3.26,4.87l13.94,45.14Z"/><path class="cls-13" d="M260.65,367,245,320.78a4.64,4.64,0,0,0-4.36-3.22H174.07a3.25,3.25,0,0,0-3,4.32L185.66,367Z"/><path class="cls-14" d="M339.15,171H830.08a5.88,5.88,0,0,1,5.88,5.88V477.37a0,0,0,0,1,0,0H333.27a0,0,0,0,1,0,0V176.84A5.88,5.88,0,0,1,339.15,171Z"/><path class="cls-15" d="M642.16,252.49l-58-21.38L526.62,252.2c-7.34,3.56-13.77,5.69-13.77,12.7v34.92a134.52,134.52,0,0,0,18.93,69.48c10.73,17.85,27.33,36.24,52.89,47.92,23.5-7.83,41-28.7,51.77-46.55a134.56,134.56,0,0,0,18.93-69.49v-31.4C655.37,259.78,650.21,254.9,642.16,252.49Z"/><g class="cls-16"><path class="cls-1" d="M642.16,252.49l-58-21.38L526.62,252.2c-7.34,3.56-13.77,5.69-13.77,12.7v34.92a134.52,134.52,0,0,0,18.93,69.48c10.73,17.85,27.33,36.24,52.89,47.92,23.5-7.83,41-28.7,51.77-46.55a134.56,134.56,0,0,0,18.93-69.49v-31.4C655.37,259.78,650.21,254.9,642.16,252.49Z"/></g><path class="cls-15" d="M619.56,340.88H608.89V282.82a24.78,24.78,0,0,0-49.56,0v58.06H548.66V282.82a35.45,35.45,0,1,1,70.9,0Z"/><g class="cls-17"><path d="M619.56,340.88H608.89V282.82a24.78,24.78,0,0,0-49.56,0v58.06H548.66V282.82a35.45,35.45,0,1,1,70.9,0Z"/></g><rect class="cls-15" x="536.34" y="315.05" width="95.55" height="61.3" rx="5.81"/><g class="cls-18"><path d="M592.1,337.72a8,8,0,1,0-10.17,7.64v11.95h4.36V345.36A8,8,0,0,0,592.1,337.72Z"/></g><path class="cls-5" d="M541.43,370.54c-.22,0-.4-10.22-.4-22.83s.18-22.83.4-22.83.4,10.22.4,22.83S541.65,370.54,541.43,370.54Z"/><path class="cls-5" d="M577.86,348s-.38-.12-.94-.53a9.89,9.89,0,0,1-2.06-2.09,11.19,11.19,0,0,1,4-16.8,9.79,9.79,0,0,1,2.78-.95,2.67,2.67,0,0,1,1.07-.06,26.08,26.08,0,0,0-3.58,1.5,11.09,11.09,0,0,0-3.79,16A22.75,22.75,0,0,0,577.86,348Z"/><path class="cls-15" d="M655.88,403.68l.69-.93.39-.51c.13-.2.25-.43.39-.68a10.53,10.53,0,0,0,.88-1.75c.13-.35.3-.71.43-1.1l.35-1.26a8.8,8.8,0,0,0,.29-1.41,14.65,14.65,0,0,0,.22-1.56,29.62,29.62,0,0,0-.34-7.48c-.87-5.6-3.24-12.2-6.88-19.36a151.21,151.21,0,0,0-14.76-23,237,237,0,0,0-22-24.73,269,269,0,0,0-28.91-24.67c-5.39-4-11.09-7.81-17.09-11.44a165.32,165.32,0,0,0-19-9.95,88.7,88.7,0,0,0-21.11-6.62,37.61,37.61,0,0,0-11.26-.28,21.16,21.16,0,0,0-5.45,1.58,13.6,13.6,0,0,0-7.37,8.25,21.19,21.19,0,0,0-1,5.59A37.52,37.52,0,0,0,506,293.56a89.35,89.35,0,0,0,9,20.23A165.57,165.57,0,0,0,527,331.52c4.29,5.55,8.76,10.77,13.31,15.68a269.67,269.67,0,0,0,27.8,25.91,234.08,234.08,0,0,0,27.08,19.06,150.88,150.88,0,0,0,24.5,12.06c7.53,2.79,14.35,4.4,20,4.62a29,29,0,0,0,7.48-.51c.54-.08,1-.27,1.52-.39a8.67,8.67,0,0,0,1.36-.45l1.22-.49c.38-.18.71-.38,1-.56a11.25,11.25,0,0,0,1.65-1.07c.22-.17.44-.31.62-.47l.46-.44c.55-.53.85-.79.85-.79l-.82.82-.45.46c-.18.15-.4.3-.62.47a11.09,11.09,0,0,1-1.64,1.1c-.33.18-.67.38-1,.57l-1.23.5a8.81,8.81,0,0,1-1.37.47c-.49.12-1,.32-1.52.4a29.1,29.1,0,0,1-7.51.56c-5.69-.2-12.54-1.79-20.1-4.57a150.1,150.1,0,0,1-24.57-12,234.65,234.65,0,0,1-27.15-19A268.14,268.14,0,0,1,540,347.48c-4.57-4.92-9-10.14-13.34-15.7A164,164,0,0,1,514.56,314a88.59,88.59,0,0,1-9-20.33,37.32,37.32,0,0,1-1.57-11.3,21.42,21.42,0,0,1,1-5.71,15.83,15.83,0,0,1,2.9-5.07,15.62,15.62,0,0,1,4.71-3.44,21.63,21.63,0,0,1,5.56-1.62,38.17,38.17,0,0,1,11.4.28,89.2,89.2,0,0,1,21.22,6.66,165.29,165.29,0,0,1,19,10c6,3.63,11.71,7.49,17.11,11.47a267.49,267.49,0,0,1,28.93,24.74,235.07,235.07,0,0,1,22,24.8,150.48,150.48,0,0,1,14.73,23c3.63,7.2,6,13.82,6.83,19.45a29.37,29.37,0,0,1,.3,7.53,14.61,14.61,0,0,1-.23,1.56,7.65,7.65,0,0,1-.3,1.41c-.13.45-.25.87-.36,1.27s-.31.76-.45,1.1a11,11,0,0,1-.9,1.76c-.15.24-.27.47-.41.67l-.4.51C656.13,403.38,655.88,403.68,655.88,403.68Z"/><path class="cls-15" d="M683.2,337.73s0-.4-.1-1.16c0-.19,0-.4-.05-.64s-.1-.48-.16-.76a10.8,10.8,0,0,0-.51-1.89c-.13-.35-.25-.73-.41-1.11s-.37-.77-.58-1.18a8,8,0,0,0-.72-1.25,15.5,15.5,0,0,0-.87-1.3,29.73,29.73,0,0,0-5.24-5.36c-4.37-3.6-10.54-6.94-18-9.87a151.24,151.24,0,0,0-26.31-7.31,236.23,236.23,0,0,0-32.89-3.8,269.25,269.25,0,0,0-38,.83c-6.67.63-13.48,1.55-20.37,2.84A164.6,164.6,0,0,0,518.19,311,88.67,88.67,0,0,0,498,320.1a37.18,37.18,0,0,0-8.59,7.29,21.11,21.11,0,0,0-3,4.79,13.52,13.52,0,0,0,0,11.07,21.17,21.17,0,0,0,3,4.8,37.23,37.23,0,0,0,8.59,7.3,89,89,0,0,0,20.17,9.12A164.17,164.17,0,0,0,539,369.68c6.89,1.29,13.7,2.21,20.37,2.84a269.28,269.28,0,0,0,38,.83,235,235,0,0,0,32.9-3.8,150.49,150.49,0,0,0,26.3-7.31c7.49-2.93,13.65-6.27,18-9.87A29.73,29.73,0,0,0,679.8,347a15.5,15.5,0,0,0,.87-1.3,8,8,0,0,0,.72-1.25c.21-.41.4-.8.58-1.18s.28-.76.41-1.11a10.8,10.8,0,0,0,.51-1.89c.06-.28.12-.53.16-.76s0-.45.05-.64c.06-.76.1-1.15.1-1.15s0,.39-.06,1.15c0,.19,0,.41,0,.65s-.09.49-.14.76a10.64,10.64,0,0,1-.5,1.91c-.12.36-.24.74-.39,1.12l-.58,1.19a8.38,8.38,0,0,1-.71,1.26c-.29.42-.52.9-.87,1.32a29.55,29.55,0,0,1-5.24,5.41c-4.38,3.64-10.54,7-18,10a150.32,150.32,0,0,1-26.33,7.39,235.09,235.09,0,0,1-32.94,3.86,269.9,269.9,0,0,1-38.05-.79c-6.68-.63-13.5-1.55-20.41-2.83a163.82,163.82,0,0,1-20.85-5.22,88.69,88.69,0,0,1-20.27-9.16,37.58,37.58,0,0,1-8.69-7.39,21.48,21.48,0,0,1-3.08-4.91A14,14,0,0,1,486,332a21.35,21.35,0,0,1,3.08-4.91,37.5,37.5,0,0,1,8.69-7.37,88.69,88.69,0,0,1,20.27-9.16,162.36,162.36,0,0,1,20.84-5.21c6.91-1.29,13.73-2.21,20.41-2.84a269.9,269.9,0,0,1,38.05-.79,234.94,234.94,0,0,1,32.93,3.86A150.44,150.44,0,0,1,656.63,313c7.49,3,13.66,6.33,18,10a29.15,29.15,0,0,1,5.23,5.41,12.48,12.48,0,0,1,.87,1.32,7.66,7.66,0,0,1,.72,1.26l.58,1.19c.15.38.27.77.39,1.12a10.86,10.86,0,0,1,.5,1.91c0,.28.11.53.14.77s0,.45,0,.64C683.19,337.33,683.2,337.73,683.2,337.73Z"/><path class="cls-15" d="M647,255.63l-1-.62-.53-.36-.7-.34a10.06,10.06,0,0,0-1.81-.76c-.36-.11-.73-.25-1.13-.36l-1.28-.26a9.14,9.14,0,0,0-1.43-.19,15.48,15.48,0,0,0-1.56-.11,29.34,29.34,0,0,0-7.45.86c-5.53,1.25-11.94,4.07-18.84,8.19A151.22,151.22,0,0,0,589.4,278a235.66,235.66,0,0,0-23.16,23.67,268.31,268.31,0,0,0-22.62,30.54c-3.59,5.65-7,11.6-10.23,17.83a163.7,163.7,0,0,0-8.62,19.62,88.14,88.14,0,0,0-5.15,21.53,37,37,0,0,0,.5,11.25,21,21,0,0,0,1.94,5.32,13.65,13.65,0,0,0,8.74,6.79,21.45,21.45,0,0,0,5.64.56,37.44,37.44,0,0,0,11-2.32A88.47,88.47,0,0,0,567,402.43a164.08,164.08,0,0,0,16.86-13.24c5.24-4.66,10.14-9.47,14.72-14.36a268.05,268.05,0,0,0,23.94-29.52A234.18,234.18,0,0,0,639.7,317,151.09,151.09,0,0,0,650,291.72c2.27-7.71,3.41-14.63,3.24-20.29a28.93,28.93,0,0,0-1-7.42,14.46,14.46,0,0,0-.49-1.49,9,9,0,0,0-.55-1.33l-.57-1.19c-.21-.36-.43-.68-.63-1a10.33,10.33,0,0,0-1.18-1.57c-.19-.21-.34-.42-.51-.59l-.47-.43-.85-.79.88.75.48.43c.17.17.33.37.52.59a10.88,10.88,0,0,1,1.21,1.56c.2.31.43.64.64,1s.38.76.59,1.18a9.13,9.13,0,0,1,.55,1.34,13.66,13.66,0,0,1,.51,1.49,29.13,29.13,0,0,1,1.07,7.45c.2,5.69-.92,12.63-3.17,20.37A150,150,0,0,1,640,317.12a232.42,232.42,0,0,1-17.13,28.4,267.41,267.41,0,0,1-23.94,29.59c-4.58,4.9-9.49,9.73-14.74,14.4a164.79,164.79,0,0,1-16.89,13.28,89,89,0,0,1-19.67,10.41,37.65,37.65,0,0,1-11.16,2.34,21.56,21.56,0,0,1-5.76-.57,16,16,0,0,1-5.26-2.54,16.24,16.24,0,0,1-3.76-4.46,21.81,21.81,0,0,1-2-5.44,37.62,37.62,0,0,1-.5-11.39,88.64,88.64,0,0,1,5.18-21.63A163.17,163.17,0,0,1,533,349.84c3.21-6.25,6.67-12.2,10.26-17.86A270.07,270.07,0,0,1,566,301.42a232.65,232.65,0,0,1,23.23-23.66,150.43,150.43,0,0,1,22-16.29c6.93-4.11,13.37-6.92,18.93-8.15a29,29,0,0,1,7.49-.82,13,13,0,0,1,1.57.12,9.09,9.09,0,0,1,1.44.2l1.29.28c.4.11.77.25,1.13.37a10.78,10.78,0,0,1,1.81.78c.25.13.49.23.7.35l.53.37Z"/><circle class="cls-15" cx="481.34" cy="381.22" r="3.68"/><path class="cls-15" d="M691.57,264.59a3.68,3.68,0,1,1-3.68-3.68A3.68,3.68,0,0,1,691.57,264.59Z"/><path class="cls-15" d="M507.18,390.72a.94.94,0,1,1-.93-.93A.94.94,0,0,1,507.18,390.72Z"/><path class="cls-15" d="M527.14,287.6a.94.94,0,1,1-.93-.93A.94.94,0,0,1,527.14,287.6Z"/><path class="cls-15" d="M673.09,337.73a.94.94,0,1,1-.94-.94A.94.94,0,0,1,673.09,337.73Z"/><path class="cls-15" d="M686.08,294.13a.94.94,0,0,1-1.87,0,.94.94,0,1,1,1.87,0Z"/><circle class="cls-1" cx="827.01" cy="-166.94" r="85.77"/><g class="cls-19"><rect class="cls-20" x="808.58" y="-209.46" width="144.44" height="375.4"/><rect class="cls-21" x="755.11" y="-209.46" width="144.45" height="375.4"/><rect class="cls-20" x="767.72" y="-17.98" width="119.24" height="19.12"/><rect class="cls-2" x="772.34" y="-17.98" width="114.61" height="19.12"/><rect class="cls-20" x="767.72" y="18.88" width="119.24" height="19.12"/><rect class="cls-2" x="772.34" y="18.88" width="114.61" height="19.12"/><rect class="cls-20" x="767.72" y="55.75" width="119.24" height="19.12"/><rect class="cls-2" x="772.34" y="55.75" width="114.61" height="19.12"/><rect class="cls-20" x="767.72" y="92.61" width="119.24" height="19.12"/><rect class="cls-2" x="772.34" y="92.61" width="114.61" height="19.12"/><rect class="cls-20" x="767.72" y="129.48" width="119.24" height="19.12"/><rect class="cls-2" x="772.34" y="129.48" width="114.61" height="19.12"/><rect class="cls-4" x="912.78" y="-17.99" width="40.25" height="19.13"/><rect class="cls-4" x="912.78" y="18.88" width="40.25" height="19.13"/><rect class="cls-4" x="912.78" y="55.74" width="40.25" height="19.13"/><rect class="cls-4" x="912.78" y="92.61" width="40.25" height="19.13"/><rect class="cls-4" x="912.78" y="129.48" width="40.25" height="19.13"/></g><polygon class="cls-4" points="727.08 572.48 714.7 588.66 691.12 578.23 706.2 554.03 727.08 572.48"/><path class="cls-22" d="M690.18,577.91l2.69-4.12L716,588.41l-5.45,9.13-1.52-.76c-6.72-3.42-33.91-17.87-37.5-21.72C667.52,570.77,690.18,577.91,690.18,577.91Z"/><path class="cls-22" d="M702.09,592.38a9.63,9.63,0,0,1,5.86-3.51,8,8,0,0,1,6.7,1.77l-3.95,6.55Z"/><path class="cls-23" d="M678.9,574.77s-8.2-2.06-8-.39,27.13,17.3,39.62,23.16l.27-.55-31.58-18S680.24,575.62,678.9,574.77Z"/><path class="cls-6" d="M711.17,597.19l-.43-.19-1.2-.61-4.4-2.3c-3.69-2-8.76-4.77-14.3-8s-10.47-6.22-14-8.45L672.63,575l-1.12-.74a2.38,2.38,0,0,1-.38-.28,3,3,0,0,1,.41.22l1.16.69,4.24,2.58c3.58,2.18,8.54,5.16,14.07,8.36s10.58,6,14.25,8l4.34,2.4,1.17.66A2.62,2.62,0,0,1,711.17,597.19Z"/><path class="cls-6" d="M688,579.9a2.93,2.93,0,0,1-.22-1.34,2.9,2.9,0,0,1,.11-1.35,5.57,5.57,0,0,1,.11,2.69Z"/><path class="cls-6" d="M690.53,580c-.09,0-.32-.44-.51-1s-.29-1.11-.2-1.14.32.44.51,1S690.61,580,690.53,580Z"/><path class="cls-6" d="M693,578.47c0,.08-.64-.17-1.33-.56s-1.2-.76-1.16-.84.64.17,1.33.56S693.07,578.39,693,578.47Z"/><path class="cls-6" d="M694.35,577.14a2.69,2.69,0,0,1-1.6-.4c-.84-.4-1.37-.94-1.31-1a9.42,9.42,0,0,1,1.45.72A8.74,8.74,0,0,1,694.35,577.14Z"/><path class="cls-6" d="M700.45,588.36a15.54,15.54,0,0,1-3.64-1.66,15.37,15.37,0,0,1-3.29-2.28c.06-.08,1.54.91,3.45,2S700.49,588.27,700.45,588.36Z"/><path class="cls-6" d="M883.55,560.51l-92.25-87a30.33,30.33,0,0,0-21.68-9.12h0a30.32,30.32,0,0,0-26.33,15.27l-47.2,81.1L726,578l45.45-57.8L817,561.4Z"/><path class="cls-6" d="M910.71,564.88c.39,1.17,3.13,30.89-36.76,30.89H767.38A24.43,24.43,0,0,1,743,571.34h0a24.42,24.42,0,0,1,24.43-24.42h99.23a24.48,24.48,0,0,1,10.28,2.26Z"/><path class="cls-8" d="M758,546.92c0,.23,22,.42,49.16.42s49.17-.19,49.17-.42-22-.43-49.17-.43S758,546.68,758,546.92Z"/><path class="cls-8" d="M774.4,499.91c-.25,0-.26,4.61-1.1,10.2s-2.13,10-1.88,10.09,1.9-4.28,2.72-10S774.62,499.89,774.4,499.91Z"/><path class="cls-8" d="M769.88,499.24c-.23,0-.46,4.71,0,10.49s1.52,10.39,1.74,10.35-.41-4.68-.89-10.42S770.12,499.24,769.88,499.24Z"/><path class="cls-6" d="M852.51,368.41a3.11,3.11,0,0,0,5,2.78c1.82-1.42,1.53-4.25.7-6.4s-2.05-4.38-1.52-6.62c.41-1.71,1.76-3,2.73-4.49a10,10,0,0,0,1.09-8.81,8.37,8.37,0,0,0-6.9-5.35c-3.12-.25-6.6,1.37-9.22-.34-1.9-1.25-2.5-3.78-4.1-5.39-2.48-2.51-6.63-2.17-10-1s-6.62,2.92-10.14,2.74c-2.94-.16-5.63-1.67-8.49-2.36A15.45,15.45,0,0,0,796,357.8c1.43,1.79,4.66,7.15,11.08,5.81"/><path class="cls-24" d="M848.85,344.13l.87,4.62,13.38,69.1c1.56,8-4.1,15.75-12.71,17.34h0c-8.68,1.62-17.1-3.62-18.8-11.7-1.79-8.47-3.83-17.37-3.83-17.37s-11.3.46-16.53-13.33c-2.6-6.86-4.66-18.56-6-28.19a15.37,15.37,0,0,1,13.69-17.48Z"/><path class="cls-6" d="M811.67,371.46a1.86,1.86,0,0,0,2.15,1.48,1.79,1.79,0,0,0,1.54-2,1.88,1.88,0,0,0-2.14-1.48A1.79,1.79,0,0,0,811.67,371.46Z"/><path class="cls-6" d="M809,370.13c.27.19,1.45-1.12,3.41-1.53s3.62.28,3.78,0-.23-.51-1-.84a5.08,5.08,0,0,0-3.08-.29,4.9,4.9,0,0,0-2.66,1.51C809,369.57,808.84,370,809,370.13Z"/><path class="cls-6" d="M830.49,367.64a1.86,1.86,0,0,0,2.14,1.48,1.8,1.8,0,0,0,1.55-2,1.88,1.88,0,0,0-2.15-1.49A1.79,1.79,0,0,0,830.49,367.64Z"/><path class="cls-6" d="M828.4,366.48c.27.19,1.45-1.12,3.41-1.53s3.62.28,3.78,0c.09-.13-.23-.51-1-.84a5.08,5.08,0,0,0-3.08-.29,4.9,4.9,0,0,0-2.66,1.51C828.38,365.92,828.26,366.39,828.4,366.48Z"/><path class="cls-6" d="M824.29,382.55a13.59,13.59,0,0,0-3.32.09c-.51.05-1,.05-1.17-.27a2.67,2.67,0,0,1,0-1.56l.69-4.14c.93-5.87,1.5-10.66,1.26-10.7s-1.18,4.7-2.12,10.58c-.21,1.44-.42,2.82-.62,4.14a3,3,0,0,0,.15,2,1.27,1.27,0,0,0,1,.56,3.33,3.33,0,0,0,.87-.06A12.49,12.49,0,0,0,824.29,382.55Z"/><path class="cls-25" d="M827.76,406.12a37,37,0,0,0,18-9.06s-2.6,10.76-17.15,12.39Z"/><path class="cls-6" d="M830.36,382.71c-.32.05.12,2.19-1.4,4.08s-3.83,2.14-3.79,2.44c0,.14.59.31,1.56.13a5.42,5.42,0,0,0,3.19-1.91,4.72,4.72,0,0,0,1-3.39C830.85,383.15,830.5,382.67,830.36,382.71Z"/><path class="cls-6" d="M826.29,358.87c.3.5,2.21-.17,4.58-.37s4.37,0,4.57-.5c.09-.26-.34-.69-1.2-1.06a8,8,0,0,0-7,.67C826.49,358.13,826.15,358.63,826.29,358.87Z"/><path class="cls-6" d="M808.52,364.28c.44.38,1.7-.37,3.32-.73s3.07-.32,3.3-.86c.09-.25-.22-.66-.91-.95a4.67,4.67,0,0,0-2.86-.17,4.72,4.72,0,0,0-2.48,1.45C808.41,363.6,808.32,364.1,808.52,364.28Z"/><path class="cls-6" d="M803.41,358.38s8.08,2.3,16.92-4.23c5.8-4.29,12.94-7.13,14.79-6.14s3.35,7.48,10,8.29c0,0,1.76,12.58,6.66,11.26s-1-26.06-1-26.06l-13.81,2.11-13.75-.19-12.22,4-9.23,4.35Z"/><path class="cls-6" d="M850.35,337.89c0-.2-1.23-.4-2.5.38s-1.67,2-1.47,2.05.8-.76,1.87-1.4S850.35,338.11,850.35,337.89Z"/><path class="cls-6" d="M845.36,334.55c-.22.06.16,1.51.25,3.24s-.38,3.11-.18,3.2,1.05-1.29.94-3.23S845.53,334.49,845.36,334.55Z"/><path class="cls-24" d="M850.41,362.5c.18-.14,7.66-4.53,9.47,3.77s-6.89,8.41-7,8.17S850.41,362.5,850.41,362.5Z"/><path class="cls-25" d="M854.77,370.74s.17.07.44.13a1.48,1.48,0,0,0,1.08-.21c.81-.52,1.24-2.07,1-3.57a5,5,0,0,0-.86-2,1.71,1.71,0,0,0-1.33-.87.76.76,0,0,0-.77.59c-.06.25,0,.41,0,.43s-.21-.1-.22-.46a1,1,0,0,1,.22-.59,1.14,1.14,0,0,1,.75-.39,2.1,2.1,0,0,1,1.79,1,5.06,5.06,0,0,1,1,2.21c.31,1.68-.21,3.43-1.33,4a1.59,1.59,0,0,1-1.37.07C854.83,370.94,854.74,370.76,854.77,370.74Z"/><path class="cls-8" d="M822.91,367.36c.08,0,.06-.79.43-2.12a8.89,8.89,0,0,1,3.23-4.66,8.45,8.45,0,1,1,0,13.55,8.89,8.89,0,0,1-3.23-4.66c-.37-1.33-.35-2.12-.43-2.11s0,.19-.06.56a6.46,6.46,0,0,0,.17,1.63,8.77,8.77,0,0,0,3.19,5.06,9.13,9.13,0,0,0,13-1.79,9.16,9.16,0,0,0,0-10.93,9.13,9.13,0,0,0-13-1.79,8.77,8.77,0,0,0-3.19,5.06,6.46,6.46,0,0,0-.17,1.63C822.86,367.16,822.88,367.36,822.91,367.36Z"/><path class="cls-8" d="M801.74,371.18c.08,0,.06-.78.43-2.11a8.81,8.81,0,0,1,3.23-4.66,8.46,8.46,0,1,1,0,13.54,8.81,8.81,0,0,1-3.23-4.66c-.37-1.32-.35-2.11-.43-2.11s0,.19-.06.57a6.5,6.5,0,0,0,.17,1.63,8.76,8.76,0,0,0,3.19,5.05,9.11,9.11,0,0,0,13-1.79,9.14,9.14,0,0,0,0-10.92,9.11,9.11,0,0,0-13-1.79,8.74,8.74,0,0,0-3.19,5.06,6.39,6.39,0,0,0-.17,1.62Q801.7,371.18,801.74,371.18Z"/><path class="cls-8" d="M839.54,362.47c0,.23,2.38.43,5.31.44s5.31-.17,5.31-.41-2.37-.43-5.31-.44S839.55,362.23,839.54,362.47Z"/><path class="cls-8" d="M819.38,369.49c.22.1.74-.7,1.71-1s1.83.11,2-.09-.08-.34-.48-.56a2.3,2.3,0,0,0-1.73-.17,2.36,2.36,0,0,0-1.37,1.07C819.26,369.16,819.28,369.45,819.38,369.49Z"/><polygon class="cls-4" points="838.89 546.22 838.89 540.74 760.97 542.34 716.11 470.65 711.99 473.62 757.95 546.92 838.89 546.22"/><path class="cls-24" d="M785,522.33l-3.93,5.81v12s2,.47,2.84-1.16,1.9-7.17,1.9-7.17l1.9,4.91a4.22,4.22,0,0,0,5,2.57l14.44-3.62-5.9-16.89Z"/><path class="cls-22" d="M864.77,406.68s21.57,5.39,28,15.1,13.84,25.81,21.77,57.05c6.93,27.26,12.27,70.79,4.77,81-5.16,7-8.46,8.82-8.46,8.82l-16.64-6a128.76,128.76,0,0,1-43.34-26.08l-25.54-23.3,13.52-10.67s-10.28-55.54-7.55-74.95C833.73,410.73,864.77,406.68,864.77,406.68Z"/><path class="cls-22" d="M859.19,423.42c8.3,2.06,16.29,5.43,27.63,6.38a12.61,12.61,0,0,0,7.66-1.67c7.16-4.42,4.68-12.6.77-18.11-4.15-5.84-10.68-10.87-17.81-10.15,1.36-3.55-.75-7.78-4.07-9.61s-7.48-1.58-11-.25-6.64,3.66-9.66,5.94l-12.2,9.21c-2.73,2.06-5.56,4.23-7.14,7.27s-7.41,15-4.82,17.21c0,0,3.32,1,4.92,0a2.09,2.09,0,0,0,.3-.21C841,423.77,850.25,421.2,859.19,423.42Z"/><path class="cls-22" d="M871.45,433.53l14.26,66.64a23.87,23.87,0,0,1-15.17,27.42l-61.95,11.88-7.73-23.1h0l50.28-15.68-14.75-64.38Z"/><path class="cls-6" d="M886.24,512.85a2.16,2.16,0,0,0-.1.38c-.06.29-.13.67-.23,1.16,0,.25-.11.54-.17.85l-.36,1-.42,1.16c-.22.39-.44.8-.68,1.24a16.6,16.6,0,0,1-5,5.3,28.34,28.34,0,0,1-9.09,4l-61.3,11.21.41.24c-2.55-7.31-5.25-15.05-8-23.1l-.26.51,50.28-15.66.39-.12-.1-.39c-.88-3.43-1.81-7.11-2.76-10.81-2.92-11.67-5.66-23.09-8-34.17-1.17-5.55-2.27-11-3-16.39-.22-1.35-.22-2.68-.34-4a18,18,0,0,1,.44-3.89,16.35,16.35,0,0,1,3.43-6.83,16.79,16.79,0,0,1,13.14-5.88,17.12,17.12,0,0,1,12.2,6.17,32.18,32.18,0,0,1,6.28,11.58,101.75,101.75,0,0,1,2.85,12c3,15.44,5.52,27.95,7.23,36.64.87,4.29,1.54,7.64,2,9.95q.34,1.67.54,2.58c.13.59.21.88.21.88s0-.31-.12-.89-.27-1.49-.46-2.6c-.43-2.32-1.06-5.68-1.85-10l-7-36.69a101.37,101.37,0,0,0-2.81-12.08,32.88,32.88,0,0,0-6.38-11.85,17.89,17.89,0,0,0-12.71-6.45A17.49,17.49,0,0,0,840.64,424a17.11,17.11,0,0,0-3.61,7.16,19.12,19.12,0,0,0-.47,4.08c.12,1.36.12,2.76.34,4.1.77,5.43,1.87,10.9,3,16.46,2.38,11.1,5.11,22.53,8,34.21.95,3.7,1.89,7.38,2.77,10.82l.28-.52L800.74,516l-.39.13.14.38c2.82,8,5.54,15.78,8.11,23.09l.11.3.3-.06c25.36-4.75,46.48-8.62,61.27-11.52a28.23,28.23,0,0,0,9.18-4.11,16.49,16.49,0,0,0,5-5.46l.67-1.27c.14-.42.28-.81.4-1.18s.24-.7.34-1,.1-.61.14-.87q.12-.74.18-1.17A1.65,1.65,0,0,0,886.24,512.85Z"/><path class="cls-6" d="M859.78,509.42c.1,0,.18-.79-.13-2a9.19,9.19,0,0,0-2.5-4.13,9,9,0,0,0-4.23-2.32c-1.22-.27-2-.15-2-.05s.73.23,1.83.63a10.78,10.78,0,0,1,6.32,6.07C859.51,508.69,859.64,509.43,859.78,509.42Z"/><g class="cls-26"><path d="M872.91,432.65c7.45,23.1,12,47.07,14.92,71.17.68,5.56,1.28,11.22.33,16.74s-3.69,11-8.39,14c-4.39,2.85-10,3.28-15.14,2.31s-13.45-2.11-18.18-4.35l27.72-5.71s17.87-1.11,10.2-35.34S872.91,432.65,872.91,432.65Z"/></g><g class="cls-26"><path d="M896.54,427c.11,2.73-.14,6.11-2.63,7.25s-5.32-1-7.39-2.86A119.06,119.06,0,0,0,858.33,412a66,66,0,0,1,38.16,15.42"/></g><path class="cls-6" d="M842.25,418.61c.11.17,2.64-2.13,7.64-4.08a32.24,32.24,0,0,1,9.09-2.07,30,30,0,0,1,11.31,1.23,56.84,56.84,0,0,1,10.53,4.61c3.12,1.69,5.9,3.31,8.29,4.56s4.39,2.18,5.79,2.75a11.62,11.62,0,0,0,2.23.74,14.45,14.45,0,0,0-2.1-1.05c-1.35-.65-3.29-1.64-5.63-3l-8.21-4.72a54,54,0,0,0-10.66-4.74,29.89,29.89,0,0,0-11.61-1.19,31.29,31.29,0,0,0-9.26,2.29,27,27,0,0,0-5.61,3.12,15.72,15.72,0,0,0-1.37,1.08C842.38,418.43,842.23,418.58,842.25,418.61Z"/><path class="cls-6" d="M833.57,422.06c.11.11,2.07-1.85,5.53-4.64A80.28,80.28,0,0,1,870,402.05c4.31-1.09,7-1.48,7-1.63a9.66,9.66,0,0,0-1.94.14,52.44,52.44,0,0,0-5.23.9A71.42,71.42,0,0,0,838.72,417a49.07,49.07,0,0,0-3.87,3.63A9.11,9.11,0,0,0,833.57,422.06Z"/><path class="cls-4" d="M829.43,476a5.47,5.47,0,0,0,.33-1.39c.16-.9.39-2.23.54-3.93a19.86,19.86,0,0,0-.28-6.12,3.53,3.53,0,0,0-2.69-2.76,2.08,2.08,0,0,0-2.11.86,1.89,1.89,0,0,0,.12,2.4l.09.08.12,0a2.65,2.65,0,0,0,2.36-.92,4.25,4.25,0,0,0,1-2.31c.2-1.65.21-3.22.32-4.89.41-7.86.73-15,.92-20.14.07-2.45.13-4.5.18-6.11a11.5,11.5,0,0,0-.05-2.24,10.7,10.7,0,0,0-.28,2.23c-.12,1.6-.27,3.65-.45,6.09-.35,5.15-.77,12.26-1.17,20.13-.11,1.63-.13,3.31-.3,4.8a3.52,3.52,0,0,1-.78,1.88,1.88,1.88,0,0,1-1.61.69l.21.1a1.09,1.09,0,0,1,0-1.38,1.28,1.28,0,0,1,1.34-.54,2.85,2.85,0,0,1,2.15,2.2,20.74,20.74,0,0,1,.43,5.9C829.61,474,829.31,476,829.43,476Z"/><path class="cls-6" d="M856.37,530.23a15.32,15.32,0,0,0,2,1.89c1.32,1.18,3.29,2.82,5.77,4.79a180.34,180.34,0,0,0,20.42,14,172.68,172.68,0,0,0,22.17,11c2.93,1.2,5.34,2.09,7,2.65a15.84,15.84,0,0,0,2.63.8,19.1,19.1,0,0,0-2.52-1.11c-1.64-.65-4-1.63-6.89-2.89a205.43,205.43,0,0,1-22-11.16,217,217,0,0,1-20.48-13.71c-2.52-1.9-4.54-3.46-5.93-4.56A17.53,17.53,0,0,0,856.37,530.23Z"/><path class="cls-6" d="M906.33,567.52c.19.15,1.17-.84,2.19-2.19s1.7-2.57,1.51-2.72-1.17.85-2.19,2.2S906.14,567.38,906.33,567.52Z"/><path class="cls-6" d="M896.43,563.34c.13.19,1.49-.58,2.75-2s1.91-2.81,1.71-2.93-1.12,1-2.34,2.36S896.28,563.15,896.43,563.34Z"/><path class="cls-6" d="M884,559.24c.18.15,1.55-1.11,3.07-2.83s2.6-3.24,2.43-3.4-1.55,1.11-3.07,2.83S883.81,559.08,884,559.24Z"/><path class="cls-6" d="M870.64,552.15c.18.15,1.65-1.32,3.27-3.29s2.8-3.68,2.62-3.83-1.65,1.32-3.28,3.29S870.46,552,870.64,552.15Z"/><path class="cls-6" d="M858.24,542.87c.16.18,1.73-1,3.5-2.59s3.09-3,2.93-3.22-1.72,1-3.5,2.59S858.08,542.7,858.24,542.87Z"/><path class="cls-6" d="M1152.44,597.07c0,.26-258,.47-576.19.47S0,597.33,0,597.07s258-.47,576.25-.47S1152.44,596.81,1152.44,597.07Z"/></svg>