<svg id="Capa_2" data-name="Capa 2" xmlns="http://www.w3.org/2000/svg" xmlns:xlink="http://www.w3.org/1999/xlink" viewBox="0 0 1152.44 609.84"><defs><style>.cls-1{fill:none;}.cls-2{fill:#ececec;}.cls-3{fill:#e1e1e1;}.cls-4{fill:#fafafa;}.cls-5{fill:#f5f5f5;}.cls-6{fill:#375a64;}.cls-7{fill:#1a2e35;}.cls-8{fill:#ff725e;}.cls-9{fill:#fff;}.cls-10{opacity:0.6;}.cls-11{opacity:0.3;}.cls-12{fill:#a0ddf2;}.cls-13{fill:#00499a;}.cls-14{fill:#ffbf9d;}.cls-15{fill:#ff9a6c;}.cls-16{fill:#1a7fcd;}.cls-17{fill:#c17560;}.cls-18{fill:#7c4236;}.cls-19{fill:#00cf88;}.cls-20{clip-path:url(#clip-path);}.cls-21{fill:#ce7f6d;}.cls-22{fill:#008db8;}.cls-23{fill:#985047;}</style><clipPath id="clip-path"><rect class="cls-1" x="148.28" y="-506.89" width="253.82" height="392.55"/></clipPath></defs><title>ugiland - casos de exito</title><path class="cls-2" d="M1038.3,199.79a36.13,36.13,0,0,1,8.88-3.86l1.83-8.8,14.87-.26,2.14,8.72a36.57,36.57,0,0,1,9,3.55l7.51-4.92,10.69,10.32-4.65,7.68a37,37,0,0,1,3.86,8.89l8.79,1.83.27,14.87-8.73,2.14a36.35,36.35,0,0,1-3.55,9l4.92,7.52-10.32,10.69-7.68-4.66a36.45,36.45,0,0,1-8.89,3.87l-1.83,8.79-14.86.26-2.14-8.72a36.42,36.42,0,0,1-9-3.55l-7.51,4.92-10.7-10.32,4.66-7.68a36,36,0,0,1-3.86-8.89l-8.8-1.83-.26-14.86,8.73-2.14a36.39,36.39,0,0,1,3.54-9l-4.92-7.51,10.33-10.7,7.68,4.66Zm7.92,19.8a15.94,15.94,0,1,0,22.55-.4A15.94,15.94,0,0,0,1046.22,219.59Z"/><path class="cls-3" d="M247.67,244.12a5,5,0,0,1,.59-.42l1.78-1.16a31.24,31.24,0,0,0,2.83-2c1.09-.83,2.37-1.74,3.68-2.94l2.1-1.85,2.18-2.2a32.48,32.48,0,0,0,2.27-2.48c.75-.9,1.6-1.78,2.32-2.81a65.86,65.86,0,0,0,13.72-34.61,63,63,0,0,0,0-11.49A114.84,114.84,0,0,0,277,170.13c-1.73-8.16-4-16.88-3.34-26.15s4.39-18.31,9.28-26.68,10.67-16.13,17.81-22a44.44,44.44,0,0,1,11.61-7A51.4,51.4,0,0,1,325,85.21c8.4-1,16.43-.58,23.88-.38s14.43.2,20.67-.84a41.51,41.51,0,0,0,15.92-5.72,31.25,31.25,0,0,0,9.3-8.75,22.89,22.89,0,0,0,3.43-7.33c.48-1.8.57-2.79.63-2.78a15.93,15.93,0,0,1-.46,2.82A22.45,22.45,0,0,1,395,69.7a31.28,31.28,0,0,1-9.32,9,41.94,41.94,0,0,1-16.08,5.92c-6.3,1.08-13.32,1.15-20.79,1s-15.46-.6-23.76.45a51,51,0,0,0-12.38,3.11A43.61,43.61,0,0,0,301.32,96c-7,5.78-12.7,13.49-17.61,21.79s-8.5,17.23-9.18,26.3,1.55,17.74,3.27,25.93a111.53,111.53,0,0,1,2.05,12.14,62.63,62.63,0,0,1,0,11.62,65.83,65.83,0,0,1-14.06,34.85c-.73,1-1.59,1.9-2.36,2.8a30.84,30.84,0,0,1-2.31,2.48L258.91,236l-2.15,1.83a40.77,40.77,0,0,1-3.74,2.89,26,26,0,0,1-2.89,1.92l-1.82,1.1A3.53,3.53,0,0,1,247.67,244.12Z"/><path class="cls-3" d="M206.31,203s.09-.24.3-.68.56-1.14,1-2,1.08-1.88,1.79-3.1,1.65-2.56,2.8-4a56.1,56.1,0,0,1,9.34-9.57,56.88,56.88,0,0,1,15.31-8.88,57.94,57.94,0,0,1,9.95-2.77,75.09,75.09,0,0,1,11.15-1c7.72-.23,16,.41,24.58-.1a59.74,59.74,0,0,0,13-2.2,56.83,56.83,0,0,0,12.61-5.46A63.91,63.91,0,0,0,329,143.41a72.43,72.43,0,0,0,10.62-26.8,88.19,88.19,0,0,0,.74-26.94c-1.09-8.57-3.18-16.56-4.38-24.2s-1.56-14.93-.3-21.43a46,46,0,0,1,6.69-16.37,45.21,45.21,0,0,1,15.77-14.85l2-1c.44-.22.68-.31.68-.31s-.21.14-.65.39L358.18,13a49.74,49.74,0,0,0-6.81,4.92,47.33,47.33,0,0,0-8.65,10,45.86,45.86,0,0,0-6.5,16.22c-1.2,6.41-.86,13.64.41,21.21s3.34,15.57,4.46,24.21a88,88,0,0,1-.7,27.2,72.76,72.76,0,0,1-10.73,27.11,64.38,64.38,0,0,1-21.12,20.06,56.86,56.86,0,0,1-12.8,5.52,59.82,59.82,0,0,1-13.18,2.2c-8.7.5-16.94-.17-24.62,0a73.48,73.48,0,0,0-11,1,56.89,56.89,0,0,0-34.45,20.77c-1.17,1.41-2,2.79-2.86,3.93s-1.38,2.2-1.85,3-.8,1.46-1.05,1.93S206.31,203,206.31,203Z"/><path class="cls-3" d="M341.82,27.22a14.65,14.65,0,0,1,2.34,1.36c1.47.91,3.57,2.3,6.13,4.06A234.56,234.56,0,0,1,387,64.27c2.12,2.26,3.81,4.13,4.93,5.45a16.62,16.62,0,0,1,1.69,2.11A16.79,16.79,0,0,1,391.7,70l-5.12-5.26c-4.35-4.42-10.51-10.36-17.67-16.54s-14-11.37-19-15l-6-4.29A16.6,16.6,0,0,1,341.82,27.22Z"/><path class="cls-3" d="M335.81,43.48A11.31,11.31,0,0,1,337.54,45l4.55,4.39c3.85,3.69,9.24,8.72,15.4,14s11.92,9.91,16.14,13.17l5,3.86A12.72,12.72,0,0,1,380.41,82a11.49,11.49,0,0,1-2-1.22c-1.25-.82-3-2.07-5.18-3.64-4.32-3.15-10.15-7.69-16.33-13s-11.52-10.44-15.26-14.25c-1.88-1.91-3.37-3.47-4.37-4.58A11.68,11.68,0,0,1,335.81,43.48Z"/><path class="cls-3" d="M337.81,63.41a26.12,26.12,0,0,1,3.92,2.87c2.35,1.87,5.53,4.53,9,7.55s6.47,5.85,8.62,7.93a25.35,25.35,0,0,1,3.34,3.53,28.86,28.86,0,0,1-3.75-3.08l-8.78-7.74-8.78-7.72A29,29,0,0,1,337.81,63.41Z"/><path class="cls-3" d="M322.71,87.36a17.15,17.15,0,0,1,3,2.18l6.93,5.53,7,5.44a16.84,16.84,0,0,1,2.82,2.38,15,15,0,0,1-3.17-1.89c-1.89-1.27-4.44-3.11-7.17-5.26S327,91.54,325.29,90A14.28,14.28,0,0,1,322.71,87.36Z"/><path class="cls-3" d="M304.77,94.61c.09-.09,1.88,1.65,4.87,4.36s7.19,6.36,12.07,10.09,9.53,6.82,12.94,9,5.57,3.42,5.5,3.53a6.84,6.84,0,0,1-1.61-.71c-1-.5-2.45-1.29-4.2-2.3a128.46,128.46,0,0,1-13.14-8.81,129.83,129.83,0,0,1-12-10.33c-1.44-1.41-2.58-2.59-3.34-3.44A7,7,0,0,1,304.77,94.61Z"/><path class="cls-3" d="M293.4,108.23c.14-.18,9,6.37,19.78,14.64s19.4,15.13,19.26,15.32-9-6.37-19.79-14.64S293.25,108.42,293.4,108.23Z"/><path class="cls-3" d="M279.62,120.59a10.45,10.45,0,0,1,1.73,1.25l4.54,3.61c3.83,3,9.15,7.24,15.12,11.72s11.48,8.42,15.49,11.24l4.73,3.35a9.54,9.54,0,0,1,1.68,1.31,10.31,10.31,0,0,1-1.86-1c-1.18-.71-2.85-1.78-4.9-3.13-4.09-2.7-9.66-6.56-15.65-11s-11.26-8.76-15-11.94c-1.87-1.59-3.36-2.9-4.37-3.83A9.38,9.38,0,0,1,279.62,120.59Z"/><path class="cls-3" d="M275.45,138.37c.15-.19,7.67,5.38,16.81,12.42s16.44,12.91,16.3,13.1-7.68-5.37-16.82-12.42S275.31,138.56,275.45,138.37Z"/><path class="cls-3" d="M271.48,156.93c.14-.2,4.52,2.5,9.79,6s9.45,6.55,9.32,6.74-4.52-2.5-9.79-6S271.35,157.12,271.48,156.93Z"/><path class="cls-3" d="M252.29,174.67a27.15,27.15,0,0,1,4.4,2.49c2.65,1.65,6.24,4,10.11,6.8s7.28,5.42,9.7,7.4a28,28,0,0,1,3.77,3.36,30.58,30.58,0,0,1-4.14-2.88c-2.51-1.85-6-4.41-9.82-7.18s-7.4-5.22-9.95-7A32.69,32.69,0,0,1,252.29,174.67Z"/><path class="cls-3" d="M235.52,175a9.89,9.89,0,0,1,1.77,1.21c1.11.82,2.68,2,4.59,3.58,3.84,3.08,9,7.46,14.59,12.52s10.39,9.82,13.82,13.35c1.71,1.77,3.07,3.22,4,4.24a10.54,10.54,0,0,1,1.37,1.65,9.89,9.89,0,0,1-1.61-1.42l-4.18-4c-3.53-3.42-8.43-8.1-14-13.15s-10.66-9.49-14.39-12.68l-4.42-3.79A11,11,0,0,1,235.52,175Z"/><path class="cls-3" d="M221.45,187.46a12.9,12.9,0,0,1,1.91,1.34c1.19.9,2.9,2.24,5,3.91,4.17,3.34,9.88,8,16.08,13.36s11.71,10.25,15.65,13.87c2,1.81,3.55,3.29,4.62,4.34a11.27,11.27,0,0,1,1.61,1.68,12.3,12.3,0,0,1-1.83-1.44l-4.8-4.13-15.81-13.67L228,193.18l-4.81-4.12A11.94,11.94,0,0,1,221.45,187.46Z"/><rect class="cls-2" x="882.33" y="302.09" width="136.43" height="260.35" rx="5.21" transform="translate(-92.74 476.39) rotate(-26.88)"/><circle class="cls-4" cx="885.18" cy="371.62" r="9.97" transform="translate(-56.73 557.24) rotate(-33.92)"/><circle class="cls-4" cx="936.92" cy="345.4" r="9.97" transform="matrix(0.94, -0.35, 0.35, 0.94, -61.63, 348.17)"/><path class="cls-4" d="M918.45,415.22a10,10,0,1,1-13.4-4.39A10,10,0,0,1,918.45,415.22Z"/><circle class="cls-4" cx="961.3" cy="393.5" r="9.97" transform="matrix(0.03, -1, 1, 0.03, 535.47, 1340.92)"/><path class="cls-4" d="M942.83,463.32a10,10,0,1,1-13.4-4.38A10,10,0,0,1,942.83,463.32Z"/><path class="cls-4" d="M994.58,437.1a10,10,0,1,1-13.41-4.39A10,10,0,0,1,994.58,437.1Z"/><path class="cls-4" d="M967.21,511.43a10,10,0,1,1-13.4-4.39A10,10,0,0,1,967.21,511.43Z"/><path class="cls-4" d="M1019,485.21a10,10,0,1,1-13.4-4.39A10,10,0,0,1,1019,485.21Z"/><path class="cls-3" d="M888,362.56c.21.07-1,4.11-2.65,9s-3.2,8.83-3.41,8.76,1-4.11,2.66-9S887.82,362.49,888,362.56Z"/><path class="cls-3" d="M938.63,336.45c.21.07-1,4.1-2.65,9s-3.2,8.82-3.41,8.75,1-4.1,2.66-9S938.43,336.38,938.63,336.45Z"/><path class="cls-3" d="M912.91,410.6c.21.06-.76,4.25-2.16,9.37s-2.7,9.22-2.92,9.16.76-4.25,2.16-9.37S912.69,410.54,912.91,410.6Z"/><path class="cls-3" d="M964,384.35c.21,0-.56,4.12-1.72,9.08s-2.28,8.94-2.49,8.89.55-4.11,1.72-9.07S963.76,384.3,964,384.35Z"/><path class="cls-3" d="M935.63,458.72c.22.06-.67,3.9-2,8.59s-2.53,8.43-2.74,8.37.67-3.9,2-8.59S935.42,458.66,935.63,458.72Z"/><path class="cls-3" d="M988.82,433.16c.21.08-1,3.9-2.65,8.54S983,450,982.78,450s1-3.89,2.65-8.53S988.62,433.09,988.82,433.16Z"/><path class="cls-3" d="M961.59,507.33c.21.08-1.1,4.05-2.91,8.88s-3.45,8.68-3.66,8.6,1.1-4,2.92-8.88S961.39,507.25,961.59,507.33Z"/><path class="cls-3" d="M1013,479.5c.21.05-.73,4.5-2.11,9.95s-2.65,9.81-2.87,9.75.73-4.5,2.11-9.95S1012.77,479.44,1013,479.5Z"/><path class="cls-3" d="M1037.56,510.19c.1.19-15.72,8.41-35.34,18.35s-35.6,17.85-35.7,17.65,15.72-8.41,35.34-18.36S1037.46,510,1037.56,510.19Z"/><path class="cls-3" d="M934.88,317.44c.1.2-15.72,8.42-35.34,18.36s-35.6,17.84-35.7,17.65,15.72-8.41,35.34-18.36S934.79,317.25,934.88,317.44Z"/><path class="cls-3" d="M901.86,345.43a.51.51,0,0,1-.28.06l-.11,0-.05,0v0h0l.71-.36h0c.06.13,0,.31-.24.41a.36.36,0,0,1-.47-.05h0l.71-.36h0v.09a.36.36,0,0,1,0,.11A.54.54,0,0,1,901.86,345.43Z"/><path class="cls-3" d="M999.56,529c-.2.1-22.41-43.34-49.61-97s-49.1-97.28-48.9-97.38,22.4,43.33,49.61,97S999.75,528.88,999.56,529Z"/><path class="cls-5" d="M795.36,31.2a29.06,29.06,0,0,1,7.16-3.11L804,21l12-.21,1.73,7A29.33,29.33,0,0,1,825,30.68l6.06-4L839.66,35l-3.75,6.19A29.44,29.44,0,0,1,839,48.39l7.09,1.48.21,12-7,1.73a29.33,29.33,0,0,1-2.86,7.27l4,6.06-8.33,8.62-6.19-3.75a29.51,29.51,0,0,1-7.17,3.11L817.24,92l-12,.21-1.72-7a29.33,29.33,0,0,1-7.27-2.86l-6.06,4-8.63-8.33,3.76-6.19a29.54,29.54,0,0,1-3.12-7.17l-7.09-1.47-.21-12,7-1.72a29.33,29.33,0,0,1,2.86-7.27l-4-6.06,8.32-8.62,6.2,3.75Zm6.39,16a12.86,12.86,0,1,0,18.18-.32A12.85,12.85,0,0,0,801.75,47.17Z"/><path class="cls-5" d="M801.75,47.17a9.74,9.74,0,0,1,2.39-2.11,13,13,0,0,1,14.09,0,13.06,13.06,0,0,1,4.61,5.19A12.23,12.23,0,0,1,824,53.91a12.5,12.5,0,0,1,.07,4,13.12,13.12,0,0,1-10.85,11.24,12.27,12.27,0,0,1-4,.07,12.6,12.6,0,0,1-3.65-1,13.21,13.21,0,0,1-5.35-4.43,13,13,0,0,1-.54-14.08,9.51,9.51,0,0,1,2-2.46,29.54,29.54,0,0,0-1.77,2.6A12.86,12.86,0,0,0,798.56,58a12.57,12.57,0,0,0,2.2,5.35,12.84,12.84,0,0,0,5.14,4.16,12.62,12.62,0,0,0,7.21.88,12.48,12.48,0,0,0,10.26-10.63,12,12,0,0,0,0-3.74,11.86,11.86,0,0,0-1.09-3.43,12.6,12.6,0,0,0-4.34-5,12.41,12.41,0,0,0-5.42-2,12.8,12.8,0,0,0-8.18,1.71A28,28,0,0,0,801.75,47.17Z"/><path class="cls-5" d="M795.36,31.2A2.44,2.44,0,0,1,795,31l-1.19-.69-4.67-2.75.15,0L781,36.2l0-.23,4,6,.07.11-.06.11a29.28,29.28,0,0,0-2.82,7.22l0,.15-.14,0-7,1.75.2-.26c.08,3.77.16,7.78.24,12l-.23-.28,7.1,1.46.18,0,0,.18a29.67,29.67,0,0,0,3.09,7.09l.1.16-.1.17-3.74,6.19-.06-.4L790.44,86,790,86l6-4,.18-.11.19.1a28.81,28.81,0,0,0,7.18,2.82l.21,0,0,.21c.54,2.21,1.14,4.61,1.73,7l-.36-.28,12-.21-.35.29c.46-2.24,1-4.66,1.47-7.09l0-.22.21-.06a29.16,29.16,0,0,0,7.07-3.07h0l.19-.11.19.11,6.19,3.76-.45.06,8.32-8.63,0,.46-4-6.06-.12-.18.11-.19a29.23,29.23,0,0,0,2.83-7.19l0-.21.21-.05,7-1.72-.27.35q-.09-6.13-.2-12l.27.32L839,48.72l-.19,0-.06-.2a29,29,0,0,0-3.07-7.09l-.1-.16.1-.17,3.77-6.18.05.38-8.61-8.35.35,0-6.06,3.95L825,31l-.14-.08a29.43,29.43,0,0,0-7.2-2.86l-.14,0,0-.14c-.61-2.56-1.17-4.87-1.7-7L816,21l-12,.16.16-.13c-.61,2.83-1.11,5.15-1.52,7.08l0,.07-.06,0a30.63,30.63,0,0,0-5.48,2.11l-1.29.67a3.78,3.78,0,0,1-.43.22,3.22,3.22,0,0,1,.4-.27c.27-.17.69-.42,1.26-.73A28.38,28.38,0,0,1,802.49,28l-.08.09,1.43-7.1,0-.13H804l12-.27h.17l.05.17c.54,2.17,1.11,4.48,1.74,7l-.17-.18a29.88,29.88,0,0,1,7.34,2.87h-.27l6-4,.19-.12.16.16,8.64,8.3.18.17-.13.21c-1.21,2-2.46,4.08-3.74,6.2v-.33a29.76,29.76,0,0,1,3.16,7.24l-.25-.23,7.09,1.47.27.05v.28q.12,5.84.23,12v.28l-.27.07-7,1.73.26-.26A29.8,29.8,0,0,1,836.74,71v-.38l4,6.06.16.24-.2.21-8.32,8.63-.21.21-.25-.15-6.19-3.76h.37a30.26,30.26,0,0,1-7.25,3.15l.26-.28c-.51,2.43-1,4.85-1.48,7.09l-.06.29h-.29l-12,.21H805l-.07-.28c-.59-2.43-1.18-4.83-1.72-7l.26.26a29.66,29.66,0,0,1-7.35-2.9h.36l-6.06,4-.23.15-.2-.19-8.61-8.33-.19-.18.13-.23,3.77-6.18v.32a29.88,29.88,0,0,1-3.14-7.24l.23.21-7.09-1.49-.22,0v-.23c-.06-4.2-.12-8.21-.18-12v-.21l.2-.05,7-1.71-.18.18A29.83,29.83,0,0,1,784.62,42v.22l-4-6.07-.08-.12.1-.11,8.38-8.58.07-.06.07,0,4.57,2.84,1.17.75Z"/><path class="cls-6" d="M208,113.74H894.19a6.74,6.74,0,0,1,6.74,6.74v442a14.57,14.57,0,0,1-14.57,14.57H214.82a14.57,14.57,0,0,1-14.57-14.57v-441A7.75,7.75,0,0,1,208,113.74Z"/><path class="cls-6" d="M171,542.82H930.08a0,0,0,0,1,0,0v26.82a13.72,13.72,0,0,1-13.72,13.72H184.67A13.72,13.72,0,0,1,171,569.64V542.82A0,0,0,0,1,171,542.82Z"/><rect class="cls-3" x="219.06" y="132.15" width="661.1" height="391.29"/><polygon class="cls-7" points="481.52 542.82 490.94 557.81 623.49 557.81 632.24 542.82 481.52 542.82"/><rect class="cls-7" x="238.68" y="154.82" width="623.46" height="368.62"/><path class="cls-3" d="M286.51,512.63c-.32,0-.59-78.51-.59-175.34s.27-175.35.59-175.35.58,78.5.58,175.35S286.83,512.63,286.51,512.63Z"/><path class="cls-3" d="M273.93,193.73c0,.32-4.53.58-10.12.58s-10.13-.26-10.13-.58,4.53-.58,10.13-.58S273.93,193.41,273.93,193.73Z"/><path class="cls-3" d="M274.71,173.83c0,.32-4.53.59-10.12.59s-10.13-.27-10.13-.59,4.53-.58,10.13-.58S274.71,173.51,274.71,173.83Z"/><path class="cls-3" d="M273.93,215.18c0,.32-4.53.58-10.12.58s-10.13-.26-10.13-.58,4.53-.59,10.13-.59S273.93,214.86,273.93,215.18Z"/><path class="cls-3" d="M273.93,236.63c0,.32-4.53.58-10.12.58s-10.13-.26-10.13-.58,4.53-.59,10.13-.59S273.93,236.3,273.93,236.63Z"/><path class="cls-3" d="M273.93,258.08c0,.32-4.53.58-10.12.58s-10.13-.26-10.13-.58,4.53-.59,10.13-.59S273.93,257.75,273.93,258.08Z"/><path class="cls-3" d="M273.93,279.52c0,.33-4.53.59-10.12.59s-10.13-.26-10.13-.59,4.53-.58,10.13-.58S273.93,279.2,273.93,279.52Z"/><path class="cls-3" d="M273.93,301c0,.33-4.53.59-10.12.59s-10.13-.26-10.13-.59,4.53-.58,10.13-.58S273.93,300.65,273.93,301Z"/><path class="cls-3" d="M273.93,322.42c0,.32-4.53.59-10.12.59s-10.13-.27-10.13-.59,4.53-.58,10.13-.58S273.93,322.1,273.93,322.42Z"/><path class="cls-3" d="M273.93,343.87c0,.32-4.53.58-10.12.58s-10.13-.26-10.13-.58,4.53-.59,10.13-.59S273.93,343.55,273.93,343.87Z"/><path class="cls-3" d="M273.93,365.32c0,.32-4.53.58-10.12.58s-10.13-.26-10.13-.58,4.53-.59,10.13-.59S273.93,365,273.93,365.32Z"/><path class="cls-3" d="M273.93,386.77c0,.32-4.53.58-10.12.58s-10.13-.26-10.13-.58,4.53-.59,10.13-.59S273.93,386.44,273.93,386.77Z"/><path class="cls-3" d="M273.93,408.21c0,.33-4.53.59-10.12.59s-10.13-.26-10.13-.59,4.53-.58,10.13-.58S273.93,407.89,273.93,408.21Z"/><path class="cls-3" d="M273.93,429.66c0,.33-4.53.59-10.12.59s-10.13-.26-10.13-.59,4.53-.58,10.13-.58S273.93,429.34,273.93,429.66Z"/><path class="cls-3" d="M273.93,451.11c0,.32-4.53.59-10.12.59s-10.13-.27-10.13-.59,4.53-.58,10.13-.58S273.93,450.79,273.93,451.11Z"/><path class="cls-3" d="M273.93,472.56c0,.32-4.53.58-10.12.58s-10.13-.26-10.13-.58,4.53-.59,10.13-.59S273.93,472.24,273.93,472.56Z"/><path class="cls-3" d="M273.93,494c0,.32-4.53.58-10.12.58s-10.13-.26-10.13-.58,4.53-.59,10.13-.59S273.93,493.69,273.93,494Z"/><path class="cls-8" d="M355.12,494c0,.32-11.77.58-26.28.58s-26.29-.26-26.29-.58,11.77-.59,26.29-.59S355.12,493.69,355.12,494Z"/><path class="cls-8" d="M373.29,190.52c0,.32-11.77.58-26.28.58s-26.29-.26-26.29-.58,11.77-.59,26.29-.59S373.29,190.2,373.29,190.52Z"/><path class="cls-8" d="M428.32,236.63c0,.32-22,.58-49.17.58S330,237,330,236.63s22-.59,49.18-.59S428.32,236.3,428.32,236.63Z"/><path class="cls-3" d="M542.05,236.63c0,.32-22,.58-49.18.58s-49.17-.26-49.17-.58,22-.59,49.17-.59S542.05,236.3,542.05,236.63Z"/><path class="cls-3" d="M498.58,258.08c0,.32-32.45.58-72.46.58s-72.48-.26-72.48-.58,32.44-.59,72.48-.59S498.58,257.75,498.58,258.08Z"/><path class="cls-3" d="M498.58,279.52c0,.33-32.45.59-72.46.59s-72.48-.26-72.48-.59,32.44-.58,72.48-.58S498.58,279.2,498.58,279.52Z"/><path class="cls-3" d="M598.35,343.87c0,.32-32.45.58-72.46.58s-72.48-.26-72.48-.58,32.44-.59,72.48-.59S598.35,343.55,598.35,343.87Z"/><path class="cls-3" d="M555.3,301c0,.33-32.45.59-72.47.59s-72.47-.26-72.47-.59,32.44-.58,72.47-.58S555.3,300.65,555.3,301Z"/><path class="cls-3" d="M732.42,301c0,.33-32.45.59-72.46.59s-72.48-.26-72.48-.59,32.44-.58,72.48-.58S732.42,300.65,732.42,301Z"/><path class="cls-4" d="M670.83,258.08c0,.32-32.45.58-72.47.58s-72.48-.26-72.48-.58,32.44-.59,72.48-.59S670.83,257.75,670.83,258.08Z"/><path class="cls-4" d="M771,343.87c0,.32-32.45.58-72.47.58s-72.48-.26-72.48-.58,32.44-.59,72.48-.59S771,343.55,771,343.87Z"/><path class="cls-6" d="M751,279.52c0,.33-50.39.59-112.53.59s-112.54-.26-112.54-.59,50.38-.58,112.54-.58S751,279.2,751,279.52Z"/><path class="cls-4" d="M355.12,472.56c0,.32-11.77.58-26.28.58s-26.29-.26-26.29-.58,11.77-.59,26.29-.59S355.12,472.24,355.12,472.56Z"/><path class="cls-4" d="M381.16,301c0,.33-11.77.59-26.28.59s-26.29-.26-26.29-.59,11.77-.58,26.29-.58S381.16,300.65,381.16,301Z"/><path class="cls-8" d="M802.45,301c0,.33-11.76.59-26.28.59s-26.28-.26-26.28-.59,11.76-.58,26.28-.58S802.45,300.65,802.45,301Z"/><path class="cls-8" d="M428.32,386.64c0,.32-22,.58-49.17.58S330,387,330,386.64s22-.59,49.18-.59S428.32,386.32,428.32,386.64Z"/><path class="cls-3" d="M542.05,386.64c0,.32-22,.58-49.18.58s-49.17-.26-49.17-.58,22-.59,49.17-.59S542.05,386.32,542.05,386.64Z"/><path class="cls-3" d="M498.58,408.09c0,.32-32.45.58-72.46.58s-72.48-.26-72.48-.58,32.44-.59,72.48-.59S498.58,407.77,498.58,408.09Z"/><path class="cls-3" d="M498.58,429.54c0,.32-32.45.58-72.46.58s-72.48-.26-72.48-.58,32.44-.59,72.48-.59S498.58,429.21,498.58,429.54Z"/><path class="cls-3" d="M555.3,451c0,.33-32.45.59-72.47.59s-72.47-.26-72.47-.59,32.44-.58,72.47-.58S555.3,450.66,555.3,451Z"/><path class="cls-3" d="M732.42,451c0,.33-32.45.59-72.46.59s-72.48-.26-72.48-.59,32.44-.58,72.48-.58S732.42,450.66,732.42,451Z"/><path class="cls-3" d="M524.61,472c0,.32-32.45.58-72.46.58s-72.48-.26-72.48-.58,32.44-.59,72.48-.59S524.61,471.69,524.61,472Z"/><path class="cls-3" d="M474.46,209.58c0,.33-32.45.59-72.47.59s-72.48-.26-72.48-.59S362,209,402,209,474.46,209.26,474.46,209.58Z"/><path class="cls-4" d="M670.83,408.09c0,.32-32.45.58-72.47.58s-72.48-.26-72.48-.58,32.44-.59,72.48-.59S670.83,407.77,670.83,408.09Z"/><path class="cls-6" d="M751,429.54c0,.32-50.39.58-112.53.58s-112.54-.26-112.54-.58,50.38-.59,112.54-.59S751,429.21,751,429.54Z"/><path class="cls-4" d="M381.16,451c0,.33-11.77.59-26.28.59s-26.29-.26-26.29-.59,11.77-.58,26.29-.58S381.16,450.66,381.16,451Z"/><path class="cls-8" d="M802.45,451c0,.33-11.76.59-26.28.59s-26.28-.26-26.28-.59,11.76-.58,26.28-.58S802.45,450.66,802.45,451Z"/><polygon class="cls-4" points="386.87 69.88 386.87 428.57 709.21 428.57 749.3 428.57 981.06 428.57 981.06 69.88 386.87 69.88"/><rect class="cls-3" x="386.86" y="69.88" width="594.2" height="26.51"/><circle class="cls-7" cx="402.1" cy="83.61" r="3.44"/><path class="cls-7" d="M418.36,83.61a3.45,3.45,0,1,1-3.44-3.45A3.44,3.44,0,0,1,418.36,83.61Z"/><circle class="cls-7" cx="427.73" cy="83.61" r="3.44"/><path class="cls-7" d="M674.88,127c0,.2-12.12.36-27.08.36s-27.08-.16-27.08-.36,12.12-.36,27.08-.36S674.88,126.76,674.88,127Z"/><path class="cls-8" d="M746.93,127c0,.2-12.13.36-27.08.36s-27.09-.16-27.09-.36,12.13-.36,27.09-.36S746.93,126.76,746.93,127Z"/><path class="cls-7" d="M819,127c0,.2-12.13.36-27.08.36s-27.08-.16-27.08-.36,12.12-.36,27.08-.36S819,126.76,819,127Z"/><path class="cls-7" d="M891.65,127c0,.2-12.12.36-27.08.36s-27.08-.16-27.08-.36,12.12-.36,27.08-.36S891.65,126.76,891.65,127Z"/><path class="cls-7" d="M954.79,135.57s.46,0,1.29-.22a6,6,0,0,0,3.12-1.91,5.69,5.69,0,0,0,1.23-2.33,11.51,11.51,0,0,0,.2-3.18c-.15-2.27.53-5.22-1.52-7.38a5.77,5.77,0,0,0-3.86-1.9c-1.55,0-3.25,0-5,0l-11,0-25.27,0a5.72,5.72,0,0,0-5.06,3.1,5.84,5.84,0,0,0-.62,3c0,1.07,0,2.14,0,3.2a11.92,11.92,0,0,0,.2,3,5.64,5.64,0,0,0,1.42,2.49,5.77,5.77,0,0,0,2.4,1.47,9.12,9.12,0,0,0,2.83.26l20.63.08,13.91.11,3.78.07,1,0,.34,0a1.18,1.18,0,0,1-.34,0l-1,0-3.78.07-13.91.11-20.63.08a9.92,9.92,0,0,1-3-.27,6.43,6.43,0,0,1-2.69-1.64,6.44,6.44,0,0,1-1.83-4.42v-4.78a6.66,6.66,0,0,1,.7-3.31A6.43,6.43,0,0,1,914,118l25.27,0,11,0c1.74,0,3.37,0,5,0a6.25,6.25,0,0,1,4.19,2.11,6.18,6.18,0,0,1,1.55,4c0,1.32,0,2.57,0,3.74a11.65,11.65,0,0,1-.27,3.28,5.87,5.87,0,0,1-1.36,2.42,6,6,0,0,1-3.29,1.87A4.27,4.27,0,0,1,954.79,135.57Z"/><rect class="cls-3" x="434.67" y="117.34" width="85.79" height="22.51" rx="6.9"/><path class="cls-7" d="M547.82,333.06c0,.24-21.25.43-47.46.43s-47.46-.19-47.46-.43,21.25-.42,47.46-.42S547.82,332.83,547.82,333.06Z"/><path class="cls-7" d="M566.82,347.23c0,.23-29,.42-64.74.42s-64.74-.19-64.74-.42,29-.43,64.74-.43S566.82,347,566.82,347.23Z"/><path class="cls-7" d="M566.82,360.94c0,.23-29,.42-64.74.42s-64.74-.19-64.74-.42,29-.43,64.74-.43S566.82,360.7,566.82,360.94Z"/><path class="cls-7" d="M566.82,374.65c0,.23-29,.42-64.74.42s-64.74-.19-64.74-.42,29-.43,64.74-.43S566.82,374.41,566.82,374.65Z"/><path class="cls-7" d="M490.77,388.36c0,.23-12,.42-26.71.42s-26.72-.19-26.72-.42,12-.43,26.72-.43S490.77,388.12,490.77,388.36Z"/><path class="cls-7" d="M731.69,333.06c0,.24-21.25.43-47.46.43s-47.46-.19-47.46-.43,21.25-.42,47.46-.42S731.69,332.83,731.69,333.06Z"/><path class="cls-7" d="M750.69,347.23c0,.23-29,.42-64.74.42s-64.75-.19-64.75-.42,29-.43,64.75-.43S750.69,347,750.69,347.23Z"/><path class="cls-7" d="M750.69,360.94c0,.23-29,.42-64.74.42s-64.75-.19-64.75-.42,29-.43,64.75-.43S750.69,360.7,750.69,360.94Z"/><path class="cls-7" d="M750.69,374.65c0,.23-29,.42-64.74.42s-64.75-.19-64.75-.42,29-.43,64.75-.43S750.69,374.41,750.69,374.65Z"/><path class="cls-7" d="M674.64,388.36c0,.23-12,.42-26.71.42s-26.73-.19-26.73-.42,12-.43,26.73-.43S674.64,388.12,674.64,388.36Z"/><path class="cls-7" d="M912.14,333.06c0,.24-21.25.43-47.46.43s-47.45-.19-47.45-.43,21.24-.42,47.45-.42S912.14,332.83,912.14,333.06Z"/><path class="cls-7" d="M931.14,347.23c0,.23-29,.42-64.74.42s-64.74-.19-64.74-.42,29-.43,64.74-.43S931.14,347,931.14,347.23Z"/><path class="cls-7" d="M931.14,360.94c0,.23-29,.42-64.74.42s-64.74-.19-64.74-.42,29-.43,64.74-.43S931.14,360.7,931.14,360.94Z"/><path class="cls-7" d="M931.14,374.65c0,.23-29,.42-64.74.42s-64.74-.19-64.74-.42,29-.43,64.74-.43S931.14,374.41,931.14,374.65Z"/><path class="cls-7" d="M855.09,388.36c0,.23-12,.42-26.71.42s-26.72-.19-26.72-.42,12-.43,26.72-.43S855.09,388.12,855.09,388.36Z"/><path class="cls-3" d="M981.06,155.19c0,.24-132.91.43-296.83.43s-296.87-.19-296.87-.43,132.89-.42,296.87-.42S981.06,155,981.06,155.19Z"/><path class="cls-7" d="M386.87,69.88l594.19-.39h.4v.39c0,110.35,0,231.59,0,358.64V429h-.43l-594.19-.09h-.34v-.33c.21-219.74.33-356,.34-358.69,0,2.68.12,139,.33,358.69l-.33-.33,594.19-.1-.42.43v-.05c0-127,0-248.29,0-358.64l.39.4Z"/><path class="cls-5" d="M67,455c-.19,34.09-.31,89.12-.36,114.4a13.51,13.51,0,0,0,13.46,13.54l93.09.43a13.53,13.53,0,0,0,13.58-13.47l.52-113.39a30,30,0,0,0-29.89-30.16h0l.08-16.68-61-.28-.07,15.77h-.23A30,30,0,0,0,67,455Z"/><polygon class="cls-3" points="96.47 411.51 96.44 419.1 157.38 421.54 157.43 411.79 96.47 411.51"/><path class="cls-5" d="M92.51,386.26h69.22a3,3,0,0,1,3,3V414.6a1.93,1.93,0,0,1-1.93,1.93H91.45a1.93,1.93,0,0,1-1.93-1.93V389.26a3,3,0,0,1,3-3Z" transform="translate(1.83 -0.58) rotate(0.26)"/><path class="cls-3" d="M99.08,416.51c-.45,0-.77-6.74-.74-15.06s.43-15.06.87-15.06.77,6.75.73,15.07S99.52,416.52,99.08,416.51Z"/><path class="cls-3" d="M107.11,416.55c-.44,0-.77-6.75-.73-15.06s.42-15.07.87-15.06.77,6.74.73,15.06S107.55,416.55,107.11,416.55Z"/><path class="cls-3" d="M115.14,416.59c-.44,0-.77-6.75-.73-15.07s.43-15.06.87-15.06.77,6.75.73,15.07S115.58,416.59,115.14,416.59Z"/><path class="cls-3" d="M123.18,416.62c-.45,0-.77-6.74-.74-15.06s.43-15.06.87-15.06.77,6.75.73,15.07S123.62,416.63,123.18,416.62Z"/><path class="cls-3" d="M131.21,416.66c-.44,0-.77-6.75-.73-15.06s.42-15.07.87-15.06.77,6.74.73,15.06S131.65,416.66,131.21,416.66Z"/><path class="cls-3" d="M139.24,416.7c-.44,0-.77-6.75-.73-15.07s.43-15.06.87-15.06.77,6.75.73,15.07S139.68,416.7,139.24,416.7Z"/><path class="cls-3" d="M147.27,416.73c-.44,0-.77-6.74-.73-15.06s.43-15.06.87-15.06.77,6.75.73,15.07S147.72,416.74,147.27,416.73Z"/><path class="cls-3" d="M155.31,416.77c-.44,0-.77-6.75-.73-15.06s.42-15.07.87-15.06.76,6.74.73,15.06S155.75,416.77,155.31,416.77Z"/><rect class="cls-2" x="83.78" y="471.7" width="87.34" height="57.77" rx="1.48" transform="translate(2.28 -0.58) rotate(0.26)"/><path class="cls-3" d="M165.16,525.68a5.7,5.7,0,0,1-.07-1c0-.72,0-1.61-.05-2.7,0-2.47-.07-5.86-.12-10.13,0-8.82-.1-21.25-.17-36.36l.63.64L88.83,476l.8-.79v6.64c0,2.2,0,4.38,0,6.55,0,4.34,0,8.62-.07,12.81,0,8.39-.11,16.47-.16,24.15l-.73-.74,54.94.61,15.84.27,4.25.11a11,11,0,0,1,1.53.09,6.87,6.87,0,0,1-1.36.08l-4.11.07L144,526l-55.42.11h-.74v-.74c0-7.68,0-15.76.07-24.14q0-6.3,0-12.81,0-3.25,0-6.56V475.2h0c-.72.7,1-1,.81-.81l76.55.52H166v.64c-.21,15.27-.38,27.83-.5,36.75-.09,4.2-.16,7.54-.21,10,0,1-.06,1.88-.08,2.57A3.27,3.27,0,0,1,165.16,525.68Z"/><path class="cls-3" d="M153.47,491.71c0,.44-11.65.75-26,.68s-26-.48-26-.92,11.65-.74,26-.68S153.47,491.27,153.47,491.71Z"/><path class="cls-3" d="M153.43,500.55c0,.45-11.65.75-26,.69s-26-.48-26-.92,11.65-.75,26-.68S153.43,500.11,153.43,500.55Z"/><path class="cls-3" d="M153.39,509.05c0,.44-11.65.75-26,.68s-26-.47-26-.92,11.65-.74,26-.68S153.39,508.61,153.39,509.05Z"/><path class="cls-3" d="M153.88,425.81c0,.44-12.71.74-28.39.67S97.1,426,97.1,425.55s12.71-.75,28.4-.67S153.88,425.36,153.88,425.81Z"/><path class="cls-9" d="M71.65,562.85a34.69,34.69,0,0,1-.27-5.37c0-3.72-.08-8.65-.14-14.63,0-12.35,0-29.42.13-48.27.09-9.42.18-18.38.26-26.58s.9-15.75,3.62-21.5a23.61,23.61,0,0,1,9.71-11A16.8,16.8,0,0,1,88.71,434a5,5,0,0,1,1.38-.2,34.16,34.16,0,0,0-4.81,2.22,23.89,23.89,0,0,0-9,10.91c-2.47,5.57-3.18,12.94-3.17,21.06S73,485.18,73,494.59c-.15,18.85-.36,35.92-.6,48.27-.15,6-.27,10.91-.36,14.63A35.08,35.08,0,0,1,71.65,562.85Z"/><path class="cls-9" d="M182.45,579.07a22,22,0,0,1-4.18-1.31c-1.31-.49-2.93-1.07-4.84-1.64s-4-1.34-6.48-1.93a148.33,148.33,0,0,0-17.19-3.67,159.87,159.87,0,0,0-21.43-1.68,161.68,161.68,0,0,0-21.45,1.48,149.67,149.67,0,0,0-17.22,3.52c-2.44.58-4.59,1.32-6.5,1.88s-3.53,1.11-4.85,1.59a23.51,23.51,0,0,1-4.19,1.28,23.09,23.09,0,0,1,4-1.86c1.3-.57,2.9-1.22,4.8-1.86s4-1.47,6.47-2.11a129.45,129.45,0,0,1,17.31-3.89,148.48,148.48,0,0,1,21.68-1.63A148.39,148.39,0,0,1,150,569.06a133,133,0,0,1,17.27,4c2.44.67,4.57,1.51,6.46,2.18s3.49,1.32,4.78,1.9A23.4,23.4,0,0,1,182.45,579.07Z"/><path d="M204.05,547.06l-1.42,23.14s23.05,9.22,23.2,13.53l-45-1.15.73-36.15Z"/><g class="cls-10"><path d="M180.86,582.58l.21-3.64,43,2.46s2,.92,1.72,2.33Z"/></g><path class="cls-7" d="M203.37,570c0,.22-1.12.3-2.22,1s-1.69,1.59-1.89,1.5.16-1.35,1.5-2.15S203.42,569.79,203.37,570Z"/><path class="cls-7" d="M208,572.07c.05.21-.91.56-1.68,1.47s-1,1.89-1.23,1.87-.33-1.26.65-2.37S208,571.86,208,572.07Z"/><path class="cls-7" d="M210.57,577.78c-.2,0-.48-1.06.11-2.25s1.64-1.64,1.73-1.46-.57.81-1,1.8S210.79,577.76,210.57,577.78Z"/><path class="cls-7" d="M203.1,564.68c-.09.2-1.09-.13-2.34-.07s-2.22.41-2.33.22.84-1,2.31-1S203.22,564.51,203.1,564.68Z"/><g class="cls-11"><polygon points="203.77 551.64 203.52 555.77 181.42 555 181.5 550.24 203.77 551.64"/></g><path class="cls-7" d="M203.31,560a4.32,4.32,0,0,1-2.26-.07,10.49,10.49,0,0,1-2.34-.78,10.22,10.22,0,0,1-1.27-.72,2.66,2.66,0,0,1-.67-.55,1,1,0,0,1-.07-1.17,1.21,1.21,0,0,1,1-.48,3,3,0,0,1,.84.14,7.4,7.4,0,0,1,1.39.52,7.92,7.92,0,0,1,2,1.41c1,1,1.35,1.82,1.28,1.86s-.6-.63-1.64-1.45a8.88,8.88,0,0,0-3.26-1.62c-.47-.13-.88-.15-1,.06s0,.11.05.26a2.09,2.09,0,0,0,.49.39,12.32,12.32,0,0,0,1.17.72,13.41,13.41,0,0,0,2.16.89A15.61,15.61,0,0,1,203.31,560Z"/><path class="cls-7" d="M203,560.32a3.64,3.64,0,0,1-.54-2.19,7.33,7.33,0,0,1,1-3.82,1.89,1.89,0,0,1,1.47-1.1,1.07,1.07,0,0,1,.92.66,2.81,2.81,0,0,1,.21.83,5.06,5.06,0,0,1,0,1.51,5.2,5.2,0,0,1-1,2.31c-.9,1.14-1.83,1.38-1.84,1.3s.7-.51,1.4-1.62a5.12,5.12,0,0,0,.77-2.09,4.8,4.8,0,0,0,0-1.31c-.06-.48-.23-.87-.41-.82s-.61.34-.8.72a6.35,6.35,0,0,0-.59,1.2,8,8,0,0,0-.5,2.24C202.92,559.46,203.13,560.29,203,560.32Z"/><path class="cls-7" d="M213.38,406.07l-35.76,11.5c.42.31,6.63,40.5,6.63,40.5l-5.17,106.66,28.38.35,12.7-111.89Z"/><path d="M163.47,547l-.72,23.18s23.32,8.52,23.6,12.81l-45,.22L141,547Z"/><path d="M141.36,583.18l.11-3.65,43.09,1.16s2,.86,1.79,2.27Z"/><path class="cls-7" d="M163.48,569.92c0,.22-1.11.32-2.18,1s-1.65,1.64-1.85,1.56.11-1.36,1.43-2.2S163.53,569.72,163.48,569.92Z"/><path class="cls-7" d="M168.21,571.85c0,.21-.9.59-1.64,1.52s-.95,1.92-1.17,1.91-.37-1.25.58-2.39S168.2,571.64,168.21,571.85Z"/><path class="cls-7" d="M170.92,577.48c-.2,0-.52-1.05,0-2.25s1.59-1.69,1.68-1.51-.54.83-1,1.83S171.13,577.46,170.92,577.48Z"/><path class="cls-7" d="M163.06,564.62c-.09.2-1.1-.1-2.34,0s-2.21.49-2.33.3.81-1,2.28-1.06S163.16,564.44,163.06,564.62Z"/><g class="cls-11"><polygon points="163.32 551.56 163.2 555.69 141.09 555.6 141.03 550.83 163.32 551.56"/></g><path class="cls-7" d="M163.12,559.94a4.28,4.28,0,0,1-2.26,0,10.18,10.18,0,0,1-2.36-.72,9.46,9.46,0,0,1-1.29-.68,2.71,2.71,0,0,1-.69-.52,1,1,0,0,1-.1-1.17,1.18,1.18,0,0,1,1-.51,2.93,2.93,0,0,1,.84.12,7.42,7.42,0,0,1,1.4.47,8,8,0,0,1,2.09,1.35c1,1,1.41,1.78,1.33,1.83s-.61-.62-1.67-1.41a9.25,9.25,0,0,0-2-1.12,7.44,7.44,0,0,0-1.29-.39c-.48-.13-.89-.13-1,.08s-.05.12,0,.26a2.81,2.81,0,0,0,.5.38,11.92,11.92,0,0,0,3.38,1.5A15,15,0,0,1,163.12,559.94Z"/><path class="cls-7" d="M162.83,560.25a3.5,3.5,0,0,1-.6-2.17,7.18,7.18,0,0,1,.86-3.84,1.86,1.86,0,0,1,1.43-1.14,1,1,0,0,1,.95.62,3,3,0,0,1,.23.83,4.79,4.79,0,0,1,0,1.51,5.33,5.33,0,0,1-1,2.34c-.87,1.17-1.79,1.43-1.81,1.36s.69-.54,1.36-1.66A5.2,5.2,0,0,0,165,556a4.76,4.76,0,0,0,0-1.3c-.07-.48-.25-.87-.43-.82s-.6.36-.78.74a7.45,7.45,0,0,0-.56,1.23,8.39,8.39,0,0,0-.42,2.25C162.71,559.4,163,560.22,162.83,560.25Z"/><path class="cls-7" d="M134.68,411.77c0,8.06,3.19,157.81,3.19,157.81l26.94-2.4,5.5-92,2.89-8,3.38-49.57Z"/><path class="cls-2" d="M191.75,217.59c.37.48,21.4,33.86,21.4,33.86l23.66-24.75,12.09,17.47s-25.29,35.7-29,37-15.69-.74-15.69-.74l-16.7-22.05Z"/><path class="cls-7" d="M213.33,259.16c-.19,0-.45-1.72-.45-3.85s.07-3.85.27-3.86.45,1.71.45,3.85S213.54,259.15,213.33,259.16Z"/><path class="cls-2" d="M138.26,192.7l-3.63,9S116,217.42,114.27,219.84s13.33,80.94,13.33,80.94-1,115.34,0,115.34,13.81,4.12,40.23,2.18,31.26-4.6,31.26-4.6l-8.24-102L178.24,243.1l-21.63-27.86Z"/><path class="cls-12" d="M180.78,231.62s-2.76-13.31-2.54-13.72S172,201.77,172,201.77s-2.15-7.2-2.15-7.17-29.41-5-29.41-5L139,194.07l39.21,49.55,4,21.26,4.15-5.8Z"/><path class="cls-2" d="M207,331.78,200.63,255l-5.23-29.95c-.7-6-4.7-12-4.7-12l-15.31-8.84s-4.15-5.1-4.37-5.84l7.22,18.46,2.54,14.75,1.57,33.85h0l8.35,45.43,8.16,99.93,17.73-3.46Z"/><polygon class="cls-2" points="182.98 242.37 186.41 217.19 175.39 204.25 171.02 198.41 177.79 217.9 182.98 242.37"/><polygon class="cls-13" points="165.56 289.37 192.21 251.45 238.6 265.49 203.51 310.87 159.95 296.71 165.56 289.37"/><path class="cls-7" d="M225.05,263.73a1.15,1.15,0,1,1-1.15-1.14A1.15,1.15,0,0,1,225.05,263.73Z"/><path class="cls-7" d="M206.51,258.56a1.15,1.15,0,1,1-1.15-1.15A1.15,1.15,0,0,1,206.51,258.56Z"/><path class="cls-7" d="M184.76,227.08c-.07,0,.5,2.47,1.29,5.48s1.48,5.43,1.55,5.41-.5-2.47-1.28-5.48A55.7,55.7,0,0,0,184.76,227.08Z"/><path class="cls-3" d="M193.61,244.09a5.78,5.78,0,0,1-.41,3.2,4,4,0,0,1-2.4,2.2,4.4,4.4,0,0,1-4.24-.9,11,11,0,0,1-2.65-8c.24-1.77,1.32-3.64,3-4.13a4.4,4.4,0,0,1,5,2.15"/><path class="cls-7" d="M192,238.6a3.72,3.72,0,0,0-.71-1,4.81,4.81,0,0,0-1.14-.89,4.15,4.15,0,0,0-1.85-.53,4.42,4.42,0,0,0-1.13.11,3.46,3.46,0,0,0-1.14.46,4.85,4.85,0,0,0-1.71,2.06,6.35,6.35,0,0,0-.56,2.9,11.46,11.46,0,0,0,.56,3.12,8.71,8.71,0,0,0,2.48,4.1,4.05,4.05,0,0,0,2,.84,4.82,4.82,0,0,0,2-.17h0a3.16,3.16,0,0,0,1.3-.71,4.61,4.61,0,0,0,.85-1,5.36,5.36,0,0,0,.7-2,5.65,5.65,0,0,0,0-1.34,3,3,0,0,0-.06-.35q0-.12,0-.12a7.19,7.19,0,0,1-.07,1.79,5.34,5.34,0,0,1-.72,1.91,4.62,4.62,0,0,1-.84,1,2.88,2.88,0,0,1-1.21.64h0a4.25,4.25,0,0,1-3.83-.66,8.56,8.56,0,0,1-2.37-4,8.06,8.06,0,0,1,0-5.82,4.59,4.59,0,0,1,1.61-2,3.09,3.09,0,0,1,1.06-.45,3.66,3.66,0,0,1,1.07-.12,3.87,3.87,0,0,1,1.78.46,4.75,4.75,0,0,1,1.14.84A10.18,10.18,0,0,1,192,238.6Z"/><path class="cls-3" d="M194.84,243.88a5.74,5.74,0,0,1-.41,3.19,4,4,0,0,1-2.4,2.21,4.39,4.39,0,0,1-4.24-.91,11,11,0,0,1-2.65-8c.24-1.76,1.33-3.63,3-4.13a4.42,4.42,0,0,1,5,2.16"/><path class="cls-7" d="M193.2,238.39a3.44,3.44,0,0,0-.71-1,4.67,4.67,0,0,0-1.14-.9,4.11,4.11,0,0,0-1.85-.52,4.34,4.34,0,0,0-1.12.11,3.38,3.38,0,0,0-1.14.46,4.8,4.8,0,0,0-1.72,2.06,6.35,6.35,0,0,0-.56,2.9,11.33,11.33,0,0,0,.56,3.11,8.82,8.82,0,0,0,2.48,4.11,4.08,4.08,0,0,0,2.05.84,4.69,4.69,0,0,0,2-.18h0a3,3,0,0,0,1.3-.71,4.61,4.61,0,0,0,.85-1,5.42,5.42,0,0,0,.7-2,4.74,4.74,0,0,0,0-1.34,1.78,1.78,0,0,0-.05-.35c0-.08,0-.12,0-.12a7.19,7.19,0,0,1-.07,1.79,5.34,5.34,0,0,1-.72,1.91,4.83,4.83,0,0,1-.83.94,2.73,2.73,0,0,1-1.21.64h0a4.28,4.28,0,0,1-3.83-.66,8.56,8.56,0,0,1-2.37-4,8.05,8.05,0,0,1,0-5.82,4.6,4.6,0,0,1,1.6-2,3.23,3.23,0,0,1,1.06-.44,3.66,3.66,0,0,1,1.07-.12,3.94,3.94,0,0,1,1.79.46,5.17,5.17,0,0,1,1.13.83A11,11,0,0,1,193.2,238.39Z"/><path class="cls-3" d="M191.06,238.33a2.73,2.73,0,0,1,3.18.87,4.7,4.7,0,0,1,.87,3.37,4.21,4.21,0,0,1-.46,1.74,2.36,2.36,0,0,1-1.34,1.14,2.77,2.77,0,0,1-2.46-.7,5,5,0,0,1-1.76-3.76,2.31,2.31,0,0,1,1.34-2.31"/><path class="cls-7" d="M190.43,238.68s-.07,0-.2,0a1.59,1.59,0,0,0-.51.33,2.85,2.85,0,0,0-.72,2.08,5.06,5.06,0,0,0,1.14,3.08,4.28,4.28,0,0,0,1.55,1.21,2.31,2.31,0,0,0,2.11,0,2.86,2.86,0,0,0,1.25-1.71,5.8,5.8,0,0,0,.2-2,4.13,4.13,0,0,0-1.32-3,2.86,2.86,0,0,0-2.1-.67,2,2,0,0,0-.59.15.6.6,0,0,0-.18.11,3.62,3.62,0,0,1,.78-.15,2.84,2.84,0,0,1,2,.71,4,4,0,0,1,1.2,2.85,5.72,5.72,0,0,1-.21,1.86,2.62,2.62,0,0,1-1.12,1.55,2.06,2.06,0,0,1-1.87,0,3.91,3.91,0,0,1-1.46-1.13,4.88,4.88,0,0,1-1.14-2.91,2.78,2.78,0,0,1,.6-2A2.24,2.24,0,0,1,190.43,238.68Z"/><path class="cls-7" d="M190.67,247.48s.05-.19.18-.44a1.86,1.86,0,0,1,.73-.8,5.1,5.1,0,0,1,1-.45c.28-.09.46-.16.45-.2s-.2,0-.5,0a3.11,3.11,0,0,0-1.14.41,1.79,1.79,0,0,0-.77,1C190.57,247.28,190.64,247.48,190.67,247.48Z"/><path class="cls-7" d="M187.87,238.41s.13.16.42.29a2.52,2.52,0,0,0,1.21.19,2.69,2.69,0,0,0,1.17-.37c.26-.17.39-.33.36-.35a6.28,6.28,0,0,1-1.55.44A6.42,6.42,0,0,1,187.87,238.41Z"/><path class="cls-7" d="M166.44,257.12c-1.41.4-3-.63-4.33-.1a2,2,0,1,0,1.57,3.74c1.4-.64,1.7-2.63,3-3.42"/><path class="cls-7" d="M155,262.12a9.45,9.45,0,0,0,1.27-.52l-.23-.45a5.85,5.85,0,0,1-4.57.55c-1.76-.59-3.28-2.16-4.52-4.67l0-.1c-.5-1-7.36-21.45-8.63-25.35a7,7,0,0,1,3.32-8.75c.21-.11,4.8-2.49,9.53,3.32,5,6.09,13.61,18.11,14.41,19.59l.38.66c1.1,1.87,3.39,5.75,1.37,9.07-2.24,3.7-5,3.46-5.15,3.44l-.06.51c.14,0,3.23.3,5.65-3.69,2.17-3.57-.23-7.63-1.38-9.59l-.37-.64c-.8-1.49-9.49-13.56-14.46-19.67s-10.1-3.48-10.15-3.45a7.61,7.61,0,0,0-3.57,9.36c1,3.21,8.13,24.36,8.66,25.42l0,.09c1.3,2.64,2.92,4.3,4.81,4.93A5.84,5.84,0,0,0,155,262.12Z"/><path class="cls-7" d="M139.35,235.59a9.13,9.13,0,0,1,.22-2.72,8.51,8.51,0,0,1,3.84-5.12,9.51,9.51,0,0,1,6.34-1.18,11.91,11.91,0,0,1,2.6.83l-.16-.11a5.18,5.18,0,0,0-.48-.27,8.18,8.18,0,0,0-1.93-.63,9.3,9.3,0,0,0-3-.08,9.18,9.18,0,0,0-3.48,1.21,8.51,8.51,0,0,0-3.89,5.31,6.42,6.42,0,0,0-.16,2,2.86,2.86,0,0,0,.07.55C139.32,235.53,139.34,235.59,139.35,235.59Z"/><polygon class="cls-2" points="134.63 201.67 157.63 230.17 178.24 243.1 138.26 192.7 134.63 201.67"/><path class="cls-2" d="M114.27,219.84s-4.82,7.6-5.59,15.38c-.3,3,7.27,60.1,8.13,62.67s10.91,9,13.9,10.27,39.57,13.47,54.55,13.26l3.21-28.24L150,286.77s-4.49-4.28-6.84-5.14l-3.21-31.44L135.21,225S121.79,216.66,114.27,219.84Z"/><path class="cls-7" d="M200.8,254c-.19,0-2.26-8.31-4.62-18.65s-4.12-18.76-3.92-18.8,2.26,8.3,4.62,18.64S201,254,200.8,254Z"/><path class="cls-7" d="M138,247.4a5.94,5.94,0,0,1,.13.59c.07.42.16,1,.29,1.74l1.07,6.75c.91,5.92,2.22,14.46,3.86,25.12l-.16-.2a16,16,0,0,1,3.59,2.28c1.13.89,2.25,1.86,3.36,2.89l-.14-.07,38.51,6.35.31.06,0,.31c-1,8.83-2.07,18.35-3.19,28.24l0,.32h-.32c-7-.09-14-1.63-21.18-3.3-8.88-2.13-17.43-4.66-25.63-7.28-2-.67-4.07-1.33-6.06-2a25.56,25.56,0,0,1-5.67-2.79q-2.67-1.62-5.13-3.42a24.91,24.91,0,0,1-4.56-4,3,3,0,0,1-.65-1.44c-.12-.5-.2-1-.28-1.47-.15-1-.31-1.92-.46-2.87-.28-1.91-.56-3.78-.84-5.64q-.76-5.55-1.5-10.78c-.94-7-1.78-13.46-2.51-19.39s-1.38-11.3-1.86-16c-.1-1.18-.24-2.32-.31-3.43a12.79,12.79,0,0,1,0-3.21,38.22,38.22,0,0,1,1.3-5.42,42.79,42.79,0,0,1,3-7.1c.41-.78.76-1.35,1-1.74s.38-.56.38-.56-.1.21-.32.6-.55,1-.94,1.77a46.44,46.44,0,0,0-2.84,7.11,38.64,38.64,0,0,0-1.23,5.4,13.11,13.11,0,0,0,0,3.12c.08,1.1.23,2.24.34,3.42.52,4.71,1.2,10.07,2,16s1.67,12.41,2.61,19.36c.49,3.48,1,7.08,1.53,10.78.28,1.85.57,3.73.85,5.63.16,1,.32,1.9.47,2.86.08.48.16,1,.27,1.41a2.35,2.35,0,0,0,.55,1.22,24.06,24.06,0,0,0,4.42,3.87c1.62,1.19,3.33,2.31,5.08,3.38a25.29,25.29,0,0,0,5.55,2.72c2,.7,4,1.36,6,2,8.18,2.61,16.72,5.13,25.58,7.25,7.1,1.67,14.18,3.2,21,3.29l-.35.32c1.13-9.89,2.22-19.41,3.23-28.23l.28.36L149.92,287h-.08l-.06-.06c-1.09-1-2.2-2-3.31-2.88a15.41,15.41,0,0,0-3.43-2.22l-.14-.05,0-.14c-1.55-10.67-2.78-19.22-3.64-25.15-.41-2.92-.73-5.19-1-6.77-.09-.74-.17-1.33-.22-1.75S138,247.4,138,247.4Z"/><path class="cls-7" d="M135.74,238.93a25.81,25.81,0,0,1-1.77-3.44,38.36,38.36,0,0,0-4.81-7.84,17.19,17.19,0,0,0-7.34-5.25,29.2,29.2,0,0,0-3.72-.81,2.5,2.5,0,0,1,1-.11,10.65,10.65,0,0,1,2.83.43,16.33,16.33,0,0,1,7.74,5.27,32.3,32.3,0,0,1,4.72,8.1A17.44,17.44,0,0,1,135.74,238.93Z"/><path class="cls-7" d="M129.58,286.88c-.15-.08,2.08-2.8,6-4.28s7.4-1,7.34-.83-3.34,0-7.08,1.5S129.73,287.06,129.58,286.88Z"/><path class="cls-7" d="M134,291.35c-.17,0,.73-3.24,3.54-6.09s6-3.84,6-3.66-2.84,1.42-5.5,4.17S134.16,291.44,134,291.35Z"/><path class="cls-7" d="M178.24,243.1a10,10,0,0,1-1.59-.86l-4.33-2.6-14.87-9.18,0,0,0,0-6.92-8.54c-6.36-7.89-12.06-15-16-20l-.1-.12.06-.13,2.77-6.53.78-1.75a2.3,2.3,0,0,1,.31-.59,2,2,0,0,1-.18.64c-.18.49-.4,1.08-.66,1.8-.64,1.66-1.5,3.89-2.56,6.62l0-.25c4.06,4.92,9.83,12,16.2,19.89L157.9,230l-.08-.07,14.73,9.4,4.22,2.76A11.31,11.31,0,0,1,178.24,243.1Z"/><path class="cls-7" d="M181.6,248.46a11.07,11.07,0,0,1,.14-1.86c.17-1.31.39-3,.64-5,.58-4.28,1.42-10.23,2.4-16.93l0,.22-1.37-2.54c-3.52-6.55-6.67-12.5-8.92-16.82-1.07-2.08-1.95-3.81-2.64-5.14a11.56,11.56,0,0,1-.87-1.93,11.48,11.48,0,0,1,1.12,1.79l2.84,5c2.36,4.27,5.59,10.18,9.11,16.73l1.36,2.54.06.11,0,.12c-1,6.69-1.93,12.63-2.63,16.89-.34,2-.63,3.72-.85,5A9.61,9.61,0,0,1,181.6,248.46Z"/><path class="cls-7" d="M139.4,223.75l1.19-.72-1.19.71a70.74,70.74,0,0,1-5.18-9.65l-.25-.6c-1.4-3.39-3-7.25-2.32-11l0-.09a7.27,7.27,0,0,1,2.53-4.16l.38-.32h1.15v2.15l.25.3a2.73,2.73,0,0,0-.25.23v.1h-.1a4.48,4.48,0,0,0-1.24,2.28v.08c-.5,2.9.91,6.33,2.17,9.35l.24.6a70.24,70.24,0,0,0,5,9.28Z"/><path class="cls-7" d="M190.15,308.31a6.56,6.56,0,0,1,.19,1c.1.76.24,1.75.41,3,.34,2.61.79,6.38,1.32,11,1.07,9.34,2.39,22.25,3.6,36.54s2.07,27.25,2.59,36.63c.26,4.69.44,8.49.54,11.12,0,1.25.08,2.26.1,3a5.07,5.07,0,0,1,0,1.06,6.31,6.31,0,0,1-.13-1l-.24-3c-.19-2.7-.45-6.47-.77-11.1-.65-9.37-1.6-22.31-2.8-36.6s-2.45-27.2-3.38-36.55c-.46-4.61-.83-8.38-1.1-11.07-.11-1.25-.21-2.25-.27-3A5,5,0,0,1,190.15,308.31Z"/><path class="cls-7" d="M172.35,340.87s-.31.36-.94.9-1.57,1.31-2.74,2.23a85.54,85.54,0,0,1-9.63,6.62,53.11,53.11,0,0,1-5.79,2.85,35.35,35.35,0,0,1-5,1.61,23.05,23.05,0,0,1-3.5.61,4.64,4.64,0,0,1-1.3,0c0-.14,1.82-.34,4.67-1.14a40.53,40.53,0,0,0,4.9-1.74,60.6,60.6,0,0,0,5.69-2.86c3.91-2.26,7.25-4.67,9.68-6.4A35.08,35.08,0,0,1,172.35,340.87Z"/><path class="cls-7" d="M174.47,346.27a4.79,4.79,0,0,1-.75,1.12,28.1,28.1,0,0,1-2.4,2.78,39.31,39.31,0,0,1-21.1,11.23,28.11,28.11,0,0,1-3.65.45,4.8,4.8,0,0,1-1.34,0c0-.13,1.89-.28,4.89-.94A43.59,43.59,0,0,0,171,349.81C173.18,347.69,174.37,346.19,174.47,346.27Z"/><path class="cls-7" d="M144.81,362.33c-.19,0-.53-1.68-.74-3.8s-.23-3.85,0-3.87.53,1.68.74,3.8S145,362.31,144.81,362.33Z"/><path class="cls-7" d="M141.49,178.44a2.68,2.68,0,0,1-2.39-1.62,9.21,9.21,0,0,1-.8-3.1l-2-14.18a72.14,72.14,0,0,1-1-12.09c.12-4,1.74-7.62,3.56-11.13,2.14-4.11,10.79-11.37,25.16-7.3"/><path class="cls-14" d="M140.75,161.44c-.19-.08-7.68-2.12-7.29,5.48s7.92,5.64,7.93,5.42S140.75,161.44,140.75,161.44Z"/><path class="cls-15" d="M138.92,169.58s-.13.1-.34.21a1.33,1.33,0,0,1-1,.07c-.82-.25-1.56-1.49-1.66-2.86a4.25,4.25,0,0,1,.27-1.91,1.5,1.5,0,0,1,.94-1.06.66.66,0,0,1,.8.32c.11.21.07.36.12.37s.15-.13.07-.44a.8.8,0,0,0-.32-.47,1,1,0,0,0-.74-.15,1.85,1.85,0,0,0-1.32,1.25,4.48,4.48,0,0,0-.35,2.13c.12,1.53,1,2.92,2.09,3.19a1.43,1.43,0,0,0,1.2-.27C138.92,169.76,139,169.59,138.92,169.58Z"/><path class="cls-14" d="M179.78,175.56c0-5.37-1-16.41-2-26.4a20.7,20.7,0,0,0-21-18.66l-1.07,0c-11.55.89-17.25,11.19-16,22.71L141.31,190l27.55,15.12-.09-16.48S179.85,186.68,179.78,175.56Z"/><path class="cls-15" d="M168.78,188.6a25.84,25.84,0,0,1-14.56-3.85s3.5,8.06,14.57,6.86Z"/><path class="cls-7" d="M174.12,156.44a1.6,1.6,0,0,1-1.5,1.63,1.53,1.53,0,0,1-1.67-1.4,1.59,1.59,0,0,1,1.5-1.63A1.52,1.52,0,0,1,174.12,156.44Z"/><path class="cls-7" d="M175.66,154.05c-.19.21-1.41-.66-3.12-.62s-2.94.91-3.13.71.1-.47.64-.88a4.36,4.36,0,0,1,2.5-.82,4.23,4.23,0,0,1,2.49.75C175.57,153.59,175.76,154,175.66,154.05Z"/><path class="cls-7" d="M157.52,156.78a1.59,1.59,0,0,1-1.5,1.63,1.51,1.51,0,0,1-1.66-1.4,1.59,1.59,0,0,1,1.49-1.63A1.53,1.53,0,0,1,157.52,156.78Z"/><path class="cls-7" d="M158.63,153.88c-.16.23-1.47-.5-3.16-.27s-2.83,1.22-3,1,0-.48.54-.94a4.34,4.34,0,0,1,2.4-1.09,4.19,4.19,0,0,1,2.55.48C158.49,153.43,158.72,153.78,158.63,153.88Z"/><path class="cls-7" d="M165.16,167.82a11.19,11.19,0,0,1,2.76-.56c.44,0,.85-.14.91-.44a2.19,2.19,0,0,0-.31-1.29l-1.35-3.3c-1.88-4.69-3.25-8.55-3.06-8.63s1.87,3.67,3.75,8.37l1.29,3.31a2.51,2.51,0,0,1,.26,1.71,1.09,1.09,0,0,1-.7.65,3.23,3.23,0,0,1-.74.12A12,12,0,0,1,165.16,167.82Z"/><path class="cls-7" d="M160.15,169.09c.28,0,.32,1.83,1.93,3.12s3.58,1,3.6,1.3-.44.37-1.27.41a4.61,4.61,0,0,1-3-1,4,4,0,0,1-1.5-2.61C159.83,169.54,160,169.08,160.15,169.09Z"/><path class="cls-7" d="M158.73,146.51c-.16.47-1.87.28-3.86.56s-3.61.85-3.89.44c-.12-.19.15-.64.8-1.1a6.79,6.79,0,0,1,5.9-.76C158.42,145.93,158.8,146.29,158.73,146.51Z"/><path class="cls-7" d="M174.79,149.71c-.3.39-1.48,0-2.9,0s-2.6.31-2.89-.1c-.12-.19.06-.58.58-1a4.18,4.18,0,0,1,4.66.06C174.74,149.12,174.91,149.52,174.79,149.71Z"/><path class="cls-7" d="M164.93,129.31c-3.93-1.54-7.91-.73-12.09-.12a19.07,19.07,0,0,0-8.88,3.54c-4.23,3.12-6.32,8.09-6.55,13.34a48.81,48.81,0,0,0,1.65,15l.41-.09a7.14,7.14,0,0,0-.06,3.86c.45,1.23,1.87,2.2,3.07,1.68,1.39-.62,1.44-2.55,1.31-4.07a110.21,110.21,0,0,1-.06-15.42c.22-3.84,2.41-8.54,5.4-10.36,5.46-3.63,12.55-.67,15-.25,3.7-3.16,7.15-.69,9.41,2.06C172.68,134.31,168.86,130.86,164.93,129.31Z"/><path class="cls-7" d="M164.09,136.39c2.44,0,4.38-1.63,7.09-1.19,1.64.27,3.29,2.94,4.72,6.27a4.81,4.81,0,0,0-1.42-8.81,4.43,4.43,0,0,0,2.17.71,1.51,1.51,0,0,0,1.52-1.4,2,2,0,0,0-.91-1.34,11.86,11.86,0,0,0-16.7,1.92"/><path class="cls-6" d="M176.63,131.8c-.07.09-.79-.42-2.1-.83a8.11,8.11,0,0,0-9.33,3.23c-.77,1.13-1,2-1.13,2a3.91,3.91,0,0,1,.7-2.22,7.9,7.9,0,0,1,9.93-3.44C176.06,131.05,176.68,131.74,176.63,131.8Z"/><path class="cls-6" d="M176.11,140.17a8.09,8.09,0,0,0,0-2.58,5.37,5.37,0,0,0-1.22-2.43,5.73,5.73,0,0,0-2.82-1.69,7.58,7.58,0,0,0-5.92,1c-1.37.86-2,1.64-2.14,1.56a5.18,5.18,0,0,1,1.86-2,8.23,8.23,0,0,1,2.69-1.3,7.2,7.2,0,0,1,3.69,0,6.06,6.06,0,0,1,3.15,2,5.54,5.54,0,0,1,1.21,2.77A3.28,3.28,0,0,1,176.11,140.17Z"/><path class="cls-6" d="M136.58,158.46a2.93,2.93,0,0,1-.29-1,16,16,0,0,1-.25-2.86,19.19,19.19,0,0,1,8.7-16.09,15.12,15.12,0,0,1,2.53-1.35,2.88,2.88,0,0,1,1-.32c.05.12-1.33.7-3.25,2.09a21,21,0,0,0-6.05,6.87,20.77,20.77,0,0,0-2.43,8.82C136.44,157,136.71,158.44,136.58,158.46Z"/><path class="cls-6" d="M138.28,159.85c-.16.07-.91-3.83.62-8.34s4.42-7.2,4.51-7-2.41,2.93-3.82,7.28S138.51,159.85,138.28,159.85Z"/><path class="cls-14" d="M263.87,223.38c-.33-.86-1.93-1-1.93-1l.32-.48a2.35,2.35,0,0,0,.16-2.32l-.18-.34a3.85,3.85,0,0,0-1.86-1.34s1.18-1.6.89-2.39a3.8,3.8,0,0,0-3.63-2.13,56.08,56.08,0,0,0-7.56,2.25,1.66,1.66,0,0,1-2.22-1.23,24.39,24.39,0,0,0-2.43-7c-1.39-2.32-3-2.41-4-2.19a.77.77,0,0,0-.56,1.05,42.23,42.23,0,0,1,1.77,4.89c.25,1.25-.65,10.28-.65,10.28l-4.58,6.18,10.4,15,4.58-6.8,9.81-4.32s1.86-2.34,1.66-3.14a2.45,2.45,0,0,0-1-1.29l1.21-1.72A5.34,5.34,0,0,0,263.87,223.38Z"/><path class="cls-15" d="M261.26,218.05a.93.93,0,0,1-.2.14l-.61.34-2.24,1.24-3.33,1.81c-.64.33-1.27.73-2,1a2.68,2.68,0,0,1-2.42-.06,1.79,1.79,0,0,1-.73-1,2.44,2.44,0,0,1,0-1.23A3.47,3.47,0,0,1,251,218.4a14.29,14.29,0,0,1,1.7-1.13l1.52-.91,2.2-1.29.61-.35c.14-.07.21-.11.22-.1l-.2.14-.58.38-2.17,1.36-1.5.93a13.93,13.93,0,0,0-1.66,1.13,3.25,3.25,0,0,0-1.18,1.77,1.89,1.89,0,0,0,.66,2,1.93,1.93,0,0,0,1.1.28,3,3,0,0,0,1.11-.24c.7-.29,1.35-.68,2-1l3.36-1.77,2.27-1.17.62-.31Z"/><path class="cls-15" d="M262.59,222.56a2.05,2.05,0,0,1-.47.28c-.31.17-.76.4-1.32.67-1.12.55-2.7,1.27-4.47,2A11,11,0,0,1,255,226a2.55,2.55,0,0,1-1.34,0,2.05,2.05,0,0,1-1.47-1.61,2,2,0,0,1,.35-1.45,1.85,1.85,0,0,1,.27-.31l.12-.07s-.14.13-.32.43a2,2,0,0,0-.26,1.37,1.89,1.89,0,0,0,1.37,1.44,2.43,2.43,0,0,0,1.22-.06,12.69,12.69,0,0,0,1.29-.47c1.77-.7,3.35-1.39,4.49-1.9l1.35-.61A3,3,0,0,1,262.59,222.56Z"/><path class="cls-15" d="M263.1,226.84a1.8,1.8,0,0,1-.47.19l-1.3.42-4.32,1.3a12.34,12.34,0,0,1-1.26.33,2.36,2.36,0,0,1-1.24-.09,1.39,1.39,0,0,1-.81-.8,1.59,1.59,0,0,1,0-1,2.06,2.06,0,0,1,.9-1,1.23,1.23,0,0,1,.46-.22,3.8,3.8,0,0,1-.41.29,2,2,0,0,0-.79,1,1.36,1.36,0,0,0,0,.87,1.18,1.18,0,0,0,.71.67,2.1,2.1,0,0,0,1.12.07,12.54,12.54,0,0,0,1.23-.33c1.69-.5,3.23-.93,4.35-1.24l1.32-.35A2.45,2.45,0,0,1,263.1,226.84Z"/><path class="cls-15" d="M263.15,230.75a9.18,9.18,0,0,1-1.47.15l-3.58.2-1,0a4.5,4.5,0,0,1-1,0,1.47,1.47,0,0,1-.8-.44.91.91,0,0,1-.21-.77,1.34,1.34,0,0,1,.69-.87.77.77,0,0,1,.4-.1s-.14,0-.35.18a1.3,1.3,0,0,0-.58.82.73.73,0,0,0,.2.61,1.21,1.21,0,0,0,.69.36,4,4,0,0,0,.92,0l1,0c1.4-.07,2.66-.11,3.58-.13A10.26,10.26,0,0,1,263.15,230.75Z"/><path class="cls-15" d="M253.75,227.43a11.72,11.72,0,0,0-2.5-.65,12,12,0,0,0-2.58.1,5.66,5.66,0,0,1,5.08.55Z"/><path class="cls-14" d="M188.28,294.84l2.15-.56s.76-3.62,1.71-4.38,10.49-5.1,12.58-6.25S215,278.78,216,280.76c1.17,2.25-2.17,4.09-4,4.95s-7,2.86-5.93,4.1,12.58.67,12.58.67l1.45-1.94s2.54,2.41,2.25,4.5a9.25,9.25,0,0,1-1.14,3.43h-.86a2.38,2.38,0,0,1,.1,2.47,23.5,23.5,0,0,1-2.29,2.86,8.46,8.46,0,0,1-5.42,4c-.48.13-19.52,1.79-19.52,1.79l-6.38.64Z"/><path class="cls-6" d="M1033.72,523.25l27,24.7-30.56,33.76c-3-3.12,6.29-26.45,6.29-26.45L1019.58,539Z"/><path class="cls-9" d="M1044.44,543.5a1.87,1.87,0,0,1,2.44.47,1.79,1.79,0,0,1-.45,2.42,2,2,0,0,1-2.58-.51,1.86,1.86,0,0,1,.75-2.46"/><path class="cls-7" d="M1060.72,548l-2.82-2.61-28.15,33.58s-.69,2.1.53,2.88Z"/><path class="cls-9" d="M1035.79,555.66c.17.14,1-.62,2.25-.95s2.35-.13,2.42-.34-1.1-.83-2.62-.4S1035.6,555.55,1035.79,555.66Z"/><path class="cls-9" d="M1034.05,560.52c.12.18,1-.28,2.25-.2s2.09.57,2.23.4-.62-1.11-2.12-1.17S1033.89,560.38,1034.05,560.52Z"/><path class="cls-9" d="M1036.46,566.37c.21-.14-.28-1-1.73-1.49-1.28-.4-2.34,0-2.27.25s1,.15,2,.49S1036.3,566.52,1036.46,566.37Z"/><path class="cls-9" d="M1032.08,551.76c.21.06.67-.9,1.57-1.77s1.86-1.34,1.8-1.55-1.28-.05-2.34,1S1031.87,551.72,1032.08,551.76Z"/><path class="cls-9" d="M1028.8,547.33c.07.06.76-.5,1.52-1.7a10.38,10.38,0,0,0,1.06-2.26,10.1,10.1,0,0,0,.36-1.44,2.86,2.86,0,0,0,.07-.87,1,1,0,0,0-.81-.87,1.22,1.22,0,0,0-1,.38,3,3,0,0,0-.49.72,8.09,8.09,0,0,0-.59,1.37,8.24,8.24,0,0,0-.39,2.49,3.78,3.78,0,0,0,.48,2.24c.12,0,0-.88.07-2.22a8.69,8.69,0,0,1,.52-2.27,8.18,8.18,0,0,1,.58-1.25c.23-.44.5-.74.74-.69.09,0,.12,0,.16.21a2.47,2.47,0,0,1,0,.63,13,13,0,0,1-.3,1.36,11.88,11.88,0,0,1-.86,2.2A16.08,16.08,0,0,0,1028.8,547.33Z"/><path class="cls-9" d="M1029.23,547.33c.08,0-.22-.9-1.23-1.93a7.38,7.38,0,0,0-2.06-1.44,6.91,6.91,0,0,0-1.41-.5,1.87,1.87,0,0,0-1.83.3,1.06,1.06,0,0,0-.17,1.14,3,3,0,0,0,.46.73,5,5,0,0,0,1.14,1,5.08,5.08,0,0,0,2.4.86c1.47.14,2.29-.37,2.25-.44a17.74,17.74,0,0,1-2.17-.1,5.15,5.15,0,0,1-2.07-.9,4.59,4.59,0,0,1-.95-.92c-.31-.37-.48-.77-.32-.87a1.31,1.31,0,0,1,1.09-.09,7.47,7.47,0,0,1,1.29.41,8.17,8.17,0,0,1,2,1.2C1028.67,546.66,1029.12,547.39,1029.23,547.33Z"/><path class="cls-6" d="M1040.24,547.05l-.34,36.6-45.54-.19c.29-4.35,23.88-13,23.88-13L1017.5,547Z"/><path class="cls-7" d="M1039.9,583.73l0-3.92-43.79,1.48s-2,.89-1.79,2.32Z"/><path class="cls-9" d="M1017.5,570.24c0,.22,1.12.33,2.21,1s1.67,1.65,1.88,1.57-.12-1.38-1.46-2.22S1017.46,570,1017.5,570.24Z"/><path class="cls-9" d="M1012.72,572.2c-.05.21.91.59,1.66,1.54s1,1.94,1.19,1.93.36-1.27-.59-2.42S1012.72,572,1012.72,572.2Z"/><path class="cls-9" d="M1010,577.9c.2.05.52-1.06-.05-2.28s-1.6-1.71-1.7-1.53.55.84,1,1.85S1009.76,577.88,1010,577.9Z"/><path class="cls-9" d="M1017.93,564.88c.09.2,1.11-.1,2.37,0s2.23.49,2.35.3-.82-1-2.3-1.08S1017.82,564.7,1017.93,564.88Z"/><path class="cls-7" d="M1038,338.29s6.38,6.83,9.51,13.38,8,20.5,8,20.5,6,21.3,4.65,31.34-10.31,78.72-10.31,78.72,1.77,54.44-5.91,78.67l-1.42,6.42-25.67-4.56h0L1011.07,428l-15.66-89.11Z"/><path class="cls-6" d="M1005.16,344c.11,0,.08-.83,1-1.47a1.88,1.88,0,0,1,1.76-.18,1.82,1.82,0,0,1-.06,3.4,1.86,1.86,0,0,1-1.75-.24c-.89-.67-.83-1.54-.94-1.51s-.1.19-.06.55a2.09,2.09,0,0,0,.73,1.31,2.3,2.3,0,0,0,2.21.44,2.38,2.38,0,0,0,.07-4.49,2.31,2.31,0,0,0-2.22.36,2.1,2.1,0,0,0-.77,1.29C1005.07,343.84,1005.13,344,1005.16,344Z"/><path class="cls-7" d="M975.37,356.82S966,442.25,964.6,456.92s51.9,92.92,51.9,92.92L1039,523.3l-34.28-63.74,11.54-63.48L1001,338.81l-23.63.28Z"/><path class="cls-6" d="M1047.78,540.33a17,17,0,0,1-.18,1.86c-.16,1.23-.46,3-.89,5.35-.85,4.66-2.24,11.4-4.1,19.82l0,.18-.18,0-25.68-4.5-.2,0v-.2c-.72-17.61-1.57-38.67-2.49-61.26-.94-24.3-1.82-46.83-2.54-65.31v0c-1.93-14.85-3.52-27.13-4.63-35.72-.54-4.27-1-7.62-1.25-9.93-.13-1.13-.24-2-.31-2.61s-.08-.9-.08-.9.06.3.15.89.22,1.48.38,2.6c.32,2.31.79,5.65,1.38,9.91,1.16,8.59,2.82,20.86,4.83,35.7h0c.75,18.48,1.67,41,2.65,65.31.89,22.58,1.71,43.64,2.4,61.26l-.21-.23,25.66,4.62-.21.14c1.9-8.41,3.35-15.14,4.26-19.77.46-2.32.79-4.11,1-5.33.11-.61.17-1.07.21-1.38A4,4,0,0,1,1047.78,540.33Z"/><path class="cls-6" d="M1008.9,373a7.73,7.73,0,0,0-1.4.07,6.48,6.48,0,0,1-3.62-.62,3.37,3.37,0,0,1-1.45-1.94,13.65,13.65,0,0,1-.44-2.94c-.18-2.14-.36-4.48-.53-6.94-.33-4.93-.51-9.4-.62-12.63-.05-1.52-.1-2.8-.14-3.83a6.68,6.68,0,0,0-.12-1.41,6.37,6.37,0,0,0-.11,1.41c0,.9-.06,2.21-.06,3.84,0,3.24.12,7.72.45,12.66.16,2.47.36,4.81.57,7a13.6,13.6,0,0,0,.53,3,3.77,3.77,0,0,0,1.71,2.15,4.85,4.85,0,0,0,2.18.57,9.16,9.16,0,0,0,1.67-.09A5.36,5.36,0,0,0,1008.9,373Z"/><path class="cls-6" d="M976.4,356.88a9.11,9.11,0,0,0,2.45-1.3,25.38,25.38,0,0,0,8.77-10,8.94,8.94,0,0,0,1-2.6c-.18-.09-1.71,3.91-5.15,7.78S976.29,356.71,976.4,356.88Z"/><path class="cls-16" d="M1057.22,261.29,1047,298.44l-4.52,19.77c0,17,4.52,24.79,4.52,24.79l-69.64-3.48s-1.14-47.12,0-56l8.48-30.85,22.09-5.42,27.57.52Z"/><path class="cls-7" d="M961.55,313.53a4.55,4.55,0,0,0,.26-1.84,12.58,12.58,0,0,0-.78-4.41,12.79,12.79,0,0,0-2.27-3.86c-.77-.86-1.35-1.27-1.39-1.22a16.68,16.68,0,0,1,4.18,11.33Z"/><path class="cls-16" d="M947.45,296.75l19.82,7.17,5.06-27.77A125,125,0,0,1,976,264c3.89-11.5,11.48-12.41,11.48-12.41l11.64,11.66-5.6,22.41s1.56,39.24-9.19,44.39c-16.4,7.87-36.89-33.26-36.89-33.26Z"/><g class="cls-11"><path d="M1053.3,366.24c-8.19-.32-16.71-3.81-23.76-8s-13.45-9.39-20.1-14.19c-15.92-11.5-47.54-36.71-62.32-49.66l4.28,1,99.45,64.37Z"/></g><path class="cls-7" d="M977.13,329.08a3,3,0,0,0,.06-.68c0-.52,0-1.17,0-2,0-1.79,0-4.24,0-7.24,0-6.18-.07-14.58-.11-23.87,0-2.33-.09-4.6.06-6.78a39,39,0,0,1,.85-6.23,32.5,32.5,0,0,1,4.28-9.7c1.56-2.62,2.8-4.77,3.54-6.32.37-.77.63-1.38.79-1.8a4.33,4.33,0,0,0,.22-.66,2.45,2.45,0,0,0-.33.61c-.2.4-.49,1-.89,1.74-.8,1.51-2.09,3.61-3.7,6.21a32.08,32.08,0,0,0-4.45,9.8,39.93,39.93,0,0,0-.91,6.31c-.15,2.21-.08,4.5-.07,6.83.11,9.28.22,17.68.29,23.87.07,3,.12,5.44.16,7.23,0,.8.06,1.45.08,2A3,3,0,0,0,977.13,329.08Z"/><path class="cls-7" d="M983.86,220.63a4.68,4.68,0,0,0,4.38-1.95,5.56,5.56,0,0,1-3.36-.19c-1-.52-1.59-2-.8-2.83.62-.64,1.65-.53,2.54-.59a5.49,5.49,0,0,0,4.66-3.58c.75-2.16.06-4.52-.21-6.79a18.69,18.69,0,0,1,7.83-17.25l14.22-8.22c5.16,6.6,6.77,15.5,5.7,23.81s-4.6,16.12-8.83,23.35a27.91,27.91,0,0,1-4.29,5.91,11.07,11.07,0,0,1-6.4,3.28,6.6,6.6,0,0,1,1.06-6,14.32,14.32,0,0,1-10.58-3.79l3.05-2.33A11.15,11.15,0,0,1,983.86,220.63Z"/><path class="cls-17" d="M1038.65,197.43a13.34,13.34,0,0,0-9.68-12.56l-17.83-5.09c-7.74-1.06-13.2,8.34-13.93,16.12-.81,8.64-1.42,17.76-.59,24.25,1.66,13,11.57,15,11.57,15s-.17,5.92-.27,9.72l.17,29,26.31-28.42,4.29-47.84C1038.7,197.36,1038.66,197.72,1038.65,197.43Z"/><path class="cls-7" d="M999.47,205.82a1.67,1.67,0,0,0,1.55,1.73,1.6,1.6,0,0,0,1.77-1.45,1.67,1.67,0,0,0-1.56-1.73A1.59,1.59,0,0,0,999.47,205.82Z"/><path class="cls-7" d="M999,201c.2.22,1.49-.67,3.28-.61s3.08,1,3.28.78-.1-.49-.66-.93a4.59,4.59,0,0,0-2.62-.89,4.37,4.37,0,0,0-2.62.76C999.12,200.55,998.92,200.94,999,201Z"/><path class="cls-7" d="M1015.17,205.84a1.67,1.67,0,0,0,1.55,1.73,1.6,1.6,0,0,0,1.77-1.45,1.68,1.68,0,0,0-1.56-1.73A1.59,1.59,0,0,0,1015.17,205.84Z"/><path class="cls-7" d="M1016,201.53c.2.22,1.5-.67,3.29-.61s3.08,1,3.28.78-.1-.49-.66-.93a4.59,4.59,0,0,0-2.62-.9,4.46,4.46,0,0,0-2.62.76C1016.15,201,1016,201.43,1016,201.53Z"/><path class="cls-7" d="M1010,215.45a11.51,11.51,0,0,0-2.9-.62c-.45-.06-.88-.16-.95-.48a2.38,2.38,0,0,1,.34-1.35l1.47-3.44c2-4.9,3.51-8.94,3.32-9s-2,3.83-4,8.73l-1.41,3.47a2.65,2.65,0,0,0-.29,1.79,1.16,1.16,0,0,0,.73.69,3,3,0,0,0,.78.13A12.19,12.19,0,0,0,1010,215.45Z"/><path class="cls-18" d="M1025.55,231s-4.48,8.8-17.45,7.19l.09-3.06A32.7,32.7,0,0,0,1025.55,231Z"/><path class="cls-7" d="M1016.79,195.74c.16.5,2,.32,4.05.64s3.78.94,4.08.51c.13-.2-.15-.67-.83-1.16a7.17,7.17,0,0,0-6.19-.88C1017.12,195.14,1016.72,195.51,1016.79,195.74Z"/><path class="cls-7" d="M999.76,195.57c.3.42,1.55,0,3,.06s2.73.36,3-.06c.14-.2-.05-.61-.59-1a4.41,4.41,0,0,0-4.89,0C999.81,195,999.63,195.37,999.76,195.57Z"/><path class="cls-18" d="M1016.76,219a2.34,2.34,0,0,0-2.37-1.85,2.45,2.45,0,0,0-1.91,1.28,3,3,0,0,0-.18,2.34l0,.17a2.66,2.66,0,0,0,3,.72A2.48,2.48,0,0,0,1016.76,219Z"/><path class="cls-7" d="M1011,220.89c0-.27,1.81-.13,3.22-1.58s1.36-3.39,1.61-3.39.32.46.28,1.28a4.56,4.56,0,0,1-1.25,2.83,3.92,3.92,0,0,1-2.69,1.21C1011.45,221.25,1011,221,1011,220.89Z"/><path class="cls-7" d="M1032.65,176.74c-2-3.19-6.75-6.52-10.45-7.17-4.23-.74-6.78,0-9.56,2.53a10.52,10.52,0,0,1-4.2,2.48c-2,.39-3.72.06-6.14,1.3-3.31,1.69-4.75,6.11-6.29,9.49-1.9,4.2-4.61,8.07-5.85,12.51s-.58,9.9,3.16,12.6c-.71-3.79-1.3-8,.78-11.26,1.59-2.48,4.42-3.85,6.46-6,2.45-2.57,2.77-6,5.35-8.44,5.88-5.58,16.23,4.24,26.74-8.07"/><path class="cls-7" d="M995.3,194.5c1.53-3.72,3.18-7.45,5.8-10.5a20.4,20.4,0,0,1,27.13-3.48l1,.09a17.25,17.25,0,0,1-13.39,6.45c-3,0-6.37-.8-9,.77s-3.47,4.68-5.54,6.76c-1.41,1.41-3.31,2.28-4.67,3.74a15.31,15.31,0,0,0-2.9,5.61C992.86,200.81,994.06,197.5,995.3,194.5Z"/><path class="cls-7" d="M1022.63,183.06l8.33-7.32c6.49-.34,10.65,5.79,12.88,10.53,1.66,3.52,2.17,7.46,3.42,11.14s3.33,7.28,4.49,11.1,1.33,8.26-1,11.53l-1.45-2.67a16.16,16.16,0,0,1-4.37,10c-.19-.93-.37-1.86-.56-2.79a15.64,15.64,0,0,1-6.26,6.75l-3.9,10.43C1028.47,224.18,1043.31,222.85,1022.63,183.06Z"/><path class="cls-7" d="M1023.82,184.59a38.18,38.18,0,0,0,2,7,13.48,13.48,0,0,0,4.28,5.73c2.85,2.07,6.52,2.49,9.94,3.31s7.07,2.41,8.48,5.63a81.23,81.23,0,0,0-2.92-14c-1.53-5-3.73-10.14-7.92-13.31a14.46,14.46,0,0,0-13.67-2"/><path class="cls-17" d="M1032.68,207.53c.17-.43,8.25-3.09,8.12,5.41-.14,8.27-8.42,6.4-8.43,6.17S1032.68,207.53,1032.68,207.53Z"/><path class="cls-18" d="M1035,216s.14.11.38.22a1.4,1.4,0,0,0,1.07,0c.88-.31,1.64-1.68,1.71-3.17a4.57,4.57,0,0,0-.36-2.06,1.67,1.67,0,0,0-1.06-1.13.74.74,0,0,0-.86.38c-.11.23-.06.39-.11.41s-.17-.15-.1-.49a1,1,0,0,1,.34-.51,1.11,1.11,0,0,1,.8-.19,2,2,0,0,1,1.47,1.31,4.83,4.83,0,0,1,.46,2.31c-.09,1.66-1,3.21-2.17,3.53a1.54,1.54,0,0,1-1.31-.25C1035,216.22,1035,216,1035,216Z"/><path class="cls-9" d="M1035.87,217.51a1.62,1.62,0,1,1-.39.11"/><path class="cls-7" d="M1035.48,217.62a2.27,2.27,0,0,0-.77,1.09A1.4,1.4,0,0,0,1035,220a1.45,1.45,0,0,0,2.56-.74,1.41,1.41,0,0,0-.45-1.26,2.27,2.27,0,0,0-1.24-.51s.13-.08.39-.08a1.66,1.66,0,0,1,1,.39,1.63,1.63,0,0,1,.62,1.51,1.77,1.77,0,0,1-3.17.91,1.66,1.66,0,0,1-.28-1.61,1.76,1.76,0,0,1,.66-.87C1035.33,217.62,1035.48,217.6,1035.48,217.62Z"/><path class="cls-6" d="M1023.29,185.13a24.29,24.29,0,0,1,3.23-5.33,23.35,23.35,0,0,1,4.85-3.92,4.69,4.69,0,0,0-1.75.69,13.57,13.57,0,0,0-5.88,6.74A4.69,4.69,0,0,0,1023.29,185.13Z"/><path class="cls-7" d="M807.92,264.69a7.3,7.3,0,0,0,0,1c0,.68,0,1.68.21,3a68.69,68.69,0,0,0,1.94,10.74,74,74,0,0,0,5.72,15.14,66.58,66.58,0,0,0,4.88,8.24,61.2,61.2,0,0,0,6.47,8,63.26,63.26,0,0,0,7.74,6.78,70.65,70.65,0,0,0,8.13,5.06,66.58,66.58,0,0,0,15.15,5.7A52.5,52.5,0,0,0,869,329.79c1.29.08,2.29,0,3,0a5.85,5.85,0,0,0,1-.07,6.25,6.25,0,0,0-1-.05c-.68,0-1.68,0-3-.1a55.62,55.62,0,0,1-10.72-1.64,67.88,67.88,0,0,1-15-5.77,72.46,72.46,0,0,1-8-5.05,62.8,62.8,0,0,1-7.66-6.72,63.53,63.53,0,0,1-6.42-7.91,69.49,69.49,0,0,1-4.87-8.15,77.8,77.8,0,0,1-7.91-25.65c-.2-1.28-.24-2.27-.33-3A6.48,6.48,0,0,0,807.92,264.69Z"/><path class="cls-7" d="M806.65,310.48a74.19,74.19,0,0,0,82.79,34.35,74.6,74.6,0,0,0,18.65-7.77,73.66,73.66,0,0,0,34.3-45.23,74.47,74.47,0,0,0-14.74-66.18,74.13,74.13,0,0,0-121,84.83ZM853.6,208a67.37,67.37,0,1,1-16.89,7A66.79,66.79,0,0,1,853.6,208Z"/><path class="cls-7" d="M931.69,281.13a2.51,2.51,0,0,0,.15-.6c.08-.47.18-1,.31-1.76a23.69,23.69,0,0,0,.35-2.79,36.56,36.56,0,0,0,.23-3.73c0-.7,0-1.42,0-2.18s-.07-1.54-.1-2.35c0-1.63-.29-3.36-.5-5.18A65.22,65.22,0,0,0,929.27,251a64.28,64.28,0,0,0-5.14-10.75c-1-1.55-1.9-3-2.91-4.32-.49-.65-.93-1.3-1.42-1.88l-1.41-1.65c-.87-1.08-1.79-1.94-2.55-2.73a24.09,24.09,0,0,0-2.06-1.93l-1.35-1.15a3.66,3.66,0,0,0-.5-.38,2.35,2.35,0,0,0,.42.47l1.27,1.23a27,27,0,0,1,2,2c.74.81,1.63,1.68,2.47,2.77l1.37,1.66c.47.59.9,1.24,1.38,1.89,1,1.28,1.87,2.77,2.84,4.3a61,61,0,0,1,8,22.1c.23,1.8.5,3.51.56,5.13,0,.81.13,1.58.14,2.33v2.16c.05,1.38-.08,2.62-.14,3.71a26.2,26.2,0,0,1-.25,2.79c-.08.71-.14,1.29-.19,1.77A2.43,2.43,0,0,0,931.69,281.13Z"/><path class="cls-7" d="M925.09,296c.11.12,1.13-.66,2-2a4.58,4.58,0,0,0,1-2.63c-.17-.05-.68,1.05-1.48,2.3S925,295.86,925.09,296Z"/><path class="cls-6" d="M940.78,285.34a73.13,73.13,0,0,1-89.25,52.22h0a73.1,73.1,0,1,1,89.25-52.22Zm-88,47.48a68.27,68.27,0,1,0-35.17-22.4A67.78,67.78,0,0,0,852.77,332.82Z"/><path class="cls-6" d="M851.23,338.68a73.88,73.88,0,1,1,37.65,0A74.37,74.37,0,0,1,851.23,338.68Zm-17.52-134A72,72,0,1,0,939.65,285a72.17,72.17,0,0,0-14.3-64.2,71.75,71.75,0,0,0-91.64-16.12ZM852.47,334a68.76,68.76,0,0,1-35.76-22.79h0A69.36,69.36,0,0,1,835,206.93a69.41,69.41,0,1,1,17.47,127Zm-16.29-125A67,67,0,0,0,818.5,309.67h0A67,67,0,1,0,853,201.92,67.59,67.59,0,0,0,836.18,208.94Z"/><path class="cls-6" d="M1102.48,347.83l.74-2.35c1.58-5-3.31-11.06-6.82-12.17l-155.6-49c-.78-.24-1.7.47-2.06,1.59l-5.2,16.51c-.35,1.13,0,2.24.78,2.48L1089,353.61C1092.52,354.72,1100.89,352.86,1102.48,347.83Z"/><path class="cls-17" d="M960.54,313.62l-5.18-3.22s-2.1-9.88-4.39-11.82l-1.25-1.21s-.38-5-3.22-5.4c-1.2-1.6-2.32-2.08-3.32-.75,0,0-.23-3.76-3.69-3.36s-.42,15.77-.42,15.77.12,7.22,3.93,6.22c0,0,2.76,1.81,5.21,1.42,0,0,1.78,3.86,5,2.74Z"/><path class="cls-18" d="M948.25,309.38s-.17.18-.26.58a2.94,2.94,0,0,0,.25,1.73,3.91,3.91,0,0,0,1.83,1.84,8.19,8.19,0,0,0,3,.75,19.61,19.61,0,0,0,5.58-.35,7,7,0,0,0,2.2-.7c0-.18-3.45.87-7.74.51a8.47,8.47,0,0,1-2.86-.66,3.72,3.72,0,0,1-1.7-1.56A3.47,3.47,0,0,1,948.25,309.38Z"/><path class="cls-18" d="M943.87,304.79c.16,0-.63-3.08-.86-6.92s.15-6.95,0-7a6.47,6.47,0,0,0-.41,2,29.12,29.12,0,0,0,.63,9.91A6.48,6.48,0,0,0,943.87,304.79Z"/><path class="cls-18" d="M947.18,305.7c.16,0-.33-3.07-.51-6.86s0-6.85-.17-6.87a24.1,24.1,0,0,0-.38,6.9A24.45,24.45,0,0,0,947.18,305.7Z"/><path class="cls-18" d="M941.83,307c-.14,0-.39,1,.24,2.12s1.68,1.42,1.71,1.27-.71-.61-1.23-1.55S942,307,941.83,307Z"/><path class="cls-18" d="M951.32,305.21a21.75,21.75,0,0,0-.67-3.79,22.37,22.37,0,0,0-.83-3.76,10.18,10.18,0,0,0,.29,3.86A10.45,10.45,0,0,0,951.32,305.21Z"/><path class="cls-17" d="M1035.92,323.11a12.63,12.63,0,0,0-4.05-3.7c-2.74-1.62-8.24-2.26-9.27-4.11s-2.73,0-1.82,2.42c.59,1.51,4.56,5,4.56,5s-3.61,1.64-6.39.66-12.07-2-12.79-.58c-.81,1.59,1.58,1.63,2.68,2,.83.29,7.22,2.12,7.22,2.12s-11.73,1.74-13.1,2.57.41,2,1.15,1.9c.47-.07,2.79,1.35,4.45,2.41a5.36,5.36,0,0,0,3.79.76l2.72-.45L1007,336.5s-1.19,1.56.92,1.88c.93.14,26.53-.85,28.49-1.09,3.38-.42,8.82-.57,8.82-.57L1041,321.45Z"/><path class="cls-18" d="M1003.93,331.59a17.88,17.88,0,0,0,5.85.66,18.06,18.06,0,0,0,5.84-.72c0-.16-2.62.17-5.84.18S1004,331.43,1003.93,331.59Z"/><path class="cls-16" d="M1056.15,315.32l-11.72-24.17,10.35-31.39a21.11,21.11,0,0,1,7.8,6.78c3.69,5,7.68,15.65,7.68,15.65s12.78,29.24,14.88,33.61,5.5,12.44,0,17-42.27,4.68-42.27,4.68l-3.9-16.26Z"/><path class="cls-7" d="M1054.77,276.18c-.16-.05-2.9,8.12-6.12,18.25s-5.69,18.39-5.53,18.44,2.89-8.12,6.11-18.26S1054.93,276.23,1054.77,276.18Z"/><path class="cls-7" d="M1039,321.18a6.22,6.22,0,0,0,1.37-.3l3.65-1c3.08-.88,7.31-2.15,12-3.38s9.06-2.15,12.23-2.05a15.5,15.5,0,0,1,5,1,4.57,4.57,0,0,0-1.24-.66,11.76,11.76,0,0,0-3.75-.76c-3.26-.21-7.67.67-12.4,1.89s-9,2.58-12,3.56c-1.52.49-2.75.91-3.59,1.21A6.48,6.48,0,0,0,1039,321.18Z"/><g class="cls-11"><path d="M1052.11,284.17a121.82,121.82,0,0,1-1.06,20.46l-3.3-6.62c.54-3.38,3-10.19,4.18-13.41"/></g><path class="cls-6" d="M833.25,265a6.53,6.53,0,0,0-1.93-1.23,5.71,5.71,0,0,0-2.12-.39,5,5,0,0,0-3.69,1.38,5.1,5.1,0,0,0-1.37,3.73,5,5,0,0,0,1.27,3.62,4.57,4.57,0,0,0,3.49,1.34,6.2,6.2,0,0,0,4.33-1.68l0,3.18a8.13,8.13,0,0,1-2.07.87,8.9,8.9,0,0,1-2.28.29,7.83,7.83,0,0,1-5.69-2.16,7.81,7.81,0,0,1,0-10.92,7.91,7.91,0,0,1,5.74-2.14,10.6,10.6,0,0,1,2.27.24,10.37,10.37,0,0,1,2.17.76Z"/><path class="cls-6" d="M851,268.54a7.71,7.71,0,0,1-.58,2.94,7.23,7.23,0,0,1-1.67,2.43,7.94,7.94,0,0,1-2.54,1.65,7.62,7.62,0,0,1-2.93.58,7.73,7.73,0,0,1-2.6-.45,7.93,7.93,0,0,1-2.33-1.29,7.41,7.41,0,0,1-2.82-5.86,7.59,7.59,0,0,1,.57-2.94,7.51,7.51,0,0,1,1.68-2.44,7.94,7.94,0,0,1,2.53-1.64,7.82,7.82,0,0,1,3-.58,7.67,7.67,0,0,1,2.94.58,7.94,7.94,0,0,1,2.53,1.64,7.27,7.27,0,0,1,1.67,2.45A7.37,7.37,0,0,1,851,268.54Zm-7.72,4.84A4.25,4.25,0,0,0,846.5,272a5.3,5.3,0,0,0,0-6.93,4.47,4.47,0,0,0-6.5,0,5.33,5.33,0,0,0,0,6.93A4.28,4.28,0,0,0,843.25,273.38Z"/><path class="cls-6" d="M856.9,275.75l-5.36-14.49H855l2.82,9c.05.18.13.53.24,1s.23,1.07.36,1.71c.09-.62.18-1.17.28-1.65a12,12,0,0,1,.3-1.19l2.86-8.94h3.39l-5.4,14.49Z"/><path class="cls-6" d="M866.84,275.75V261.26h3.1v14.49Z"/><path class="cls-6" d="M873.25,275.75V261.26h3.94a16.24,16.24,0,0,1,3.69.33,6.47,6.47,0,0,1,2.36,1.09,6.26,6.26,0,0,1,2,2.47,8.87,8.87,0,0,1,0,6.81,6.29,6.29,0,0,1-2,2.46,6.61,6.61,0,0,1-2.2,1,15.11,15.11,0,0,1-3.55.31h-4.19Zm3.09-2.61h1.72a4.86,4.86,0,0,0,3.55-1.11,6.06,6.06,0,0,0,0-7,4.86,4.86,0,0,0-3.55-1.12h-1.72Z"/><path class="cls-6" d="M889,272.17v-2.5h5.54v2.5Z"/><path class="cls-6" d="M901.05,275.75V263.83h-2.9l1.21-2.43H904v14.35Z"/><path class="cls-6" d="M915.65,270.14a3.37,3.37,0,0,1-.85.32,4.4,4.4,0,0,1-1,.11,3.94,3.94,0,0,1-3-1.26,4.56,4.56,0,0,1-1.17-3.23,4.75,4.75,0,0,1,1.42-3.6,5.24,5.24,0,0,1,3.78-1.37,4.8,4.8,0,0,1,3.57,1.36,4.89,4.89,0,0,1,1.34,3.59,7.89,7.89,0,0,1-.61,2.88,17.84,17.84,0,0,1-1.82,3.39L915,275.75h-3.47Zm1.22-4.2a2.33,2.33,0,0,0-.59-1.67,2.13,2.13,0,0,0-1.62-.62,2.1,2.1,0,0,0-1.6.64,2.29,2.29,0,0,0-.6,1.65,2.38,2.38,0,0,0,.59,1.71,2.23,2.23,0,0,0,1.67.62,2,2,0,0,0,1.55-.65A2.37,2.37,0,0,0,916.87,265.94Z"/><path class="cls-7" d="M1128.42,583.37c0,.2-247.25.36-552.17.36S24,583.57,24,583.37,271.21,583,576.25,583,1128.42,583.17,1128.42,583.37Z"/><polygon class="cls-5" points="575.86 214.59 435.05 215 435.33 311.68 552.06 311.34 567.89 311.3 576.14 311.27 575.86 214.59"/><path class="cls-7" d="M445.88,301.31c-.17,0-.35-16.4-.41-36.63s0-36.63.2-36.63.36,16.4.42,36.63S446.05,301.31,445.88,301.31Z"/><path class="cls-2" d="M568.05,290.87c0,.17-27.46.39-61.33.48s-61.33,0-61.34-.13,27.46-.39,61.34-.48S568.05,290.7,568.05,290.87Z"/><path class="cls-2" d="M568,280.12c0,.17-27.46.39-61.33.49s-61.34,0-61.34-.14,27.46-.38,61.34-.48S568,280,568,280.12Z"/><path class="cls-2" d="M568,269.37c0,.17-27.46.39-61.33.49s-61.34,0-61.34-.13,27.46-.39,61.34-.49S568,269.2,568,269.37Z"/><path class="cls-2" d="M568,258.63c0,.17-27.46.38-61.33.48s-61.34,0-61.34-.13,27.46-.39,61.34-.49S568,258.46,568,258.63Z"/><path class="cls-2" d="M567.93,247.88c0,.17-27.46.38-61.33.48s-61.34,0-61.34-.13,27.46-.39,61.34-.48S567.93,247.71,567.93,247.88Z"/><path class="cls-2" d="M567.9,237.13c0,.17-27.46.39-61.33.48s-61.34,0-61.34-.13,27.46-.38,61.34-.48S567.9,237,567.9,237.13Z"/><path class="cls-2" d="M567.87,226.38c0,.17-27.46.39-61.33.49s-61.34,0-61.34-.13,27.46-.39,61.34-.49S567.87,226.21,567.87,226.38Z"/><rect class="cls-19" x="453.69" y="284.53" width="8.79" height="16.75" transform="translate(-0.84 1.32) rotate(-0.16)"/><rect class="cls-19" x="517.57" y="284.34" width="8.8" height="16.75" transform="translate(-0.84 1.5) rotate(-0.16)"/><rect class="cls-19" x="470.92" y="272.16" width="8.79" height="29.07" transform="translate(-0.83 1.38) rotate(-0.17)"/><rect class="cls-19" x="503.14" y="264.5" width="8.79" height="36.63" transform="translate(-0.81 1.46) rotate(-0.16)"/><rect class="cls-19" x="487.2" y="242.29" width="8.79" height="58.88" transform="translate(-0.78 1.42) rotate(-0.17)"/><rect class="cls-19" x="534.57" y="253.05" width="8.8" height="47.99" transform="translate(-0.8 1.55) rotate(-0.16)"/><path class="cls-7" d="M553.92,301c0,.17-24.14.38-53.91.46s-53.91,0-53.91-.15,24.13-.38,53.91-.46S553.92,300.83,553.92,301Z"/><polygon class="cls-5" points="636.45 213.54 636.45 311.68 648.32 311.68 664.67 311.68 740.87 311.68 740.87 213.54 636.45 213.54"/><path class="cls-7" d="M688.2,224.66a32.22,32.22,0,1,0,32.22,32.22A32.22,32.22,0,0,0,688.2,224.66Zm.48,51.53a19.8,19.8,0,1,1,19.79-19.79A19.79,19.79,0,0,1,688.68,276.19Z"/><path class="cls-19" d="M688.69,224.67V236.6a19.83,19.83,0,0,1,18.86,25.8l11.67,3.17a32.2,32.2,0,0,0-30.53-40.9Z"/><path class="cls-6" d="M668.89,256.4a19.8,19.8,0,0,1,11.73-18.08l-5-11.13A32.23,32.23,0,0,0,656,256.88c0,.46,0,.91,0,1.36h13C668.92,257.63,668.89,257,668.89,256.4Z"/><path class="cls-19" d="M688.68,276.19a19.92,19.92,0,0,1-4.19-.45c-.49,2.87-1.43,8.44-2.17,12.82a32.22,32.22,0,0,0,36.9-23l-11.67-3.17A19.82,19.82,0,0,1,688.68,276.19Z"/><g class="cls-11"><path d="M688.68,276.19a19.92,19.92,0,0,1-4.19-.45c-.49,2.87-1.43,8.44-2.17,12.82a32.22,32.22,0,0,0,36.9-23l-11.67-3.17A19.82,19.82,0,0,1,688.68,276.19Z"/></g><path class="cls-7" d="M714.86,297.23c0,.17-11.94.31-26.66.31s-26.67-.14-26.67-.31,11.94-.3,26.67-.3S714.86,297.06,714.86,297.23Z"/><path class="cls-7" d="M703,302.13c0,.17-6.62.3-14.78.3s-14.79-.13-14.79-.3,6.62-.31,14.79-.31S703,302,703,302.13Z"/><g class="cls-20"><path class="cls-21" d="M269.6-103.86,245.68,23.87S232,31.78,225.06,28.65l4.87-130Z"/><path class="cls-22" d="M245.68,23.87l0,1.63s27.25,11.73,27.41,17l-54.65-1.63,1.29-18.16C227.71,26.67,236.2,27.35,245.68,23.87Z"/><g class="cls-10"><path class="cls-9" d="M225.06,28.65a2.23,2.23,0,0,0-1.62,2.5,2.16,2.16,0,0,0,2.47,1.62,2.35,2.35,0,0,0,1.7-2.65,2.23,2.23,0,0,0-2.75-1.41"/></g><g class="cls-10"><path class="cls-9" d="M218.41,40.83l.31-4.37L271,39.63s2.4,1.13,2.07,2.83Z"/></g><path class="cls-7" d="M245.83,25.66c0,.26-1.35.34-2.69,1.16s-2.07,1.92-2.31,1.81S241,27,242.67,26,245.9,25.41,245.83,25.66Z"/><path class="cls-7" d="M251.5,28.2c.05.26-1.12.68-2.06,1.78s-1.24,2.29-1.5,2.27-.39-1.54.8-2.88S251.5,27.94,251.5,28.2Z"/><path class="cls-7" d="M254.55,35.16c-.25.05-.58-1.3.15-2.74s2-2,2.1-1.76-.69,1-1.27,2.18S254.81,35.14,254.55,35.16Z"/><path class="cls-21" d="M193.1-106.37c-.51,1.29-3.59,22.67-3,30.58S204.39,37.89,204.39,37.89l21.15.5L237.84-104Z"/><path class="cls-23" d="M237-95.43a7.67,7.67,0,0,0-.22,1.24c-.11.89-.26,2.08-.46,3.56-.36,3.19-.88,7.65-1.51,13.13-1.22,11.09-2.76,26.42-4.24,43.38S228-1.78,227.25,9.35c-.32,5.51-.58,10-.77,13.19-.07,1.5-.12,2.7-.16,3.59a6.74,6.74,0,0,0,0,1.26,7.42,7.42,0,0,0,.16-1.25c.08-.89.18-2.08.31-3.58.25-3.19.6-7.67,1-13.16.86-11.13,2.07-26.49,3.54-43.45s2.93-32.29,4-43.39c.53-5.49.95-10,1.26-13.15.13-1.5.23-2.69.31-3.58A7,7,0,0,0,237-95.43Z"/><path class="cls-22" d="M203.27,28.66s13.94,11.06,21.44,2.53l1.6,4.41,6.59,31.19a4.12,4.12,0,0,1-2.58,4.81,4,4,0,0,1-4.17-1c-5.66-6-26.37-28.13-26-31l.49-7.54a3.83,3.83,0,0,1,2.63-3.4Z"/><path class="cls-9" d="M229.6,71.77,200.28,37l-.08,1.65c-.26,1.77.49,2.52,1.27,3.71,2.34,3.53,8.9,11.49,24.56,28.23a4,4,0,0,0,3.57,1.2Z"/><path class="cls-9" d="M205.1,32.31a2.41,2.41,0,0,1,.5,3.18,2.32,2.32,0,0,1-3.15.53,2.54,2.54,0,0,1-.52-3.37,2.41,2.41,0,0,1,3.34-.19"/><path class="cls-7" d="M221.54,54.33c.22.11,1.2-1.88,3.57-2.86s4.46-.4,4.52-.64c0-.09-.44-.42-1.34-.59a6.36,6.36,0,0,0-6.26,2.7C221.54,53.72,221.45,54.29,221.54,54.33Z"/><path class="cls-7" d="M224.06,59.68c.17.17,1.49-1,3.53-1.51s3.75-.06,3.82-.3-1.71-1.11-4-.53S223.86,59.56,224.06,59.68Z"/><path class="cls-7" d="M216.71,47.39c.18.19,2.19-1.67,5.3-2.69s5.82-.8,5.84-1.06-2.8-.89-6.12.25S216.53,47.27,216.71,47.39Z"/><path class="cls-7" d="M216.52,38c.1.24,2.29-.55,5.09-.51s5,.82,5.09.58-2.07-1.43-5.08-1.44S216.41,37.81,216.52,38Z"/><path class="cls-7" d="M223.21,37.48a3.32,3.32,0,0,0-.14-1.47,10.16,10.16,0,0,0-1.67-3.68,4.57,4.57,0,0,0-2.21-1.89,1.61,1.61,0,0,0-1.75.59,2.6,2.6,0,0,0-.38,1.83,5.66,5.66,0,0,0,5.59,4.53,6.57,6.57,0,0,0,5.93-4.24,2.29,2.29,0,0,0-.14-1.89,1.59,1.59,0,0,0-1.75-.61,5.59,5.59,0,0,0-2.37,1.66,11.57,11.57,0,0,0-2.24,3.35,3.47,3.47,0,0,0-.41,1.41,18.29,18.29,0,0,1,3.08-4.33,5.28,5.28,0,0,1,2.1-1.4.83.83,0,0,1,1,.33,1.51,1.51,0,0,1,0,1.24,5.83,5.83,0,0,1-5.18,3.62,4.92,4.92,0,0,1-4.8-3.78,1.91,1.91,0,0,1,.22-1.28.85.85,0,0,1,.95-.34,4.05,4.05,0,0,1,1.91,1.57A15,15,0,0,1,223.21,37.48Z"/></g></svg>