<svg id="Capa_2" data-name="Capa 2" xmlns="http://www.w3.org/2000/svg" viewBox="0 0 1152.44 609.84"><defs><style>.cls-1{fill:#e1e1e1;}.cls-2{fill:#fafafa;}.cls-3{fill:#ececec;}.cls-4{fill:#f5f5f5;}.cls-5{fill:#1a2e35;}.cls-6{fill:gray;}.cls-7{opacity:0.3;}.cls-8{fill:#fff;}.cls-9{fill:#375a64;}.cls-10{fill:#3abeb0;}.cls-11{fill:#ffbf9d;}.cls-12{fill:#ff9a6c;}.cls-13{opacity:0.4;}.cls-14{fill:#5292a0;}.cls-15{fill:#b78876;}.cls-16{fill:#aa6550;}.cls-17{opacity:0.5;}.cls-18{fill:#00a99d;}</style></defs><title>ugiland - casos de exito</title><circle class="cls-1" cx="838.1" cy="92.52" r="44.16" transform="translate(37.98 358.56) rotate(-24.69)"/><path class="cls-2" d="M858.15,93.88a6.3,6.3,0,0,1-1.56.14l-4.29.12c-3.64.06-8.72.11-14.45.12h-.37v-.38c0-.91,0-1.88,0-2.86,0-6.4,0-12.19.11-16.38,0-2,.09-3.64.13-5a8.5,8.5,0,0,1,.14-1.82,7.34,7.34,0,0,1,.15,1.82c0,1.32.08,3,.12,5,.07,4.19.12,10,.12,16.38,0,1,0,2,0,2.86l-.38-.38c5.73,0,10.81.06,14.45.13l4.29.11A7,7,0,0,1,858.15,93.88Z"/><path class="cls-2" d="M838,55.62c.21,0,.38,1.66.38,3.71S838.2,63,838,63s-.38-1.66-.38-3.71S837.78,55.62,838,55.62Z"/><path class="cls-2" d="M858.11,61.57c.15.15-.89,1.43-2.31,2.86s-2.71,2.46-2.86,2.32.89-1.43,2.32-2.86S858,61.43,858.11,61.57Z"/><path class="cls-2" d="M869.88,74.43c.09.19-1.29,1.07-3,2.11s-3.12,1.86-3.25,1.68,1.11-1.28,2.86-2.33S869.78,74.24,869.88,74.43Z"/><path class="cls-2" d="M876.77,93.5c0,.21-2.26.38-5.06.38s-5.05-.17-5.05-.38,2.26-.38,5.05-.38S876.77,93.29,876.77,93.5Z"/><path class="cls-2" d="M806.63,92.83c0,.21-2.14.38-4.78.38s-4.78-.17-4.78-.38,2.14-.39,4.78-.39S806.63,92.61,806.63,92.83Z"/><path class="cls-2" d="M811.59,107c.14.16-1.45,1.66-3.55,3.35s-3.9,2.93-4,2.76,1.46-1.67,3.55-3.35S811.45,106.87,811.59,107Z"/><path class="cls-2" d="M823.83,118c.17.12-1,2-2.38,4.3s-2.49,4.22-2.69,4.12.62-2.16,2-4.51S823.66,117.88,823.83,118Z"/><path class="cls-2" d="M838,132.17c-.21,0-.38-2.27-.38-5.06s.17-5.06.38-5.06.38,2.27.38,5.06S838.2,132.17,838,132.17Z"/><path class="cls-2" d="M859.79,125.43c-.1.17-2.11-.93-4.23-2.79s-3.49-3.68-3.34-3.81,1.76,1.43,3.84,3.24S859.92,125.25,859.79,125.43Z"/><path class="cls-2" d="M870,114.41c-.15.15-1.68-1.14-3.42-2.88s-3-3.27-2.88-3.42,1.68,1.14,3.42,2.88S870.18,114.26,870,114.41Z"/><path class="cls-2" d="M811.12,79.22c-.15.15-1.5-1-3-2.48s-2.63-2.88-2.48-3,1.5,1,3,2.49S811.27,79.07,811.12,79.22Z"/><path class="cls-2" d="M823.75,65.92c-.15.15-1.48-.94-3-2.42s-2.58-2.81-2.44-3,1.48.93,3,2.42S823.9,65.77,823.75,65.92Z"/><rect class="cls-3" x="262.32" y="24.78" width="138.13" height="248.15"/><rect class="cls-2" x="267.84" y="31.97" width="125.67" height="233.56"/><polygon class="cls-4" points="393.51 34.73 267.84 194.59 267.84 31.97 393.51 31.97 393.51 34.73"/><rect class="cls-3" x="267.84" y="99.16" width="128.4" height="2.49"/><rect class="cls-3" x="267.84" y="154.78" width="128.4" height="2.49"/><rect class="cls-3" x="267.84" y="210.4" width="128.4" height="2.49"/><rect class="cls-3" x="244.8" y="183.11" width="171.75" height="6.35" transform="translate(144.39 516.95) rotate(-90)"/><rect class="cls-3" x="292.04" y="31.97" width="2.88" height="68.43"/><rect class="cls-3" x="316.84" y="31.97" width="2.88" height="68.43"/><rect class="cls-3" x="341.65" y="31.97" width="2.88" height="68.43"/><rect class="cls-3" x="366.46" y="31.97" width="2.88" height="68.43"/><rect class="cls-4" x="256.47" y="20.57" width="5.84" height="253.89"/><polygon class="cls-1" points="406.29 275.16 400.45 272.93 400.45 20.57 406.29 20.57 406.29 275.16"/><rect class="cls-1" x="256.47" y="18.01" width="149.82" height="6.77"/><rect class="cls-1" x="252.33" y="276" width="157.92" height="6.31"/><polygon class="cls-3" points="400.45 272.93 410.25 276 252.33 276 262.32 272.93 400.45 272.93"/><path class="cls-5" d="M890.47,590.18c0,.21-141.68.38-316.41.38s-316.44-.17-316.44-.38,141.65-.38,316.44-.38S890.47,590,890.47,590.18Z"/><rect class="cls-2" x="475.99" y="33.94" width="277.22" height="253.91"/><path class="cls-5" d="M754,288.58H475.26V33.2H754Zm-277.22-1.46H752.49V34.67H476.73Z"/><rect class="cls-5" x="469.58" y="18.66" width="288.64" height="16.19"/><polygon class="cls-1" points="476.63 34.85 752.59 61.94 752.45 34.85 476.63 34.85"/><rect class="cls-6" x="519.12" y="119.54" width="9.3" height="103.88"/><rect class="cls-6" x="537.08" y="154.83" width="9.3" height="68.6"/><rect class="cls-6" x="555.04" y="132.46" width="9.3" height="91.5"/><rect class="cls-6" x="572.99" y="123.56" width="9.3" height="99.87"/><rect class="cls-6" x="590.95" y="156.94" width="9.3" height="66.49"/><rect class="cls-6" x="608.91" y="169.98" width="9.3" height="53.45"/><rect class="cls-6" x="626.87" y="130.21" width="9.3" height="93.22"/><rect class="cls-6" x="644.83" y="147.01" width="9.3" height="76.42"/><rect class="cls-6" x="662.79" y="133.58" width="9.3" height="89.85"/><rect class="cls-6" x="680.74" y="162.22" width="9.3" height="61.21"/><rect class="cls-6" x="698.7" y="150.57" width="9.3" height="72.86"/><path class="cls-5" d="M702.24,143.1a4,4,0,0,1-.6-.1l-1.73-.35a25.45,25.45,0,0,0-2.85-.46,34.31,34.31,0,0,0-3.91-.32,45.13,45.13,0,0,0-10.69.92,47,47,0,0,0-13.27,5,54.21,54.21,0,0,0-13.43,10.69c-4.19,4.59-7.72,10.26-11.32,16.26s-7.36,12.43-12.73,18a33.38,33.38,0,0,1-9.37,7,19.79,19.79,0,0,1-5.78,1.77,18.79,18.79,0,0,1-6.12-.21,24.93,24.93,0,0,1-10.67-5.6,49.82,49.82,0,0,1-7.91-8.62c-4.58-6.18-7.84-12.83-11.33-18.89s-7-11.77-11.31-16.21a30.85,30.85,0,0,0-10.78-7.34,30.13,30.13,0,0,0-3.86-1.14,28.06,28.06,0,0,0-14,.39,31.71,31.71,0,0,0-9.62,4.63,35.94,35.94,0,0,0-5.06,4.53l-1.18,1.33a3.61,3.61,0,0,1-.42.44,3,3,0,0,1,.36-.49l1.13-1.38a32.94,32.94,0,0,1,5-4.67,31.47,31.47,0,0,1,9.69-4.8A28.28,28.28,0,0,1,554.7,143a29.5,29.5,0,0,1,15,8.57c4.42,4.49,8,10.21,11.48,16.3s6.78,12.7,11.32,18.79a48.43,48.43,0,0,0,7.79,8.49,24.28,24.28,0,0,0,10.33,5.43,17.83,17.83,0,0,0,5.87.2,19,19,0,0,0,5.56-1.7,32.81,32.81,0,0,0,9.16-6.84c5.29-5.45,9-11.87,12.65-17.83s7.2-11.69,11.46-16.31a54.61,54.61,0,0,1,13.64-10.75,47.33,47.33,0,0,1,13.44-5,44.24,44.24,0,0,1,10.79-.8,33,33,0,0,1,3.93.4,26.25,26.25,0,0,1,2.85.52l1.72.44A3.47,3.47,0,0,1,702.24,143.1Z"/><path class="cls-5" d="M508.88,230.67c-.21,0-.38-29.63-.38-66.16s.17-66.16.38-66.16.38,29.61.38,66.16S509.09,230.67,508.88,230.67Z"/><path class="cls-5" d="M711.8,230.66c0,.22-44.12.39-98.54.39s-98.55-.17-98.55-.39,44.12-.38,98.55-.38S711.8,230.45,711.8,230.66Z"/><path class="cls-5" d="M532.39,238.84c0,.21-3.09.38-6.91.38s-6.9-.17-6.9-.38,3.09-.38,6.9-.38S532.39,238.63,532.39,238.84Z"/><path class="cls-5" d="M555.29,239.26c0,.21-3.7.38-8.25.38s-8.25-.17-8.25-.38,3.69-.38,8.25-.38S555.29,239.05,555.29,239.26Z"/><path class="cls-5" d="M574.82,239.26c0,.21-3.7.38-8.25.38s-8.25-.17-8.25-.38,3.69-.38,8.25-.38S574.82,239.05,574.82,239.26Z"/><path class="cls-5" d="M594.35,239.26c0,.21-3.7.38-8.25.38s-8.25-.17-8.25-.38,3.69-.38,8.25-.38S594.35,239.05,594.35,239.26Z"/><path class="cls-5" d="M613.88,239.26c0,.21-3.7.38-8.25.38s-8.25-.17-8.25-.38,3.69-.38,8.25-.38S613.88,239.05,613.88,239.26Z"/><path class="cls-5" d="M633.41,239.26c0,.21-3.7.38-8.25.38s-8.25-.17-8.25-.38,3.69-.38,8.25-.38S633.41,239.05,633.41,239.26Z"/><path class="cls-5" d="M652.94,239.26c0,.21-3.7.38-8.25.38s-8.25-.17-8.25-.38,3.69-.38,8.25-.38S652.94,239.05,652.94,239.26Z"/><path class="cls-5" d="M672.47,239.26c0,.21-3.7.38-8.25.38s-8.25-.17-8.25-.38,3.69-.38,8.25-.38S672.47,239.05,672.47,239.26Z"/><path class="cls-5" d="M692,239.26c0,.21-3.69.38-8.25.38s-8.25-.17-8.25-.38,3.69-.38,8.25-.38S692,239.05,692,239.26Z"/><path class="cls-5" d="M711.53,239.26c0,.21-3.69.38-8.25.38s-8.25-.17-8.25-.38,3.69-.38,8.25-.38S711.53,239.05,711.53,239.26Z"/><path class="cls-5" d="M582.69,168.89c0-.12.84.18,1.11,1.32a2.86,2.86,0,0,1-.21,2,1.73,1.73,0,0,1-1,.84,1.82,1.82,0,0,1-1.39-.16,2.32,2.32,0,0,1-1.18-2.18,2.4,2.4,0,0,1,1-1.76,1.54,1.54,0,0,1,1.3-.32c.32.09.43.25.41.28s-.7-.21-1.37.46a2,2,0,0,0-.59,1.37,1.66,1.66,0,0,0,.85,1.47,1,1,0,0,0,1.41-.35,2.56,2.56,0,0,0,.29-1.52A3.44,3.44,0,0,0,582.69,168.89Z"/><path class="cls-5" d="M672.6,143.81s.21-.11.59,0a2.34,2.34,0,0,1,1.22,1.06,3,3,0,0,1,.3,2.39,2.52,2.52,0,0,1-2.34,1.87,2,2,0,0,1-1.49-.78,3.31,3.31,0,0,1-.24-3.7c.84-1.19,1.88-1.13,1.84-1s-.82.28-1.37,1.31a2.62,2.62,0,0,0-.17,1.94c.18.7.72,1.5,1.46,1.51A1.88,1.88,0,0,0,674,147a2.61,2.61,0,0,0-.11-1.92A2.76,2.76,0,0,0,672.6,143.81Z"/><path class="cls-5" d="M674.05,94.73c-.21,0-.38-.5-.38-1.11s.17-1.1.38-1.1.39.5.39,1.1S674.27,94.73,674.05,94.73Z"/><path class="cls-5" d="M674.05,104.39c-.21,0-.38-1.08-.38-2.42s.17-2.41.38-2.41.39,1.08.39,2.41S674.27,104.39,674.05,104.39Z"/><path class="cls-5" d="M674.05,114.05c-.21,0-.38-1.08-.38-2.42s.17-2.41.38-2.41.39,1.08.39,2.41S674.27,114.05,674.05,114.05Z"/><path class="cls-5" d="M674.05,123.71c-.21,0-.38-1.08-.38-2.42s.17-2.41.38-2.41.39,1.08.39,2.41S674.27,123.71,674.05,123.71Z"/><path class="cls-5" d="M674.05,133.37c-.21,0-.38-1.08-.38-2.42s.17-2.41.38-2.41.39,1.08.39,2.41S674.27,133.37,674.05,133.37Z"/><path class="cls-5" d="M674.05,140.4c-.21,0-.38-.49-.38-1.1s.17-1.1.38-1.1.39.49.39,1.1S674.27,140.4,674.05,140.4Z"/><path class="cls-5" d="M740.23,76.14c0,.21-15.25.38-34.07.38s-34.08-.17-34.08-.38,15.25-.38,34.08-.38S740.23,75.93,740.23,76.14Z"/><path class="cls-5" d="M717,66.6c0,.21-9.82.38-21.93.38s-21.93-.17-21.93-.38,9.82-.39,21.93-.39S717,66.38,717,66.6Z"/><g class="cls-7"><rect class="cls-8" x="519.12" y="119.54" width="9.3" height="103.88"/></g><g class="cls-7"><rect class="cls-8" x="537.08" y="154.83" width="9.3" height="68.6"/></g><g class="cls-7"><rect class="cls-8" x="555.04" y="132.46" width="9.3" height="91.5"/></g><g class="cls-7"><rect class="cls-8" x="572.99" y="123.56" width="9.3" height="99.87"/></g><g class="cls-7"><rect class="cls-8" x="590.95" y="156.94" width="9.3" height="66.49"/></g><g class="cls-7"><rect class="cls-8" x="608.91" y="169.98" width="9.3" height="53.45"/></g><g class="cls-7"><rect class="cls-8" x="626.87" y="130.21" width="9.3" height="93.22"/></g><g class="cls-7"><rect class="cls-8" x="644.83" y="147.01" width="9.3" height="76.42"/></g><g class="cls-7"><rect class="cls-8" x="662.79" y="133.58" width="9.3" height="89.85"/></g><g class="cls-7"><rect class="cls-8" x="680.74" y="162.22" width="9.3" height="61.21"/></g><g class="cls-7"><rect class="cls-8" x="698.7" y="150.12" width="9.3" height="73.31"/></g><rect class="cls-9" x="811.82" y="449.73" width="10.15" height="121.67" transform="translate(1633.79 1021.13) rotate(180)"/><path class="cls-9" d="M745,455.23H890.29a15.77,15.77,0,0,0-15.77-15.76H760.8A15.77,15.77,0,0,0,745,455.23Z"/><path class="cls-5" d="M807,455.55c0,.2,4,.37,8.91.37s8.91-.17,8.91-.37-4-.38-8.91-.38S807,455.34,807,455.55Z"/><path class="cls-9" d="M772.47,582.43h1.44a43.21,43.21,0,1,1,86.42,0h1.44a44.65,44.65,0,0,0-89.3,0Z"/><path class="cls-5" d="M854.35,584.64a6.7,6.7,0,1,0,6.7-6.69A6.7,6.7,0,0,0,854.35,584.64Z"/><path class="cls-9" d="M766.16,583.72a6.7,6.7,0,1,0,6.69-6.69A6.7,6.7,0,0,0,766.16,583.72Z"/><path class="cls-9" d="M772.9,571.4c0,.21,19.43.38,43.39.38s43.4-.17,43.4-.38-19.43-.37-43.4-.37S772.9,571.2,772.9,571.4Z"/><path class="cls-9" d="M894.55,329.27v89.57a21.27,21.27,0,0,1-21.27,21.27h-69l9.38-110.84a9.48,9.48,0,0,1,9.48-9.48h62A9.48,9.48,0,0,1,894.55,329.27Z"/><path class="cls-5" d="M870.15,439.47a1,1,0,0,1,.16-.26l.51-.74c.46-.63,1.11-1.58,1.9-2.84a47.27,47.27,0,0,0,5.14-11.41,45.94,45.94,0,0,0,1.71-8.47,86.48,86.48,0,0,0,.27-9.95c0-7,0-14.77,0-22.89,0-16.22.08-30.9.11-41.6.05-5.27.09-9.56.11-12.61,0-1.43.05-2.58.07-3.42a10.14,10.14,0,0,1,.07-1.2,7,7,0,0,1,.08,1.2c0,.84,0,2,.07,3.42,0,3.05.06,7.34.11,12.61,0,10.7.06,25.38.11,41.6,0,8.12,0,15.85,0,22.89a87.64,87.64,0,0,1-.34,10,46.25,46.25,0,0,1-1.82,8.55,45.07,45.07,0,0,1-5.4,11.41c-.82,1.24-1.52,2.17-2,2.78A5.13,5.13,0,0,1,870.15,439.47Z"/><path class="cls-5" d="M832.57,439.52a13.28,13.28,0,0,1,2.2-.13l6-.07c5,0,12,0,19.73,0,3.86,0,7.53,0,10.86.13a35.39,35.39,0,0,1,8.87,1,13.76,13.76,0,0,1,5.32,2.79,8.86,8.86,0,0,1,1.16,1.16,2.1,2.1,0,0,1,.35.45c-.07.06-.57-.55-1.68-1.39a14.46,14.46,0,0,0-5.29-2.52,36.54,36.54,0,0,0-8.74-.79l-10.86-.07c-7.7-.06-14.68-.15-19.73-.25l-6-.16A12.91,12.91,0,0,1,832.57,439.52Z"/><path class="cls-5" d="M769,234.45c-2,6.26-4.1,12.67-3.95,19.25.07,3.05.56,6.31-.94,9-1,1.84-2.88,3.06-4.33,4.6a13.61,13.61,0,0,0-2.4,14.62,9.22,9.22,0,0,0,3.47,4.13,13.09,13.09,0,0,0,6.09,1.42,101.29,101.29,0,0,0,20.95-.95c3.31-.49,6.9-1.32,8.94-4,1.84-2.37,2-5.61,1.86-8.6a82,82,0,0,0-8.24-32.84"/><path class="cls-5" d="M816,227.66a5.18,5.18,0,1,1-.69,9.61c3.37-.58,6.6,2,8.16,5s1.93,6.53,2.73,9.86,2.25,6.76,5.17,8.54,6.71,1.75,8.52,4.47.22,6.66,1,10,3.78,5.44,6.43,7.5,5.39,4.8,5.25,8.17c-.11,2.69-2.16,5-4.59,6.19a20,20,0,0,1-7.89,1.52,115.76,115.76,0,0,1-39.4-5.07c-2-.63-4.13-1.38-5.45-3-2-2.51-1.54-6.12-1-9.29,1.85-10,3.71-20.09,7-29.74s8.07-18.94,15.12-26.29"/><path class="cls-10" d="M835.87,324.29h15.68L846,296.35c-4.11-22.88-36.17-24.45-36.17-24.45l-25.16-.41S766,269,754.48,282c-2.37,2.67-4.84,5.43-7.28,8.14l-27.29,28.56L717,282.83l-23.38,3.67,3.27,45c.71,7.25,5.41,13.74,12.36,15.95,5,1.61,10.19.2,15.32-2.36,13.62-6.79,39.15-28.38,41.1-30.05-1.18,2.43-3.52,7.89-3.52,13.09,0,7.44,7.64,13,7.64,13l2.38,22.68-7.9,36.61,82.17-3.3a81.72,81.72,0,0,0-12.11-34.53Zm-70.13-9.37a1.66,1.66,0,0,1-.27-.55l.88-.62S766.1,314.18,765.74,314.92Z"/><path class="cls-11" d="M799.09,387.74a143,143,0,0,1-13.3,8.07c-5.83,2.77-6.1,2.25-6.32,1.53-.61-2,10-5.27,7.32-5.87s-12.54,5.54-13.09,3.47c-.72-2.7,10.52-6,11.45-6.3s.42-1.69-.4-1.33c-1.18.51-13.71,5.58-14.44,2.94-.4-1.46,2.33-1.88,2.33-1.88s12.1-3.89,11.71-5.13-7.58.79-10,1.65-3.72.09-3.27-1.25c.32-.91,7.51-3.71,9.87-4.51s8.9-2.87,4.78-4.44-6.7-4.29-6.89-5.49,1.44-1.87,2.4-.91a16.28,16.28,0,0,0,3.79,2.32,10.43,10.43,0,0,0,3.41,1c1,.12,1.93.2,2.75.25l8.74.66,4.41,11.56Z"/><path class="cls-10" d="M837.37,282.31a30.82,30.82,0,0,1,10.34,15.47c1.94,6.35,7.5,27.83,11.6,43.82a20.5,20.5,0,0,1-13.42,24.55l-46.25,25-7.56-19.55,40.58-26.67-9.81-36.31c-1.61-5.53-2.31-11.15-.28-16.54S828.84,281.28,837.37,282.31Z"/><path class="cls-11" d="M695.18,287.8l-2.81-9c-1.31-6.43,3.78-7.47,4.63-8.42,2.64-3,4.53-3.67,4.53-3.67l-.4-2.59s-1.54-6.61-1.47-8.43c.07-1.54,2.83-1.65,3.23-.16.92,3.4,2.52,9.16,3.37,11.27,1.13,2.79,3.62,10.09,6.25,5.56s2.35-7.18,2.8-8.59,3.77-1.76,3.13,1.32c-.27,1.29-.43,3.57-1.24,6.66-.36,1.38-1.12,3.08-1.51,4.45-.44,1.59-.65,7.55-.89,8.73Z"/><path class="cls-12" d="M696.65,272.13a25.49,25.49,0,0,1,.7,2.65,19.48,19.48,0,0,0,1,2.74,5.24,5.24,0,0,1,.58,1.79,1.87,1.87,0,0,1-1.06,1.94,2.3,2.3,0,0,1-2.13-.42,5.23,5.23,0,0,1-1.29-1.38,7.93,7.93,0,0,1-1.11-2.87,7.62,7.62,0,0,1-.18-2.78,15.82,15.82,0,0,1,.7,2.65,8.6,8.6,0,0,0,1.17,2.61,5,5,0,0,0,1.14,1.16,1.64,1.64,0,0,0,1.42.33,1.15,1.15,0,0,0,.59-1.19,4.68,4.68,0,0,0-.48-1.56,15.35,15.35,0,0,1-.89-2.9A6.22,6.22,0,0,1,696.65,272.13Z"/><path class="cls-12" d="M700.68,269.15a17.5,17.5,0,0,1,1.33,3.41l1.25,3.76c.21.72.49,1.41.68,2.28a2.64,2.64,0,0,1-.07,1.41,2.08,2.08,0,0,1-1,1.14,2.71,2.71,0,0,1-2.77-.15,4.38,4.38,0,0,1-1.61-1.91,28.38,28.38,0,0,1-1.2-3.83,16.83,16.83,0,0,1-.79-3.57,18,18,0,0,1,1.31,3.41,35.51,35.51,0,0,0,1.31,3.68,3.85,3.85,0,0,0,1.38,1.59,2,2,0,0,0,2,.11,1.48,1.48,0,0,0,.69-1.75c-.14-.72-.42-1.5-.62-2.21-.39-1.36-.75-2.63-1.09-3.8A16.28,16.28,0,0,1,700.68,269.15Z"/><path class="cls-5" d="M716.35,327c-.19-.09.46-2.07,1.46-4.43s2-4.2,2.15-4.12-.45,2.06-1.45,4.42S716.55,327.1,716.35,327Z"/><path class="cls-1" d="M753.14,321.6a23.44,23.44,0,0,1-4.12-1l-4.42-1.25a25.37,25.37,0,0,1-5.27-2.12,11.77,11.77,0,0,1-4.2-3.91,8.36,8.36,0,0,1-1.24-4.52,27.83,27.83,0,0,0-.1-3.06,6.57,6.57,0,0,1-.16-1.12s.26.34.45,1.06a17.42,17.42,0,0,1,.35,3.09,8.16,8.16,0,0,0,1.3,4.17,11.31,11.31,0,0,0,4,3.62,26.58,26.58,0,0,0,5.1,2.12l4.36,1.4A24,24,0,0,1,753.14,321.6Z"/><path class="cls-1" d="M821.86,378.49c-.13,0,0-1.32-.37-3.35a20.64,20.64,0,0,0-3.24-7.36c-.88-1.33-1.8-2.55-2.65-3.65a20.75,20.75,0,0,0-2.32-2.8,3.51,3.51,0,0,0-2.1-.94c-.56,0-.87.1-.9,0s.26-.27.89-.34a3.6,3.6,0,0,1,2.46.83,18.3,18.3,0,0,1,2.53,2.77,45.51,45.51,0,0,1,2.72,3.67,18.38,18.38,0,0,1,3.14,7.69A7.16,7.16,0,0,1,821.86,378.49Z"/><path class="cls-1" d="M847,298.77a7.66,7.66,0,0,1-1.14-.33l-3.23-1a39.18,39.18,0,0,0-12.15-2.13,19.45,19.45,0,0,0-8.2,1.93,39.44,39.44,0,0,0-8.07,5.5,94.83,94.83,0,0,1-8.58,6.81,22.71,22.71,0,0,1-11.09,4,12.72,12.72,0,0,1-5.95-1.18,15.38,15.38,0,0,1-4.71-3.53c-2.64-2.81-4.51-6-6.61-8.73a25.21,25.21,0,0,0-15-9.64,26.41,26.41,0,0,0-12.25.18c-2.83.76-4.27,1.56-4.31,1.47a18.15,18.15,0,0,1,4.23-1.76,26.08,26.08,0,0,1,12.44-.42,26.41,26.41,0,0,1,8.1,3.1,24.73,24.73,0,0,1,7.4,6.64c2.15,2.76,4,5.93,6.59,8.65a12.87,12.87,0,0,0,10.09,4.46,22.06,22.06,0,0,0,10.71-3.87,97.08,97.08,0,0,0,8.54-6.72,39.67,39.67,0,0,1,8.26-5.54,19.79,19.79,0,0,1,8.45-1.89,37.53,37.53,0,0,1,12.25,2.39c1.4.48,2.47.88,3.19,1.16A6.43,6.43,0,0,1,847,298.77Z"/><path class="cls-1" d="M828.74,337.18a16.21,16.21,0,0,0-2.65-.61,14.92,14.92,0,0,0-7.13,1.65c-2.86,1.26-6.15,3.23-10.2,4.47a41.83,41.83,0,0,1-13.53,2,41,41,0,0,1-13.44-2.54,42,42,0,0,1-9.85-5.26,40,40,0,0,1-5.65-5c-.61-.64-1-1.17-1.34-1.54a2.29,2.29,0,0,1-.41-.58c.05-.05.7.69,2,1.92a46.13,46.13,0,0,0,5.74,4.74,42.67,42.67,0,0,0,9.79,5,40.78,40.78,0,0,0,13.2,2.44A42.25,42.25,0,0,0,808.55,342c4-1.18,7.25-3.08,10.2-4.3a14.48,14.48,0,0,1,7.37-1.44A6.21,6.21,0,0,1,828.74,337.18Z"/><path class="cls-1" d="M856.5,331s0,.43-.36,1.11a13.42,13.42,0,0,1-1.63,2.72,15,15,0,0,1-8.71,5.6,25.34,25.34,0,0,1-10.41-.26,19.29,19.29,0,0,1-4.15-1.11,31.19,31.19,0,0,1,4.25.58,28.16,28.16,0,0,0,10.14.05,15.39,15.39,0,0,0,8.46-5.19C855.77,332.48,856.38,330.93,856.5,331Z"/><path class="cls-5" d="M822.12,305.49a3.75,3.75,0,0,1,.21.71c.12.51.29,1.2.5,2.07l1.93,7.89c1.69,6.79,4.17,16.48,7.28,28.07l.06.23-.19.13-34.2,23.59-5.41,3.73.14-.46,7.68,19.31-.49-.19c14.19-7,26.13-13.4,34.54-18l9.8-5.43,2.61-1.45a6.62,6.62,0,0,1,.92-.46,6.19,6.19,0,0,1-.86.56l-2.55,1.55c-2.24,1.34-5.53,3.26-9.71,5.62-8.35,4.73-20.25,11.22-34.43,18.27l-.35.18-.14-.36c-2.43-6-5-12.54-7.73-19.3l-.11-.28.25-.17,5.41-3.73,34.26-23.5-.14.35c-3-11.62-5.43-21.33-7-28.15-.8-3.41-1.37-6.1-1.76-7.93-.17-.88-.3-1.58-.4-2.1A3.67,3.67,0,0,1,822.12,305.49Z"/><path class="cls-5" d="M842.88,347.71c-.14.15-2.22-1.56-5.35-2.5a16.66,16.66,0,0,0-4.06-.78c-1.06-.07-1.72,0-1.75-.11s.63-.36,1.75-.43a11.89,11.89,0,0,1,4.29.59C841.06,345.47,843.06,347.57,842.88,347.71Z"/><path d="M671.53,505.93l6.08-12.61,23.68,11.23-8.69,18.53-1.51-.6c-6.71-2.73-33.91-14.38-37.66-17.77C649.26,500.92,671.53,505.93,671.53,505.93Z"/><path d="M660.49,503.83s-8-1.31-7.69.27,27.38,14.38,39.8,19l.21-.55-31.67-14.66S661.84,504.54,660.49,503.83Z"/><path class="cls-5" d="M693.19,522.7a2.46,2.46,0,0,1-.43-.15l-1.2-.49-4.39-1.85c-3.7-1.59-8.78-3.85-14.34-6.48s-10.53-5.11-14.11-7l-4.22-2.22-1.14-.62a2,2,0,0,1-.38-.24,2.53,2.53,0,0,1,.41.18l1.17.57,4.26,2.13c3.6,1.79,8.6,4.24,14.15,6.87s10.61,4.91,14.29,6.56l4.35,1.94,1.18.54A2.13,2.13,0,0,1,693.19,522.7Z"/><path class="cls-5" d="M669.64,508c-.09,0-.23-.55-.32-1.26s-.09-1.29,0-1.3a2.77,2.77,0,0,1,.31,1.26A2.91,2.91,0,0,1,669.64,508Z"/><path class="cls-5" d="M672,507.9c-.08,0-.33-.39-.57-.95s-.36-1.05-.28-1.08.34.39.58.95S672.12,507.86,672,507.9Z"/><path class="cls-5" d="M674.31,506.24a3.23,3.23,0,0,1-1.32-.43c-.68-.32-1.21-.64-1.17-.72a3.07,3.07,0,0,1,1.31.43C673.81,505.84,674.34,506.16,674.31,506.24Z"/><path class="cls-5" d="M675.47,504.86a3.94,3.94,0,0,1-2.91-1.12,8.88,8.88,0,0,1,1.45.57A8,8,0,0,1,675.47,504.86Z"/><path class="cls-5" d="M698,505a90.31,90.31,0,0,1-4.49,9.8,45,45,0,0,1,2.1-5A46.61,46.61,0,0,1,698,505Z"/><path class="cls-5" d="M682.21,515.1a14.52,14.52,0,0,1-3.62-1.29,15,15,0,0,1-3.33-1.92c0-.08,1.55.75,3.47,1.63S682.24,515,682.21,515.1Z"/><path d="M742,582.25l-.29-14,26.2-.7.64,20.46-1.62.15c-7.22.59-36.75,2.52-41.62,1.18C719.91,587.86,742,582.25,742,582.25Z"/><g class="cls-13"><path d="M731.24,585.38s-7.75,2.46-6.74,3.72,30.92.43,44.09-1.08l-.06-.59-34.88,1.26S732.76,585.4,731.24,585.38Z"/></g><path class="cls-5" d="M768.94,587.41a2.62,2.62,0,0,1-.45.06l-1.29.11-4.76.34c-4,.25-9.57.53-15.71.7s-11.71.21-15.73.19l-4.77-.07-1.3,0-.45,0,.45,0,1.3,0,4.77,0c4,0,9.58-.1,15.72-.27s11.69-.42,15.71-.62l4.76-.23,1.3-.06A1.43,1.43,0,0,1,768.94,587.41Z"/><path class="cls-5" d="M741.29,585c-.08,0-.46-.39-.86-1s-.66-1.11-.59-1.16.46.39.86,1S741.36,584.91,741.29,585Z"/><path class="cls-5" d="M743.38,583.78c-.06.07-.48-.2-.94-.59s-.79-.76-.74-.83.48.2.94.59S743.43,583.72,743.38,583.78Z"/><path class="cls-5" d="M744.65,581.27a6.13,6.13,0,0,1-2.74.11,3.12,3.12,0,0,1,1.37-.21A3.07,3.07,0,0,1,744.65,581.27Z"/><path class="cls-5" d="M745.06,579.52a2.73,2.73,0,0,1-1.51.48,2.5,2.5,0,0,1-1.58-.17,9.12,9.12,0,0,1,1.55-.14A7.49,7.49,0,0,1,745.06,579.52Z"/><path class="cls-5" d="M765.19,569.42a44.93,44.93,0,0,1,.38,5.38,48.18,48.18,0,0,1,.06,5.39,44.93,44.93,0,0,1-.38-5.38A48.18,48.18,0,0,1,765.19,569.42Z"/><path class="cls-5" d="M755.72,585.6a14.61,14.61,0,0,1-3.82.49,15.12,15.12,0,0,1-3.84-.2c0-.1,1.72,0,3.83-.12S755.7,585.51,755.72,585.6Z"/><path class="cls-5" d="M760.85,585.45c.07.07-.13.37-.29.77s-.25.75-.34.74-.15-.41,0-.87S760.79,585.39,760.85,585.45Z"/><path class="cls-5" d="M762.72,583c.06.06-.1.34-.36.62s-.53.46-.6.4.1-.33.37-.61S762.65,582.93,762.72,583Z"/><path class="cls-5" d="M765.46,581.82c0,.09-.37.09-.75.24s-.65.36-.72.3.14-.43.61-.6S765.48,581.73,765.46,581.82Z"/><path class="cls-5" d="M767.41,581.24c0,.08-.11.22-.32.31s-.42.1-.45,0,.11-.22.32-.31S767.38,581.16,767.41,581.24Z"/><path class="cls-5" d="M762.64,325.08a22.22,22.22,0,0,1,1-3.77c.35-1.16.77-2.53,1.3-4,.26-.75.55-1.54.89-2.35.18-.44.41-.81.53-1.17a4,4,0,0,0,.15-1.21,17.92,17.92,0,0,0-.4-2.58c-.15-.84-.3-1.66-.45-2.45-.26-1.5-.5-2.89-.73-4.17a18.27,18.27,0,0,1-.46-3.88,18.82,18.82,0,0,1,1,3.77c.28,1.27.58,2.65.9,4.13l.5,2.45a17.68,17.68,0,0,1,.43,2.71,4.44,4.44,0,0,1-.2,1.48c-.16.49-.41.87-.56,1.23-.34.79-.64,1.56-.92,2.3l-1.46,4A16.17,16.17,0,0,1,762.64,325.08Z"/><g class="cls-7"><path d="M820.73,301.39c1,15.59,2.59,33.1,2.89,48.71,2.4-1.08,8.1-5.2,8.1-5.78C831.72,344.32,824.28,318.18,820.73,301.39Z"/></g><path class="cls-5" d="M846.7,393.46S739.25,371,728.85,375.88s-58.38,123.51-58.38,123.51l32.36,11.88,43.93-98.39S825.89,442.72,839,440,846.7,393.46,846.7,393.46Z"/><path class="cls-5" d="M798.68,399.78c-1.65.55-63.8,26.1-68.18,34.31s6.38,144.59,6.38,144.59h35.35L770,457.48,839,440Z"/><path class="cls-9" d="M839.39,440.27a5.1,5.1,0,0,1-1-.12l-2.9-.52c-2.5-.46-6.13-1.17-10.59-2.12-8.92-1.88-21.2-4.73-34.59-8.57-6.68-1.94-13-4-18.71-5.92s-10.78-3.91-15-5.71c-2.11-.85-4-1.7-5.65-2.45s-3.07-1.4-4.2-2l-2.63-1.32a5.75,5.75,0,0,1-.89-.51,4.22,4.22,0,0,1,1,.36l2.69,1.18c1.15.54,2.58,1.16,4.26,1.85s3.55,1.52,5.68,2.34c4.21,1.73,9.32,3.56,15,5.54s12,3.91,18.7,5.84c13.36,3.83,25.6,6.76,34.49,8.79l10.53,2.37,2.86.67A4.67,4.67,0,0,1,839.39,440.27Z"/><path class="cls-9" d="M730.51,465.42a10.19,10.19,0,0,1-.32-2c-.16-1.48-.36-3.36-.59-5.59-.23-2.42-.49-5.22-.78-8.31s-.69-6.61,0-10.28a16,16,0,0,1,5.16-8.89,27.14,27.14,0,0,1,7.07-4.54,53,53,0,0,1,5.25-2.07,9.76,9.76,0,0,1,2-.58c.06.14-2.73,1.12-7,3.16a28.24,28.24,0,0,0-6.81,4.58,15.55,15.55,0,0,0-4.88,8.49c-.65,3.5-.25,6.95,0,10.07s.42,5.9.6,8.32c.13,2.25.24,4.13.33,5.61A9.69,9.69,0,0,1,730.51,465.42Z"/><path class="cls-5" d="M761.52,453.71c.09-.21,2,.45,4.35,1.47s4.11,2,4,2.21-2-.46-4.35-1.47S761.43,453.91,761.52,453.71Z"/><path class="cls-5" d="M764.64,450c.22-.1,1.2,1.86,2.82,4s3.21,3.61,3.07,3.8-2-1.08-3.72-3.31S764.44,450.05,764.64,450Z"/><path class="cls-5" d="M778.21,455.57s-.1.3-.54.56a4.18,4.18,0,0,1-2,.48,24.87,24.87,0,0,0-2.94.08,2.06,2.06,0,0,0-1.76,2.25c0,5.18-.21,9.44-.44,9.43s-.41-4.21-.37-9.48a3.35,3.35,0,0,1,.67-2,2.76,2.76,0,0,1,1.78-.93,17.1,17.1,0,0,1,3.06.09A5,5,0,0,0,778.21,455.57Z"/><path class="cls-5" d="M771.62,206c-5.37,1.74-11.61,5.31-8.52,22.12,1.37,7.39,3.09,14.93,8,20.59.76.86,1.74,1.75,2.88,1.58a3.59,3.59,0,0,0,2-1.34c5.64-6.14,10.44-13.4,12-21.59s-.76-17.44-7.21-22.72"/><path class="cls-11" d="M781.92,279c-.17-7.73-.5-16-.5-16s-11.77-1.49-12.28-13.5-.63-33-.63-33l23-17,16.14,22.2.39,57a13,13,0,0,1-13,13.14h0A13.06,13.06,0,0,1,781.92,279Z"/><path class="cls-12" d="M781.42,263a28.71,28.71,0,0,0,15.58-5.1s-3.66,8.75-15.38,8.05Z"/><path class="cls-12" d="M782.48,249a1.42,1.42,0,0,1,1.43-2,2.22,2.22,0,0,1,2.25-2,2.53,2.53,0,0,1,2.28,2,2.92,2.92,0,0,1-1.28,2.85,3.45,3.45,0,0,1-3.17.23,2.51,2.51,0,0,1-1.6-1.89"/><path class="cls-5" d="M770.94,231a1.66,1.66,0,0,0,1.59,1.67,1.59,1.59,0,0,0,1.7-1.49,1.64,1.64,0,0,0-1.59-1.66A1.57,1.57,0,0,0,770.94,231Z"/><path class="cls-5" d="M771,229.65c.21.21,1.46-.71,3.23-.71s3.07.89,3.27.68-.12-.49-.68-.9a4.57,4.57,0,0,0-2.62-.81,4.45,4.45,0,0,0-2.57.83C771.1,229.16,770.91,229.55,771,229.65Z"/><path class="cls-5" d="M788.74,231.17a1.65,1.65,0,0,0,1.59,1.66,1.57,1.57,0,0,0,1.7-1.48,1.65,1.65,0,0,0-1.58-1.67A1.59,1.59,0,0,0,788.74,231.17Z"/><path class="cls-5" d="M788.45,230c.2.21,1.45-.71,3.23-.71s3.07.9,3.26.68-.11-.49-.68-.9a4.49,4.49,0,0,0-2.61-.8,4.33,4.33,0,0,0-2.57.82C788.54,229.49,788.35,229.88,788.45,230Z"/><path class="cls-5" d="M782,243.13a11.79,11.79,0,0,0-2.88-.52c-.45,0-.88-.13-1-.44a2.4,2.4,0,0,1,.31-1.35c.42-1.09.87-2.24,1.34-3.44,1.86-4.91,3.2-8.95,3-9s-1.86,3.85-3.72,8.76l-1.29,3.47a2.65,2.65,0,0,0-.23,1.78,1.12,1.12,0,0,0,.74.66,2.91,2.91,0,0,0,.77.11A11.23,11.23,0,0,0,782,243.13Z"/><path class="cls-5" d="M787.23,244.36c-.29,0-.29,1.91-1.94,3.28s-3.7,1.15-3.71,1.42c0,.12.46.37,1.32.4a4.83,4.83,0,0,0,3.1-1.08,4.2,4.2,0,0,0,1.51-2.75C787.58,244.83,787.36,244.35,787.23,244.36Z"/><path class="cls-5" d="M787.65,226c.18.48,2,.25,4,.5s3.76.82,4,.39c.12-.21-.17-.66-.85-1.13a6.67,6.67,0,0,0-3-1.05,6.79,6.79,0,0,0-3.15.37C788,225.41,787.58,225.79,787.65,226Z"/><path class="cls-5" d="M771.67,224.51c.31.41,1.53,0,3,0s2.71.27,3-.15c.13-.21-.07-.61-.61-1a4.2,4.2,0,0,0-2.45-.66,4.13,4.13,0,0,0-2.39.81C771.7,223.9,771.53,224.32,771.67,224.51Z"/><path class="cls-5" d="M797,225.05a9.26,9.26,0,0,0,5.85-2.09c1.06,2.84,1,6,2,8.84s1.93,30.48,4.93,30c2.75-.41,6-28.12,6.73-30.81,1.94-7.43-.49-15.62-5.43-21.5-5.87-7-15.64-12.93-24.73-12.28a20.46,20.46,0,0,0-11.27,4s-4.9,3.79-4.49,8.61c.57,6.73,10.37,11.06,17.12,10.85l1,.93A11.66,11.66,0,0,0,797,225.05Z"/><path class="cls-5" d="M768.45,222.85a10,10,0,0,0,3.35-5.39,30.35,30.35,0,0,0,.78-6.39c0-.62-.06-1.42-.66-1.59s-1.07.44-1.35,1a20.71,20.71,0,0,0-2.13,13c.13-.11-.4.34-.27.22"/><path d="M601.92,584.36,602,570l-27-.33-.34,21.05,1.67.12c7.43.51,37.82,2,42.81.59C624.75,589.8,601.92,584.36,601.92,584.36Z"/><g class="cls-13"><path d="M584.48,590.6a9.29,9.29,0,0,0-3.37-5.78,9.06,9.06,0,0,0-6.27-2l-.1,7.53Z"/></g><g class="cls-13"><path d="M613.07,587.42s8,2.41,7,3.72-31.78.92-45.34-.44l0-.6,35.89.76S611.5,587.46,613.07,587.42Z"/></g><path class="cls-5" d="M574.34,590.07a1.91,1.91,0,0,0,.46.06l1.33.1,4.9.27c4.13.2,9.85.4,16.16.49s12,0,16.18,0l4.9-.15,1.33-.06a2.15,2.15,0,0,0,.47,0,2.42,2.42,0,0,0-.47,0h-1.33l-4.9,0c-4.14,0-9.86,0-16.17-.05s-12-.25-16.17-.39l-4.89-.17-1.34,0A3.26,3.26,0,0,0,574.34,590.07Z"/><path class="cls-5" d="M602.73,587.14c.08.05.47-.41.87-1s.66-1.15.59-1.2-.47.41-.87,1S602.66,587.09,602.73,587.14Z"/><path class="cls-5" d="M600.57,586c.06.07.48-.21.95-.62s.81-.8.75-.87-.49.21-1,.62S600.51,585.89,600.57,586Z"/><path class="cls-5" d="M599.22,583.4a3.19,3.19,0,0,0,1.4.2,3.3,3.3,0,0,0,1.41-.13,6.07,6.07,0,0,0-2.81-.07Z"/><path class="cls-5" d="M598.77,581.6a2.74,2.74,0,0,0,1.56.48,2.77,2.77,0,0,0,1.62-.2,127.88,127.88,0,0,1-3.18-.28Z"/><path class="cls-5" d="M577.92,571.53a46.81,46.81,0,0,0-.31,5.53,48.05,48.05,0,0,0,0,5.54,48.26,48.26,0,0,0,.3-5.53A46.86,46.86,0,0,0,577.92,571.53Z"/><path class="cls-5" d="M587.91,588a15.8,15.8,0,0,0,3.93.44,14.91,14.91,0,0,0,3.94-.27c0-.09-1.77,0-3.94-.06S587.92,587.93,587.91,588Z"/><path d="M497.26,584.36,497.18,570l26.95-.33.34,21.05-1.67.12c-7.43.51-37.82,2-42.81.59C474.42,589.8,497.26,584.36,497.26,584.36Z"/><g class="cls-13"><path d="M514.69,590.6a9.38,9.38,0,0,1,3.37-5.78,9.1,9.1,0,0,1,6.28-2l.1,7.53Z"/></g><g class="cls-13"><path d="M486.11,587.42s-8,2.41-7,3.72,31.78.92,45.34-.44l-.05-.6-35.89.76S487.68,587.46,486.11,587.42Z"/></g><path class="cls-5" d="M524.84,590.07a1.91,1.91,0,0,1-.46.06l-1.33.1-4.9.27c-4.13.2-9.85.4-16.16.49s-12,0-16.18,0l-4.9-.15-1.34-.06a2.1,2.1,0,0,1-.46,0,2.42,2.42,0,0,1,.47,0h1.33l4.9,0c4.14,0,9.86,0,16.17-.05s12-.25,16.16-.39l4.9-.17,1.33,0A3.36,3.36,0,0,1,524.84,590.07Z"/><path class="cls-5" d="M488.54,591.28a10.4,10.4,0,0,0-.94-2.33,11.1,11.1,0,0,0-1.69-1.85,3.65,3.65,0,0,1,2,1.68A3.56,3.56,0,0,1,488.54,591.28Z"/><path class="cls-5" d="M496.44,587.14c-.07.05-.46-.41-.86-1s-.66-1.15-.59-1.2.46.41.87,1S496.52,587.09,496.44,587.14Z"/><path class="cls-5" d="M498.61,586c-.06.07-.49-.21-1-.62s-.8-.8-.74-.87.49.21,1,.62S498.67,585.89,498.61,586Z"/><path class="cls-5" d="M500,583.4a3.19,3.19,0,0,1-1.4.2,3.4,3.4,0,0,1-1.42-.13,3.22,3.22,0,0,1,1.41-.2A3.13,3.13,0,0,1,500,583.4Z"/><path class="cls-5" d="M500.41,581.6a2.74,2.74,0,0,1-1.56.48,2.81,2.81,0,0,1-1.63-.2,9.22,9.22,0,0,1,1.6-.13A8.91,8.91,0,0,1,500.41,581.6Z"/><path class="cls-5" d="M495.5,584.8a4.76,4.76,0,0,1-1.73,0,9.23,9.23,0,0,1-1.85-.38,5.3,5.3,0,0,1-1.06-.42,1,1,0,0,1-.44-.53.69.69,0,0,1,.26-.7,3.18,3.18,0,0,1,3.94.88,3.24,3.24,0,0,1,.58,1.15,1,1,0,0,1,.05.47,5,5,0,0,0-.81-1.47,3.07,3.07,0,0,0-1.49-.94,2.64,2.64,0,0,0-2.06.16c-.28.21-.17.53.14.71a4.92,4.92,0,0,0,1,.4,11,11,0,0,0,1.79.44C494.84,584.76,495.5,584.75,495.5,584.8Z"/><path class="cls-5" d="M521.26,571.53a46.81,46.81,0,0,1,.31,5.53,48.05,48.05,0,0,1,0,5.54,48.26,48.26,0,0,1-.3-5.53A46.86,46.86,0,0,1,521.26,571.53Z"/><path class="cls-5" d="M511.27,588a15.8,15.8,0,0,1-3.93.44,14.91,14.91,0,0,1-3.94-.27c0-.09,1.76,0,3.93-.06S511.26,587.93,511.27,588Z"/><polygon class="cls-5" points="620.1 308.82 609.76 578.91 567.8 579.79 574.77 345.77 527.56 581.58 487.67 581.58 539.07 309.37 620.1 308.82"/><path class="cls-5" d="M584.44,318.65a26.33,26.33,0,0,1-.49,4.45c-.39,2.74-1,6.5-1.68,10.66a44.4,44.4,0,0,1-1.2,5.87,8.31,8.31,0,0,1-2.74,4.12,6.43,6.43,0,0,1-3,1.36,2.53,2.53,0,0,1-1.22,0,7.58,7.58,0,0,0,6.36-5.67,53.13,53.13,0,0,0,1.11-5.78c.7-4.16,1.38-7.91,1.9-10.63A26.17,26.17,0,0,1,584.44,318.65Z"/><path class="cls-5" d="M575.71,319.94c.09.07-.26.51-.06,1.22a1.42,1.42,0,0,0,.7.9A1.28,1.28,0,0,0,578,320.6a1.42,1.42,0,0,0-.8-.81c-.68-.29-1.16,0-1.21-.1s.38-.62,1.37-.4a1.88,1.88,0,0,1,1.28,1.08,1.79,1.79,0,0,1-.56,2,1.77,1.77,0,0,1-2.05.29,1.84,1.84,0,0,1-.9-1.41C575.05,320.25,575.68,319.85,575.71,319.94Z"/><path class="cls-5" d="M553.17,323.8c-.19.06-.8-1.66-.55-3.85s1.18-3.75,1.35-3.65-.41,1.68-.62,3.73S553.38,323.75,553.17,323.8Z"/><path class="cls-5" d="M558.21,323.47c-.18.06-.76-1.71-.6-4s1-3.93,1.15-3.85-.27,1.77-.41,3.9S558.42,323.43,558.21,323.47Z"/><path class="cls-5" d="M601.59,324.58c-.21-.06.13-1.85.24-4.06s0-4,.18-4.06.68,1.79.55,4.1S601.77,324.63,601.59,324.58Z"/><path class="cls-5" d="M607.07,324.27c-.2-.08.45-1.85.6-4.12s-.23-4.1,0-4.16.93,1.79.76,4.22S607.23,324.37,607.07,324.27Z"/><path class="cls-11" d="M561.63,196.46l25.91-2.07c.16-3,0-14.73,0-14.73S598.27,178,598.4,167.2s-1.74-35.52-1.74-35.52h0A37.43,37.43,0,0,0,559,136.41l-1.59,1.23Z"/><path class="cls-12" d="M587.5,179.5a25,25,0,0,1-14-4s3.32,7.76,14.08,6.79Z"/><path class="cls-11" d="M558.75,148.8c-.18-.08-7.4-2.19-7.17,5.18s7.59,5.61,7.6,5.4S558.75,148.8,558.75,148.8Z"/><path class="cls-12" d="M556.84,156.66s-.13.09-.34.2a1.31,1.31,0,0,1-1,0,3.15,3.15,0,0,1-1.56-2.8,4.27,4.27,0,0,1,.3-1.85,1.48,1.48,0,0,1,.93-1,.66.66,0,0,1,.77.33c.11.2.06.35.1.36s.16-.13.09-.43a.88.88,0,0,0-.31-.45,1,1,0,0,0-.71-.17,1.83,1.83,0,0,0-1.31,1.19,4.48,4.48,0,0,0-.38,2.07c.1,1.48.9,2.85,2,3.12a1.38,1.38,0,0,0,1.17-.23C556.83,156.84,556.86,156.67,556.84,156.66Z"/><path class="cls-5" d="M594.29,148.57a1.54,1.54,0,0,1-1.49,1.55,1.46,1.46,0,0,1-1.58-1.39,1.54,1.54,0,0,1,1.48-1.55A1.47,1.47,0,0,1,594.29,148.57Z"/><path class="cls-5" d="M594.62,146.84c-.19.2-1.35-.66-3-.66s-2.87.83-3.05.63.11-.45.64-.84a4.28,4.28,0,0,1,2.44-.75,4.16,4.16,0,0,1,2.4.77C594.55,146.39,594.72,146.75,594.62,146.84Z"/><path class="cls-5" d="M578.07,149a1.54,1.54,0,0,1-1.49,1.55,1.46,1.46,0,0,1-1.58-1.39,1.53,1.53,0,0,1,1.48-1.55A1.47,1.47,0,0,1,578.07,149Z"/><path class="cls-5" d="M578.34,147.15c-.19.2-1.36-.66-3-.66s-2.87.83-3.05.63.1-.45.64-.84a4.25,4.25,0,0,1,2.44-.75,4,4,0,0,1,2.4.77C578.26,146.69,578.44,147.06,578.34,147.15Z"/><path class="cls-5" d="M584.35,159.43A11.44,11.44,0,0,1,587,159c.43,0,.83-.13.9-.42a2.16,2.16,0,0,0-.28-1.25c-.4-1-.82-2.1-1.25-3.23-1.74-4.58-3-8.35-2.81-8.42s1.74,3.59,3.48,8.18l1.2,3.24a2.42,2.42,0,0,1,.21,1.66,1.08,1.08,0,0,1-.69.62,3.43,3.43,0,0,1-.72.1A11,11,0,0,1,584.35,159.43Z"/><path class="cls-5" d="M579.48,160.58c.27,0,.27,1.78,1.81,3s3.45,1.08,3.47,1.33-.43.35-1.24.38a4.52,4.52,0,0,1-2.89-1,3.9,3.9,0,0,1-1.4-2.57C579.16,161,579.36,160.57,579.48,160.58Z"/><path class="cls-5" d="M578.77,140.66c-.16.45-1.82.23-3.76.47s-3.51.76-3.77.36c-.12-.2.16-.62.79-1.06a6.38,6.38,0,0,1,2.8-1,6.25,6.25,0,0,1,2.94.34C578.48,140.09,578.84,140.44,578.77,140.66Z"/><path class="cls-5" d="M594,142c-.3.38-1.44,0-2.81,0s-2.53.25-2.8-.14c-.12-.19.07-.57.57-.92a4,4,0,0,1,4.52.14C594,141.47,594.14,141.86,594,142Z"/><path class="cls-5" d="M601.91,124.87a4,4,0,0,0-1.46-3.55,2.82,2.82,0,0,0-3.66.27,3.29,3.29,0,0,0-2.83-4c-1.76-.12-3.26,1.21-5,1.68a8,8,0,0,1-5-.58c-1.59-.64-3.09-1.53-4.7-2.12a13.78,13.78,0,0,0-17.63,8.09,6.13,6.13,0,0,0-6.49,2.46,10.11,10.11,0,0,0-1.54,7.07,22.64,22.64,0,0,0,1.24,4.84c0,.13,0,.27,0,.41.11,5.93.78,12.89,3.31,12.93,4.4.06,3.35-8.24,3.35-8.24,5.41-2.09,3.4-10.19,4.75-11.42s4.18-4.09,15.5,1.7c4.4,2.25,10.25,2.18,13.44,1.45l.28-.05.07,0,.09,0a10,10,0,0,0,2.9-1.23,5.77,5.77,0,0,0,2.4-2.66,3.14,3.14,0,0,0-.62-3.37A6.83,6.83,0,0,0,601.91,124.87Z"/><path class="cls-14" d="M549.17,192.4c3.63-.7,7.16-2,11.43-2.19h0a45.87,45.87,0,0,0,27.63,0c1.12.14,2.68.29,4.64.52,12,1.42,16.6,3.95,25.22,12.42l-.94,48.58S620,307,619.83,315.93h-82l-.07-37.47,0-10.21-27,9.8,2.46-14.16s12.09-46.94,14-53.28C529.5,202.92,537.73,194.59,549.17,192.4Z"/><path class="cls-14" d="M523.14,264.69,563.56,259l7.68,13.76-37.57,16.94a16.32,16.32,0,0,1-6.67,1.43h0A16.21,16.21,0,0,1,512,281l-1.22-3Z"/><path class="cls-11" d="M600,252.33l-.87-.66A20.19,20.19,0,0,0,583.19,248h0a27.74,27.74,0,0,0-12.39,5.81l-6.92,5.71,7.36,13.19,5-7s4.67,6.34,5.51,5.67a10.66,10.66,0,0,0,1.83-2.67L580.26,264l8,1.68L600,260.35,595,254l5,1.67Z"/><path class="cls-14" d="M605.73,193.83s11.42,3.89,16.22,14.88c3.13,7.17,7.73,41.67,7.73,41.67l5.8,11.18a18.91,18.91,0,0,1,2.12,8.69V272a18.87,18.87,0,0,1-4.24,11.91h0a18.85,18.85,0,0,1-13,6.88c-5.79.52-12.79.75-14.29-1-2.64-3-6.6-11.12-6.6-11.12l16.89-9-7.27-13.47Z"/><path class="cls-5" d="M536.49,288.38a2.91,2.91,0,0,1,.65-.37l1.94-.94,7.25-3.39,24.77-11.3-.17.51-4.74-8.48-3-5.28.36.18L534,262.22l-8.8.79-2.38.18a4,4,0,0,1-.83,0,4.64,4.64,0,0,1,.82-.15l2.36-.31,8.78-1,29.58-3.15.24,0,.12.21c1,1.69,1.94,3.47,3,5.28l4.73,8.48.19.35-.36.16-24.87,11.07-7.34,3.19-2,.83A3.5,3.5,0,0,1,536.49,288.38Z"/><path class="cls-5" d="M543.66,260.7c-.2,0-.37-7.23-.37-16.14s.17-16.14.37-16.14.37,7.23.37,16.14S543.87,260.7,543.66,260.7Z"/><path class="cls-5" d="M613.23,271.49a3.71,3.71,0,0,1,1.23-.2,11.62,11.62,0,0,1,3.41.21,4.1,4.1,0,0,1,2.14,1.21,5.59,5.59,0,0,1,1.11,2.57,6.06,6.06,0,0,1-.27,3.08A5.78,5.78,0,0,1,618.8,281a15.36,15.36,0,0,1-5.85,2.08,26.7,26.7,0,0,1-5,.49c-2.89,0-4.6-.7-4.55-.79a24.2,24.2,0,0,0,4.54.27,31.56,31.56,0,0,0,4.88-.63,15.65,15.65,0,0,0,5.56-2,5.1,5.1,0,0,0,2.08-5,5.17,5.17,0,0,0-.92-2.29,3.63,3.63,0,0,0-1.8-1.1,13.76,13.76,0,0,0-3.27-.42A4.49,4.49,0,0,1,613.23,271.49Z"/><path class="cls-5" d="M619.93,291a8.61,8.61,0,0,1-2.9.34,18.49,18.49,0,0,1-7-1.16,14.73,14.73,0,0,1-3.48-1.85,8.46,8.46,0,0,1-2.15-2.42,6.51,6.51,0,0,1-1-2.75c.12-.05.5,1,1.48,2.47a8.36,8.36,0,0,0,2.11,2.15,15.58,15.58,0,0,0,3.34,1.71,21.56,21.56,0,0,0,6.72,1.33A17.17,17.17,0,0,1,619.93,291Z"/><path class="cls-5" d="M628,256a14,14,0,0,1-2,2.4c-1.3,1.42-3.13,3.36-5.18,5.46s-3.94,4-5.33,5.32a13.49,13.49,0,0,1-2.36,2.05,13.33,13.33,0,0,1,2-2.42c1.29-1.42,3.12-3.36,5.17-5.46C624.4,259.15,627.86,255.84,628,256Z"/><path class="cls-5" d="M609.6,248.48c-.21,0-.37-4.13-.37-9.23s.16-9.22.37-9.22.37,4.13.37,9.22S609.8,248.48,609.6,248.48Z"/><path class="cls-1" d="M620.73,208.88c0,.21-20.7.37-46.23.37s-46.23-.16-46.23-.37,20.7-.37,46.23-.37S620.73,208.68,620.73,208.88Z"/><path class="cls-1" d="M623.11,216.25c0,.2-21.82.37-48.72.37s-48.71-.17-48.71-.37,21.8-.37,48.71-.37S623.11,216,623.11,216.25Z"/><path class="cls-1" d="M617,202.17c0,.21-19,.37-42.43.37s-42.44-.16-42.44-.37,19-.37,42.44-.37S617,202,617,202.17Z"/><path class="cls-1" d="M620.93,313.3c0,.2-18.6.37-41.54.37s-41.54-.17-41.54-.37,18.6-.37,41.54-.37S620.93,313.09,620.93,313.3Z"/><path class="cls-1" d="M620.38,308.57c0,.21-18.36.37-41,.37s-41-.16-41-.37,18.34-.37,41-.37S620.38,308.37,620.38,308.57Z"/><path class="cls-1" d="M619.54,302.46c0,.21-18.29.37-40.84.37s-40.85-.16-40.85-.37,18.28-.37,40.85-.37S619.54,302.26,619.54,302.46Z"/><path class="cls-1" d="M559.93,277.17a7.39,7.39,0,0,1-2.07-1.93,19.5,19.5,0,0,1-3.37-6,19.27,19.27,0,0,1-1.12-6.75,7.25,7.25,0,0,1,.4-2.8c.24,0-.37,4.36,1.41,9.31S560.12,277,559.93,277.17Z"/><path class="cls-1" d="M556.13,279.43a8.73,8.73,0,0,1-2.24-2.13,21.41,21.41,0,0,1-3.64-6.52,21.12,21.12,0,0,1-1.19-7.38,8.47,8.47,0,0,1,.43-3.06c.25,0-.48,4.77,1.45,10.2S556.33,279.28,556.13,279.43Z"/><path class="cls-1" d="M552.49,281.28a8.83,8.83,0,0,1-2.51-2.13,19.44,19.44,0,0,1-4.84-14.82,8.68,8.68,0,0,1,.77-3.2c.12,0-.16,1.25-.25,3.24a21.84,21.84,0,0,0,1.05,7.65,22.11,22.11,0,0,0,3.67,6.79C551.63,280.36,552.58,281.18,552.49,281.28Z"/><path class="cls-1" d="M604.59,284.24c0-.05.42.33,1.24.77a9,9,0,0,0,3.8,1,32.07,32.07,0,0,0,5.91-.39c2.17-.31,4.63-1,6.19-3a8.74,8.74,0,0,0,1.84-6.6,9.41,9.41,0,0,0-2.56-5.09,14.16,14.16,0,0,0-4.52-2.95,4,4,0,0,1,1.45.37,10.11,10.11,0,0,1,3.44,2.21,9.57,9.57,0,0,1,2.86,5.36A9.28,9.28,0,0,1,622.3,283a8,8,0,0,1-3.16,2.34,13.22,13.22,0,0,1-3.51.89,29,29,0,0,1-6,.23,8.39,8.39,0,0,1-3.9-1.23C604.87,284.71,604.56,284.26,604.59,284.24Z"/><path class="cls-1" d="M619.31,265.59a1.52,1.52,0,0,1,.46,0,5.29,5.29,0,0,1,1.28.22,8.21,8.21,0,0,1,3.79,2.86,19.54,19.54,0,0,1,3.16,6.3,11.81,11.81,0,0,1,.46,4.2,9.13,9.13,0,0,1-1.51,4.29,13.08,13.08,0,0,1-7,5.07,20.77,20.77,0,0,1-7,.8,39.1,39.1,0,0,1-4.69-.5,7,7,0,0,1-1.69-.37c0-.14,2.45.26,6.39.35a21.51,21.51,0,0,0,6.78-.93,12.72,12.72,0,0,0,6.56-4.82,8.54,8.54,0,0,0,1.41-4,11.19,11.19,0,0,0-.4-3.94,20,20,0,0,0-2.91-6.17A8.4,8.4,0,0,0,621,266C619.94,265.66,619.31,265.67,619.31,265.59Z"/><polygon class="cls-5" points="587.63 251.12 561.9 282.28 563.88 284.41 605.62 278.05 626.33 246.9 624.4 245.17 587.63 251.12"/><path class="cls-11" d="M614.92,259.35h0a4,4,0,0,0-3.71,2.53c-.62,1.61-1.53,3.49-2.53,4-1.86,1-5.06,1.82-6.75,1s-8.43-6.9-9.61-6.23-2.19,2.2-1,3.55,7.42,5.39,6.24,6.74-14.34-4.59-16.36-4.06-3.21,1.76-2,2.58,10.12,4.18,10.63,5.36c0,0-13.49-3.54-14-2.7s-1.35,2.2,0,2.7,13,3.54,14,4.05a24.88,24.88,0,0,0,5.2,1.52,54.51,54.51,0,0,1,5.43,1.72,11.89,11.89,0,0,0,8.39-.22l1.37-.56a5.37,5.37,0,0,0,3.33-5.28l-.28-4.6,1.47-3.8Z"/><path class="cls-9" d="M626.38,247.05a3,3,0,0,1-.77.19l-2.23.4L615.15,249l-12.22,1.86-7.2,1.1a13.73,13.73,0,0,0-7,2.83,45.9,45.9,0,0,0-5.09,5.84l-4.57,5.7-7.76,9.61L566,282.34l-1.46,1.73c-.34.39-.53.59-.55.57a3.55,3.55,0,0,1,.43-.66l1.36-1.82,5.1-6.59,7.64-9.71c1.45-1.82,3-3.74,4.53-5.72a46.5,46.5,0,0,1,5.18-6,14.5,14.5,0,0,1,7.35-3l7.23-1,12.23-1.71,8.27-1.09,2.25-.26A3.62,3.62,0,0,1,626.38,247.05Z"/><path class="cls-2" d="M606.85,253.88a3.52,3.52,0,0,0-1.15.94,1.19,1.19,0,0,0-.05,1.4,1.29,1.29,0,0,0,1.72,0,1.71,1.71,0,0,0,.67-1,1.22,1.22,0,0,0-.36-1.12.92.92,0,0,0-1.13,0"/><rect class="cls-9" x="263.88" y="289.33" width="67.39" height="135.92"/><path class="cls-9" d="M267,424.92h0a10.51,10.51,0,0,1-10.51-10.51V299.84A10.52,10.52,0,0,1,267,289.33h0a10.52,10.52,0,0,1,10.52,10.51V414.41A10.51,10.51,0,0,1,267,424.92Z"/><path class="cls-5" d="M272.51,294.79a1.66,1.66,0,0,1,.06.34c0,.27.06.6.1,1,.07.94.18,2.21.31,3.83.25,3.4.59,8.19,1,14.09.79,12,1.86,28.39,3.05,46.53s2.2,34.63,2.78,46.56c.22,6-.51,10.88-1.75,14a18.68,18.68,0,0,1-1.71,3.46l-.58.82a1.36,1.36,0,0,1-.21.27,26.52,26.52,0,0,0,2.22-4.65c1.14-3.12,1.78-7.95,1.49-13.89-.77-12-1.83-28.39-3-46.53s-2.1-34.57-2.83-46.54c-.32-5.91-.58-10.71-.77-14.11-.07-1.62-.12-2.9-.17-3.84,0-.4,0-.73,0-1S272.49,294.79,272.51,294.79Z"/><rect class="cls-9" x="325.23" y="442.11" width="10.86" height="130.15"/><path class="cls-9" d="M406.5,442.11H251.13A16.86,16.86,0,0,1,268,425.25H389.64a16.86,16.86,0,0,1,16.86,16.86Z"/><path class="cls-5" d="M340.19,442.45c0,.22-4.26.4-9.53.4s-9.53-.18-9.53-.4,4.27-.4,9.53-.4S340.19,442.23,340.19,442.45Z"/><path class="cls-9" d="M378.18,584.06h-1.54a46.22,46.22,0,1,0-92.44,0h-1.54a47.76,47.76,0,0,1,95.52,0Z"/><circle class="cls-5" cx="283.43" cy="583.19" r="7.16"/><path class="cls-9" d="M384.88,583.52a7.16,7.16,0,1,1-7.16-7.16A7.17,7.17,0,0,1,384.88,583.52Z"/><path class="cls-9" d="M377.72,572.27c0,.22-20.79.4-46.42.4s-46.41-.18-46.41-.4,20.78-.4,46.41-.4S377.72,572,377.72,572.27Z"/><path class="cls-5" d="M313.89,425a13.11,13.11,0,0,1-2.35.17l-6.39.17c-5.4.11-12.86.2-21.1.26l-11.62.08a38.75,38.75,0,0,0-9.35.85,15.23,15.23,0,0,0-5.65,2.69c-1.2.9-1.73,1.56-1.8,1.49s.11-.18.37-.49a9.51,9.51,0,0,1,1.24-1.23,14.57,14.57,0,0,1,5.7-3,37.63,37.63,0,0,1,9.48-1c3.56-.1,7.49-.1,11.61-.14,8.25-.06,15.71-.07,21.12,0l6.39.08A13.78,13.78,0,0,1,313.89,425Z"/><path class="cls-15" d="M309.31,282.82h0c8.08,0,14.8-5.28,14.91-29.85,0-4.95-.14-9.22-.14-9.22s11.67-1.06,12.53-12.38.2-37.57.2-37.57h0a40.44,40.44,0,0,0-40.38,2.67l-1.8,1.19.56,55.61C295.26,261.07,301.35,282.82,309.31,282.82Z"/><path class="cls-16" d="M324.11,243.58a27.24,27.24,0,0,1-14.8-5.1s3.05,8.36,14.64,8Z"/><path class="cls-5" d="M334.05,212.05a1.6,1.6,0,0,1-1.56,1.6,1.54,1.54,0,0,1-1.67-1.43,1.6,1.6,0,0,1,1.56-1.6A1.54,1.54,0,0,1,334.05,212.05Z"/><path class="cls-5" d="M334.4,210.27c-.2.2-1.43-.69-3.17-.68s-3,.86-3.21.65.11-.47.67-.87a4.51,4.51,0,0,1,2.57-.77,4.28,4.28,0,0,1,2.52.8C334.32,209.8,334.5,210.17,334.4,210.27Z"/><path class="cls-5" d="M317,212.45a1.6,1.6,0,0,1-1.56,1.6,1.53,1.53,0,0,1-1.67-1.43,1.6,1.6,0,0,1,1.56-1.6A1.54,1.54,0,0,1,317,212.45Z"/><path class="cls-5" d="M317.27,210.59c-.2.2-1.43-.69-3.17-.68s-3,.86-3.21.65.11-.47.67-.87a4.47,4.47,0,0,1,2.56-.77,4.24,4.24,0,0,1,2.53.8C317.18,210.12,317.37,210.49,317.27,210.59Z"/><path class="cls-5" d="M323.59,223.25a11.79,11.79,0,0,1,2.84-.5c.44-.05.86-.13.94-.43a2.28,2.28,0,0,0-.3-1.29l-1.32-3.32c-1.83-4.73-3.15-8.62-2.95-8.69s1.83,3.71,3.66,8.43l1.26,3.34a2.48,2.48,0,0,1,.23,1.72,1.11,1.11,0,0,1-.73.63,3.31,3.31,0,0,1-.76.11A11.48,11.48,0,0,1,323.59,223.25Z"/><path class="cls-5" d="M318.46,224.43c.29,0,.29,1.84,1.91,3.15S324,228.7,324,229c0,.11-.45.36-1.3.38a4.79,4.79,0,0,1-3.05-1,4,4,0,0,1-1.47-2.64C318.12,224.88,318.33,224.42,318.46,224.43Z"/><path class="cls-5" d="M317.72,203.89c-.17.47-1.91.25-4,.49s-3.7.79-4,.37c-.12-.2.17-.64.83-1.09a6.93,6.93,0,0,1,2.95-1,6.71,6.71,0,0,1,3.09.36C317.41,203.31,317.79,203.67,317.72,203.89Z"/><path class="cls-5" d="M333.76,205.32c-.31.39-1.51,0-2.95,0s-2.67.26-2.95-.14c-.12-.2.07-.59.6-1a4.2,4.2,0,0,1,2.4-.63,4.1,4.1,0,0,1,2.36.78C333.73,204.74,333.9,205.13,333.76,205.32Z"/><path class="cls-5" d="M337.17,191.61a11.52,11.52,0,0,0-1.76-4.94,4.93,4.93,0,0,0-.6-5.08,5,5,0,0,0-6.84-.36l-.09,0a2.67,2.67,0,0,0-.82-3.21,6.19,6.19,0,0,0-4-.94c-2.6,0-8.74,2.1-13.45,3.86l-.9.16c-3.67.74-7.91,2.22-10.75,4.65-3.55,3-5.53,7.39-6.73,11.89s-1.22,9.22-.3,16.86c1.41-1.25,6.37-4.39,7.11-2.66a10.2,10.2,0,0,1,.38,3.18,2.74,2.74,0,0,0,1.62,2.55,2.16,2.16,0,0,0,2.24-1,5,5,0,0,0,.71-2.47c.28-3.52-.6-7.09,0-10.58a13,13,0,0,1,15.38-10.68c2.11.42,4.16,1.37,6.31,1.29,3.1-.12,6.27-2.35,9.06-1,.56.27,1.11.53,1.64.84,1.05.62,1.58,1.23,1.83.67A10.18,10.18,0,0,0,337.17,191.61Z"/><path class="cls-15" d="M297.62,210.17c-.22-.08-7.32-1-6.65,7.23s8.92,4.83,8.91,4.59S297.62,210.17,297.62,210.17Z"/><path class="cls-16" d="M297.08,219.31s-.14.11-.38.24a1.45,1.45,0,0,1-1.09.11c-.91-.25-1.76-1.57-1.93-3a4.56,4.56,0,0,1,.25-2.08,1.67,1.67,0,0,1,1-1.19.76.76,0,0,1,.9.33c.13.22.09.39.13.4s.17-.16.08-.49a.92.92,0,0,0-.37-.49,1.15,1.15,0,0,0-.83-.14,2,2,0,0,0-1.42,1.39,4.8,4.8,0,0,0-.32,2.33c.19,1.65,1.18,3.13,2.42,3.38a1.59,1.59,0,0,0,1.32-.33C297.08,219.51,297.11,219.32,297.08,219.31Z"/><path d="M375.67,556.19l6.4-9L357.44,530l-10.19,13.83,1.41,1.21c6.32,5.34,32.51,26.7,37.91,28.72C392.59,576,375.67,556.19,375.67,556.19Z"/><g class="cls-17"><path d="M383.67,566.22s5.6,7.38,3.84,7.86-29-20.13-40.26-30.26l.43-.49,31.6,24.3S382.24,565.22,383.67,566.22Z"/></g><path class="cls-5" d="M347.32,543a2.52,2.52,0,0,0,.37.35l1.13,1c1.14.94,2.55,2.09,4.2,3.46,3.57,2.9,8.55,6.84,14.15,11.08s10.74,8,14.5,10.61l4.47,3.1,1.23.83a2.82,2.82,0,0,0,.45.26,3.31,3.31,0,0,0-.4-.32c-.36-.27-.75-.56-1.2-.88l-4.4-3.2c-3.73-2.7-8.85-6.45-14.44-10.68s-10.59-8.15-14.2-11l-4.27-3.37-1.17-.91A3,3,0,0,0,347.32,543Z"/><path class="cls-5" d="M374.6,559.16c0,.1.68,0,1.44-.32s1.33-.58,1.3-.67a3.22,3.22,0,0,0-1.43.33C375.15,558.77,374.57,559.07,374.6,559.16Z"/><path class="cls-5" d="M373.43,556.7c0,.1.57.14,1.25.09s1.24-.17,1.23-.27-.57-.14-1.26-.09S373.42,556.6,373.43,556.7Z"/><path class="cls-5" d="M373.87,553.57c-.06.08.45.57,1.13,1.1s1.29.89,1.35.81-.45-.57-1.13-1.09S373.93,553.49,373.87,553.57Z"/><path class="cls-5" d="M374.63,551.7a3.17,3.17,0,0,0,1.09,1.44,3.12,3.12,0,0,0,1.58.9c.05-.09-.62-.52-1.34-1.16S374.72,551.64,374.63,551.7Z"/><path class="cls-5" d="M360.78,550.17a16.91,16.91,0,0,0,3.23,3,17.11,17.11,0,0,0,3.7,2.37c.05-.09-1.58-1.17-3.49-2.65S360.85,550.09,360.78,550.17Z"/><g class="cls-7"><polygon points="353.35 535.54 378.24 552.7 378.96 551.74 354.77 533.54 353.35 535.54"/></g><path d="M495.18,584.59l-2.3-10.5-28.62,6.54,3.35,16.44,1.8-.23c8-1.08,40.62-6.06,45.62-8.65C520.6,585.31,495.18,584.59,495.18,584.59Z"/><g class="cls-17"><path d="M507.68,585.36s9,.78,8.21,2.36-33.59,7.83-48.28,9.35l-.07-.64,38.29-7S506,585.74,507.68,585.36Z"/></g><path class="cls-5" d="M467.08,596.5a2.65,2.65,0,0,0,.5,0l1.44-.19,5.26-.77c4.43-.69,10.55-1.71,17.28-3s12.8-2.57,17.18-3.56l5.18-1.2,1.4-.36a3.24,3.24,0,0,0,.49-.14,2.22,2.22,0,0,0-.5.08l-1.42.28-5.2,1.1c-4.39.93-10.46,2.18-17.19,3.46s-12.84,2.34-17.26,3.09l-5.24.88-1.43.25A3,3,0,0,0,467.08,596.5Z"/><path class="cls-5" d="M496.63,587.31c.09,0,.41-.53.7-1.26s.46-1.34.37-1.37-.4.52-.7,1.25A3.05,3.05,0,0,0,496.63,587.31Z"/><path class="cls-5" d="M494.08,586.54c.08.06.47-.32.88-.85s.69-1,.61-1.06-.47.32-.89.85S494,586.49,494.08,586.54Z"/><path class="cls-5" d="M492.1,584.17a3.61,3.61,0,0,0,1.54-.1,3.57,3.57,0,0,0,1.47-.44,3.56,3.56,0,0,0-1.53.1A3.72,3.72,0,0,0,492.1,584.17Z"/><path class="cls-5" d="M491.24,582.39a3,3,0,0,0,1.76.16,3.12,3.12,0,0,0,1.69-.55,8.44,8.44,0,0,0-1.72.21A9.84,9.84,0,0,0,491.24,582.39Z"/><path class="cls-5" d="M481.07,591.43a24.49,24.49,0,0,0,8.4-1.52c0-.1-1.88.37-4.2.78S481.06,591.33,481.07,591.43Z"/><g class="cls-7"><polygon points="465.61 587.23 494.33 580.44 494.11 579.29 465.09 584.89 465.61 587.23"/></g><path class="cls-16" d="M420.69,329.78c0-.53,4.93-5.19,5.72-5.46s15.17-6.25,15.43-5.58,2,3.94-.93,5.49l-2.26.76,8.25.66s9.18,6.79,9.05,8.25-1.33,2.4-2.13,1.73,2.13,4.66,2.13,4.66,0,2.26-1.2,1.86-3.06-2.53-3.06-2.53,1.73,2.8,1.2,3.33-3.2.66-3.46,0-.67-1.86-.67-1.86l-1.59.13v2.18l-24.35.74Z"/><polygon class="cls-1" points="326.34 262.6 333.77 271.4 363.51 323.43 421.49 329.17 422.76 345.95 355.97 352.25 318.69 284.78 326.34 262.6"/><path class="cls-3" d="M332.21,288l-5.75-21.71-.12-7.07-32.27-14.66-6.21,7.72.75.39c-2.54,2.67-21.33,23-20.21,37.94,1,13.5,29.44,98.52,29.44,98.52l64.76-18.93Z"/><path class="cls-18" d="M325.76,266.56l-1.82,8.89,4.73,8.9v6.59l33.93,79.24,10,3.38,1.7-6.8s-28.25-48.21-33.13-61.8-12.11-33.14-12.11-33.14Z"/><path class="cls-3" d="M274.25,306.5c0,.84,58.49,57.37,58.49,57.37l79-15.47-2.53-16.87-54,1.46c-5.9.24-10.59-1.73-14.19-6.41-11.58-15-36.67-47.62-37.32-48.49C302.93,277,274.25,306.5,274.25,306.5Z"/><path class="cls-9" d="M409.23,331.53s.07.34.19,1.06.3,1.81.52,3.2c.46,2.88,1.12,7.1,2,12.59l0,.15-.16,0-63.08,12.19-5.2,1a24,24,0,0,1-5.45.48,22,22,0,0,1-15.27-6.91c-1.33-1.44-2.57-2.93-3.88-4.41l-7.9-9.07c-10.68-12.3-22-25.34-33.77-38.86l0-.05,0-.05-.23-.61a25.55,25.55,0,0,1-1.9-9.11,16.72,16.72,0,0,1,2.26-8.89,18.63,18.63,0,0,1,6.49-6.3,20.15,20.15,0,0,1,8.46-2.81,16.11,16.11,0,0,1,8.61,1.54,22.36,22.36,0,0,1,6.72,5.33,71.7,71.7,0,0,1,5.09,6.63l4.72,6.61c6.29,8.66,12.52,16.7,18.53,24.08l4.47,5.4a47.14,47.14,0,0,0,4.49,5,10.48,10.48,0,0,0,5.77,2.35,44,44,0,0,0,6.17.17l38.42-.59,10.4-.13,2.69,0c.61,0,.9,0,.9,0l-1,0-2.73.09-10.45.26-38.28.87a45.29,45.29,0,0,1-6.24-.14,11.14,11.14,0,0,1-6.08-2.47,47.63,47.63,0,0,1-4.58-5l-4.49-5.4c-6-7.37-12.3-15.41-18.61-24.07l-4.74-6.6a70.12,70.12,0,0,0-5-6.56,21.72,21.72,0,0,0-6.5-5.16,15.33,15.33,0,0,0-8.22-1.45A19.33,19.33,0,0,0,278,284.66a15.93,15.93,0,0,0-2.15,8.5,24.92,24.92,0,0,0,1.85,8.83l.23.6-.06-.11,33.75,38.88,7.88,9.08c1.3,1.48,2.56,3,3.85,4.4a21.29,21.29,0,0,0,14.79,6.72,22.88,22.88,0,0,0,5.3-.46l5.2-1,63.14-11.88-.13.18-1.79-12.52c-.19-1.42-.34-2.49-.44-3.25S409.23,331.53,409.23,331.53Z"/><path class="cls-9" d="M326.34,259.2c.08,0-.23,1.44-.51,4s-.48,6.16-1.39,10.46l-.1.45-.4-.23L312.4,267.2c-6.66-3.86-12.66-7.39-17-10l-5.11-3.11a13.42,13.42,0,0,1-1.82-1.22,11.14,11.14,0,0,1,2,1l5.23,2.89c4.39,2.47,10.44,5.93,17.09,9.79l11.5,6.73-.49.21c.95-4.2,1.19-7.85,1.65-10.36.2-1.27.41-2.25.57-2.92A4.2,4.2,0,0,1,326.34,259.2Z"/><path class="cls-15" d="M443.12,331.56,429,327.7l-11.7,5.85h-6.66l-1.06.44,1.89,12.62,1.68.24a16.38,16.38,0,0,0,5.61,2.13c3.72.8,9.18-1.59,9.18-1.59l7.45-4.13,5.32-1.51,4,2.31a15.5,15.5,0,0,1,.4,2.13c0,.53,1.46,1.2,2.26,1.2s1.06-1.87,1.06-1.87l-.93-4,1.86,1.72H454v-2.92Z"/><polygon class="cls-5" points="411.76 424.17 350.99 532.36 383.47 554.39 437.18 459.06 428.13 424.17 411.76 424.17"/><path class="cls-5" d="M297.84,389.11s-7,29.39,12,35.37,117.41,9.1,117.41,9.1l36.61,151.17,31.33-4.45-27-162A27.41,27.41,0,0,0,445.93,396c-29.2-5.22-82.11-14.8-82.83-15.89-1-1.49-5-10-5-10Z"/><path class="cls-9" d="M439,479.78a3.7,3.7,0,0,1-.32-.78c-.19-.52-.44-1.29-.72-2.3-.58-2-1.3-4.94-2.07-8.59s-1.64-8-2.63-12.82-2.14-10.15-4.55-15.23c-1.24-2.48-2.89-4.86-5.39-5.65a41.84,41.84,0,0,0-7.46-1.64c-4.87-.67-9.29-1-13-1.22s-6.73-.35-8.81-.43l-2.4-.1a3.44,3.44,0,0,1-.83-.08,3.22,3.22,0,0,1,.83-.07c.55,0,1.36,0,2.41-.05,2.08,0,5.1,0,8.83.19s8.17.42,13.07,1.06a41.73,41.73,0,0,1,7.63,1.63,9.61,9.61,0,0,1,1.89,1A9.08,9.08,0,0,1,427,436.1a17,17,0,0,1,2.33,3.62c2.48,5.22,3.53,10.61,4.56,15.42s1.76,9.21,2.47,12.86,1.34,6.61,1.83,8.63S439,479.75,439,479.78Z"/><polygon class="cls-9" points="796.64 353.09 405.54 351.68 405.49 363.3 428.71 363.38 427.9 589.56 436.1 589.59 436.91 363.41 760.08 364.57 759.26 590.75 767.46 590.78 768.27 364.6 796.6 364.7 796.64 353.09"/><polygon class="cls-1" points="662.31 288.92 684 352.31 782.24 352.31 781.51 349.05 741.79 347.82 723.49 288.88 662.31 288.92"/><path class="cls-8" d="M705.84,318.7c.65,2.59-.46,5.14-2.49,5.68s-4.18-1.13-4.83-3.73S699,315.51,701,315,705.19,316.1,705.84,318.7Z"/><polygon class="cls-1" points="565.65 287.14 543.95 350.54 445.72 350.54 446.44 347.27 486.16 346.05 504.46 287.11 565.65 287.14"/><path class="cls-8" d="M522.12,316.92c-.65,2.6.46,5.14,2.48,5.68s4.19-1.13,4.83-3.72-.46-5.15-2.48-5.69S522.76,314.32,522.12,316.92Z"/><circle class="cls-9" cx="605.51" cy="328.35" r="12.03" transform="translate(184.18 873.27) rotate(-80.76)"/><rect class="cls-1" x="566.24" y="323.6" width="78.54" height="28.71"/><path class="cls-5" d="M596.43,331.53c0,.21-5.74.38-12.81.38s-12.82-.17-12.82-.38,5.74-.39,12.82-.39S596.43,331.31,596.43,331.53Z"/><path class="cls-5" d="M596.43,335.65c0,.21-5.74.38-12.81.38s-12.82-.17-12.82-.38,5.74-.38,12.82-.38S596.43,335.44,596.43,335.65Z"/><path class="cls-5" d="M596.43,339.77c0,.21-5.74.38-12.81.38s-12.82-.17-12.82-.38,5.74-.38,12.82-.38S596.43,339.56,596.43,339.77Z"/><path class="cls-5" d="M596.43,343.89c0,.21-5.74.38-12.81.38s-12.82-.17-12.82-.38,5.74-.38,12.82-.38S596.43,343.68,596.43,343.89Z"/><path class="cls-5" d="M610.76,351.64c-.21,0-.38-6.17-.38-13.79s.17-13.79.38-13.79.38,6.18.38,13.79S611,351.64,610.76,351.64Z"/></svg>