<svg id="Capa_2" data-name="Capa 2" xmlns="http://www.w3.org/2000/svg" viewBox="0 0 153.67 158.83"><defs><style>.cls-1{fill:#fff;}.cls-2{fill:#1a7fcd;}</style></defs><title>ugiland - casos de exito</title><path class="cls-1" d="M152.13,9.87,57.86.13a1.61,1.61,0,0,0-1.75,1.42L54,21.9,1.49,29A1.59,1.59,0,0,0,.13,30.81L16.19,149.53a1.6,1.6,0,0,0,.62,1,1.53,1.53,0,0,0,1.18.32L32.26,149v7.83a1.6,1.6,0,0,0,1.59,1.6h75.21a1.63,1.63,0,0,0,1.13-.47l19.56-19.54a1.66,1.66,0,0,0,.46-1.13v-6l9.29,1a1.6,1.6,0,0,0,1.74-1.42l1.52-14.67a1.51,1.51,0,0,0-1.47-1.66,1.44,1.44,0,0,0-1.7,1.33l-1.35,13.09-8-.82V37a1.59,1.59,0,0,0-1.59-1.59h-29L97.19,17.66A1.61,1.61,0,0,0,95.4,16.3L57.26,21.46l1.86-18,91.1,9.41-9.32,90.25a1.59,1.59,0,0,0,3.17.32l9.48-91.82A1.59,1.59,0,0,0,152.13,9.87ZM110.65,153V138.84h14.13ZM94.25,19.67,96.38,35.4H33.85A1.59,1.59,0,0,0,32.26,37V54.81A1.38,1.38,0,0,0,33,56.15,1.94,1.94,0,0,0,34.92,56a1.36,1.36,0,0,0,.53-1.43v-16H127v97.08h-18a1.59,1.59,0,0,0-1.59,1.59V155.2h-72V67.53a1.34,1.34,0,0,0-.53-1.4A2,2,0,0,0,33,66a1.34,1.34,0,0,0-.72,1.31v78.46l-13.13,1.77L3.5,32Z"/><path class="cls-1" d="M83.23,59.59A1.59,1.59,0,1,0,81.64,58,1.59,1.59,0,0,0,83.23,59.59Z"/><path class="cls-1" d="M147.21,147.45,115,115.18l.19-.28a37.8,37.8,0,0,0,6-20.54,38.22,38.22,0,0,0-1.29-9.83l-.07-.24,7.7-7.7.28.17a7.64,7.64,0,1,0-2.7-2.7l.17.28-6.55,6.56-.24-.6A38.09,38.09,0,0,0,92.62,57.56a1.59,1.59,0,0,0-.78,3.09,35.08,35.08,0,0,1,24.31,22.49l.09.25L105.62,94l-.28-.17a7.75,7.75,0,0,0-7.75,0L97.3,94l-7.56-7.57.17-.28A7.63,7.63,0,1,0,75.7,82.27a7.54,7.54,0,0,0,1.06,3.88l.17.28L69.36,94l-.29-.17a7.64,7.64,0,1,0,2.7,2.7l-.16-.28,7.56-7.57.29.17a7.72,7.72,0,0,0,7.75,0l.28-.17,7.56,7.56-.17.29a7.64,7.64,0,1,0,13.16,0l-.17-.28,9.34-9.34.15.78a34.72,34.72,0,1,1-42.72-27,1.55,1.55,0,0,0,1-.73,1.65,1.65,0,0,0,.17-1.21,1.6,1.6,0,0,0-.74-1,1.62,1.62,0,0,0-1.2-.17,37.91,37.91,0,1,0,30,68.56l.29-.19,32.27,32.26a1.59,1.59,0,0,0,2.25,0l8.54-8.54A1.59,1.59,0,0,0,147.21,147.45ZM131.68,65.73a4.46,4.46,0,1,1-4.45,4.46A4.46,4.46,0,0,1,131.68,65.73ZM65.2,104.86a4.46,4.46,0,1,1,4.45-4.45A4.45,4.45,0,0,1,65.2,104.86ZM83.33,86.73a4.46,4.46,0,1,1,4.45-4.46A4.46,4.46,0,0,1,83.33,86.73Zm18.13,18.13a4.46,4.46,0,1,1,4.46-4.45A4.46,4.46,0,0,1,101.46,104.86Zm5.31,19.24.36-.3a37.59,37.59,0,0,0,5.64-5.64l.3-.36,5.53,5.53-6.3,6.3Zm30.77,30.77-23-23,6.3-6.3,23,23Z"/><rect class="cls-2" x="124.74" y="123.97" width="8.91" height="32.51" transform="translate(-61.31 132.43) rotate(-45)"/><circle class="cls-2" cx="131.68" cy="70.19" r="4.45"/></svg>