<svg id="Capa_2" data-name="Capa 2" xmlns="http://www.w3.org/2000/svg" viewBox="0 0 1152.44 609.84"><defs><style>.cls-1,.cls-17,.cls-18,.cls-20{opacity:0.5;}.cls-2{fill:#ececec;}.cls-3{fill:#fff;}.cls-4{fill:#dcdcdc;}.cls-5{fill:#006837;}.cls-12,.cls-5{opacity:0.3;}.cls-6{fill:#1a2e35;}.cls-7{fill:#ffbf9d;}.cls-8{fill:#ff9a6c;}.cls-17,.cls-9{fill:#ff4f5b;}.cls-10{fill:#375a64;}.cls-11{fill:#00499a;}.cls-13{fill:#fafafa;}.cls-14{fill:#b78876;}.cls-15{fill:#aa6550;}.cls-16{fill:#1a7fcd;}.cls-18,.cls-19{fill:#f4bb47;}.cls-20,.cls-21{fill:#7ac943;}</style></defs><title>ugiland - casos de exito</title><g class="cls-1"><path class="cls-2" d="M86,22.88h979.37V591.36H86Z"/><rect class="cls-3" x="991.18" y="93.66" width="18.48" height="252.94"/><path class="cls-3" d="M119.18,22.89H100.7V184.07H86v18.48h44l71.36,155.76,24.21,14.84-94.89,94.9H86v9.24h43.83V591.37h18.48V575.2h361.5V479.07l63.6,27.82H710.91v84.2h9.24v-84.2h36.38v-151H889.58V591.37h18.48V355.84h157.33V337.36H756.53V285.22H857.27V256.88H848V276h-91.5V227.9l132.5-125h176.36V84.43H881.7L819,143.57,698.31,22.89H672.19L805.56,156.26l-67.51,63.66V408.36L611.36,291.84V23.2h-9.24V283.34L484.44,175.08V22.89H466v63.3H119.18ZM491.34,556.72H297.57V479.6h-9.24v77.12h-140V476.49l93.41-93.42,73.86,45.21v0a65.83,65.83,0,0,0,126,20.92L491.34,471ZM333.83,423a47.37,47.37,0,1,1,47.37,47.37A47.42,47.42,0,0,1,333.83,423Zm404.22,10.5v54.92H577.3l-130.78-57.2a65.6,65.6,0,0,0-25.75-60.83l63.67-133.86V200.21ZM466,104.67V232.36L404.57,361.42a65.29,65.29,0,0,0-23.37-4.28,66,66,0,0,0-64,50.45l-101.39-62.1L169.66,244.84l140.2-140.17Zm-169.16,0L165.56,235.88l-23.74-51.81H119.18v-79.4Z"/><rect class="cls-4" x="697.15" y="445.69" width="26.87" height="26.87" transform="translate(251.46 1169.72) rotate(-90)"/><polygon class="cls-4" points="620.97 193.31 672.87 193.31 672.87 212.19 694.55 212.19 694.55 245.42 620.97 245.42 620.97 193.31"/><polygon class="cls-4" points="982.7 328.84 952.49 328.84 952.49 313.64 920.7 313.64 920.7 285.48 982.7 285.48 982.7 328.84"/><rect class="cls-4" x="937.42" y="113.8" width="45.28" height="33.07"/><polygon class="cls-4" points="764.37 268.68 802.95 268.68 802.95 196.38 763.89 235.43 764.37 268.68"/><rect class="cls-4" x="763.89" y="292.52" width="36.33" height="36.33" transform="translate(471.38 1092.74) rotate(-90)"/><rect class="cls-4" x="745.54" y="539.5" width="29.04" height="60.4" transform="translate(190.36 1329.75) rotate(-90)"/><rect class="cls-4" x="727.35" y="517.04" width="32.81" height="27.8" transform="translate(212.81 1274.69) rotate(-90)"/><rect class="cls-4" x="840.33" y="366.28" width="43.76" height="40.24" transform="translate(475.81 1248.6) rotate(-90)"/><polygon class="cls-4" points="834.19 364.52 763.89 364.52 763.89 418.04 798.02 452.16 834.19 452.16 834.19 364.52"/><polygon class="cls-4" points="790.26 461.82 763.38 434.94 763.38 506.68 790.26 506.68 790.26 461.82"/><polygon class="cls-4" points="482.99 478.72 482.99 547.35 450.62 547.35 450.62 465.66 482.99 478.72"/><rect class="cls-4" x="397.74" y="510.34" width="29.45" height="44.55" transform="translate(-120.16 945.08) rotate(-90)"/><path class="cls-4" d="M310.29,478.21h15.56a99.79,99.79,0,0,0,53.59,24.37v44.78H310.29Z"/><path class="cls-4" d="M460.17,317.53l60.73,28.12V379.9l-27.13,58.49-33.39-15.28V423a79,79,0,0,0-22.7-55.57Z"/><polygon class="cls-4" points="535.82 204.47 495.48 167.36 495.48 94.43 535.82 94.43 535.82 204.47"/><rect class="cls-4" x="492.59" y="41.53" width="46.12" height="40.35" transform="translate(453.94 577.36) rotate(-90)"/><polygon class="cls-4" points="144.88 267.62 121.09 215.68 86.01 215.68 86.01 267.62 144.88 267.62"/><polygon class="cls-4" points="139.21 442.83 186.48 395.56 105.71 395.56 105.71 442.83 139.21 442.83"/><polygon class="cls-4" points="186.48 378.86 186.48 361.96 155.64 293.59 105.71 293.59 105.71 378.86 186.48 378.86"/><polygon class="cls-5" points="158.17 481.68 197.47 442.38 197.47 523.1 158.17 523.1 158.17 481.68"/><polygon class="cls-4" points="307.74 438.01 245.09 399.66 206.47 436.22 206.47 486.01 248.08 486.01 248.08 458.64 290.43 458.64 307.74 438.01"/><rect class="cls-4" x="84.34" y="492.95" width="43.93" height="30.04" transform="translate(-401.67 614.27) rotate(-90)"/><polygon class="cls-4" points="121.33 540.18 121.33 581.83 91.28 581.83 91.28 569.88 103.79 557.37 103.79 540.18 121.33 540.18"/><path class="cls-4" d="M316.3,269.4l57.84,55.49-16.63,21.28a80.35,80.35,0,0,0-47.4,39.36l-75.83-46.41Z"/><polygon class="cls-4" points="399.68 329.84 447.86 232.36 447.86 183.74 363.1 183.74 325.67 259.54 399.68 329.84"/><polygon class="cls-4" points="270.35 114.99 228.47 114.99 228.47 156.86 270.35 114.99"/><rect class="cls-4" x="189.24" y="110.32" width="24.72" height="34.06" transform="translate(74.26 328.94) rotate(-90)"/><polygon class="cls-4" points="131.07 114.98 173.57 114.98 173.57 148.65 197.1 148.65 197.1 172.49 131.07 172.49 131.07 114.98"/><polygon class="cls-4" points="190.38 183.74 151.28 183.74 168.07 220.62 190.38 198.31 190.38 183.74"/><polygon class="cls-5" points="685.94 472.56 579.41 472.56 506.7 442.83 533.57 388.59 533.57 262.1 685.94 403.95 685.94 472.56"/><rect class="cls-5" x="139.22" y="14.73" width="49.73" height="66.04" transform="translate(116.34 211.83) rotate(-90)"/><polygon class="cls-5" points="838.3 164.03 838.3 268.68 812.08 268.68 812.08 188.77 838.3 164.03"/><rect class="cls-4" x="626.96" y="510.99" width="69.68" height="76.77" transform="translate(112.42 1211.18) rotate(-90)"/><rect class="cls-4" x="578.27" y="514.54" width="32.81" height="32.81" transform="translate(63.73 1125.62) rotate(-90)"/><polygon class="cls-4" points="568.31 514.54 568.31 565.65 518.56 565.65 518.56 493.06 568.31 514.54"/><rect class="cls-4" x="591.61" y="564.74" width="29.04" height="9.91" transform="translate(36.43 1175.82) rotate(-90)"/><rect class="cls-4" x="571.95" y="561.5" width="29.04" height="16.4" transform="translate(16.78 1156.17) rotate(-90)"/><rect class="cls-4" x="393.42" y="115.83" width="53.44" height="55.44" transform="translate(276.59 563.69) rotate(-90)"/><rect class="cls-4" x="347.33" y="133.82" width="53.44" height="19.46" transform="translate(230.5 517.6) rotate(-90)"/><polygon class="cls-4" points="220.28 330.31 182.01 246.76 246.84 181.94 307.74 258.69 220.28 330.31"/><polygon class="cls-5" points="256.01 175.21 286.4 143.55 319.83 181.94 349.9 181.94 315.42 249.64 256.01 175.21"/><polygon class="cls-4" points="314.73 116.83 296.8 135.92 325.67 170.27 355.74 170.27 355.74 116.83 314.73 116.83"/><rect class="cls-4" x="218.52" y="488.1" width="47.63" height="70.86" transform="translate(-281.19 765.87) rotate(-90)"/><rect class="cls-4" x="257.1" y="469.7" width="16.31" height="16.31" transform="translate(-212.6 743.11) rotate(-90)"/><rect class="cls-4" x="388.7" y="13.45" width="49.42" height="68.42" transform="translate(365.74 461.07) rotate(-90)"/><polygon class="cls-4" points="364.08 72.37 364.08 22.95 286.5 22.95 316.63 72.37 364.08 72.37"/><polygon class="cls-4" points="300.56 72.61 252.77 72.61 252.77 22.9 272.57 22.9 300.56 72.61"/><rect class="cls-4" x="215.98" y="43.51" width="18.27" height="39.94" transform="translate(161.63 288.6) rotate(-90)"/><rect class="cls-4" x="213.99" y="14.03" width="22.25" height="39.94" transform="translate(191.11 259.12) rotate(-90)"/><rect class="cls-5" x="945.49" y="2.47" width="47.68" height="88.51" transform="translate(922.61 1016.06) rotate(-90)"/><polygon class="cls-5" points="1031.35 367.33 1031.35 415.63 980.65 470.81 919.17 470.81 919.17 367.33 1031.35 367.33"/><rect class="cls-4" x="905.19" y="493.55" width="60.94" height="33" transform="translate(425.61 1445.72) rotate(-90)"/><rect class="cls-4" x="939.43" y="500.83" width="60.94" height="18.44" transform="translate(459.85 1479.95) rotate(-90)"/><polygon class="cls-4" points="978.1 560.92 978.1 548.28 919.17 548.28 919.17 576.45 961.7 576.45 978.1 560.92"/><rect class="cls-4" x="1027.42" y="377.66" width="48.3" height="27.63" transform="translate(660.09 1443.05) rotate(-90)"/><path class="cls-4" d="M1031.35,426.07h34V543.41c0,12.82,0,21.13,0,33.05H986.54V473.9Z"/><polygon class="cls-4" points="590.93 256.13 544.79 212.19 544.79 170.27 590.93 170.27 590.93 256.13"/><rect class="cls-4" x="530.48" y="126.02" width="49.85" height="21.22" transform="translate(418.77 692.03) rotate(-90)"/><rect class="cls-4" x="570.07" y="140.69" width="22.45" height="19.27" transform="translate(430.97 731.62) rotate(-90)"/><rect class="cls-4" x="570.39" y="112.98" width="21.82" height="19.27" transform="translate(458.68 703.91) rotate(-90)"/><rect class="cls-4" x="552.11" y="66.83" width="31.49" height="46.15" transform="translate(477.96 657.76) rotate(-90)"/><polygon class="cls-4" points="544.79 39.07 544.79 66.34 576.34 66.34 590.93 53.28 590.93 39.07 544.79 39.07"/><polygon class="cls-4" points="520.9 332.51 520.9 262.1 487.23 262.1 466.8 307.12 520.9 332.51"/><circle class="cls-4" cx="380.93" cy="422.99" r="31.61" transform="translate(-100.19 727.21) rotate(-80.3)"/><polygon class="cls-5" points="882.33 532.6 882.33 584.22 796.12 584.22 796.12 555.18 825.6 532.6 882.33 532.6"/><polygon class="cls-4" points="815.37 514.54 815.37 532.6 796.12 547.35 765.74 547.35 765.74 514.54 815.37 514.54"/><rect class="cls-4" x="855.83" y="497.07" width="28.72" height="24.29" transform="translate(360.97 1379.4) rotate(-90)"/><polygon class="cls-4" points="799.03 462.6 882.31 462.6 882.31 488.4 815.35 488.4 815.35 506.67 799.03 506.67 799.03 462.6"/><rect class="cls-4" x="845.06" y="414.89" width="36.53" height="38" transform="translate(429.43 1297.22) rotate(-90)"/><rect class="cls-4" x="823.66" y="493.87" width="28.75" height="30.71" transform="translate(328.81 1347.27) rotate(-90)"/><polygon class="cls-4" points="752.28 122.3 620.97 122.3 620.97 34.09 665.59 34.09 752.28 122.3"/><rect class="cls-4" x="619.78" y="132.36" width="54.28" height="51.9" transform="translate(488.61 805.23) rotate(-90)"/><polygon class="cls-4" points="728.77 383.64 667.16 327.01 667.16 255.95 728.77 255.95 728.77 383.64"/><polygon class="cls-4" points="660.04 318.94 620.97 283.01 620.97 256.13 660.04 256.13 660.04 318.94"/><rect class="cls-4" x="699.29" y="215.94" width="33.23" height="25.74" transform="translate(487.1 944.71) rotate(-90)"/><polygon class="cls-4" points="704.11 131.16 761.98 131.16 790.25 157.43 741.16 203.2 685.01 203.2 685.01 148.93 704.11 148.93 704.11 131.16"/><polygon class="cls-4" points="868.5 84.35 817.72 130.88 766.14 78.08 797.6 48.92 868.5 84.35"/><polygon class="cls-4" points="759.57 72.1 789.92 43.96 789.92 22.88 710.65 22.88 759.57 72.1"/><polygon class="cls-4" points="884.5 70.57 877.09 77.48 827.79 54.45 827.79 22.89 917.28 22.89 917.28 70.57 884.5 70.57"/><rect class="cls-4" x="799.08" y="20.73" width="20.54" height="24.84" transform="translate(776.2 842.5) rotate(-90)"/><rect class="cls-4" x="1010.49" y="287.27" width="48.26" height="34.9" transform="translate(729.9 1339.34) rotate(-90)"/><rect class="cls-4" x="1032.27" y="240.26" width="18" height="48.21" transform="translate(776.91 1305.64) rotate(-90)"/><rect class="cls-4" x="1013.51" y="226.33" width="25.26" height="17.94" transform="translate(790.84 1261.44) rotate(-90)"/><rect class="cls-4" x="1035.02" y="217.57" width="35.74" height="24.98" transform="translate(822.83 1282.95) rotate(-90)"/><polygon class="cls-4" points="1017.16 169.48 1065.38 169.48 1065.38 204.5 1035.11 204.5 1035.11 214.23 1017.16 214.23 1017.16 169.48"/><polygon class="cls-4" points="1065.39 140.73 1042.45 163.66 1017.17 163.66 1017.17 109.48 1065.39 109.48 1065.39 140.73"/><path class="cls-4" d="M1023.84,22.88h41.54s0,34.82,0,47.69h-41.55Z"/><polygon class="cls-4" points="928.98 113.8 928.98 196.38 846.65 196.38 846.65 154.91 891.8 113.8 928.98 113.8"/><rect class="cls-4" x="852.56" y="200.11" width="40.37" height="52.18" transform="translate(646.54 1098.95) rotate(-90)"/><polygon class="cls-4" points="937.41 154.9 982.7 154.9 982.7 246.38 905.38 246.38 905.38 206.03 937.41 206.03 937.41 154.9"/><rect class="cls-4" x="946.12" y="244" width="28.99" height="44.19" transform="translate(694.52 1226.7) rotate(-90)"/><rect class="cls-4" x="857.46" y="271.23" width="77.24" height="37.98" transform="translate(605.86 1186.3) rotate(-90)"/><rect class="cls-5" x="912.37" y="259.93" width="28.99" height="12.32" transform="translate(660.77 1192.96) rotate(-90)"/><polygon class="cls-4" points="807.47 292.52 807.47 313.64 821.9 328.84 863.89 328.84 863.89 292.52 807.47 292.52"/></g><path class="cls-6" d="M1065.76,190.18c0,8.2,10.8,13.52,10.4,21.71-.18,3.52-2.46,6.6-3,10.08-.73,4.68,1.75,9.19,2.57,13.85,1.69,9.6-4.18,19.49-12.57,24.44s-18.76,5.62-28.37,4"/><path class="cls-6" d="M999.88,186.05c.18,4.41-2.85,8.24-5.88,11.45s-6.4,6.54-7.18,10.88c-1.36,7.7,6,15.12,4.17,22.73-1,4.08-4.44,7.27-5.17,11.39s1.32,8,3.88,11.13,5.67,2.79,7.92,6.16a33.23,33.23,0,0,0,9.92,9.41c8.34,4.92,18.74-1.47,22.88-2.55"/><path class="cls-6" d="M1067.26,195c.24-4-3.35-7.19-7-8.77s-7.77-2.26-11-4.59c-2.87-2.07-4.74-5.21-7.14-7.81a24.58,24.58,0,0,0-41.67,9.94c-1.61,5.64-.85,12.39,3.51,16.3,5.05,4.55,12.79,3.83,19.49,2.68s14.28-2.25,19.72,1.84c3.27,2.46,5.07,6.36,7,10s4.39,7.32,8.22,8.78,9.17-.68,9.45-4.77"/><path class="cls-7" d="M1052.1,193.48,1017,183.31c-11.3-1.59-19.32,12.12-20.43,23.47-1.23,12.62-2.24,28.08-1.07,37.57,2.37,19.08,16.83,22,16.83,22s-.17,5.56-.37,12.32a20.38,20.38,0,0,0,19.4,21h0a20.37,20.37,0,0,0,21.31-19l5.18-80.13A6.68,6.68,0,0,0,1052.1,193.48Z"/><path class="cls-6" d="M999,220.64a2.44,2.44,0,0,0,2.26,2.54,2.33,2.33,0,0,0,2.58-2.11,2.44,2.44,0,0,0-2.26-2.54A2.33,2.33,0,0,0,999,220.64Z"/><path class="cls-6" d="M999,216.73c.29.33,2.18-1,4.8-.87s4.49,1.47,4.79,1.16c.14-.14-.15-.72-1-1.36a6.68,6.68,0,0,0-3.82-1.32,6.4,6.4,0,0,0-3.84,1.09C999.19,216,998.9,216.59,999,216.73Z"/><path class="cls-6" d="M1024.53,221.32a2.43,2.43,0,0,0,2.26,2.54,2.32,2.32,0,0,0,2.58-2.11,2.42,2.42,0,0,0-2.26-2.53A2.32,2.32,0,0,0,1024.53,221.32Z"/><path class="cls-6" d="M1024.76,218.11c.29.32,2.19-1,4.8-.88s4.49,1.47,4.79,1.16c.14-.14-.14-.72-1-1.36a6.72,6.72,0,0,0-3.82-1.32,6.44,6.44,0,0,0-3.83,1.09C1024.91,217.39,1024.62,218,1024.76,218.11Z"/><path class="cls-6" d="M1014.59,237.2c0-.15-1.6-.49-4.23-.91-.66-.1-1.29-.25-1.39-.71a3.45,3.45,0,0,1,.52-2l2.15-5c3-7.16,5.19-13.05,4.9-13.17s-2.95,5.59-5.95,12.74l-2.07,5.06a3.9,3.9,0,0,0-.44,2.61,1.69,1.69,0,0,0,1.07,1,5.29,5.29,0,0,0,1.13.2C1012.93,237.28,1014.58,237.35,1014.59,237.2Z"/><path class="cls-8" d="M1012.32,266.34a45.91,45.91,0,0,0,25.38-5.64c-.21,0-7.42,13-25.54,10.39Z"/><path class="cls-9" d="M1015.48,243.55a4.74,4.74,0,0,1,4.29-1.61,4.31,4.31,0,0,1,2.92,1.7,2.73,2.73,0,0,1,.1,3.13,3.16,3.16,0,0,1-3.46.75,9.84,9.84,0,0,1-3.28-2.12,2.75,2.75,0,0,1-.72-.8.86.86,0,0,1,0-1"/><path class="cls-6" d="M1022.23,239.28c-.42,0-.52,2.8-3,4.73s-5.51,1.52-5.55,1.92c0,.17.66.57,1.93.65a7,7,0,0,0,4.63-1.44,6.1,6.1,0,0,0,2.36-4C1022.72,240,1022.43,239.27,1022.23,239.28Z"/><path class="cls-6" d="M1023.74,213.48c.24.72,2.86.47,5.92,1s5.52,1.4,5.95.77c.19-.29-.22-1-1.2-1.7a9.89,9.89,0,0,0-4.37-1.7,10,10,0,0,0-4.67.38C1024.23,212.6,1023.64,213.14,1023.74,213.48Z"/><path class="cls-6" d="M1000.26,209.19c.44.61,2.27.05,4.44.1s4,.54,4.43-.07c.2-.3-.07-.9-.85-1.49a6.43,6.43,0,0,0-7.15,0C1000.34,208.29,1000.07,208.89,1000.26,209.19Z"/><path class="cls-6" d="M1057.49,259c-5.25.89-5.63-1.78-9.41-5.53a17.13,17.13,0,0,1-4.78-14.63c.74-4.64,3.4-9.3,1.93-13.76-2-5.91-10.07-8-12-13.85-1.15-3.42.11-7.35-1.22-10.71-1.24-3.16-4.46-5.06-7.62-6.31s-6.55-2.17-9.16-4.34-4.16-6.15-2.34-9A179.63,179.63,0,0,1,1054,192.26c3.06,1.26,6.27,2.75,8,5.56,1.85,3,1.63,6.74,1.36,10.23q-2,25.51-4,51"/><path class="cls-6" d="M1070.67,220.68a14.57,14.57,0,0,1,27.72-4.16c2.47,5.45,1.35,11.94-1.29,17.3-3.13,6.37-9.32,12.09-16.4,11.54-6.66-.52-11.84-6.55-13.56-13s-.72-13.28.29-19.89"/><path class="cls-10" d="M1073.55,246.79a3.46,3.46,0,0,0,1-1.07,9.35,9.35,0,0,0,1.54-3.76,18.17,18.17,0,0,0,0-6c-.31-2.24-1-4.61-1.46-7.11a17.69,17.69,0,0,1-.19-7c.46-2.1,1.51-3.87,2-5.52a7.28,7.28,0,0,0,.25-4.05c-.27-.95-.67-1.35-.7-1.32s.22.48.38,1.39a7.45,7.45,0,0,1-.49,3.79c-.53,1.56-1.64,3.27-2.19,5.54a17.63,17.63,0,0,0,.12,7.36c.48,2.55,1.18,4.9,1.52,7.07a19.13,19.13,0,0,1,.16,5.79A12,12,0,0,1,1073.55,246.79Z"/><path class="cls-10" d="M1074.56,224a9.32,9.32,0,0,0,2.82,2.94,16.63,16.63,0,0,0,18.74.93,9.27,9.27,0,0,0,3.1-2.65c-.1-.11-1.22,1-3.39,2.14a17.37,17.37,0,0,1-18.11-.9C1075.68,225.1,1074.67,223.91,1074.56,224Z"/><path class="cls-10" d="M1075.41,227a8.32,8.32,0,0,0,1.51,3,20.74,20.74,0,0,0,13.48,8.71,8.86,8.86,0,0,0,3.39.14,27.17,27.17,0,0,0-3.27-.71,23.79,23.79,0,0,1-13.13-8.48C1076.14,228.08,1075.53,227,1075.41,227Z"/><path class="cls-10" d="M1069.79,253s.08-.06.21-.22a8.3,8.3,0,0,0,.55-.75,10.11,10.11,0,0,0,1.36-3.28,11.68,11.68,0,0,0-.13-5.61,10.69,10.69,0,0,0-4.22-6.08c-2.2-1.66-5.1-2.86-6.88-5.45a5.69,5.69,0,0,1-.89-4.48,25.54,25.54,0,0,1,1.81-4.88,14.15,14.15,0,0,0,.12-11.33A12.38,12.38,0,0,0,1058,206a15.07,15.07,0,0,0-5.75-2.6c-2-.54-4.08-.87-6-1.51a11.84,11.84,0,0,1-5-2.91,8.38,8.38,0,0,1-2-5,42.74,42.74,0,0,0-.71-5.55,19,19,0,0,0-4.84-9.14,15,15,0,0,0-7.93-4.26,12,12,0,0,0-7.37.88,11.52,11.52,0,0,0-4.36,3.53,10.07,10.07,0,0,0-1.59,3.18,5,5,0,0,0-.22,1.21,12,12,0,0,1,2.07-4.19,11.45,11.45,0,0,1,4.29-3.31,11.6,11.6,0,0,1,7.07-.72,14.54,14.54,0,0,1,7.55,4.16,18.51,18.51,0,0,1,4.58,8.83,44,44,0,0,1,.67,5.47,9.17,9.17,0,0,0,2.21,5.51,12.56,12.56,0,0,0,5.28,3.15c2,.66,4,1,6,1.53a14.26,14.26,0,0,1,5.44,2.44,11.6,11.6,0,0,1,3.46,4.58,13.4,13.4,0,0,1-.08,10.72,25.85,25.85,0,0,0-1.82,5,6.4,6.4,0,0,0,1,5c2,2.79,5,3.95,7.1,5.54a10.27,10.27,0,0,1,4.12,5.73,11.61,11.61,0,0,1,.26,5.42A12.93,12.93,0,0,1,1069.79,253Z"/><path class="cls-10" d="M1070.22,200a2,2,0,0,0,.26-.86,4.08,4.08,0,0,0-.55-2.55,6.44,6.44,0,0,0-3.08-2.72,10,10,0,0,0-5.45-.36c-2,.32-4.09,1-6.36,1.41s-4.88.33-6.83-1.3-2.89-4.29-3.84-7a28.66,28.66,0,0,0-4.13-8,26.3,26.3,0,0,0-14.07-9.75,15,15,0,0,0-7.58,0,11.67,11.67,0,0,0-5.67,3.41,8.84,8.84,0,0,0-2.27,5,8.65,8.65,0,0,0,.5,4.08,6.66,6.66,0,0,0,1.36,2.22,2.64,2.64,0,0,0,.68.59,9.25,9.25,0,0,1-1.73-2.92,8.57,8.57,0,0,1,1.89-8.54,11.32,11.32,0,0,1,5.41-3.14,14.56,14.56,0,0,1,7.23.13,25.8,25.8,0,0,1,13.58,9.5,28.14,28.14,0,0,1,4,7.73c1,2.65,1.91,5.49,4.13,7.29a7.24,7.24,0,0,0,3.7,1.52,12.74,12.74,0,0,0,3.72-.14c2.36-.41,4.41-1.17,6.35-1.51a9.63,9.63,0,0,1,5.17.21,6.15,6.15,0,0,1,3,2.46,4.16,4.16,0,0,1,.67,2.36C1070.3,199.7,1070.17,200,1070.22,200Z"/><path class="cls-7" d="M917.6,348.66s-10.52-16.43-12.35-17.81-18.15-7-19.53-6.58-21,4.14-18.67,6.44,16-.47,16-.47l1.86.89s-11.81,2.08-14.27,3.56c-2.28,1.37-1.44,4.16.72,3.9s12.41-2.42,13-2-11.14,3-12.39,3.73c-1.7,1-1.82,4.08.34,3.9,1.27-.11,12.35-3.17,12.35-3.17s-8.77,3.55-9.57,4.33c-1.31,1.29-.22,3.19,1.68,2.74,1.31-.31,7.49-3.39,9.24-3.8,0,0,1.65.41,3.2,3.71.72,1.54,4,11.16,9.83,10.93,5.13-.19,10.23,3.95,10.23,3.95Z"/><path class="cls-8" d="M867.09,330.75c0,.11,1.3.64,3.6.93a21,21,0,0,0,4,.11c1.5-.2,3.13-.46,4.85-.72l3.66-.6-.22,0c4.87,1.65,8.44,2.72,8.51,2.52s-3.38-1.59-8.23-3.35l-.09,0-.13,0-3.63.55-4.8.79a25.28,25.28,0,0,1-3.92.09C868.5,330.92,867.12,330.62,867.09,330.75Z"/><path class="cls-11" d="M1012,289.34s-11.13,6.75-15.22,15.09-25.47,64.23-25.47,64.23L917.57,342l-13.46,23,50.64,40.25a33.36,33.36,0,0,0,22.53,4.62h0c12.11-1.83,18.06-2.11,22.22-13.63L1013,358.94l-2.87-68.36"/><g class="cls-12"><path d="M996.89,322c-12.38,18-14.44,26.42-15.75,48.2-.43,7.23,0,15,4.31,20.81,1.58,2.11,4.65,3.91,6.68,2.23s.57-4.68-.09-7.17c-3.85-14.65-5.22-25.92-2.49-38.81s2-12.66,7.34-24.72"/></g><path class="cls-6" d="M977.78,391c-.24,0-.16-5.35-2.06-11.58s-4.89-10.67-4.68-10.79a12.36,12.36,0,0,1,2,2.85,36.44,36.44,0,0,1,4.83,16A12.76,12.76,0,0,1,977.78,391Z"/><path class="cls-11" d="M995.56,455.86l-7.86,135h128.68s-3.81-67.62-8.6-96.51c-5-51.07-20.94-58.63-32.11-83.27l6.3-119.46L1054.74,279l-1.1-6.28-42.29,5.13c0,.06-1.25,12.71-1.25,12.71s-3.88,11.21-6.07,17c-6.82,18-16.15,39.51-14.78,55.24.63,7.13,10.4,54.58,10.4,54.58l-3.78,38.35Z"/><path class="cls-6" d="M1005.59,301.11a6.66,6.66,0,0,1-.33,1c-.28.73-.64,1.71-1.1,2.93-1,2.53-2.46,6.17-4.3,10.66s-4,9.84-6,15.94A115.47,115.47,0,0,0,989.27,352a66.06,66.06,0,0,0,.22,20.69c1.09,6.3,2.78,11.85,3.88,16.58s1.82,8.6,2.26,11.29c.17,1.29.3,2.32.4,3.1a5.92,5.92,0,0,1,.09,1.09,7.73,7.73,0,0,1-.23-1.07c-.14-.77-.31-1.79-.54-3.08-.52-2.66-1.26-6.51-2.48-11.21s-2.9-10.23-4-16.59a65.54,65.54,0,0,1-.28-20.9,112.08,112.08,0,0,1,4.67-20.39c2-6.11,4.26-11.45,6.16-15.92s3.42-8,4.51-10.58c.51-1.2.92-2.16,1.22-2.88A7.13,7.13,0,0,1,1005.59,301.11Z"/><g class="cls-12"><path d="M1000.38,425.25c-1.34,6.61,4,13.11,10.33,15.45s13.33,1.59,20,.8l46.71-5.5c2.46-.29,5.34-.86,6.39-3.1a5.65,5.65,0,0,0,.05-4,14.91,14.91,0,0,0-7.86-8.66,33.07,33.07,0,0,0-11.61-2.9c-16.07-1.62-32.22,1.24-48.12,4.1"/></g><path class="cls-7" d="M964,401.58l11.87,1.08,5.2,2.62s-1.24-1.32-2.32-2.7a42.08,42.08,0,0,0-5.27-4.37l-8.85-.91s-5-.37-5.28-3.8l6.75-.65s-7-.49-6.83-4l5.12-.9a1.61,1.61,0,0,1-1.61-1.87l14.1-1.57,13.49,9.57,13,11.52,2.93.13,1,18.82s-11.56-1.41-14.71-3-17.17-14.21-17.17-14.21-7.35-.65-9.37-2.4A5.35,5.35,0,0,1,964,401.58Z"/><path class="cls-8" d="M1010.18,424.84s-.06,0-.18,0l-.55,0-2.12-.24c-1.85-.22-4.58-.56-8.05-1.15a47.14,47.14,0,0,1-5.71-1.26,9.6,9.6,0,0,1-2.94-1.63c-.93-.68-1.88-1.42-2.84-2.19-3.84-3.11-8.06-6.77-12.63-10.85l.16.07a39.35,39.35,0,0,1-6.64-1.15,11.63,11.63,0,0,1-1.69-.58,5.4,5.4,0,0,1-.82-.44l-.4-.28-.34-.31a7.56,7.56,0,0,1-1.18-1.45,4.59,4.59,0,0,1-.69-1.83l0-.35.37,0,11.87,1.06h.06l.06,0,5.2,2.62-.38.5L979,403.49l-.84-1a10.64,10.64,0,0,0-.9-.87c-1.29-1.14-2.71-2.21-4.15-3.26l.16.06L968,397.9l-2.73-.28c-.45-.05-.92-.08-1.4-.16a8.65,8.65,0,0,1-1.4-.34,6.34,6.34,0,0,1-2.35-1.27,3.66,3.66,0,0,1-1.24-2.41l0-.33.32,0,6.75-.65v.66a15.57,15.57,0,0,1-4.33-1,6.07,6.07,0,0,1-1.92-1.2,2.82,2.82,0,0,1-.88-2.15v-.27l.26,0,5.43-.79v.64a2.73,2.73,0,0,1-1.51-.67,2,2,0,0,1-.58-1.57l0-.26.26,0,14-1.64h.11l.09.06,13.47,9.6h0l13,11.57-.11,0,12,.67,3.19.2.82.06.28,0a.9.9,0,0,1-.28,0l-.82,0-3.2-.1-12-.5h-.07l-.05,0-13.07-11.47h0l-13.52-9.53.21.05-14,1.69.27-.3a1.28,1.28,0,0,0,.39,1.07,2.07,2.07,0,0,0,1.13.49l2.31.3-2.29.33-5.42.8.27-.31a2.15,2.15,0,0,0,.7,1.66,5.29,5.29,0,0,0,1.71,1.05,14.6,14.6,0,0,0,4.13.93v.66l-6.75.65.3-.36a3,3,0,0,0,1,2,5.62,5.62,0,0,0,2.1,1.13,8.35,8.35,0,0,0,1.31.32c.43.07.89.1,1.35.15l2.73.29,5.31.54h.09l.07.05c1.46,1.07,2.88,2.14,4.2,3.31a12,12,0,0,1,1,.93l.85,1,1.63,1.9,1.07,1.24-1.45-.74-5.2-2.63.12,0-11.87-1.09.32-.31a4.17,4.17,0,0,0,.59,1.55,6.34,6.34,0,0,0,1.09,1.33,6.71,6.71,0,0,0,3,1.49,39.87,39.87,0,0,0,6.53,1.16h.1l.06.05c4.55,4.1,8.75,7.79,12.55,10.91.95.79,1.89,1.52,2.8,2.21a9.32,9.32,0,0,0,2.82,1.6,48.91,48.91,0,0,0,5.65,1.31c3.45.63,6.17,1,8,1.3l2.1.31.54.09Z"/><path class="cls-8" d="M983.28,398.6a12.86,12.86,0,0,1-2.42-1.51c-1.44-1-3.41-2.41-5.56-4l-.59-.44.22.07c-2.51.1-4.75.15-6.36.16a10.73,10.73,0,0,1-2.61-.11,10.61,10.61,0,0,1,2.59-.34c1.61-.12,3.84-.26,6.35-.37H975l.1.07.59.44c2.15,1.6,4.07,3.07,5.44,4.17A12.06,12.06,0,0,1,983.28,398.6Z"/><path class="cls-8" d="M981.78,392.31a10.9,10.9,0,0,1-2.22-1.38c-1.32-.91-3.14-2.22-5.16-3.72l.23.07-.79.08c-2.68.28-5.11.49-6.87.61a12.17,12.17,0,0,1-2.86.07,11.44,11.44,0,0,1,2.81-.53c1.75-.24,4.17-.53,6.85-.81l.8-.08h.12l.11.08c2,1.5,3.78,2.87,5,3.88A11,11,0,0,1,981.78,392.31Z"/><path class="cls-11" d="M1104.83,413.19a33.34,33.34,0,0,0,5.14-22.71l-10.28-60.42c-1.16-10.1-2.6-23.9-9.6-31.27-4.82-5.08-10.67-9.5-16.43-9.45l-12.33,35L1066,392l-62.6,11.21v27.44s47.83-1.58,74.45-2.31a33.39,33.39,0,0,0,27-15.12Z"/><path class="cls-6" d="M1104.83,413.19a3.09,3.09,0,0,1-.27.45l-.88,1.31a35.26,35.26,0,0,1-4,4.56,33.88,33.88,0,0,1-7.93,5.53,33.43,33.43,0,0,1-12.4,3.41c-19.12.74-45.77,1.55-76,2.52H1003v-28.1l.29-.05,62.62-11.14-.24.31c-1.65-15.62-3-28.49-4-37.49-.46-4.45-.81-7.95-1.06-10.37-.1-1.17-.19-2.08-.25-2.72s-.06-.94-.06-.94.07.32.15.93.19,1.55.34,2.71c.28,2.41.69,5.91,1.21,10.36,1,9,2.45,21.85,4.2,37.46l0,.27-.27.05-62.59,11.27.3-.35v9.37c0,6.19,0,12.27,0,18.07l-.36-.36L1079.3,428a33.2,33.2,0,0,0,12.27-3.28,34,34,0,0,0,7.92-5.38,37.64,37.64,0,0,0,4.08-4.45c.4-.53.7-.95.93-1.26A2.53,2.53,0,0,1,1104.83,413.19Z"/><path class="cls-6" d="M1080.62,291.62c.06.14-2.12.95-5.23,2.94a37.47,37.47,0,0,0-5.1,4,40.81,40.81,0,0,0-5.18,6,41.42,41.42,0,0,0-3.81,6.94,37.64,37.64,0,0,0-2,6.17c-.79,3.61-.8,5.93-.95,5.92a7,7,0,0,1,0-1.62,14,14,0,0,1,.13-1.9,22.44,22.44,0,0,1,.36-2.5,33.64,33.64,0,0,1,1.84-6.32,39,39,0,0,1,3.83-7.1,38.54,38.54,0,0,1,5.32-6.06,34.44,34.44,0,0,1,5.28-3.93c.79-.51,1.56-.86,2.22-1.21a14.07,14.07,0,0,1,1.74-.78A6.59,6.59,0,0,1,1080.62,291.62Z"/><path class="cls-6" d="M1054.93,278.83a4.69,4.69,0,0,1-1.52,1,47.57,47.57,0,0,1-4.64,1.89c-3.94,1.49-9.12,4.13-15,6.7s-11.71,4.05-16,4.17a24.27,24.27,0,0,1-5-.27,12.8,12.8,0,0,1-1.34-.27c-.3-.08-.46-.13-.45-.16a43.74,43.74,0,0,0,6.78.19,49.4,49.4,0,0,0,15.72-4.32c5.88-2.56,11.14-5.14,15.15-6.52,2-.71,3.64-1.17,4.7-1.66S1054.9,278.78,1054.93,278.83Z"/><path class="cls-13" d="M1059.66,351.53s-.18.2-.58.53l-1.78,1.42c-1.55,1.21-3.82,2.95-6.79,4.87a41.18,41.18,0,0,1-11.27,5.2,23.8,23.8,0,0,1-15.1-.51c-5.1-2.07-9-5.53-12.8-8.19a28.33,28.33,0,0,0-10.94-5.3,14.17,14.17,0,0,0-8.1.4,23,23,0,0,0-2.69,1.41,8.35,8.35,0,0,1,2.58-1.67,14,14,0,0,1,8.31-.64,28.3,28.3,0,0,1,11.22,5.26c3.83,2.65,7.75,6.07,12.69,8.06a23.35,23.35,0,0,0,14.66.54,41.72,41.72,0,0,0,11.17-5c3-1.84,5.29-3.52,6.9-4.66l1.85-1.31A3.44,3.44,0,0,1,1059.66,351.53Z"/><path class="cls-13" d="M1099,324.24c0,.13-2.12-.5-5.58-1a48.79,48.79,0,0,0-6.1-.49,52.3,52.3,0,0,0-7.48.48,50.72,50.72,0,0,0-7.3,1.66,46.33,46.33,0,0,0-5.72,2.2c-3.17,1.46-5,2.66-5.07,2.54a7,7,0,0,1,1.23-.92,33.44,33.44,0,0,1,3.62-2.08,41,41,0,0,1,5.74-2.37,47.6,47.6,0,0,1,7.4-1.74,48.1,48.1,0,0,1,7.59-.43,42.25,42.25,0,0,1,6.17.65,30,30,0,0,1,4.06,1A6.5,6.5,0,0,1,1099,324.24Z"/><path class="cls-13" d="M1106.74,374.36a14.91,14.91,0,0,0-6.4.69,36.9,36.9,0,0,0-6.38,3,30.15,30.15,0,0,1-8.1,3.41,23.15,23.15,0,0,1-15.6-2.16,21.33,21.33,0,0,1-4-2.76,7.47,7.47,0,0,1-1.21-1.29,34,34,0,0,0,5.42,3.6,23.51,23.51,0,0,0,15.21,1.9,30.93,30.93,0,0,0,8-3.28,34.41,34.41,0,0,1,6.54-2.93A13.43,13.43,0,0,1,1105,374,5.11,5.11,0,0,1,1106.74,374.36Z"/><path class="cls-13" d="M1050.24,429.29c-.12-.05.79-1.81,1.59-4.87a28.81,28.81,0,0,0-3.93-23.51c-1.75-2.62-3.18-4-3.09-4.08s.42.27,1.06.9a23.75,23.75,0,0,1,2.45,2.89,27.37,27.37,0,0,1,4,23.94,23.64,23.64,0,0,1-1.38,3.54A4.65,4.65,0,0,1,1050.24,429.29Z"/><path class="cls-13" d="M997.26,317.64c-.18.08-.81-1.1-2.18-1.85s-2.67-.71-2.7-.91,1.46-.62,3.06.29S997.46,317.61,997.26,317.64Z"/><path class="cls-13" d="M1070.8,288a28.63,28.63,0,0,0-2.88,0,16.85,16.85,0,0,0-7.28,2.7,30.27,30.27,0,0,0-4.26,3.33c-1.43,1.33-2.85,2.87-4.34,4.51-3,3.22-6.26,7-11,9.34a28.65,28.65,0,0,1-14.19,2.54,49.13,49.13,0,0,1-11.57-2.28c-3.21-1-5.73-2-7.47-2.69l-2-.82a2.54,2.54,0,0,1-.68-.34,3.46,3.46,0,0,1,.73.2l2,.7c1.77.61,4.31,1.53,7.51,2.46a50.66,50.66,0,0,0,11.47,2.11,28.36,28.36,0,0,0,13.83-2.52c4.55-2.21,7.82-5.94,10.82-9.15,1.5-1.63,2.94-3.17,4.41-4.5a29.76,29.76,0,0,1,4.41-3.32,16.35,16.35,0,0,1,7.52-2.55,9.71,9.71,0,0,1,2.16.08A2.56,2.56,0,0,1,1070.8,288Z"/><path class="cls-13" d="M1052.44,275.37a7.08,7.08,0,0,1-1.49.75c-1,.44-2.42,1-4.21,1.68A105,105,0,0,1,1017.5,284c-1.91.12-3.46.17-4.53.16a7.13,7.13,0,0,1-1.67-.08,7.35,7.35,0,0,1,1.66-.2c1.06-.08,2.6-.2,4.5-.39a130.82,130.82,0,0,0,29.11-6.12c1.81-.6,3.27-1.11,4.28-1.46A8.08,8.08,0,0,1,1052.44,275.37Z"/><path class="cls-13" d="M940.66,393.85s-.08-.12-.15-.38a6.82,6.82,0,0,1-.26-1.14,12.19,12.19,0,0,1,.16-4.3,22.79,22.79,0,0,1,2.19-6c1.08-2.14,2.53-4.33,3.89-6.69a25.86,25.86,0,0,0,3-7,14.41,14.41,0,0,0,.13-6.14,20.23,20.23,0,0,0-2-5.36,4.36,4.36,0,0,1,.94,1.26,13.79,13.79,0,0,1,1.6,4,14.41,14.41,0,0,1,0,6.39,25.17,25.17,0,0,1-3,7.2c-1.37,2.39-2.83,4.55-3.92,6.64a23.82,23.82,0,0,0-2.29,5.78A16.57,16.57,0,0,0,940.66,393.85Z"/><path class="cls-13" d="M1096.4,446.7a5.91,5.91,0,0,1-1-.49,27.28,27.28,0,0,0-2.7-1.36,30.71,30.71,0,0,0-10.81-2.38,52.72,52.72,0,0,0-16.31,2.06c-6,1.64-12.37,4.26-19.2,6.61s-13.62,4-19.94,4.09a47.51,47.51,0,0,1-16.4-2.68,45.38,45.38,0,0,1-10.05-5c-1.1-.74-1.93-1.34-2.47-1.79a5,5,0,0,1-.81-.69c0-.06,1.19.86,3.43,2.24a48.09,48.09,0,0,0,26.29,7.24c6.22-.09,12.93-1.74,19.72-4.11s13.18-4.95,19.26-6.57A52.27,52.27,0,0,1,1082,442a30.08,30.08,0,0,1,10.89,2.63,22.13,22.13,0,0,1,2.67,1.5A6.55,6.55,0,0,1,1096.4,446.7Z"/><path class="cls-13" d="M1106.15,497.39a19.5,19.5,0,0,1-3.78,2.74,31.08,31.08,0,0,1-12.09,3.82,45,45,0,0,1-8.81.11,59.79,59.79,0,0,1-9.94-1.81c-6.89-1.78-14.13-4.77-21.83-7.46s-15.32-4.56-22.38-4.53a37.3,37.3,0,0,0-9.86,1.32c-3,.82-5.81,1.79-8.44,2.38-5.27,1.34-9.9.47-12.5-1.08a9,9,0,0,1-2.67-2.21,5.72,5.72,0,0,1-.68-1,10.65,10.65,0,0,1,.79.9,9.51,9.51,0,0,0,2.7,2.07c2.58,1.43,7.07,2.2,12.24.83,2.6-.61,5.35-1.61,8.4-2.47a37.48,37.48,0,0,1,10-1.4c7.17-.07,14.9,1.81,22.62,4.51s14.93,5.7,21.76,7.5a61.21,61.21,0,0,0,9.83,1.86,45.7,45.7,0,0,0,8.69,0,32,32,0,0,0,12-3.56,19.63,19.63,0,0,0,1.7-1,12.55,12.55,0,0,0,1.21-.81A7.73,7.73,0,0,1,1106.15,497.39Z"/><path class="cls-13" d="M1112.44,538.06a1.21,1.21,0,0,1-.3-.14l-.84-.49a32.56,32.56,0,0,0-3.27-1.75,40.28,40.28,0,0,0-13.12-3.46,67.46,67.46,0,0,0-20.12,1.33c-7.48,1.5-15.51,4-24.11,6.1A104.25,104.25,0,0,1,1038,542a86.57,86.57,0,0,1-32.15-2.59,81.15,81.15,0,0,1-12.88-4.72c-1.48-.67-2.59-1.27-3.34-1.67l-.85-.47c-.19-.11-.29-.17-.28-.18a1.15,1.15,0,0,1,.31.12l.88.4c.78.36,1.9.92,3.39,1.54a88.36,88.36,0,0,0,12.9,4.49,87.74,87.74,0,0,0,31.94,2.38,103.23,103.23,0,0,0,12.62-2.31c8.56-2.07,16.62-4.58,24.15-6.05a67.18,67.18,0,0,1,20.3-1.19,39.24,39.24,0,0,1,13.19,3.72A24.74,24.74,0,0,1,1112.44,538.06Z"/><path class="cls-13" d="M1040.23,396c-.07.13-2.4-1.17-6.44-2.57a51.15,51.15,0,0,0-7.25-1.91,55.74,55.74,0,0,0-9.12-.86,57.18,57.18,0,0,0-9.13.79,51.4,51.4,0,0,0-7.26,1.86c-4,1.37-6.4,2.65-6.46,2.52a9.72,9.72,0,0,1,1.61-1,18.7,18.7,0,0,1,2-.95,28.32,28.32,0,0,1,2.7-1.1,46.23,46.23,0,0,1,7.31-2,48.25,48.25,0,0,1,18.5.07A45.61,45.61,0,0,1,1034,393a28.92,28.92,0,0,1,2.69,1.12,18.16,18.16,0,0,1,2,1A8.52,8.52,0,0,1,1040.23,396Z"/><path class="cls-13" d="M1112.83,581a1.21,1.21,0,0,1-.3-.14l-.83-.45c-.35-.21-.81-.45-1.35-.71s-1.17-.58-1.9-.89a45.18,45.18,0,0,0-12.81-3.4,78.22,78.22,0,0,0-19.7.4c-7.39.92-15.43,2.62-24,3.62a142,142,0,0,1-44-1.77,132.6,132.6,0,0,1-13-3.26c-1.52-.44-2.67-.87-3.46-1.13l-.89-.32a1.13,1.13,0,0,1-.3-.13,1.18,1.18,0,0,1,.32.06l.92.25c.8.22,2,.6,3.49,1,3,.86,7.46,2,13,3a146.56,146.56,0,0,0,43.82,1.56c8.53-1,16.58-2.68,24-3.56a76.38,76.38,0,0,1,19.84-.25,43.46,43.46,0,0,1,12.87,3.64c.72.33,1.35.66,1.88,1s1,.55,1.33.78l.79.51C1112.75,580.92,1112.84,581,1112.83,581Z"/><path class="cls-6" d="M147.23,590.87,150,464.78l-98-8.17S46.83,507.08,47,513.83c.06,3.22,14.77,34.61,14.77,34.61l-.15,42.43Z"/><path class="cls-10" d="M114,479.79a11,11,0,0,1-.82,1.83c-.57,1.15-1.44,2.79-2.62,4.77a54.11,54.11,0,0,1-11.37,13.89,32.39,32.39,0,0,1-16.25,7.46,23.11,23.11,0,0,1-5.46.09A14.55,14.55,0,0,1,76,507.6c-.34-.07-.51-.11-.5-.14a35.8,35.8,0,0,0,7.36-.23,33.35,33.35,0,0,0,15.86-7.5,58.42,58.42,0,0,0,11.4-13.6c1.22-1.94,2.16-3.54,2.8-4.65A11.23,11.23,0,0,1,114,479.79Z"/><path class="cls-14" d="M77.47,271.48,121.7,283l1.5-38.52s18.67-2.09,19.69-20.63-.38-61.27-.38-61.27h0A64.52,64.52,0,0,0,77.39,168l-2.84,2Z"/><path class="cls-15" d="M123.24,244.2s-11.76.46-23.89-7.9c0,0,5.15,13.59,23.73,12.71Z"/><path class="cls-14" d="M76,189.26c-.31-.15-12.59-4.32-12.72,8.38S75.94,207.86,76,207.49,76,189.26,76,189.26Z"/><path class="cls-15" d="M72.14,202.64c-.06,0-.23.16-.6.32a2.22,2.22,0,0,1-1.66,0c-1.33-.51-2.44-2.65-2.48-4.94a7.29,7.29,0,0,1,.66-3.16,2.54,2.54,0,0,1,1.68-1.68,1.13,1.13,0,0,1,1.3.62c.16.36.08.61.15.63s.27-.21.18-.73a1.39,1.39,0,0,0-.49-.8,1.63,1.63,0,0,0-1.22-.34,3.13,3.13,0,0,0-2.34,1.94,7.62,7.62,0,0,0-.8,3.53c0,2.56,1.34,5,3.17,5.52a2.34,2.34,0,0,0,2-.31C72.11,203,72.18,202.67,72.14,202.64Z"/><path class="cls-6" d="M137.2,191.14a2.66,2.66,0,0,1-2.67,2.57,2.55,2.55,0,0,1-2.63-2.51,2.66,2.66,0,0,1,2.67-2.57A2.55,2.55,0,0,1,137.2,191.14Z"/><path class="cls-6" d="M137.89,188.51c-.34.34-2.29-1.24-5.14-1.35s-5,1.22-5.29.86c-.15-.16.21-.77,1.15-1.39a7.25,7.25,0,0,1,4.26-1.12,7,7,0,0,1,4.07,1.51C137.79,187.73,138.06,188.37,137.89,188.51Z"/><path class="cls-6" d="M109.24,191a2.65,2.65,0,0,1-2.67,2.56,2.53,2.53,0,0,1-2.63-2.51,2.66,2.66,0,0,1,2.67-2.56A2.53,2.53,0,0,1,109.24,191Z"/><path class="cls-6" d="M109.85,187.85c-.34.33-2.29-1.24-5.14-1.35s-5,1.22-5.29.86c-.15-.16.21-.77,1.15-1.4a7.25,7.25,0,0,1,4.26-1.11,6.93,6.93,0,0,1,4.07,1.51C109.74,187.07,110,187.7,109.85,187.85Z"/><path class="cls-6" d="M119.29,209.43c0-.16,1.78-.39,4.67-.64.73,0,1.42-.16,1.57-.65a3.74,3.74,0,0,0-.4-2.18l-1.91-5.63c-2.66-8-4.54-14.6-4.22-14.7s2.74,6.31,5.39,14.33l1.83,5.66a4.2,4.2,0,0,1,.25,2.87,1.84,1.84,0,0,1-1.24,1,4.7,4.7,0,0,1-1.24.11C121.09,209.66,119.3,209.59,119.29,209.43Z"/><path class="cls-6" d="M111.06,176.71c-.31.76-3.14.28-6.5.54s-6.11,1.05-6.52.34c-.19-.34.31-1.05,1.44-1.76a11.29,11.29,0,0,1,9.92-.66C110.61,175.71,111.2,176.35,111.06,176.71Z"/><path class="cls-6" d="M137.19,180.22c-.52.63-2.46-.13-4.82-.26s-4.38.25-4.81-.45c-.19-.34.15-1,1.06-1.55a6.66,6.66,0,0,1,4-.89,6.77,6.77,0,0,1,3.8,1.46C137.18,179.23,137.43,179.91,137.19,180.22Z"/><path class="cls-6" d="M152.05,151.25a6.83,6.83,0,0,0-2.27-6.23,4.86,4.86,0,0,0-6.31.2,5.67,5.67,0,0,0-4.58-7.08c-3-.32-5.69,1.85-8.65,2.53s-5.92-.15-8.62-1.37-5.2-2.86-7.93-4a23.75,23.75,0,0,0-30.93,12.63c-4-1.44-8.7.43-11.35,3.76s-3.48,7.81-3.17,12.05A39.33,39.33,0,0,0,70,172.17c0,.24,0,.47-.05.71-.24,10.21.4,22.23,4.75,22.49,7.58.44,6.38-13.93,6.38-13.93,9.46-3.2,6.59-17.29,9-19.31s7.49-6.73,26.55,4.07c7.41,4.19,17.47,4.5,23,3.48l.49-.07.11,0,.16-.06a17.53,17.53,0,0,0,5.09-1.91,9.83,9.83,0,0,0,4.32-4.4,5.41,5.41,0,0,0-.82-5.85A11.91,11.91,0,0,0,152.05,151.25Z"/><path class="cls-15" d="M120.79,218.28a13,13,0,0,1-1.79,3.17,4.28,4.28,0,0,1-3.14,1.64,3.85,3.85,0,0,1-3.19-1.92,6.09,6.09,0,0,1-.75-3.75c.1-1.17.7-2.54,1.87-2.63a3,3,0,0,1,1.4.37l6,2.74"/><path class="cls-6" d="M118.13,223.21c0-.19-1.39.29-3.25-.54a4.66,4.66,0,0,1-2.37-2.35,4.93,4.93,0,0,1,.09-4,5,5,0,0,1,.57-.89c.26-.24.21-.23.48-.18s.64.28,1,.42l1,.46c1.28.58,2.45,1.1,3.43,1.51,2,.84,3.23,1.28,3.29,1.15s-1.07-.83-2.95-1.84c-.94-.51-2.08-1.1-3.34-1.73l-1-.49c-.35-.16-.62-.33-1.1-.51a1.47,1.47,0,0,0-.91,0,1.6,1.6,0,0,0-.69.51,5,5,0,0,0-.74,1.13,5.72,5.72,0,0,0,0,4.9,5.2,5.2,0,0,0,3,2.64,4.91,4.91,0,0,0,2.65.22C117.86,223.47,118.15,223.27,118.13,223.21Z"/><path class="cls-10" d="M89,160.35a12.61,12.61,0,0,1,.09-2.24A8.79,8.79,0,0,1,92.21,153a11.83,11.83,0,0,1,8.47-2.4c3.43.17,7,1.46,10.75,2.89,1.87.7,3.71,1.38,5.54,1.87a29.34,29.34,0,0,0,14.59.08,28.19,28.19,0,0,0,5.82-2.19c.66-.32,1.15-.62,1.48-.82a2.37,2.37,0,0,0,.48-.33c0-.05-.72.36-2.05,1a30.82,30.82,0,0,1-5.82,2,30.13,30.13,0,0,1-9.06.68,28.54,28.54,0,0,1-5.3-.9c-1.8-.49-3.62-1.16-5.49-1.86-3.71-1.43-7.39-2.73-10.91-2.89A12.13,12.13,0,0,0,92,152.72a8.79,8.79,0,0,0-3.08,5.35A5.22,5.22,0,0,0,89,160.35Z"/><path class="cls-10" d="M73.24,191.08s.11-.12.26-.38a11.38,11.38,0,0,0,.63-1.16A23.72,23.72,0,0,0,75.81,185a25.91,25.91,0,0,0,.78-7.15,62.62,62.62,0,0,0-1.29-8.69,17,17,0,0,1,.35-8.53,8.51,8.51,0,0,1,1.91-3.15,6.56,6.56,0,0,1,2.74-1.64,6.1,6.1,0,0,1,4.58.32,8.53,8.53,0,0,1,1.38,1.06A3.56,3.56,0,0,0,85,156a6.22,6.22,0,0,0-4.78-.5,6.92,6.92,0,0,0-3,1.69,9.08,9.08,0,0,0-2.06,3.3,17,17,0,0,0-.42,8.79,68.06,68.06,0,0,1,1.33,8.62,26.37,26.37,0,0,1-.66,7,28.43,28.43,0,0,1-1.49,4.55C73.49,190.5,73.2,191.06,73.24,191.08Z"/><path class="cls-10" d="M87.29,158.78a4.33,4.33,0,0,0,0-.75c0-.54,0-1.25,0-2.13a24.73,24.73,0,0,1,1.19-7.67,13.59,13.59,0,0,1,2.68-4.57,9.54,9.54,0,0,1,5.11-3.07,12.57,12.57,0,0,1,6.63.55,31,31,0,0,1,6.5,3.29,55.74,55.74,0,0,0,6.44,3.67,20.3,20.3,0,0,0,6.73,1.65,21.1,21.1,0,0,0,6.24-.5,23.2,23.2,0,0,0,5.13-1.86,20.61,20.61,0,0,0,6.19-4.84,12.58,12.58,0,0,0,1.28-1.71,5,5,0,0,0,.39-.63s-.18.18-.48.57a17.53,17.53,0,0,1-1.35,1.63,21.61,21.61,0,0,1-6.2,4.64,24.2,24.2,0,0,1-5.06,1.76,21.34,21.34,0,0,1-6.11.44,19.91,19.91,0,0,1-6.54-1.64,55.89,55.89,0,0,1-6.37-3.64,30.55,30.55,0,0,0-6.63-3.34,13.11,13.11,0,0,0-6.9-.54,10,10,0,0,0-5.34,3.27,13.83,13.83,0,0,0-2.71,4.75,23.82,23.82,0,0,0-1,7.79c0,.93.06,1.65.09,2.13A3.79,3.79,0,0,0,87.29,158.78Z"/><path class="cls-14" d="M170.85,321.72,226.67,259,234.6,248s19.31-23.89,20.87-26.43c1.81-2.92,3.65-2.75,4.69-2,1.61,1.16,1.52,4,0,6.52-.5.88-9.1,14.51-9.1,14.51a38.93,38.93,0,0,1,5-2c3.61-1.31,9.27.17,14.06,3.35s5.84,4.49,4.69,6.41a2.86,2.86,0,0,1-2.1,1.25,8,8,0,0,1-4.59-1.1c-9.46-5.64-11.74-1.9-11.74-1.9l-1.26,1.41s7.08-.41,10,3.37a5.32,5.32,0,0,1,.93,1.86,7.2,7.2,0,0,1-.35,12.41c-1.07.59-2.52.85-3.41,0a3.77,3.77,0,0,1-.86-1.7,5.54,5.54,0,0,0-.38-.95l-3.47,3.65s-8.24,7.79-11.44,11.59l-49.3,61.59c-6.4,9.29-16.1,17-25.28,10.42h0C161.54,343,162.37,330.6,170.85,321.72Z"/><path class="cls-14" d="M229.51,259.49c1.19,1.28,3.31,1.14,4.87.35s2.81-2.09,4.31-3c4.49-2.69,10.59-1.53,14.94-4.44.61-.4,1.23-1.09,1-1.77s-1.06-.76-1.74-.79L235.54,249"/><path class="cls-15" d="M235.54,249a6.82,6.82,0,0,1,1.88-.1c1.21,0,3,0,5.11.09l7.58.27,2.19.09a3.44,3.44,0,0,1,2.5.71,1.46,1.46,0,0,1,.16,1.63,2.88,2.88,0,0,1-1,1.06,11.53,11.53,0,0,1-2.26,1.17c-3.23,1.22-6.43,1.25-9.15,1.91a12.81,12.81,0,0,0-3.66,1.36c-1.06.61-2,1.38-2.86,2a6.13,6.13,0,0,1-5,1.36c-1.26-.34-1.62-1.06-1.58-1.06a5.05,5.05,0,0,0,1.66.69,5.93,5.93,0,0,0,4.5-1.56c.84-.63,1.72-1.44,2.85-2.14a13.45,13.45,0,0,1,3.87-1.54c2.82-.72,6-.8,9-1.94a10.41,10.41,0,0,0,2.05-1.05c.59-.41.91-1,.62-1.26s-1.06-.37-1.81-.4l-2.18-.12-7.57-.48c-2.16-.15-3.9-.29-5.1-.41A6.5,6.5,0,0,1,235.54,249Z"/><path class="cls-15" d="M255.11,247.91a7.16,7.16,0,0,1,2.53-2.08,5.52,5.52,0,0,1,3.45-.25,14.26,14.26,0,0,1,4,1.75,21.94,21.94,0,0,0,4.07,2.06,7.31,7.31,0,0,0,3.77.35,2.86,2.86,0,0,0,2-1.55,1.67,1.67,0,0,0,.21-.91c-.06,0-.14.31-.43.79a2.63,2.63,0,0,1-1.89,1.22,7.16,7.16,0,0,1-3.48-.45,25.05,25.05,0,0,1-3.95-2.06,14,14,0,0,0-4.23-1.78,5.84,5.84,0,0,0-3.76.42,5.11,5.11,0,0,0-1.94,1.65C255.17,247.57,255.07,247.89,255.11,247.91Z"/><path class="cls-15" d="M260.76,225a18.07,18.07,0,0,0-1.73,2.7l-4,6.6L251,240.87a16.62,16.62,0,0,0-1.63,2.76,14.3,14.3,0,0,0,2-2.51c1.16-1.61,2.67-3.88,4.26-6.46s2.92-4.95,3.83-6.71A14.61,14.61,0,0,0,260.76,225Z"/><path class="cls-15" d="M256.29,252.91a3.36,3.36,0,0,0,1,.18,3,3,0,0,1,2.17,1.2,1.59,1.59,0,0,1,0,1.58,8.18,8.18,0,0,1-1.22,1.69,3.58,3.58,0,0,0-1,2.35,3.06,3.06,0,0,0,1.41,2.37,3.47,3.47,0,0,0,2.72.4,4.3,4.3,0,0,0,2.19-1.28,14.13,14.13,0,0,0,2.11-3.54,8.15,8.15,0,0,0,.7-2.68,1.77,1.77,0,0,0-.14-1,7.92,7.92,0,0,0-.1,1,9.72,9.72,0,0,1-.87,2.53A15.07,15.07,0,0,1,263.1,261a3.43,3.43,0,0,1-4.12.74,2.46,2.46,0,0,1-1.14-1.87,3.07,3.07,0,0,1,.84-1.95,8.48,8.48,0,0,0,1.25-1.85,2.08,2.08,0,0,0-.11-2,3.11,3.11,0,0,0-2.52-1.2A2.43,2.43,0,0,0,256.29,252.91Z"/><path class="cls-15" d="M261.38,262.13s-.28.22-.4.82a2.77,2.77,0,0,0,.72,2.39,3.74,3.74,0,0,0,3.57.93,6.14,6.14,0,0,0,3.57-2.78,7.35,7.35,0,0,0,1.09-4.38,7.08,7.08,0,0,0-1.23-3.47,6.63,6.63,0,0,0-1.74-1.75,2.08,2.08,0,0,0-.81-.4,11.64,11.64,0,0,1,2.17,2.39,6.9,6.9,0,0,1,1,3.27,7,7,0,0,1-1,4,5.7,5.7,0,0,1-3.18,2.55A3.31,3.31,0,0,1,262,265a2.7,2.7,0,0,1-.8-2C261.26,262.43,261.43,262.15,261.38,262.13Z"/><path class="cls-15" d="M246.28,265.44c0-.05-.39-.45-1.31-.79a6,6,0,0,0-3.92,0l.37.42a15.73,15.73,0,0,0,.83-2c1.39-4,.87-7.51.72-7.46s0,3.39-1.32,7.26c-.24.7-.51,1.36-.78,2l-.3.66.68-.25a6.36,6.36,0,0,1,3.6-.16C245.75,265.23,246.24,265.51,246.28,265.44Z"/><path class="cls-15" d="M261,242.29c-.17,0-.24,1.3.64,2.56s2.13,1.65,2.17,1.48-.89-.74-1.65-1.85S261.16,242.28,261,242.29Z"/><path class="cls-16" d="M115.26,265.08l51.81,51.25,37.92-39,7.22-3.16,9.56-9.59,22.1,24.9-46.82,61.22a43.89,43.89,0,0,1-24.3,15.92h0a43.84,43.84,0,0,1-41.21-11.25L91.68,316.28"/><path class="cls-6" d="M172.06,346.09a36.56,36.56,0,0,1-.12-4.47,74.38,74.38,0,0,0-.84-10.68,63.26,63.26,0,0,0-2.61-10.38,39.22,39.22,0,0,1-1.42-4.23,4.1,4.1,0,0,1,.59,1.05c.35.69.79,1.72,1.3,3a50.18,50.18,0,0,1,2.85,10.45,58.22,58.22,0,0,1,.64,10.8c0,1.38-.11,2.5-.2,3.27A3.72,3.72,0,0,1,172.06,346.09Z"/><g class="cls-12"><path d="M131,281.89c8.19,7.82,10.24,17.95,14.81,28.31,5.38,12.21,15.07,24.07,18.79,36.87,1.12,3.83,1.5,8,.15,11.76s-5.29,8.24-9.26,8.53l-8.33-2.19Z"/></g><path class="cls-6" d="M233.37,303c-.16.13-5-5.7-10.7-13s-10.28-13.34-10.13-13.46,5,5.7,10.7,13S233.52,302.86,233.37,303Z"/><path class="cls-16" d="M76.48,238.36,70.64,252.5s-7.58,16.09-16,27.09c-9.2,12-11.39,50.62-11.39,50.62l8.73,118.61-3,5.79c-1.36,2.64-.66,12.3,2.32,12.44l98.31,4.57c2.37.12,3.95-8.21,3.82-10.58l-7.92-143.27-15.94-39.09L124.42,271l-.12-9.65L90.09,250.78a21.66,21.66,0,0,1-13.61-12.42Z"/><g class="cls-12"><path d="M53.79,420.94c14.93,9.52,30,19.11,46.6,25.31s35.35,8.57,52.4,3.79l-.54-12.33L58.3,411.64Z"/></g><path class="cls-16" d="M80.74,282.83s-26.9-2.32-32.45,31.26,3.39,106.46,6,107.06c0,0,48.1,20.54,98.15,25.42l35.12-6.44-4.17-33.38-25.85,1.36s-1.14-6.45-10.88-9.16c-14-3.93-42.3-10.43-42.3-10.43s1.26-33.5,1.53-43.32,3.67-52.49-18.77-60.47"/><path class="cls-6" d="M129.54,278.68a7.27,7.27,0,0,1,.49,1l1.28,2.93c1.11,2.62,2.67,6.29,4.58,10.81l6.71,16.06q.94,2.28,1.93,4.65a25,25,0,0,1,1.65,5,32,32,0,0,1,.57,5.45c.1,1.84.2,3.7.31,5.59.88,15.1,1.68,28.77,2.06,38.68.2,4.95.31,9,.35,11.74,0,1.33,0,2.39,0,3.19a5.92,5.92,0,0,1,0,1.11,8,8,0,0,1-.09-1.11q-.06-1.19-.15-3.18c-.14-2.85-.34-6.83-.57-11.72-.59-10-1.39-23.6-2.28-38.67-.1-1.89-.2-3.75-.3-5.59a32,32,0,0,0-.54-5.35,24.86,24.86,0,0,0-1.61-4.92l-1.9-4.66c-2.47-6.05-4.69-11.51-6.57-16.12s-3.31-8.25-4.37-10.89c-.48-1.25-.86-2.24-1.15-3A6.44,6.44,0,0,1,129.54,278.68Z"/><path class="cls-6" d="M124.08,261.3a7.36,7.36,0,0,1-.29,1.43c-.24.92-.62,2.26-1.18,3.93a69.18,69.18,0,0,1-6.08,13.23l-.19.32-.29-.24c-3.85-3.23-9-5.93-14.77-8.25-4.74-2-9.35-3.62-13.4-5.53a49.74,49.74,0,0,1-10.16-6.1,28.24,28.24,0,0,1-5.57-5.73A16.66,16.66,0,0,1,71,252.52a3,3,0,0,1-.34-.68c.07,0,.57.88,1.74,2.35a30.31,30.31,0,0,0,5.65,5.5,52.21,52.21,0,0,0,10.13,5.9c4,1.86,8.63,3.5,13.39,5.46,5.75,2.34,11,5.1,14.91,8.43l-.48.08a75.73,75.73,0,0,0,6.28-13c.61-1.65,1-3,1.33-3.87A8.75,8.75,0,0,1,124.08,261.3Z"/><path class="cls-6" d="M87.11,284.73s.64.23,1.86.73c.6.27,1.32.68,2.17,1.16a22.92,22.92,0,0,1,2.71,2,27.21,27.21,0,0,1,5.8,7.43A48.6,48.6,0,0,1,104,308.14c2.23,9.4,2.81,21.24,2.19,34.75-.46,13.52-1,28.83-1.56,45.64l-.22-.3c8.57,2,17.62,4.13,27.07,6.46,4.73,1.18,9.55,2.39,14.44,3.72a18.24,18.24,0,0,1,11.9,9.56l-.32-.19,25.85-1.38h.32l0,.32c1.34,10.64,2.75,21.89,4.19,33.38l0,.33-.33.06-32.68,6-2.44.44h-.1c-9-1-17.87-2.26-26.52-3.95s-17.1-3.67-25.31-5.92a402.62,402.62,0,0,1-46.42-15.6h.05a1,1,0,0,1-.26-.15,1.74,1.74,0,0,1-.13-.15,1.17,1.17,0,0,1-.16-.28,4.73,4.73,0,0,1-.23-.53c-.13-.36-.23-.71-.33-1.06-.19-.71-.36-1.41-.51-2.12-.3-1.41-.56-2.82-.79-4.22-.48-2.81-.88-5.59-1.26-8.35q-1.1-8.3-1.85-16.24c-1-10.6-1.72-20.72-2.1-30.26s-.45-18.53-.11-26.85,1-16,2.83-22.76a38.78,38.78,0,0,1,8.61-16.35,28.89,28.89,0,0,1,11.46-7.57,30.31,30.31,0,0,1,8.41-1.76,19.51,19.51,0,0,1,2.21,0,6.09,6.09,0,0,1,.75.05H80c-.49,0-1.23,0-2.2.1a31.07,31.07,0,0,0-8.35,1.85,28.84,28.84,0,0,0-11.3,7.58,38.49,38.49,0,0,0-8.46,16.25c-1.75,6.7-2.39,14.37-2.73,22.66s-.22,17.28.18,26.81,1.11,19.65,2.16,30.23c.52,5.29,1.13,10.7,1.87,16.21.38,2.76.79,5.54,1.26,8.33.24,1.4.5,2.8.8,4.19.15.7.32,1.4.5,2.08.1.34.2.68.32,1a4.89,4.89,0,0,0,.19.46,1.06,1.06,0,0,0,.11.19l0,.06s0,0,0,0a.49.49,0,0,0-.06.17l.09-.15a402.7,402.7,0,0,0,46.35,15.53c8.2,2.24,16.65,4.17,25.27,5.89s17.46,3,26.45,3.94h-.1l2.44-.45,32.68-6-.29.39c-1.43-11.48-2.84-22.74-4.17-33.38l.36.31-25.84,1.35h-.22l-.11-.21A17.59,17.59,0,0,0,145.76,399c-4.88-1.33-9.7-2.55-14.42-3.73-9.44-2.35-18.49-4.51-27-6.51l-.24-.05v-.24c.61-16.81,1.17-32.12,1.66-45.64.67-13.49.14-25.28-2-34.66a49.38,49.38,0,0,0-4.27-12,27.29,27.29,0,0,0-5.69-7.42,23.41,23.41,0,0,0-2.66-2c-.84-.49-1.55-.9-2.13-1.19C87.73,285,87.11,284.73,87.11,284.73Z"/><path class="cls-6" d="M155.71,443c-.2,0,.14-7.05.75-15.7s1.26-15.65,1.46-15.64-.14,7-.75,15.69S155.91,443,155.71,443Z"/><path class="cls-6" d="M82.58,406.6a2.88,2.88,0,0,1,.32-1.1,17.49,17.49,0,0,1,1.42-2.8,27.54,27.54,0,0,1,7.12-7.45,53.7,53.7,0,0,1,8.93-5.13,21.71,21.71,0,0,1,3.94-1.62,28.26,28.26,0,0,1-3.71,2.08,70.37,70.37,0,0,0-8.73,5.25A30.39,30.39,0,0,0,84.75,403C83.27,405.12,82.69,406.65,82.58,406.6Z"/><path class="cls-6" d="M122,454.61a2.79,2.79,0,0,1-.67.16l-1.94.31c-1.69.28-4.15.56-7.19.8s-6.69.39-10.74.36-8.48-.3-13.12-.82-9-1.32-13-2.18-7.46-1.85-10.37-2.79-5.24-1.76-6.82-2.41l-1.82-.75a2.32,2.32,0,0,1-.62-.31,2.71,2.71,0,0,1,.67.18l1.86.62c1.61.56,4,1.32,6.88,2.18s6.43,1.78,10.36,2.63,8.31,1.58,12.92,2.12,9,.77,13,.87,7.65,0,10.69-.21,5.5-.38,7.2-.56l2-.19A2.27,2.27,0,0,1,122,454.61Z"/><path class="cls-14" d="M242.79,400.88c-1-1.47-2.76-1.24-4.22-.18l-4.88,3.24a20,20,0,0,1-4.33,1.81l-2.07.37a15.84,15.84,0,0,1-11.72-2.49l-.83-.56s13.37-3,15.4-4.77l.06-.06c2-1.8.28-5.17-2.4-4.76L211,396.07a34.45,34.45,0,0,0-15.27,6.35c-4.24,3.13-11.43,7.83-11.87,7.78l2.92,25.52,4.78-1.19,8.74.77a31.36,31.36,0,0,0,17-3.37c3.25-1.68,6.28-3.36,6.6-3.92a48.21,48.21,0,0,0,2-6.36s3.31-2.06,3.43-3.47a21.89,21.89,0,0,0-.26-3.95s8.47-5,10.67-6.77C243.68,404.34,243.73,402.22,242.79,400.88Z"/><path class="cls-15" d="M219.15,419.22a24.81,24.81,0,0,0,10.3-5.11c-.09-.13-2.26,1.26-5.1,2.66S219.1,419.07,219.15,419.22Z"/><path class="cls-15" d="M221,424.12a5.63,5.63,0,0,0,3-.84,5.78,5.78,0,0,0,2.45-1.91,20.32,20.32,0,0,0-2.7,1.41A21.74,21.74,0,0,0,221,424.12Z"/><path class="cls-15" d="M212.2,401.56a9.63,9.63,0,0,0,2,1.44,27.84,27.84,0,0,0,5.44,2.59,19.08,19.08,0,0,0,6,1,8.16,8.16,0,0,0,2.48-.24c0-.21-3.85.22-8.26-1.28a38.17,38.17,0,0,1-5.42-2.41A12.79,12.79,0,0,0,212.2,401.56Z"/><g class="cls-12"><path d="M74.49,256.89C78.28,263.2,84,268,90.08,272.14a146.83,146.83,0,0,0,19.35,10.59c3,1.47,6.28,3,9.65,2.69a4.42,4.42,0,0,0,2.56-.9,5.6,5.6,0,0,0,1.45-3.49,112.16,112.16,0,0,0,1-19.73,71,71,0,0,1-7.91,18.57s-5.32-4.63-21.78-11.28C77.68,261.83,74.49,256.89,74.49,256.89Z"/></g><path class="cls-10" d="M94.73,548.44c-.19,0-.45-10-.58-22.36s-.06-22.37.14-22.37.46,10,.58,22.36S94.93,548.44,94.73,548.44Z"/><path class="cls-6" d="M1152.44,591.3c0,.2-257.09.36-574.14.36S4.11,591.5,4.11,591.3s257-.36,574.19-.36S1152.44,591.1,1152.44,591.3Z"/><circle class="cls-17" cx="256.95" cy="176.1" r="10.07"/><circle class="cls-9" cx="256.95" cy="176.1" r="6.4"/><circle class="cls-17" cx="276.67" cy="170.27" r="10.07"/><circle class="cls-9" cx="276.67" cy="170.27" r="6.4"/><circle class="cls-17" cx="273.42" cy="188.44" r="10.07"/><circle class="cls-9" cx="273.42" cy="188.44" r="6.4"/><circle class="cls-17" cx="254.94" cy="196.59" r="10.07"/><circle class="cls-9" cx="254.94" cy="196.59" r="6.4"/><circle class="cls-17" cx="270.35" cy="206.99" r="10.07"/><circle class="cls-9" cx="270.35" cy="206.99" r="6.4"/><circle class="cls-17" cx="290.49" cy="180.72" r="10.07"/><circle class="cls-9" cx="290.49" cy="180.72" r="6.4"/><circle class="cls-17" cx="276.75" cy="152.38" r="10.07"/><circle class="cls-9" cx="276.75" cy="152.38" r="6.4"/><circle class="cls-17" cx="289.46" cy="141.66" r="10.07"/><circle class="cls-9" cx="289.46" cy="141.66" r="6.4"/><circle class="cls-17" cx="290.49" cy="197.63" r="10.07"/><circle class="cls-9" cx="290.49" cy="197.63" r="6.4"/><circle class="cls-17" cx="307.74" cy="191.23" r="10.07"/><circle class="cls-9" cx="307.74" cy="191.23" r="6.4"/><circle class="cls-17" cx="326.27" cy="188.63" r="10.07"/><circle class="cls-9" cx="326.27" cy="188.63" r="6.4"/><circle class="cls-17" cx="286.5" cy="213.39" r="10.07"/><circle class="cls-9" cx="286.5" cy="213.39" r="6.4"/><circle class="cls-17" cx="304.21" cy="206.99" r="10.07"/><circle class="cls-9" cx="304.21" cy="206.99" r="6.4"/><circle class="cls-17" cx="320.7" cy="206.66" r="10.07"/><circle class="cls-9" cx="320.7" cy="206.66" r="6.4"/><circle class="cls-17" cx="372.21" cy="180.34" r="10.07"/><circle class="cls-9" cx="372.21" cy="180.34" r="6.4"/><circle class="cls-18" cx="368.53" cy="124.65" r="10.07"/><circle class="cls-19" cx="368.53" cy="124.65" r="6.4"/><circle class="cls-17" cx="317.03" cy="97.82" r="10.07"/><circle class="cls-9" cx="317.03" cy="97.82" r="6.4"/><circle class="cls-17" cx="352.07" cy="206.66" r="10.07"/><circle class="cls-9" cx="352.07" cy="206.66" r="6.4"/><circle class="cls-17" cx="338.92" cy="238.36" r="10.07"/><circle class="cls-9" cx="338.92" cy="238.36" r="6.4"/><circle class="cls-17" cx="304.24" cy="243.63" r="10.07"/><circle class="cls-9" cx="304.24" cy="243.63" r="6.4"/><circle class="cls-18" cx="283.06" cy="265.45" r="10.07"/><circle class="cls-19" cx="283.06" cy="265.45" r="6.4"/><circle class="cls-17" cx="270.27" cy="225.03" r="10.07"/><circle class="cls-9" cx="270.27" cy="225.03" r="6.4"/><circle class="cls-17" cx="223.81" cy="188.44" r="10.07"/><circle class="cls-9" cx="223.81" cy="188.44" r="6.4"/><circle class="cls-18" cx="212.23" cy="119.52" r="10.07"/><circle class="cls-19" cx="212.23" cy="119.52" r="6.4"/><circle class="cls-17" cx="297.84" cy="123.19" r="10.07"/><circle class="cls-9" cx="297.84" cy="123.19" r="6.4"/><circle class="cls-17" cx="304.24" cy="137.99" r="10.07"/><circle class="cls-9" cx="304.24" cy="137.99" r="6.4"/><circle class="cls-17" cx="322.46" cy="172.49" r="10.07"/><circle class="cls-9" cx="322.46" cy="172.49" r="6.4"/><circle class="cls-17" cx="327.1" cy="157.87" r="10.07"/><circle class="cls-9" cx="327.1" cy="157.87" r="6.4"/><circle class="cls-17" cx="317.81" cy="143.74" r="10.07"/><circle class="cls-9" cx="317.81" cy="143.74" r="6.4"/><circle class="cls-17" cx="263.96" cy="158.78" r="10.07"/><circle class="cls-9" cx="263.96" cy="158.78" r="6.4"/><circle class="cls-17" cx="293.13" cy="156.86" r="10.07"/><circle class="cls-9" cx="293.13" cy="156.86" r="6.4"/><circle class="cls-17" cx="310.63" cy="156.86" r="10.07"/><circle class="cls-9" cx="310.63" cy="156.86" r="6.4"/><circle class="cls-17" cx="304.24" cy="174.33" r="10.07"/><circle class="cls-9" cx="304.24" cy="174.33" r="6.4"/><circle class="cls-17" cx="291.45" cy="167.93" r="10.07"/><circle class="cls-9" cx="291.45" cy="167.93" r="6.4"/><circle class="cls-17" cx="260.28" cy="186.17" r="10.07"/><circle class="cls-9" cx="260.28" cy="186.17" r="6.4"/><circle class="cls-18" cx="352.07" cy="352.91" r="10.07"/><circle class="cls-19" cx="352.07" cy="352.91" r="6.4"/><circle class="cls-17" cx="451.44" cy="376.07" r="10.07"/><circle class="cls-9" cx="451.44" cy="376.07" r="6.4"/><circle class="cls-17" cx="465.26" cy="386.52" r="10.07"/><circle class="cls-9" cx="465.26" cy="386.52" r="6.4"/><circle class="cls-18" cx="427.17" cy="290.22" r="10.07"/><circle class="cls-19" cx="427.17" cy="290.22" r="6.4"/><circle class="cls-17" cx="464.23" cy="347.45" r="10.07"/><circle class="cls-9" cx="464.23" cy="347.45" r="6.4"/><circle class="cls-18" cx="497.23" cy="287.54" r="10.07"/><circle class="cls-19" cx="497.23" cy="287.54" r="6.4"/><circle class="cls-18" cx="560.29" cy="243.63" r="10.07"/><circle class="cls-19" cx="560.29" cy="243.63" r="6.4"/><circle class="cls-20" cx="661.8" cy="131.59" r="10.07"/><circle class="cls-21" cx="661.8" cy="131.59" r="6.4"/><circle class="cls-20" cx="697.97" cy="58.99" r="10.07"/><circle class="cls-21" cx="697.97" cy="58.99" r="6.4"/><circle class="cls-20" cx="672.87" cy="50.19" r="10.07"/><circle class="cls-21" cx="672.87" cy="50.19" r="6.4"/><circle class="cls-20" cx="589.92" cy="142.31" r="10.07"/><circle class="cls-21" cx="589.92" cy="142.31" r="6.4"/><circle class="cls-20" cx="640.5" cy="125.19" r="10.07"/><circle class="cls-21" cx="640.5" cy="125.19" r="6.4"/><circle class="cls-20" cx="939.62" cy="205.38" r="10.07"/><circle class="cls-21" cx="939.62" cy="205.38" r="6.4"/><circle class="cls-20" cx="918.33" cy="198.98" r="10.07"/><circle class="cls-21" cx="918.33" cy="198.98" r="6.4"/><circle class="cls-20" cx="833.33" cy="395.24" r="10.07"/><circle class="cls-21" cx="833.33" cy="395.24" r="6.4"/><circle class="cls-20" cx="812.03" cy="388.84" r="10.07"/><circle class="cls-21" cx="812.03" cy="388.84" r="6.4"/><circle class="cls-20" cx="983.17" cy="552.58" r="10.07"/><circle class="cls-21" cx="983.17" cy="552.58" r="6.4"/><circle class="cls-20" cx="961.87" cy="546.18" r="10.07"/><circle class="cls-21" cx="961.87" cy="546.18" r="6.4"/><circle class="cls-20" cx="575.7" cy="50.19" r="10.07"/><circle class="cls-21" cx="575.7" cy="50.19" r="6.4"/><circle class="cls-20" cx="606.38" cy="153.81" r="10.07"/><circle class="cls-21" cx="606.38" cy="153.81" r="6.4"/><circle class="cls-20" cx="602.71" cy="52.59" r="10.07"/><circle class="cls-21" cx="602.71" cy="52.59" r="6.4"/><circle class="cls-20" cx="792.88" cy="78.2" r="10.07"/><circle class="cls-21" cx="792.88" cy="78.2" r="6.4"/><circle class="cls-20" cx="802.95" cy="58.99" r="10.07"/><circle class="cls-21" cx="802.95" cy="58.99" r="6.4"/><circle class="cls-18" cx="535.82" cy="280.59" r="10.07"/><circle class="cls-19" cx="535.82" cy="280.59" r="6.4"/><circle class="cls-18" cx="545.89" cy="452.9" r="10.07"/><circle class="cls-19" cx="545.89" cy="452.9" r="6.4"/><circle class="cls-18" cx="805.64" cy="452.58" r="10.07"/><circle class="cls-19" cx="805.64" cy="452.58" r="6.4"/><circle class="cls-18" cx="729.86" cy="398.91" r="10.07"/><circle class="cls-19" cx="729.86" cy="398.91" r="6.4"/><circle class="cls-18" cx="807.47" cy="328.84" r="10.07"/><circle class="cls-19" cx="807.47" cy="328.84" r="6.4"/><circle class="cls-18" cx="863.89" cy="213.91" r="10.07"/><circle class="cls-19" cx="863.89" cy="213.91" r="6.4"/><circle class="cls-18" cx="955.48" cy="153.81" r="10.07"/><circle class="cls-19" cx="955.48" cy="153.81" r="6.4"/><circle class="cls-18" cx="840.67" cy="97.82" r="10.07"/><circle class="cls-19" cx="840.67" cy="97.82" r="6.4"/><circle class="cls-18" cx="729.86" cy="104.22" r="10.07"/><circle class="cls-19" cx="729.86" cy="104.22" r="6.4"/><circle class="cls-20" cx="501.87" cy="524.61" r="10.07"/><circle class="cls-21" cx="501.87" cy="524.61" r="6.4"/><circle class="cls-20" cx="327.88" cy="462.97" r="10.07"/><circle class="cls-21" cx="327.88" cy="462.97" r="6.4"/><circle class="cls-17" cx="497.23" cy="378.28" r="10.07"/><circle class="cls-9" cx="497.23" cy="378.28" r="6.4"/><circle class="cls-17" cx="501.87" cy="363.66" r="10.07"/><circle class="cls-9" cx="501.87" cy="363.66" r="6.4"/><circle class="cls-18" cx="550.23" cy="312.55" r="10.07"/><circle class="cls-19" cx="550.23" cy="312.55" r="6.4"/><circle class="cls-17" cx="438.73" cy="364.57" r="10.07"/><circle class="cls-9" cx="438.73" cy="364.57" r="6.4"/><circle class="cls-17" cx="467.91" cy="362.65" r="10.07"/><circle class="cls-9" cx="467.91" cy="362.65" r="6.4"/><circle class="cls-17" cx="485.41" cy="362.65" r="10.07"/><circle class="cls-9" cx="485.41" cy="362.65" r="6.4"/><circle class="cls-17" cx="479.01" cy="380.12" r="10.07"/><circle class="cls-9" cx="479.01" cy="380.12" r="6.4"/><circle class="cls-17" cx="466.22" cy="373.73" r="10.07"/><circle class="cls-9" cx="466.22" cy="373.73" r="6.4"/><circle class="cls-18" cx="434.74" cy="462.15" r="10.07"/><circle class="cls-19" cx="434.74" cy="462.15" r="6.4"/><circle class="cls-17" cx="279.81" cy="198.7" r="10.07"/><circle class="cls-9" cx="279.81" cy="198.7" r="6.4"/></svg>