<svg id="Capa_2" data-name="Capa 2" xmlns="http://www.w3.org/2000/svg" viewBox="0 0 181 181"><defs><style>.cls-1{fill:#1a7fcd;}</style></defs><title>ugiland - casos de exito</title><path class="cls-1" d="M114.51,34.2a1.59,1.59,0,1,0-1.58-1.58A1.58,1.58,0,0,0,114.51,34.2Z"/><path class="cls-1" d="M143.82,123a1.58,1.58,0,1,0,2-2.44,1.58,1.58,0,0,0-2,2.44Z"/><path class="cls-1" d="M74.18,27.12a175,175,0,0,1,27.72,2,1.54,1.54,0,0,0,1.82-1.29,1.58,1.58,0,0,0-1.3-1.82,176.67,176.67,0,0,0-28.24-2,1.58,1.58,0,0,0,0,3.16Z"/><path class="cls-1" d="M149,131.41a1.57,1.57,0,0,0-1.58,1.57,14.42,14.42,0,1,1-13.48-14.4,1.58,1.58,0,0,0,1.29-2.61,1.54,1.54,0,0,0-1.09-.53c-.38,0-.76,0-1.14,0A17.59,17.59,0,1,0,150.57,133,1.57,1.57,0,0,0,149,131.41Z"/><path class="cls-1" d="M166.61,126.38l-5.2-1.3-2.74-6.61,2.76-4.59a1.57,1.57,0,0,0-.23-1.93L154,104.77a1.57,1.57,0,0,0-1.93-.23l-4.59,2.76-6.62-2.74-1.29-5.21a1.58,1.58,0,0,0-1.53-1.19h-2.88V32.62c0-5.53-6.58-10.55-18.53-14.14-11.36-3.41-26.45-5.29-42.47-5.29s-31.1,1.88-42.46,5.29c-11.95,3.59-18.53,8.61-18.53,14.14V148.38c0,5.53,6.58,10.55,18.53,14.14,11.36,3.41,26.44,5.29,42.46,5.29a191.63,191.63,0,0,0,19.77-1,1.6,1.6,0,0,0,1.41-1.74,1.59,1.59,0,0,0-.58-1.06,1.61,1.61,0,0,0-1.16-.34,188.2,188.2,0,0,1-19.44,1c-15.72,0-30.48-1.83-41.56-5.16-10.19-3.06-16.27-7.21-16.27-11.11V116.5l2.35,1.65a46.72,46.72,0,0,0,13,5.78c11.36,3.41,26.44,5.3,42.46,5.3,4.69,0,9.35-.17,13.87-.49A1.58,1.58,0,0,0,89,126a1.6,1.6,0,0,0-1.14-.38c-4.45.32-9,.48-13.65.48-15.72,0-30.48-1.84-41.56-5.16-10.19-3.07-16.27-7.22-16.27-11.12V77.91l2.35,1.65a46.43,46.43,0,0,0,13,5.78c11.36,3.42,26.44,5.3,42.46,5.3s31.11-1.88,42.47-5.3a46.35,46.35,0,0,0,13-5.78L132,77.91V98.16h-4.11a1.58,1.58,0,0,0-1.53,1.19l-1.3,5.21-6.61,2.74-4.59-2.76a1.57,1.57,0,0,0-1.93.23L104.77,112a1.57,1.57,0,0,0-.23,1.93l2.76,4.59-2.74,6.61-5.21,1.3a1.58,1.58,0,0,0-1.19,1.53v10.15a1.58,1.58,0,0,0,1.19,1.53l5.21,1.3,2.74,6.61-2.76,4.59a1.57,1.57,0,0,0,.23,1.93L112,161.2a1.57,1.57,0,0,0,1.93.23l4.59-2.76,6.61,2.74,1.3,5.21a1.57,1.57,0,0,0,1.53,1.19h10.15a1.58,1.58,0,0,0,1.53-1.19l1.29-5.21,6.62-2.74,4.59,2.76a1.57,1.57,0,0,0,1.93-.23L161.2,154a1.57,1.57,0,0,0,.23-1.93l-2.76-4.59,2.74-6.61,5.21-1.3a1.58,1.58,0,0,0,1.19-1.53V127.91A1.58,1.58,0,0,0,166.61,126.38ZM32.62,21.51c11.09-3.33,25.85-5.16,41.56-5.16s30.48,1.83,41.56,5.16C125.94,24.57,132,28.73,132,32.62s-6.08,8.05-16.28,11.11c-11.08,3.33-25.83,5.16-41.56,5.16S43.7,47.06,32.62,43.73c-10.19-3.06-16.27-7.21-16.27-11.11S22.43,24.57,32.62,21.51Zm83.12,60.81c-11.08,3.33-25.84,5.16-41.56,5.16S43.7,85.65,32.62,82.32C22.43,79.26,16.35,75.1,16.35,71.21V39.33L18.7,41a46.42,46.42,0,0,0,13,5.79c11.36,3.41,26.44,5.29,42.46,5.29s31.11-1.88,42.47-5.29a46.49,46.49,0,0,0,13-5.79L132,39.33V71.21C132,75.1,125.94,79.26,115.74,82.32Zm48.91,54.5L159.88,138a1.6,1.6,0,0,0-1.08.93L155.45,147a1.58,1.58,0,0,0,.11,1.42l2.53,4.22-5.43,5.43-4.22-2.53a1.56,1.56,0,0,0-1.41-.11l-8.09,3.35a1.6,1.6,0,0,0-.93,1.08l-1.19,4.77h-7.67L128,159.88a1.6,1.6,0,0,0-.93-1.08l-8.09-3.35a1.56,1.56,0,0,0-1.41.11l-4.22,2.53-5.43-5.43,2.53-4.22a1.58,1.58,0,0,0,.11-1.42l-3.35-8.08a1.54,1.54,0,0,0-1.08-.92l-4.78-1.2v-7.67l4.78-1.19a1.6,1.6,0,0,0,1.08-.93l3.35-8.09a1.56,1.56,0,0,0-.11-1.41l-2.53-4.22,5.43-5.43,4.22,2.53a1.56,1.56,0,0,0,1.41.11l8.09-3.35a1.56,1.56,0,0,0,.92-1.08l1.2-4.78h7.67l1.19,4.78a1.58,1.58,0,0,0,.93,1.08l8.08,3.35a1.58,1.58,0,0,0,1.42-.11l4.22-2.53,5.43,5.43-2.53,4.22a1.56,1.56,0,0,0-.11,1.41L158.8,127a1.6,1.6,0,0,0,1.08.93l4.77,1.19Z"/></svg>