<svg id="Capa_2" data-name="Capa 2" xmlns="http://www.w3.org/2000/svg" viewBox="0 0 1152.44 609.84"><defs><style>.cls-1{fill:#f5f5f5;}.cls-2{fill:#fafafa;}.cls-3{fill:#e1e1e1;}.cls-4{fill:#375a64;}.cls-5{fill:#1a2e35;}.cls-6{fill:#fff;}.cls-7{fill:#ececec;}.cls-8{fill:#00cf88;}.cls-9{fill:#ff725e;}.cls-10{fill:#008db8;}.cls-11,.cls-12{opacity:0.3;}.cls-13{fill:#e0bbaa;}.cls-14{fill:#c17560;}</style></defs><title>ugiland - casos de exito</title><rect class="cls-1" x="57.71" y="134.13" width="146.77" height="449.59"/><rect class="cls-2" x="204.02" y="134.13" width="116" height="449.59"/><rect class="cls-3" x="65.59" y="206.09" width="124.5" height="35.05"/><rect class="cls-1" x="69.06" y="210.5" width="6.97" height="26.83"/><path class="cls-2" d="M84.24,216.14A2.22,2.22,0,1,1,82,213.92,2.21,2.21,0,0,1,84.24,216.14Z"/><circle class="cls-2" cx="82.03" cy="225.62" r="2.22"/><rect class="cls-1" x="93.1" y="213.92" width="6.85" height="20.61"/><rect class="cls-1" x="103" y="213.92" width="6.85" height="20.61"/><rect class="cls-1" x="112.89" y="213.92" width="6.85" height="20.61"/><rect class="cls-1" x="122.79" y="213.92" width="6.85" height="20.61"/><rect class="cls-1" x="132.68" y="213.92" width="6.85" height="20.61"/><rect class="cls-1" x="142.58" y="213.92" width="6.85" height="20.61"/><rect class="cls-1" x="152.47" y="213.92" width="6.85" height="20.61"/><rect class="cls-1" x="162.37" y="213.92" width="6.85" height="20.61"/><rect class="cls-1" x="172.27" y="213.92" width="6.85" height="20.61"/><rect class="cls-1" x="182.16" y="213.92" width="6.85" height="20.61"/><rect class="cls-3" x="65.59" y="262.23" width="124.5" height="35.05"/><rect class="cls-1" x="69.06" y="266.64" width="6.97" height="26.83"/><path class="cls-2" d="M84.24,272.28A2.22,2.22,0,1,1,82,270.06,2.22,2.22,0,0,1,84.24,272.28Z"/><path class="cls-2" d="M84.24,281.76A2.22,2.22,0,1,1,82,279.54,2.21,2.21,0,0,1,84.24,281.76Z"/><rect class="cls-1" x="93.1" y="270.06" width="6.85" height="20.61"/><rect class="cls-1" x="103" y="270.06" width="6.85" height="20.61"/><rect class="cls-1" x="112.89" y="270.06" width="6.85" height="20.61"/><rect class="cls-1" x="122.79" y="270.06" width="6.85" height="20.61"/><rect class="cls-1" x="132.68" y="270.06" width="6.85" height="20.61"/><rect class="cls-1" x="142.58" y="270.06" width="6.85" height="20.61"/><rect class="cls-1" x="152.47" y="270.06" width="6.85" height="20.61"/><rect class="cls-1" x="162.37" y="270.06" width="6.85" height="20.61"/><rect class="cls-1" x="172.27" y="270.06" width="6.85" height="20.61"/><rect class="cls-1" x="182.16" y="270.06" width="6.85" height="20.61"/><rect class="cls-3" x="65.59" y="318.37" width="124.5" height="35.05"/><rect class="cls-1" x="69.06" y="322.78" width="6.97" height="26.83"/><path class="cls-2" d="M84.24,328.42A2.22,2.22,0,1,1,82,326.21,2.21,2.21,0,0,1,84.24,328.42Z"/><circle class="cls-2" cx="82.03" cy="337.9" r="2.22"/><rect class="cls-1" x="93.1" y="326.21" width="6.85" height="20.61"/><rect class="cls-1" x="103" y="326.21" width="6.85" height="20.61"/><rect class="cls-1" x="112.89" y="326.21" width="6.85" height="20.61"/><rect class="cls-1" x="122.79" y="326.21" width="6.85" height="20.61"/><rect class="cls-1" x="132.68" y="326.21" width="6.85" height="20.61"/><rect class="cls-1" x="142.58" y="326.21" width="6.85" height="20.61"/><rect class="cls-1" x="152.47" y="326.21" width="6.85" height="20.61"/><rect class="cls-1" x="162.37" y="326.21" width="6.85" height="20.61"/><rect class="cls-1" x="172.27" y="326.21" width="6.85" height="20.61"/><rect class="cls-1" x="182.16" y="326.21" width="6.85" height="20.61"/><rect class="cls-3" x="65.59" y="374.51" width="124.5" height="35.05"/><rect class="cls-1" x="69.06" y="378.92" width="6.97" height="26.83"/><path class="cls-2" d="M84.24,384.56A2.22,2.22,0,1,1,82,382.35,2.21,2.21,0,0,1,84.24,384.56Z"/><circle class="cls-2" cx="82.03" cy="394.04" r="2.22"/><rect class="cls-1" x="93.1" y="382.35" width="6.85" height="20.61"/><rect class="cls-1" x="103" y="382.35" width="6.85" height="20.61"/><rect class="cls-1" x="112.89" y="382.35" width="6.85" height="20.61"/><rect class="cls-1" x="122.79" y="382.35" width="6.85" height="20.61"/><rect class="cls-1" x="132.68" y="382.35" width="6.85" height="20.61"/><rect class="cls-1" x="142.58" y="382.35" width="6.85" height="20.61"/><rect class="cls-1" x="152.47" y="382.35" width="6.85" height="20.61"/><rect class="cls-1" x="162.37" y="382.35" width="6.85" height="20.61"/><rect class="cls-1" x="172.27" y="382.35" width="6.85" height="20.61"/><rect class="cls-1" x="182.16" y="382.35" width="6.85" height="20.61"/><rect class="cls-3" x="65.59" y="430.66" width="124.5" height="35.05"/><rect class="cls-1" x="69.06" y="435.06" width="6.97" height="26.83"/><path class="cls-2" d="M84.24,440.71A2.22,2.22,0,1,1,82,438.49,2.21,2.21,0,0,1,84.24,440.71Z"/><circle class="cls-2" cx="82.03" cy="450.18" r="2.22"/><rect class="cls-1" x="93.1" y="438.49" width="6.85" height="20.61"/><rect class="cls-1" x="103" y="438.49" width="6.85" height="20.61"/><rect class="cls-1" x="112.89" y="438.49" width="6.85" height="20.61"/><rect class="cls-1" x="122.79" y="438.49" width="6.85" height="20.61"/><rect class="cls-1" x="132.68" y="438.49" width="6.85" height="20.61"/><rect class="cls-1" x="142.58" y="438.49" width="6.85" height="20.61"/><rect class="cls-1" x="152.47" y="438.49" width="6.85" height="20.61"/><rect class="cls-1" x="162.37" y="438.49" width="6.85" height="20.61"/><rect class="cls-1" x="172.27" y="438.49" width="6.85" height="20.61"/><rect class="cls-1" x="182.16" y="438.49" width="6.85" height="20.61"/><rect class="cls-3" x="65.59" y="486.8" width="124.5" height="35.05"/><rect class="cls-1" x="69.06" y="491.2" width="6.97" height="26.83"/><path class="cls-2" d="M84.24,496.85A2.22,2.22,0,1,1,82,494.63,2.21,2.21,0,0,1,84.24,496.85Z"/><circle class="cls-2" cx="82.03" cy="506.33" r="2.22"/><rect class="cls-1" x="93.1" y="494.63" width="6.85" height="20.61"/><rect class="cls-1" x="103" y="494.63" width="6.85" height="20.61"/><rect class="cls-1" x="112.89" y="494.63" width="6.85" height="20.61"/><rect class="cls-1" x="122.79" y="494.63" width="6.85" height="20.61"/><rect class="cls-1" x="132.68" y="494.63" width="6.85" height="20.61"/><rect class="cls-1" x="142.58" y="494.63" width="6.85" height="20.61"/><rect class="cls-1" x="152.47" y="494.63" width="6.85" height="20.61"/><rect class="cls-1" x="162.37" y="494.63" width="6.85" height="20.61"/><rect class="cls-1" x="172.27" y="494.63" width="6.85" height="20.61"/><rect class="cls-1" x="182.16" y="494.63" width="6.85" height="20.61"/><rect class="cls-3" x="65.59" y="542.94" width="124.5" height="35.05"/><rect class="cls-1" x="69.06" y="547.35" width="6.97" height="26.83"/><path class="cls-2" d="M84.24,553A2.22,2.22,0,1,1,82,550.77,2.21,2.21,0,0,1,84.24,553Z"/><path class="cls-2" d="M84.24,562.47A2.22,2.22,0,1,1,82,560.25,2.21,2.21,0,0,1,84.24,562.47Z"/><rect class="cls-1" x="93.1" y="550.77" width="6.85" height="20.61"/><rect class="cls-1" x="103" y="550.77" width="6.85" height="20.61"/><rect class="cls-1" x="112.89" y="550.77" width="6.85" height="20.61"/><rect class="cls-1" x="122.79" y="550.77" width="6.85" height="20.61"/><rect class="cls-1" x="132.68" y="550.77" width="6.85" height="20.61"/><rect class="cls-1" x="142.58" y="550.77" width="6.85" height="20.61"/><rect class="cls-1" x="152.47" y="550.77" width="6.85" height="20.61"/><rect class="cls-1" x="162.37" y="550.77" width="6.85" height="20.61"/><rect class="cls-1" x="172.27" y="550.77" width="6.85" height="20.61"/><rect class="cls-1" x="182.16" y="550.77" width="6.85" height="20.61"/><path class="cls-3" d="M142.58,206.09a4.92,4.92,0,0,1-.14-1.08c-.05-.71-.09-1.76-.13-3.12s-.07-3-.16-4.91a30.48,30.48,0,0,0-.86-6.39,23.08,23.08,0,0,0-3.32-7,15.43,15.43,0,0,0-6.81-5.46,32.51,32.51,0,0,0-9.66-2l-10.72-.93c-14.7-1.28-28-2.1-37.68-2.28-4.83-.11-8.74-.08-11.44-.08l-3.11,0a4.87,4.87,0,0,1-1.09,0,4.65,4.65,0,0,1,1.08-.13l3.11-.2c2.7-.11,6.62-.24,11.46-.21,9.68,0,23,.74,37.74,2l10.73.95a33.3,33.3,0,0,1,9.9,2.07,16.23,16.23,0,0,1,7.1,5.8,23.28,23.28,0,0,1,3.33,7.26,30.46,30.46,0,0,1,.74,6.54c0,1.92,0,3.58,0,4.93s0,2.3,0,3.11A5.42,5.42,0,0,1,142.58,206.09Z"/><path class="cls-3" d="M104.81,206.09a4.28,4.28,0,0,1-.08-1c0-.77,0-1.74,0-2.93s0-2.83-.15-4.62a14.2,14.2,0,0,0-1.53-5.75,11,11,0,0,0-5.61-4.31,15.4,15.4,0,0,0-8.18-.83A13.62,13.62,0,0,0,85,188.07a8.11,8.11,0,0,0-3.27,3.09,4.38,4.38,0,0,0,0,4.35,5.86,5.86,0,0,0,3.69,2.78A4.73,4.73,0,0,0,89.76,197a6.46,6.46,0,0,0,1.94-4.13,6.27,6.27,0,0,0-1.29-4.22,9.23,9.23,0,0,0-3.28-2.89,11.88,11.88,0,0,0-4.1-1.06c-1.4-.21-2.77-.4-4.09-.54-2.65-.3-5.13-.48-7.39-.57-4.53-.18-8.22-.12-10.76-.12l-2.93,0a4.48,4.48,0,0,1-1-.06,4.61,4.61,0,0,1,1-.12l2.92-.15c2.55-.11,6.23-.27,10.79-.17,2.28.06,4.78.19,7.45.46,1.33.14,2.71.31,4.13.5.71.12,1.41.2,2.16.34a8.35,8.35,0,0,1,2.2.77,10,10,0,0,1,3.6,3.13A7.18,7.18,0,0,1,92.58,193a7.28,7.28,0,0,1-2.21,4.71,5.61,5.61,0,0,1-5.14,1.48A6.73,6.73,0,0,1,81,195.94a5.32,5.32,0,0,1,0-5.2,8.94,8.94,0,0,1,3.64-3.43,14.77,14.77,0,0,1,4.49-1.5,16.15,16.15,0,0,1,8.59.95,11.61,11.61,0,0,1,5.89,4.69,14.44,14.44,0,0,1,1.48,6c.1,1.82,0,3.38,0,4.65s-.1,2.16-.13,2.93A4.1,4.1,0,0,1,104.81,206.09Z"/><path class="cls-3" d="M152.74,206.09a6.15,6.15,0,0,1-.26-1.16c-.14-.76-.36-1.89-.67-3.32a64.44,64.44,0,0,0-3.68-11.87,34.57,34.57,0,0,0-10.83-14.52,20.4,20.4,0,0,0-9.9-3.77,102.28,102.28,0,0,0-11.67-.62c-16.09-.31-30.67-.25-41.22-.67-5.28-.19-9.54-.44-12.49-.65l-3.38-.3a5.53,5.53,0,0,1-1.18-.16,5.7,5.7,0,0,1,1.19,0l3.39.13c2.95.1,7.21.26,12.48.36,10.54.26,25.12.1,41.23.41a100.69,100.69,0,0,1,11.77.65,21,21,0,0,1,10.28,4,31.39,31.39,0,0,1,6.86,7.26,41.77,41.77,0,0,1,4.06,7.67,59.9,59.9,0,0,1,3.44,12c.26,1.45.42,2.59.5,3.36A6.26,6.26,0,0,1,152.74,206.09Z"/><rect class="cls-3" x="67.3" y="139.73" width="121.08" height="17.58"/><rect class="cls-1" x="93.93" y="148.51" width="65.92" height="8.79"/><rect class="cls-1" x="176.82" y="25.16" width="182.05" height="557.66"/><rect class="cls-2" x="358.3" y="25.16" width="143.88" height="557.66"/><rect class="cls-3" x="186.59" y="114.41" width="154.43" height="43.48"/><rect class="cls-1" x="190.9" y="119.87" width="8.65" height="33.27"/><path class="cls-2" d="M209.73,126.87a2.75,2.75,0,1,1-2.75-2.75A2.75,2.75,0,0,1,209.73,126.87Z"/><circle class="cls-2" cx="206.98" cy="138.63" r="2.75"/><rect class="cls-1" x="220.72" y="124.12" width="8.5" height="25.56"/><rect class="cls-1" x="232.99" y="124.12" width="8.5" height="25.56"/><rect class="cls-1" x="245.27" y="124.12" width="8.5" height="25.56"/><rect class="cls-1" x="257.54" y="124.12" width="8.5" height="25.56"/><rect class="cls-1" x="269.81" y="124.12" width="8.5" height="25.56"/><rect class="cls-1" x="282.09" y="124.12" width="8.5" height="25.56"/><rect class="cls-1" x="294.36" y="124.12" width="8.5" height="25.56"/><rect class="cls-1" x="306.64" y="124.12" width="8.5" height="25.56"/><rect class="cls-1" x="318.91" y="124.12" width="8.5" height="25.56"/><rect class="cls-1" x="331.19" y="124.12" width="8.5" height="25.56"/><rect class="cls-3" x="186.59" y="184.04" width="154.43" height="43.48"/><rect class="cls-1" x="190.9" y="189.51" width="8.65" height="33.27"/><path class="cls-2" d="M209.73,196.51a2.75,2.75,0,1,1-2.75-2.75A2.75,2.75,0,0,1,209.73,196.51Z"/><path class="cls-2" d="M209.73,208.26a2.75,2.75,0,1,1-2.75-2.74A2.75,2.75,0,0,1,209.73,208.26Z"/><rect class="cls-1" x="220.72" y="193.76" width="8.5" height="25.56"/><rect class="cls-1" x="232.99" y="193.76" width="8.5" height="25.56"/><rect class="cls-1" x="245.27" y="193.76" width="8.5" height="25.56"/><rect class="cls-1" x="257.54" y="193.76" width="8.5" height="25.56"/><rect class="cls-1" x="269.81" y="193.76" width="8.5" height="25.56"/><rect class="cls-1" x="282.09" y="193.76" width="8.5" height="25.56"/><rect class="cls-1" x="294.36" y="193.76" width="8.5" height="25.56"/><rect class="cls-1" x="306.64" y="193.76" width="8.5" height="25.56"/><rect class="cls-1" x="318.91" y="193.76" width="8.5" height="25.56"/><rect class="cls-1" x="331.19" y="193.76" width="8.5" height="25.56"/><rect class="cls-3" x="186.59" y="253.68" width="154.43" height="43.48"/><rect class="cls-1" x="190.9" y="259.14" width="8.65" height="33.27"/><path class="cls-2" d="M209.73,266.14A2.75,2.75,0,1,1,207,263.4,2.75,2.75,0,0,1,209.73,266.14Z"/><circle class="cls-2" cx="206.98" cy="277.9" r="2.75"/><rect class="cls-1" x="220.72" y="263.4" width="8.5" height="25.56"/><rect class="cls-1" x="232.99" y="263.4" width="8.5" height="25.56"/><rect class="cls-1" x="245.27" y="263.4" width="8.5" height="25.56"/><rect class="cls-1" x="257.54" y="263.4" width="8.5" height="25.56"/><rect class="cls-1" x="269.81" y="263.4" width="8.5" height="25.56"/><rect class="cls-1" x="282.09" y="263.4" width="8.5" height="25.56"/><rect class="cls-1" x="294.36" y="263.4" width="8.5" height="25.56"/><rect class="cls-1" x="306.64" y="263.4" width="8.5" height="25.56"/><rect class="cls-1" x="318.91" y="263.4" width="8.5" height="25.56"/><rect class="cls-1" x="331.19" y="263.4" width="8.5" height="25.56"/><rect class="cls-3" x="186.59" y="323.32" width="154.43" height="43.48"/><rect class="cls-1" x="190.9" y="328.78" width="8.65" height="33.27"/><path class="cls-2" d="M209.73,335.78A2.75,2.75,0,1,1,207,333,2.75,2.75,0,0,1,209.73,335.78Z"/><path class="cls-2" d="M209.73,347.54a2.75,2.75,0,1,1-2.75-2.75A2.75,2.75,0,0,1,209.73,347.54Z"/><rect class="cls-1" x="220.72" y="333.03" width="8.5" height="25.56"/><rect class="cls-1" x="232.99" y="333.03" width="8.5" height="25.56"/><rect class="cls-1" x="245.27" y="333.03" width="8.5" height="25.56"/><rect class="cls-1" x="257.54" y="333.03" width="8.5" height="25.56"/><rect class="cls-1" x="269.81" y="333.03" width="8.5" height="25.56"/><rect class="cls-1" x="282.09" y="333.03" width="8.5" height="25.56"/><rect class="cls-1" x="294.36" y="333.03" width="8.5" height="25.56"/><rect class="cls-1" x="306.64" y="333.03" width="8.5" height="25.56"/><rect class="cls-1" x="318.91" y="333.03" width="8.5" height="25.56"/><rect class="cls-1" x="331.19" y="333.03" width="8.5" height="25.56"/><rect class="cls-3" x="186.59" y="392.95" width="154.43" height="43.48"/><rect class="cls-1" x="190.9" y="398.42" width="8.65" height="33.27"/><path class="cls-2" d="M209.73,405.42a2.75,2.75,0,1,1-2.75-2.75A2.75,2.75,0,0,1,209.73,405.42Z"/><circle class="cls-2" cx="206.98" cy="417.17" r="2.75"/><rect class="cls-1" x="220.72" y="402.67" width="8.5" height="25.56"/><rect class="cls-1" x="232.99" y="402.67" width="8.5" height="25.56"/><rect class="cls-1" x="245.27" y="402.67" width="8.5" height="25.56"/><rect class="cls-1" x="257.54" y="402.67" width="8.5" height="25.56"/><rect class="cls-1" x="269.81" y="402.67" width="8.5" height="25.56"/><rect class="cls-1" x="282.09" y="402.67" width="8.5" height="25.56"/><rect class="cls-1" x="294.36" y="402.67" width="8.5" height="25.56"/><rect class="cls-1" x="306.64" y="402.67" width="8.5" height="25.56"/><rect class="cls-1" x="318.91" y="402.67" width="8.5" height="25.56"/><rect class="cls-1" x="331.19" y="402.67" width="8.5" height="25.56"/><rect class="cls-3" x="186.59" y="462.59" width="154.43" height="43.48"/><rect class="cls-1" x="190.9" y="468.05" width="8.65" height="33.27"/><path class="cls-2" d="M209.73,475.05a2.75,2.75,0,1,1-2.75-2.74A2.75,2.75,0,0,1,209.73,475.05Z"/><path class="cls-2" d="M209.73,486.81a2.75,2.75,0,1,1-2.75-2.75A2.75,2.75,0,0,1,209.73,486.81Z"/><rect class="cls-1" x="220.72" y="472.31" width="8.5" height="25.56"/><rect class="cls-1" x="232.99" y="472.31" width="8.5" height="25.56"/><rect class="cls-1" x="245.27" y="472.31" width="8.5" height="25.56"/><rect class="cls-1" x="257.54" y="472.31" width="8.5" height="25.56"/><rect class="cls-1" x="269.81" y="472.31" width="8.5" height="25.56"/><rect class="cls-1" x="282.09" y="472.31" width="8.5" height="25.56"/><rect class="cls-1" x="294.36" y="472.31" width="8.5" height="25.56"/><rect class="cls-1" x="306.64" y="472.31" width="8.5" height="25.56"/><rect class="cls-1" x="318.91" y="472.31" width="8.5" height="25.56"/><rect class="cls-1" x="331.19" y="472.31" width="8.5" height="25.56"/><rect class="cls-3" x="186.59" y="532.23" width="154.43" height="43.48"/><rect class="cls-1" x="190.9" y="537.69" width="8.65" height="33.27"/><path class="cls-2" d="M209.73,544.69a2.75,2.75,0,1,1-2.75-2.75A2.75,2.75,0,0,1,209.73,544.69Z"/><circle class="cls-2" cx="206.98" cy="556.45" r="2.75"/><rect class="cls-1" x="220.72" y="541.94" width="8.5" height="25.56"/><rect class="cls-1" x="232.99" y="541.94" width="8.5" height="25.56"/><rect class="cls-1" x="245.27" y="541.94" width="8.5" height="25.56"/><rect class="cls-1" x="257.54" y="541.94" width="8.5" height="25.56"/><rect class="cls-1" x="269.81" y="541.94" width="8.5" height="25.56"/><rect class="cls-1" x="282.09" y="541.94" width="8.5" height="25.56"/><rect class="cls-1" x="294.36" y="541.94" width="8.5" height="25.56"/><rect class="cls-1" x="306.64" y="541.94" width="8.5" height="25.56"/><rect class="cls-1" x="318.91" y="541.94" width="8.5" height="25.56"/><rect class="cls-1" x="331.19" y="541.94" width="8.5" height="25.56"/><path class="cls-3" d="M282.09,114.41a5.75,5.75,0,0,1-.17-1.34c-.07-.89-.12-2.19-.17-3.87s-.08-3.72-.19-6.1a38.7,38.7,0,0,0-1.07-7.92,28,28,0,0,0-4.12-8.67,19.27,19.27,0,0,0-8.44-6.79,41,41,0,0,0-12-2.43l-13.3-1.15c-18.23-1.58-34.75-2.6-46.73-2.83-6-.13-10.84-.1-14.19-.09l-3.86,0a5.9,5.9,0,0,1-1.35-.06,6.23,6.23,0,0,1,1.34-.16l3.86-.24c3.35-.15,8.2-.3,14.21-.27,12,0,28.58.92,46.82,2.51L256,76.2a41.3,41.3,0,0,1,12.28,2.57,19.93,19.93,0,0,1,8.8,7.2,28.67,28.67,0,0,1,4.14,9,38.14,38.14,0,0,1,.92,8.1c.06,2.39,0,4.44,0,6.12s0,2.86-.05,3.86A6.49,6.49,0,0,1,282.09,114.41Z"/><path class="cls-3" d="M235.24,114.41a5.52,5.52,0,0,1-.1-1.27c0-1,0-2.16,0-3.64s0-3.5-.2-5.72a17.48,17.48,0,0,0-1.9-7.14c-1.34-2.37-4-4.13-7-5.34a19.15,19.15,0,0,0-10.14-1,17.33,17.33,0,0,0-5.23,1.78,9.93,9.93,0,0,0-4,3.84,5.43,5.43,0,0,0,0,5.39,7.25,7.25,0,0,0,4.59,3.45,5.83,5.83,0,0,0,5.36-1.55A8,8,0,0,0,219,98.06a7.73,7.73,0,0,0-1.6-5.23,11.56,11.56,0,0,0-4.07-3.6,15.29,15.29,0,0,0-5.08-1.31c-1.74-.26-3.44-.49-5.08-.67-3.28-.37-6.36-.58-9.17-.7-5.62-.23-10.18-.15-13.34-.15l-3.63,0a5.73,5.73,0,0,1-1.27-.08,5,5,0,0,1,1.26-.14l3.63-.2c3.15-.13,7.72-.33,13.38-.2,2.83.06,5.93.23,9.24.57,1.65.16,3.36.38,5.12.62.88.14,1.75.25,2.68.42a10.42,10.42,0,0,1,2.73.95,12.52,12.52,0,0,1,4.47,3.89,8.83,8.83,0,0,1,1.82,5.94,9,9,0,0,1-2.74,5.84,6.93,6.93,0,0,1-6.37,1.83,8.32,8.32,0,0,1-5.31-4,6.56,6.56,0,0,1,0-6.45,10.89,10.89,0,0,1,4.51-4.25,17.77,17.77,0,0,1,5.57-1.86,19.92,19.92,0,0,1,10.66,1.18c3.1,1.29,5.87,3.19,7.3,5.81a17.87,17.87,0,0,1,1.84,7.49c.12,2.26,0,4.19,0,5.77s-.12,2.68-.16,3.63A5.33,5.33,0,0,1,235.24,114.41Z"/><path class="cls-3" d="M294.69,114.41a8,8,0,0,1-.32-1.44c-.17-1-.44-2.34-.83-4.13A81.07,81.07,0,0,0,289,94.13c-2.52-5.95-6.54-12.85-13.43-18a25.37,25.37,0,0,0-12.3-4.68,129.67,129.67,0,0,0-14.47-.77c-19.95-.38-38-.31-51.13-.83-6.54-.23-11.83-.54-15.48-.81l-4.2-.36a7.18,7.18,0,0,1-1.46-.21,8.71,8.71,0,0,1,1.47,0l4.21.16c3.66.13,8.95.32,15.48.45,13.08.32,31.15.12,51.14.5a124.36,124.36,0,0,1,14.6.81,26.24,26.24,0,0,1,12.76,4.94,39,39,0,0,1,8.5,9,52.48,52.48,0,0,1,5,9.52A74.46,74.46,0,0,1,294,108.76c.32,1.81.52,3.22.62,4.18A6.5,6.5,0,0,1,294.69,114.41Z"/><rect class="cls-3" x="188.71" y="32.09" width="150.18" height="21.8"/><rect class="cls-1" x="221.74" y="42.99" width="81.76" height="10.9"/><path class="cls-4" d="M874.88,72.65H297.58a18,18,0,0,0-18,18V498.43a18,18,0,0,0,18,18H519.15s14.09,43.58-29.6,66.13H696.73s-49.33-16.91-36.65-66.13h214.8a18,18,0,0,0,18-18V90.67A18,18,0,0,0,874.88,72.65Z"/><path class="cls-5" d="M593.94,473.57c7.85,11.22-4.44,23.52-15.66,15.66a4,4,0,0,1-1-1c-7.83-11.22,4.44-23.5,15.66-15.66A3.85,3.85,0,0,1,593.94,473.57Z"/><path class="cls-6" d="M299.2,80.12H873.27a9.7,9.7,0,0,1,9.7,9.7v352a0,0,0,0,1,0,0H289.5a0,0,0,0,1,0,0v-352A9.7,9.7,0,0,1,299.2,80.12Z"/><path class="cls-7" d="M298.65,80.12H875.45A7.52,7.52,0,0,1,883,87.64v22.54a0,0,0,0,1,0,0H289.5a0,0,0,0,1,0,0V89.28A9.15,9.15,0,0,1,298.65,80.12Z"/><path class="cls-3" d="M312.57,95.78a4.17,4.17,0,1,1-4.17-4.17A4.17,4.17,0,0,1,312.57,95.78Z"/><path class="cls-3" d="M325,95.78a4.17,4.17,0,1,1-4.17-4.17A4.17,4.17,0,0,1,325,95.78Z"/><path class="cls-3" d="M336.81,95.78a4.17,4.17,0,1,1-4.16-4.17A4.16,4.16,0,0,1,336.81,95.78Z"/><path class="cls-5" d="M771.67,516.51c0,.19-82.15.35-183.47.35s-183.48-.16-183.48-.35,82.14-.34,183.48-.34S771.67,516.32,771.67,516.51Z"/><path class="cls-5" d="M782.72,366.39s0-.37,0-1.09,0-1.84,0-3.3c0-3,0-7.42-.08-13.54l.14.15c-47.92.22-206.69.38-394.84.38h0l.52-.53v17.93l-.52-.52,279.7.21,84.26.16,22.89.08,6,0,2.06,0s-.66,0-2,0l-5.89,0-22.77.07-84.13.16-280.09.22h-.53v-19h.55c188.15,0,346.92.16,394.84.38h.15v.14c0,6.15-.06,10.64-.08,13.62,0,1.45,0,2.53,0,3.27S782.72,366.39,782.72,366.39Z"/><path class="cls-5" d="M468.84,330.43c0,.29-17.35.53-38.75.53s-38.75-.24-38.75-.53,17.34-.53,38.75-.53S468.84,330.14,468.84,330.43Z"/><path class="cls-5" d="M782.72,181.05s0-.37,0-1.1,0-1.83,0-3.29c0-3,0-7.43-.08-13.54l.14.15c-47.92.22-206.69.38-394.84.38h0l.52-.53v17.93l-.52-.53,279.7.22,84.26.16,22.89.08,6,0,2.06,0s-.66,0-2,0l-5.89,0-22.77.07-84.13.16-280.09.22h-.53v-19h.55c188.15,0,346.92.16,394.84.38h.15v.14c0,6.15-.06,10.64-.08,13.62,0,1.45,0,2.52,0,3.26S782.72,181.05,782.72,181.05Z"/><path class="cls-5" d="M555.77,243.6s0-.42,0-1.2,0-2-.06-3.46c0-3.06-.07-7.5-.12-13.27l.22.22c-29.17.18-93.43.3-167.91.3h0l.52-.52h0V243.6l-.52-.53L507,243.3l35.67.15,9.68.07,2.53,0c.57,0,.88,0,.88,0a7.74,7.74,0,0,1-.81,0l-2.46,0-9.57.07-35.54.16-119.54.22h-.53V225.69h0c1.05-1.06.29-.3.53-.53h0c74.48,0,138.74.12,167.91.3H556v.23c0,5.82-.09,10.31-.12,13.4,0,1.47,0,2.6-.06,3.41S555.77,243.6,555.77,243.6Z"/><path class="cls-5" d="M465.35,207.63c0,.3-17.35.53-38.75.53s-38.75-.23-38.75-.53,17.34-.52,38.75-.52S465.35,207.34,465.35,207.63Z"/><path class="cls-5" d="M415.8,303.78a8.67,8.67,0,0,1-.09-1.34c0-1-.07-2.18-.11-3.65-.06-3.25-.13-7.65-.22-12.94l.42.42-27.95.11c-.12.11,1-1,.52-.53h0v4.68c0,1.55,0,3.08,0,4.58,0,3,0,5.88,0,8.64l-.48-.49c8.11,0,15,.15,20,.24l5.82.13a16.88,16.88,0,0,1,2.16.12,11.41,11.41,0,0,1-1.95.12l-5.71.13c-4.91.09-12,.2-20.29.24h-.49v-.49c0-2.76,0-5.65,0-8.64,0-1.5,0-3,0-4.58v-4.68h0l.53-.53,27.95.11h.42v.42c0,5.57-.14,10.1-.21,13.2-.05,1.43-.08,2.6-.11,3.55A5.38,5.38,0,0,1,415.8,303.78Z"/><path class="cls-5" d="M452.7,303.78a8.67,8.67,0,0,1-.09-1.34c0-1-.06-2.18-.11-3.65-.05-3.25-.13-7.65-.22-12.94l.42.42-27.95.11.53-.53h0v2.34c0,.79,0,1.57,0,2.34v4.58c0,3,0,5.88,0,8.64l-.49-.49c8.11,0,15,.15,20,.24l5.81.13a16.68,16.68,0,0,1,2.16.12,11.27,11.27,0,0,1-1.95.12l-5.7.13c-4.92.09-12,.2-20.3.24h-.48v-.49c0-2.76,0-5.65,0-8.64v-4.58c0-.77,0-1.55,0-2.34v-2.34h0l.53-.53,27.95.11h.42v.42c-.05,5.57-.14,10.1-.22,13.2,0,1.43-.08,2.6-.11,3.55A5.38,5.38,0,0,1,452.7,303.78Z"/><path class="cls-5" d="M489.61,303.78a9.34,9.34,0,0,1-.1-1.34c0-1-.06-2.18-.1-3.65-.06-3.25-.13-7.65-.22-12.94l.42.42-27.95.11c-.12.11,1-1,.52-.53h0v4.68c0,1.55,0,3.08,0,4.58,0,3,0,5.88,0,8.64l-.49-.49c8.12,0,15,.15,20,.24l5.82.13a16.88,16.88,0,0,1,2.16.12,11.63,11.63,0,0,1-2,.12L482,304c-4.92.09-12,.2-20.3.24h-.48v-.49c0-2.76,0-5.65,0-8.64,0-1.5,0-3,0-4.58v-4.68h0l.53-.53,27.95.11H490v.42c0,5.57-.14,10.1-.22,13.2,0,1.43-.07,2.6-.1,3.55A5.38,5.38,0,0,1,489.61,303.78Z"/><path class="cls-5" d="M526.51,303.78a8.67,8.67,0,0,1-.09-1.34c0-1-.06-2.18-.11-3.65,0-3.25-.13-7.65-.22-12.94l.42.42-27.95.11.53-.53h0v2.34c0,.79,0,1.57,0,2.34v4.58c0,3,0,5.88,0,8.64l-.48-.49c8.11,0,15,.15,20,.24l5.81.13a16.88,16.88,0,0,1,2.16.12,11.27,11.27,0,0,1-2,.12l-5.7.13c-4.92.09-12,.2-20.3.24h-.48v-.49c0-2.76,0-5.65,0-8.64,0-1.5,0-3,0-4.58v-4.68h0l.53-.53,27.95.11h.42v.42c0,5.57-.15,10.1-.22,13.2,0,1.43-.08,2.6-.11,3.55A5.38,5.38,0,0,1,526.51,303.78Z"/><path class="cls-5" d="M563.41,303.78a10.59,10.59,0,0,1-.09-1.34c0-1-.06-2.18-.1-3.65-.06-3.25-.13-7.65-.22-12.94l.41.42-27.94.11c-.12.11,1-1,.52-.53h0v4.68c0,1.55,0,3.08,0,4.58,0,3,0,5.88,0,8.64l-.49-.49c8.11,0,15,.15,20,.24l5.81.13a16.49,16.49,0,0,1,2.16.12,11.27,11.27,0,0,1-1.95.12l-5.7.13c-4.92.09-12,.2-20.3.24H535v-.49c0-2.76,0-5.65,0-8.64,0-1.5,0-3,0-4.58v-4.68h0c-.48.47.64-.64.53-.53l27.94.11h.43v.42c-.05,5.57-.14,10.1-.22,13.2,0,1.43-.08,2.6-.1,3.55A5.66,5.66,0,0,1,563.41,303.78Z"/><path class="cls-5" d="M600.32,303.78a8.67,8.67,0,0,1-.09-1.34c0-1-.07-2.18-.11-3.65,0-3.25-.13-7.65-.22-12.94l.42.42-28,.11c-.12.11,1-1,.52-.53h0v4.68c0,1.55,0,3.08,0,4.58,0,3,0,5.88,0,8.64l-.48-.49c8.11,0,15,.15,20,.24l5.81.13a16.88,16.88,0,0,1,2.16.12,11.41,11.41,0,0,1-2,.12l-5.7.13c-4.92.09-12,.2-20.3.24h-.49v-.49c0-2.76,0-5.65,0-8.64,0-1.5,0-3,0-4.58v-4.68h0l.53-.53,28,.11h.42v.42c0,5.57-.15,10.1-.22,13.2,0,1.43-.08,2.6-.11,3.55A5.38,5.38,0,0,1,600.32,303.78Z"/><path class="cls-5" d="M637.22,303.78a8.67,8.67,0,0,1-.09-1.34c0-1-.06-2.18-.1-3.65-.06-3.25-.13-7.65-.22-12.94l.41.42-28,.11.53-.53h0v4.68c0,1.55,0,3.08,0,4.58,0,3,0,5.88,0,8.64l-.49-.49c8.11,0,15,.15,20,.24l5.81.13a16.68,16.68,0,0,1,2.16.12,11.27,11.27,0,0,1-2,.12l-5.7.13c-4.92.09-12,.2-20.3.24h-.48v-.49c0-2.76,0-5.65,0-8.64,0-1.5,0-3,0-4.58v-4.68h0l.53-.53,28,.11h.42v.42c0,5.57-.14,10.1-.22,13.2,0,1.43-.08,2.6-.11,3.55A5.38,5.38,0,0,1,637.22,303.78Z"/><path class="cls-5" d="M674.13,303.78a8.67,8.67,0,0,1-.09-1.34c0-1-.07-2.18-.11-3.65,0-3.25-.13-7.65-.22-12.94l.42.42-28,.11c-.12.11,1-1,.52-.53h0v4.68c0,1.55,0,3.08,0,4.58,0,3,0,5.88,0,8.64l-.48-.49c8.11,0,15,.15,20,.24l5.82.13a16.88,16.88,0,0,1,2.16.12,11.41,11.41,0,0,1-2,.12l-5.71.13c-4.91.09-12,.2-20.29.24h-.49v-.49c0-2.76,0-5.65,0-8.64,0-1.5,0-3,0-4.58v-4.68h0l.53-.53,28,.11h.42v.42c0,5.57-.14,10.1-.21,13.2-.05,1.43-.08,2.6-.11,3.55A5.38,5.38,0,0,1,674.13,303.78Z"/><path class="cls-5" d="M711,303.78a8.67,8.67,0,0,1-.09-1.34c0-1-.06-2.18-.11-3.65-.05-3.25-.13-7.65-.22-12.94l.42.42-27.95.11.53-.53h0v2.34c0,.79,0,1.57,0,2.34v4.58c0,3,0,5.88,0,8.64l-.49-.49c8.11,0,15,.15,20,.24l5.81.13a16.68,16.68,0,0,1,2.16.12,11.27,11.27,0,0,1-1.95.12l-5.7.13c-4.92.09-12,.2-20.3.24h-.48v-.49c0-2.76,0-5.65,0-8.64v-4.58c0-.77,0-1.55,0-2.34v-2.34h0l.53-.53,27.95.11h.42v.42c-.05,5.57-.14,10.1-.22,13.2,0,1.43-.08,2.6-.11,3.55A5.38,5.38,0,0,1,711,303.78Z"/><path class="cls-5" d="M747.94,303.78a9.34,9.34,0,0,1-.1-1.34c0-1-.06-2.18-.1-3.65-.06-3.25-.13-7.65-.22-12.94l.42.42-28,.11c-.12.11,1-1,.52-.53h0v4.68c0,1.55,0,3.08,0,4.58,0,3,0,5.88,0,8.64l-.49-.49c8.12,0,15,.15,20,.24l5.82.13a16.88,16.88,0,0,1,2.16.12,11.63,11.63,0,0,1-2,.12l-5.7.13c-4.92.09-12,.2-20.3.24h-.48v-.49c0-2.76,0-5.65,0-8.64,0-1.5,0-3,0-4.58v-4.68h0l.53-.53,28,.11h.42v.42c0,5.57-.14,10.1-.22,13.2,0,1.43-.07,2.6-.1,3.55A5.38,5.38,0,0,1,747.94,303.78Z"/><path class="cls-5" d="M784.84,303.78a8.67,8.67,0,0,1-.09-1.34c0-1-.06-2.18-.11-3.65,0-3.25-.13-7.65-.22-12.94l.42.42-28,.11.53-.53h0v2.34c0,.79,0,1.57,0,2.34v4.58c0,3,0,5.88,0,8.64l-.48-.49c8.11,0,15,.15,20,.24l5.81.13a16.88,16.88,0,0,1,2.16.12,11.27,11.27,0,0,1-2,.12l-5.7.13c-4.92.09-12,.2-20.3.24h-.48v-.49c0-2.76,0-5.65,0-8.64,0-1.5,0-3,0-4.58v-4.68h0l.53-.53,28,.11h.42v.42c0,5.57-.15,10.1-.22,13.2,0,1.43-.08,2.6-.11,3.55A5.38,5.38,0,0,1,784.84,303.78Z"/><path class="cls-5" d="M468.84,267.82c0,.29-17.35.53-38.75.53s-38.75-.24-38.75-.53,17.34-.53,38.75-.53S468.84,267.53,468.84,267.82Z"/><path class="cls-5" d="M779.92,243.6s0-.42,0-1.2,0-2,0-3.46c0-3.06-.07-7.5-.13-13.27l.23.22c-29.18.18-93.43.3-167.92.3h0l.52-.52h0V243.6l-.53-.53,119.17.23,35.66.15,9.68.07,2.53,0c.58,0,.89,0,.89,0a8.1,8.1,0,0,1-.82,0l-2.46,0-9.56.07-35.54.16L612,244.12h-.52V225.69h0l.53-.53h0c74.49,0,138.74.12,167.92.3h.22v.23c0,5.82-.1,10.31-.13,13.4,0,1.47,0,2.6,0,3.41S779.92,243.6,779.92,243.6Z"/><path class="cls-5" d="M693,207.63c0,.3-17.35.53-38.75.53s-38.76-.23-38.76-.53,17.35-.52,38.76-.52S693,207.34,693,207.63Z"/><path class="cls-8" d="M620.62,421.52H542.09a13.45,13.45,0,0,1-13.44-13.45h0a13.44,13.44,0,0,1,13.44-13.44h78.53a13.44,13.44,0,0,1,13.44,13.44h0A13.45,13.45,0,0,1,620.62,421.52Z"/><path class="cls-6" d="M570.88,410.33h-3.61l-.68,1.67h-1.85l3.47-7.77H570l3.48,7.77h-1.89Zm-.56-1.36-1.24-3-1.23,3Z"/><path class="cls-6" d="M573.67,408.11a4.28,4.28,0,0,1,7.42-2.64l-1.16,1.06a2.52,2.52,0,0,0-1.95-.91,2.49,2.49,0,0,0,0,5,2.46,2.46,0,0,0,1.95-.92l1.16,1.06a4.27,4.27,0,0,1-7.42-2.63Z"/><path class="cls-6" d="M581.64,408.11a4.28,4.28,0,0,1,7.42-2.64l-1.15,1.06a2.55,2.55,0,0,0-2-.91,2.49,2.49,0,0,0,0,5,2.5,2.5,0,0,0,2-.92l1.15,1.06a4.27,4.27,0,0,1-7.42-2.63Z"/><path class="cls-6" d="M596.29,410.56V412h-6v-7.77h5.87v1.44h-4.08v1.69h3.61v1.4h-3.61v1.8Z"/><path class="cls-6" d="M604.46,407.05c0,1.73-1.3,2.81-3.38,2.81h-1.56V412h-1.8v-7.77h3.36C603.16,404.23,604.46,405.3,604.46,407.05Zm-1.82,0c0-.86-.56-1.36-1.66-1.36h-1.46v2.7H601C602.08,408.39,602.64,407.89,602.64,407.05Z"/><path class="cls-6" d="M607.14,405.69h-2.49v-1.46h6.77v1.46h-2.49V412h-1.79Z"/><polygon class="cls-6" points="546.97 408.26 548.3 406.93 550.88 409.22 555.94 404.35 557.18 405.69 550.69 411.8 546.97 408.26"/><path class="cls-4" d="M458.8,139.82l1.77-2a2.77,2.77,0,0,0,1.09,1.3,3,3,0,0,0,1.67.48,2.72,2.72,0,0,0,1.78-.54,1.73,1.73,0,0,0,.65-1.43c0-.7-.72-1.41-2.17-2.11l-1.12-.55a8.29,8.29,0,0,1-2.71-2,3.66,3.66,0,0,1-.76-2.33,3.75,3.75,0,0,1,1.47-3,5.84,5.84,0,0,1,3.8-1.19,5.33,5.33,0,0,1,2.35.48,4.78,4.78,0,0,1,1.74,1.49l-1.89,1.8a2.34,2.34,0,0,0-.89-1,2.62,2.62,0,0,0-1.35-.32,2.39,2.39,0,0,0-1.53.47,1.52,1.52,0,0,0-.58,1.23c0,.79.77,1.51,2.31,2.17l.7.31a7.76,7.76,0,0,1,2.82,2,3.77,3.77,0,0,1,.91,2.49,4.24,4.24,0,0,1-1.44,3.36,5.66,5.66,0,0,1-3.85,1.25,6.81,6.81,0,0,1-2.95-.59A4,4,0,0,1,458.8,139.82Z"/><path class="cls-4" d="M481.77,136.74a5.17,5.17,0,0,1-1.58,3.85,6,6,0,0,1-8,0,5.46,5.46,0,0,1,0-7.69,6,6,0,0,1,8,0A5.15,5.15,0,0,1,481.77,136.74Zm-3,0a2.69,2.69,0,0,0-.71-1.95,2.89,2.89,0,0,0-3.83,0,3.07,3.07,0,0,0,0,3.93,2.51,2.51,0,0,0,1.91.73,2.55,2.55,0,0,0,1.91-.73A2.7,2.7,0,0,0,478.8,136.72Z"/><path class="cls-4" d="M484.08,141.72V125.88H487v15.84Z"/><path class="cls-4" d="M489.79,127.58a1.71,1.71,0,0,1,1.69-1.7,1.66,1.66,0,0,1,1.21.5,1.67,1.67,0,0,1,0,2.4,1.63,1.63,0,0,1-1.21.51,1.58,1.58,0,0,1-1.19-.52A1.61,1.61,0,0,1,489.79,127.58Zm.25,14.14v-10h2.9v10Z"/><path class="cls-4" d="M503.29,141.43A5,5,0,0,1,502,142a5.84,5.84,0,0,1-1.43.17,5.17,5.17,0,0,1-3.86-1.51,5.31,5.31,0,0,1-1.5-3.92,5.14,5.14,0,0,1,1.51-3.84,5.28,5.28,0,0,1,3.89-1.49,6.22,6.22,0,0,1,1.43.15,5.45,5.45,0,0,1,1.21.48l0,2.93a3.1,3.1,0,0,0-1.06-.73,3.25,3.25,0,0,0-1.28-.26,2.6,2.6,0,0,0-2,.76,3.07,3.07,0,0,0,0,4,2.73,2.73,0,0,0,2,.75,2.94,2.94,0,0,0,1.25-.25,3,3,0,0,0,1-.8Z"/><path class="cls-4" d="M505.34,127.58a1.67,1.67,0,0,1,.5-1.2,1.64,1.64,0,0,1,1.2-.5,1.68,1.68,0,0,1,1.21.5,1.71,1.71,0,0,1-1.21,2.91,1.58,1.58,0,0,1-1.2-.52A1.65,1.65,0,0,1,505.34,127.58Zm.25,14.14v-10h2.91v10Z"/><path class="cls-4" d="M511.81,141.72V134h-1.4V131.7h1.4v-3.33h2.91v3.33h1.4V134h-1.4v7.74Z"/><path class="cls-4" d="M520.77,131.7V137a2.84,2.84,0,0,0,.51,1.9,2.2,2.2,0,0,0,1.69.57,2.13,2.13,0,0,0,1.67-.58,2.76,2.76,0,0,0,.52-1.89V131.7h2.91V137a5.4,5.4,0,0,1-1.23,3.9,5.21,5.21,0,0,1-3.83,1.25,4.46,4.46,0,0,1-5.13-5.15V131.7Z"/><path class="cls-4" d="M540.92,141.72H538.1l0-1.44a3.9,3.9,0,0,1-1.43,1.4,4.31,4.31,0,0,1-2,.44,4,4,0,0,1-3.22-1.48,7,7,0,0,1,0-7.88,4.12,4.12,0,0,1,3.34-1.42,3.66,3.66,0,0,1,1.92.5,5.09,5.09,0,0,1,1.55,1.58c0-.24-.06-.51-.07-.81s0-.63,0-1v-5.71h2.76Zm-2.66-5a3.1,3.1,0,0,0-.68-2.13,2.27,2.27,0,0,0-1.83-.79,2.39,2.39,0,0,0-1.87.77,3.7,3.7,0,0,0,0,4.26,2.68,2.68,0,0,0,3.73,0A3.13,3.13,0,0,0,538.26,136.69Z"/><path class="cls-4" d="M560.24,141.72h-2.82l0-1.44a3.87,3.87,0,0,1-1.42,1.4,4.35,4.35,0,0,1-2,.44,4,4,0,0,1-3.22-1.48,7,7,0,0,1,0-7.88,4.13,4.13,0,0,1,3.34-1.42,3.66,3.66,0,0,1,1.92.5,5.09,5.09,0,0,1,1.55,1.58c0-.24-.05-.51-.07-.81s0-.63,0-1v-5.71h2.76Zm-2.66-5a3.14,3.14,0,0,0-.67-2.13,2.31,2.31,0,0,0-1.84-.79,2.36,2.36,0,0,0-1.86.77,3.7,3.7,0,0,0,0,4.26,2.31,2.31,0,0,0,1.85.76,2.37,2.37,0,0,0,1.87-.75A3.13,3.13,0,0,0,557.58,136.69Z"/><path class="cls-4" d="M572.88,137.43h-7.53a2.65,2.65,0,0,0,.79,1.62,2.42,2.42,0,0,0,1.66.54,3,3,0,0,0,1.38-.31,2.66,2.66,0,0,0,1-.93l2.35,1.17a5.38,5.38,0,0,1-2,2,5.64,5.64,0,0,1-2.77.64,5.13,5.13,0,0,1-3.85-1.45,5.94,5.94,0,0,1,.07-7.79,5.1,5.1,0,0,1,3.8-1.52,5,5,0,0,1,3.78,1.43,5.3,5.3,0,0,1,1.39,3.88c0,.09,0,.19,0,.29S572.9,137.22,572.88,137.43ZM570,135.67a2.14,2.14,0,0,0-.69-1.43,2.27,2.27,0,0,0-1.55-.49,2.36,2.36,0,0,0-1.57.49,2.28,2.28,0,0,0-.75,1.43Z"/><path class="cls-4" d="M584.33,134.27a4.55,4.55,0,0,1,1.26-2.18,3,3,0,0,1,2-.73,6.33,6.33,0,0,1,.91.1l.18,0-.44,3.13a3.32,3.32,0,0,0-.66-.2,3.86,3.86,0,0,0-.7-.07A2.41,2.41,0,0,0,585,135a3.51,3.51,0,0,0-.58,2.28v4.41h-2.91v-10h2.87Z"/><path class="cls-4" d="M599.83,137.43H592.3a2.59,2.59,0,0,0,.78,1.62,2.45,2.45,0,0,0,1.67.54,2.92,2.92,0,0,0,1.37-.31,2.61,2.61,0,0,0,1-.93l2.35,1.17a5.53,5.53,0,0,1-2,2,5.64,5.64,0,0,1-2.77.64,5.16,5.16,0,0,1-3.86-1.45,5.94,5.94,0,0,1,.07-7.79,5.11,5.11,0,0,1,3.81-1.52,5.05,5.05,0,0,1,3.78,1.43,5.34,5.34,0,0,1,1.39,3.88c0,.09,0,.19,0,.29S599.85,137.22,599.83,137.43Zm-2.89-1.76a2.18,2.18,0,0,0-.68-1.43,2.29,2.29,0,0,0-1.55-.49,2.34,2.34,0,0,0-1.57.49,2.28,2.28,0,0,0-.75,1.43Z"/><path class="cls-4" d="M612.06,141.56a8.82,8.82,0,0,1-.19,2.23,2.65,2.65,0,0,1-.65,1.11,3.84,3.84,0,0,1-1.68,1,7.78,7.78,0,0,1-2.48.34,7.17,7.17,0,0,1-3.71-.78,2.86,2.86,0,0,1-1.38-2.36h3.2a1.11,1.11,0,0,0,.53.86,2.73,2.73,0,0,0,1.36.28,2.14,2.14,0,0,0,1.71-.62,3.14,3.14,0,0,0,.53-2v-1.43a3.87,3.87,0,0,1-1.41,1.38A4,4,0,0,1,606,142a4.1,4.1,0,0,1-3.3-1.45,6.82,6.82,0,0,1,0-7.8,4.14,4.14,0,0,1,3.33-1.41,3.67,3.67,0,0,1,1.94.51,4,4,0,0,1,1.43,1.48V131.7h2.74Zm-2.64-4.87a3.05,3.05,0,0,0-.67-2.09,2.34,2.34,0,0,0-1.84-.77,2.39,2.39,0,0,0-1.87.76,3.07,3.07,0,0,0-.68,2.1,3,3,0,0,0,.67,2.09,2.71,2.71,0,0,0,3.72,0A3,3,0,0,0,609.42,136.69Z"/><path class="cls-4" d="M614.79,127.58a1.71,1.71,0,0,1,1.69-1.7,1.66,1.66,0,0,1,1.21.5,1.67,1.67,0,0,1,0,2.4,1.63,1.63,0,0,1-1.21.51,1.58,1.58,0,0,1-1.19-.52A1.61,1.61,0,0,1,614.79,127.58Zm.25,14.14v-10h2.9v10Z"/><path class="cls-4" d="M619.92,140l2.23-1.15a1.42,1.42,0,0,0,.61.92,2.11,2.11,0,0,0,1.21.34,2.05,2.05,0,0,0,1.13-.27.81.81,0,0,0,.41-.72c0-.48-.49-.88-1.46-1.21l-.71-.26a7.1,7.1,0,0,1-2.45-1.34,2.24,2.24,0,0,1-.68-1.66,2.88,2.88,0,0,1,1.16-2.38,4.75,4.75,0,0,1,3-.91,4.82,4.82,0,0,1,2.34.54,3.26,3.26,0,0,1,1.43,1.53l-2.13,1.07a1.57,1.57,0,0,0-.61-.86,1.87,1.87,0,0,0-1.07-.29,1.8,1.8,0,0,0-1,.27.79.79,0,0,0-.4.69c0,.5.66,1,2,1.39l.36.11a5.72,5.72,0,0,1,2.34,1.27,2.54,2.54,0,0,1,.7,1.83,2.84,2.84,0,0,1-1.16,2.37,5,5,0,0,1-3.12.88,5.58,5.58,0,0,1-2.65-.58A2.87,2.87,0,0,1,619.92,140Z"/><path class="cls-4" d="M630.8,141.72V134h-1.4V131.7h1.4v-3.33h2.91v3.33h1.4V134h-1.4v7.74Z"/><path class="cls-4" d="M639.72,134.27a4.55,4.55,0,0,1,1.26-2.18,3,3,0,0,1,2-.73,6.19,6.19,0,0,1,.91.1l.18,0-.44,3.13a3,3,0,0,0-.66-.2,3.86,3.86,0,0,0-.7-.07,2.41,2.41,0,0,0-1.91.68,3.57,3.57,0,0,0-.58,2.28v4.41h-2.91v-10h2.87Z"/><path class="cls-4" d="M656,136.74a5.17,5.17,0,0,1-1.58,3.85,6,6,0,0,1-8,0,5.46,5.46,0,0,1,0-7.69,6,6,0,0,1,8,0A5.15,5.15,0,0,1,656,136.74Zm-3,0a2.69,2.69,0,0,0-.71-1.95,2.89,2.89,0,0,0-3.83,0,3.07,3.07,0,0,0,0,3.93,2.51,2.51,0,0,0,1.91.73,2.55,2.55,0,0,0,1.91-.73A2.7,2.7,0,0,0,653,136.72Z"/><path class="cls-4" d="M657.19,140l2.24-1.15a1.41,1.41,0,0,0,.6.92,2.14,2.14,0,0,0,1.22.34,2,2,0,0,0,1.12-.27.81.81,0,0,0,.41-.72c0-.48-.48-.88-1.45-1.21l-.72-.26a7.13,7.13,0,0,1-2.44-1.34,2.2,2.2,0,0,1-.68-1.66,2.87,2.87,0,0,1,1.15-2.38,5.45,5.45,0,0,1,5.38-.37,3.23,3.23,0,0,1,1.44,1.53l-2.14,1.07a1.51,1.51,0,0,0-.6-.86,1.9,1.9,0,0,0-1.07-.29,1.86,1.86,0,0,0-1,.27.8.8,0,0,0-.39.69c0,.5.66,1,2,1.39l.36.11a5.86,5.86,0,0,1,2.34,1.27,2.54,2.54,0,0,1,.69,1.83,2.83,2.83,0,0,1-1.15,2.37,5,5,0,0,1-3.12.88,5.55,5.55,0,0,1-2.65-.58A2.93,2.93,0,0,1,657.19,140Z"/><path class="cls-4" d="M686.45,130.65a7,7,0,0,0-2-1.27,5.86,5.86,0,0,0-2.18-.4,5.12,5.12,0,0,0-3.81,1.43,6,6,0,0,0-.11,7.59,4.75,4.75,0,0,0,3.6,1.38,6.53,6.53,0,0,0,2.41-.43,6.75,6.75,0,0,0,2.07-1.31l0,3.28a8.05,8.05,0,0,1-2.15.9,9,9,0,0,1-2.35.3A8.08,8.08,0,0,1,676,139.9a8.09,8.09,0,0,1,0-11.28A8.19,8.19,0,0,1,682,126.4a10.71,10.71,0,0,1,2.35.26,10.15,10.15,0,0,1,2.24.79Z"/><path class="cls-4" d="M687.64,141.72l5.69-15H697l5.77,15h-3.63l-1.22-3.18h-5.79l-1,3.18Zm9.53-5.69-1.68-4.83a6.68,6.68,0,0,1-.18-.74c-.08-.35-.16-.77-.24-1.28-.09.49-.17.92-.26,1.31s-.14.64-.18.77L693,136Z"/><path class="cls-4" d="M703.38,139.82l1.78-2a2.7,2.7,0,0,0,1.08,1.3,3,3,0,0,0,1.67.48,2.7,2.7,0,0,0,1.78-.54,1.73,1.73,0,0,0,.66-1.43c0-.7-.73-1.41-2.18-2.11l-1.11-.55a8.24,8.24,0,0,1-2.72-2,3.66,3.66,0,0,1-.76-2.33,3.75,3.75,0,0,1,1.47-3,5.85,5.85,0,0,1,3.8-1.19,5.33,5.33,0,0,1,2.35.48,4.7,4.7,0,0,1,1.74,1.49l-1.89,1.8a2.27,2.27,0,0,0-.89-1,2.6,2.6,0,0,0-1.35-.32,2.39,2.39,0,0,0-1.53.47,1.52,1.52,0,0,0-.58,1.23c0,.79.77,1.51,2.31,2.17l.7.31a7.76,7.76,0,0,1,2.82,2,3.77,3.77,0,0,1,.91,2.49,4.27,4.27,0,0,1-1.43,3.36,5.71,5.71,0,0,1-3.86,1.25,6.76,6.76,0,0,1-2.94-.59A4,4,0,0,1,703.38,139.82Z"/><polygon class="cls-2" points="826.38 110.45 1125.72 110.45 1125.72 295.83 873.72 295.83 858.12 331.73 844.29 295.83 826.38 295.83 826.38 110.45"/><path class="cls-5" d="M826.38,110.45c0,1.79-.09,71.44-.23,185.38v.23h18.14l-.21-.15,13.81,35.9.22.56.24-.55L874,295.94l-.24.15,227.89,0H1126v-.3c0-66.07,0-128.77,0-185.38v-.27h-.27l-299.34.27,299.34.26-.26-.26c0,56.61,0,119.31,0,185.38l.29-.29h-24.11l-227.89,0h-.17l-.06.15c-5.43,12.49-10.71,24.65-15.59,35.9h.45l-13.84-35.89-.06-.15H826.38l.22.22C826.46,181.89,826.38,112.24,826.38,110.45Z"/><path class="cls-5" d="M826.53,128.54c0,.22,66.88.41,149.37.41s149.37-.19,149.37-.41-66.86-.41-149.37-.41S826.53,128.31,826.53,128.54Z"/><path class="cls-5" d="M1109.81,120.35a2.46,2.46,0,1,0,2.46-2.46A2.46,2.46,0,0,0,1109.81,120.35Z"/><path class="cls-5" d="M1100.94,120.35a2.45,2.45,0,1,0,2.45-2.46A2.45,2.45,0,0,0,1100.94,120.35Z"/><path class="cls-5" d="M1092.06,120.35a2.45,2.45,0,1,0,2.45-2.46A2.45,2.45,0,0,0,1092.06,120.35Z"/><path class="cls-5" d="M1093.07,160l9,3.54v1.73l-9,3.54v-1.66l7.11-2.75-7.11-2.74Z"/><path class="cls-5" d="M1092.29,173.46h-1.75l-6.6-18.87h1.74Z"/><path class="cls-5" d="M1083.33,160v1.66l-7.13,2.74,7.13,2.75v1.66l-9-3.54v-1.73Z"/><path class="cls-5" d="M1070.73,171.58a1.34,1.34,0,0,1-1.32-1.39,1.32,1.32,0,0,1,1.32-1.36,1.34,1.34,0,0,1,1.36,1.36A1.36,1.36,0,0,1,1070.73,171.58Z"/><path class="cls-5" d="M1066.18,171.58a1.34,1.34,0,0,1-1.32-1.39,1.32,1.32,0,0,1,1.32-1.36,1.34,1.34,0,0,1,1.36,1.36A1.36,1.36,0,0,1,1066.18,171.58Z"/><path class="cls-5" d="M1061.63,171.58a1.34,1.34,0,0,1-1.32-1.39,1.32,1.32,0,0,1,1.32-1.36,1.34,1.34,0,0,1,1.37,1.36A1.37,1.37,0,0,1,1061.63,171.58Z"/><path class="cls-4" d="M904.05,188.17c0,.23,44.25.41,98.82.41s98.84-.18,98.84-.41-44.24-.41-98.84-.41S904.05,188,904.05,188.17Z"/><path class="cls-5" d="M871.77,188.76c0,.22,4.25.4,9.49.4s9.5-.18,9.5-.4-4.25-.41-9.5-.41S871.77,188.53,871.77,188.76Z"/><path class="cls-5" d="M844,188.76c0,.22,4.64.4,10.37.4s10.37-.18,10.37-.4-4.64-.41-10.37-.41S844,188.53,844,188.76Z"/><path class="cls-4" d="M975.84,204.83c0,.22,28.13.4,62.82.4s62.82-.18,62.82-.4-28.12-.41-62.82-.41S975.84,204.6,975.84,204.83Z"/><path class="cls-4" d="M976.74,267c0,.22,28.13.41,62.82.41s62.82-.19,62.82-.41-28.12-.41-62.82-.41S976.74,266.74,976.74,267Z"/><path class="cls-5" d="M930.2,204.83c0,.22,7.65.4,17.09.4s17.1-.18,17.1-.4-7.66-.41-17.1-.41S930.2,204.6,930.2,204.83Z"/><path class="cls-5" d="M930.56,267c0,.22,7.65.41,17.09.41s17.09-.19,17.09-.41-7.65-.41-17.09-.41S930.56,266.74,930.56,267Z"/><path class="cls-9" d="M1093.23,213.3c0,.22,1.9.41,4.24.41s4.24-.19,4.24-.41-1.9-.41-4.24-.41S1093.23,213.07,1093.23,213.3Z"/><path class="cls-5" d="M1064,213.47c0,.23,4.12.41,9.2.41s9.2-.18,9.2-.41-4.12-.4-9.2-.4S1064,213.25,1064,213.47Z"/><path class="cls-5" d="M1045.32,213.47c0,.23,3.53.41,7.89.41s7.89-.18,7.89-.41-3.54-.4-7.89-.4S1045.32,213.25,1045.32,213.47Z"/><path class="cls-5" d="M1021.65,213.47c0,.23,3.6.41,8,.41s8-.18,8-.41-3.6-.4-8-.4S1021.65,213.25,1021.65,213.47Z"/><path class="cls-5" d="M1000.91,213.47c0,.23,3.27.41,7.3.41s7.31-.18,7.31-.41-3.27-.4-7.31-.4S1000.91,213.25,1000.91,213.47Z"/><path class="cls-5" d="M932.25,213.47c0,.23,14.39.41,32.13.41s32.14-.18,32.14-.41-14.38-.4-32.14-.4S932.25,213.25,932.25,213.47Z"/><path class="cls-9" d="M1094.4,224.11c0,.22,1.64.41,3.65.41s3.66-.19,3.66-.41-1.64-.41-3.66-.41S1094.4,223.88,1094.4,224.11Z"/><path class="cls-9" d="M1094.11,235.21c0,.23,1.7.41,3.8.41s3.8-.18,3.8-.41-1.7-.41-3.8-.41S1094.11,235,1094.11,235.21Z"/><path class="cls-9" d="M1094.11,247.78c0,.22,1.7.4,3.8.4s3.8-.18,3.8-.4-1.7-.41-3.8-.41S1094.11,247.55,1094.11,247.78Z"/><path class="cls-5" d="M1024.87,247.19c0,.23,12.68.41,28.33.41s28.35-.18,28.35-.41-12.69-.41-28.35-.41S1024.87,247,1024.87,247.19Z"/><path class="cls-5" d="M1029.83,235.21c0,.23,12.1.41,27,.41s27-.18,27-.41-12.09-.41-27-.41S1029.83,235,1029.83,235.21Z"/><path class="cls-5" d="M899.23,223.52c0,.23,41.21.41,92,.41s92-.18,92-.41-41.2-.4-92-.4S899.23,223.3,899.23,223.52Z"/><path class="cls-5" d="M1152.44,583.37c0,.2-258,.36-576.19.36S0,583.57,0,583.37,258,583,576.25,583,1152.44,583.17,1152.44,583.37Z"/><path class="cls-10" d="M859.26,468.71l-27.55-27.24,49.14-84.16a47.45,47.45,0,0,1,18.86-13.12L917,337.61l43-7.89,30.55,12A18.27,18.27,0,0,1,1002,360.9l-8,67.26-4.7,87.58-111-19.25,11.17-32.39-.38-50.51Z"/><path class="cls-5" d="M888.49,462c-.26,0-.33-17.5-.15-39.08s.53-39.07.79-39.07.32,17.5.15,39.08S888.75,462,888.49,462Z"/><path class="cls-10" d="M892.55,474.78l67.07-27a15.3,15.3,0,0,0,9.56-13l4.91-64.3s-.58-27.35,16.5-28.68l9.72,3.83c12.56,6.67,15.67,24.95,14,39.07-2.43,20.06-3.44,48.45-6.16,65.86-2.22,14.24-10.78,25.51-24.32,30.44l-82.61,17.89Z"/><path class="cls-5" d="M973.13,380.24a8.25,8.25,0,0,0-.21,1.47c-.11,1.05-.25,2.46-.43,4.24-.35,3.77-.83,9.07-1.42,15.59s-1.24,14.45-2,23.14q-.27,3.27-.56,6.69a50.33,50.33,0,0,1-.86,6.88,11.4,11.4,0,0,1-3.33,6,22.58,22.58,0,0,1-6.19,3.85c-18.5,8-35.54,14.62-47.91,19.25l-14.69,5.41-4,1.47a9.62,9.62,0,0,0-1.37.57,9.26,9.26,0,0,0,1.43-.4l4-1.31c3.51-1.16,8.57-2.91,14.79-5.15,12.45-4.48,29.52-11,48.07-19a23.43,23.43,0,0,0,6.43-4,12.29,12.29,0,0,0,3.58-6.47,51.11,51.11,0,0,0,.85-7q.27-3.42.53-6.69c.68-8.7,1.29-16.54,1.8-23.16s.86-11.84,1.13-15.62c.11-1.78.2-3.19.27-4.25A9.19,9.19,0,0,0,973.13,380.24Z"/><path class="cls-5" d="M1011.55,415.2a3.34,3.34,0,0,0-.13.86c-.06.67-.13,1.49-.22,2.48-.2,2.29-.47,5.38-.8,9.13s-.83,8.42-1.5,13.49a128.11,128.11,0,0,1-3,16.29,24.18,24.18,0,0,1-3.27,7.76,45,45,0,0,1-5,6.16,42.72,42.72,0,0,1-10.73,8.05C980,483,975,483,975.08,483.28a3.38,3.38,0,0,0,.87,0,19.46,19.46,0,0,0,2.48-.32,33.13,33.13,0,0,0,8.72-2.95,42.45,42.45,0,0,0,11-8,44.77,44.77,0,0,0,5.15-6.25,25,25,0,0,0,3.41-8,121.32,121.32,0,0,0,3-16.43c.63-5.08,1-9.68,1.32-13.54s.43-7,.51-9.16c0-1,0-1.82.05-2.49A2.68,2.68,0,0,0,1011.55,415.2Z"/><path class="cls-5" d="M982.87,460.19a9.56,9.56,0,0,0-1.22-3.57A23.1,23.1,0,0,0,968.05,445a9.88,9.88,0,0,0-3.73-.65c0,.15,1.38.43,3.52,1.25a26.06,26.06,0,0,1,13.25,11.32C982.23,458.9,982.73,460.24,982.87,460.19Z"/><g class="cls-11"><path d="M911.83,467.12C919,463.07,926,460,933.51,456.55s14.85-7.79,19.76-14.4c9.25-12.48,8.2-30.48,17.67-42.79q-.93,12.42-1.85,24.83c-.57,7.59.59,15.09-4.3,20.25-4.11,4.34-12.14,7.67-17.82,9.55-11.42,3.77-23.72,9.36-35.14,13.13"/></g><polygon class="cls-12" points="889.12 388.54 883.31 424.32 888.81 414.19 889.12 388.54"/><path class="cls-4" d="M975.15,366.46a6.41,6.41,0,0,0,1.55.12l4.23.1c3.57.09,8.5.27,13.94.66s10.33.92,13.88,1.34l4.2.49a6.31,6.31,0,0,0,1.56.11,6.5,6.5,0,0,0-1.51-.38c-1-.2-2.41-.45-4.18-.72-3.54-.55-8.45-1.16-13.9-1.55s-10.4-.49-14-.45c-1.79,0-3.24.06-4.24.12A6.11,6.11,0,0,0,975.15,366.46Z"/><path class="cls-4" d="M973.24,400.71c0,.19,8.78,1.08,19.64,2s19.68,1.46,19.69,1.27-8.77-1.09-19.63-2S973.26,400.51,973.24,400.71Z"/><path class="cls-4" d="M970,436.71a7.24,7.24,0,0,0,1.39.79c.91.48,2.27,1.11,4,1.83a82.22,82.22,0,0,0,28,6.26c1.84.08,3.33.09,4.36,0a6.84,6.84,0,0,0,1.6-.12,6.88,6.88,0,0,0-1.59-.15c-1-.05-2.51-.13-4.34-.27a98.31,98.31,0,0,1-27.83-6.23c-1.71-.65-3.09-1.21-4-1.61A6.56,6.56,0,0,0,970,436.71Z"/><path class="cls-4" d="M946.16,455.17c-.11.2,3.5,1.8,6.65,5.34s4.42,7.25,4.63,7.16a6.58,6.58,0,0,0-.74-2.45,19.54,19.54,0,0,0-8.18-9.06A6.81,6.81,0,0,0,946.16,455.17Z"/><path class="cls-4" d="M921.9,478.88c.18,0-.6-3.38-2.63-7.06s-4.4-6.15-4.53-6,1.94,2.75,3.91,6.36S921.7,479,921.9,478.88Z"/><path class="cls-4" d="M960.13,346.32c0,.19,4.21,1.12,9.49,2.07s9.57,1.57,9.61,1.38-4.21-1.13-9.49-2.08S960.17,346.12,960.13,346.32Z"/><path class="cls-4" d="M895.93,349.24c0,.19,5.91-.35,13.15-1.2s13.09-1.72,13.07-1.91-5.92.34-13.16,1.2S895.9,349,895.93,349.24Z"/><path class="cls-4" d="M890.44,379.1a4.22,4.22,0,0,0,.84,0l2.41,0h8.85c7.47,0,17.79.06,29.18.35s21.71.76,29.17,1.15l8.84.47,2.4.1a4,4,0,0,0,.85,0,4.14,4.14,0,0,0-.84-.13l-2.39-.24c-2.08-.19-5.1-.43-8.83-.69-7.45-.52-17.77-1.07-29.18-1.36s-21.73-.28-29.21-.14c-3.73.06-6.76.15-8.85.24l-2.4.11A3.75,3.75,0,0,0,890.44,379.1Z"/><path class="cls-4" d="M889.66,416.92c0,.19,17.58,1.51,39.29,2.94s39.34,2.43,39.35,2.24-17.58-1.52-39.3-3S889.67,416.72,889.66,416.92Z"/><path class="cls-4" d="M891.53,450.23a6.74,6.74,0,0,0,1.48.64c1,.36,2.38.85,4.13,1.43,3.52,1.14,8.42,2.58,13.91,3.91s10.51,2.26,14.17,2.83c1.82.29,3.3.5,4.33.61a6.72,6.72,0,0,0,1.61.11,7,7,0,0,0-1.56-.38l-4.3-.83c-3.62-.7-8.61-1.72-14.08-3s-10.38-2.67-13.93-3.7l-4.2-1.21A7.76,7.76,0,0,0,891.53,450.23Z"/><path class="cls-4" d="M863.38,389.84c0,.19,5.67,1.84,12.78,3.67s12.91,3.18,13,3-5.68-1.83-12.78-3.67S863.43,389.65,863.38,389.84Z"/><path class="cls-4" d="M876.8,364.28c0,.19,2.5.81,5.66,1.38s5.76.87,5.79.68-2.5-.81-5.66-1.38S876.84,364.09,876.8,364.28Z"/><path class="cls-5" d="M972.93,372.21c.14,0,.35-2.27,1.6-5.71a28.8,28.8,0,0,1,20.33-18.27c3.55-.88,5.86-.84,5.85-1a6.14,6.14,0,0,0-1.61-.06,25.33,25.33,0,0,0-4.36.55,27.86,27.86,0,0,0-20.69,18.6,24.24,24.24,0,0,0-1,4.27A5.54,5.54,0,0,0,972.93,372.21Z"/><path class="cls-5" d="M893,354c-.19,0-1.25,5.57-2.36,12.51S888.8,379.07,889,379.1s1.25-5.57,2.37-12.51S893.21,354,893,354Z"/><path d="M818.26,555.63s-51.55,14.26-53.62,15c-3.11,1.1-2.58,12.47,2.25,12.3,2.28-.09,39.6,1.39,44.31,1.09s18.94-5.9,18.94-5.9Z"/><path class="cls-5" d="M796.78,575.3c-.25,0-.6-2.69-2.27-5.54s-3.8-4.54-3.64-4.74,2.65,1.25,4.39,4.31S797,575.32,796.78,575.3Z"/><path class="cls-5" d="M802.16,572.86c-.25,0-.78-2.39-2.15-5.09s-3-4.57-2.81-4.75,2.16,1.52,3.58,4.37S802.38,572.85,802.16,572.86Z"/><path class="cls-5" d="M807.2,571.51c-.26,0-.06-2.59-1.2-5.45s-3-4.63-2.81-4.82,2.41,1.4,3.61,4.51S807.41,571.58,807.2,571.51Z"/><path class="cls-5" d="M788.86,575.85c-.25,0,0-2.23-1-4.65s-2.69-3.84-2.53-4,2.24,1,3.33,3.71S789.07,575.94,788.86,575.85Z"/><path class="cls-5" d="M824.83,578.23a11.11,11.11,0,0,1-2,.94A44.21,44.21,0,0,1,817.1,581a82.08,82.08,0,0,1-19.68,1.86c-7.72-.08-14.69-.44-19.73-.64l-6-.31a10.65,10.65,0,0,1-2.18-.24,10.81,10.81,0,0,1,2.19-.1l6,0,19.73.39a92,92,0,0,0,19.54-1.6C821.9,579.34,824.77,578.07,824.83,578.23Z"/><path d="M879.27,543.66s48.79,31.94,50.54,33.26c2.62,2-.39,11.44-4.94,9.8-2.15-.77-43.09-12.16-47.49-13.87s-16.25-11.37-16.25-11.37Z"/><path class="cls-5" d="M893.76,568.92c-.21,0,.65-2.86,3.27-5.22s5.47-3,5.49-2.77-2.5,1.17-4.91,3.41S894,569,893.76,568.92Z"/><path class="cls-5" d="M889.38,565c-.21-.08.74-2.53,3-4.8s4.66-3.28,4.74-3.07-2,1.5-4.12,3.67S889.61,565.09,889.38,565Z"/><path class="cls-5" d="M885,562.15c-.22,0,0-2.79,2.13-5.37s4.77-3.41,4.81-3.19-2.22,1.33-4.14,3.74S885.24,562.21,885,562.15Z"/><path class="cls-5" d="M887.88,556.08c-.13-.06.54-1.38,1.11-3.65a21.68,21.68,0,0,0,.57-4,17.73,17.73,0,0,0-.06-2.4,2.14,2.14,0,0,0-.26-1,.51.51,0,0,0-.67-.16c-.55.23-.84,1.17-1.11,1.92A12.28,12.28,0,0,0,887,549a17.08,17.08,0,0,0,.13,4.06c.34,2.32.8,3.72.66,3.77a10.4,10.4,0,0,1-1.26-3.66,15.36,15.36,0,0,1-.32-4.24,11.43,11.43,0,0,1,.47-2.5,10,10,0,0,1,.47-1.28,2.35,2.35,0,0,1,1.1-1.18,1.37,1.37,0,0,1,1.71.46,2.92,2.92,0,0,1,.41,1.45,17.51,17.51,0,0,1,0,2.51,17.71,17.71,0,0,1-.78,4.17A9.15,9.15,0,0,1,887.88,556.08Z"/><path class="cls-5" d="M888,555.56c-.06.13-1.21-.45-3.17-.93a17.61,17.61,0,0,0-3.5-.48,7.84,7.84,0,0,0-2,.13,1.35,1.35,0,0,0-1.17,1.14A1.76,1.76,0,0,0,879,557a4,4,0,0,0,1.81.6,9.08,9.08,0,0,0,3.43-.34,23.14,23.14,0,0,1,3.18-.94,8.86,8.86,0,0,1-3,1.52,8.73,8.73,0,0,1-3.69.55,4.6,4.6,0,0,1-2.2-.69,2.58,2.58,0,0,1-1.22-2.32,2.2,2.2,0,0,1,1.83-1.89,8.24,8.24,0,0,1,2.24-.1A15,15,0,0,1,885,554,7.43,7.43,0,0,1,888,555.56Z"/><path class="cls-5" d="M901.14,571.85c-.23,0-.16-2.45,1.72-4.67s4.27-2.75,4.29-2.52-2,1-3.63,3.07S901.39,571.9,901.14,571.85Z"/><path class="cls-5" d="M866.15,563.2a18.52,18.52,0,0,1,2.14,1.47,60.42,60.42,0,0,0,6,3.68,79.29,79.29,0,0,0,9.56,4.26c3.69,1.37,7.83,2.67,12.22,3.94,8.77,2.53,16.72,4.84,22.45,6.57l6.78,2.08a16.46,16.46,0,0,1,2.45.87,14.59,14.59,0,0,1-2.54-.55l-6.86-1.82c-5.77-1.57-13.74-3.79-22.53-6.32-4.39-1.27-8.55-2.6-12.25-4a71.35,71.35,0,0,1-9.57-4.46,47.74,47.74,0,0,1-5.92-3.95A12.86,12.86,0,0,1,866.15,563.2Z"/><path class="cls-5" d="M777.86,463.78s-14.63,5.23-14.69,21.64c-.12,31.43,63.51,66.08,63.51,66.08l84.67-56.11,5.31-2.14S802.36,450.31,777.86,463.78Z"/><path class="cls-4" d="M868.46,523.73a15.75,15.75,0,0,1-2.21-1.49c-1.38-1-3.36-2.5-5.79-4.38-4.85-3.74-11.44-9.06-18.54-15.15s-13.34-11.81-17.78-16c-2.22-2.12-4-3.85-5.2-5.07a16.13,16.13,0,0,1-1.81-1.95,16.38,16.38,0,0,1,2,1.71l5.38,4.86c4.54,4.11,10.84,9.74,17.92,15.83s13.62,11.46,18.36,15.32l5.62,4.59A15.49,15.49,0,0,1,868.46,523.73Z"/><path class="cls-4" d="M801.77,475.53c0-.21,3.74-.58,8.16.74s7.39,3.65,7.25,3.81-3.23-1.74-7.5-3S801.76,475.79,801.77,475.53Z"/><path class="cls-4" d="M809.06,470.58c.08-.21,2.79,1,5,3.77s2.85,5.67,2.63,5.7-1.17-2.55-3.3-5.16S808.92,470.8,809.06,470.58Z"/><path class="cls-5" d="M773.21,570.1c-.05-.1,1-.3,2.18.67a7.94,7.94,0,0,1,2.45,4.91,9.71,9.71,0,0,1-.77,5.42c-.6,1.29-1.26,1.89-1.34,1.83a15.63,15.63,0,0,1,.77-2.06,11,11,0,0,0,.48-5.07,8.52,8.52,0,0,0-2-4.58C774.08,570.28,773.19,570.24,773.21,570.1Z"/><path class="cls-3" d="M783.92,419.13,808,484a9.35,9.35,0,0,0,8.89,6.09l132.59-1.74V478.3l-49.2,1.8L879.4,415.32a5.3,5.3,0,0,0-5-3.66l-85.53.25A5.28,5.28,0,0,0,783.92,419.13Z"/><path class="cls-5" d="M783.92,419.13l-.06-.2a5.27,5.27,0,0,1-.16-.6,5,5,0,0,1,0-2.44,5.23,5.23,0,0,1,4.74-3.9c.91,0,1.9,0,2.94,0l35.68,0,25-.05,14,0h7.38a5.81,5.81,0,0,1,3.53.77,5.23,5.23,0,0,1,2.2,2.89l20.82,64.66,0,.15h.16l49.2-1.8-.22-.21v10.08l.21-.22-83.38,1.12-36.25.5-8.35.11-4.07.06a9.59,9.59,0,0,1-3.85-.56,9.21,9.21,0,0,1-5.31-5.12q-1.34-3.54-2.59-6.91c-6.72-18-12.15-32.58-15.91-42.65-1.87-5-3.33-8.9-4.33-11.56s-1.53-4-1.53-4,.48,1.4,1.45,4.05,2.42,6.56,4.26,11.59c3.73,10.08,9.11,24.65,15.78,42.69l2.58,6.93a9.5,9.5,0,0,0,5.49,5.3,9.89,9.89,0,0,0,4,.59l4.06,0,8.35-.1,36.25-.46,83.39-1.08h.21V478.08h-.22l-49.21,1.8.21.14C893,456.75,885.93,435,879.61,415.39a5.53,5.53,0,0,0-2.35-3.08,6.2,6.2,0,0,0-3.72-.82l-7.38,0-14,.06-25,.09-35.68.17c-1,0-2,0-2.95,0a5.26,5.26,0,0,0-2.46.79,5.35,5.35,0,0,0-2.34,3.21,5,5,0,0,0,0,2.46A5.27,5.27,0,0,0,783.92,419.13Z"/><path class="cls-6" d="M842.72,443.67c-1.72-1.16-4.9-.7-6.45.69a5.2,5.2,0,0,0-1.26,5.71,5.64,5.64,0,0,0,4.84,3.38,5.09,5.09,0,0,0,5.12-3.38c.61-2.12-.07-5.28-2.25-6.4"/><path class="cls-5" d="M812.4,555s119.5-76.54,124.78-79.55c4.48-2.55,16.49-9.94,28.33-6.68s22.45,13.88,27.76,29.4c3,8.86,4.46,24,5.13,35.32a52.4,52.4,0,0,1-12.26,37.36c-4,4.68-9,8.75-14.92,10.59-1.24.39-2.54.72-3.86,1-22.62,4.91-45.87-5.25-58.58-24.59L906,553.64S827.73,582.39,826.51,582Z"/><path class="cls-4" d="M931,479.72a1.54,1.54,0,0,0,.3-.17l.83-.57c.73-.51,1.81-1.26,3.23-2.17a63.82,63.82,0,0,1,12.69-6.45,34.24,34.24,0,0,1,9.56-2,27.44,27.44,0,0,1,11,1.79,35.57,35.57,0,0,1,10.57,6.41,49.66,49.66,0,0,1,4.69,4.61,34.12,34.12,0,0,1,3.88,5.52A56.36,56.36,0,0,1,992.9,499c1.13,4.17,2,8.29,2.89,12.18a110.37,110.37,0,0,1,2.75,21,75.16,75.16,0,0,1-1.09,14.21c-.26,1.67-.55,2.95-.73,3.82-.08.4-.15.73-.2,1a1.3,1.3,0,0,0,0,.35,1.4,1.4,0,0,0,.11-.33l.27-1c.22-.86.56-2.13.87-3.8A70.86,70.86,0,0,0,999,532.12,108,108,0,0,0,996.43,511c-.84-3.92-1.72-8-2.85-12.23a57.09,57.09,0,0,0-5.21-12.48,35.18,35.18,0,0,0-4-5.63,48.78,48.78,0,0,0-4.77-4.67,35.73,35.73,0,0,0-10.79-6.49,27.79,27.79,0,0,0-11.25-1.77,34,34,0,0,0-9.7,2.13,60.35,60.35,0,0,0-12.67,6.69c-1.4.95-2.46,1.74-3.16,2.28l-.8.63C931.09,479.63,931,479.71,931,479.72Z"/><path class="cls-4" d="M960.41,533.43s-.22.11-.66.29l-2,.78-7.58,2.92L922,548c-12,4.46-26.31,9.78-42.4,15.63s-33.93,12.27-53,18.72l-.34.12-.17-.33c-3-5.71-6.15-11.73-9.35-17.85l-4.76-9.1-.18-.35.33-.21,91.25-57.93,27.41-17.29,7.45-4.65,1.94-1.18c.44-.27.68-.39.68-.39s-.21.17-.63.46l-1.9,1.26L931,479.72l-27.27,17.52-91.11,58.15.15-.56c1.51,2.89,3.13,6,4.77,9.1l9.34,17.86-.52-.21c19-6.43,36.88-12.82,53-18.63l42.46-15.45,28.28-10.37,7.63-2.78,2-.7C960.17,533.49,960.41,533.43,960.41,533.43Z"/><path class="cls-5" d="M954.22,279.5a61.15,61.15,0,0,0,5.31-12.71c1.12-4.46,1.19-9.33-.71-13.52-1.11-2.44-2.86-4.59-3.73-7.13-1.21-3.51-.71-7.64-2.88-10.64-3.39-4.69-10.64-3.59-15.88-6.05-4.07-1.91-6.92-6-11.21-7.41-3.75-1.2-7.84,0-11.46,1.5s-7.15,3.52-11,4c-2.78.37-5.6,0-8.41,0s-5.78.68-7.76,2.68-2.39,5.67-.25,7.49c-4.91-.83-9.53,4.07-9.47,9s3.82,9.36,8.35,11.43,9.69,2.21,14.65,1.82c14.06-1.09,28.17-6.43,37.74-16.78"/><path class="cls-13" d="M951.19,261.92l9.57,69.57a20.89,20.89,0,0,1-18.87,23.66h0a20.91,20.91,0,0,1-22.52-18c-.72-5.24-1.32-9.6-1.43-10.14,0,0-17.94.77-21.63-16.58-1.79-8.38-4-26-5.92-41.88a33,33,0,0,1,26.36-36.23l1.68-.34C936.74,229.42,949.14,243.54,951.19,261.92Z"/><path class="cls-14" d="M917.86,326.77a41.23,41.23,0,0,0,21.39-11s-2.86,13.59-20.53,15.49Z"/><path class="cls-5" d="M898.19,283.34a2.54,2.54,0,0,0,2.9,2,2.42,2.42,0,0,0,2.11-2.75,2.53,2.53,0,0,0-2.89-2A2.42,2.42,0,0,0,898.19,283.34Z"/><path class="cls-5" d="M895.83,276.34c.37.27,2-1.5,4.65-2s4.9.42,5.13,0c.11-.17-.32-.69-1.3-1.14a7,7,0,0,0-4.18-.43,6.66,6.66,0,0,0-3.62,2C895.81,275.59,895.65,276.23,895.83,276.34Z"/><path class="cls-5" d="M923.12,279a2.54,2.54,0,0,0,2.9,2,2.42,2.42,0,0,0,2.11-2.76,2.52,2.52,0,0,0-2.89-2A2.42,2.42,0,0,0,923.12,279Z"/><path class="cls-5" d="M922.21,271.59c.37.26,2-1.5,4.65-2s4.9.42,5.13,0c.11-.17-.32-.69-1.3-1.14a6.87,6.87,0,0,0-4.18-.43,6.62,6.62,0,0,0-3.62,2C922.19,270.84,922,271.48,922.21,271.59Z"/><path class="cls-5" d="M916.47,293.36c0-.16-1.74-.11-4.5.08-.7.07-1.37.06-1.58-.38a3.57,3.57,0,0,1,.05-2.12c.32-1.78.64-3.64,1-5.6,1.33-8,2.14-14.45,1.82-14.5s-1.65,6.36-3,14.32q-.46,2.94-.89,5.62a4.07,4.07,0,0,0,.18,2.75,1.76,1.76,0,0,0,1.32.77,4.51,4.51,0,0,0,1.2-.07C914.81,293.83,916.49,293.51,916.47,293.36Z"/><path class="cls-5" d="M924.71,293.63c-.44.07.13,3-1.94,5.52s-5.23,2.86-5.17,3.27c0,.19.8.42,2.12.2a7.37,7.37,0,0,0,4.34-2.56,6.43,6.43,0,0,0,1.44-4.59C925.37,294.23,924.9,293.58,924.71,293.63Z"/><path class="cls-5" d="M919.43,261.25c.4.68,3-.2,6.22-.45s5.92.1,6.2-.63c.13-.35-.45-.95-1.61-1.45a10.83,10.83,0,0,0-9.47.83C919.71,260.24,919.24,260.93,919.43,261.25Z"/><path class="cls-5" d="M895.27,268.41c.59.51,2.31-.48,4.51-1s4.18-.41,4.48-1.13c.13-.34-.29-.89-1.22-1.3a6.7,6.7,0,0,0-7.25,1.68C895.13,267.48,895,268.16,895.27,268.41Z"/><path class="cls-13" d="M952.34,275.08c.28-.19,11.25-5.92,13.25,6.05s-10.43,11.5-10.51,11.16S952.34,275.08,952.34,275.08Z"/><path class="cls-14" d="M958,287.15s.23.11.61.21a2.09,2.09,0,0,0,1.56-.23c1.19-.67,1.92-2.86,1.62-5a6.91,6.91,0,0,0-1.08-2.89,2.44,2.44,0,0,0-1.84-1.34,1.07,1.07,0,0,0-1.13.78c-.11.36,0,.58-.05.62s-.29-.16-.28-.67a1.32,1.32,0,0,1,.35-.83,1.62,1.62,0,0,1,1.1-.5,3,3,0,0,1,2.49,1.49,7.24,7.24,0,0,1,1.28,3.22c.32,2.42-.54,4.89-2.18,5.68a2.27,2.27,0,0,1-2,0C958.05,287.43,957.94,287.18,958,287.15Z"/><path class="cls-5" d="M886.94,252.39c2.06,4.43,12.62,6.14,20.36,3.8,7.14-2.15,9.72-6.69,14.27-10.63,2.87-2.5,2.87-2.5,7.56-3,3.79-.39,6.83,3.38,9.69,5.89-1.59,9.52,2.64,18.93,6.76,27.65a4.85,4.85,0,0,0,1.93,2.47c1.63.8,3.56-.46,4.53-2,1.56-2.45,1.74-5.5,1.68-8.4a49.88,49.88,0,0,0-4-19.27,34,34,0,0,0-12.51-15A32.21,32.21,0,0,0,913.43,230a39.66,39.66,0,0,0-20.87,12.53,23.26,23.26,0,0,0-5.62,9.87"/><path class="cls-5" d="M911.29,281.33c-.1,0-.06-1-.54-2.78a11.55,11.55,0,0,0-4.24-6.16,11.27,11.27,0,0,0-10.59-1.52,11,11,0,0,0-5.15,3.89,11.06,11.06,0,0,0,0,13.13,11,11,0,0,0,5.15,3.9,11.27,11.27,0,0,0,10.59-1.53,11.54,11.54,0,0,0,4.24-6.15c.48-1.75.44-2.79.54-2.78s.06.25.06.74a8.75,8.75,0,0,1-.24,2.13,11.45,11.45,0,0,1-4.18,6.6,12,12,0,0,1-19.28-9.47,12,12,0,0,1,19.28-9.48,11.48,11.48,0,0,1,4.18,6.6,8.79,8.79,0,0,1,.24,2.13C911.35,281.07,911.33,281.33,911.29,281.33Z"/><path class="cls-5" d="M939.68,276.37c-.1,0-.06-1-.54-2.78a11.5,11.5,0,0,0-4.24-6.15,11.27,11.27,0,0,0-10.59-1.53,11,11,0,0,0-5.15,3.9,11,11,0,0,0,0,13.12,11,11,0,0,0,5.15,3.9,11.24,11.24,0,0,0,10.59-1.53,11.5,11.5,0,0,0,4.24-6.15c.48-1.75.44-2.79.54-2.78s.06.25.06.74a8.75,8.75,0,0,1-.24,2.13,11.5,11.5,0,0,1-4.18,6.61,11.93,11.93,0,0,1-16.93-2.35,12,12,0,0,1,0-14.26,11.93,11.93,0,0,1,16.93-2.35,11.5,11.5,0,0,1,4.18,6.61,8.75,8.75,0,0,1,.24,2.13C939.74,276.12,939.72,276.37,939.68,276.37Z"/><path class="cls-5" d="M916.29,276.77c-.12.24-1.64-.47-3.41.07s-2.65,2-2.88,1.83-.06-.51.34-1.11a4.24,4.24,0,0,1,2.26-1.64,4.14,4.14,0,0,1,2.79.12C916.06,276.32,916.36,276.67,916.29,276.77Z"/><path class="cls-5" d="M955.77,273.3c0,.27-3.82.43-8.53.37s-8.51-.34-8.51-.61,3.82-.43,8.53-.36S955.77,273,955.77,273.3Z"/><path class="cls-6" d="M881.35,241a3.48,3.48,0,0,0,.19,1.14,5.59,5.59,0,0,0,1.79,2.58,8,8,0,0,0,4.31,1.76,21.58,21.58,0,0,0,5.71-.3,97.39,97.39,0,0,0,10.15-2.05c1.29-.33,2.32-.63,3-.85l.81-.25a1.67,1.67,0,0,0,.28-.11l-.29.05-.83.21-3,.76c-2.58.61-6.16,1.37-10.15,2a22.06,22.06,0,0,1-5.64.32,7.87,7.87,0,0,1-4.21-1.66,5.8,5.8,0,0,1-1.82-2.45C881.4,241.38,881.39,241,881.35,241Z"/><path class="cls-6" d="M878.7,243.69a10.86,10.86,0,0,0,1,3.27A14,14,0,0,0,893.22,255a10.8,10.8,0,0,0,3.37-.65s-.32.06-.9.17a14.22,14.22,0,0,1-2.47.28A14.52,14.52,0,0,1,879,244.56C878.8,244,878.72,243.68,878.7,243.69Z"/></svg>