<svg id="Capa_2" data-name="Capa 2" xmlns="http://www.w3.org/2000/svg" viewBox="0 0 140.84 157.48"><defs><style>.cls-1{fill:#fff;}</style></defs><title>ugiland - casos de exito</title><path class="cls-1" d="M125.82,10.45H15v68.7H125.82ZM122.62,76H18.21V13.65H122.62Z"/><path class="cls-1" d="M135.18,7.37a6.29,6.29,0,0,0-6.28-6.28h-117A6.28,6.28,0,0,0,5.66,7.37V85.31H1v6.28a11,11,0,0,0,11,11h117a11,11,0,0,0,11-11V85.31h-4.68ZM8.86,7.37a3.09,3.09,0,0,1,3.08-3.08h117A3.09,3.09,0,0,1,132,7.37V85.31H80.51v1.6A3.08,3.08,0,0,1,77.44,90h-14a3.08,3.08,0,0,1-3.08-3.08v-1.6H8.86Zm127.8,81.14v3.08a7.77,7.77,0,0,1-7.76,7.76h-117a7.77,7.77,0,0,1-7.76-7.76V88.51H57.31l.17.5a1.43,1.43,0,0,1,.09.19l.09.21.06.14a7.44,7.44,0,0,0,.37.67l.06.1a2.14,2.14,0,0,0,.13.19,5.7,5.7,0,0,0,.59.71l.1.12a6.31,6.31,0,0,0,.86.72.41.41,0,0,0,.13.08l.12.08c.24.14.47.27.72.39l.35.14a5.94,5.94,0,0,0,.75.23L62,93l.21,0a7.74,7.74,0,0,0,1.17.12h14a6.3,6.3,0,0,0,1.14-.12l.23-.06.12,0c.26-.07.51-.15.76-.24l.34-.14a6.1,6.1,0,0,0,.71-.39l.14-.08.13-.08a6.15,6.15,0,0,0,.83-.7l.13-.14a6.74,6.74,0,0,0,.58-.7l.12-.19.07-.11a7.55,7.55,0,0,0,.37-.69l0-.09c0-.07.07-.15.11-.23a.71.71,0,0,1,.07-.16l.17-.5.55,0Z"/><path class="cls-1" d="M111.08,41.28l-3.76-.9a17.69,17.69,0,0,0-.83-2l2-3.29a2.16,2.16,0,0,0-.32-2.68l-4.62-4.63a2.15,2.15,0,0,0-2.68-.31l-3.3,2a19.73,19.73,0,0,0-2-.83l-.9-3.76a2.16,2.16,0,0,0-2.11-1.68H86a2.16,2.16,0,0,0-2.11,1.68L83,28.65a17.69,17.69,0,0,0-2,.83l-3.29-2a2.16,2.16,0,0,0-2.69.31l-4.62,4.62a2.18,2.18,0,0,0-.32,2.69l2,3.29a17.69,17.69,0,0,0-.83,2l-3.76.9a2.16,2.16,0,0,0-1.68,2.11v6.55a2.16,2.16,0,0,0,1.67,2.11l3.77.9a17.69,17.69,0,0,0,.83,2l-2,3.3a2.17,2.17,0,0,0,.32,2.68L75,65.56a2.17,2.17,0,0,0,2.68.32l3.3-2a17.69,17.69,0,0,0,2,.83l.89,3.76A2.18,2.18,0,0,0,86,70.12h6.55a2.16,2.16,0,0,0,2.11-1.67l.9-3.77a17.69,17.69,0,0,0,2-.83l3.3,2a2.15,2.15,0,0,0,2.67-.32l4.63-4.62a2.17,2.17,0,0,0,.32-2.68l-2-3.3a17.69,17.69,0,0,0,.83-2l3.76-.9a2.16,2.16,0,0,0,1.68-2.11V43.4A2.16,2.16,0,0,0,111.08,41.28Zm-6.43,9.94a15.94,15.94,0,0,1-1.26,3.08,1.54,1.54,0,0,0,0,1.54l2.11,3.42L101.9,62.9l-3.43-2.11a1.55,1.55,0,0,0-1.53,0A16.33,16.33,0,0,1,93.85,62a1.52,1.52,0,0,0-1.07,1.24l-.91,3.79H86.73l-.89-3.75A1.54,1.54,0,0,0,84.75,62a16.24,16.24,0,0,1-3.08-1.27,1.55,1.55,0,0,0-1.53,0L76.71,62.9l-3.64-3.64,2.11-3.43a1.55,1.55,0,0,0,0-1.53A15.7,15.7,0,0,1,74,51.21a1.52,1.52,0,0,0-1.24-1.07l-3.79-.9V44.1l3.75-.9A1.52,1.52,0,0,0,74,42.11,15.86,15.86,0,0,1,75.22,39a1.55,1.55,0,0,0,0-1.53l-2.11-3.43,3.64-3.64,3.43,2.11a1.55,1.55,0,0,0,1.53,0,16.33,16.33,0,0,1,3.09-1.27,1.51,1.51,0,0,0,1.07-1.24l.9-3.79h5.14l.9,3.75a1.55,1.55,0,0,0,1.09,1.29,15.94,15.94,0,0,1,3.08,1.26,1.54,1.54,0,0,0,1.54,0l3.42-2.1,3.64,3.63-2.11,3.43a1.52,1.52,0,0,0,0,1.53,16.06,16.06,0,0,1,1.27,3.09,1.51,1.51,0,0,0,1.24,1.07l3.79.91v5.14l-3.75.89A1.55,1.55,0,0,0,104.65,51.22Z"/><path class="cls-1" d="M89.3,35.35A11.32,11.32,0,0,0,89.3,58h0a11.32,11.32,0,1,0,0-22.63Zm0,3A8.27,8.27,0,1,1,81,46.67,8.29,8.29,0,0,1,89.3,38.4Z"/><path class="cls-1" d="M57.44,26.27a17,17,0,0,0-5-3.64A1.54,1.54,0,0,0,50.18,24V37.39l-5.11,3.44-5.24-3.46V24a1.55,1.55,0,0,0-2.22-1.4,17.25,17.25,0,0,0-4.54,28,11.94,11.94,0,0,1,3.66,8.55V76.05h3.1V59.21a15.09,15.09,0,0,0-4.62-10.8,14.14,14.14,0,0,1-.4-20c.25-.26.5-.51.77-.74l1.15-1V38.21a1.54,1.54,0,0,0,.69,1.29L44.23,44A1.56,1.56,0,0,0,46,44L52.6,39.5a1.57,1.57,0,0,0,.68-1.29V26.63l1.15,1a14.16,14.16,0,0,1,1.1,20,10.59,10.59,0,0,1-.74.76,15.08,15.08,0,0,0-4.61,10.8V76.05h3.1V59.21a11.93,11.93,0,0,1,3.66-8.56A17.27,17.27,0,0,0,57.44,26.27Z"/><path class="cls-1" d="M45,68.9a1.34,1.34,0,0,0-1.34,1.35v5.8h2.69v-5.8A1.35,1.35,0,0,0,45,68.9Z"/><path class="cls-1" d="M45,60.75a1.35,1.35,0,0,0-1.34,1.35v2a1.35,1.35,0,0,0,2.69,0v-2A1.36,1.36,0,0,0,45,60.75Z"/><path class="cls-1" d="M133.92,103a17.09,17.09,0,0,0-11.82.31c-4.49,2.08-6.34,3.7-7.87,5.63-2,2.47-8,9.41-8.29,9.7l-.61.7-.5-.79A9.52,9.52,0,0,0,96.68,114H75.3a25.85,25.85,0,0,1-13.66-3.82A80.85,80.85,0,0,0,36.94,100a28.56,28.56,0,0,0-6.21-.7c-15.28,0-25,12.7-25.43,13.31a1.58,1.58,0,0,0-.31.94v22a1.56,1.56,0,0,0,1.41,1.56l7,.7a82,82,0,0,1,24.52,6.39l21.39,9.3a35.09,35.09,0,0,0,13.86,2.86,34.6,34.6,0,0,0,12.89-2.46l17-6.82,3-.76A29,29,0,0,0,125.53,130c0-.13,5.48-12.3,7.41-16.85.25-.6.58-1.28.93-2,1.11-2.27,2.48-5.08,1.79-6.77A2.61,2.61,0,0,0,133.92,103Zm-3.79,8.88c-.3.63-.62,1.3-.94,2l-6.54,14.86a25.81,25.81,0,0,1-17.26,14.56l-3.08.77-.2.07L84.92,151a31.86,31.86,0,0,1-24.34-.36l-21.38-9.3a85.22,85.22,0,0,0-25.46-6.63l-5.61-.56V114.08l.16-.19c2-2.39,12.89-14.18,28-10.84A77.72,77.72,0,0,1,60,112.82a29,29,0,0,0,15.31,4.29H96.68a6.44,6.44,0,1,1,0,12.88H66.85a39.72,39.72,0,0,0-12.06,1.87l.49,1.49.58,1.47a36.54,36.54,0,0,1,11-1.69H96.68a9.59,9.59,0,0,0,9.59-9.58V123l.18-.2c.08-.09,7.85-8.81,10.17-11.88s5.27-5.8,11.43-5.51c1.73.08,2.75.49,3.23,1.28C132,108,131.22,109.59,130.13,111.85Z"/></svg>