<svg id="Capa_2" data-name="Capa 2" xmlns="http://www.w3.org/2000/svg" viewBox="0 0 158 158"><defs><style>.cls-1{fill:#fff;}</style></defs><title>ugiland - casos de exito</title><path class="cls-1" d="M57.07,84.55V94H13.73V84.55H57.07m3-3H10.75V97h49.3V81.56Z"/><path class="cls-1" d="M57.07,105.06v9.43H13.73v-9.43H57.07m3-3H10.75v15.39h49.3V102.08Z"/><path class="cls-1" d="M57.07,125.58v19.68H13.73V125.58H57.07m3-3H10.75v25.64h49.3V122.6Z"/><path class="cls-1" d="M144.4,115.32v9.42h-23v-9.42h23m3-3H118.46v15.38h28.92V112.34Z"/><path class="cls-1" d="M144.4,135.83v9.43h-23v-9.43h23m3-3H118.46v15.39h28.92V132.85Z"/><path class="cls-1" d="M108.24,94.8v9.43H70.15V94.8h38.09m3-3h-44v15.39h44.05V91.82Z"/><path class="cls-1" d="M108.24,115.32v9.42H70.15v-9.42h38.09m3-3h-44v15.38h44.05V112.34Z"/><path class="cls-1" d="M108.24,135.83v9.43H70.15v-9.43h38.09m3-3h-44v15.39h44.05V132.85Z"/><path class="cls-1" d="M150.84,69.63l.17-.48,6.5-1.77V54.72L151,53l-.17-.48c-.21-.56-.45-1.12-.71-1.69l-.21-.47,3.34-5.84-8.95-8.95-5.85,3.34-.47-.22c-.56-.25-1.12-.49-1.69-.7l-.47-.18-1.78-6.49h-5.14l-.18-.78a22.22,22.22,0,0,0-21.52-17.17,22,22,0,0,0-8.31,1.62l-.82.33-.42-.77a27.21,27.21,0,0,0-51,13.06v.62l-.55.27A21.92,21.92,0,0,0,33.83,48.23,21.11,21.11,0,0,0,34,50.68l.12,1.1H7.19a6.71,6.71,0,0,0-6.7,6.7v92.33a6.71,6.71,0,0,0,6.7,6.7H150.81a6.71,6.71,0,0,0,6.7-6.7V89.26a6.71,6.71,0,0,0-6.7-6.7h-2.4l1.62-1.7,3.23-3.23-3.34-5.85.21-.46C150.39,70.75,150.63,70.18,150.84,69.63ZM67.17,150.81a3.56,3.56,0,0,1-3.56,3.55H7.19a3.55,3.55,0,0,1-3.55-3.55V58.48a3.55,3.55,0,0,1,3.55-3.55H63.61a3.56,3.56,0,0,1,3.56,3.55Zm-3.56-99H37.3l-.12-.85a19.2,19.2,0,0,1-.21-2.7A18.88,18.88,0,0,1,48.88,30.64l1-.41-.11-1.8c0-.24,0-.48,0-.72A24.07,24.07,0,0,1,95.91,18l.69,1.57,1.5-.82A18.94,18.94,0,0,1,125.35,30l.38,1.28h-4.34l-1.77,6.49-.47.18c-.58.21-1.15.45-1.69.7l-.47.22-5.85-3.34-9,8.95,3.34,5.84-.21.47c-.26.57-.5,1.13-.71,1.69l-.17.48L98,54.72V62H70.31V58.48A6.71,6.71,0,0,0,63.61,51.78Zm6.7,23.66h7.12v7.12H70.31Zm48.15,75.37a3.56,3.56,0,0,1-3.56,3.55H69.42L69.9,153a6.52,6.52,0,0,0,.41-2.23V85.7h41V72.3h-41V65.18H114.9a3.57,3.57,0,0,1,3.56,3.56ZM80.57,82.56V75.44H92.82v7.12Zm15.39,0V75.44H108.2v7.12Zm21.22-20.09-.63-.23,0-.66s0-.08,0-.13a2.71,2.71,0,0,1,0-.4A11.26,11.26,0,1,1,127.73,72.3a11.14,11.14,0,0,1-5.63-1.54l-.5-.29V68.74A6.71,6.71,0,0,0,117.18,62.47ZM121.6,96h7.12v7.11H121.6ZM150.81,85.7a3.56,3.56,0,0,1,3.55,3.56v61.55a3.55,3.55,0,0,1-3.55,3.55h-30.1l.48-1.32a6.52,6.52,0,0,0,.41-2.23V106.22h25.65V92.82H121.6V85.7Zm-18.95,17.37V96h12.25v7.11Zm17.48-26-5.45,5.46H121.6V74.13l1.33.47a14.19,14.19,0,0,0,4.8.84,14.39,14.39,0,1,0-14.4-14.39v1H101.09V57.12l5.82-1.6.26-.82A21,21,0,0,1,108.71,51l.4-.76-3-5.26,5.56-5.56,5.26,3,.76-.4a21.6,21.6,0,0,1,3.68-1.54l.83-.25,1.6-5.83h7.85l1.6,5.83.83.25A21.6,21.6,0,0,1,137.76,42l.76.4,5.26-3L149.34,45l-3,5.26.4.76a20.92,20.92,0,0,1,1.54,3.69l.26.82,5.82,1.6V65l-5.82,1.59-.26.83a21,21,0,0,1-1.54,3.68l-.4.76Z"/><path class="cls-1" d="M10.75,75.44h49.3V62H10.75ZM44.67,65.18H56.91V72.3H44.67Zm-15.39,0H41.53V72.3H29.28Zm-15.39,0H26.14V72.3H13.89Z"/><rect class="cls-1" x="90.25" y="31.27" width="3.14" height="3.14"/><rect class="cls-1" x="100.51" y="31.27" width="3.14" height="3.14"/><rect class="cls-1" x="59.48" y="31.27" width="3.14" height="3.14"/><rect class="cls-1" x="79.99" y="31.27" width="3.14" height="3.14"/><rect class="cls-1" x="69.74" y="31.27" width="3.14" height="3.14"/><rect class="cls-1" x="44.09" y="133.85" width="3.14" height="3.14"/><rect class="cls-1" x="33.83" y="133.85" width="3.14" height="3.14"/><rect class="cls-1" x="23.57" y="133.85" width="3.14" height="3.14"/></svg>