<svg id="Capa_2" data-name="Capa 2" xmlns="http://www.w3.org/2000/svg" viewBox="0 0 181 181"><defs><style>.cls-1{fill:#1a7fcd;}</style></defs><title>ugiland - casos de exito</title><path class="cls-1" d="M159.38,106.37H142.23a1.59,1.59,0,0,0,0,3.17h17.15a1.59,1.59,0,0,0,0-3.17Z"/><path class="cls-1" d="M159.38,117.39H142.23a1.58,1.58,0,1,0,0,3.16h17.15a1.58,1.58,0,1,0,0-3.16Z"/><path class="cls-1" d="M159.38,95.36H142.23a1.58,1.58,0,1,0,0,3.16h17.15a1.58,1.58,0,1,0,0-3.16Z"/><path class="cls-1" d="M116.94,95.11v3.64h-7.39a3.23,3.23,0,0,0-3.23,3.23v3.39h-7.4a3.25,3.25,0,0,0-3.24,3.24v12.55A2.88,2.88,0,0,0,98.56,124h29.3a2.88,2.88,0,0,0,2.88-2.88v-26a3.24,3.24,0,0,0-3.23-3.24h-7.33A3.25,3.25,0,0,0,116.94,95.11Zm-10.62,25.77H98.84V108.53h7.48Zm10.62,0h-7.46v-19h7.46ZM127.58,95v25.85h-7.46v-1.1c0-14.27,0-20.53,0-22.74V95Z"/><path class="cls-1" d="M175.87,59H90.48l-.17-.89a10.53,10.53,0,0,0-4.12-6.55L85.53,51l.28-.78a5.77,5.77,0,0,0,.33-1.91V31a8.3,8.3,0,0,0-2.68-6.14,8.13,8.13,0,0,0-6.11-2.2,2.41,2.41,0,0,1-2.64-1.87c-1.08-5.48-4.4-8-10.45-8H41.52a16.71,16.71,0,0,0-16.7,16.69V46.07a7.92,7.92,0,0,0,2.05,5.31l.69.77-.73.74a9.91,9.91,0,0,0,6.28,17L34,70l.12.85a23.23,23.23,0,0,0,9,15.33l.44.33v6.62l-30.69,12A21.52,21.52,0,0,0,.13,124.79v37.93a5.49,5.49,0,0,0,5.49,5.49H50.9a1.58,1.58,0,1,0,0-3.16H22.26V128a1.58,1.58,0,0,0-3.16,0v37.1H5.62a2.33,2.33,0,0,1-2.33-2.33V124.79A18.59,18.59,0,0,1,14,108.06L32.14,101,43,111.86a19.82,19.82,0,0,0,14.13,5.86h0a19.82,19.82,0,0,0,14.13-5.86l12.11-12.1v38.12a5.78,5.78,0,0,0,5.77,5.78H92v21.39H63.4a1.58,1.58,0,1,0,0,3.16h45.28a5.49,5.49,0,0,0,5.49-5.49V143.66H127.5v10.11l-.75.25a7.3,7.3,0,1,0,4.65,0l-.74-.25V143.66H169a5.79,5.79,0,0,0,5.78-5.78V114.21a1.58,1.58,0,0,0-3.16,0v23.67A2.63,2.63,0,0,1,169,140.5H89.16a2.62,2.62,0,0,1-2.61-2.62V74.13h85.06V101.7a1.58,1.58,0,0,0,3.16,0V74.13h1.1a5,5,0,0,0,5-5V64A5,5,0,0,0,175.87,59Zm-42.66,102a4.13,4.13,0,1,1-4.13-4.13A4.14,4.14,0,0,1,133.21,160.92Zm-38-17.26H111v19.06a2.33,2.33,0,0,1-2.33,2.33H95.2Zm-11.56-90a7.36,7.36,0,0,1,3.25,3.85L87.43,59H82.29a5,5,0,0,0-.61,0l-1.24.15v-5l.93-.15a5.85,5.85,0,0,0,1.3-.37l.5-.21ZM33.86,66.93l-1.35-.33A6.93,6.93,0,0,1,27,60a7.34,7.34,0,0,1,3.48-6l.37-.23.43.08a7.42,7.42,0,0,0,1.13.14h1.49ZM32.77,50.85A4.79,4.79,0,0,1,28,46.07V29.48A13.55,13.55,0,0,1,41.52,16H64.26c5.79,0,6.83,2.82,7.34,5.47a5.6,5.6,0,0,0,6,4.42,4.9,4.9,0,0,1,3.71,1.37A5.13,5.13,0,0,1,83,31V48.34a2.54,2.54,0,0,1-2.51,2.51,6.23,6.23,0,0,1-6.22-6.22,2,2,0,0,0-3.73-.94,13.51,13.51,0,0,1-11.94,7.16ZM37,67.78V54H58.58a16.76,16.76,0,0,0,12-5l1-1,.72,1.28a9.56,9.56,0,0,0,4.35,4l.65.29v14.3a20.13,20.13,0,0,1-40.26,0ZM67.59,93.43l-8.13,8.07H54.8l-8.1-8,0-.65V88.44l1.51.6a24.07,24.07,0,0,0,17.82,0l1.52-.61Zm-32.24,6.3L44.81,96l7.56,7.51-6.58,6.63ZM64.6,112.81a16.86,16.86,0,0,1-14.94,0l-1.36-.68,6.32-6.36a4,4,0,0,0,.45-.57l.32-.53h3.48l.32.53a3,3,0,0,0,.45.57L66,112.14Zm3.89-2.62-6.6-6.65,7.5-7.45,9.51,3.69Zm2.24-17V86.54l.45-.33A23.25,23.25,0,0,0,79.4,74.62l.33-1.06,1,.34a5.12,5.12,0,0,0,1.51.23h1.1v24Zm107-24.11A1.85,1.85,0,0,1,175.87,71H82.29a1.85,1.85,0,0,1-1.85-1.85V64a1.85,1.85,0,0,1,1.85-1.85h93.58A1.85,1.85,0,0,1,177.71,64Z"/></svg>