<svg id="Capa_2" data-name="Capa 2" xmlns="http://www.w3.org/2000/svg" viewBox="0 0 1154.76 609.84"><defs><style>.cls-1{fill:#f5f5f5;}.cls-2{fill:#fafafa;}.cls-3{fill:#e1e1e1;}.cls-4{fill:#1a2e35;}.cls-5{fill:#375a64;}.cls-6{fill:#ffbd00;}.cls-7{fill:#ececec;}.cls-8{fill:#00cf88;}.cls-9{fill:#fff;}.cls-10{fill:#ffbf9d;}.cls-11{fill:#ff9a6c;}.cls-12{opacity:0.6;}.cls-13{fill:#1a7fcd;}.cls-14{opacity:0.3;}</style></defs><title>ugiland - casos de exito</title><rect class="cls-1" x="261.7" y="123.77" width="154.37" height="472.88"/><rect class="cls-2" x="416.03" y="123.77" width="122" height="472.88"/><rect class="cls-3" x="269.99" y="199.45" width="130.95" height="36.87"/><rect class="cls-1" x="273.64" y="204.09" width="7.33" height="28.21"/><path class="cls-2" d="M289.62,210a2.33,2.33,0,1,1-2.33-2.33A2.33,2.33,0,0,1,289.62,210Z"/><circle class="cls-2" cx="287.29" cy="219.99" r="2.33"/><rect class="cls-1" x="298.93" y="207.69" width="7.21" height="21.67"/><rect class="cls-1" x="309.34" y="207.69" width="7.21" height="21.67"/><rect class="cls-1" x="319.75" y="207.69" width="7.21" height="21.67"/><rect class="cls-1" x="330.16" y="207.69" width="7.21" height="21.67"/><rect class="cls-1" x="340.56" y="207.69" width="7.21" height="21.67"/><rect class="cls-1" x="350.97" y="207.69" width="7.21" height="21.67"/><rect class="cls-1" x="361.38" y="207.69" width="7.21" height="21.67"/><rect class="cls-1" x="371.79" y="207.69" width="7.21" height="21.67"/><rect class="cls-1" x="382.2" y="207.69" width="7.21" height="21.67"/><rect class="cls-1" x="392.6" y="207.69" width="7.21" height="21.67"/><rect class="cls-3" x="269.99" y="258.5" width="130.95" height="36.87"/><rect class="cls-1" x="273.64" y="263.14" width="7.33" height="28.21"/><path class="cls-2" d="M289.62,269.07a2.33,2.33,0,1,1-2.33-2.33A2.33,2.33,0,0,1,289.62,269.07Z"/><path class="cls-2" d="M289.62,279a2.33,2.33,0,1,1-2.33-2.33A2.33,2.33,0,0,1,289.62,279Z"/><rect class="cls-1" x="298.93" y="266.74" width="7.21" height="21.67"/><rect class="cls-1" x="309.34" y="266.74" width="7.21" height="21.67"/><rect class="cls-1" x="319.75" y="266.74" width="7.21" height="21.67"/><rect class="cls-1" x="330.16" y="266.74" width="7.21" height="21.67"/><rect class="cls-1" x="340.56" y="266.74" width="7.21" height="21.67"/><rect class="cls-1" x="350.97" y="266.74" width="7.21" height="21.67"/><rect class="cls-1" x="361.38" y="266.74" width="7.21" height="21.67"/><rect class="cls-1" x="371.79" y="266.74" width="7.21" height="21.67"/><rect class="cls-1" x="382.2" y="266.74" width="7.21" height="21.67"/><rect class="cls-1" x="392.6" y="266.74" width="7.21" height="21.67"/><rect class="cls-3" x="269.99" y="317.55" width="130.95" height="36.87"/><rect class="cls-1" x="273.64" y="322.18" width="7.33" height="28.22"/><path class="cls-2" d="M289.62,328.12a2.33,2.33,0,1,1-2.33-2.33A2.33,2.33,0,0,1,289.62,328.12Z"/><circle class="cls-2" cx="287.29" cy="338.09" r="2.33"/><rect class="cls-1" x="298.93" y="325.79" width="7.21" height="21.67"/><rect class="cls-1" x="309.34" y="325.79" width="7.21" height="21.67"/><rect class="cls-1" x="319.75" y="325.79" width="7.21" height="21.67"/><rect class="cls-1" x="330.16" y="325.79" width="7.21" height="21.67"/><rect class="cls-1" x="340.56" y="325.79" width="7.21" height="21.67"/><rect class="cls-1" x="350.97" y="325.79" width="7.21" height="21.67"/><rect class="cls-1" x="361.38" y="325.79" width="7.21" height="21.67"/><rect class="cls-1" x="371.79" y="325.79" width="7.21" height="21.67"/><rect class="cls-1" x="382.2" y="325.79" width="7.21" height="21.67"/><rect class="cls-1" x="392.6" y="325.79" width="7.21" height="21.67"/><rect class="cls-3" x="269.99" y="376.6" width="130.95" height="36.87"/><rect class="cls-1" x="273.64" y="381.23" width="7.33" height="28.21"/><path class="cls-2" d="M289.62,387.17a2.33,2.33,0,1,1-2.33-2.33A2.33,2.33,0,0,1,289.62,387.17Z"/><circle class="cls-2" cx="287.29" cy="397.14" r="2.33"/><rect class="cls-1" x="298.93" y="384.84" width="7.21" height="21.67"/><rect class="cls-1" x="309.34" y="384.84" width="7.21" height="21.67"/><rect class="cls-1" x="319.75" y="384.84" width="7.21" height="21.67"/><rect class="cls-1" x="330.16" y="384.84" width="7.21" height="21.67"/><rect class="cls-1" x="340.56" y="384.84" width="7.21" height="21.67"/><rect class="cls-1" x="350.97" y="384.84" width="7.21" height="21.67"/><rect class="cls-1" x="361.38" y="384.84" width="7.21" height="21.67"/><rect class="cls-1" x="371.79" y="384.84" width="7.21" height="21.67"/><rect class="cls-1" x="382.2" y="384.84" width="7.21" height="21.67"/><rect class="cls-1" x="392.6" y="384.84" width="7.21" height="21.67"/><rect class="cls-3" x="269.99" y="435.65" width="130.95" height="36.87"/><rect class="cls-1" x="273.64" y="440.28" width="7.33" height="28.21"/><path class="cls-2" d="M289.62,446.22a2.33,2.33,0,1,1-2.33-2.33A2.33,2.33,0,0,1,289.62,446.22Z"/><circle class="cls-2" cx="287.29" cy="456.19" r="2.33"/><rect class="cls-1" x="298.93" y="443.89" width="7.21" height="21.67"/><rect class="cls-1" x="309.34" y="443.89" width="7.21" height="21.67"/><rect class="cls-1" x="319.75" y="443.89" width="7.21" height="21.67"/><rect class="cls-1" x="330.16" y="443.89" width="7.21" height="21.67"/><rect class="cls-1" x="340.56" y="443.89" width="7.21" height="21.67"/><rect class="cls-1" x="350.97" y="443.89" width="7.21" height="21.67"/><rect class="cls-1" x="361.38" y="443.89" width="7.21" height="21.67"/><rect class="cls-1" x="371.79" y="443.89" width="7.21" height="21.67"/><rect class="cls-1" x="382.2" y="443.89" width="7.21" height="21.67"/><rect class="cls-1" x="392.6" y="443.89" width="7.21" height="21.67"/><rect class="cls-3" x="269.99" y="494.7" width="130.95" height="36.87"/><rect class="cls-1" x="273.64" y="499.33" width="7.33" height="28.22"/><path class="cls-2" d="M289.62,505.27a2.33,2.33,0,1,1-2.33-2.33A2.34,2.34,0,0,1,289.62,505.27Z"/><circle class="cls-2" cx="287.29" cy="515.24" r="2.33"/><rect class="cls-1" x="298.93" y="502.94" width="7.21" height="21.67"/><rect class="cls-1" x="309.34" y="502.94" width="7.21" height="21.67"/><rect class="cls-1" x="319.75" y="502.94" width="7.21" height="21.67"/><rect class="cls-1" x="330.16" y="502.94" width="7.21" height="21.67"/><rect class="cls-1" x="340.56" y="502.94" width="7.21" height="21.67"/><rect class="cls-1" x="350.97" y="502.94" width="7.21" height="21.67"/><rect class="cls-1" x="361.38" y="502.94" width="7.21" height="21.67"/><rect class="cls-1" x="371.79" y="502.94" width="7.21" height="21.67"/><rect class="cls-1" x="382.2" y="502.94" width="7.21" height="21.67"/><rect class="cls-1" x="392.6" y="502.94" width="7.21" height="21.67"/><rect class="cls-3" x="269.99" y="553.75" width="130.95" height="36.87"/><rect class="cls-1" x="273.64" y="558.38" width="7.33" height="28.21"/><path class="cls-2" d="M289.62,564.32a2.33,2.33,0,1,1-2.33-2.33A2.34,2.34,0,0,1,289.62,564.32Z"/><path class="cls-2" d="M289.62,574.29a2.33,2.33,0,1,1-2.33-2.34A2.34,2.34,0,0,1,289.62,574.29Z"/><rect class="cls-1" x="298.93" y="561.99" width="7.21" height="21.67"/><rect class="cls-1" x="309.34" y="561.99" width="7.21" height="21.67"/><rect class="cls-1" x="319.75" y="561.99" width="7.21" height="21.67"/><rect class="cls-1" x="330.16" y="561.99" width="7.21" height="21.67"/><rect class="cls-1" x="340.56" y="561.99" width="7.21" height="21.67"/><rect class="cls-1" x="350.97" y="561.99" width="7.21" height="21.67"/><rect class="cls-1" x="361.38" y="561.99" width="7.21" height="21.67"/><rect class="cls-1" x="371.79" y="561.99" width="7.21" height="21.67"/><rect class="cls-1" x="382.2" y="561.99" width="7.21" height="21.67"/><rect class="cls-1" x="392.6" y="561.99" width="7.21" height="21.67"/><path class="cls-3" d="M351,199.45a5.45,5.45,0,0,1-.14-1.14c-.06-.74-.1-1.85-.14-3.27s-.07-3.16-.17-5.17a32.54,32.54,0,0,0-.9-6.72,24.06,24.06,0,0,0-3.5-7.36A16.27,16.27,0,0,0,339,170,34.41,34.41,0,0,0,328.8,168l-11.28-1c-15.46-1.34-29.47-2.2-39.63-2.39-5.08-.12-9.19-.09-12-.08l-3.27,0a5.4,5.4,0,0,1-1.15-.05,5.45,5.45,0,0,1,1.14-.14l3.27-.2c2.84-.12,7-.25,12-.23,10.18,0,24.24.79,39.7,2.13l11.28,1a35.33,35.33,0,0,1,10.42,2.18,17,17,0,0,1,7.46,6.11,24.54,24.54,0,0,1,3.51,7.63,31.93,31.93,0,0,1,.78,6.88c.05,2,0,3.76,0,5.19s0,2.42,0,3.27A5.26,5.26,0,0,1,351,199.45Z"/><path class="cls-3" d="M311.25,199.45a5,5,0,0,1-.09-1.07c0-.81,0-1.83-.05-3.09s0-3-.16-4.85a14.87,14.87,0,0,0-1.61-6.05,11.58,11.58,0,0,0-5.9-4.53,16.14,16.14,0,0,0-8.6-.87,14.5,14.5,0,0,0-4.44,1.51,8.48,8.48,0,0,0-3.44,3.25,4.63,4.63,0,0,0,0,4.57,6.09,6.09,0,0,0,3.89,2.92,4.91,4.91,0,0,0,4.54-1.31,6.74,6.74,0,0,0,2-4.34,6.61,6.61,0,0,0-1.36-4.44,9.73,9.73,0,0,0-3.45-3,12.88,12.88,0,0,0-4.31-1.12c-1.48-.22-2.91-.41-4.31-.57-2.78-.31-5.39-.49-7.77-.59-4.77-.19-8.64-.12-11.31-.13h-3.08a5.32,5.32,0,0,1-1.08-.07,4.36,4.36,0,0,1,1.07-.12l3.08-.17c2.67-.11,6.55-.28,11.34-.17,2.4.06,5,.2,7.84.48,1.4.14,2.85.32,4.34.53.75.12,1.49.21,2.27.35a8.89,8.89,0,0,1,2.32.81,10.51,10.51,0,0,1,3.79,3.3,7.51,7.51,0,0,1,1.54,5,7.66,7.66,0,0,1-2.32,5,5.89,5.89,0,0,1-5.4,1.55,7.05,7.05,0,0,1-4.51-3.39,5.58,5.58,0,0,1,0-5.47A9.28,9.28,0,0,1,290,179.7a15.37,15.37,0,0,1,4.72-1.58,17,17,0,0,1,9,1,12.12,12.12,0,0,1,6.19,4.93,15,15,0,0,1,1.56,6.35c.1,1.91,0,3.55,0,4.89s-.09,2.27-.13,3.08A5.34,5.34,0,0,1,311.25,199.45Z"/><path class="cls-3" d="M361.66,199.45a6,6,0,0,1-.28-1.22c-.14-.8-.37-2-.7-3.49a68,68,0,0,0-3.87-12.48A36.27,36.27,0,0,0,345.42,167,21.4,21.4,0,0,0,335,163a110.16,110.16,0,0,0-12.27-.66c-16.92-.32-32.26-.26-43.36-.7-5.55-.19-10-.46-13.13-.69l-3.56-.3a5.25,5.25,0,0,1-1.24-.18,7.13,7.13,0,0,1,1.25,0l3.57.13c3.1.11,7.59.27,13.13.38,11.09.27,26.41.11,43.36.43a106.53,106.53,0,0,1,12.38.68A22.2,22.2,0,0,1,346,166.29a33.11,33.11,0,0,1,7.21,7.63,44.67,44.67,0,0,1,4.27,8.08,62.79,62.79,0,0,1,3.62,12.66c.27,1.54.44,2.73.52,3.55A6.41,6.41,0,0,1,361.66,199.45Z"/><rect class="cls-3" x="271.79" y="129.65" width="127.35" height="18.49"/><rect class="cls-1" x="299.8" y="138.89" width="69.33" height="9.24"/><rect class="cls-1" x="640.3" y="10.11" width="191.47" height="586.54" transform="translate(1472.06 606.75) rotate(-180)"/><rect class="cls-2" x="489.56" y="10.11" width="151.33" height="586.54" transform="translate(1130.45 606.75) rotate(-180)"/><rect class="cls-3" x="659.07" y="103.98" width="162.42" height="45.73" transform="translate(1480.56 253.69) rotate(-180)"/><rect class="cls-1" x="807.86" y="109.73" width="9.1" height="35" transform="translate(1624.82 254.45) rotate(-180)"/><path class="cls-2" d="M797.15,117.09A2.89,2.89,0,1,0,800,114.2,2.89,2.89,0,0,0,797.15,117.09Z"/><circle class="cls-2" cx="800.04" cy="129.45" r="2.89"/><rect class="cls-1" x="776.66" y="114.2" width="8.94" height="26.88" transform="translate(1562.25 255.28) rotate(-180)"/><rect class="cls-1" x="763.75" y="114.2" width="8.94" height="26.88" transform="translate(1536.43 255.28) rotate(-180)"/><rect class="cls-1" x="750.84" y="114.2" width="8.94" height="26.88" transform="translate(1510.61 255.28) rotate(-180)"/><rect class="cls-1" x="737.93" y="114.2" width="8.94" height="26.88" transform="translate(1484.79 255.28) rotate(-180)"/><rect class="cls-1" x="725.02" y="114.2" width="8.94" height="26.88" transform="translate(1458.97 255.28) rotate(-180)"/><rect class="cls-1" x="712.11" y="114.2" width="8.94" height="26.88" transform="translate(1433.15 255.28) rotate(-180)"/><rect class="cls-1" x="699.2" y="114.2" width="8.94" height="26.88" transform="translate(1407.33 255.28) rotate(-180)"/><rect class="cls-1" x="686.29" y="114.2" width="8.94" height="26.88" transform="translate(1381.51 255.28) rotate(-180)"/><rect class="cls-1" x="673.38" y="114.2" width="8.94" height="26.88" transform="translate(1355.69 255.28) rotate(-180)"/><rect class="cls-1" x="660.47" y="114.2" width="8.94" height="26.88" transform="translate(1329.87 255.28) rotate(-180)"/><rect class="cls-3" x="659.07" y="177.22" width="162.42" height="45.73" transform="translate(1480.56 400.17) rotate(-180)"/><rect class="cls-1" x="807.86" y="182.97" width="9.1" height="35" transform="translate(1624.82 400.94) rotate(-180)"/><path class="cls-2" d="M797.15,190.33a2.89,2.89,0,1,0,2.89-2.89A2.89,2.89,0,0,0,797.15,190.33Z"/><path class="cls-2" d="M797.15,202.7a2.89,2.89,0,1,0,2.89-2.89A2.89,2.89,0,0,0,797.15,202.7Z"/><rect class="cls-1" x="776.66" y="187.44" width="8.94" height="26.88" transform="translate(1562.25 401.76) rotate(-180)"/><rect class="cls-1" x="763.75" y="187.44" width="8.94" height="26.88" transform="translate(1536.43 401.76) rotate(-180)"/><rect class="cls-1" x="750.84" y="187.44" width="8.94" height="26.88" transform="translate(1510.61 401.76) rotate(-180)"/><rect class="cls-1" x="737.93" y="187.44" width="8.94" height="26.88" transform="translate(1484.79 401.76) rotate(-180)"/><rect class="cls-1" x="725.02" y="187.44" width="8.94" height="26.88" transform="translate(1458.97 401.76) rotate(-180)"/><rect class="cls-1" x="712.11" y="187.44" width="8.94" height="26.88" transform="translate(1433.15 401.76) rotate(-180)"/><rect class="cls-1" x="699.2" y="187.44" width="8.94" height="26.88" transform="translate(1407.33 401.76) rotate(-180)"/><rect class="cls-1" x="686.29" y="187.44" width="8.94" height="26.88" transform="translate(1381.51 401.76) rotate(-180)"/><rect class="cls-1" x="673.38" y="187.44" width="8.94" height="26.88" transform="translate(1355.69 401.76) rotate(-180)"/><rect class="cls-1" x="660.47" y="187.44" width="8.94" height="26.88" transform="translate(1329.87 401.76) rotate(-180)"/><rect class="cls-3" x="659.07" y="250.46" width="162.42" height="45.73" transform="translate(1480.56 546.66) rotate(-180)"/><rect class="cls-1" x="807.86" y="256.21" width="9.1" height="35" transform="translate(1624.82 547.42) rotate(-180)"/><path class="cls-2" d="M797.15,263.57a2.89,2.89,0,1,0,2.89-2.89A2.89,2.89,0,0,0,797.15,263.57Z"/><circle class="cls-2" cx="800.04" cy="275.94" r="2.89"/><rect class="cls-1" x="776.66" y="260.68" width="8.94" height="26.88" transform="translate(1562.25 548.25) rotate(-180)"/><rect class="cls-1" x="763.75" y="260.68" width="8.94" height="26.88" transform="translate(1536.43 548.25) rotate(-180)"/><rect class="cls-1" x="750.84" y="260.68" width="8.94" height="26.88" transform="translate(1510.61 548.25) rotate(-180)"/><rect class="cls-1" x="737.93" y="260.68" width="8.94" height="26.88" transform="translate(1484.79 548.25) rotate(-180)"/><rect class="cls-1" x="725.02" y="260.68" width="8.94" height="26.88" transform="translate(1458.97 548.25) rotate(-180)"/><rect class="cls-1" x="712.11" y="260.68" width="8.94" height="26.88" transform="translate(1433.15 548.25) rotate(-180)"/><rect class="cls-1" x="699.2" y="260.68" width="8.94" height="26.88" transform="translate(1407.33 548.25) rotate(-180)"/><rect class="cls-1" x="686.29" y="260.68" width="8.94" height="26.88" transform="translate(1381.51 548.25) rotate(-180)"/><rect class="cls-1" x="673.38" y="260.68" width="8.94" height="26.88" transform="translate(1355.69 548.25) rotate(-180)"/><rect class="cls-1" x="660.47" y="260.68" width="8.94" height="26.88" transform="translate(1329.87 548.25) rotate(-180)"/><rect class="cls-3" x="659.07" y="323.71" width="162.42" height="45.73" transform="translate(1480.56 693.14) rotate(-180)"/><rect class="cls-1" x="807.86" y="329.46" width="9.1" height="35" transform="translate(1624.82 693.91) rotate(-180)"/><path class="cls-2" d="M797.15,336.82a2.89,2.89,0,1,0,2.89-2.89A2.89,2.89,0,0,0,797.15,336.82Z"/><path class="cls-2" d="M797.15,349.18a2.89,2.89,0,1,0,2.89-2.89A2.89,2.89,0,0,0,797.15,349.18Z"/><rect class="cls-1" x="776.66" y="333.93" width="8.94" height="26.88" transform="translate(1562.25 694.74) rotate(-180)"/><rect class="cls-1" x="763.75" y="333.93" width="8.94" height="26.88" transform="translate(1536.43 694.74) rotate(-180)"/><rect class="cls-1" x="750.84" y="333.93" width="8.94" height="26.88" transform="translate(1510.61 694.74) rotate(-180)"/><rect class="cls-1" x="737.93" y="333.93" width="8.94" height="26.88" transform="translate(1484.79 694.74) rotate(-180)"/><rect class="cls-1" x="725.02" y="333.93" width="8.94" height="26.88" transform="translate(1458.97 694.74) rotate(-180)"/><rect class="cls-1" x="712.11" y="333.93" width="8.94" height="26.88" transform="translate(1433.15 694.74) rotate(-180)"/><rect class="cls-1" x="699.2" y="333.93" width="8.94" height="26.88" transform="translate(1407.33 694.74) rotate(-180)"/><rect class="cls-1" x="686.29" y="333.93" width="8.94" height="26.88" transform="translate(1381.51 694.74) rotate(-180)"/><rect class="cls-1" x="673.38" y="333.93" width="8.94" height="26.88" transform="translate(1355.69 694.74) rotate(-180)"/><rect class="cls-1" x="660.47" y="333.93" width="8.94" height="26.88" transform="translate(1329.87 694.74) rotate(-180)"/><rect class="cls-3" x="659.07" y="396.95" width="162.42" height="45.73" transform="translate(1480.56 839.63) rotate(-180)"/><rect class="cls-1" x="807.86" y="402.7" width="9.1" height="35" transform="translate(1624.82 840.39) rotate(-180)"/><path class="cls-2" d="M797.15,410.06a2.89,2.89,0,1,0,2.89-2.89A2.89,2.89,0,0,0,797.15,410.06Z"/><circle class="cls-2" cx="800.04" cy="422.43" r="2.89"/><rect class="cls-1" x="776.66" y="407.17" width="8.94" height="26.88" transform="translate(1562.25 841.22) rotate(-180)"/><rect class="cls-1" x="763.75" y="407.17" width="8.94" height="26.88" transform="translate(1536.43 841.22) rotate(-180)"/><rect class="cls-1" x="750.84" y="407.17" width="8.94" height="26.88" transform="translate(1510.61 841.22) rotate(-180)"/><rect class="cls-1" x="737.93" y="407.17" width="8.94" height="26.88" transform="translate(1484.79 841.22) rotate(-180)"/><rect class="cls-1" x="725.02" y="407.17" width="8.94" height="26.88" transform="translate(1458.97 841.22) rotate(-180)"/><rect class="cls-1" x="712.11" y="407.17" width="8.94" height="26.88" transform="translate(1433.15 841.22) rotate(-180)"/><rect class="cls-1" x="699.2" y="407.17" width="8.94" height="26.88" transform="translate(1407.33 841.22) rotate(-180)"/><rect class="cls-1" x="686.29" y="407.17" width="8.94" height="26.88" transform="translate(1381.51 841.22) rotate(-180)"/><rect class="cls-1" x="673.38" y="407.17" width="8.94" height="26.88" transform="translate(1355.69 841.22) rotate(-180)"/><rect class="cls-1" x="660.47" y="407.17" width="8.94" height="26.88" transform="translate(1329.87 841.22) rotate(-180)"/><rect class="cls-3" x="659.07" y="470.19" width="162.42" height="45.73" transform="translate(1480.56 986.11) rotate(-180)"/><rect class="cls-1" x="807.86" y="475.94" width="9.1" height="35" transform="translate(1624.82 986.88) rotate(-180)"/><path class="cls-2" d="M797.15,483.3a2.89,2.89,0,1,0,2.89-2.89A2.89,2.89,0,0,0,797.15,483.3Z"/><path class="cls-2" d="M797.15,495.67a2.89,2.89,0,1,0,2.89-2.89A2.89,2.89,0,0,0,797.15,495.67Z"/><rect class="cls-1" x="776.66" y="480.41" width="8.94" height="26.88" transform="translate(1562.25 987.71) rotate(-180)"/><rect class="cls-1" x="763.75" y="480.41" width="8.94" height="26.88" transform="translate(1536.43 987.71) rotate(-180)"/><rect class="cls-1" x="750.84" y="480.41" width="8.94" height="26.88" transform="translate(1510.61 987.71) rotate(-180)"/><rect class="cls-1" x="737.93" y="480.41" width="8.94" height="26.88" transform="translate(1484.79 987.71) rotate(-180)"/><rect class="cls-1" x="725.02" y="480.41" width="8.94" height="26.88" transform="translate(1458.97 987.71) rotate(-180)"/><rect class="cls-1" x="712.11" y="480.41" width="8.94" height="26.88" transform="translate(1433.15 987.71) rotate(-180)"/><rect class="cls-1" x="699.2" y="480.41" width="8.94" height="26.88" transform="translate(1407.33 987.71) rotate(-180)"/><rect class="cls-1" x="686.29" y="480.41" width="8.94" height="26.88" transform="translate(1381.51 987.71) rotate(-180)"/><rect class="cls-1" x="673.38" y="480.41" width="8.94" height="26.88" transform="translate(1355.69 987.71) rotate(-180)"/><rect class="cls-1" x="660.47" y="480.41" width="8.94" height="26.88" transform="translate(1329.87 987.71) rotate(-180)"/><rect class="cls-3" x="659.07" y="543.43" width="162.42" height="45.73" transform="translate(1480.56 1132.6) rotate(-180)"/><rect class="cls-1" x="807.86" y="549.18" width="9.1" height="35" transform="translate(1624.82 1133.36) rotate(-180)"/><path class="cls-2" d="M797.15,556.54a2.89,2.89,0,1,0,2.89-2.89A2.89,2.89,0,0,0,797.15,556.54Z"/><circle class="cls-2" cx="800.04" cy="568.91" r="2.89"/><rect class="cls-1" x="776.66" y="553.65" width="8.94" height="26.88" transform="translate(1562.25 1134.19) rotate(-180)"/><rect class="cls-1" x="763.75" y="553.65" width="8.94" height="26.88" transform="translate(1536.43 1134.19) rotate(-180)"/><rect class="cls-1" x="750.84" y="553.65" width="8.94" height="26.88" transform="translate(1510.61 1134.19) rotate(-180)"/><rect class="cls-1" x="737.93" y="553.65" width="8.94" height="26.88" transform="translate(1484.79 1134.19) rotate(-180)"/><rect class="cls-1" x="725.02" y="553.65" width="8.94" height="26.88" transform="translate(1458.97 1134.19) rotate(-180)"/><rect class="cls-1" x="712.11" y="553.65" width="8.94" height="26.88" transform="translate(1433.15 1134.19) rotate(-180)"/><rect class="cls-1" x="699.2" y="553.65" width="8.94" height="26.88" transform="translate(1407.33 1134.19) rotate(-180)"/><rect class="cls-1" x="686.29" y="553.65" width="8.94" height="26.88" transform="translate(1381.51 1134.19) rotate(-180)"/><rect class="cls-1" x="673.38" y="553.65" width="8.94" height="26.88" transform="translate(1355.69 1134.19) rotate(-180)"/><rect class="cls-1" x="660.47" y="553.65" width="8.94" height="26.88" transform="translate(1329.87 1134.19) rotate(-180)"/><path class="cls-3" d="M721,104a5.85,5.85,0,0,0,.18-1.41c.07-.93.13-2.3.18-4.07s.08-3.92.2-6.41a40.86,40.86,0,0,1,1.12-8.33,29.88,29.88,0,0,1,4.34-9.13,20.22,20.22,0,0,1,8.88-7.13c3.78-1.57,8.11-2.16,12.61-2.56l14-1.21c19.18-1.66,36.56-2.73,49.16-3,6.3-.14,11.4-.11,14.92-.1l4.06,0a6.49,6.49,0,0,0,1.42-.06,6.29,6.29,0,0,0-1.41-.17l-4.06-.26c-3.52-.15-8.63-.31-14.94-.28-12.63,0-30.06,1-49.25,2.64l-14,1.23c-4.52.42-9,1-12.92,2.71a21.11,21.11,0,0,0-9.26,7.57,30.07,30.07,0,0,0-4.34,9.47,39.88,39.88,0,0,0-1,8.53c-.06,2.51,0,4.67,0,6.43s0,3,0,4.06A7.41,7.41,0,0,0,721,104Z"/><path class="cls-3" d="M770.32,104a6.33,6.33,0,0,0,.11-1.33c0-1,0-2.27.05-3.83s0-3.68.2-6a18.54,18.54,0,0,1,2-7.52c1.41-2.49,4.18-4.35,7.32-5.62a20.29,20.29,0,0,1,10.67-1.08,17.94,17.94,0,0,1,5.5,1.88,10.5,10.5,0,0,1,4.27,4,5.76,5.76,0,0,1,0,5.67,7.6,7.6,0,0,1-4.82,3.63A6.11,6.11,0,0,1,790,92.17a8.38,8.38,0,0,1-2.54-5.38,8.13,8.13,0,0,1,1.69-5.51,12,12,0,0,1,4.27-3.78,15.94,15.94,0,0,1,5.35-1.38c1.83-.27,3.61-.51,5.34-.7,3.45-.39,6.69-.62,9.64-.74,5.91-.24,10.72-.15,14-.16l3.82,0a6.32,6.32,0,0,0,1.34-.08,5.47,5.47,0,0,0-1.33-.16l-3.82-.2c-3.31-.13-8.12-.35-14.07-.21-3,.07-6.23.24-9.71.6-1.75.17-3.54.39-5.39.65-.93.15-1.84.26-2.82.44a10.64,10.64,0,0,0-2.87,1,13.15,13.15,0,0,0-4.7,4.09,9.36,9.36,0,0,0-1.92,6.25A9.56,9.56,0,0,0,789.15,93,7.31,7.31,0,0,0,795.86,95a8.76,8.76,0,0,0,5.58-4.21,6.88,6.88,0,0,0,0-6.78,11.58,11.58,0,0,0-4.74-4.48,18.82,18.82,0,0,0-5.86-2,20.94,20.94,0,0,0-11.21,1.24c-3.26,1.36-6.17,3.36-7.68,6.11A18.71,18.71,0,0,0,770,92.76c-.13,2.37-.06,4.41,0,6.07s.13,2.82.17,3.82A4.84,4.84,0,0,0,770.32,104Z"/><path class="cls-3" d="M707.79,104a8.62,8.62,0,0,0,.34-1.51c.18-1,.46-2.46.87-4.34a84.52,84.52,0,0,1,4.8-15.48c2.65-6.25,6.88-13.51,14.12-18.94a26.65,26.65,0,0,1,12.93-4.92A133.64,133.64,0,0,1,756.08,58c21-.4,40-.33,53.77-.87,6.89-.25,12.45-.58,16.29-.86l4.42-.38a7.78,7.78,0,0,0,1.53-.21,7.37,7.37,0,0,0-1.55,0l-4.43.16c-3.84.13-9.4.34-16.28.47-13.75.34-32.76.13-53.78.53a132.76,132.76,0,0,0-15.36.85,27.66,27.66,0,0,0-13.42,5.19,41,41,0,0,0-8.94,9.47,54.52,54.52,0,0,0-5.3,10A77.73,77.73,0,0,0,708.55,98c-.34,1.9-.55,3.38-.66,4.39A7.22,7.22,0,0,0,707.79,104Z"/><rect class="cls-3" x="661.3" y="17.4" width="157.96" height="22.93" transform="translate(1480.56 57.73) rotate(-180)"/><rect class="cls-1" x="698.52" y="28.87" width="86" height="11.46" transform="translate(1483.04 69.2) rotate(-180)"/><rect class="cls-4" x="434.11" y="217.55" width="252.83" height="337.58"/><rect class="cls-5" x="397.19" y="273.03" width="276.39" height="68.57"/><rect class="cls-4" x="409.46" y="287.16" width="54.42" height="8.37"/><rect class="cls-4" x="409.46" y="301.56" width="54.42" height="8.37"/><rect class="cls-4" x="409.46" y="316.46" width="54.42" height="8.37"/><path class="cls-4" d="M485.41,292.22a3.13,3.13,0,1,1-3.13-3.13A3.13,3.13,0,0,1,485.41,292.22Z"/><path class="cls-4" d="M499.18,292.22a3.12,3.12,0,1,1-3.12-3.13A3.12,3.12,0,0,1,499.18,292.22Z"/><path class="cls-4" d="M513,292.22a3.13,3.13,0,1,1-3.12-3.13A3.12,3.12,0,0,1,513,292.22Z"/><path class="cls-4" d="M526.73,292.22a3.12,3.12,0,1,1-3.12-3.13A3.12,3.12,0,0,1,526.73,292.22Z"/><path class="cls-4" d="M633.49,292.22a3.12,3.12,0,1,1-3.12-3.13A3.12,3.12,0,0,1,633.49,292.22Z"/><path class="cls-4" d="M647.54,292.22a3.13,3.13,0,1,1-3.12-3.13A3.12,3.12,0,0,1,647.54,292.22Z"/><path class="cls-4" d="M540.51,292.22a3.12,3.12,0,1,1-3.12-3.13A3.12,3.12,0,0,1,540.51,292.22Z"/><path class="cls-4" d="M608.17,292.22a3.13,3.13,0,1,1-3.12-3.13A3.12,3.12,0,0,1,608.17,292.22Z"/><path class="cls-1" d="M554.29,292.22a3.13,3.13,0,1,1-3.12-3.13A3.12,3.12,0,0,1,554.29,292.22Z"/><path class="cls-1" d="M568.06,292.22a3.12,3.12,0,1,1-3.12-3.13A3.12,3.12,0,0,1,568.06,292.22Z"/><path class="cls-1" d="M596,292.22a3.12,3.12,0,1,1-3.12-3.13A3.12,3.12,0,0,1,596,292.22Z"/><path class="cls-1" d="M659,292.22a3.13,3.13,0,1,1-3.12-3.13A3.12,3.12,0,0,1,659,292.22Z"/><path class="cls-6" d="M581.84,292.22a3.12,3.12,0,1,1-3.12-3.13A3.12,3.12,0,0,1,581.84,292.22Z"/><path class="cls-6" d="M621.28,292.22a3.12,3.12,0,1,1-3.12-3.13A3.12,3.12,0,0,1,621.28,292.22Z"/><path class="cls-4" d="M652.72,307.26a3.13,3.13,0,1,1,3.13,3.13A3.13,3.13,0,0,1,652.72,307.26Z"/><path class="cls-4" d="M639,307.26a3.12,3.12,0,1,1,3.12,3.13A3.12,3.12,0,0,1,639,307.26Z"/><path class="cls-4" d="M625.17,307.26a3.13,3.13,0,1,1,3.12,3.13A3.12,3.12,0,0,1,625.17,307.26Z"/><path class="cls-4" d="M611.4,307.26a3.12,3.12,0,1,1,3.12,3.13A3.12,3.12,0,0,1,611.4,307.26Z"/><path class="cls-4" d="M504.64,307.26a3.12,3.12,0,1,1,3.12,3.13A3.12,3.12,0,0,1,504.64,307.26Z"/><path class="cls-4" d="M490.59,307.26a3.13,3.13,0,1,1,3.12,3.13A3.12,3.12,0,0,1,490.59,307.26Z"/><path class="cls-4" d="M597.62,307.26a3.12,3.12,0,1,1,3.12,3.13A3.12,3.12,0,0,1,597.62,307.26Z"/><path class="cls-4" d="M530,307.26a3.13,3.13,0,1,1,3.12,3.13A3.12,3.12,0,0,1,530,307.26Z"/><path class="cls-1" d="M583.84,307.26a3.13,3.13,0,1,1,3.12,3.13A3.12,3.12,0,0,1,583.84,307.26Z"/><path class="cls-1" d="M570.07,307.26a3.12,3.12,0,1,1,3.12,3.13A3.12,3.12,0,0,1,570.07,307.26Z"/><path class="cls-1" d="M542.12,307.26a3.12,3.12,0,1,1,3.12,3.13A3.12,3.12,0,0,1,542.12,307.26Z"/><path class="cls-1" d="M479.16,307.26a3.13,3.13,0,1,1,3.12,3.13A3.12,3.12,0,0,1,479.16,307.26Z"/><path class="cls-6" d="M556.29,307.26a3.12,3.12,0,1,1,3.12,3.13A3.12,3.12,0,0,1,556.29,307.26Z"/><path class="cls-6" d="M516.85,307.26a3.12,3.12,0,1,1,3.12,3.13A3.12,3.12,0,0,1,516.85,307.26Z"/><path class="cls-4" d="M485.41,320.65a3.13,3.13,0,1,1-3.13-3.13A3.13,3.13,0,0,1,485.41,320.65Z"/><circle class="cls-4" cx="496.06" cy="320.65" r="3.12"/><circle class="cls-4" cx="509.84" cy="320.65" r="3.12"/><path class="cls-4" d="M526.73,320.65a3.12,3.12,0,1,1-3.12-3.13A3.12,3.12,0,0,1,526.73,320.65Z"/><circle class="cls-4" cx="630.37" cy="320.65" r="3.12"/><circle class="cls-4" cx="644.42" cy="320.65" r="3.12"/><path class="cls-4" d="M540.51,320.65a3.12,3.12,0,1,1-3.12-3.13A3.12,3.12,0,0,1,540.51,320.65Z"/><path class="cls-4" d="M608.17,320.65a3.13,3.13,0,1,1-3.12-3.13A3.12,3.12,0,0,1,608.17,320.65Z"/><circle class="cls-1" cx="551.17" cy="320.65" r="3.12"/><path class="cls-1" d="M568.06,320.65a3.12,3.12,0,1,1-3.12-3.13A3.12,3.12,0,0,1,568.06,320.65Z"/><path class="cls-1" d="M596,320.65a3.12,3.12,0,1,1-3.12-3.13A3.12,3.12,0,0,1,596,320.65Z"/><path class="cls-1" d="M659,320.65a3.13,3.13,0,1,1-3.12-3.13A3.12,3.12,0,0,1,659,320.65Z"/><path class="cls-6" d="M581.84,320.65a3.12,3.12,0,1,1-3.12-3.13A3.12,3.12,0,0,1,581.84,320.65Z"/><circle class="cls-6" cx="618.16" cy="320.65" r="3.12"/><rect class="cls-5" x="397.19" y="357.65" width="276.39" height="68.57"/><path class="cls-4" d="M484.72,376.16A3.12,3.12,0,1,1,481.6,373,3.12,3.12,0,0,1,484.72,376.16Z"/><path class="cls-4" d="M498.5,376.16a3.13,3.13,0,1,1-3.12-3.13A3.12,3.12,0,0,1,498.5,376.16Z"/><path class="cls-4" d="M512.27,376.16a3.12,3.12,0,1,1-3.12-3.13A3.12,3.12,0,0,1,512.27,376.16Z"/><path class="cls-4" d="M526.05,376.16a3.12,3.12,0,1,1-3.12-3.13A3.12,3.12,0,0,1,526.05,376.16Z"/><path class="cls-4" d="M632.81,376.16a3.13,3.13,0,1,1-3.13-3.13A3.13,3.13,0,0,1,632.81,376.16Z"/><path class="cls-4" d="M646.85,376.16a3.12,3.12,0,1,1-3.12-3.13A3.12,3.12,0,0,1,646.85,376.16Z"/><path class="cls-4" d="M539.83,376.16A3.13,3.13,0,1,1,536.7,373,3.13,3.13,0,0,1,539.83,376.16Z"/><path class="cls-4" d="M607.48,376.16a3.12,3.12,0,1,1-3.12-3.13A3.12,3.12,0,0,1,607.48,376.16Z"/><path class="cls-1" d="M553.6,376.16a3.12,3.12,0,1,1-3.12-3.13A3.12,3.12,0,0,1,553.6,376.16Z"/><path class="cls-1" d="M567.38,376.16a3.12,3.12,0,1,1-3.12-3.13A3.12,3.12,0,0,1,567.38,376.16Z"/><path class="cls-1" d="M595.33,376.16a3.12,3.12,0,1,1-3.12-3.13A3.12,3.12,0,0,1,595.33,376.16Z"/><path class="cls-1" d="M658.28,376.16a3.12,3.12,0,1,1-3.12-3.13A3.12,3.12,0,0,1,658.28,376.16Z"/><path class="cls-6" d="M581.16,376.16A3.13,3.13,0,1,1,578,373,3.13,3.13,0,0,1,581.16,376.16Z"/><path class="cls-6" d="M620.6,376.16a3.12,3.12,0,1,1-3.12-3.13A3.12,3.12,0,0,1,620.6,376.16Z"/><path class="cls-4" d="M652,391.2a3.12,3.12,0,1,1,3.12,3.13A3.12,3.12,0,0,1,652,391.2Z"/><circle class="cls-4" cx="641.39" cy="391.2" r="3.12"/><path class="cls-4" d="M624.49,391.2a3.12,3.12,0,1,1,3.12,3.13A3.12,3.12,0,0,1,624.49,391.2Z"/><path class="cls-4" d="M610.71,391.2a3.12,3.12,0,1,1,3.12,3.13A3.12,3.12,0,0,1,610.71,391.2Z"/><path class="cls-4" d="M504,391.2a3.12,3.12,0,1,1,3.12,3.13A3.12,3.12,0,0,1,504,391.2Z"/><path class="cls-4" d="M489.91,391.2a3.12,3.12,0,1,1,3.12,3.13A3.12,3.12,0,0,1,489.91,391.2Z"/><circle class="cls-4" cx="600.06" cy="391.2" r="3.12"/><path class="cls-4" d="M529.28,391.2a3.12,3.12,0,1,1,3.12,3.13A3.12,3.12,0,0,1,529.28,391.2Z"/><path class="cls-1" d="M583.16,391.2a3.12,3.12,0,1,1,3.12,3.13A3.12,3.12,0,0,1,583.16,391.2Z"/><path class="cls-1" d="M569.38,391.2a3.13,3.13,0,1,1,3.12,3.13A3.12,3.12,0,0,1,569.38,391.2Z"/><circle class="cls-1" cx="544.55" cy="391.2" r="3.12"/><path class="cls-1" d="M478.48,391.2a3.12,3.12,0,1,1,3.12,3.13A3.12,3.12,0,0,1,478.48,391.2Z"/><path class="cls-6" d="M555.61,391.2a3.12,3.12,0,1,1,3.12,3.13A3.12,3.12,0,0,1,555.61,391.2Z"/><path class="cls-6" d="M516.16,391.2a3.12,3.12,0,1,1,3.12,3.13A3.12,3.12,0,0,1,516.16,391.2Z"/><path class="cls-4" d="M484.72,404.59a3.12,3.12,0,1,1-3.12-3.13A3.12,3.12,0,0,1,484.72,404.59Z"/><path class="cls-4" d="M498.5,404.59a3.13,3.13,0,1,1-3.12-3.13A3.12,3.12,0,0,1,498.5,404.59Z"/><path class="cls-4" d="M512.27,404.59a3.12,3.12,0,1,1-3.12-3.13A3.12,3.12,0,0,1,512.27,404.59Z"/><path class="cls-4" d="M526.05,404.59a3.12,3.12,0,1,1-3.12-3.13A3.12,3.12,0,0,1,526.05,404.59Z"/><path class="cls-4" d="M632.81,404.59a3.13,3.13,0,1,1-3.13-3.13A3.13,3.13,0,0,1,632.81,404.59Z"/><path class="cls-4" d="M646.85,404.59a3.12,3.12,0,1,1-3.12-3.13A3.12,3.12,0,0,1,646.85,404.59Z"/><path class="cls-4" d="M539.83,404.59a3.13,3.13,0,1,1-3.13-3.13A3.13,3.13,0,0,1,539.83,404.59Z"/><path class="cls-4" d="M607.48,404.59a3.12,3.12,0,1,1-3.12-3.13A3.12,3.12,0,0,1,607.48,404.59Z"/><path class="cls-1" d="M553.6,404.59a3.12,3.12,0,1,1-3.12-3.13A3.12,3.12,0,0,1,553.6,404.59Z"/><path class="cls-1" d="M567.38,404.59a3.12,3.12,0,1,1-3.12-3.13A3.12,3.12,0,0,1,567.38,404.59Z"/><path class="cls-1" d="M595.33,404.59a3.12,3.12,0,1,1-3.12-3.13A3.12,3.12,0,0,1,595.33,404.59Z"/><path class="cls-1" d="M658.28,404.59a3.12,3.12,0,1,1-3.12-3.13A3.12,3.12,0,0,1,658.28,404.59Z"/><path class="cls-6" d="M581.16,404.59a3.13,3.13,0,1,1-3.13-3.13A3.13,3.13,0,0,1,581.16,404.59Z"/><path class="cls-6" d="M620.6,404.59a3.12,3.12,0,1,1-3.12-3.13A3.12,3.12,0,0,1,620.6,404.59Z"/><rect class="cls-4" x="409.46" y="371.78" width="54.42" height="8.37"/><rect class="cls-4" x="409.46" y="386.18" width="54.42" height="8.37"/><rect class="cls-4" x="409.46" y="401.08" width="54.42" height="8.37"/><rect class="cls-5" x="397.19" y="442.28" width="276.39" height="68.57"/><rect class="cls-4" x="409.46" y="456.4" width="54.42" height="8.37"/><rect class="cls-4" x="409.46" y="470.81" width="54.42" height="8.37"/><rect class="cls-4" x="409.46" y="485.7" width="54.42" height="8.37"/><path class="cls-4" d="M483.72,460.78a3.12,3.12,0,1,1-3.12-3.12A3.12,3.12,0,0,1,483.72,460.78Z"/><path class="cls-4" d="M497.5,460.78a3.13,3.13,0,1,1-3.13-3.12A3.13,3.13,0,0,1,497.5,460.78Z"/><path class="cls-4" d="M511.27,460.78a3.12,3.12,0,1,1-3.12-3.12A3.12,3.12,0,0,1,511.27,460.78Z"/><path class="cls-4" d="M525.05,460.78a3.12,3.12,0,1,1-3.12-3.12A3.12,3.12,0,0,1,525.05,460.78Z"/><path class="cls-4" d="M631.8,460.78a3.12,3.12,0,1,1-3.12-3.12A3.12,3.12,0,0,1,631.8,460.78Z"/><path class="cls-4" d="M645.85,460.78a3.12,3.12,0,1,1-3.12-3.12A3.12,3.12,0,0,1,645.85,460.78Z"/><path class="cls-4" d="M538.83,460.78a3.13,3.13,0,1,1-3.13-3.12A3.13,3.13,0,0,1,538.83,460.78Z"/><path class="cls-4" d="M606.48,460.78a3.12,3.12,0,1,1-3.12-3.12A3.12,3.12,0,0,1,606.48,460.78Z"/><path class="cls-1" d="M552.6,460.78a3.12,3.12,0,1,1-3.12-3.12A3.12,3.12,0,0,1,552.6,460.78Z"/><path class="cls-1" d="M566.38,460.78a3.13,3.13,0,1,1-3.12-3.12A3.12,3.12,0,0,1,566.38,460.78Z"/><path class="cls-1" d="M594.33,460.78a3.12,3.12,0,1,1-3.12-3.12A3.12,3.12,0,0,1,594.33,460.78Z"/><path class="cls-1" d="M657.28,460.78a3.12,3.12,0,1,1-3.12-3.12A3.12,3.12,0,0,1,657.28,460.78Z"/><path class="cls-6" d="M580.15,460.78a3.12,3.12,0,1,1-3.12-3.12A3.12,3.12,0,0,1,580.15,460.78Z"/><path class="cls-6" d="M619.6,460.78a3.12,3.12,0,1,1-3.12-3.12A3.12,3.12,0,0,1,619.6,460.78Z"/><path class="cls-4" d="M651,475.83a3.12,3.12,0,1,1,3.12,3.12A3.13,3.13,0,0,1,651,475.83Z"/><path class="cls-4" d="M637.26,475.83a3.13,3.13,0,1,1,3.12,3.12A3.13,3.13,0,0,1,637.26,475.83Z"/><path class="cls-4" d="M623.49,475.83a3.12,3.12,0,1,1,3.12,3.12A3.12,3.12,0,0,1,623.49,475.83Z"/><path class="cls-4" d="M609.71,475.83a3.12,3.12,0,1,1,3.12,3.12A3.13,3.13,0,0,1,609.71,475.83Z"/><path class="cls-4" d="M503,475.83a3.13,3.13,0,1,1,3.13,3.12A3.13,3.13,0,0,1,503,475.83Z"/><path class="cls-4" d="M488.91,475.83A3.12,3.12,0,1,1,492,479,3.12,3.12,0,0,1,488.91,475.83Z"/><path class="cls-4" d="M595.93,475.83a3.13,3.13,0,1,1,3.13,3.12A3.13,3.13,0,0,1,595.93,475.83Z"/><path class="cls-4" d="M528.28,475.83A3.12,3.12,0,1,1,531.4,479,3.13,3.13,0,0,1,528.28,475.83Z"/><path class="cls-1" d="M582.16,475.83a3.12,3.12,0,1,1,3.12,3.12A3.12,3.12,0,0,1,582.16,475.83Z"/><path class="cls-1" d="M568.38,475.83A3.12,3.12,0,1,1,571.5,479,3.13,3.13,0,0,1,568.38,475.83Z"/><path class="cls-1" d="M540.43,475.83a3.12,3.12,0,1,1,3.12,3.12A3.13,3.13,0,0,1,540.43,475.83Z"/><path class="cls-1" d="M477.48,475.83A3.12,3.12,0,1,1,480.6,479,3.12,3.12,0,0,1,477.48,475.83Z"/><path class="cls-6" d="M554.6,475.83a3.13,3.13,0,1,1,3.13,3.12A3.13,3.13,0,0,1,554.6,475.83Z"/><path class="cls-6" d="M515.16,475.83a3.12,3.12,0,1,1,3.12,3.12A3.13,3.13,0,0,1,515.16,475.83Z"/><path class="cls-4" d="M483.72,489.21a3.12,3.12,0,1,1-3.12-3.12A3.12,3.12,0,0,1,483.72,489.21Z"/><path class="cls-4" d="M497.5,489.21a3.13,3.13,0,1,1-3.13-3.12A3.13,3.13,0,0,1,497.5,489.21Z"/><path class="cls-4" d="M511.27,489.21a3.12,3.12,0,1,1-3.12-3.12A3.12,3.12,0,0,1,511.27,489.21Z"/><path class="cls-4" d="M525.05,489.21a3.12,3.12,0,1,1-3.12-3.12A3.12,3.12,0,0,1,525.05,489.21Z"/><path class="cls-4" d="M631.8,489.21a3.12,3.12,0,1,1-3.12-3.12A3.12,3.12,0,0,1,631.8,489.21Z"/><path class="cls-4" d="M645.85,489.21a3.12,3.12,0,1,1-3.12-3.12A3.12,3.12,0,0,1,645.85,489.21Z"/><path class="cls-4" d="M538.83,489.21a3.13,3.13,0,1,1-3.13-3.12A3.13,3.13,0,0,1,538.83,489.21Z"/><path class="cls-4" d="M606.48,489.21a3.12,3.12,0,1,1-3.12-3.12A3.12,3.12,0,0,1,606.48,489.21Z"/><path class="cls-1" d="M552.6,489.21a3.12,3.12,0,1,1-3.12-3.12A3.12,3.12,0,0,1,552.6,489.21Z"/><path class="cls-1" d="M566.38,489.21a3.13,3.13,0,1,1-3.12-3.12A3.12,3.12,0,0,1,566.38,489.21Z"/><path class="cls-1" d="M594.33,489.21a3.12,3.12,0,1,1-3.12-3.12A3.12,3.12,0,0,1,594.33,489.21Z"/><path class="cls-1" d="M657.28,489.21a3.12,3.12,0,1,1-3.12-3.12A3.12,3.12,0,0,1,657.28,489.21Z"/><path class="cls-6" d="M580.15,489.21a3.12,3.12,0,1,1-3.12-3.12A3.12,3.12,0,0,1,580.15,489.21Z"/><path class="cls-6" d="M619.6,489.21a3.12,3.12,0,1,1-3.12-3.12A3.12,3.12,0,0,1,619.6,489.21Z"/><polygon class="cls-4" points="715.14 341.49 673.58 341.61 673.58 273.03 715.14 272.92 715.14 341.49"/><polygon class="cls-4" points="715.14 425.58 673.58 425.69 673.58 357.12 715.14 357.01 715.14 425.58"/><polygon class="cls-4" points="715.14 510.74 673.58 510.85 673.58 442.28 715.14 442.17 715.14 510.74"/><rect class="cls-4" x="411.47" y="232.45" width="54.42" height="8.37"/><polygon class="cls-4" points="715.14 258.12 673.58 258.23 673.58 189.13 715.14 189.02 715.14 258.12"/><rect class="cls-5" x="399.19" y="189.02" width="276.39" height="68.57"/><rect class="cls-4" x="411.47" y="203.14" width="54.42" height="8.37"/><rect class="cls-4" x="411.47" y="217.55" width="54.42" height="8.37"/><path class="cls-4" d="M487.41,208.2a3.13,3.13,0,1,1-3.13-3.12A3.12,3.12,0,0,1,487.41,208.2Z"/><path class="cls-4" d="M501.18,208.2a3.12,3.12,0,1,1-3.12-3.12A3.11,3.11,0,0,1,501.18,208.2Z"/><path class="cls-4" d="M515,208.2a3.12,3.12,0,1,1-3.12-3.12A3.12,3.12,0,0,1,515,208.2Z"/><path class="cls-4" d="M528.74,208.2a3.13,3.13,0,1,1-3.13-3.12A3.12,3.12,0,0,1,528.74,208.2Z"/><path class="cls-4" d="M635.49,208.2a3.12,3.12,0,1,1-3.12-3.12A3.12,3.12,0,0,1,635.49,208.2Z"/><path class="cls-4" d="M649.54,208.2a3.12,3.12,0,1,1-3.12-3.12A3.12,3.12,0,0,1,649.54,208.2Z"/><path class="cls-4" d="M542.51,208.2a3.12,3.12,0,1,1-3.12-3.12A3.12,3.12,0,0,1,542.51,208.2Z"/><path class="cls-4" d="M610.17,208.2a3.13,3.13,0,1,1-3.12-3.12A3.12,3.12,0,0,1,610.17,208.2Z"/><path class="cls-1" d="M556.29,208.2a3.12,3.12,0,1,1-3.12-3.12A3.12,3.12,0,0,1,556.29,208.2Z"/><path class="cls-1" d="M570.07,208.2a3.13,3.13,0,1,1-3.13-3.12A3.12,3.12,0,0,1,570.07,208.2Z"/><path class="cls-1" d="M598,208.2a3.13,3.13,0,1,1-3.13-3.12A3.12,3.12,0,0,1,598,208.2Z"/><path class="cls-1" d="M661,208.2a3.12,3.12,0,1,1-3.12-3.12A3.12,3.12,0,0,1,661,208.2Z"/><path class="cls-6" d="M583.84,208.2a3.12,3.12,0,1,1-3.12-3.12A3.12,3.12,0,0,1,583.84,208.2Z"/><path class="cls-6" d="M623.29,208.2a3.13,3.13,0,1,1-3.13-3.12A3.12,3.12,0,0,1,623.29,208.2Z"/><path class="cls-4" d="M654.73,223.25a3.12,3.12,0,1,1,3.12,3.12A3.12,3.12,0,0,1,654.73,223.25Z"/><circle class="cls-4" cx="644.07" cy="223.25" r="3.12"/><path class="cls-4" d="M627.17,223.25a3.13,3.13,0,1,1,3.12,3.12A3.12,3.12,0,0,1,627.17,223.25Z"/><path class="cls-4" d="M613.4,223.25a3.12,3.12,0,1,1,3.12,3.12A3.12,3.12,0,0,1,613.4,223.25Z"/><path class="cls-4" d="M506.64,223.25a3.13,3.13,0,1,1,3.12,3.12A3.12,3.12,0,0,1,506.64,223.25Z"/><path class="cls-4" d="M492.59,223.25a3.13,3.13,0,1,1,3.13,3.12A3.13,3.13,0,0,1,492.59,223.25Z"/><path class="cls-4" d="M599.62,223.25a3.12,3.12,0,1,1,3.12,3.12A3.12,3.12,0,0,1,599.62,223.25Z"/><circle class="cls-4" cx="535.09" cy="223.25" r="3.12"/><circle class="cls-1" cx="588.97" cy="223.25" r="3.12"/><circle class="cls-1" cx="575.19" cy="223.25" r="3.12"/><path class="cls-1" d="M544.12,223.25a3.12,3.12,0,1,1,3.12,3.12A3.12,3.12,0,0,1,544.12,223.25Z"/><circle class="cls-1" cx="484.28" cy="223.25" r="3.12"/><path class="cls-6" d="M558.29,223.25a3.12,3.12,0,1,1,3.12,3.12A3.12,3.12,0,0,1,558.29,223.25Z"/><path class="cls-6" d="M518.85,223.25a3.12,3.12,0,1,1,3.12,3.12A3.12,3.12,0,0,1,518.85,223.25Z"/><path class="cls-4" d="M487.41,236.63a3.13,3.13,0,1,1-3.13-3.12A3.13,3.13,0,0,1,487.41,236.63Z"/><path class="cls-4" d="M501.18,236.63a3.12,3.12,0,1,1-3.12-3.12A3.12,3.12,0,0,1,501.18,236.63Z"/><path class="cls-4" d="M515,236.63a3.12,3.12,0,1,1-3.12-3.12A3.13,3.13,0,0,1,515,236.63Z"/><path class="cls-4" d="M528.74,236.63a3.13,3.13,0,1,1-3.13-3.12A3.13,3.13,0,0,1,528.74,236.63Z"/><path class="cls-4" d="M635.49,236.63a3.12,3.12,0,1,1-3.12-3.12A3.13,3.13,0,0,1,635.49,236.63Z"/><path class="cls-4" d="M649.54,236.63a3.12,3.12,0,1,1-3.12-3.12A3.13,3.13,0,0,1,649.54,236.63Z"/><path class="cls-4" d="M542.51,236.63a3.12,3.12,0,1,1-3.12-3.12A3.13,3.13,0,0,1,542.51,236.63Z"/><path class="cls-4" d="M610.17,236.63a3.13,3.13,0,1,1-3.12-3.12A3.13,3.13,0,0,1,610.17,236.63Z"/><path class="cls-1" d="M556.29,236.63a3.12,3.12,0,1,1-3.12-3.12A3.13,3.13,0,0,1,556.29,236.63Z"/><path class="cls-1" d="M570.07,236.63a3.13,3.13,0,1,1-3.13-3.12A3.13,3.13,0,0,1,570.07,236.63Z"/><path class="cls-1" d="M598,236.63a3.13,3.13,0,1,1-3.13-3.12A3.13,3.13,0,0,1,598,236.63Z"/><path class="cls-1" d="M661,236.63a3.12,3.12,0,1,1-3.12-3.12A3.13,3.13,0,0,1,661,236.63Z"/><path class="cls-6" d="M583.84,236.63a3.12,3.12,0,1,1-3.12-3.12A3.13,3.13,0,0,1,583.84,236.63Z"/><path class="cls-6" d="M623.29,236.63a3.13,3.13,0,1,1-3.13-3.12A3.13,3.13,0,0,1,623.29,236.63Z"/><polygon class="cls-4" points="712.58 596.53 671.02 596.65 671.02 528.07 712.58 527.96 712.58 596.53"/><rect class="cls-5" x="396.63" y="528.07" width="276.39" height="68.57"/><rect class="cls-4" x="408.91" y="542.2" width="54.42" height="8.37"/><rect class="cls-4" x="408.91" y="556.6" width="54.42" height="8.37"/><path class="cls-4" d="M484.85,547.26a3.13,3.13,0,1,1-3.13-3.13A3.13,3.13,0,0,1,484.85,547.26Z"/><path class="cls-4" d="M498.62,547.26a3.12,3.12,0,1,1-3.12-3.13A3.12,3.12,0,0,1,498.62,547.26Z"/><path class="cls-4" d="M512.4,547.26a3.12,3.12,0,1,1-3.12-3.13A3.12,3.12,0,0,1,512.4,547.26Z"/><path class="cls-4" d="M526.18,547.26a3.13,3.13,0,1,1-3.13-3.13A3.13,3.13,0,0,1,526.18,547.26Z"/><path class="cls-4" d="M632.93,547.26a3.12,3.12,0,1,1-3.12-3.13A3.12,3.12,0,0,1,632.93,547.26Z"/><path class="cls-4" d="M647,547.26a3.12,3.12,0,1,1-3.12-3.13A3.12,3.12,0,0,1,647,547.26Z"/><path class="cls-4" d="M540,547.26a3.12,3.12,0,1,1-3.12-3.13A3.12,3.12,0,0,1,540,547.26Z"/><path class="cls-4" d="M607.61,547.26a3.13,3.13,0,1,1-3.12-3.13A3.12,3.12,0,0,1,607.61,547.26Z"/><path class="cls-1" d="M553.73,547.26a3.13,3.13,0,1,1-3.12-3.13A3.12,3.12,0,0,1,553.73,547.26Z"/><path class="cls-1" d="M567.5,547.26a3.12,3.12,0,1,1-3.12-3.13A3.12,3.12,0,0,1,567.5,547.26Z"/><path class="cls-1" d="M595.46,547.26a3.13,3.13,0,1,1-3.13-3.13A3.13,3.13,0,0,1,595.46,547.26Z"/><path class="cls-1" d="M658.41,547.26a3.12,3.12,0,1,1-3.12-3.13A3.12,3.12,0,0,1,658.41,547.26Z"/><path class="cls-6" d="M581.28,547.26a3.12,3.12,0,1,1-3.12-3.13A3.12,3.12,0,0,1,581.28,547.26Z"/><path class="cls-6" d="M620.73,547.26a3.13,3.13,0,1,1-3.13-3.13A3.13,3.13,0,0,1,620.73,547.26Z"/><path class="cls-4" d="M652.17,562.3a3.12,3.12,0,1,1,3.12,3.13A3.12,3.12,0,0,1,652.17,562.3Z"/><path class="cls-4" d="M638.39,562.3a3.12,3.12,0,1,1,3.12,3.13A3.12,3.12,0,0,1,638.39,562.3Z"/><path class="cls-4" d="M624.61,562.3a3.13,3.13,0,1,1,3.12,3.13A3.12,3.12,0,0,1,624.61,562.3Z"/><path class="cls-4" d="M610.84,562.3a3.12,3.12,0,1,1,3.12,3.13A3.12,3.12,0,0,1,610.84,562.3Z"/><path class="cls-4" d="M504.08,562.3a3.13,3.13,0,1,1,3.12,3.13A3.12,3.12,0,0,1,504.08,562.3Z"/><path class="cls-4" d="M490,562.3a3.13,3.13,0,1,1,3.12,3.13A3.12,3.12,0,0,1,490,562.3Z"/><path class="cls-4" d="M597.06,562.3a3.12,3.12,0,1,1,3.12,3.13A3.12,3.12,0,0,1,597.06,562.3Z"/><path class="cls-4" d="M529.4,562.3a3.13,3.13,0,1,1,3.13,3.13A3.13,3.13,0,0,1,529.4,562.3Z"/><path class="cls-1" d="M583.28,562.3a3.13,3.13,0,1,1,3.13,3.13A3.13,3.13,0,0,1,583.28,562.3Z"/><path class="cls-1" d="M569.51,562.3a3.12,3.12,0,1,1,3.12,3.13A3.12,3.12,0,0,1,569.51,562.3Z"/><path class="cls-1" d="M541.56,562.3a3.12,3.12,0,1,1,3.12,3.13A3.12,3.12,0,0,1,541.56,562.3Z"/><path class="cls-1" d="M478.6,562.3a3.13,3.13,0,1,1,3.12,3.13A3.12,3.12,0,0,1,478.6,562.3Z"/><path class="cls-6" d="M555.73,562.3a3.12,3.12,0,1,1,3.12,3.13A3.12,3.12,0,0,1,555.73,562.3Z"/><path class="cls-6" d="M516.29,562.3a3.12,3.12,0,1,1,3.12,3.13A3.12,3.12,0,0,1,516.29,562.3Z"/><path class="cls-4" d="M484.85,575.69a3.13,3.13,0,1,1-3.13-3.12A3.13,3.13,0,0,1,484.85,575.69Z"/><path class="cls-4" d="M498.62,575.69a3.12,3.12,0,1,1-3.12-3.12A3.12,3.12,0,0,1,498.62,575.69Z"/><circle class="cls-4" cx="509.28" cy="575.69" r="3.12"/><path class="cls-4" d="M526.18,575.69a3.13,3.13,0,1,1-3.13-3.12A3.13,3.13,0,0,1,526.18,575.69Z"/><circle class="cls-4" cx="629.81" cy="575.69" r="3.12"/><circle class="cls-4" cx="643.86" cy="575.69" r="3.12"/><path class="cls-4" d="M540,575.69a3.12,3.12,0,1,1-3.12-3.12A3.12,3.12,0,0,1,540,575.69Z"/><path class="cls-4" d="M607.61,575.69a3.13,3.13,0,1,1-3.12-3.12A3.12,3.12,0,0,1,607.61,575.69Z"/><path class="cls-1" d="M553.73,575.69a3.13,3.13,0,1,1-3.12-3.12A3.12,3.12,0,0,1,553.73,575.69Z"/><circle class="cls-1" cx="564.38" cy="575.69" r="3.12"/><path class="cls-1" d="M595.46,575.69a3.13,3.13,0,1,1-3.13-3.12A3.13,3.13,0,0,1,595.46,575.69Z"/><path class="cls-1" d="M658.41,575.69a3.12,3.12,0,1,1-3.12-3.12A3.12,3.12,0,0,1,658.41,575.69Z"/><path class="cls-6" d="M581.28,575.69a3.12,3.12,0,1,1-3.12-3.12A3.12,3.12,0,0,1,581.28,575.69Z"/><circle class="cls-6" cx="617.6" cy="575.69" r="3.12"/><rect class="cls-1" x="674.02" y="83.34" width="348.47" height="341.97"/><rect class="cls-7" x="674.02" y="158.17" width="348.47" height="85.73"/><rect class="cls-7" x="674.02" y="340.5" width="348.47" height="85.73"/><circle class="cls-8" cx="718.59" cy="201.39" r="17.7"/><path class="cls-9" d="M727.4,196.12c.5.52-3,4.66-7.72,9.27-1,.94-1.93,1.83-2.83,2.62l-.93.84-.79-.85c-3.24-3.47-5.3-6.21-4.9-6.61s3.15,1.64,6.64,4.87l-1.72,0c.82-.86,1.74-1.78,2.72-2.73C722.64,198.91,726.9,195.6,727.4,196.12Z"/><path class="cls-4" d="M755.16,218.49c-.24,0-.43-7.18-.43-16s.19-16,.43-16,.44,7.18.44,16S755.4,218.49,755.16,218.49Z"/><path class="cls-4" d="M951.26,295.4V305h-1.12l-5.76-7.16V305H943v-9.6h1.12l5.76,7.15V295.4Z"/><path class="cls-4" d="M953.36,300.2a5.1,5.1,0,1,1,5.12,4.91A4.88,4.88,0,0,1,953.36,300.2Zm8.83,0a3.73,3.73,0,1,0-3.71,3.69A3.6,3.6,0,0,0,962.19,300.2Z"/><path class="cls-4" d="M972.08,305,970,302.05c-.19,0-.39,0-.6,0H967V305h-1.37v-9.6h3.74c2.5,0,4,1.26,4,3.34a3,3,0,0,1-2.11,3l2.28,3.23Zm0-6.26c0-1.37-.92-2.15-2.67-2.15H967v4.32h2.33C971.12,300.91,972,300.11,972,298.74Z"/><path class="cls-4" d="M984.54,305l0-7-3.47,5.83h-.63L977,298v7h-1.31v-9.6h1.12l4,6.74,4-6.74h1.12V305Z"/><path class="cls-4" d="M994.85,302.6h-5.1l-1.06,2.4h-1.41l4.35-9.6H993l4.36,9.6h-1.44Zm-.48-1.1-2.07-4.7-2.07,4.7Z"/><path class="cls-4" d="M998.77,295.4h1.38v8.4h5.19V305h-6.57Z"/><path class="cls-4" d="M951.26,208.13v9.6h-1.12l-5.76-7.16v7.16H943v-9.6h1.12l5.76,7.16v-7.16Z"/><path class="cls-4" d="M953.36,212.93a5.1,5.1,0,1,1,5.12,4.91A4.88,4.88,0,0,1,953.36,212.93Zm8.83,0a3.73,3.73,0,1,0-3.71,3.69A3.6,3.6,0,0,0,962.19,212.93Z"/><path class="cls-4" d="M972.08,217.73,970,214.78c-.19,0-.39,0-.6,0H967v2.92h-1.37v-9.6h3.74c2.5,0,4,1.26,4,3.35a3,3,0,0,1-2.11,3l2.28,3.22Zm0-6.25c0-1.38-.92-2.16-2.67-2.16H967v4.32h2.33C971.12,213.64,972,212.85,972,211.48Z"/><path class="cls-4" d="M984.54,217.73l0-7-3.47,5.82h-.63L977,210.78v6.95h-1.31v-9.6h1.12l4,6.75,4-6.75h1.12v9.6Z"/><path class="cls-4" d="M994.85,215.33h-5.1l-1.06,2.4h-1.41l4.35-9.6H993l4.36,9.6h-1.44Zm-.48-1.1-2.07-4.7-2.07,4.7Z"/><path class="cls-4" d="M998.77,208.13h1.38v8.41h5.19v1.19h-6.57Z"/><circle class="cls-8" cx="717.45" cy="287.6" r="17.7" transform="translate(-3.54 566.19) rotate(-42.97)"/><path class="cls-9" d="M726.26,282.33c.5.51-3,4.66-7.72,9.26-1,1-1.93,1.84-2.82,2.63l-.94.84-.79-.85c-3.23-3.47-5.3-6.21-4.9-6.61s3.16,1.64,6.64,4.87l-1.72,0c.83-.86,1.75-1.78,2.72-2.73C721.5,285.12,725.77,281.81,726.26,282.33Z"/><path class="cls-4" d="M754,304.7c-.24,0-.44-7.18-.44-16s.2-16,.44-16,.43,7.18.43,16S754.27,304.7,754,304.7Z"/><rect class="cls-8" x="788.37" y="293.04" width="92.8" height="11.96"/><path class="cls-4" d="M951.83,385.19h1.37v8.4h5.2v1.2h-6.57Z"/><path class="cls-4" d="M960,385.19h1.38v9.6H960Z"/><path class="cls-4" d="M970.88,389.93h1.31v3.75a5.72,5.72,0,0,1-3.63,1.22,4.91,4.91,0,1,1,0-9.82,4.8,4.8,0,0,1,3.69,1.48l-.85.85a3.82,3.82,0,0,0-2.79-1.11,3.69,3.69,0,1,0,0,7.38,4.07,4.07,0,0,0,2.25-.62Z"/><path class="cls-4" d="M983.07,385.19v9.6H981.7v-4.28h-5.52v4.28h-1.37v-9.6h1.37v4.12h5.52v-4.12Z"/><path class="cls-4" d="M987.86,386.38h-3.29v-1.19h7.94v1.19h-3.3v8.41h-1.35Z"/><circle class="cls-8" cx="718.59" cy="383.36" r="17.7" transform="translate(-60.61 620.4) rotate(-45)"/><path class="cls-9" d="M727.4,378.1c.5.51-3,4.66-7.72,9.26-1,.95-1.93,1.83-2.83,2.63l-.93.84-.79-.85c-3.24-3.47-5.3-6.21-4.9-6.62s3.15,1.65,6.64,4.87h-1.72c.82-.86,1.74-1.78,2.72-2.73C722.64,380.89,726.9,377.58,727.4,378.1Z"/><path class="cls-4" d="M755.16,400.47c-.24,0-.43-7.18-.43-16s.19-16,.43-16,.44,7.18.44,16S755.4,400.47,755.16,400.47Z"/><rect class="cls-8" x="789.51" y="388.81" width="43.06" height="11.96"/><rect class="cls-8" x="789.51" y="207.28" width="107.13" height="11.66"/><path class="cls-4" d="M915.56,218.94s0-.27,0-.77,0-1.27,0-2.21c0-2-.06-4.77-.1-8.38l.17.17c-21,.16-69.55.26-126,.26h0l.43-.43h0v11.36l-.43-.43,89.38.18,26.81.13,7.29.06,1.91,0,.66,0a4.26,4.26,0,0,1-.61,0l-1.84,0-7.19.06-26.72.13-89.69.18h-.43V207.58h0l.43-.43h0c56.49,0,105,.1,126,.26h.18v.17c0,3.66-.08,6.5-.1,8.48,0,.92,0,1.64,0,2.17A3.31,3.31,0,0,1,915.56,218.94Z"/><path class="cls-4" d="M914.43,304.7s0-.28,0-.78,0-1.26,0-2.2c0-2-.05-4.77-.1-8.38l.18.17c-21,.15-69.56.26-126,.26h0l.43-.43h0V304.7l-.43-.44,89.38.19,26.81.13,7.29.06,1.91,0,.67,0a4.43,4.43,0,0,1-.61,0l-1.85,0-7.19.06-26.72.12-89.69.19h-.43V293.35h0l.43-.44h0c56.49,0,105,.11,126,.27h.17v.17c0,3.66-.08,6.5-.1,8.48,0,.92,0,1.64,0,2.16A6.07,6.07,0,0,1,914.43,304.7Z"/><path class="cls-4" d="M915.56,400.47s0-.28,0-.78,0-1.26,0-2.2c0-2-.06-4.77-.1-8.38l.17.17c-21,.15-69.55.26-126,.26h0c-.1.09.82-.82.43-.43h0v11.35l-.43-.44,89.38.19,26.81.13,7.29.06,1.91,0,.66,0a4.26,4.26,0,0,1-.61,0l-1.84,0-7.19.06-26.72.12-89.69.19h-.43V389.12h0l.43-.44h0c56.49,0,105,.11,126,.26h.18v.17c0,3.65-.08,6.5-.1,8.48,0,.92,0,1.64,0,2.16A3.37,3.37,0,0,1,915.56,400.47Z"/><rect class="cls-4" x="697.99" y="113.11" width="16.97" height="4.9" rx="0.17"/><rect class="cls-4" x="697.99" y="119.23" width="16.97" height="4.9" rx="0.17"/><rect class="cls-4" x="697.99" y="125.35" width="16.97" height="4.9" rx="0.17"/><circle class="cls-4" cx="1004.23" cy="112.14" r="2.61"/><path class="cls-4" d="M1006.84,119.25a2.61,2.61,0,1,1-2.61-2.61A2.6,2.6,0,0,1,1006.84,119.25Z"/><circle class="cls-4" cx="1004.23" cy="126.74" r="2.61"/><path class="cls-4" d="M801.23,185.82v9.86h-2v-6.41l-2.64,6.41h-1.49l-2.66-6.41v6.41h-2v-9.86h2.25l3.13,7.33,3.14-7.33Z"/><path class="cls-4" d="M803.31,186.59a1.08,1.08,0,0,1-.34-.82,1.1,1.1,0,0,1,.34-.83,1.31,1.31,0,0,1,1.74,0,1.1,1.1,0,0,1,.34.83,1.08,1.08,0,0,1-.34.82,1.28,1.28,0,0,1-1.74,0Zm1.84,1.27v7.82h-2v-7.82Z"/><path class="cls-4" d="M813.7,188.63a3.4,3.4,0,0,1,.86,2.46v4.59h-2v-4.32a2,2,0,0,0-.46-1.43,1.65,1.65,0,0,0-1.27-.5,1.69,1.69,0,0,0-1.3.5,2,2,0,0,0-.47,1.43v4.32h-2v-7.82h2v1a2.76,2.76,0,0,1,1-.8,3.17,3.17,0,0,1,1.35-.29A3,3,0,0,1,813.7,188.63Z"/><path class="cls-4" d="M816.57,186.59a1.09,1.09,0,0,1-.35-.82,1.11,1.11,0,0,1,.35-.83,1.31,1.31,0,0,1,1.74,0,1.1,1.1,0,0,1,.34.83,1.08,1.08,0,0,1-.34.82,1.28,1.28,0,0,1-1.74,0Zm1.84,1.27v7.82h-2v-7.82Z"/><path class="cls-4" d="M821.63,195.46a2.92,2.92,0,0,1-1.2-.94,2.35,2.35,0,0,1-.49-1.31h2a1.13,1.13,0,0,0,.44.75,1.6,1.6,0,0,0,1,.29,1.49,1.49,0,0,0,.88-.22.66.66,0,0,0,.32-.58.6.6,0,0,0-.39-.57,7,7,0,0,0-1.23-.42,10.56,10.56,0,0,1-1.44-.44,2.51,2.51,0,0,1-1-.69,1.9,1.9,0,0,1-.4-1.26,2,2,0,0,1,.38-1.18,2.49,2.49,0,0,1,1.07-.85,3.93,3.93,0,0,1,1.64-.31,3.36,3.36,0,0,1,2.24.7,2.56,2.56,0,0,1,.91,1.88h-1.89a1,1,0,0,0-.39-.74,1.46,1.46,0,0,0-.92-.27,1.4,1.4,0,0,0-.83.2.63.63,0,0,0-.29.55.65.65,0,0,0,.4.6,6.4,6.4,0,0,0,1.23.41,10.06,10.06,0,0,1,1.39.44,2.43,2.43,0,0,1,1,.7,1.92,1.92,0,0,1,.41,1.25,2,2,0,0,1-.37,1.21,2.46,2.46,0,0,1-1.07.84,4,4,0,0,1-1.63.31A4.18,4.18,0,0,1,821.63,195.46Z"/><path class="cls-4" d="M830.36,189.48v3.79a.74.74,0,0,0,.19.57.93.93,0,0,0,.64.17h.92v1.67h-1.24a2.18,2.18,0,0,1-2.5-2.43v-3.77h-.93v-1.62h.93v-1.94h2v1.94h1.75v1.62Z"/><path class="cls-4" d="M840.75,192.36H835a2,2,0,0,0,.6,1.33,1.8,1.8,0,0,0,1.28.48,1.63,1.63,0,0,0,1.57-.95h2.13a3.55,3.55,0,0,1-1.3,1.86,3.83,3.83,0,0,1-2.36.73,4.09,4.09,0,0,1-2-.5,3.54,3.54,0,0,1-1.4-1.42,4.31,4.31,0,0,1-.5-2.12,4.41,4.41,0,0,1,.49-2.13,3.32,3.32,0,0,1,1.39-1.41,4,4,0,0,1,2-.5,4.11,4.11,0,0,1,2,.48,3.32,3.32,0,0,1,1.37,1.36,4.09,4.09,0,0,1,.49,2A4.34,4.34,0,0,1,840.75,192.36Zm-2-1.33a1.58,1.58,0,0,0-.55-1.22,2,2,0,0,0-1.31-.46,1.79,1.79,0,0,0-1.24.45,2,2,0,0,0-.61,1.23Z"/><path class="cls-4" d="M845.22,188.1a2.74,2.74,0,0,1,1.41-.36v2.08h-.53a1.66,1.66,0,0,0-1.88,2v3.9h-2v-7.82h2v1.21A2.81,2.81,0,0,1,845.22,188.1Z"/><path class="cls-4" d="M848.09,186.59a1.09,1.09,0,0,1-.35-.82,1.11,1.11,0,0,1,.35-.83,1.3,1.3,0,0,1,1.73,0,1.11,1.11,0,0,1,.35.83,1.09,1.09,0,0,1-.35.82,1.27,1.27,0,0,1-1.73,0Zm1.84,1.27v7.82h-2v-7.82Z"/><path class="cls-4" d="M853.32,195.31a3.66,3.66,0,0,1-1.42-1.42,4.32,4.32,0,0,1-.52-2.12,4.2,4.2,0,0,1,.53-2.12,3.8,3.8,0,0,1,1.45-1.42,4.23,4.23,0,0,1,2-.5,4.29,4.29,0,0,1,2.05.5,3.71,3.71,0,0,1,1.44,1.42,4.47,4.47,0,0,1,0,4.24,3.79,3.79,0,0,1-1.47,1.42,4.34,4.34,0,0,1-2.07.5A4.15,4.15,0,0,1,853.32,195.31Zm3-1.49a1.85,1.85,0,0,0,.76-.78,2.74,2.74,0,0,0,.28-1.27,2.36,2.36,0,0,0-.59-1.72,1.93,1.93,0,0,0-1.43-.6,1.87,1.87,0,0,0-1.42.6,2.89,2.89,0,0,0,0,3.43,1.83,1.83,0,0,0,1.4.6A2,2,0,0,0,856.36,193.82Z"/><path class="cls-4" d="M870.29,193.8h-3.92l-.65,1.88h-2.08l3.54-9.87h2.31l3.54,9.87h-2.09Zm-.54-1.58-1.42-4.12-1.43,4.12Z"/><path class="cls-4" d="M730.46,117.37a6.27,6.27,0,0,1,2.37-2.37,6.7,6.7,0,0,1,3.36-.84,6.62,6.62,0,0,1,3.81,1.11,5.87,5.87,0,0,1,2.29,3.09h-3A3,3,0,0,0,738,117a3.71,3.71,0,0,0-1.87-.47,3.88,3.88,0,0,0-2,.53,3.71,3.71,0,0,0-1.38,1.5,5.48,5.48,0,0,0,0,4.53,3.55,3.55,0,0,0,1.38,1.51,3.79,3.79,0,0,0,2,.53,3.71,3.71,0,0,0,1.87-.47,3.14,3.14,0,0,0,1.25-1.41h3a5.77,5.77,0,0,1-2.28,3.1,7.1,7.1,0,0,1-7.18.26,6.22,6.22,0,0,1-2.37-2.35,7.27,7.27,0,0,1,0-6.86Z"/><path class="cls-4" d="M754,122.94H746.5a2.54,2.54,0,0,0,.78,1.75,2.41,2.41,0,0,0,1.69.63,2.13,2.13,0,0,0,2.07-1.24h2.81a4.75,4.75,0,0,1-1.71,2.45,5,5,0,0,1-3.11,1,5.39,5.39,0,0,1-2.67-.66,4.6,4.6,0,0,1-1.84-1.87,5.7,5.7,0,0,1-.66-2.79,5.77,5.77,0,0,1,.65-2.81,4.47,4.47,0,0,1,1.82-1.86,5.87,5.87,0,0,1,5.33,0,4.42,4.42,0,0,1,1.81,1.8,5.38,5.38,0,0,1,.64,2.67A6.11,6.11,0,0,1,754,122.94Zm-2.63-1.75a2.07,2.07,0,0,0-.72-1.61A2.58,2.58,0,0,0,749,119a2.36,2.36,0,0,0-1.63.58,2.6,2.6,0,0,0-.81,1.63Z"/><path class="cls-4" d="M764.7,118a4.44,4.44,0,0,1,1.14,3.25v6h-2.61v-5.7a2.67,2.67,0,0,0-.61-1.89,2.18,2.18,0,0,0-1.68-.66,2.23,2.23,0,0,0-1.7.66,2.63,2.63,0,0,0-.62,1.89v5.7H756V117h2.61v1.29a3.46,3.46,0,0,1,1.33-1.05,4,4,0,0,1,1.77-.39A4,4,0,0,1,764.7,118Z"/><path class="cls-4" d="M771.35,119.14v5a1,1,0,0,0,.25.76,1.27,1.27,0,0,0,.85.23h1.21v2.2H772q-3.3,0-3.3-3.21v-5H767.5V117h1.22v-2.55h2.63V117h2.31v2.14Z"/><path class="cls-4" d="M779.46,117.32a3.63,3.63,0,0,1,1.85-.47v2.74h-.69a2.6,2.6,0,0,0-1.85.58,2.63,2.63,0,0,0-.63,2v5.14h-2.6V117h2.6v1.6A3.76,3.76,0,0,1,779.46,117.32Z"/><path class="cls-4" d="M783,119.35a4.56,4.56,0,0,1,1.69-1.86,4.5,4.5,0,0,1,2.4-.65,4.21,4.21,0,0,1,2,.46,4,4,0,0,1,1.38,1.18V117h2.63v10.32H790.5v-1.51a3.88,3.88,0,0,1-1.38,1.2,4.21,4.21,0,0,1-2,.47,4.39,4.39,0,0,1-2.38-.67,4.68,4.68,0,0,1-1.69-1.88,6.18,6.18,0,0,1-.62-2.81A6,6,0,0,1,783,119.35Zm7.12,1.18a2.64,2.64,0,0,0-1-1,2.74,2.74,0,0,0-1.36-.36,2.58,2.58,0,0,0-1.34.35,2.75,2.75,0,0,0-1,1,3.3,3.3,0,0,0-.38,1.61,3.38,3.38,0,0,0,.38,1.63,2.75,2.75,0,0,0,1,1.07,2.52,2.52,0,0,0,1.33.37,2.74,2.74,0,0,0,1.36-.36,2.64,2.64,0,0,0,1-1,3.78,3.78,0,0,0,0-3.26Z"/><path class="cls-4" d="M798.28,113.54v13.78h-2.6V113.54Z"/><path class="cls-4" d="M801,115.34a1.47,1.47,0,0,1-.46-1.09,1.46,1.46,0,0,1,.46-1.09,1.71,1.71,0,0,1,2.29,0,1.46,1.46,0,0,1,.46,1.09,1.47,1.47,0,0,1-.46,1.09,1.71,1.71,0,0,1-2.29,0Zm2.43,1.66v10.32h-2.61V117Z"/><path class="cls-4" d="M808.41,125.18H813v2.14h-7.56v-2.11l4.51-6.07h-4.49V117H813v2.11Z"/><path class="cls-4" d="M815,119.35a4.52,4.52,0,0,1,1.7-1.86,4.45,4.45,0,0,1,2.39-.65,4.21,4.21,0,0,1,2,.46,4,4,0,0,1,1.39,1.18V117h2.62v10.32h-2.62v-1.51a4,4,0,0,1-1.39,1.2,4.21,4.21,0,0,1-2,.47,4.33,4.33,0,0,1-2.37-.67,4.64,4.64,0,0,1-1.7-1.88,6.18,6.18,0,0,1-.62-2.81A6,6,0,0,1,815,119.35Zm7.12,1.18a2.64,2.64,0,0,0-1-1,2.71,2.71,0,0,0-1.36-.36,2.58,2.58,0,0,0-1.34.35,2.75,2.75,0,0,0-1,1,3.3,3.3,0,0,0-.38,1.61,3.38,3.38,0,0,0,.38,1.63,2.75,2.75,0,0,0,1,1.07,2.52,2.52,0,0,0,1.33.37,2.71,2.71,0,0,0,1.36-.36,2.64,2.64,0,0,0,1-1,3.69,3.69,0,0,0,0-3.26Z"/><path class="cls-4" d="M827.62,119.36a4.7,4.7,0,0,1,1.81-1.86,5.23,5.23,0,0,1,2.64-.66,5,5,0,0,1,3.17,1,4.67,4.67,0,0,1,1.69,2.68h-2.81a2.08,2.08,0,0,0-.76-1,2.21,2.21,0,0,0-1.31-.38,2.17,2.17,0,0,0-1.77.81,3.62,3.62,0,0,0-.65,2.3,3.58,3.58,0,0,0,.65,2.28,2.17,2.17,0,0,0,1.77.81,2,2,0,0,0,2.07-1.41h2.81a4.82,4.82,0,0,1-1.69,2.66,5,5,0,0,1-3.17,1,5.23,5.23,0,0,1-2.64-.66,4.7,4.7,0,0,1-1.81-1.86,6.36,6.36,0,0,1,0-5.6Z"/><path class="cls-4" d="M839,115.34a1.46,1.46,0,0,1-.45-1.09,1.45,1.45,0,0,1,.45-1.09,1.62,1.62,0,0,1,1.15-.44,1.58,1.58,0,0,1,1.14.44,1.42,1.42,0,0,1,.46,1.09,1.44,1.44,0,0,1-.46,1.09,1.58,1.58,0,0,1-1.14.44A1.62,1.62,0,0,1,839,115.34Zm2.43,1.66v10.32h-2.6V117Z"/><path class="cls-4" d="M845.92,126.82a4.74,4.74,0,0,1-1.87-1.87,5.6,5.6,0,0,1-.68-2.79,5.45,5.45,0,0,1,.7-2.79A4.77,4.77,0,0,1,846,117.5a5.83,5.83,0,0,1,5.39,0,4.77,4.77,0,0,1,1.91,1.87,5.45,5.45,0,0,1,.7,2.79,5.32,5.32,0,0,1-.72,2.79,4.89,4.89,0,0,1-1.93,1.87,5.65,5.65,0,0,1-2.73.66A5.43,5.43,0,0,1,845.92,126.82Zm4-1.95a2.49,2.49,0,0,0,1-1,3.48,3.48,0,0,0,.37-1.68,3.13,3.13,0,0,0-.77-2.26,2.55,2.55,0,0,0-1.89-.79,2.46,2.46,0,0,0-1.87.79,3.12,3.12,0,0,0-.76,2.26,3.2,3.2,0,0,0,.74,2.26,2.41,2.41,0,0,0,1.85.79A2.69,2.69,0,0,0,849.93,124.87Zm.89-10.68-4.29,2v-1.86l4.29-2.22Z"/><path class="cls-4" d="M864.59,118a4.44,4.44,0,0,1,1.14,3.25v6h-2.61v-5.7a2.67,2.67,0,0,0-.61-1.89,2.18,2.18,0,0,0-1.68-.66,2.21,2.21,0,0,0-1.7.66,2.63,2.63,0,0,0-.63,1.89v5.7h-2.6V117h2.6v1.29a3.54,3.54,0,0,1,1.33-1.05,4.07,4.07,0,0,1,1.78-.39A4,4,0,0,1,864.59,118Z"/><path class="cls-4" d="M872.59,119.35a4.45,4.45,0,0,1,1.7-1.86,4.5,4.5,0,0,1,2.4-.65,4.41,4.41,0,0,1,1.92.43,3.85,3.85,0,0,1,1.45,1.17v-4.9h2.64v13.78h-2.64v-1.53A3.53,3.53,0,0,1,878.7,127a4.25,4.25,0,0,1-2,.46,4.39,4.39,0,0,1-2.38-.67,4.57,4.57,0,0,1-1.7-1.88,6.06,6.06,0,0,1-.63-2.81A5.92,5.92,0,0,1,872.59,119.35Zm7.12,1.18a2.67,2.67,0,0,0-2.37-1.4,2.61,2.61,0,0,0-1.34.35,2.66,2.66,0,0,0-1,1,3.2,3.2,0,0,0-.39,1.61,3.28,3.28,0,0,0,.39,1.63,2.66,2.66,0,0,0,1,1.07,2.55,2.55,0,0,0,1.33.37,2.67,2.67,0,0,0,2.37-1.4,3.78,3.78,0,0,0,0-3.26Z"/><path class="cls-4" d="M894.77,122.94h-7.54a2.54,2.54,0,0,0,.78,1.75,2.41,2.41,0,0,0,1.69.63,2.13,2.13,0,0,0,2.07-1.24h2.81a4.75,4.75,0,0,1-1.71,2.45,5,5,0,0,1-3.11,1,5.34,5.34,0,0,1-2.67-.66,4.63,4.63,0,0,1-1.85-1.87,5.7,5.7,0,0,1-.66-2.79,5.89,5.89,0,0,1,.65-2.81,4.55,4.55,0,0,1,1.83-1.86,5.87,5.87,0,0,1,5.33,0,4.42,4.42,0,0,1,1.81,1.8,5.38,5.38,0,0,1,.64,2.67A7.47,7.47,0,0,1,894.77,122.94Zm-2.63-1.75a2,2,0,0,0-.73-1.61,2.57,2.57,0,0,0-1.73-.6,2.38,2.38,0,0,0-1.63.58,2.6,2.6,0,0,0-.81,1.63Z"/><path class="cls-4" d="M909.31,115.12a5.74,5.74,0,0,1,2.4,2.28,6.78,6.78,0,0,1,.85,3.44,6.61,6.61,0,0,1-.85,3.41,5.72,5.72,0,0,1-2.4,2.27,7.77,7.77,0,0,1-3.6.8h-4.54v-13h4.54A7.77,7.77,0,0,1,909.31,115.12Zm-.53,8.86a4.22,4.22,0,0,0,1.12-3.14,4.36,4.36,0,0,0-1.12-3.18,4.22,4.22,0,0,0-3.16-1.14h-1.85v8.58h1.85A4.25,4.25,0,0,0,908.78,124Z"/><path class="cls-4" d="M914.47,119.35a4.45,4.45,0,0,1,4.08-2.51,4.18,4.18,0,0,1,2,.46,4,4,0,0,1,1.39,1.18V117h2.63v10.32H922v-1.51a3.91,3.91,0,0,1-1.39,1.2,4.17,4.17,0,0,1-2,.47,4.39,4.39,0,0,1-2.38-.67,4.61,4.61,0,0,1-1.69-1.88,6.05,6.05,0,0,1-.62-2.81A5.92,5.92,0,0,1,914.47,119.35Zm7.12,1.18a2.59,2.59,0,0,0-1-1,2.69,2.69,0,0,0-1.36-.36,2.61,2.61,0,0,0-1.34.35,2.66,2.66,0,0,0-1,1,3.2,3.2,0,0,0-.38,1.61,3.27,3.27,0,0,0,.38,1.63,2.72,2.72,0,0,0,1,1.07,2.55,2.55,0,0,0,1.33.37,2.69,2.69,0,0,0,1.36-.36,2.59,2.59,0,0,0,1-1,3.78,3.78,0,0,0,0-3.26Z"/><path class="cls-4" d="M930.17,119.14v5a1,1,0,0,0,.25.76,1.27,1.27,0,0,0,.85.23h1.21v2.2h-1.64c-2.2,0-3.29-1.07-3.29-3.21v-5h-1.23V117h1.23v-2.55h2.62V117h2.31v2.14Z"/><path class="cls-4" d="M936.26,126.82a4.67,4.67,0,0,1-1.87-1.87,6,6,0,0,1,0-5.58,4.81,4.81,0,0,1,1.9-1.87,5.85,5.85,0,0,1,5.4,0,4.84,4.84,0,0,1,1.91,1.87,5.56,5.56,0,0,1,.7,2.79,5.32,5.32,0,0,1-.72,2.79,4.91,4.91,0,0,1-1.94,1.87,5.61,5.61,0,0,1-2.72.66A5.4,5.4,0,0,1,936.26,126.82Zm4-1.95a2.46,2.46,0,0,0,1-1,3.48,3.48,0,0,0,.38-1.68,3.09,3.09,0,0,0-.78-2.26,2.51,2.51,0,0,0-1.89-.79,2.49,2.49,0,0,0-1.87.79,3.16,3.16,0,0,0-.75,2.26,3.2,3.2,0,0,0,.74,2.26,2.4,2.4,0,0,0,1.85.79A2.71,2.71,0,0,0,940.27,124.87Z"/><path class="cls-4" d="M947.91,127a4.07,4.07,0,0,1-1.59-1.24,3.09,3.09,0,0,1-.64-1.73h2.62a1.44,1.44,0,0,0,.59,1,2,2,0,0,0,1.27.39,2,2,0,0,0,1.17-.3.91.91,0,0,0,.41-.76.81.81,0,0,0-.51-.76,9.34,9.34,0,0,0-1.63-.55,14.24,14.24,0,0,1-1.89-.57,3.26,3.26,0,0,1-1.26-.92,2.46,2.46,0,0,1-.53-1.65,2.68,2.68,0,0,1,.49-1.57,3.28,3.28,0,0,1,1.42-1.11,5.14,5.14,0,0,1,2.16-.41,4.43,4.43,0,0,1,3,.92,3.43,3.43,0,0,1,1.21,2.48h-2.5a1.35,1.35,0,0,0-.51-1,1.85,1.85,0,0,0-1.22-.37,2,2,0,0,0-1.09.26.85.85,0,0,0-.38.73.84.84,0,0,0,.52.79,8.46,8.46,0,0,0,1.62.55,14,14,0,0,1,1.84.58,3.17,3.17,0,0,1,1.26.92,2.52,2.52,0,0,1,.55,1.65,2.8,2.8,0,0,1-.49,1.6,3.19,3.19,0,0,1-1.42,1.1,5.29,5.29,0,0,1-2.15.4A5.51,5.51,0,0,1,947.91,127Z"/><path class="cls-4" d="M801.23,272.42v9.85h-2v-6.41l-2.64,6.41h-1.49l-2.66-6.41v6.41h-2v-9.85h2.25l3.13,7.33,3.14-7.33Z"/><path class="cls-4" d="M803.31,273.19a1.1,1.1,0,0,1-.34-.83,1.08,1.08,0,0,1,.34-.82,1.28,1.28,0,0,1,1.74,0,1.08,1.08,0,0,1,.34.82,1.1,1.1,0,0,1-.34.83,1.31,1.31,0,0,1-1.74,0Zm1.84,1.26v7.82h-2v-7.82Z"/><path class="cls-4" d="M813.7,275.22a3.4,3.4,0,0,1,.86,2.47v4.58h-2V278a2,2,0,0,0-.46-1.43,1.69,1.69,0,0,0-1.27-.5,1.72,1.72,0,0,0-1.3.5,2,2,0,0,0-.47,1.43v4.32h-2v-7.82h2v1a2.67,2.67,0,0,1,1-.8,3.17,3.17,0,0,1,1.35-.29A3,3,0,0,1,813.7,275.22Z"/><path class="cls-4" d="M816.57,273.19a1.11,1.11,0,0,1-.35-.83,1.09,1.09,0,0,1,.35-.82,1.28,1.28,0,0,1,1.74,0,1.08,1.08,0,0,1,.34.82,1.1,1.1,0,0,1-.34.83,1.31,1.31,0,0,1-1.74,0Zm1.84,1.26v7.82h-2v-7.82Z"/><path class="cls-4" d="M821.63,282.06a3.1,3.1,0,0,1-1.2-.94,2.4,2.4,0,0,1-.49-1.32h2a1.13,1.13,0,0,0,.44.75,1.54,1.54,0,0,0,1,.3,1.49,1.49,0,0,0,.88-.23.66.66,0,0,0,.32-.58.61.61,0,0,0-.39-.57,8,8,0,0,0-1.23-.42,10.71,10.71,0,0,1-1.44-.43,2.51,2.51,0,0,1-1-.69,1.92,1.92,0,0,1-.4-1.26,2,2,0,0,1,.38-1.19,2.4,2.4,0,0,1,1.07-.84,3.93,3.93,0,0,1,1.64-.32,3.41,3.41,0,0,1,2.24.7,2.6,2.6,0,0,1,.91,1.89h-1.89a1,1,0,0,0-.39-.74,1.4,1.4,0,0,0-.92-.28,1.47,1.47,0,0,0-.83.2.63.63,0,0,0-.29.55.65.65,0,0,0,.4.6,5.67,5.67,0,0,0,1.23.42,10.19,10.19,0,0,1,1.39.43,2.54,2.54,0,0,1,1,.7,1.92,1.92,0,0,1,.41,1.25,2.09,2.09,0,0,1-.37,1.22,2.61,2.61,0,0,1-1.07.84,4.12,4.12,0,0,1-1.63.3A4.17,4.17,0,0,1,821.63,282.06Z"/><path class="cls-4" d="M830.36,276.07v3.79a.74.74,0,0,0,.19.57.92.92,0,0,0,.64.18h.92v1.66h-1.24a2.18,2.18,0,0,1-2.5-2.42v-3.78h-.93v-1.62h.93v-1.93h2v1.93h1.75v1.62Z"/><path class="cls-4" d="M840.75,279H835a2,2,0,0,0,.6,1.32,1.8,1.8,0,0,0,1.28.48,1.62,1.62,0,0,0,1.57-.94h2.13a3.56,3.56,0,0,1-1.3,1.85,3.77,3.77,0,0,1-2.36.73,4.09,4.09,0,0,1-2-.5,3.48,3.48,0,0,1-1.4-1.42,4.29,4.29,0,0,1-.5-2.12,4.41,4.41,0,0,1,.49-2.13,3.43,3.43,0,0,1,1.39-1.41,4.41,4.41,0,0,1,4,0,3.35,3.35,0,0,1,1.37,1.37,4.06,4.06,0,0,1,.49,2A4.46,4.46,0,0,1,840.75,279Zm-2-1.33a1.55,1.55,0,0,0-.55-1.22,1.94,1.94,0,0,0-1.31-.46,1.83,1.83,0,0,0-1.24.44,2,2,0,0,0-.61,1.24Z"/><path class="cls-4" d="M845.22,274.69a2.83,2.83,0,0,1,1.41-.35v2.07h-.53a1.66,1.66,0,0,0-1.88,2v3.89h-2v-7.82h2v1.22A2.84,2.84,0,0,1,845.22,274.69Z"/><path class="cls-4" d="M848.09,273.19a1.11,1.11,0,0,1-.35-.83,1.09,1.09,0,0,1,.35-.82,1.27,1.27,0,0,1,1.73,0,1.09,1.09,0,0,1,.35.82,1.11,1.11,0,0,1-.35.83,1.3,1.3,0,0,1-1.73,0Zm1.84,1.26v7.82h-2v-7.82Z"/><path class="cls-4" d="M853.32,281.9a3.59,3.59,0,0,1-1.42-1.42,4.3,4.3,0,0,1-.52-2.12,4.22,4.22,0,0,1,.53-2.12,3.71,3.71,0,0,1,1.45-1.41,4.13,4.13,0,0,1,2-.51,4.18,4.18,0,0,1,2.05.51,3.62,3.62,0,0,1,1.44,1.41,4.47,4.47,0,0,1,0,4.24,3.72,3.72,0,0,1-1.47,1.42,4.34,4.34,0,0,1-2.07.5A4.15,4.15,0,0,1,853.32,281.9Zm3-1.48a1.93,1.93,0,0,0,.76-.79,2.71,2.71,0,0,0,.28-1.27,2.35,2.35,0,0,0-.59-1.71,1.93,1.93,0,0,0-1.43-.6,1.87,1.87,0,0,0-1.42.6,2.89,2.89,0,0,0,0,3.43,1.83,1.83,0,0,0,1.4.6A2.08,2.08,0,0,0,856.36,280.42Z"/><path class="cls-4" d="M871.21,278.05a2.41,2.41,0,0,1,.53,1.55,2.51,2.51,0,0,1-.38,1.4,2.64,2.64,0,0,1-1.13.94,4.17,4.17,0,0,1-1.73.33h-4.25v-9.85h4.06a4.31,4.31,0,0,1,1.73.32,2.39,2.39,0,0,1,1.1.91,2.34,2.34,0,0,1,.38,1.31,2.24,2.24,0,0,1-.46,1.44,2.44,2.44,0,0,1-1.22.82A2.22,2.22,0,0,1,871.21,278.05Zm-5-1.57H868a1.68,1.68,0,0,0,1.09-.31,1.29,1.29,0,0,0,0-1.83A1.63,1.63,0,0,0,868,274h-1.81Zm3.12,3.85a1.2,1.2,0,0,0,.4-1,1.23,1.23,0,0,0-.42-1,1.74,1.74,0,0,0-1.15-.36h-1.95v2.65h2A1.73,1.73,0,0,0,869.34,280.33Z"/><path class="cls-4" d="M801.23,366.69v9.85h-2v-6.41l-2.64,6.41h-1.49l-2.66-6.41v6.41h-2v-9.85h2.25l3.13,7.33,3.14-7.33Z"/><path class="cls-4" d="M803.31,367.46a1.1,1.1,0,0,1-.34-.83,1.08,1.08,0,0,1,.34-.82,1.28,1.28,0,0,1,1.74,0,1.08,1.08,0,0,1,.34.82,1.1,1.1,0,0,1-.34.83,1.31,1.31,0,0,1-1.74,0Zm1.84,1.26v7.82h-2v-7.82Z"/><path class="cls-4" d="M813.7,369.49a3.4,3.4,0,0,1,.86,2.46v4.59h-2v-4.32a2,2,0,0,0-.46-1.43,1.69,1.69,0,0,0-1.27-.5,1.72,1.72,0,0,0-1.3.5,2,2,0,0,0-.47,1.43v4.32h-2v-7.82h2v1a2.74,2.74,0,0,1,1-.79,3.32,3.32,0,0,1,3.61.59Z"/><path class="cls-4" d="M816.57,367.46a1.11,1.11,0,0,1-.35-.83,1.09,1.09,0,0,1,.35-.82,1.28,1.28,0,0,1,1.74,0,1.08,1.08,0,0,1,.34.82,1.1,1.1,0,0,1-.34.83,1.31,1.31,0,0,1-1.74,0Zm1.84,1.26v7.82h-2v-7.82Z"/><path class="cls-4" d="M821.63,376.32a3,3,0,0,1-1.2-.93,2.4,2.4,0,0,1-.49-1.32h2a1.13,1.13,0,0,0,.44.75,1.54,1.54,0,0,0,1,.3,1.49,1.49,0,0,0,.88-.23.66.66,0,0,0,.32-.58.61.61,0,0,0-.39-.57,8,8,0,0,0-1.23-.42,10.71,10.71,0,0,1-1.44-.43,2.43,2.43,0,0,1-1-.7,1.87,1.87,0,0,1-.4-1.25,2,2,0,0,1,.38-1.19,2.49,2.49,0,0,1,1.07-.85,4.1,4.1,0,0,1,1.64-.31,3.41,3.41,0,0,1,2.24.7,2.6,2.6,0,0,1,.91,1.89h-1.89a1,1,0,0,0-.39-.74,1.4,1.4,0,0,0-.92-.28,1.47,1.47,0,0,0-.83.2.63.63,0,0,0-.29.55.65.65,0,0,0,.4.6,6.28,6.28,0,0,0,1.23.42,10.19,10.19,0,0,1,1.39.43,2.54,2.54,0,0,1,1,.7,1.92,1.92,0,0,1,.41,1.25,2.09,2.09,0,0,1-.37,1.22,2.61,2.61,0,0,1-1.07.84,4.12,4.12,0,0,1-1.63.3A4,4,0,0,1,821.63,376.32Z"/><path class="cls-4" d="M830.36,370.34v3.79a.74.74,0,0,0,.19.57.92.92,0,0,0,.64.18h.92v1.66h-1.24a2.18,2.18,0,0,1-2.5-2.43v-3.77h-.93v-1.62h.93v-1.93h2v1.93h1.75v1.62Z"/><path class="cls-4" d="M840.75,373.23H835a2,2,0,0,0,.6,1.32,1.8,1.8,0,0,0,1.28.48,1.62,1.62,0,0,0,1.57-.94h2.13a3.56,3.56,0,0,1-1.3,1.85,3.77,3.77,0,0,1-2.36.73,4.09,4.09,0,0,1-2-.5,3.48,3.48,0,0,1-1.4-1.42,4.29,4.29,0,0,1-.5-2.12,4.41,4.41,0,0,1,.49-2.13,3.43,3.43,0,0,1,1.39-1.41,4.41,4.41,0,0,1,4,0,3.35,3.35,0,0,1,1.37,1.37,4,4,0,0,1,.49,2A4.54,4.54,0,0,1,840.75,373.23Zm-2-1.33a1.55,1.55,0,0,0-.55-1.22,1.94,1.94,0,0,0-1.31-.46,1.83,1.83,0,0,0-1.24.44,2,2,0,0,0-.61,1.24Z"/><path class="cls-4" d="M845.22,369a2.83,2.83,0,0,1,1.41-.35v2.07h-.53a1.66,1.66,0,0,0-1.88,2v3.89h-2v-7.82h2v1.22A2.84,2.84,0,0,1,845.22,369Z"/><path class="cls-4" d="M848.09,367.46a1.11,1.11,0,0,1-.35-.83,1.09,1.09,0,0,1,.35-.82,1.27,1.27,0,0,1,1.73,0,1.09,1.09,0,0,1,.35.82,1.11,1.11,0,0,1-.35.83,1.3,1.3,0,0,1-1.73,0Zm1.84,1.26v7.82h-2v-7.82Z"/><path class="cls-4" d="M853.32,376.17a3.59,3.59,0,0,1-1.42-1.42,4.3,4.3,0,0,1-.52-2.12,4.22,4.22,0,0,1,.53-2.12,3.71,3.71,0,0,1,1.45-1.41,4.13,4.13,0,0,1,2-.51,4.18,4.18,0,0,1,2.05.51,3.62,3.62,0,0,1,1.44,1.41,4.47,4.47,0,0,1,0,4.24,3.72,3.72,0,0,1-1.47,1.42,4.34,4.34,0,0,1-2.07.5A4.15,4.15,0,0,1,853.32,376.17Zm3-1.48a1.93,1.93,0,0,0,.76-.79,2.71,2.71,0,0,0,.28-1.27,2.35,2.35,0,0,0-.59-1.71,1.93,1.93,0,0,0-1.43-.6,1.87,1.87,0,0,0-1.42.6,2.89,2.89,0,0,0,0,3.43,1.83,1.83,0,0,0,1.4.6A2.08,2.08,0,0,0,856.36,374.69Z"/><path class="cls-4" d="M864.42,369a4.72,4.72,0,0,1,1.8-1.8,5,5,0,0,1,2.55-.64,5,5,0,0,1,2.89.85,4.39,4.39,0,0,1,1.74,2.34h-2.28a2.34,2.34,0,0,0-1-1.06,2.85,2.85,0,0,0-1.42-.35,2.91,2.91,0,0,0-1.53.4,2.76,2.76,0,0,0-1.05,1.14,3.86,3.86,0,0,0-.37,1.72,3.92,3.92,0,0,0,.37,1.72,2.76,2.76,0,0,0,1.05,1.14,2.91,2.91,0,0,0,1.53.4,2.75,2.75,0,0,0,1.42-.36,2.34,2.34,0,0,0,1-1.06h2.28a4.45,4.45,0,0,1-1.73,2.35,5,5,0,0,1-2.9.84,5.13,5.13,0,0,1-2.55-.64,4.76,4.76,0,0,1-1.8-1.79,5.52,5.52,0,0,1,0-5.2Z"/><path class="cls-4" d="M1022.49,426c0-2.33-.16-140.93-.4-342.8l.4.26-348.43,0h0l.43-.28c0,129.23-.06,248.43-.09,342.8l-.34-.23,348.47.23L674,426.23h-.35V426c0-94.37,0-213.57-.09-342.8v-.29h.48l348.43,0h.4v.26C1022.65,285.07,1022.49,423.67,1022.49,426Z"/><path class="cls-4" d="M177.63,119.7a108.34,108.34,0,0,1-5.75-17.83c-1.24-6.14-1.42-12.59.42-18.57.28-.91,2.75-7,3.7-7,.68,0-.74,5.68-.36,6.24,3.57,5.4,4.83,12.06,4.68,18.53a85,85,0,0,1-2.69,18.61"/><path class="cls-10" d="M211.61,190.12c-9.69.35-32-26.26-32.59-35.94l-3.37-58.27c-1.4-15.62,6.52-29.47,22.18-30.44h1.45a28,28,0,0,1,28.05,25.69c1.14,13.55,2.23,28.53,2.17,35.8-.14,15.06-15.18,17.45-15.18,17.45s.11,3.49.32,7.9c.46,9.92,6.3,37.44-3.62,37.79Z"/><path class="cls-11" d="M214.32,144.41a36.38,36.38,0,0,1-19.62-5.72s4.75,11.3,19.77,9.89Z"/><path class="cls-4" d="M223,102.75a2.15,2.15,0,0,1-2.07,2.17,2.05,2.05,0,0,1-2.22-1.93,2.16,2.16,0,0,1,2.06-2.18A2.07,2.07,0,0,1,223,102.75Z"/><path class="cls-4" d="M224.15,97.81c-.26.29-1.89-.91-4.21-.9s-4,1.18-4.25.9c-.13-.13.14-.64.88-1.18A5.9,5.9,0,0,1,220,95.57a5.64,5.64,0,0,1,3.35,1.07C224,97.18,224.29,97.69,224.15,97.81Z"/><path class="cls-4" d="M201.79,103.7a2.16,2.16,0,0,1-2.07,2.18A2.06,2.06,0,0,1,197.5,104a2.15,2.15,0,0,1,2.06-2.18A2.06,2.06,0,0,1,201.79,103.7Z"/><path class="cls-4" d="M201.48,98.43c-.27.28-1.9-.92-4.21-.9s-4,1.18-4.26.89c-.12-.12.14-.63.89-1.17a5.86,5.86,0,0,1,3.4-1.06,5.62,5.62,0,0,1,3.35,1.07C201.37,97.8,201.61,98.31,201.48,98.43Z"/><path class="cls-4" d="M209.84,116.18a15.17,15.17,0,0,1,3.76-.69c.59-.07,1.15-.19,1.24-.59a3,3,0,0,0-.4-1.75c-.56-1.43-1.14-2.92-1.76-4.49-2.45-6.4-4.22-11.66-4-11.75s2.45,5,4.9,11.4l1.69,4.52a3.45,3.45,0,0,1,.31,2.32,1.51,1.51,0,0,1-1,.87,4.42,4.42,0,0,1-1,.14A15.49,15.49,0,0,1,209.84,116.18Z"/><path class="cls-4" d="M201.24,89.79c-.31.59-2.56,0-5.29-.07s-5,.38-5.29-.23c-.12-.29.34-.82,1.3-1.3a8.62,8.62,0,0,1,4.06-.82,8.88,8.88,0,0,1,4,1C201,89,201.38,89.5,201.24,89.79Z"/><path class="cls-4" d="M223.59,92.41c-.47.53-2.37,0-4.63,0s-4.18.43-4.63-.11c-.2-.27.1-.8.92-1.31A7.32,7.32,0,0,1,219,90.1a7,7,0,0,1,3.71,1C223.52,91.61,223.8,92.15,223.59,92.41Z"/><path class="cls-10" d="M176.92,107.05c-.26-.11-10.36-3-10,7.27s10.62,7.8,10.63,7.51S176.92,107.05,176.92,107.05Z"/><path class="cls-11" d="M174.28,118c-.05,0-.18.13-.48.28a1.78,1.78,0,0,1-1.34.08c-1.1-.36-2.07-2.06-2.19-3.91a6,6,0,0,1,.41-2.59,2.09,2.09,0,0,1,1.3-1.42.93.93,0,0,1,1.08.45c.14.29.09.5.14.51s.22-.18.12-.6a1.16,1.16,0,0,0-.43-.63,1.38,1.38,0,0,0-1-.23,2.53,2.53,0,0,0-1.82,1.66,6.17,6.17,0,0,0-.52,2.89c.14,2.07,1.27,4,2.78,4.35a1.89,1.89,0,0,0,1.63-.33C174.27,118.29,174.31,118.06,174.28,118Z"/><path class="cls-4" d="M219.92,74.41c1.62-1-3.61-6.16-7.78-7.84-6.31-2.53-15.83-3.84-21.46-2-6.78,2.25-12.33,5.92-15.5,12.32a40.46,40.46,0,0,0-3.62,20.86,12.27,12.27,0,0,0,1.72,6.22c1.54,2.21,4.36,3.52,4.38,6.66a4.35,4.35,0,0,0,1.21,3.1c2,1.92,4.19-.07,5.16-2,2.09-4.13,2.12-9,2.12-13.58,0-3.28,0-6.64-1.09-9.75-.57-1.69-1.45-3.28-1.94-5a6.21,6.21,0,0,1,.5-5.17,7.85,7.85,0,0,1,.8-.88A10.74,10.74,0,0,1,195,74.88c5.89,1.8,15.91,4.42,18.41,2.34,3.59-3,4.4-4.88,4.4-4.88Z"/><path class="cls-4" d="M203.55,117.7c-.14,0-.2.59,0,1.47a5.78,5.78,0,0,0,2,2.94,9.39,9.39,0,0,0,3.08,1.6c.83.27,1.38.33,1.43.19s-.38-.45-1.12-.89a20.55,20.55,0,0,1-2.71-1.74C204.32,119.77,203.88,117.62,203.55,117.7Z"/><polygon class="cls-10" points="309.66 275.14 237.54 280 235.17 255.97 322.45 259.16 309.66 275.14"/><path class="cls-5" d="M360.9,196.6c0,.09.87,1.75.87,1.75-5.76,12.3-26.69,56.83-26.69,56.83l-27.51,14.9-67.28.35-.16-3.62,33.94-15.25,43.23-.88,21.14-47a4.25,4.25,0,0,1,2.88-2.39Z"/><path class="cls-4" d="M307.57,270.08a15.14,15.14,0,0,0,1.67-2.82c.95-1.77,2.21-4.24,3.57-7s2.55-5.25,3.38-7.08a14.8,14.8,0,0,0,1.21-3,15.49,15.49,0,0,0-1.66,2.8c-.95,1.77-2.21,4.25-3.57,7s-2.55,5.26-3.39,7.08A14.8,14.8,0,0,0,307.57,270.08Z"/><polygon class="cls-4" points="301.05 264.43 272.26 264.77 293.44 252.48 316.68 251.96 301.05 264.43"/><path class="cls-4" d="M240.13,266.81a3.51,3.51,0,0,0,.71,0l2,0,7.4-.13c6.25-.11,14.88-.18,24.41-.25s18.18-.21,24.43-.45c3.12-.12,5.65-.24,7.39-.35l2-.15a2.83,2.83,0,0,0,.7-.1,2.23,2.23,0,0,0-.7,0h-2l-7.39.13c-6.25.11-14.88.18-24.42.25s-18.18.22-24.43.45c-3.12.12-5.65.24-7.39.36l-2,.15A2.33,2.33,0,0,0,240.13,266.81Z"/><path class="cls-4" d="M311.6,267.9a5.21,5.21,0,0,0,.45-.83c.3-.61.69-1.42,1.17-2.42l4.18-9L331,226,341,203.55l-.2.17,15.21-3.81,4.24-1.11a11,11,0,0,0,1.48-.45,8.11,8.11,0,0,0-1.53.27l-4.27.95-15.27,3.57-.14,0-.06.14c-2.94,6.45-6.44,14.13-10.18,22.37L317,255.47c-1.66,3.77-3,6.85-4,9.07L311.92,267A5.11,5.11,0,0,0,311.6,267.9Z"/><path class="cls-10" d="M328,251.07s-1.25-1.14-3.5,2-5.83,12.24-5.83,12.24l-4.3,2.18s3.65-4.68,3.57-6.54-3-1.73-4.48,1a77.66,77.66,0,0,1-5.89,8.11s1.7,5.31,2.09,5.06,7.67-1,7.67-1l1.95-1s4.91-.22,5.12-1.55,8.05-7.28,8-8.48-.35-7.7-.35-7.7,3.32-9.19,2.48-10.08S330.28,242.59,328,251.07Z"/><path class="cls-11" d="M327.47,251s.14,0,.35.09a.77.77,0,0,1,.48.74v0c-.26,1-.56,2.51-.88,4.38s-.66,4.09-1.25,6.38a11.35,11.35,0,0,1-2.15,4.16l-2.28,3.24a19.66,19.66,0,0,0-2,3.09,18,18,0,0,0,2.36-2.79l2.4-3.15a19.18,19.18,0,0,0,1.35-2,9.41,9.41,0,0,0,1-2.41,57.45,57.45,0,0,0,1.16-6.47c.23-1.67.43-3.14.61-4.41v0h0a1,1,0,0,0-.76-.89C327.59,250.86,327.47,250.94,327.47,251Z"/><path class="cls-11" d="M329.35,266.51c.19.05.95-2.4,1.7-5.46s1.19-5.59,1-5.64-.94,2.4-1.69,5.47S329.17,266.47,329.35,266.51Z"/><path class="cls-11" d="M315.42,260c0,.05.21.06.55.08a1.77,1.77,0,0,1,1.19.42c.34.35.24,1-.09,1.75l-1,2.45c-.37.83-.71,1.62-1.05,2.41s-.76,1.32-1.08,1.86c-.64,1.07-.89,1.83-.8,1.86s.48-.6,1.22-1.59a20.24,20.24,0,0,0,1.23-1.82c.35-.75.75-1.58,1.13-2.46s.66-1.67,1-2.48a3.66,3.66,0,0,0,.27-1.22,1.44,1.44,0,0,0-.44-1.12,1.84,1.84,0,0,0-1.56-.33C315.6,259.89,315.42,260,315.42,260Z"/><path class="cls-5" d="M211.42,543.63,204.59,572s26.55,16.47,25.8,21.84l-55.5-11.27,8.83-44.65Z"/><path class="cls-3" d="M187.92,566.12a2.31,2.31,0,0,0-2.09,2.27,2.21,2.21,0,0,0,2.23,2.09,2.43,2.43,0,0,0,2.2-2.41,2.3,2.3,0,0,0-2.56-1.92"/><path class="cls-4" d="M174.89,582.58l1.07-4.46,52.81,12.47s2.25,1.58,1.62,3.26Z"/><path class="cls-4" d="M205.55,571.91c-.07.27-1.45.12-3,.72s-2.45,1.59-2.67,1.44.49-1.65,2.33-2.34S205.66,571.67,205.55,571.91Z"/><path class="cls-4" d="M210.88,575.5c0,.27-1.26.5-2.41,1.46s-1.67,2.11-1.93,2-.13-1.64,1.32-2.8S210.93,575.24,210.88,575.5Z"/><path class="cls-4" d="M212.77,583.14c-.26,0-.36-1.43.64-2.77s2.38-1.67,2.45-1.43-.87.89-1.68,2S213.05,583.17,212.77,583.14Z"/><path class="cls-4" d="M206.39,565.27c-.17.22-1.33-.4-2.89-.61s-2.84,0-2.94-.23,1.25-1,3.08-.72S206.56,565.08,206.39,565.27Z"/><path class="cls-5" d="M192.48,551.09l0,29.19s29.68,9.77,30.21,15.16l-56.59,2.1-1.92-45.48Z"/><g class="cls-12"><path class="cls-4" d="M166.13,597.54V593l54.26-.3s2.56,1,2.34,2.79Z"/></g><path class="cls-4" d="M193.42,580c0,.27-1.38.45-2.7,1.39s-2,2.13-2.27,2,.09-1.71,1.72-2.82S193.47,579.7,193.42,580Z"/><path class="cls-4" d="M199.45,582.19c.07.27-1.11.78-2,2s-1.12,2.45-1.39,2.44-.51-1.55.63-3S199.43,581.93,199.45,582.19Z"/><path class="cls-4" d="M203.08,589.17c-.25.07-.68-1.3,0-2.84s1.92-2.19,2-2-.65,1.06-1.16,2.34S203.35,589.13,203.08,589.17Z"/><path class="cls-4" d="M192.67,573.31c-.1.25-1.39-.08-2.94.08s-2.76.7-2.91.47,1-1.26,2.82-1.43S192.8,573.08,192.67,573.31Z"/><path class="cls-4" d="M147.91,339.5l1,23L159.16,452s-1.89,43.7-3.16,68.38c-1.09,21.44,3.93,58.45,3.93,58.45l36-1.62,7.32-124.52L207.79,375l12.33-35.81Z"/><polygon class="cls-4" points="244.8 339.26 241.64 464.76 209.42 560.13 208 565.85 186.25 561.61 192.3 339.08 244.8 339.26"/><path class="cls-5" d="M207.73,376a2.66,2.66,0,0,1,0,.52c0,.38,0,.89,0,1.53,0,1.38,0,3.36.08,5.88.08,5.1.05,12.49-.06,21.61-.27,18.25-1.17,43.46-3.09,71.25s-4.18,52.9-5.88,71.07c-.87,9.06-1.58,16.4-2.07,21.51-.26,2.51-.46,4.48-.6,5.85-.07.64-.13,1.14-.17,1.52a2.92,2.92,0,0,1-.08.51,2.92,2.92,0,0,1,0-.52c0-.37.06-.88.11-1.52.11-1.38.27-3.35.47-5.86.44-5.12,1.07-12.47,1.85-21.53,1.58-18.18,3.82-43.29,5.69-71.08s2.89-53,3.28-71.2c.17-9.12.28-16.51.28-21.61,0-2.52,0-4.5,0-5.88,0-.64,0-1.15,0-1.52A3.6,3.6,0,0,1,207.73,376Z"/><path class="cls-5" d="M175.19,340.57a4.47,4.47,0,0,1-.09,1.33,21.21,21.21,0,0,1-.86,3.52A23,23,0,0,1,157,360.64a20.12,20.12,0,0,1-3.61.41A4.51,4.51,0,0,1,152,361c0-.13,1.9-.09,4.84-.8a23.9,23.9,0,0,0,16.94-14.91C174.86,342.44,175.07,340.54,175.19,340.57Z"/><path class="cls-5" d="M208.61,344.53a1.86,1.86,0,1,1-1.94-1.77A1.86,1.86,0,0,1,208.61,344.53Z"/><path class="cls-5" d="M241.05,360.6a11.76,11.76,0,0,1-2.65-2.27,28.44,28.44,0,0,1-4.84-6.88,28.9,28.9,0,0,1-2.64-8,12.22,12.22,0,0,1-.24-3.48,33.06,33.06,0,0,1,.71,3.39,34.35,34.35,0,0,0,2.77,7.78,33.8,33.8,0,0,0,4.6,6.86C240.14,359.62,241.12,360.52,241.05,360.6Z"/><path class="cls-13" d="M208.47,160.11,177.4,136.25l-5.86,10s-25.25,20.3-30,25.92L152,258.71s-4.93,46-5.22,49.62-3,35.34-3,35.34c-.28,6,5,13,6,13,0,0,4.77-6.26,10.19-6.05s42.55,8.46,42.55,8.46l44.12-11.9L238,259.59l-4.22-58.67-4.9-22.3-9.19-8.38-4.83-14.62s-1.23,18.56-1.49,17.89S208.47,160.11,208.47,160.11Z"/><path class="cls-4" d="M172.41,147.71a9.4,9.4,0,0,0,1.27,1.58c.86,1,2.14,2.36,3.77,4,3.26,3.34,8,7.69,13.13,12.56,2.53,2.42,4.91,4.76,7,7l.25.26.24-.26c3.16-3.45,5.4-6.7,7.14-8.87l2-2.54a4.55,4.55,0,0,0,.7-.93,5.18,5.18,0,0,0-.86.79c-.54.54-1.29,1.36-2.19,2.42-1.84,2.1-4.17,5.32-7.32,8.67h.49c-2.07-2.25-4.44-4.62-7-7-5.15-4.89-9.93-9.17-13.27-12.4-1.67-1.6-3-2.93-3.93-3.84A10.57,10.57,0,0,0,172.41,147.71Z"/><path class="cls-4" d="M230.09,303.43a1.26,1.26,0,0,0,0-.34c0-.27-.05-.59-.08-1-.09-.93-.22-2.2-.38-3.81-.37-3.37-.9-8.13-1.55-14-1.35-11.81-3.28-28.11-5.53-46.11s-4.39-34.27-6.09-46c-.85-5.88-1.6-10.63-2.15-13.91l-.69-3.77c-.08-.39-.14-.71-.2-1a1,1,0,0,0-.09-.33,1.74,1.74,0,0,0,0,.34c0,.27.08.59.13,1,.13.92.32,2.19.55,3.78.46,3.36,1.12,8.1,1.92,13.94,1.57,11.78,3.64,28.07,5.89,46.06s4.26,34.23,5.73,46.08c.75,5.85,1.35,10.6,1.78,14,.22,1.6.39,2.87.52,3.8l.15,1C230.05,303.32,230.07,303.43,230.09,303.43Z"/><g class="cls-14"><path d="M238.81,267.71c-3.32,1.85-7.17,2.61-10.42,4.56a38.12,38.12,0,0,0-6.23,5.2c-13.66,12.86-31.13,22.44-49.85,23.61-6.43.4-13.36-.36-18.34-4.44-2.74-2.25-4.78-5.84-3.91-9.27,1.05-4.18,5.66-6.24,9.71-7.71L197.63,266c8-2.88,16-5.78,24.29-7.48a87.88,87.88,0,0,1,17-1.77"/></g><path class="cls-4" d="M198.63,323.18c.11.17,9.15-5.25,20.19-12.1s19.91-12.54,19.81-12.71-9.14,5.25-20.19,12.1S198.52,323,198.63,323.18Z"/><path class="cls-4" d="M229.33,351.9a9.64,9.64,0,0,0-.13-1.8c-.13-1.3-.29-3-.49-4.9-.37-4.14-.66-9.87-.86-16.22s-.44-12.09-.65-16.25c-.11-2-.2-3.61-.28-4.92a8.6,8.6,0,0,0-.2-1.8,9.27,9.27,0,0,0-.08,1.81c0,1.31,0,3,.05,4.93.07,4.16.22,9.91.43,16.26s.58,12.1,1.09,16.24c.24,2.07.5,3.74.71,4.89A8,8,0,0,0,229.33,351.9Z"/><g class="cls-14"><path d="M181.91,253.94c-3.79-12.28-4.12-26.57-4.35-39.34-1.89,8.87-3.85,22.38-5.32,31.68l4,8.66Z"/></g><g class="cls-14"><path d="M213.34,173.51a5.6,5.6,0,0,1-1.51-1c-1.34-1.76-2.13-3.89-3.44-5.67a102.05,102.05,0,0,0-9.29,10.74c-4.69-4.47-9.38-8.94-13.65-13.81a110.88,110.88,0,0,1-9.4-12.39l21.76,21.23,10.66-12.49Z"/></g><path class="cls-4" d="M214.4,162.05c-.14.1.88,2.1,2.18,4.62s3,4.25,3.15,4.09-1.25-1.9-2.53-4.41S214.58,161.93,214.4,162.05Z"/><path class="cls-4" d="M183.08,178.61a4.88,4.88,0,0,0-.77-1.31,24.28,24.28,0,0,0-2.72-3.15,50.84,50.84,0,0,0-4.68-4,21.83,21.83,0,0,0-6.55-3.82,18.14,18.14,0,0,0-7.58-.43,53.45,53.45,0,0,0-6,1.2c-1.7.4-3.08.73-4,1a6.58,6.58,0,0,0-1.45.45,6.24,6.24,0,0,0,1.52-.18c1-.16,2.35-.42,4-.75s3.73-.81,6-1a18.05,18.05,0,0,1,7.29.45,22.13,22.13,0,0,1,6.36,3.67c1.84,1.37,3.45,2.66,4.73,3.83C181.8,176.86,183,178.68,183.08,178.61Z"/><path class="cls-10" d="M227.81,246.48,227.62,264s-25.39,13.28-42.16,18.4-36.78,5.36-36.78,5.36L154.54,259Z"/><path class="cls-10" d="M278.12,247.81a3.7,3.7,0,0,0-2.05-3.49c-2.31-1.29-7.18-4.16-7.18-4.16l-14.37-.65-26.71,7L227.62,264s13.78.13,17-.13,11.93-3.5,11.93-3.5,15,1.23,15.66.37,1.58-1.85.6-2.4-12.57-3-12.57-3l7.66-.94s11.34,1.86,12.15,1.47,1.82-1.86,1.06-2.89l-.76-1s.61-2.16-1.31-2.91l-1.09-.3Z"/><path class="cls-11" d="M257.71,248.51a9.17,9.17,0,0,0,3.47.42c2.15.07,5.16-.41,8.27.35a42.74,42.74,0,0,1,4.29,1.59,31.7,31.7,0,0,0,3.63,1.14,12.37,12.37,0,0,0,3.45.54,32.67,32.67,0,0,0-3.33-1c-1-.32-2.22-.73-3.52-1.26a38.18,38.18,0,0,0-4.35-1.67,16.79,16.79,0,0,0-4.68-.39c-1.43.06-2.71.18-3.77.23C259,248.58,257.72,248.41,257.71,248.51Z"/><path class="cls-11" d="M258.77,244.43a7.35,7.35,0,0,0,3.11.26c1.92-.06,4.54-.46,7.24.62s5.19,2,7,2.59a14.77,14.77,0,0,0,3,.91,13.32,13.32,0,0,0-2.79-1.35c-1.77-.74-4.19-1.78-7-2.79a11.45,11.45,0,0,0-4.13-.73c-1.29,0-2.42.19-3.37.28C260,244.44,258.79,244.34,258.77,244.43Z"/><path class="cls-13" d="M141.58,172.13s-7.16,12.62-8.08,18.65-1.09,69.27.16,70.41a32.84,32.84,0,0,0,3.41,2.54s-6.81,1.81-4.56,5.3a63.42,63.42,0,0,0,4.47,6.09s1.56,11.62,2.85,11.86,8.74,4,8.74,4,20.44-12.23,22.06-18.29,5.58-18.23,5.58-18.23l-4-8.21L180.73,195s5-16.53-5.65-22.71S145.18,165.25,141.58,172.13Z"/><path class="cls-4" d="M179.12,204.69a4.17,4.17,0,0,0-.18.77l-.43,2.26c-.36,2-.87,4.91-1.5,8.52-1.26,7.38-3,17.75-5.09,30l0,.1,0,.1c1.25,2.62,2.58,5.38,3.94,8.22v-.26c-1.8,5.79-3.68,12.1-5.72,18.51l-.35.82-.51.77a12.1,12.1,0,0,1-1.15,1.44,16.33,16.33,0,0,1-1.29,1.34,18,18,0,0,1-1.35,1.27c-1.83,1.65-3.76,3.14-5.69,4.56-3.85,2.83-7.71,5.36-11.42,7.63h.32c-1.86-.93-3.69-1.83-5.48-2.66-.89-.41-1.77-.82-2.68-1.16l-.35-.12a3.28,3.28,0,0,1-.32-.09,1.42,1.42,0,0,1-.28-.39,8.57,8.57,0,0,1-.46-1.26,84.57,84.57,0,0,1-1.92-9.94V275l-.05-.06c-1.12-1.33-2.12-2.66-3-3.91-.45-.63-.88-1.24-1.27-1.84a7.23,7.23,0,0,1-.5-.88,2.39,2.39,0,0,1-.1-.91,3.91,3.91,0,0,1,2.21-2.48,13.92,13.92,0,0,1,2.61-1.09l.25-.08-.21-.14c-1.2-.76-2.07-1.38-2.63-1.8a9.88,9.88,0,0,0-.85-.64s.05.07.18.2.32.3.59.53c.55.46,1.39,1.11,2.58,1.92l0-.22a13.16,13.16,0,0,0-2.7,1.05,7.18,7.18,0,0,0-1.45,1,3,3,0,0,0-1,1.71,2.69,2.69,0,0,0,.11,1.09,6,6,0,0,0,.52,1c.39.61.81,1.24,1.25,1.87.89,1.28,1.88,2.62,3,4l-.06-.13a83.19,83.19,0,0,0,1.85,10,9.16,9.16,0,0,0,.49,1.35,1.39,1.39,0,0,0,.6.69c.21.08.23.07.35.11l.32.12c.87.33,1.75.74,2.64,1.15,1.77.84,3.59,1.74,5.44,2.68l.17.09.15-.1c3.74-2.27,7.62-4.79,11.5-7.63,1.94-1.42,3.89-2.92,5.75-4.59.47-.41.94-.84,1.38-1.29s.91-.88,1.32-1.38a12,12,0,0,0,1.21-1.52c.18-.27.37-.53.55-.82l.4-.94c2.05-6.48,3.91-12.72,5.69-18.53l0-.13-.06-.12-4-8.21,0,.2c2-12.25,3.64-22.64,4.83-30,.56-3.63,1-6.51,1.32-8.56.13-.95.24-1.7.32-2.27A4.21,4.21,0,0,0,179.12,204.69Z"/><path class="cls-4" d="M136.72,263.5a3.05,3.05,0,0,0,1.08.39,10.06,10.06,0,0,0,3.14.33,5.14,5.14,0,0,0,2.14-.64,16.76,16.76,0,0,0,2.11-1.34c1.41-1,2.84-2.28,4.43-3.47,3.17-2.41,6.14-4.46,8.28-6a25.78,25.78,0,0,0,3.39-2.54,22.49,22.49,0,0,0-3.67,2.12c-2.22,1.4-5.25,3.39-8.44,5.82-1.6,1.2-3,2.47-4.39,3.51a8.44,8.44,0,0,1-3.91,2,12.22,12.22,0,0,1-3-.09A4,4,0,0,0,136.72,263.5Z"/><path class="cls-4" d="M137,275.12a3.23,3.23,0,0,0,1.35.25,7.15,7.15,0,0,0,3.67-.83,61.29,61.29,0,0,0,10.06-7,100,100,0,0,0,8.73-8.58c1.05-1.16,1.89-2.11,2.45-2.78a5.23,5.23,0,0,0,.83-1.08,37.19,37.19,0,0,0-3.65,3.51c-2.2,2.21-5.22,5.29-8.83,8.38a76.19,76.19,0,0,1-9.83,7.1,7.44,7.44,0,0,1-3.43,1A12.32,12.32,0,0,0,137,275.12Z"/><g class="cls-14"><path d="M161,250.6a25,25,0,0,1-4.82,5.61l-8.56,8.16c-1.64,1.56-3.59,3.24-5.84,3a7.54,7.54,0,0,1-3.18-1.32c-.89-.56-1.89-1.41-1.69-2.45a8.76,8.76,0,0,0,7.55-1.14,23.09,23.09,0,0,0,2.62-2.33c4-3.85,9-6.64,13.86-9.39"/></g><path class="cls-11" d="M226.37,264.18a8.67,8.67,0,0,0,1.77.13l4.82.08,7.16,0h4.23a11.51,11.51,0,0,0,2.25-.48l2.21-.64c3.07-.9,6-1.82,8.58-2.66l-.12,0c4,.18,7.35.31,9.74.38l2.78.05a3.5,3.5,0,0,0,1-.05,3.46,3.46,0,0,0-1-.16l-2.77-.24c-2.38-.18-5.75-.41-9.72-.65h-.06l-.06,0-8.58,2.6-2.21.64a11,11,0,0,1-2.09.47l-4.22.05-7.14.13-4.81.15A8.44,8.44,0,0,0,226.37,264.18Z"/><path class="cls-4" d="M1153.6,597.07c0,.26-258,.47-576.19.47s-576.25-.21-576.25-.47,258-.47,576.25-.47S1153.6,596.81,1153.6,597.07Z"/></svg>