<svg id="Capa_2" data-name="Capa 2" xmlns="http://www.w3.org/2000/svg" viewBox="0 0 181 181"><defs><style>.cls-1{fill:#1a7fcd;}</style></defs><title>ugiland - casos de exito</title><path class="cls-1" d="M162.72,83.62H152.55V66.15A6.18,6.18,0,0,0,146.37,60H142V12.69H39v5.25H31.08V23.2H23.2V41.59H18.87a6.18,6.18,0,0,0-6.18,6.17V161.53h0v1a5.72,5.72,0,0,0,5.73,5.77H136a5.65,5.65,0,0,0,5.47-4l26.83-73.57v-.29C168.31,86.48,166,83.62,162.72,83.62ZM142,63.23h4.33a2.93,2.93,0,0,1,2.93,2.92V83.62H142ZM42.21,15.94h96.58V83.62H45.13a5.61,5.61,0,0,0-1.5.22l-1.42.39ZM34.33,21.2H39V89.59l-4.63,12.68Zm-7.88,5.25h4.63v84.74l-4.63,12.69ZM15.94,47.76a2.93,2.93,0,0,1,2.93-2.92H23.2v87.72l-7.26,19.79ZM138.39,163.27a2.47,2.47,0,0,1-2.38,1.79H18.43a2.49,2.49,0,0,1-2-1,2.42,2.42,0,0,1-.5-1.91l0-.11,23-63h0l3.79-10.42a2.47,2.47,0,0,1,2.38-1.8H162.72c.61,0,2.07.3,2.31,3.07l0,.22Z"/><path class="cls-1" d="M59,55.35h63a1.63,1.63,0,1,0,0-3.26H59a1.63,1.63,0,1,0,0,3.26Z"/><path class="cls-1" d="M59,37H85.25a1.63,1.63,0,0,0,0-3.26H59A1.63,1.63,0,1,0,59,37Z"/><path class="cls-1" d="M59,73.74h63a1.63,1.63,0,1,0,0-3.26H59a1.63,1.63,0,0,0,0,3.26Z"/></svg>