<svg id="Capa_2" data-name="Capa 2" xmlns="http://www.w3.org/2000/svg" viewBox="0 0 181 181"><defs><style>.cls-1{fill:#1a7fcd;}</style></defs><title>ugiland - casos de exito</title><path class="cls-1" d="M44.22,79.42l10.08,5a1.51,1.51,0,0,0,2-.68,1.46,1.46,0,0,0,.09-1.16,1.52,1.52,0,0,0-.76-.87l-10.08-5a1.51,1.51,0,0,0-1.16-.08,1.47,1.47,0,0,0-.88.76A1.53,1.53,0,0,0,44.22,79.42Z"/><path class="cls-1" d="M55,101.73a1.44,1.44,0,0,0-.67.16l-10.08,5a1.57,1.57,0,0,0-.76.88,1.52,1.52,0,0,0,2.12,1.84l10.08-5a1.52,1.52,0,0,0,.76-.87,1.46,1.46,0,0,0-.09-1.16A1.5,1.5,0,0,0,55,101.73Z"/><path class="cls-1" d="M70.26,140.2H120.8a6.57,6.57,0,0,0,6.56-6.56v-30.4A6.59,6.59,0,0,0,123,97.06l-.67-.23V82.93a26.79,26.79,0,0,0-53.58,0v5a1.52,1.52,0,0,0,1.52,1.52H80.33A1.52,1.52,0,0,0,81.85,88v-5a13.68,13.68,0,0,1,27.36,0V96.69H70.26a6.56,6.56,0,0,0-6.56,6.55v30.4A6.57,6.57,0,0,0,70.26,140.2ZM95.45,66.29A16.66,16.66,0,0,0,78.81,82.93v3.52h-7V82.93a23.75,23.75,0,0,1,47.5,0V96.69h-7V82.93A16.74,16.74,0,0,0,95.45,66.29ZM66.74,103.24a3.52,3.52,0,0,1,3.52-3.51H120.8a3.52,3.52,0,0,1,3.52,3.51v30.4a3.53,3.53,0,0,1-3.52,3.52H70.26a3.53,3.53,0,0,1-3.52-3.52Z"/><path class="cls-1" d="M93.26,119.5l.67.24v8.86a1.52,1.52,0,1,0,3,0v-8.86l.67-.24a6.56,6.56,0,1,0-4.37,0Zm2.19-9.7a3.52,3.52,0,1,1-3.52,3.52A3.52,3.52,0,0,1,95.45,109.8Z"/><path class="cls-1" d="M44.9,94.69H55a1.52,1.52,0,0,0,0-3H44.9a1.52,1.52,0,0,0,0,3Z"/><path class="cls-1" d="M156.18,12.69H24.82A12.17,12.17,0,0,0,12.69,24.82V156.18a12.16,12.16,0,0,0,12.13,12.13H156.18a12.16,12.16,0,0,0,12.13-12.13V24.82A12.17,12.17,0,0,0,156.18,12.69Zm8.88,143.49a8.9,8.9,0,0,1-8.88,8.88H24.82a8.9,8.9,0,0,1-8.88-8.88V37H165.06Zm0-122.48H15.94V24.82a8.9,8.9,0,0,1,8.88-8.88H156.18a8.9,8.9,0,0,1,8.88,8.88Z"/><path class="cls-1" d="M30.08,23.2H27.45a1.63,1.63,0,1,0,0,3.25h2.63a1.63,1.63,0,0,0,0-3.25Z"/><path class="cls-1" d="M41.2,23.33h0a1.38,1.38,0,0,0-1.17,0,2,2,0,0,0-.61.38,1.66,1.66,0,0,0,0,2.29,2.27,2.27,0,0,0,.54.33,1.54,1.54,0,0,0,1.21,0,2.27,2.27,0,0,0,.6-.38,1.66,1.66,0,0,0,0-2.29A2,2,0,0,0,41.2,23.33Z"/><path class="cls-1" d="M51.71,23.33h0a1.38,1.38,0,0,0-1.17,0,2,2,0,0,0-.61.38,1.66,1.66,0,0,0,0,2.29,2.27,2.27,0,0,0,.54.33,1.54,1.54,0,0,0,1.21,0,2.27,2.27,0,0,0,.6-.38,1.66,1.66,0,0,0,0-2.29A2,2,0,0,0,51.71,23.33Z"/><path class="cls-1" d="M153.55,23.2H64.23a1.63,1.63,0,1,0,0,3.25h89.32a1.63,1.63,0,1,0,0-3.25Z"/></svg>