<svg id="Capa_2" data-name="Capa 2" xmlns="http://www.w3.org/2000/svg" viewBox="0 0 1152.44 609.84"><defs><style>.cls-1{fill:#1a2e35;}.cls-2{fill:#375a64;}.cls-3{fill:#f5f5f5;}.cls-4{fill:#e1e1e1;}.cls-5,.cls-6{fill:#fff;}.cls-6{opacity:0.85;}.cls-7{fill:#ffbf9d;}.cls-8{fill:#ff9a6c;}.cls-9{fill:#00a99d;}.cls-10{fill:#333;}.cls-11{opacity:0.3;}.cls-12{fill:#39b54a;}.cls-13{fill:none;stroke:#39b54a;stroke-miterlimit:10;}</style></defs><title>ugiland - casos de exito</title><path class="cls-1" d="M1038.64,558.93c0,.2-205.27.36-458.41.36s-458.46-.16-458.46-.36,205.22-.35,458.46-.35S1038.64,558.74,1038.64,558.93Z"/><path class="cls-2" d="M231.7,81.58h700a6.74,6.74,0,0,1,6.74,6.74V539.51a14.57,14.57,0,0,1-14.57,14.57H238.52a14.57,14.57,0,0,1-14.57-14.57V89.33A7.75,7.75,0,0,1,231.7,81.58Z"/><path class="cls-2" d="M194.07,519.13H968.19a0,0,0,0,1,0,0v27.62a13.72,13.72,0,0,1-13.72,13.72H207.79a13.72,13.72,0,0,1-13.72-13.72V519.13A0,0,0,0,1,194.07,519.13Z"/><rect class="cls-3" x="243.13" y="100.35" width="674.15" height="399.02"/><polygon class="cls-1" points="510.77 519.13 520.38 534.41 655.54 534.41 664.47 519.13 510.77 519.13"/><rect class="cls-1" x="224.06" y="518.99" width="714.51" height="2.28"/><path class="cls-4" d="M438.11,81.58H363.76V55.4c0-18.49,15-34.12,33.45-34.12l40.9.65Z"/><path class="cls-5" d="M391.59,21.34s42.24-3.83,42.24,51.26V501.17H765.37V57a36.4,36.4,0,0,0-36.48-36.4Z"/><path class="cls-1" d="M391.59,21.34l245.28-.79,59.39-.17,31.6-.08a37,37,0,0,1,15.94,3.14A37.58,37.58,0,0,1,757,33.36a36.86,36.86,0,0,1,7.58,15,34.68,34.68,0,0,1,.77,4.21c.2,1.42.18,2.86.28,4.3,0,2.85,0,5.72,0,8.59v35.06q0,35.58,0,73.17c0,100.15,0,210.25,0,325.82v2h-.36l-331.54,0h-.32v-.33c.05-148.39.09-274.38.13-363.29,0-22.22,0-42.13,0-59.49,0-4.34.05-8.52-.24-12.52a76.15,76.15,0,0,0-1.59-11.41,59,59,0,0,0-3.24-10,45.53,45.53,0,0,0-4.76-8.22,36.19,36.19,0,0,0-12-10.26A39.3,39.3,0,0,0,401,22.12a41.74,41.74,0,0,0-7-.8c-1.59,0-2.4,0-2.4,0a21.85,21.85,0,0,1,2.4-.07,40.52,40.52,0,0,1,7,.74A39.19,39.19,0,0,1,412,25.83,36.22,36.22,0,0,1,424,36.11a44.93,44.93,0,0,1,4.81,8.24,58.6,58.6,0,0,1,3.28,10,76.82,76.82,0,0,1,1.62,11.45c.3,4,.26,8.21.27,12.54,0,17.36,0,37.27,0,59.49,0,88.91.08,214.9.13,363.29l-.33-.33,331.54,0-.35.35v-1.64c0-115.57,0-225.67,0-325.82q0-37.56,0-73.17,0-17.79,0-35.06c-.09-5.74.41-11.51-1-17a36,36,0,0,0-7.44-14.78,36.92,36.92,0,0,0-13-9.77,36.52,36.52,0,0,0-15.71-3.1l-31.66.06L636.7,21Z"/><path class="cls-1" d="M743.56,228.83s0-.26,0-.77,0-1.28,0-2.3c0-2.06,0-5.17-.06-9.43l.1.1c-33.4.15-144.06.27-275.19.27h0l.37-.37v12.5l-.37-.37,194.94.15,58.72.11,16,.05,4.16,0,1.43,0-1.38,0-4.11,0-15.86.05-58.64.11-195.21.15H468V216h.38c131.13,0,241.79.11,275.19.27h.11v.1c0,4.29,0,7.41,0,9.49,0,1,0,1.76,0,2.28S743.56,228.83,743.56,228.83Z"/><path class="cls-1" d="M518.35,199.37c0,.2-12.09.36-27,.36s-27-.16-27-.36,12.09-.37,27-.37S518.35,199.16,518.35,199.37Z"/><path class="cls-1" d="M739.54,419.94s0-.26,0-.77,0-1.27,0-2.29c0-2.07,0-5.18-.06-9.44l.1.11c-33.4.15-144.06.26-275.19.26h0l.36-.37v12.5l-.36-.37,194.94.15,58.72.12,16,.05,4.16,0,1.43,0-1.38,0-4.11,0-15.87.05-58.63.11-195.21.16H464V407.08h.38c131.13,0,241.79.11,275.19.26h.1v.1c0,4.29,0,7.42-.06,9.5,0,1,0,1.75,0,2.27S739.54,419.94,739.54,419.94Z"/><path class="cls-1" d="M520.79,394.88c0,.2-12.1.36-27,.36s-27-.16-27-.36,12.09-.37,27-.37S520.79,394.67,520.79,394.88Z"/><path class="cls-1" d="M739.54,276.6s0-.26,0-.77,0-1.28,0-2.3c0-2.06,0-5.17-.06-9.43l.1.1c-33.4.16-144.06.27-275.19.27h0l.36-.37v12.5l-.36-.37,194.94.15,58.72.11,16,.06,4.16,0,1.43,0-1.38,0-4.11,0-15.87.05-58.63.11L464.34,277H464V263.73h.38c131.13,0,241.79.12,275.19.27h.1v.1c0,4.29,0,7.42-.06,9.49,0,1,0,1.76,0,2.28S739.54,276.6,739.54,276.6Z"/><path class="cls-1" d="M518.35,251.53c0,.21-12.09.37-27,.37s-27-.16-27-.37,12.09-.36,27-.36S518.35,251.33,518.35,251.53Z"/><path class="cls-1" d="M581.37,324.37s0-.29,0-.84,0-1.37,0-2.4c0-2.13,0-5.24-.09-9.26l.16.16c-20.33.12-65.12.21-117,.21h0c.16-.16-.37.37.36-.37h0v12.48l-.36-.37,83.05.16,24.85.11,6.75.05,1.76,0,.62,0a3.28,3.28,0,0,1-.57,0l-1.71,0-6.67.05-24.77.11-83.31.16H464V311.89h0c.73-.73.2-.2.37-.36h0c51.91,0,96.7.08,117,.21h.16v.15c0,4.06-.07,7.19-.09,9.35,0,1,0,1.8,0,2.37S581.37,324.37,581.37,324.37Z"/><path class="cls-1" d="M518.35,299.31c0,.2-12.09.36-27,.36s-27-.16-27-.36,12.09-.37,27-.37S518.35,299.1,518.35,299.31Z"/><path class="cls-1" d="M483.82,369.8a7.29,7.29,0,0,1-.07-.94c0-.68,0-1.52-.07-2.54,0-2.27-.09-5.33-.15-9l.29.29-19.48.08.36-.37h0v6.46c0,2.09,0,4.11,0,6l-.33-.34c5.65,0,10.47.1,13.92.17l4.05.09a12.42,12.42,0,0,1,1.51.08,8.39,8.39,0,0,1-1.36.08l-4,.09c-3.43.07-8.34.14-14.14.17H464v-.34c0-1.92,0-3.94,0-6,0-1,0-2.1,0-3.18v-3.28h0l.37-.36,19.48.07h.29v.29c0,3.89-.1,7.05-.16,9.2,0,1-.05,1.82-.07,2.48A3.86,3.86,0,0,1,483.82,369.8Z"/><path class="cls-1" d="M509.54,369.8a7.29,7.29,0,0,1-.07-.94c0-.68,0-1.52-.07-2.54,0-2.27-.09-5.33-.15-9l.29.29-19.48.08.36-.37h0v6.46c0,2.09,0,4.11,0,6l-.33-.34c5.65,0,10.47.1,13.92.17l4,.09a12.42,12.42,0,0,1,1.51.08,8.39,8.39,0,0,1-1.36.08l-4,.09c-3.43.07-8.34.14-14.14.17h-.34v-.34c0-1.92,0-3.94,0-6,0-1,0-2.1,0-3.18v-3.28h0l.37-.36,19.48.07h.29v.29c0,3.89-.1,7.05-.16,9.2,0,1-.05,1.82-.07,2.48A3.86,3.86,0,0,1,509.54,369.8Z"/><path class="cls-1" d="M535.26,369.8a7.29,7.29,0,0,1-.07-.94c0-.68,0-1.52-.07-2.54,0-2.27-.09-5.33-.15-9l.29.29-19.48.08.36-.37h0v6.46c0,2.09,0,4.11,0,6l-.33-.34c5.65,0,10.47.1,13.92.17l4,.09a12.42,12.42,0,0,1,1.51.08,8.39,8.39,0,0,1-1.36.08l-4,.09c-3.43.07-8.34.14-14.14.17h-.34v-.34c0-1.92,0-3.94,0-6,0-1,0-2.1,0-3.18v-3.28h0l.37-.36,19.48.07h.29v.29c0,3.89-.1,7.05-.16,9.2,0,1,0,1.82-.07,2.48A3.86,3.86,0,0,1,535.26,369.8Z"/><path class="cls-1" d="M561,369.8a7.29,7.29,0,0,1-.07-.94c0-.68,0-1.52-.07-2.54,0-2.27-.09-5.33-.15-9l.29.29-19.48.08.36-.37h0v6.46c0,2.09,0,4.11,0,6l-.34-.34c5.65,0,10.47.1,13.92.17l4.05.09a12.42,12.42,0,0,1,1.51.08,8.39,8.39,0,0,1-1.36.08l-4,.09c-3.42.07-8.34.14-14.14.17h-.34v-.34c0-1.92,0-3.94,0-6,0-1,0-2.1,0-3.18v-3.28h0l.37-.36L561,357h.29v.29c0,3.89-.1,7.05-.15,9.2,0,1-.06,1.82-.08,2.48A3.86,3.86,0,0,1,561,369.8Z"/><path class="cls-1" d="M586.7,369.8a7.29,7.29,0,0,1-.07-.94c0-.68,0-1.52-.07-2.54,0-2.27-.09-5.33-.15-9l.29.29-19.48.08.36-.37h0v6.46c0,2.09,0,4.11,0,6l-.34-.34c5.65,0,10.47.1,13.92.17l4.05.09a12.42,12.42,0,0,1,1.51.08,8.39,8.39,0,0,1-1.36.08l-4,.09c-3.42.07-8.34.14-14.14.17h-.34v-.34c0-1.92,0-3.94,0-6,0-1,0-2.1,0-3.18v-3.28h0l.37-.36,19.48.07H587v.29c0,3.89-.1,7.05-.15,9.2,0,1-.06,1.82-.08,2.48A3.86,3.86,0,0,1,586.7,369.8Z"/><path class="cls-1" d="M612.42,369.8a7.29,7.29,0,0,1-.07-.94c0-.68,0-1.52-.07-2.54,0-2.27-.09-5.33-.15-9l.29.29-19.48.08.36-.37h0v6.46c0,2.09,0,4.11,0,6l-.34-.34c5.65,0,10.47.1,13.92.17l4,.09a12.42,12.42,0,0,1,1.51.08,8.39,8.39,0,0,1-1.36.08l-4,.09c-3.42.07-8.34.14-14.14.17h-.34v-.34c0-1.92,0-3.94,0-6,0-1,0-2.1,0-3.18v-3.28h0l.37-.36,19.48.07h.29v.29c0,3.89-.1,7.05-.15,9.2,0,1-.06,1.82-.08,2.48A3.86,3.86,0,0,1,612.42,369.8Z"/><path class="cls-1" d="M638.14,369.8a7.29,7.29,0,0,1-.07-.94c0-.68,0-1.52-.07-2.54,0-2.27-.09-5.33-.15-9l.29.29-19.48.08.37-.37h0v6.46c0,2.09,0,4.11,0,6l-.34-.34c5.65,0,10.47.1,13.92.17l4,.09a12.42,12.42,0,0,1,1.51.08,8.23,8.23,0,0,1-1.36.08l-4,.09c-3.42.07-8.34.14-14.14.17h-.34v-.34c0-1.92,0-3.94,0-6,0-1,0-2.1,0-3.18v-3.28h0l.37-.36,19.48.07h.29v.29c0,3.89-.1,7.05-.15,9.2,0,1-.06,1.82-.08,2.48A3.86,3.86,0,0,1,638.14,369.8Z"/><path class="cls-1" d="M663.86,369.8a7.29,7.29,0,0,1-.07-.94c0-.68,0-1.52-.07-2.54,0-2.27-.09-5.33-.15-9l.29.29-19.48.08.37-.37h0v6.46c0,2.09,0,4.11,0,6l-.34-.34c5.65,0,10.47.1,13.92.17l4.05.09a12.42,12.42,0,0,1,1.51.08,8.23,8.23,0,0,1-1.36.08l-4,.09c-3.42.07-8.34.14-14.14.17H644v-.34c0-1.92,0-3.94,0-6,0-1,0-2.1,0-3.18v-3.28h0l.37-.36,19.48.07h.29v.29c0,3.89-.1,7.05-.15,9.2,0,1-.06,1.82-.08,2.48A3.86,3.86,0,0,1,663.86,369.8Z"/><path class="cls-1" d="M689.58,369.8a6.48,6.48,0,0,1-.06-.94c0-.68,0-1.52-.08-2.54,0-2.27-.09-5.33-.15-9l.29.29-19.48.08c-.08.08.69-.7.37-.37h0V359c0,.55,0,1.1,0,1.64v3.18c0,2.09,0,4.11,0,6l-.34-.34c5.65,0,10.47.1,13.92.17l4.05.09a12.42,12.42,0,0,1,1.51.08,8.23,8.23,0,0,1-1.36.08l-4,.09c-3.42.07-8.34.14-14.14.17h-.34v-.34c0-1.92,0-3.94,0-6,0-1,0-2.1,0-3.18v-3.28h0l.37-.36,19.48.07h.29v.29c0,3.89-.1,7.05-.15,9.2,0,1-.06,1.82-.08,2.48A3.86,3.86,0,0,1,689.58,369.8Z"/><path class="cls-1" d="M715.3,369.8a6.48,6.48,0,0,1-.06-.94c0-.68,0-1.52-.08-2.54,0-2.27-.09-5.33-.15-9l.29.29-19.48.08c-.08.08.69-.7.37-.37h0V359c0,.55,0,1.1,0,1.64v3.18c0,2.09,0,4.11,0,6l-.34-.34c5.65,0,10.47.1,13.92.17l4,.09a12.42,12.42,0,0,1,1.51.08,8.23,8.23,0,0,1-1.36.08l-4,.09c-3.43.07-8.35.14-14.15.17h-.34v-.34c0-1.92,0-3.94,0-6,0-1,0-2.1,0-3.18v-3.28h0l.37-.36,19.48.07h.29v.29c0,3.89-.1,7.05-.15,9.2,0,1-.06,1.82-.08,2.48A3.86,3.86,0,0,1,715.3,369.8Z"/><path class="cls-1" d="M741,369.8a6.48,6.48,0,0,1-.06-.94c0-.68-.05-1.52-.08-2.54,0-2.27-.09-5.33-.15-9l.29.29-19.48.08.37-.37h0V359c0,.55,0,1.1,0,1.64v3.18c0,2.09,0,4.11,0,6l-.34-.34c5.65,0,10.47.1,13.92.17l4,.09a12.42,12.42,0,0,1,1.51.08,8.23,8.23,0,0,1-1.36.08l-4,.09c-3.43.07-8.35.14-14.15.17h-.34v-.34c0-1.92,0-3.94,0-6,0-1,0-2.1,0-3.18v-3.28h0l.37-.36L741,357h.29v.29c0,3.89-.1,7.05-.15,9.2,0,1-.06,1.82-.08,2.48A3.86,3.86,0,0,1,741,369.8Z"/><path class="cls-1" d="M520.79,344.74c0,.2-12.1.36-27,.36s-27-.16-27-.36,12.09-.37,27-.37S520.79,344.53,520.79,344.74Z"/><path class="cls-1" d="M737.59,324.37s0-.29,0-.84,0-1.37,0-2.4c0-2.13,0-5.24-.09-9.26l.16.16c-20.33.12-65.12.21-117,.21h0c.16-.16-.37.37.36-.37h0v12.48l-.37-.37,83.06.16,24.85.11,6.75.05,1.76,0,.62,0a3.39,3.39,0,0,1-.57,0l-1.71,0-6.67.05-24.77.11-83.32.16h-.36V311.89h0c.73-.73.2-.2.37-.36h0c51.91,0,96.7.08,117,.21h.16v.15c0,4.06-.06,7.19-.08,9.35,0,1,0,1.8,0,2.37S737.59,324.37,737.59,324.37Z"/><path class="cls-1" d="M677,299.31c0,.2-12.09.36-27,.36s-27-.16-27-.36,12.09-.37,27-.37S677,299.1,677,299.31Z"/><rect class="cls-6" x="444.37" y="81.58" width="308.67" height="415.72"/><path class="cls-1" d="M313.7,250.41c-3.35-7-6.68-14-8.77-21.44S302,213.59,303.7,206c.26-1.14,2.72-8.91,3.9-8.95.83,0-.38,7.07.14,7.73,4.91,6.31,7.1,14.4,7.52,22.39a104.37,104.37,0,0,1-1.56,23.2"/><path class="cls-7" d="M360.87,315.81c-11.92,1.35-40.59-11.16-42.2-23L309,221.27c-3.2-19.12,5.26-36.93,24.46-39.61l1.79-.14a34.67,34.67,0,0,1,37,29c2.69,16.59,5.44,35,6.05,43.91,1.26,18.57-17.06,22.94-17.06,22.94s.47,4.29,1.14,9.71c1.51,12.17-.42,25.52-1.52,28.71Z"/><path class="cls-8" d="M361.25,277.39s-11.64,1.63-24.72-5.2c0,0,6.93,13.48,25.3,10.32Z"/><path class="cls-1" d="M365.35,226.68a2.65,2.65,0,0,1-2.34,2.88,2.55,2.55,0,0,1-2.92-2.17,2.66,2.66,0,0,1,2.34-2.88A2.53,2.53,0,0,1,365.35,226.68Z"/><path class="cls-1" d="M369,219c-.3.38-2.42-.95-5.27-.71s-4.83,1.83-5.16,1.5c-.17-.14.12-.79,1-1.53a7.36,7.36,0,0,1,4.1-1.63,7,7,0,0,1,4.24,1C368.78,218.27,369.12,218.87,369,219Z"/><path class="cls-1" d="M338.56,228.78a2.65,2.65,0,0,1-2.34,2.87,2.53,2.53,0,0,1-2.92-2.17,2.65,2.65,0,0,1,2.33-2.87A2.54,2.54,0,0,1,338.56,228.78Z"/><path class="cls-1" d="M341.09,221.94c-.3.37-2.43-.95-5.28-.72s-4.82,1.83-5.16,1.51c-.16-.15.12-.8,1-1.53a7.26,7.26,0,0,1,4.09-1.64,7,7,0,0,1,4.24,1C340.89,221.17,341.24,221.77,341.09,221.94Z"/><path class="cls-1" d="M353.07,243c0-.16,1.72-.61,4.56-1.21.72-.13,1.4-.33,1.48-.84a3.73,3.73,0,0,0-.66-2.12c-.82-1.7-1.69-3.49-2.59-5.37-3.63-7.65-6.31-14-6-14.11s3.5,5.95,7.12,13.6q1.31,2.84,2.51,5.41a4.18,4.18,0,0,1,.6,2.82,1.81,1.81,0,0,1-1.11,1.16,4.84,4.84,0,0,1-1.22.27C354.88,243,353.09,243.18,353.07,243Z"/><path class="cls-1" d="M340,211.3c-.33.76-3.16.22-6.53.42s-6.14.94-6.54.22c-.18-.35.34-1.05,1.48-1.73a10.85,10.85,0,0,1,4.92-1.39,10.71,10.71,0,0,1,5,.91C339.54,210.3,340.12,210.94,340,211.3Z"/><path class="cls-1" d="M367.76,212.42c-.53.71-2.91.26-5.7.49s-5.1.93-5.71.3c-.27-.3,0-1,1-1.7a9.15,9.15,0,0,1,4.53-1.5,8.88,8.88,0,0,1,4.67.87C367.61,211.45,368,212.08,367.76,212.42Z"/><path class="cls-7" d="M311.63,234.88c-.33-.11-13.05-2.74-11.62,9.9s13.82,8.61,13.8,8.25S311.63,234.88,311.63,234.88Z"/><path class="cls-8" d="M309.41,248.67c-.06,0-.2.18-.55.39a2.24,2.24,0,0,1-1.65.22c-1.39-.34-2.75-2.33-3.07-4.61a7.42,7.42,0,0,1,.26-3.22,2.57,2.57,0,0,1,1.47-1.88,1.13,1.13,0,0,1,1.37.46c.21.33.15.6.22.61s.25-.24.09-.75a1.38,1.38,0,0,0-.59-.74,1.65,1.65,0,0,0-1.25-.18,3.1,3.1,0,0,0-2.08,2.22,7.52,7.52,0,0,0-.37,3.61c.37,2.54,1.94,4.77,3.83,5.1a2.39,2.39,0,0,0,2-.56C309.42,249,309.46,248.69,309.41,248.67Z"/><path class="cls-1" d="M361.54,190.59c1.91-1.38-5-7.25-10.33-8.92-8-2.53-19.87-3.24-26.63-.41-8.14,3.42-14.63,8.46-17.93,16.65s-3.81,17.32-2.5,26.05c.4,2.66,1,5.42,2.71,7.5,2.11,2.58,5.71,3.93,6,7.8a5.3,5.3,0,0,0,1.78,3.7c2.61,2.18,5.16-.48,6.17-3,2.18-5.29,1.77-11.23,1.33-16.93-.32-4.05-.65-8.19-2.26-11.92-.87-2-2.11-3.9-2.87-6a7.63,7.63,0,0,1,.13-6.41,8.05,8.05,0,0,1,.9-1.16,13.28,13.28,0,0,1,12.77-4.08c7.42,1.65,20,3.94,22.91,1.14,4.14-4,5-6.43,5-6.43Z"/><path class="cls-1" d="M345.46,245.49c-.17,0-.19.75.18,1.81a7.11,7.11,0,0,0,2.74,3.43,11.79,11.79,0,0,0,3.94,1.69c1.06.24,1.73.27,1.79.1s-.52-.53-1.47-1a25,25,0,0,1-3.5-1.89C346.6,248,345.85,245.35,345.46,245.49Z"/><path class="cls-9" d="M312,236.53c.1.22.21.45.31.71C312.35,237.24,312.23,237,312,236.53Z"/><path class="cls-1" d="M399.57,460.9l-111.66,1.53S256.68,449.36,248.1,449s-25.61.74-33.48,13.42c-8.15,13.1-9.28,36.22,15.81,53,24.43,16.36,136.17,31.48,151.49,30.09l28.24-37.9s.29-31.07,0-32.55-5-14.79-5-14.79Z"/><path class="cls-10" d="M332.73,513.34l-57.86,21.49L301.24,607c6.74-2.94,6.93-45.31,6.93-45.31l37.63-12.25Z"/><path class="cls-10" d="M274.87,534.83l5.84-2.17,23.15,70.1s-.22,3.72-2.62,4.19Z"/><path class="cls-1" d="M309,562.67c-.36.12-1.16-1.58-2.93-2.9s-3.58-1.7-3.56-2.07,2.25-.6,4.36,1S309.31,562.63,309,562.67Z"/><path class="cls-1" d="M308.6,571.38c-.31.21-1.47-1.1-3.4-1.75s-3.63-.42-3.74-.78,1.8-1.31,4.18-.45S308.93,571.25,308.6,571.38Z"/><path class="cls-1" d="M301.12,579c-.2-.29,1.38-1.43,3.64-1.23s3.63,1.57,3.39,1.82-1.64-.38-3.5-.52S301.28,579.33,301.12,579Z"/><path class="cls-1" d="M317.23,558.93c-.38,0-.48-1.82-1.35-3.76s-2.05-3.27-1.82-3.56,2,.74,3,3S317.57,559,317.23,558.93Z"/><path class="cls-1" d="M325.16,554.09c-.15,0-.87-1.26-1.31-3.62a17.87,17.87,0,0,1-.22-4.21,18.8,18.8,0,0,1,.35-2.47,4.51,4.51,0,0,1,.45-1.4,1.62,1.62,0,0,1,1.81-.85,2.05,2.05,0,0,1,1.37,1.25,5.14,5.14,0,0,1,.31,1.42,13.56,13.56,0,0,1-.92,6.66c-.94,2.24-2,3.29-2.16,3.19s.63-1.33,1.29-3.5a15.17,15.17,0,0,0,.64-3.88,14,14,0,0,0-.12-2.31c-.08-.84-.31-1.49-.72-1.56-.16,0-.21,0-.38.22a4,4,0,0,0-.33,1,20.27,20.27,0,0,0-.39,2.31,21.53,21.53,0,0,0-.06,4C325,552.63,325.35,554,325.16,554.09Z"/><path class="cls-1" d="M324.48,553.81c-.1-.1.91-1.26,3.14-2.23a12.75,12.75,0,0,1,4.14-1,12.9,12.9,0,0,1,2.53.12,3.17,3.17,0,0,1,2.66,1.64,1.78,1.78,0,0,1-.45,1.87,5.14,5.14,0,0,1-1.19.86,8.84,8.84,0,0,1-6.73.71c-2.38-.72-3.34-2-3.23-2.11s1.26.79,3.45,1.21a8.83,8.83,0,0,0,3.81-.09,8.46,8.46,0,0,0,2.07-.83c.72-.4,1.23-.91,1.05-1.17s-.93-.76-1.64-.83a13.06,13.06,0,0,0-2.29-.18,14.17,14.17,0,0,0-3.86.62C325.79,553.13,324.61,554,324.48,553.81Z"/><path class="cls-10" d="M380.45,504.43l56,26-31.95,69.82c-6.49-3.46-3.35-45.71-3.35-45.71l-36.55-15.17Z"/><path class="cls-10" d="M436.44,530.4l-5.65-2.62-28.58,68.06s-.07,3.73,2.28,4.38Z"/><path class="cls-1" d="M400.27,555.48c.35.14,1.28-1.49,3.15-2.67s3.7-1.41,3.71-1.79-2.19-.76-4.42.7S399.92,555.41,400.27,555.48Z"/><path class="cls-1" d="M400,564.19c.29.23,1.55-1,3.52-1.48s3.65-.14,3.79-.48-1.69-1.45-4.13-.78S399.63,564,400,564.19Z"/><path class="cls-1" d="M406.81,572.36c.21-.28-1.27-1.53-3.54-1.51s-3.74,1.27-3.52,1.55,1.67-.26,3.53-.25S406.62,572.68,406.81,572.36Z"/><path class="cls-1" d="M392.32,551.1c.38,0,.63-1.78,1.64-3.65s2.31-3.09,2.09-3.4-2.08.57-3.25,2.79S392,551.14,392.32,551.1Z"/><path class="cls-1" d="M384.8,545.64c.14.07,1-1.18,1.58-3.5a17.14,17.14,0,0,0,.55-4.17,18,18,0,0,0-.14-2.5,4.88,4.88,0,0,0-.34-1.43,1.65,1.65,0,0,0-1.74-1,2,2,0,0,0-1.47,1.14,5.14,5.14,0,0,0-.42,1.39,14.93,14.93,0,0,0-.25,2.52,13.72,13.72,0,0,0,.64,4.19c.76,2.31,1.78,3.44,1.9,3.36s-.52-1.38-1-3.6a15.13,15.13,0,0,1-.33-3.92,13.33,13.33,0,0,1,.3-2.29c.14-.83.42-1.46.84-1.5.16,0,.21,0,.35.26a3.68,3.68,0,0,1,.25,1,19.19,19.19,0,0,1,.21,2.33,20.88,20.88,0,0,1-.25,4C385.12,544.21,384.61,545.57,384.8,545.64Z"/><path class="cls-1" d="M385.49,545.42c.11-.09-.8-1.33-2.95-2.46A12.39,12.39,0,0,0,376,541.6a3.18,3.18,0,0,0-2.79,1.42,1.81,1.81,0,0,0,.31,1.91,4.91,4.91,0,0,0,1.12.94A8,8,0,0,0,377,547a8.72,8.72,0,0,0,4.3.16c2.43-.53,3.49-1.77,3.39-1.85s-1.32.7-3.54.94a8.72,8.72,0,0,1-3.79-.39,8.21,8.21,0,0,1-2-1c-.7-.45-1.17-1-1-1.25s1-.68,1.7-.7a13.47,13.47,0,0,1,2.29,0,14,14,0,0,1,3.8.92C384.25,544.64,385.36,545.59,385.49,545.42Z"/><path class="cls-1" d="M405.13,460.31s48.22-18,66-15.68c9.92,1.31,25.44,8.88,26.62,21.6s-1.92,29.74-19.08,38S393,543.26,376.73,548s-56.83,15.81-56.83,15.81l-15.42-43.92s84.08-29.11,88.52-32.36,15.68-7.69,15.68-7.69Z"/><path class="cls-2" d="M237.5,466.29l.34-.09,1-.3c.85-.25,2.11-.62,3.75-1a41.16,41.16,0,0,1,14.16-1,46.38,46.38,0,0,1,9.64,1.84,34,34,0,0,1,5.09,2l5.25,2.57c7.22,3.44,15.27,7,23.85,10.36,17.19,6.89,33.68,10.15,45.44,12.83,5.9,1.3,10.67,2.38,14,3.16l3.78.89,1,.23.34.06a1.4,1.4,0,0,0-.33-.11l-1-.28c-.86-.23-2.13-.58-3.77-1-3.27-.84-8-2-13.92-3.32-11.74-2.77-28.19-6.09-45.32-12.95-8.57-3.39-16.63-6.9-23.84-10.32l-5.25-2.54a34.72,34.72,0,0,0-5.17-2,47.1,47.1,0,0,0-9.74-1.79,40.49,40.49,0,0,0-14.24,1.21c-1.64.43-2.89.83-3.74,1.11l-1,.35A1.58,1.58,0,0,0,237.5,466.29Z"/><path class="cls-2" d="M240,459.93c0,.08,1.47-.18,3.83-.43a59.42,59.42,0,0,1,9.25-.27,61,61,0,0,1,9.19,1.21c2.32.5,3.73.91,3.76.83a3.73,3.73,0,0,0-1-.39c-.63-.23-1.55-.5-2.71-.8a48.85,48.85,0,0,0-9.24-1.37,48.32,48.32,0,0,0-9.33.42c-1.18.17-2.13.35-2.78.51A3.59,3.59,0,0,0,240,459.93Z"/><path class="cls-2" d="M425.41,473.07c.06.07,1.39-1,3.7-2.4a49.41,49.41,0,0,1,19.85-7c2.7-.34,4.39-.37,4.39-.46a4.63,4.63,0,0,0-1.19-.06,30.69,30.69,0,0,0-3.24.15,44.12,44.12,0,0,0-20,7.06,30.76,30.76,0,0,0-2.62,1.91A5.63,5.63,0,0,0,425.41,473.07Z"/><path class="cls-2" d="M401.21,538.57a3.41,3.41,0,0,0-.37.15l-1.1.45c-1,.4-2.37,1.06-4.26,1.79-3.75,1.49-9.3,3.53-16.42,5.87-14.24,4.65-34.72,10.58-59.22,16.76l.28.14c-4.57-12.67-9.61-26.66-14.91-41.37l-.14.32,18.46-7.58,102.15-42h0l0,0c4.16-4.4,8-8.28,11.57-11.41a77.73,77.73,0,0,1,9.7-7.31,72.74,72.74,0,0,1,6.65-3.71l1.79-.83c.4-.19.6-.3.6-.3l-.62.25-1.81.79a66.09,66.09,0,0,0-6.71,3.64,77.63,77.63,0,0,0-9.78,7.26c-3.62,3.12-7.47,7-11.64,11.38l.06,0L323.33,514.62l-18.46,7.58-.23.1.09.23c5.31,14.71,10.37,28.69,14.95,41.36l.07.2.2-.05c24.51-6.21,45-12.21,59.2-16.94,7.11-2.38,12.65-4.47,16.39-6,1.88-.74,3.27-1.43,4.23-1.85l1.08-.49A3,3,0,0,0,401.21,538.57Z"/><path class="cls-9" d="M282,306.64s-13.88,8-16.7,17.39c-1.7,5.71-14.66,78.7-16.71,93.09-2.06,14.54,2.28,25.06,8.42,29.83s24.74,11.14,24.74,11.14L308,466.57l7.5-19.1-24.92-35.79L293,387.56Z"/><path class="cls-9" d="M309.32,294l8.66-6.39s11.28,11.54,24.24,10.18,20.63-11.28,20.63-11.28l38.64,7.87h0c2.59.52,7.32,2.16,11.84,8.62,5.05,7.2,29,39.16,29,39.16H459a12.44,12.44,0,0,1,11,6.64c2.86,5.44,6.29,12.72,5.95,15.74-.56,5.1.42,19.1-6.42,23.47-2.17,1.38-9.93,5.54-15.95,5.26-8.88-.42-19.2-5.05-25.14-9.2-5-3.52-16.75-15.69-21.25-20.44v.07l-2.89,101.38L303,462.22,282,306.64S308.3,294,309.32,294Z"/><path class="cls-1" d="M407.59,321.19c-.14,0-.41,12.56-.59,28.06s-.21,28.07-.07,28.07.41-12.56.59-28.06S407.73,321.19,407.59,321.19Z"/><path class="cls-1" d="M269.76,403.14c0,.05.86.13,2.39.43a29.46,29.46,0,0,1,6.28,2,40.88,40.88,0,0,1,8.35,5.05,72.65,72.65,0,0,1,8.8,8.14c2.9,3.12,5.54,6.22,8,9a97.3,97.3,0,0,0,6.9,7,50.22,50.22,0,0,0,5.19,4.15c.64.46,1.17.76,1.52,1a3,3,0,0,0,.55.31,2.68,2.68,0,0,0-.5-.4c-.32-.25-.84-.57-1.45-1.05a59.72,59.72,0,0,1-5.06-4.26c-2-1.9-4.33-4.32-6.79-7.08s-5.1-5.87-8-9a70.44,70.44,0,0,0-8.89-8.16,39.22,39.22,0,0,0-8.5-5,26.63,26.63,0,0,0-6.38-1.86,15.84,15.84,0,0,0-1.8-.21A2.75,2.75,0,0,0,269.76,403.14Z"/><path class="cls-1" d="M267.47,396.27c0,.09,1.53.31,3.95,1A36.66,36.66,0,0,1,288,407.13c1.74,1.81,2.66,3.06,2.74,3a4.36,4.36,0,0,0-.59-.93,21.22,21.22,0,0,0-1.88-2.33,33.36,33.36,0,0,0-16.77-10,26.85,26.85,0,0,0-2.94-.55A4.16,4.16,0,0,0,267.47,396.27Z"/><g class="cls-11"><path d="M456,378.48c-5.36,1.46-11.8-6.26-16.67-11.09-2.54-2.51-5.17-5.19-6.11-8.63a13.73,13.73,0,0,1,.85-8.65,32,32,0,0,1,3.56-6.93c-.45,4.17-1.47,10.55-.07,15.78,1.17,4.36,3.93,7.84,6.87,11.13,3.1,3.49,6.77,7.15,11.57,8.39"/></g><path class="cls-1" d="M433.11,374.06c.1,0-.52-1.77-1-4.67a34.94,34.94,0,0,1-.49-5.15,38,38,0,0,1,.42-6.31,39,39,0,0,1,1.54-6.14,35.79,35.79,0,0,1,2.06-4.74c1.37-2.62,2.5-4.07,2.41-4.14a6.37,6.37,0,0,0-.82,1,13.4,13.4,0,0,0-.87,1.24c-.32.5-.71,1.06-1,1.72a32.68,32.68,0,0,0-2.18,4.76,35.26,35.26,0,0,0-1.6,6.22,35.88,35.88,0,0,0-.39,6.4,30.6,30.6,0,0,0,.61,5.2,19.8,19.8,0,0,0,.46,2,14.55,14.55,0,0,0,.44,1.45A6.57,6.57,0,0,0,433.11,374.06Z"/><path class="cls-1" d="M358.63,290.46c-.07.13,1.12.82,2.36,1.94s2.07,2.2,2.2,2.12a7.55,7.55,0,0,0-4.56-4.06Z"/><path class="cls-1" d="M348.09,296.58c-.11.11.91,1.21,1.73,2.82s1.13,3.08,1.28,3.05a7.44,7.44,0,0,0-3-5.87Z"/><path class="cls-1" d="M330,302.94a15.7,15.7,0,0,0,1.16-3,16.81,16.81,0,0,0,1-3.06,7.65,7.65,0,0,0-1.53,2.89A7.86,7.86,0,0,0,330,302.94Z"/><path class="cls-1" d="M318.42,297.45c.15,0,.55-1.74,1.69-3.6s2.51-3.05,2.41-3.17a6.85,6.85,0,0,0-2.85,2.9A7,7,0,0,0,318.42,297.45Z"/><path class="cls-1" d="M285.06,330.27c-.14,0,1.57,13.87,3.83,30.93s4.2,30.88,4.35,30.86-1.58-13.87-3.83-30.93S285.2,330.26,285.06,330.27Z"/><path class="cls-1" d="M436.89,352.7a7.39,7.39,0,0,0,0,1.43,10.72,10.72,0,0,0,.21,1.66c.05.33.11.68.17,1s.19.74.29,1.14a31.29,31.29,0,0,0,2,5.44,37.77,37.77,0,0,0,3.72,6,31.6,31.6,0,0,0,4.95,5.09,21.32,21.32,0,0,0,5,3c.38.16.74.32,1.09.45l1,.28.88.24c.27.06.53.08.76.11a6.66,6.66,0,0,0,1.43.11,25.62,25.62,0,0,1-5-1.53,21.74,21.74,0,0,1-4.82-3,33.38,33.38,0,0,1-4.84-5,39.37,39.37,0,0,1-3.7-5.94,32.72,32.72,0,0,1-2.07-5.33A48.44,48.44,0,0,1,436.89,352.7Z"/><g class="cls-11"><path d="M288.32,468.57c-4.3-2.07-5.27-7.65-5.71-12.4q-1.94-20.88-3.86-41.77c-.6-6.55-.89-14,3.72-18.71,4.22-4.27,10.92-4.53,16.93-4.51,37.07.11,69.81,1.19,106.89,1.3l-1.89,64.85Z"/></g><path class="cls-4" d="M422.27,402.52l-3.95,75.22a5.48,5.48,0,0,1-5.51,5.17L293,483.12a5.5,5.5,0,0,1-5.52-5.19L282.9,404c-.15-3.07,2-7.16,5.14-7.22h128.6A5.5,5.5,0,0,1,422.27,402.52Z"/><path class="cls-1" d="M422.27,402.52s0-.09,0-.28a4.48,4.48,0,0,0,0-.84,5.47,5.47,0,0,0-1.42-2.93,5.69,5.69,0,0,0-2-1.36,7.07,7.07,0,0,0-2.89-.4l-7.29,0-46.42-.08-68.86-.07h-4.89a4.27,4.27,0,0,0-2.47.63,6.16,6.16,0,0,0-1.83,1.8,8.67,8.67,0,0,0-1.51,4.85c.1,1.68.2,3.36.3,5.06q.63,10.15,1.28,20.72c.87,14.07,1.77,28.64,2.69,43.56l.17,2.8c.08.94.07,1.84.23,2.82a5.76,5.76,0,0,0,3.61,4.24,7.23,7.23,0,0,0,2.82.37H302l21.52,0,40.66-.09,36.8-.09,8.49,0h2.08a18.19,18.19,0,0,0,2.08-.06,5.69,5.69,0,0,0,3.59-2,5.78,5.78,0,0,0,1.34-3.78c.07-1.31.13-2.61.2-3.89q.19-3.84.39-7.51c1-19.57,1.79-35.41,2.35-46.36.26-5.47.47-9.72.61-12.61.06-1.43.11-2.53.15-3.28s0-1.12,0-1.12,0,.38-.09,1.12-.11,1.84-.2,3.28c-.16,2.89-.4,7.13-.71,12.6-.59,11-1.45,26.79-2.51,46.35-.13,2.45-.27,4.95-.4,7.51-.07,1.28-.14,2.58-.21,3.89a5.43,5.43,0,0,1-1.25,3.54,5.3,5.3,0,0,1-3.35,1.84,16.72,16.72,0,0,1-2,.06H401l-36.8,0-40.66.06-21.52,0h-8.23a6.38,6.38,0,0,1-2.63-.34,5.22,5.22,0,0,1-3.29-3.86c-.15-.85-.15-1.82-.22-2.74l-.17-2.79c-.93-14.93-1.83-29.5-2.7-43.57q-.66-10.56-1.29-20.72-.15-2.54-.3-5a8.19,8.19,0,0,1,1.41-4.57,4.47,4.47,0,0,1,3.91-2.22h4.89l68.85-.05,46.42-.08,7.29,0a6.93,6.93,0,0,1,2.84.37,5.25,5.25,0,0,1,2,1.32,5.35,5.35,0,0,1,1.44,2.86A10.17,10.17,0,0,1,422.27,402.52Z"/><path class="cls-5" d="M344.64,439.21a7.06,7.06,0,1,0,7.06-7.06A7.06,7.06,0,0,0,344.64,439.21Z"/><path class="cls-1" d="M344.64,439.21c.06,0,0-.63.32-1.7a7,7,0,0,1,2.58-3.76,6.74,6.74,0,0,1,2.89-1.26,7,7,0,0,1,3.59.32,6.69,6.69,0,0,1,3.15,2.38,6.78,6.78,0,0,1,0,8,6.69,6.69,0,0,1-3.15,2.38,6.83,6.83,0,0,1-6.48-.94,7,7,0,0,1-2.58-3.76c-.29-1.07-.26-1.7-.32-1.7a1.34,1.34,0,0,0,0,.45,5.62,5.62,0,0,0,.15,1.3,7.07,7.07,0,0,0,2.55,4,7.35,7.35,0,0,0,3,1.39,7.28,7.28,0,1,0-3-12.91,7.07,7.07,0,0,0-2.55,4,5.62,5.62,0,0,0-.15,1.3A1.29,1.29,0,0,0,344.64,439.21Z"/><path class="cls-1" d="M418.23,410.85c-.14,0-.73,12.63-1.32,28.23s-.94,28.25-.8,28.25.74-12.63,1.32-28.23S418.37,410.86,418.23,410.85Z"/><path class="cls-7" d="M454.25,312.71c.7-.6-2.37-12.41-2.37-12.41S460,287,460.22,282.76,457,269.71,457,269.71l-23.32-6s-7.49,13.91-9,18.83,2.57,21.6,2.57,21.6l4,8.56S443.14,322.12,454.25,312.71Z"/><path class="cls-7" d="M460.17,285.32a49.11,49.11,0,0,0,2.46-5.18c1.48-3.5,3.29-6.93,0-8.89a4.31,4.31,0,0,0-3.51-.56s.5-2.94-1.26-4.05a3.79,3.79,0,0,0-3.46-.3s.56-4.16-2-5.92a6.14,6.14,0,0,0-6.45-.18s2-18.2,2.18-19.16c.64-3.54-.67-6.67-4.19-5.8-1.29.32-2,1.68-3.52,7.61s-3.94,16-3.94,16-4.1,7.12-6,11-5.76,12.65-6.08,15c-.82,6,2.7,14,2.7,14l24.79,1.44S459.23,287,460.17,285.32Z"/><path class="cls-8" d="M458.63,271.48a20.74,20.74,0,0,0-1.92,2.68l-2,3a13.57,13.57,0,0,0-1.07,1.86,3.84,3.84,0,0,0-.29,2.36A2.39,2.39,0,0,0,455,283.2a3.14,3.14,0,0,0,2.22-.27,10.36,10.36,0,0,0,1.65-1c.49-.35.94-.68,1.34-1,.8-.63,1.43-1.16,1.85-1.55a3.17,3.17,0,0,0,.61-.64c-.05-.06-1,.72-2.68,1.9a22.23,22.23,0,0,1-3,1.88,2.65,2.65,0,0,1-1.87.22,1.89,1.89,0,0,1-1.21-1.46,3.37,3.37,0,0,1,.25-2.05,13,13,0,0,1,1-1.8l1.87-3A20.87,20.87,0,0,0,458.63,271.48Z"/><path class="cls-8" d="M438.3,273.64a8.28,8.28,0,0,0-.26-3.9,8.53,8.53,0,0,0-1.54-3.58c-.14.07.55,1.65,1,3.71S438.15,273.64,438.3,273.64Z"/><path class="cls-7" d="M428.48,279a16.39,16.39,0,0,1,8.29-4.33,31.12,31.12,0,0,1,9.44-.36c2.52.23,5.4.88,6.55,3.14s-.24,5.31-2.48,6.65-5,1.39-7.6,1.15-5.21-.72-7.78-.32"/><path class="cls-8" d="M434.9,284.89c0,.05.7-.06,2-.05a52.56,52.56,0,0,1,5.31.5,22.13,22.13,0,0,0,3.72.16,10.2,10.2,0,0,0,4.18-1.05,6.37,6.37,0,0,0,3.1-3.6,4.9,4.9,0,0,0,.18-2.58A4.44,4.44,0,0,0,452,276a8.9,8.9,0,0,0-4.76-1.85,43.31,43.31,0,0,0-4.71-.28,23.85,23.85,0,0,0-7.88,1.19,16,16,0,0,0-4.73,2.55,12.53,12.53,0,0,0-1.09,1c-.22.24-.34.38-.32.39s.51-.48,1.53-1.21a16.77,16.77,0,0,1,4.72-2.37,24.25,24.25,0,0,1,7.77-1.06,42,42,0,0,1,4.64.31,8.44,8.44,0,0,1,4.48,1.73,3.86,3.86,0,0,1,1.21,2,4.38,4.38,0,0,1-.15,2.3,6,6,0,0,1-2.84,3.35,9.74,9.74,0,0,1-4,1,23,23,0,0,1-3.66-.09,41.28,41.28,0,0,0-5.35-.34,12.19,12.19,0,0,0-1.46.13A1.52,1.52,0,0,0,434.9,284.89Z"/><path class="cls-7" d="M458.45,271.76c-2.61,4-4.91,8.32-7.11,12.52a7.78,7.78,0,0,1-2.49,3.23c-.94.58-3.27-.47-4.32-.83l7.16-16.29"/><path class="cls-8" d="M451.69,270.39a8,8,0,0,0-.63,1.22L449.47,275c-1.32,2.9-3.14,7-5.17,11.56l-.12.25.27.1c.77.27,1.6.62,2.5.85a5.51,5.51,0,0,0,1.09.16,2,2,0,0,0,.59-.06,1.52,1.52,0,0,0,.54-.27,5.39,5.39,0,0,0,1.44-1.54c.74-1.15,1.26-2.31,1.84-3.39,1.12-2.17,2.16-4.11,3.05-5.72s1.64-2.9,2.17-3.79a11.12,11.12,0,0,0,.78-1.41,8,8,0,0,0-.95,1.3c-.58.86-1.39,2.12-2.32,3.72s-2,3.52-3.15,5.68c-.6,1.06-1.14,2.25-1.84,3.33a5.46,5.46,0,0,1-1.31,1.4,2.16,2.16,0,0,1-1.81.08,25.19,25.19,0,0,1-2.45-.83l.15.35c2-4.61,3.78-8.69,5-11.63l1.44-3.48A6.87,6.87,0,0,0,451.69,270.39Z"/><path class="cls-7" d="M453.62,265.55l-6.9,17.32a11.86,11.86,0,0,1-1.86,3.47,4,4,0,0,1-3.47,1.51c-1.8-.26-3-2.17-3.07-4a13,13,0,0,1,1.29-5.25,109.43,109.43,0,0,0,4.95-16.21"/><path class="cls-8" d="M444.56,262.4a3.73,3.73,0,0,0-.17.53c-.11.4-.24.91-.41,1.53-.36,1.33-.88,3.25-1.61,5.59s-1.67,5.12-2.86,8.14a17,17,0,0,0-1.44,5,5.31,5.31,0,0,0,.52,2.75,4,4,0,0,0,2.08,2,3.46,3.46,0,0,0,2.9-.24,5.36,5.36,0,0,0,2-1.92,30.3,30.3,0,0,0,2.09-4.7c1.18-3,2.25-5.74,3.15-8.05l2.09-5.45c.21-.6.39-1.09.54-1.49a1.74,1.74,0,0,0,.15-.53,2.55,2.55,0,0,0-.25.49c-.17.39-.38.87-.63,1.46-.56,1.34-1.32,3.16-2.24,5.38l-3.25,8a30.8,30.8,0,0,1-2.07,4.6,5,5,0,0,1-1.85,1.75,3,3,0,0,1-2.47.2,3.46,3.46,0,0,1-1.8-1.77,4.8,4.8,0,0,1-.48-2.49,16.56,16.56,0,0,1,1.38-4.81c1.17-3.05,2.08-5.84,2.77-8.21s1.15-4.31,1.45-5.65c.14-.68.25-1.2.31-1.56A1.75,1.75,0,0,0,444.56,262.4Z"/><path class="cls-7" d="M469.5,355c-.62-2.29-16.43-48.89-16.43-48.89L427,303l10.66,40.15s-1.66,10.2,0,16.23,15,22.47,21.85,18.52S470.13,357.33,469.5,355Z"/><path class="cls-8" d="M437.67,298.91a3.2,3.2,0,0,0,1.49-.2,8.27,8.27,0,0,0,3.14-1.81,8.15,8.15,0,0,0,2.08-3,2.89,2.89,0,0,0,.32-1.46,13.35,13.35,0,0,1-2.75,4.06A13.61,13.61,0,0,1,437.67,298.91Z"/><path class="cls-12" d="M655.07,381.28H534.89V261.1H655.07Zm-116.83-3.36H651.71V264.45H538.24Z"/><polygon class="cls-12" points="558.78 323.66 574.74 306.53 601.33 327.8 662.19 268.71 676.77 285.89 600.15 361.48 558.78 323.66"/><rect class="cls-13" x="468.36" y="123.75" width="268.63" height="45.35"/><path class="cls-12" d="M541.86,152.81a13.89,13.89,0,0,0,6,1.49c2.48,0,3.8-1,3.8-2.59s-1.14-2.34-4-3.37c-4-1.38-6.57-3.58-6.57-7.06,0-4.08,3.41-7.2,9-7.2a14.62,14.62,0,0,1,6.1,1.2l-1.2,4.37a11.39,11.39,0,0,0-5-1.14c-2.34,0-3.47,1.07-3.47,2.31,0,1.52,1.35,2.2,4.43,3.37,4.22,1.56,6.21,3.76,6.21,7.13,0,4-3.09,7.41-9.65,7.41a15.76,15.76,0,0,1-6.78-1.45Z"/><path class="cls-12" d="M573.36,134.47v23.91h-5.43V134.47Z"/><path class="cls-12" d="M602.7,157.71a15.61,15.61,0,0,1-6.14,1c-8.27,0-12.52-5.14-12.52-11.95,0-8.16,5.81-12.7,13.05-12.7a14.08,14.08,0,0,1,5.89,1.06l-1.1,4.29a11.69,11.69,0,0,0-4.54-.88c-4.29,0-7.63,2.59-7.63,7.91,0,4.79,2.84,7.8,7.67,7.8a13.36,13.36,0,0,0,4.5-.78Z"/><path class="cls-12" d="M634.16,146.18c0,7.84-4.75,12.59-11.74,12.59s-11.25-5.36-11.25-12.17c0-7.17,4.58-12.52,11.64-12.52C630.15,134.08,634.16,139.58,634.16,146.18Zm-17.28.31c0,4.69,2.2,8,5.82,8s5.75-3.48,5.75-8.13c0-4.29-2.06-8-5.79-8S616.88,141.85,616.88,146.49Z"/><path class="cls-12" d="M644.79,158.38V134.47h6.32l5,8.76a69.94,69.94,0,0,1,3.9,8.2h.11a87.52,87.52,0,0,1-.47-10v-7h5v23.91h-5.68l-5.1-9.22a89.52,89.52,0,0,1-4.15-8.45l-.11,0c.14,3.15.21,6.52.21,10.43v7.2Z"/></svg>